M48
; DRILL file {KiCad 7.0.8} date Sat Dec 30 15:26:24 2023
; FORMAT={-:-/ absolute / inch / decimal}
; #@! TF.CreationDate,2023-12-30T15:26:24+08:00
; #@! TF.GenerationSoftware,Kicad,Pcbnew,7.0.8
; #@! TF.FileFunction,Plated,1,4,PTH
FMAT,2
INCH
; #@! TA.AperFunction,Plated,PTH,ViaDrill
T1C0.0118
; #@! TA.AperFunction,Plated,PTH,ComponentDrill
T2C0.0118
; #@! TA.AperFunction,Plated,PTH,ViaDrill
T3C0.0157
; #@! TA.AperFunction,Plated,PTH,ComponentDrill
T4C0.0197
; #@! TA.AperFunction,Plated,PTH,ComponentDrill
T5C0.0236
; #@! TA.AperFunction,Plated,PTH,ComponentDrill
T6C0.0748
; #@! TA.AperFunction,Plated,PTH,ComponentDrill
T7C0.0866
%
G90
G05
T1
X1.311Y-6.7795
X1.339Y-5.8339
X1.3394Y-6.7492
X1.3583Y-6.3346
X1.3632Y-6.5797
X1.3665Y-6.7539
X1.3783Y-5.8346
X1.3789Y-6.562
X1.3898Y-5.9409
X1.3965Y-6.7543
X1.4283Y-6.7543
X1.4366Y-6.1594
X1.4587Y-5.9803
X1.5059Y-6.1496
X1.5118Y-6.0803
X1.5217Y-6.2665
X1.5404Y-6.6713
X1.5516Y-6.2657
X1.5659Y-6.6722
X1.5669Y-6.6998
X1.5945Y-6.6722
X1.5965Y-6.6998
X1.5994Y-6.2746
X1.6063Y-5.9409
X1.6211Y-6.6732
X1.6821Y-6.6152
X1.69Y-6.2114
X1.6906Y-6.748
X1.724Y-6.7476
X1.7274Y-5.8051
X1.7283Y-5.8317
X1.7293Y-5.8602
X1.7293Y-5.8888
X1.7431Y-6.5709
X1.7614Y-6.7488
X1.766Y-6.1195
X1.771Y-6.4763
X1.7756Y-6.5098
X1.7795Y-6.002
X1.7948Y-6.5394
X1.7954Y-6.4543
X1.8031Y-6.4237
X1.8041Y-6.3809
X1.81Y-5.8504
X1.812Y-5.7874
X1.8217Y-6.519
X1.8268Y-5.9606
X1.8307Y-6.4478
X1.8317Y-6.2805
X1.8348Y-6.3696
X1.8376Y-6.1929
X1.8415Y-6.0591
X1.8415Y-6.1201
X1.8622Y-6.3134
X1.866Y-6.5794
X1.8775Y-6.7653
X1.8922Y-6.5969
X1.8947Y-6.1407
X1.8957Y-6.7343
X1.9222Y-6.6122
X1.9616Y-6.2913
X1.9715Y-6.1864
X1.9783Y-6.7293
X2.0031Y-6.7752
X2.0098Y-6.2825
X2.0138Y-6.7082
X2.0344Y-6.6831
X2.0374Y-6.5364
X2.0402Y-6.778
X2.0453Y-5.936
X2.0512Y-6.6555
X2.064Y-6.2274
X2.065Y-6.5354
X2.0778Y-6.6909
X2.0965Y-6.5344
X2.1152Y-5.7982
X2.1152Y-5.8248
X2.1152Y-5.8514
X2.1152Y-5.8789
X2.123Y-6.5344
X2.124Y-6.3504
X2.1265Y-6.6978
X2.128Y-6.2175
X2.1535Y-6.0157
X2.1762Y-6.2785
X2.1781Y-6.0609
X2.1791Y-6.2303
X2.1811Y-6.874
X2.1815Y-6.1236
X2.1929Y-5.8789
X2.1936Y-6.6004
X2.1939Y-5.748
X2.2028Y-6.3031
X2.2146Y-6.625
X2.2224Y-6.1358
X2.2343Y-6.2795
X2.2382Y-6.5748
X2.2431Y-6.2303
X2.2512Y-6.4037
X2.257Y-6.351
X2.262Y-6.4921
X2.2757Y-6.4254
X2.2783Y-6.3762
X2.2796Y-6.1303
X2.2992Y-6.9016
X2.2992Y-6.9291
X2.3071Y-6.4301
X2.4539Y-6.537
X2.4557Y-6.5
X2.4872Y-6.623
X2.4882Y-6.5728
X2.5Y-5.8278
X2.5Y-5.8543
X2.5Y-5.8848
X2.501Y-5.7992
X2.5748Y-5.7461
X2.5748Y-5.8789
X2.5827Y-6.563
X2.5866Y-6.7795
T2
X1.5906Y-6.3858
X1.5906Y-6.4291
X1.5906Y-6.4803
X1.5906Y-6.5276
X1.6378Y-6.3858
X1.6378Y-6.4291
X1.6378Y-6.4803
X1.6378Y-6.5276
T3
X1.4882Y-6.5315
T4
X2.7667Y-6.0305
X2.7667Y-6.0797
X2.7667Y-6.1289
X2.7667Y-6.1781
X2.7667Y-6.3366
X2.7667Y-6.3858
X2.7667Y-6.435
X2.7667Y-6.4843
X2.7667Y-6.5335
X2.7667Y-6.5827
X2.7667Y-6.6319
X2.7667Y-6.6811
T6
X1.6614Y-6.9902
X1.8583Y-6.9902
X1.8661Y-5.626
X2.0039Y-5.626
X2.1417Y-5.626
T7
X1.3465Y-5.6024
X1.3504Y-6.9961
X2.7441Y-6.9961
X2.748Y-5.6024
T5
G00X2.1335Y-6.7764
M15
G01X2.1335Y-6.8197
M16
G05
G00X2.1335Y-6.9508
M15
G01X2.1335Y-6.9744
M16
G05
G00X2.4736Y-6.7764
M15
G01X2.4736Y-6.8197
M16
G05
G00X2.4736Y-6.9508
M15
G01X2.4736Y-6.9744
M16
G05
T0
M30
