%TF.GenerationSoftware,KiCad,Pcbnew,7.0.8*%
%TF.CreationDate,2024-01-09T15:58:46+08:00*%
%TF.ProjectId,FOC2,464f4332-2e6b-4696-9361-645f70636258,rev?*%
%TF.SameCoordinates,Original*%
%TF.FileFunction,Legend,Top*%
%TF.FilePolarity,Positive*%
%FSLAX46Y46*%
G04 Gerber Fmt 4.6, Leading zero omitted, Abs format (unit mm)*
G04 Created by KiCad (PCBNEW 7.0.8) date 2024-01-09 15:58:46*
%MOMM*%
%LPD*%
G01*
G04 APERTURE LIST*
%ADD10C,0.150000*%
%ADD11C,0.120000*%
G04 APERTURE END LIST*
D10*
X65225000Y-166275000D02*
X68125000Y-166275000D01*
X68125000Y-171975000D01*
X65225000Y-171975000D01*
X65225000Y-166275000D01*
X65225000Y-150325000D02*
X68125000Y-150325000D01*
X68125000Y-156525000D01*
X65225000Y-156525000D01*
X65225000Y-150325000D01*
X65210000Y-157915000D02*
X68115000Y-157915000D01*
X68115000Y-159700000D01*
X65210000Y-159700000D01*
X65210000Y-157915000D01*
X65220000Y-163220000D02*
X68115000Y-163220000D01*
X68115000Y-164640000D01*
X65220000Y-164640000D01*
X65220000Y-163220000D01*
X65215000Y-157915000D02*
X68115000Y-157915000D01*
X68115000Y-164640000D01*
X65215000Y-164640000D01*
X65215000Y-157915000D01*
X68125000Y-170475000D02*
X65250000Y-170475000D01*
X45033207Y-143249580D02*
X44985588Y-143297200D01*
X44985588Y-143297200D02*
X44842731Y-143344819D01*
X44842731Y-143344819D02*
X44747493Y-143344819D01*
X44747493Y-143344819D02*
X44604636Y-143297200D01*
X44604636Y-143297200D02*
X44509398Y-143201961D01*
X44509398Y-143201961D02*
X44461779Y-143106723D01*
X44461779Y-143106723D02*
X44414160Y-142916247D01*
X44414160Y-142916247D02*
X44414160Y-142773390D01*
X44414160Y-142773390D02*
X44461779Y-142582914D01*
X44461779Y-142582914D02*
X44509398Y-142487676D01*
X44509398Y-142487676D02*
X44604636Y-142392438D01*
X44604636Y-142392438D02*
X44747493Y-142344819D01*
X44747493Y-142344819D02*
X44842731Y-142344819D01*
X44842731Y-142344819D02*
X44985588Y-142392438D01*
X44985588Y-142392438D02*
X45033207Y-142440057D01*
X66082017Y-158614866D02*
X66015350Y-158581533D01*
X66015350Y-158581533D02*
X65915350Y-158581533D01*
X65915350Y-158581533D02*
X65815350Y-158614866D01*
X65815350Y-158614866D02*
X65748684Y-158681533D01*
X65748684Y-158681533D02*
X65715350Y-158748200D01*
X65715350Y-158748200D02*
X65682017Y-158881533D01*
X65682017Y-158881533D02*
X65682017Y-158981533D01*
X65682017Y-158981533D02*
X65715350Y-159114866D01*
X65715350Y-159114866D02*
X65748684Y-159181533D01*
X65748684Y-159181533D02*
X65815350Y-159248200D01*
X65815350Y-159248200D02*
X65915350Y-159281533D01*
X65915350Y-159281533D02*
X65982017Y-159281533D01*
X65982017Y-159281533D02*
X66082017Y-159248200D01*
X66082017Y-159248200D02*
X66115350Y-159214866D01*
X66115350Y-159214866D02*
X66115350Y-158981533D01*
X66115350Y-158981533D02*
X65982017Y-158981533D01*
X66415350Y-159281533D02*
X66415350Y-158581533D01*
X66415350Y-158581533D02*
X66815350Y-159281533D01*
X66815350Y-159281533D02*
X66815350Y-158581533D01*
X67148683Y-159281533D02*
X67148683Y-158581533D01*
X67148683Y-158581533D02*
X67315350Y-158581533D01*
X67315350Y-158581533D02*
X67415350Y-158614866D01*
X67415350Y-158614866D02*
X67482017Y-158681533D01*
X67482017Y-158681533D02*
X67515350Y-158748200D01*
X67515350Y-158748200D02*
X67548683Y-158881533D01*
X67548683Y-158881533D02*
X67548683Y-158981533D01*
X67548683Y-158981533D02*
X67515350Y-159114866D01*
X67515350Y-159114866D02*
X67482017Y-159181533D01*
X67482017Y-159181533D02*
X67415350Y-159248200D01*
X67415350Y-159248200D02*
X67315350Y-159281533D01*
X67315350Y-159281533D02*
X67148683Y-159281533D01*
X66265350Y-155856533D02*
X66032017Y-155523200D01*
X65865350Y-155856533D02*
X65865350Y-155156533D01*
X65865350Y-155156533D02*
X66132017Y-155156533D01*
X66132017Y-155156533D02*
X66198684Y-155189866D01*
X66198684Y-155189866D02*
X66232017Y-155223200D01*
X66232017Y-155223200D02*
X66265350Y-155289866D01*
X66265350Y-155289866D02*
X66265350Y-155389866D01*
X66265350Y-155389866D02*
X66232017Y-155456533D01*
X66232017Y-155456533D02*
X66198684Y-155489866D01*
X66198684Y-155489866D02*
X66132017Y-155523200D01*
X66132017Y-155523200D02*
X65865350Y-155523200D01*
X66532017Y-155823200D02*
X66632017Y-155856533D01*
X66632017Y-155856533D02*
X66798684Y-155856533D01*
X66798684Y-155856533D02*
X66865350Y-155823200D01*
X66865350Y-155823200D02*
X66898684Y-155789866D01*
X66898684Y-155789866D02*
X66932017Y-155723200D01*
X66932017Y-155723200D02*
X66932017Y-155656533D01*
X66932017Y-155656533D02*
X66898684Y-155589866D01*
X66898684Y-155589866D02*
X66865350Y-155556533D01*
X66865350Y-155556533D02*
X66798684Y-155523200D01*
X66798684Y-155523200D02*
X66665350Y-155489866D01*
X66665350Y-155489866D02*
X66598684Y-155456533D01*
X66598684Y-155456533D02*
X66565350Y-155423200D01*
X66565350Y-155423200D02*
X66532017Y-155356533D01*
X66532017Y-155356533D02*
X66532017Y-155289866D01*
X66532017Y-155289866D02*
X66565350Y-155223200D01*
X66565350Y-155223200D02*
X66598684Y-155189866D01*
X66598684Y-155189866D02*
X66665350Y-155156533D01*
X66665350Y-155156533D02*
X66832017Y-155156533D01*
X66832017Y-155156533D02*
X66932017Y-155189866D01*
X67132017Y-155156533D02*
X67532017Y-155156533D01*
X67332017Y-155856533D02*
X67332017Y-155156533D01*
X65665350Y-168006533D02*
X66065350Y-168006533D01*
X65865350Y-168706533D02*
X65865350Y-168006533D01*
X66232017Y-168006533D02*
X66698683Y-168706533D01*
X66698683Y-168006533D02*
X66232017Y-168706533D01*
X66165350Y-170056533D02*
X65932017Y-169723200D01*
X65765350Y-170056533D02*
X65765350Y-169356533D01*
X65765350Y-169356533D02*
X66032017Y-169356533D01*
X66032017Y-169356533D02*
X66098684Y-169389866D01*
X66098684Y-169389866D02*
X66132017Y-169423200D01*
X66132017Y-169423200D02*
X66165350Y-169489866D01*
X66165350Y-169489866D02*
X66165350Y-169589866D01*
X66165350Y-169589866D02*
X66132017Y-169656533D01*
X66132017Y-169656533D02*
X66098684Y-169689866D01*
X66098684Y-169689866D02*
X66032017Y-169723200D01*
X66032017Y-169723200D02*
X65765350Y-169723200D01*
X66398684Y-169356533D02*
X66865350Y-170056533D01*
X66865350Y-169356533D02*
X66398684Y-170056533D01*
X65865350Y-160852866D02*
X66098684Y-160852866D01*
X66198684Y-161219533D02*
X65865350Y-161219533D01*
X65865350Y-161219533D02*
X65865350Y-160519533D01*
X65865350Y-160519533D02*
X66198684Y-160519533D01*
X66498683Y-161219533D02*
X66498683Y-160519533D01*
X66498683Y-160519533D02*
X66898683Y-161219533D01*
X66898683Y-161219533D02*
X66898683Y-160519533D01*
X66265350Y-162279866D02*
X66232017Y-162313200D01*
X66232017Y-162313200D02*
X66132017Y-162346533D01*
X66132017Y-162346533D02*
X66065350Y-162346533D01*
X66065350Y-162346533D02*
X65965350Y-162313200D01*
X65965350Y-162313200D02*
X65898684Y-162246533D01*
X65898684Y-162246533D02*
X65865350Y-162179866D01*
X65865350Y-162179866D02*
X65832017Y-162046533D01*
X65832017Y-162046533D02*
X65832017Y-161946533D01*
X65832017Y-161946533D02*
X65865350Y-161813200D01*
X65865350Y-161813200D02*
X65898684Y-161746533D01*
X65898684Y-161746533D02*
X65965350Y-161679866D01*
X65965350Y-161679866D02*
X66065350Y-161646533D01*
X66065350Y-161646533D02*
X66132017Y-161646533D01*
X66132017Y-161646533D02*
X66232017Y-161679866D01*
X66232017Y-161679866D02*
X66265350Y-161713200D01*
X66698684Y-161646533D02*
X66832017Y-161646533D01*
X66832017Y-161646533D02*
X66898684Y-161679866D01*
X66898684Y-161679866D02*
X66965350Y-161746533D01*
X66965350Y-161746533D02*
X66998684Y-161879866D01*
X66998684Y-161879866D02*
X66998684Y-162113200D01*
X66998684Y-162113200D02*
X66965350Y-162246533D01*
X66965350Y-162246533D02*
X66898684Y-162313200D01*
X66898684Y-162313200D02*
X66832017Y-162346533D01*
X66832017Y-162346533D02*
X66698684Y-162346533D01*
X66698684Y-162346533D02*
X66632017Y-162313200D01*
X66632017Y-162313200D02*
X66565350Y-162246533D01*
X66565350Y-162246533D02*
X66532017Y-162113200D01*
X66532017Y-162113200D02*
X66532017Y-161879866D01*
X66532017Y-161879866D02*
X66565350Y-161746533D01*
X66565350Y-161746533D02*
X66632017Y-161679866D01*
X66632017Y-161679866D02*
X66698684Y-161646533D01*
X67298683Y-162346533D02*
X67298683Y-161646533D01*
X67298683Y-161646533D02*
X67465350Y-161646533D01*
X67465350Y-161646533D02*
X67565350Y-161679866D01*
X67565350Y-161679866D02*
X67632017Y-161746533D01*
X67632017Y-161746533D02*
X67665350Y-161813200D01*
X67665350Y-161813200D02*
X67698683Y-161946533D01*
X67698683Y-161946533D02*
X67698683Y-162046533D01*
X67698683Y-162046533D02*
X67665350Y-162179866D01*
X67665350Y-162179866D02*
X67632017Y-162246533D01*
X67632017Y-162246533D02*
X67565350Y-162313200D01*
X67565350Y-162313200D02*
X67465350Y-162346533D01*
X67465350Y-162346533D02*
X67298683Y-162346533D01*
X66165350Y-171364866D02*
X66132017Y-171398200D01*
X66132017Y-171398200D02*
X66032017Y-171431533D01*
X66032017Y-171431533D02*
X65965350Y-171431533D01*
X65965350Y-171431533D02*
X65865350Y-171398200D01*
X65865350Y-171398200D02*
X65798684Y-171331533D01*
X65798684Y-171331533D02*
X65765350Y-171264866D01*
X65765350Y-171264866D02*
X65732017Y-171131533D01*
X65732017Y-171131533D02*
X65732017Y-171031533D01*
X65732017Y-171031533D02*
X65765350Y-170898200D01*
X65765350Y-170898200D02*
X65798684Y-170831533D01*
X65798684Y-170831533D02*
X65865350Y-170764866D01*
X65865350Y-170764866D02*
X65965350Y-170731533D01*
X65965350Y-170731533D02*
X66032017Y-170731533D01*
X66032017Y-170731533D02*
X66132017Y-170764866D01*
X66132017Y-170764866D02*
X66165350Y-170798200D01*
X66432017Y-171231533D02*
X66765350Y-171231533D01*
X66365350Y-171431533D02*
X66598684Y-170731533D01*
X66598684Y-170731533D02*
X66832017Y-171431533D01*
X67065350Y-171431533D02*
X67065350Y-170731533D01*
X67065350Y-170731533D02*
X67465350Y-171431533D01*
X67465350Y-171431533D02*
X67465350Y-170731533D01*
X65748684Y-163506533D02*
X66182017Y-163506533D01*
X66182017Y-163506533D02*
X65948684Y-163773200D01*
X65948684Y-163773200D02*
X66048684Y-163773200D01*
X66048684Y-163773200D02*
X66115350Y-163806533D01*
X66115350Y-163806533D02*
X66148684Y-163839866D01*
X66148684Y-163839866D02*
X66182017Y-163906533D01*
X66182017Y-163906533D02*
X66182017Y-164073200D01*
X66182017Y-164073200D02*
X66148684Y-164139866D01*
X66148684Y-164139866D02*
X66115350Y-164173200D01*
X66115350Y-164173200D02*
X66048684Y-164206533D01*
X66048684Y-164206533D02*
X65848684Y-164206533D01*
X65848684Y-164206533D02*
X65782017Y-164173200D01*
X65782017Y-164173200D02*
X65748684Y-164139866D01*
X66382017Y-163506533D02*
X66615351Y-164206533D01*
X66615351Y-164206533D02*
X66848684Y-163506533D01*
X67015351Y-163506533D02*
X67448684Y-163506533D01*
X67448684Y-163506533D02*
X67215351Y-163773200D01*
X67215351Y-163773200D02*
X67315351Y-163773200D01*
X67315351Y-163773200D02*
X67382017Y-163806533D01*
X67382017Y-163806533D02*
X67415351Y-163839866D01*
X67415351Y-163839866D02*
X67448684Y-163906533D01*
X67448684Y-163906533D02*
X67448684Y-164073200D01*
X67448684Y-164073200D02*
X67415351Y-164139866D01*
X67415351Y-164139866D02*
X67382017Y-164173200D01*
X67382017Y-164173200D02*
X67315351Y-164206533D01*
X67315351Y-164206533D02*
X67115351Y-164206533D01*
X67115351Y-164206533D02*
X67048684Y-164173200D01*
X67048684Y-164173200D02*
X67015351Y-164139866D01*
X66132017Y-151139866D02*
X66065350Y-151106533D01*
X66065350Y-151106533D02*
X65965350Y-151106533D01*
X65965350Y-151106533D02*
X65865350Y-151139866D01*
X65865350Y-151139866D02*
X65798684Y-151206533D01*
X65798684Y-151206533D02*
X65765350Y-151273200D01*
X65765350Y-151273200D02*
X65732017Y-151406533D01*
X65732017Y-151406533D02*
X65732017Y-151506533D01*
X65732017Y-151506533D02*
X65765350Y-151639866D01*
X65765350Y-151639866D02*
X65798684Y-151706533D01*
X65798684Y-151706533D02*
X65865350Y-151773200D01*
X65865350Y-151773200D02*
X65965350Y-151806533D01*
X65965350Y-151806533D02*
X66032017Y-151806533D01*
X66032017Y-151806533D02*
X66132017Y-151773200D01*
X66132017Y-151773200D02*
X66165350Y-151739866D01*
X66165350Y-151739866D02*
X66165350Y-151506533D01*
X66165350Y-151506533D02*
X66032017Y-151506533D01*
X66465350Y-151806533D02*
X66465350Y-151106533D01*
X66465350Y-151106533D02*
X66865350Y-151806533D01*
X66865350Y-151806533D02*
X66865350Y-151106533D01*
X67198683Y-151806533D02*
X67198683Y-151106533D01*
X67198683Y-151106533D02*
X67365350Y-151106533D01*
X67365350Y-151106533D02*
X67465350Y-151139866D01*
X67465350Y-151139866D02*
X67532017Y-151206533D01*
X67532017Y-151206533D02*
X67565350Y-151273200D01*
X67565350Y-151273200D02*
X67598683Y-151406533D01*
X67598683Y-151406533D02*
X67598683Y-151506533D01*
X67598683Y-151506533D02*
X67565350Y-151639866D01*
X67565350Y-151639866D02*
X67532017Y-151706533D01*
X67532017Y-151706533D02*
X67465350Y-151773200D01*
X67465350Y-151773200D02*
X67365350Y-151806533D01*
X67365350Y-151806533D02*
X67198683Y-151806533D01*
X65757017Y-154423200D02*
X65857017Y-154456533D01*
X65857017Y-154456533D02*
X66023684Y-154456533D01*
X66023684Y-154456533D02*
X66090350Y-154423200D01*
X66090350Y-154423200D02*
X66123684Y-154389866D01*
X66123684Y-154389866D02*
X66157017Y-154323200D01*
X66157017Y-154323200D02*
X66157017Y-154256533D01*
X66157017Y-154256533D02*
X66123684Y-154189866D01*
X66123684Y-154189866D02*
X66090350Y-154156533D01*
X66090350Y-154156533D02*
X66023684Y-154123200D01*
X66023684Y-154123200D02*
X65890350Y-154089866D01*
X65890350Y-154089866D02*
X65823684Y-154056533D01*
X65823684Y-154056533D02*
X65790350Y-154023200D01*
X65790350Y-154023200D02*
X65757017Y-153956533D01*
X65757017Y-153956533D02*
X65757017Y-153889866D01*
X65757017Y-153889866D02*
X65790350Y-153823200D01*
X65790350Y-153823200D02*
X65823684Y-153789866D01*
X65823684Y-153789866D02*
X65890350Y-153756533D01*
X65890350Y-153756533D02*
X66057017Y-153756533D01*
X66057017Y-153756533D02*
X66157017Y-153789866D01*
X66857017Y-154389866D02*
X66823684Y-154423200D01*
X66823684Y-154423200D02*
X66723684Y-154456533D01*
X66723684Y-154456533D02*
X66657017Y-154456533D01*
X66657017Y-154456533D02*
X66557017Y-154423200D01*
X66557017Y-154423200D02*
X66490351Y-154356533D01*
X66490351Y-154356533D02*
X66457017Y-154289866D01*
X66457017Y-154289866D02*
X66423684Y-154156533D01*
X66423684Y-154156533D02*
X66423684Y-154056533D01*
X66423684Y-154056533D02*
X66457017Y-153923200D01*
X66457017Y-153923200D02*
X66490351Y-153856533D01*
X66490351Y-153856533D02*
X66557017Y-153789866D01*
X66557017Y-153789866D02*
X66657017Y-153756533D01*
X66657017Y-153756533D02*
X66723684Y-153756533D01*
X66723684Y-153756533D02*
X66823684Y-153789866D01*
X66823684Y-153789866D02*
X66857017Y-153823200D01*
X67157017Y-154456533D02*
X67157017Y-153756533D01*
X67557017Y-154456533D02*
X67257017Y-154056533D01*
X67557017Y-153756533D02*
X67157017Y-154156533D01*
X57289160Y-143184104D02*
X57765350Y-143184104D01*
X57193922Y-143469819D02*
X57527255Y-142469819D01*
X57527255Y-142469819D02*
X57860588Y-143469819D01*
X66132017Y-166689866D02*
X66065350Y-166656533D01*
X66065350Y-166656533D02*
X65965350Y-166656533D01*
X65965350Y-166656533D02*
X65865350Y-166689866D01*
X65865350Y-166689866D02*
X65798684Y-166756533D01*
X65798684Y-166756533D02*
X65765350Y-166823200D01*
X65765350Y-166823200D02*
X65732017Y-166956533D01*
X65732017Y-166956533D02*
X65732017Y-167056533D01*
X65732017Y-167056533D02*
X65765350Y-167189866D01*
X65765350Y-167189866D02*
X65798684Y-167256533D01*
X65798684Y-167256533D02*
X65865350Y-167323200D01*
X65865350Y-167323200D02*
X65965350Y-167356533D01*
X65965350Y-167356533D02*
X66032017Y-167356533D01*
X66032017Y-167356533D02*
X66132017Y-167323200D01*
X66132017Y-167323200D02*
X66165350Y-167289866D01*
X66165350Y-167289866D02*
X66165350Y-167056533D01*
X66165350Y-167056533D02*
X66032017Y-167056533D01*
X66465350Y-167356533D02*
X66465350Y-166656533D01*
X66465350Y-166656533D02*
X66865350Y-167356533D01*
X66865350Y-167356533D02*
X66865350Y-166656533D01*
X67198683Y-167356533D02*
X67198683Y-166656533D01*
X67198683Y-166656533D02*
X67365350Y-166656533D01*
X67365350Y-166656533D02*
X67465350Y-166689866D01*
X67465350Y-166689866D02*
X67532017Y-166756533D01*
X67532017Y-166756533D02*
X67565350Y-166823200D01*
X67565350Y-166823200D02*
X67598683Y-166956533D01*
X67598683Y-166956533D02*
X67598683Y-167056533D01*
X67598683Y-167056533D02*
X67565350Y-167189866D01*
X67565350Y-167189866D02*
X67532017Y-167256533D01*
X67532017Y-167256533D02*
X67465350Y-167323200D01*
X67465350Y-167323200D02*
X67365350Y-167356533D01*
X67365350Y-167356533D02*
X67198683Y-167356533D01*
X65732017Y-153073200D02*
X65832017Y-153106533D01*
X65832017Y-153106533D02*
X65998684Y-153106533D01*
X65998684Y-153106533D02*
X66065350Y-153073200D01*
X66065350Y-153073200D02*
X66098684Y-153039866D01*
X66098684Y-153039866D02*
X66132017Y-152973200D01*
X66132017Y-152973200D02*
X66132017Y-152906533D01*
X66132017Y-152906533D02*
X66098684Y-152839866D01*
X66098684Y-152839866D02*
X66065350Y-152806533D01*
X66065350Y-152806533D02*
X65998684Y-152773200D01*
X65998684Y-152773200D02*
X65865350Y-152739866D01*
X65865350Y-152739866D02*
X65798684Y-152706533D01*
X65798684Y-152706533D02*
X65765350Y-152673200D01*
X65765350Y-152673200D02*
X65732017Y-152606533D01*
X65732017Y-152606533D02*
X65732017Y-152539866D01*
X65732017Y-152539866D02*
X65765350Y-152473200D01*
X65765350Y-152473200D02*
X65798684Y-152439866D01*
X65798684Y-152439866D02*
X65865350Y-152406533D01*
X65865350Y-152406533D02*
X66032017Y-152406533D01*
X66032017Y-152406533D02*
X66132017Y-152439866D01*
X66365351Y-152406533D02*
X66532017Y-153106533D01*
X66532017Y-153106533D02*
X66665351Y-152606533D01*
X66665351Y-152606533D02*
X66798684Y-153106533D01*
X66798684Y-153106533D02*
X66965351Y-152406533D01*
X67232017Y-153106533D02*
X67232017Y-152406533D01*
X67232017Y-152406533D02*
X67398684Y-152406533D01*
X67398684Y-152406533D02*
X67498684Y-152439866D01*
X67498684Y-152439866D02*
X67565351Y-152506533D01*
X67565351Y-152506533D02*
X67598684Y-152573200D01*
X67598684Y-152573200D02*
X67632017Y-152706533D01*
X67632017Y-152706533D02*
X67632017Y-152806533D01*
X67632017Y-152806533D02*
X67598684Y-152939866D01*
X67598684Y-152939866D02*
X67565351Y-153006533D01*
X67565351Y-153006533D02*
X67498684Y-153073200D01*
X67498684Y-153073200D02*
X67398684Y-153106533D01*
X67398684Y-153106533D02*
X67232017Y-153106533D01*
X49628571Y-177664700D02*
X50771429Y-177664700D01*
X50200000Y-178236128D02*
X50200000Y-177093271D01*
X38628571Y-177664700D02*
X39771429Y-177664700D01*
D11*
%TO.C,D13*%
X68035000Y-174160000D02*
X68035000Y-172690000D01*
X68035000Y-172690000D02*
X65750000Y-172690000D01*
X65750000Y-174160000D02*
X68035000Y-174160000D01*
%TO.C,Q5*%
X43600000Y-151205000D02*
X38000000Y-151205000D01*
X43600000Y-156405000D02*
X38800000Y-156405000D01*
%TO.C,R4*%
X47162742Y-156777500D02*
X47637258Y-156777500D01*
X47162742Y-157822500D02*
X47637258Y-157822500D01*
%TO.C,R15*%
X35437258Y-161622500D02*
X34962742Y-161622500D01*
X35437258Y-160577500D02*
X34962742Y-160577500D01*
%TO.C,C25*%
X36465000Y-154940580D02*
X36465000Y-154659420D01*
X37485000Y-154940580D02*
X37485000Y-154659420D01*
%TO.C,R18*%
X42987742Y-159682500D02*
X43462258Y-159682500D01*
X42987742Y-160727500D02*
X43462258Y-160727500D01*
%TO.C,C4*%
X66084420Y-164740000D02*
X66365580Y-164740000D01*
X66084420Y-165760000D02*
X66365580Y-165760000D01*
%TO.C,U2*%
X61000000Y-165040000D02*
X57550000Y-165040000D01*
X61000000Y-165040000D02*
X62950000Y-165040000D01*
X61000000Y-170160000D02*
X59050000Y-170160000D01*
X61000000Y-170160000D02*
X62950000Y-170160000D01*
%TO.C,R25*%
X63637258Y-164172500D02*
X63162742Y-164172500D01*
X63637258Y-163127500D02*
X63162742Y-163127500D01*
%TO.C,Q3*%
X53363750Y-151205000D02*
X47763750Y-151205000D01*
X53363750Y-156405000D02*
X48563750Y-156405000D01*
D10*
%TO.C,U7*%
X42725000Y-166575000D02*
X42725000Y-166525000D01*
X42725000Y-166575000D02*
X38575000Y-166575000D01*
X42725000Y-166525000D02*
X44125000Y-166525000D01*
X42725000Y-161425000D02*
X42725000Y-161570000D01*
X42725000Y-161425000D02*
X38575000Y-161425000D01*
X38575000Y-166575000D02*
X38575000Y-166430000D01*
X38575000Y-161425000D02*
X38575000Y-161570000D01*
D11*
%TO.C,C18*%
X35059420Y-166790000D02*
X35340580Y-166790000D01*
X35059420Y-167810000D02*
X35340580Y-167810000D01*
%TO.C,D12*%
X57815000Y-159150000D02*
X57815000Y-161050000D01*
X57815000Y-159150000D02*
X61475000Y-159150000D01*
X57815000Y-161050000D02*
X61475000Y-161050000D01*
%TO.C,C23*%
X46265000Y-154815580D02*
X46265000Y-154534420D01*
X47285000Y-154815580D02*
X47285000Y-154534420D01*
%TO.C,D7*%
X54715000Y-149960000D02*
X56715000Y-149960000D01*
X54715000Y-149960000D02*
X54715000Y-145950000D01*
X56715000Y-149960000D02*
X56715000Y-145950000D01*
%TO.C,R24*%
X63002500Y-159537258D02*
X63002500Y-159062742D01*
X64047500Y-159537258D02*
X64047500Y-159062742D01*
%TO.C,D9*%
X45015000Y-150060000D02*
X47015000Y-150060000D01*
X45015000Y-150060000D02*
X45015000Y-146050000D01*
X47015000Y-150060000D02*
X47015000Y-146050000D01*
%TO.C,Q1*%
X63102500Y-151205000D02*
X57502500Y-151205000D01*
X63102500Y-156405000D02*
X58302500Y-156405000D01*
%TO.C,J7*%
X71850000Y-172275000D02*
X70850000Y-172275000D01*
X71850000Y-172275000D02*
X71850000Y-171275000D01*
X68140000Y-171985000D02*
X71560000Y-171985000D01*
X71560000Y-171985000D02*
X71560000Y-166265000D01*
X69500000Y-171675000D02*
X69500000Y-171475000D01*
X70300000Y-171675000D02*
X69500000Y-171675000D01*
X68650000Y-171475000D02*
X68650000Y-169125000D01*
X69500000Y-171475000D02*
X68650000Y-171475000D01*
X70300000Y-171475000D02*
X70300000Y-171675000D01*
X71050000Y-171475000D02*
X70300000Y-171475000D01*
X71050000Y-169125000D02*
X71050000Y-171475000D01*
X71050000Y-169125000D02*
X71050000Y-166775000D01*
X68650000Y-166775000D02*
X68650000Y-169125000D01*
X69500000Y-166775000D02*
X68650000Y-166775000D01*
X70300000Y-166775000D02*
X70300000Y-166575000D01*
X71050000Y-166775000D02*
X70300000Y-166775000D01*
X69500000Y-166575000D02*
X69500000Y-166775000D01*
X70300000Y-166575000D02*
X69500000Y-166575000D01*
X68140000Y-166265000D02*
X68140000Y-171985000D01*
X71560000Y-166265000D02*
X68140000Y-166265000D01*
%TO.C,R17*%
X34962742Y-162177500D02*
X35437258Y-162177500D01*
X34962742Y-163222500D02*
X35437258Y-163222500D01*
%TO.C,J3*%
X53810000Y-173900000D02*
X53810000Y-175900000D01*
X53810000Y-177800000D02*
X53810000Y-179700000D01*
X53810000Y-179700000D02*
X63210000Y-179700000D01*
X63210000Y-173900000D02*
X63210000Y-175900000D01*
X63210000Y-177800000D02*
X63210000Y-179700000D01*
%TO.C,C14*%
X32990000Y-151361252D02*
X32990000Y-149038748D01*
X36410000Y-151361252D02*
X36410000Y-149038748D01*
%TO.C,C19*%
X35340580Y-166210000D02*
X35059420Y-166210000D01*
X35340580Y-165190000D02*
X35059420Y-165190000D01*
%TO.C,C24*%
X55890000Y-155340580D02*
X55890000Y-155059420D01*
X56910000Y-155340580D02*
X56910000Y-155059420D01*
%TO.C,D5*%
X64400000Y-149960000D02*
X66400000Y-149960000D01*
X64400000Y-149960000D02*
X64400000Y-145950000D01*
X66400000Y-149960000D02*
X66400000Y-145950000D01*
%TO.C,J6*%
X71825000Y-156775000D02*
X70825000Y-156775000D01*
X71825000Y-156775000D02*
X71825000Y-155775000D01*
X68115000Y-156485000D02*
X71535000Y-156485000D01*
X71535000Y-156485000D02*
X71535000Y-149515000D01*
X69475000Y-156175000D02*
X69475000Y-155975000D01*
X70275000Y-156175000D02*
X69475000Y-156175000D01*
X68625000Y-155975000D02*
X68625000Y-153000000D01*
X69475000Y-155975000D02*
X68625000Y-155975000D01*
X70275000Y-155975000D02*
X70275000Y-156175000D01*
X71025000Y-155975000D02*
X70275000Y-155975000D01*
X71025000Y-153000000D02*
X71025000Y-155975000D01*
X71025000Y-153000000D02*
X71025000Y-150025000D01*
X68625000Y-150025000D02*
X68625000Y-153000000D01*
X69475000Y-150025000D02*
X68625000Y-150025000D01*
X70275000Y-150025000D02*
X70275000Y-149825000D01*
X71025000Y-150025000D02*
X70275000Y-150025000D01*
X69475000Y-149825000D02*
X69475000Y-150025000D01*
X70275000Y-149825000D02*
X69475000Y-149825000D01*
X68115000Y-149515000D02*
X68115000Y-156485000D01*
X71535000Y-149515000D02*
X68115000Y-149515000D01*
%TO.C,C9*%
X38110000Y-170138748D02*
X38110000Y-172461252D01*
X34690000Y-170138748D02*
X34690000Y-172461252D01*
%TO.C,Q4*%
X48563750Y-150595000D02*
X54163750Y-150595000D01*
X48563750Y-145395000D02*
X53363750Y-145395000D01*
%TO.C,R26*%
X66312742Y-174502500D02*
X66787258Y-174502500D01*
X66312742Y-175547500D02*
X66787258Y-175547500D01*
%TO.C,Q2*%
X58315000Y-150595000D02*
X63915000Y-150595000D01*
X58315000Y-145395000D02*
X63115000Y-145395000D01*
%TO.C,C33*%
X63540580Y-162660000D02*
X63259420Y-162660000D01*
X63540580Y-161640000D02*
X63259420Y-161640000D01*
%TO.C,C13*%
X38740000Y-172461252D02*
X38740000Y-170138748D01*
X42160000Y-172461252D02*
X42160000Y-170138748D01*
%TO.C,C20*%
X35340580Y-164710000D02*
X35059420Y-164710000D01*
X35340580Y-163690000D02*
X35059420Y-163690000D01*
%TO.C,C10*%
X47190000Y-172461252D02*
X47190000Y-170138748D01*
X50610000Y-172461252D02*
X50610000Y-170138748D01*
%TO.C,C12*%
X42990000Y-172461252D02*
X42990000Y-170138748D01*
X46410000Y-172461252D02*
X46410000Y-170138748D01*
%TO.C,Q6*%
X38812500Y-150595000D02*
X44412500Y-150595000D01*
X38812500Y-145395000D02*
X43612500Y-145395000D01*
%TO.C,C30*%
X60209420Y-161590000D02*
X60490580Y-161590000D01*
X60209420Y-162610000D02*
X60490580Y-162610000D01*
%TO.C,R16*%
X38937258Y-160922500D02*
X38462742Y-160922500D01*
X38937258Y-159877500D02*
X38462742Y-159877500D01*
%TO.C,R23*%
X60587258Y-164122500D02*
X60112742Y-164122500D01*
X60587258Y-163077500D02*
X60112742Y-163077500D01*
%TO.C,J2*%
X71825000Y-165775000D02*
X70825000Y-165775000D01*
X71825000Y-165775000D02*
X71825000Y-164775000D01*
X68115000Y-165485000D02*
X71535000Y-165485000D01*
X71535000Y-165485000D02*
X71535000Y-157265000D01*
X69475000Y-165175000D02*
X69475000Y-164975000D01*
X70275000Y-165175000D02*
X69475000Y-165175000D01*
X68625000Y-164975000D02*
X68625000Y-161375000D01*
X69475000Y-164975000D02*
X68625000Y-164975000D01*
X70275000Y-164975000D02*
X70275000Y-165175000D01*
X71025000Y-164975000D02*
X70275000Y-164975000D01*
X71025000Y-161375000D02*
X71025000Y-164975000D01*
X71025000Y-161375000D02*
X71025000Y-157775000D01*
X68625000Y-157775000D02*
X68625000Y-161375000D01*
X69475000Y-157775000D02*
X68625000Y-157775000D01*
X70275000Y-157775000D02*
X70275000Y-157575000D01*
X71025000Y-157775000D02*
X70275000Y-157775000D01*
X69475000Y-157575000D02*
X69475000Y-157775000D01*
X70275000Y-157575000D02*
X69475000Y-157575000D01*
X68115000Y-157265000D02*
X68115000Y-165485000D01*
X71535000Y-157265000D02*
X68115000Y-157265000D01*
%TO.C,U3*%
X55172500Y-160040000D02*
X55172500Y-160515000D01*
X54697500Y-167260000D02*
X55172500Y-167260000D01*
X54697500Y-160040000D02*
X55172500Y-160040000D01*
X48427500Y-167260000D02*
X47952500Y-167260000D01*
X48427500Y-160040000D02*
X47952500Y-160040000D01*
X47952500Y-167260000D02*
X47952500Y-166785000D01*
X47952500Y-160040000D02*
X47952500Y-160515000D01*
%TD*%
M02*
