%TF.GenerationSoftware,KiCad,Pcbnew,7.0.8*%
%TF.CreationDate,2023-12-30T15:26:21+08:00*%
%TF.ProjectId,FOC2,464f4332-2e6b-4696-9361-645f70636258,rev?*%
%TF.SameCoordinates,Original*%
%TF.FileFunction,Copper,L3,Inr*%
%TF.FilePolarity,Positive*%
%FSLAX46Y46*%
G04 Gerber Fmt 4.6, Leading zero omitted, Abs format (unit mm)*
G04 Created by KiCad (PCBNEW 7.0.8) date 2023-12-30 15:26:21*
%MOMM*%
%LPD*%
G01*
G04 APERTURE LIST*
G04 Aperture macros list*
%AMRoundRect*
0 Rectangle with rounded corners*
0 $1 Rounding radius*
0 $2 $3 $4 $5 $6 $7 $8 $9 X,Y pos of 4 corners*
0 Add a 4 corners polygon primitive as box body*
4,1,4,$2,$3,$4,$5,$6,$7,$8,$9,$2,$3,0*
0 Add four circle primitives for the rounded corners*
1,1,$1+$1,$2,$3*
1,1,$1+$1,$4,$5*
1,1,$1+$1,$6,$7*
1,1,$1+$1,$8,$9*
0 Add four rect primitives between the rounded corners*
20,1,$1+$1,$2,$3,$4,$5,0*
20,1,$1+$1,$4,$5,$6,$7,0*
20,1,$1+$1,$6,$7,$8,$9,0*
20,1,$1+$1,$8,$9,$2,$3,0*%
G04 Aperture macros list end*
%TA.AperFunction,ComponentPad*%
%ADD10RoundRect,0.200000X0.450000X-0.200000X0.450000X0.200000X-0.450000X0.200000X-0.450000X-0.200000X0*%
%TD*%
%TA.AperFunction,ComponentPad*%
%ADD11O,1.300000X0.800000*%
%TD*%
%TA.AperFunction,ComponentPad*%
%ADD12R,3.500000X3.500000*%
%TD*%
%TA.AperFunction,ComponentPad*%
%ADD13C,3.500000*%
%TD*%
%TA.AperFunction,ComponentPad*%
%ADD14C,3.800000*%
%TD*%
%TA.AperFunction,ComponentPad*%
%ADD15C,0.600000*%
%TD*%
%TA.AperFunction,ComponentPad*%
%ADD16R,3.000000X3.000000*%
%TD*%
%TA.AperFunction,ComponentPad*%
%ADD17C,3.000000*%
%TD*%
%TA.AperFunction,ComponentPad*%
%ADD18O,1.000000X2.100000*%
%TD*%
%TA.AperFunction,ComponentPad*%
%ADD19O,1.000000X1.600000*%
%TD*%
%TA.AperFunction,ViaPad*%
%ADD20C,0.600000*%
%TD*%
%TA.AperFunction,ViaPad*%
%ADD21C,0.800000*%
%TD*%
%TA.AperFunction,ViaPad*%
%ADD22C,0.500000*%
%TD*%
%TA.AperFunction,Conductor*%
%ADD23C,0.250000*%
%TD*%
G04 APERTURE END LIST*
D10*
%TO.N,/T_NRST*%
%TO.C,J6*%
X70275000Y-156925000D03*
D11*
%TO.N,/SWCLK*%
X70275000Y-155675000D03*
%TO.N,/SWDIO*%
X70275000Y-154425000D03*
%TO.N,GND*%
X70275000Y-153175000D03*
%TD*%
%TO.N,GND*%
%TO.C,J5*%
X70275000Y-160950000D03*
%TO.N,/FDCAN_TX*%
X70275000Y-162200000D03*
%TO.N,/FDCAN_RX*%
X70275000Y-163450000D03*
%TO.N,/SPI_MISO*%
X70275000Y-164700000D03*
%TO.N,/SPI_MOSI*%
X70275000Y-165950000D03*
%TO.N,/SPI_CLK*%
X70275000Y-167200000D03*
%TO.N,/UART_TX*%
X70275000Y-168450000D03*
D10*
%TO.N,/UART_RX*%
X70275000Y-169700000D03*
%TD*%
D12*
%TO.N,GND*%
%TO.C,J4*%
X42200000Y-177550000D03*
D13*
%TO.N,VDC*%
X47200000Y-177550000D03*
%TD*%
D14*
%TO.N,GND*%
%TO.C,H4*%
X69700000Y-177700000D03*
%TD*%
D15*
%TO.N,GND*%
%TO.C,U7*%
X41600000Y-165800000D03*
X41600000Y-164600000D03*
X41600000Y-163300000D03*
X41600000Y-162200000D03*
X40400000Y-165800000D03*
X40400000Y-164600000D03*
X40400000Y-163300000D03*
X40400000Y-162200000D03*
%TD*%
D16*
%TO.N,/VS1*%
%TO.C,J1*%
X54400000Y-142900000D03*
D17*
%TO.N,/VS2*%
X50900000Y-142900000D03*
%TO.N,/VS3*%
X47400000Y-142900000D03*
%TD*%
D18*
%TO.N,GND*%
%TO.C,J3*%
X54190000Y-172670000D03*
D19*
X54190000Y-176850000D03*
D18*
X62830000Y-172670000D03*
D19*
X62830000Y-176850000D03*
%TD*%
D14*
%TO.N,GND*%
%TO.C,H1*%
X34300000Y-177700000D03*
%TD*%
%TO.N,GND*%
%TO.C,H3*%
X69800000Y-142300000D03*
%TD*%
%TO.N,GND*%
%TO.C,H2*%
X34200000Y-142300000D03*
%TD*%
D20*
%TO.N,GND*%
X35010000Y-148200000D03*
X53250000Y-165975002D03*
X41175000Y-169500000D03*
X39125000Y-169450000D03*
X52450000Y-166000000D03*
X50880000Y-172090000D03*
X51820000Y-172160000D03*
X39775000Y-169475000D03*
X38650000Y-159170000D03*
X53950000Y-161300000D03*
X34010000Y-148180000D03*
X35470000Y-171560000D03*
X36280000Y-171560000D03*
X40550000Y-170175000D03*
X40500000Y-169475000D03*
X53925000Y-165975000D03*
X34020000Y-171430000D03*
X44740000Y-171420000D03*
X43790000Y-171390000D03*
X34710000Y-171550000D03*
X51750000Y-166025000D03*
X39800000Y-170175000D03*
X42940000Y-171400000D03*
X39410000Y-159150000D03*
%TO.N,+5V*%
X55400000Y-174600000D03*
X40625010Y-159374990D03*
X33300000Y-172200000D03*
X34500000Y-160900000D03*
X65700000Y-172200000D03*
%TO.N,Net-(D11-K)*%
X56450000Y-155850000D03*
X46525000Y-159525000D03*
%TO.N,Net-(D3-K)*%
X34625000Y-167125000D03*
D21*
X37800000Y-165900000D03*
D22*
X35025000Y-166675000D03*
D20*
%TO.N,Net-(D2-K)*%
X46775000Y-155449998D03*
X44984072Y-164498725D03*
%TO.N,/VS2*%
X45586820Y-166101918D03*
X46775000Y-153899972D03*
%TO.N,/VS1*%
X55410000Y-155540000D03*
%TO.N,/VS3*%
X38399982Y-154440018D03*
X48061822Y-167560934D03*
%TO.N,Net-(D1-A)*%
X58400000Y-175300000D03*
X58400000Y-176000000D03*
%TO.N,+3.3V*%
X42725000Y-168025000D03*
X49825000Y-159800000D03*
X46400000Y-151400000D03*
X56250000Y-168275000D03*
X65600000Y-166700000D03*
X51950000Y-150775000D03*
X35300000Y-150900000D03*
X40800000Y-150900000D03*
%TO.N,Net-(D10-K)*%
X36490000Y-156450000D03*
X44275000Y-166901009D03*
%TO.N,/M1_SL_A*%
X63500000Y-149475000D03*
X63500000Y-148700000D03*
X63500000Y-148025000D03*
X63525000Y-147300000D03*
%TO.N,/VREF*%
X47687500Y-171837500D03*
X51050000Y-159574990D03*
%TO.N,/M1_SL_B*%
X53725000Y-149325000D03*
X53725000Y-147275000D03*
X53725000Y-147950000D03*
X53725000Y-148625000D03*
%TO.N,/M1_SL_C*%
X43875000Y-147450000D03*
X43925000Y-148850000D03*
X43900000Y-148125000D03*
X43925000Y-149575000D03*
%TO.N,Net-(D4-A)*%
X57902500Y-155710032D03*
%TO.N,/M1_GH_A*%
X56975000Y-158250000D03*
X54050004Y-157925000D03*
%TO.N,/M1_GL_A*%
X65400000Y-149325000D03*
X55717905Y-167650000D03*
%TO.N,/M1_GH_B*%
X46675000Y-157300000D03*
X55350012Y-158250000D03*
%TO.N,/M1_GL_B*%
X55700000Y-149325000D03*
X56850000Y-166999998D03*
%TO.N,/M1_GH_C*%
X37050000Y-151900000D03*
X47395835Y-167117689D03*
%TO.N,/M1_GL_C*%
X45975000Y-148600000D03*
X55275000Y-159475000D03*
%TO.N,/Ibeta*%
X57868650Y-161955832D03*
X44855427Y-155435688D03*
%TO.N,/Ialpha*%
X57180134Y-162655000D03*
X55324630Y-153946516D03*
%TO.N,Net-(D5-A)*%
X65400000Y-145950000D03*
%TO.N,Net-(D6-A)*%
X52425000Y-158175000D03*
X48124644Y-155975000D03*
%TO.N,Net-(D7-A)*%
X55725000Y-146000000D03*
%TO.N,Net-(D8-A)*%
X38250000Y-156200000D03*
%TO.N,Net-(D9-A)*%
X46025000Y-147000000D03*
%TO.N,/FDCAN_TX*%
X62375000Y-165100000D03*
X45100000Y-165350000D03*
%TO.N,/FDCAN_RX*%
X46270380Y-165582857D03*
X62329530Y-166039718D03*
%TO.N,/SPI_CLK*%
X51150006Y-170389248D03*
%TO.N,/SPI_MISO*%
X51675000Y-169750000D03*
%TO.N,/SPI_MOSI*%
X52100000Y-169050000D03*
%TO.N,/UART_TX*%
X63200000Y-166950000D03*
X52775000Y-169950000D03*
%TO.N,/UART_RX*%
X63175000Y-168225000D03*
X54012995Y-170125000D03*
%TO.N,/HIN_1*%
X45797495Y-163163144D03*
X55950000Y-160100000D03*
%TO.N,/HIN_2*%
X46500000Y-163775000D03*
X56750000Y-159500000D03*
%TO.N,/HIN_3*%
X45602757Y-163938568D03*
X57328133Y-161314929D03*
%TO.N,/LIN_1*%
X47299848Y-160359477D03*
X57804014Y-163205832D03*
%TO.N,/LIN_2*%
X58600000Y-163325000D03*
X46602951Y-161786836D03*
%TO.N,/LIN_3*%
X45825000Y-162075000D03*
X57454089Y-164899998D03*
%TO.N,Net-(U8A-+)*%
X50075096Y-157135000D03*
X54700000Y-152800000D03*
%TO.N,Net-(U8B-+)*%
X45200000Y-152450000D03*
X42925000Y-157769356D03*
%TO.N,/SWDIO*%
X48150000Y-171050000D03*
%TO.N,/SWCLK*%
X50250000Y-170925000D03*
X48825000Y-167950000D03*
%TD*%
D23*
%TO.N,/SWDIO*%
X69575000Y-154425000D02*
X70275000Y-154425000D01*
X67000000Y-167850000D02*
X67000000Y-157000000D01*
X67000000Y-157000000D02*
X69575000Y-154425000D01*
X55800000Y-169725000D02*
X65125000Y-169725000D01*
X50775000Y-168425000D02*
X54500000Y-168425000D01*
X54500000Y-168425000D02*
X55800000Y-169725000D01*
X65125000Y-169725000D02*
X67000000Y-167850000D01*
X48150000Y-171050000D02*
X50775000Y-168425000D01*
%TO.N,/SWCLK*%
X50360000Y-171035000D02*
X50250000Y-170925000D01*
X67725000Y-168350000D02*
X65040000Y-171035000D01*
X65040000Y-171035000D02*
X50360000Y-171035000D01*
X69500000Y-155675000D02*
X67725000Y-157450000D01*
X67725000Y-157450000D02*
X67725000Y-168350000D01*
X70275000Y-155675000D02*
X69500000Y-155675000D01*
%TO.N,+5V*%
X33300000Y-166700000D02*
X40625010Y-159374990D01*
X33300000Y-172200000D02*
X33300000Y-166700000D01*
%TO.N,+3.3V*%
X46400000Y-151400000D02*
X46075000Y-151725000D01*
X48175000Y-159800000D02*
X49825000Y-159800000D01*
X45175000Y-157675000D02*
X46050000Y-157675000D01*
X64725000Y-169275000D02*
X65600000Y-168400000D01*
X46050000Y-157675000D02*
X48175000Y-159800000D01*
X46075000Y-151725000D02*
X46075000Y-152750000D01*
X46075000Y-152750000D02*
X44100000Y-154725000D01*
X62075000Y-169275000D02*
X64725000Y-169275000D01*
X44100000Y-156600000D02*
X45175000Y-157675000D01*
X65600000Y-168400000D02*
X65600000Y-166700000D01*
X61075000Y-168275000D02*
X62075000Y-169275000D01*
X56250000Y-168275000D02*
X61075000Y-168275000D01*
X44100000Y-154725000D02*
X44100000Y-156600000D01*
%TO.N,Net-(D10-K)*%
X43500000Y-160400000D02*
X40200000Y-157100000D01*
X37140000Y-157100000D02*
X36490000Y-156450000D01*
X43500000Y-166126009D02*
X43500000Y-160400000D01*
X44275000Y-166901009D02*
X43500000Y-166126009D01*
X40200000Y-157100000D02*
X37140000Y-157100000D01*
%TO.N,/VREF*%
X49599990Y-161025000D02*
X45400000Y-161025000D01*
X47200000Y-171350000D02*
X47687500Y-171837500D01*
X45400000Y-161025000D02*
X44175000Y-162250000D01*
X47200000Y-168600000D02*
X47200000Y-171350000D01*
X44175000Y-162250000D02*
X44175000Y-165575000D01*
X44175000Y-165575000D02*
X47200000Y-168600000D01*
X51050000Y-159574990D02*
X49599990Y-161025000D01*
%TO.N,/M1_GH_A*%
X54500004Y-157475000D02*
X54050004Y-157925000D01*
X56200000Y-157475000D02*
X54500004Y-157475000D01*
X56975000Y-158250000D02*
X56200000Y-157475000D01*
%TO.N,/M1_GH_B*%
X47325000Y-157300000D02*
X48900000Y-158875000D01*
X48900000Y-158875000D02*
X54725000Y-158875000D01*
X46675000Y-157300000D02*
X47325000Y-157300000D01*
X55350000Y-158250000D02*
X55425000Y-158250000D01*
X54725000Y-158875000D02*
X55350000Y-158250000D01*
%TO.N,/Ibeta*%
X44855427Y-155435688D02*
X45616115Y-154675000D01*
X52775000Y-156700000D02*
X56475000Y-156700000D01*
X58005000Y-161819482D02*
X57868650Y-161955832D01*
X58005000Y-158230000D02*
X58005000Y-161819482D01*
X50750000Y-154675000D02*
X52775000Y-156700000D01*
X56475000Y-156700000D02*
X58005000Y-158230000D01*
X45616115Y-154675000D02*
X50750000Y-154675000D01*
%TO.N,/Ialpha*%
X57022902Y-153946516D02*
X58527500Y-155451114D01*
X55324630Y-153946516D02*
X57022902Y-153946516D01*
X57254302Y-162580832D02*
X57180134Y-162655000D01*
X58527500Y-162180866D02*
X58127534Y-162580832D01*
X58527500Y-155451114D02*
X58527500Y-162180866D01*
X58127534Y-162580832D02*
X57254302Y-162580832D01*
%TO.N,Net-(D6-A)*%
X48124644Y-155975000D02*
X48124644Y-157324644D01*
X52400000Y-158200000D02*
X52425000Y-158175000D01*
X49000000Y-158200000D02*
X52400000Y-158200000D01*
X48124644Y-157324644D02*
X49000000Y-158200000D01*
%TO.N,/FDCAN_TX*%
X54875000Y-166750000D02*
X56100000Y-165525000D01*
X51025000Y-166750000D02*
X54875000Y-166750000D01*
X45100000Y-165350000D02*
X45550000Y-164900000D01*
X61950000Y-165525000D02*
X62375000Y-165100000D01*
X45550000Y-164900000D02*
X49175000Y-164900000D01*
X49175000Y-164900000D02*
X51025000Y-166750000D01*
X56100000Y-165525000D02*
X61950000Y-165525000D01*
%TO.N,/FDCAN_RX*%
X56221678Y-166039718D02*
X62329530Y-166039718D01*
X50813604Y-167200000D02*
X55061396Y-167200000D01*
X46453237Y-165400000D02*
X49013604Y-165400000D01*
X55061396Y-167200000D02*
X56221678Y-166039718D01*
X49013604Y-165400000D02*
X50813604Y-167200000D01*
X46270380Y-165582857D02*
X46453237Y-165400000D01*
%TO.N,/HIN_1*%
X45810639Y-163150000D02*
X45797495Y-163163144D01*
X47058884Y-163400000D02*
X46808884Y-163150000D01*
X46808884Y-163150000D02*
X45810639Y-163150000D01*
X55950000Y-160500000D02*
X53050000Y-163400000D01*
X53050000Y-163400000D02*
X47058884Y-163400000D01*
X55950000Y-160100000D02*
X55950000Y-160500000D01*
%TO.N,/HIN_2*%
X52187498Y-163900000D02*
X46625000Y-163900000D01*
X56750000Y-160650000D02*
X53500002Y-163899998D01*
X56750000Y-159500000D02*
X56750000Y-160650000D01*
X52187500Y-163899998D02*
X52187498Y-163900000D01*
X46625000Y-163900000D02*
X46500000Y-163775000D01*
X53500002Y-163899998D02*
X52187500Y-163899998D01*
%TO.N,/HIN_3*%
X46064189Y-164400000D02*
X54243062Y-164400000D01*
X45602757Y-163938568D02*
X46064189Y-164400000D01*
X54243062Y-164400000D02*
X57328133Y-161314929D01*
%TD*%
%TA.AperFunction,Conductor*%
%TO.N,GND*%
G36*
X71766858Y-157320812D02*
G01*
X71812956Y-157373317D01*
X71824500Y-157425563D01*
X71824500Y-179700500D01*
X71804815Y-179767539D01*
X71752011Y-179813294D01*
X71700500Y-179824500D01*
X32299500Y-179824500D01*
X32232461Y-179804815D01*
X32186706Y-179752011D01*
X32175500Y-179700500D01*
X32175500Y-177550001D01*
X45194390Y-177550001D01*
X45214804Y-177835433D01*
X45275628Y-178115037D01*
X45375635Y-178383166D01*
X45512770Y-178634309D01*
X45512775Y-178634317D01*
X45684254Y-178863387D01*
X45684270Y-178863405D01*
X45886594Y-179065729D01*
X45886612Y-179065745D01*
X46115682Y-179237224D01*
X46115690Y-179237229D01*
X46366833Y-179374364D01*
X46366832Y-179374364D01*
X46366836Y-179374365D01*
X46366839Y-179374367D01*
X46634954Y-179474369D01*
X46634960Y-179474370D01*
X46634962Y-179474371D01*
X46914566Y-179535195D01*
X46914568Y-179535195D01*
X46914572Y-179535196D01*
X47168220Y-179553337D01*
X47199999Y-179555610D01*
X47200000Y-179555610D01*
X47200001Y-179555610D01*
X47228595Y-179553564D01*
X47485428Y-179535196D01*
X47765046Y-179474369D01*
X48033161Y-179374367D01*
X48284315Y-179237226D01*
X48513395Y-179065739D01*
X48715739Y-178863395D01*
X48887226Y-178634315D01*
X49024367Y-178383161D01*
X49124369Y-178115046D01*
X49185196Y-177835428D01*
X49205610Y-177550000D01*
X49185196Y-177264572D01*
X49124369Y-176984954D01*
X49024367Y-176716839D01*
X48936132Y-176555250D01*
X48887229Y-176465690D01*
X48887224Y-176465682D01*
X48715745Y-176236612D01*
X48715729Y-176236594D01*
X48513405Y-176034270D01*
X48513387Y-176034254D01*
X48467629Y-176000000D01*
X57844750Y-176000000D01*
X57863670Y-176143708D01*
X57863671Y-176143712D01*
X57919137Y-176277622D01*
X57919138Y-176277624D01*
X57919139Y-176277625D01*
X58007379Y-176392621D01*
X58122375Y-176480861D01*
X58256291Y-176536330D01*
X58383280Y-176553048D01*
X58399999Y-176555250D01*
X58400000Y-176555250D01*
X58400001Y-176555250D01*
X58414977Y-176553278D01*
X58543709Y-176536330D01*
X58677625Y-176480861D01*
X58792621Y-176392621D01*
X58880861Y-176277625D01*
X58936330Y-176143709D01*
X58955250Y-176000000D01*
X58936330Y-175856291D01*
X58880861Y-175722375D01*
X58880858Y-175722371D01*
X58876797Y-175715336D01*
X58878863Y-175714142D01*
X58858054Y-175660322D01*
X58872090Y-175591876D01*
X58877432Y-175583563D01*
X58880856Y-175577631D01*
X58880861Y-175577625D01*
X58936330Y-175443709D01*
X58955250Y-175300000D01*
X58936330Y-175156291D01*
X58880861Y-175022375D01*
X58792621Y-174907379D01*
X58677625Y-174819139D01*
X58677624Y-174819138D01*
X58677622Y-174819137D01*
X58543712Y-174763671D01*
X58543710Y-174763670D01*
X58543709Y-174763670D01*
X58471854Y-174754210D01*
X58400001Y-174744750D01*
X58399999Y-174744750D01*
X58256291Y-174763670D01*
X58256287Y-174763671D01*
X58122377Y-174819137D01*
X58007379Y-174907379D01*
X57919137Y-175022377D01*
X57863671Y-175156287D01*
X57863670Y-175156291D01*
X57844750Y-175299999D01*
X57844750Y-175300000D01*
X57863670Y-175443708D01*
X57863671Y-175443712D01*
X57919138Y-175577625D01*
X57923203Y-175584665D01*
X57921138Y-175585856D01*
X57941946Y-175639696D01*
X57927900Y-175708139D01*
X57922559Y-175716449D01*
X57919138Y-175722374D01*
X57863671Y-175856287D01*
X57863670Y-175856291D01*
X57844750Y-175999999D01*
X57844750Y-176000000D01*
X48467629Y-176000000D01*
X48284317Y-175862775D01*
X48284309Y-175862770D01*
X48033166Y-175725635D01*
X48033167Y-175725635D01*
X47858056Y-175660322D01*
X47765046Y-175625631D01*
X47765043Y-175625630D01*
X47765037Y-175625628D01*
X47485433Y-175564804D01*
X47200001Y-175544390D01*
X47199999Y-175544390D01*
X46914566Y-175564804D01*
X46634962Y-175625628D01*
X46366833Y-175725635D01*
X46115690Y-175862770D01*
X46115682Y-175862775D01*
X45886612Y-176034254D01*
X45886594Y-176034270D01*
X45684270Y-176236594D01*
X45684254Y-176236612D01*
X45512775Y-176465682D01*
X45512770Y-176465690D01*
X45375635Y-176716833D01*
X45275628Y-176984962D01*
X45214804Y-177264566D01*
X45194390Y-177549998D01*
X45194390Y-177550001D01*
X32175500Y-177550001D01*
X32175500Y-174600000D01*
X54844750Y-174600000D01*
X54863670Y-174743708D01*
X54863671Y-174743712D01*
X54919137Y-174877622D01*
X54919138Y-174877624D01*
X54919139Y-174877625D01*
X55007379Y-174992621D01*
X55122375Y-175080861D01*
X55256291Y-175136330D01*
X55383280Y-175153048D01*
X55399999Y-175155250D01*
X55400000Y-175155250D01*
X55400001Y-175155250D01*
X55414977Y-175153278D01*
X55543709Y-175136330D01*
X55677625Y-175080861D01*
X55792621Y-174992621D01*
X55880861Y-174877625D01*
X55936330Y-174743709D01*
X55955250Y-174600000D01*
X55936330Y-174456291D01*
X55880861Y-174322375D01*
X55792621Y-174207379D01*
X55677625Y-174119139D01*
X55677624Y-174119138D01*
X55677622Y-174119137D01*
X55543712Y-174063671D01*
X55543710Y-174063670D01*
X55543709Y-174063670D01*
X55471854Y-174054210D01*
X55400001Y-174044750D01*
X55399999Y-174044750D01*
X55256291Y-174063670D01*
X55256287Y-174063671D01*
X55122377Y-174119137D01*
X55007379Y-174207379D01*
X54919137Y-174322377D01*
X54863671Y-174456287D01*
X54863670Y-174456291D01*
X54844750Y-174599999D01*
X54844750Y-174600000D01*
X32175500Y-174600000D01*
X32175500Y-173200000D01*
X55039534Y-173200000D01*
X55059312Y-173350234D01*
X55059313Y-173350236D01*
X55117302Y-173490233D01*
X55209549Y-173610451D01*
X55329767Y-173702698D01*
X55469764Y-173760687D01*
X55582280Y-173775500D01*
X55582287Y-173775500D01*
X55657713Y-173775500D01*
X55657720Y-173775500D01*
X55770236Y-173760687D01*
X55910233Y-173702698D01*
X56030451Y-173610451D01*
X56122698Y-173490233D01*
X56180687Y-173350236D01*
X56200466Y-173200000D01*
X60819534Y-173200000D01*
X60839312Y-173350234D01*
X60839313Y-173350236D01*
X60897302Y-173490233D01*
X60989549Y-173610451D01*
X61109767Y-173702698D01*
X61249764Y-173760687D01*
X61362280Y-173775500D01*
X61362287Y-173775500D01*
X61437713Y-173775500D01*
X61437720Y-173775500D01*
X61550236Y-173760687D01*
X61690233Y-173702698D01*
X61810451Y-173610451D01*
X61902698Y-173490233D01*
X61960687Y-173350236D01*
X61980466Y-173200000D01*
X61960687Y-173049764D01*
X61902698Y-172909767D01*
X61810451Y-172789549D01*
X61690233Y-172697302D01*
X61690229Y-172697300D01*
X61626801Y-172671027D01*
X61550236Y-172639313D01*
X61536171Y-172637461D01*
X61437727Y-172624500D01*
X61437720Y-172624500D01*
X61362280Y-172624500D01*
X61362272Y-172624500D01*
X61249764Y-172639313D01*
X61249763Y-172639313D01*
X61109770Y-172697300D01*
X61109767Y-172697301D01*
X61109767Y-172697302D01*
X61058905Y-172736330D01*
X60989549Y-172789549D01*
X60897300Y-172909770D01*
X60839313Y-173049763D01*
X60839312Y-173049765D01*
X60819534Y-173199999D01*
X60819534Y-173200000D01*
X56200466Y-173200000D01*
X56180687Y-173049764D01*
X56122698Y-172909767D01*
X56030451Y-172789549D01*
X55910233Y-172697302D01*
X55910229Y-172697300D01*
X55846801Y-172671027D01*
X55770236Y-172639313D01*
X55756171Y-172637461D01*
X55657727Y-172624500D01*
X55657720Y-172624500D01*
X55582280Y-172624500D01*
X55582272Y-172624500D01*
X55469764Y-172639313D01*
X55469763Y-172639313D01*
X55329770Y-172697300D01*
X55329767Y-172697301D01*
X55329767Y-172697302D01*
X55278905Y-172736330D01*
X55209549Y-172789549D01*
X55117300Y-172909770D01*
X55059313Y-173049763D01*
X55059312Y-173049765D01*
X55039534Y-173199999D01*
X55039534Y-173200000D01*
X32175500Y-173200000D01*
X32175500Y-172200000D01*
X32744750Y-172200000D01*
X32763670Y-172343708D01*
X32763671Y-172343712D01*
X32819137Y-172477622D01*
X32819138Y-172477624D01*
X32819139Y-172477625D01*
X32907379Y-172592621D01*
X33022375Y-172680861D01*
X33156291Y-172736330D01*
X33283280Y-172753048D01*
X33299999Y-172755250D01*
X33300000Y-172755250D01*
X33300001Y-172755250D01*
X33314977Y-172753278D01*
X33443709Y-172736330D01*
X33577625Y-172680861D01*
X33692621Y-172592621D01*
X33780861Y-172477625D01*
X33836330Y-172343709D01*
X33855250Y-172200000D01*
X33836330Y-172056291D01*
X33780861Y-171922375D01*
X33701123Y-171818459D01*
X33675930Y-171753291D01*
X33675500Y-171742974D01*
X33675500Y-168025000D01*
X42169750Y-168025000D01*
X42188466Y-168167163D01*
X42188670Y-168168708D01*
X42188671Y-168168712D01*
X42244137Y-168302622D01*
X42244138Y-168302624D01*
X42244139Y-168302625D01*
X42332379Y-168417621D01*
X42447375Y-168505861D01*
X42581291Y-168561330D01*
X42708280Y-168578048D01*
X42724999Y-168580250D01*
X42725000Y-168580250D01*
X42725001Y-168580250D01*
X42739977Y-168578278D01*
X42868709Y-168561330D01*
X43002625Y-168505861D01*
X43117621Y-168417621D01*
X43205861Y-168302625D01*
X43261330Y-168168709D01*
X43280250Y-168025000D01*
X43261330Y-167881291D01*
X43205861Y-167747375D01*
X43117621Y-167632379D01*
X43002625Y-167544139D01*
X43002624Y-167544138D01*
X43002622Y-167544137D01*
X42868712Y-167488671D01*
X42868710Y-167488670D01*
X42868709Y-167488670D01*
X42788537Y-167478115D01*
X42725001Y-167469750D01*
X42724999Y-167469750D01*
X42581291Y-167488670D01*
X42581287Y-167488671D01*
X42447377Y-167544137D01*
X42332379Y-167632379D01*
X42244137Y-167747377D01*
X42188671Y-167881287D01*
X42188670Y-167881291D01*
X42180916Y-167940191D01*
X42169750Y-168025000D01*
X33675500Y-168025000D01*
X33675500Y-167125000D01*
X34069750Y-167125000D01*
X34087707Y-167261398D01*
X34088670Y-167268708D01*
X34088671Y-167268712D01*
X34144137Y-167402622D01*
X34144138Y-167402624D01*
X34144139Y-167402625D01*
X34232379Y-167517621D01*
X34347375Y-167605861D01*
X34481291Y-167661330D01*
X34607621Y-167677962D01*
X34624999Y-167680250D01*
X34625000Y-167680250D01*
X34625001Y-167680250D01*
X34642379Y-167677962D01*
X34768709Y-167661330D01*
X34902625Y-167605861D01*
X35017621Y-167517621D01*
X35105861Y-167402625D01*
X35161330Y-167268709D01*
X35166386Y-167230300D01*
X35194652Y-167166405D01*
X35228323Y-167140885D01*
X35227592Y-167139747D01*
X35235050Y-167134953D01*
X35235053Y-167134953D01*
X35356128Y-167057143D01*
X35450377Y-166948373D01*
X35510165Y-166817457D01*
X35530647Y-166675000D01*
X35510165Y-166532543D01*
X35450377Y-166401627D01*
X35356128Y-166292857D01*
X35235053Y-166215047D01*
X35235051Y-166215046D01*
X35235049Y-166215045D01*
X35235050Y-166215045D01*
X35096963Y-166174500D01*
X35096961Y-166174500D01*
X34953039Y-166174500D01*
X34953036Y-166174500D01*
X34814949Y-166215045D01*
X34693873Y-166292856D01*
X34599623Y-166401626D01*
X34542147Y-166527479D01*
X34496391Y-166580282D01*
X34476806Y-166590527D01*
X34347376Y-166644138D01*
X34232379Y-166732379D01*
X34144137Y-166847377D01*
X34088671Y-166981287D01*
X34088670Y-166981291D01*
X34070713Y-167117689D01*
X34069750Y-167125000D01*
X33675500Y-167125000D01*
X33675500Y-166906898D01*
X33695185Y-166839859D01*
X33711814Y-166819222D01*
X34631036Y-165900000D01*
X37144722Y-165900000D01*
X37163762Y-166056818D01*
X37211779Y-166183426D01*
X37219780Y-166204523D01*
X37309517Y-166334530D01*
X37427760Y-166439283D01*
X37427762Y-166439284D01*
X37567634Y-166512696D01*
X37721014Y-166550500D01*
X37721015Y-166550500D01*
X37878985Y-166550500D01*
X38032365Y-166512696D01*
X38084416Y-166485377D01*
X38172240Y-166439283D01*
X38290483Y-166334530D01*
X38380220Y-166204523D01*
X38436237Y-166056818D01*
X38455278Y-165900000D01*
X38454794Y-165896009D01*
X38436237Y-165743181D01*
X38399797Y-165647097D01*
X38380220Y-165595477D01*
X38290483Y-165465470D01*
X38172240Y-165360717D01*
X38172238Y-165360716D01*
X38172237Y-165360715D01*
X38032365Y-165287303D01*
X37878986Y-165249500D01*
X37878985Y-165249500D01*
X37721015Y-165249500D01*
X37721014Y-165249500D01*
X37567634Y-165287303D01*
X37427762Y-165360715D01*
X37309516Y-165465471D01*
X37219781Y-165595475D01*
X37219780Y-165595476D01*
X37163762Y-165743181D01*
X37144722Y-165899999D01*
X37144722Y-165900000D01*
X34631036Y-165900000D01*
X40567362Y-159963673D01*
X40628683Y-159930190D01*
X40638849Y-159928417D01*
X40768719Y-159911320D01*
X40902635Y-159855851D01*
X41017631Y-159767611D01*
X41105871Y-159652615D01*
X41161340Y-159518699D01*
X41180260Y-159374990D01*
X41161340Y-159231281D01*
X41105871Y-159097365D01*
X41017631Y-158982369D01*
X40902635Y-158894129D01*
X40902634Y-158894128D01*
X40902632Y-158894127D01*
X40768722Y-158838661D01*
X40768720Y-158838660D01*
X40768719Y-158838660D01*
X40696864Y-158829200D01*
X40625011Y-158819740D01*
X40625009Y-158819740D01*
X40481301Y-158838660D01*
X40481297Y-158838661D01*
X40347387Y-158894127D01*
X40232389Y-158982369D01*
X40144147Y-159097367D01*
X40088681Y-159231277D01*
X40088680Y-159231282D01*
X40071583Y-159361140D01*
X40043316Y-159425037D01*
X40036325Y-159432635D01*
X33071108Y-166397852D01*
X33051254Y-166413976D01*
X33042165Y-166419914D01*
X33042164Y-166419915D01*
X33020363Y-166447923D01*
X33015286Y-166453674D01*
X33012484Y-166456477D01*
X33012474Y-166456488D01*
X32998905Y-166475495D01*
X32965192Y-166518808D01*
X32961447Y-166525729D01*
X32957988Y-166532804D01*
X32942329Y-166585403D01*
X32924500Y-166637338D01*
X32923206Y-166645092D01*
X32922231Y-166652911D01*
X32924500Y-166707755D01*
X32924500Y-171742974D01*
X32904815Y-171810013D01*
X32898882Y-171818452D01*
X32873642Y-171851346D01*
X32819137Y-171922377D01*
X32763671Y-172056287D01*
X32763670Y-172056291D01*
X32744750Y-172199999D01*
X32744750Y-172200000D01*
X32175500Y-172200000D01*
X32175500Y-160900000D01*
X33944750Y-160900000D01*
X33963670Y-161043708D01*
X33963671Y-161043712D01*
X34019137Y-161177622D01*
X34019138Y-161177624D01*
X34019139Y-161177625D01*
X34107379Y-161292621D01*
X34222375Y-161380861D01*
X34222376Y-161380861D01*
X34222377Y-161380862D01*
X34232527Y-161385066D01*
X34356291Y-161436330D01*
X34483280Y-161453048D01*
X34499999Y-161455250D01*
X34500000Y-161455250D01*
X34500001Y-161455250D01*
X34514977Y-161453278D01*
X34643709Y-161436330D01*
X34777625Y-161380861D01*
X34892621Y-161292621D01*
X34980861Y-161177625D01*
X35036330Y-161043709D01*
X35055250Y-160900000D01*
X35036330Y-160756291D01*
X34999350Y-160667013D01*
X34980862Y-160622377D01*
X34980861Y-160622376D01*
X34980861Y-160622375D01*
X34892621Y-160507379D01*
X34777625Y-160419139D01*
X34777624Y-160419138D01*
X34777622Y-160419137D01*
X34643712Y-160363671D01*
X34643710Y-160363670D01*
X34643709Y-160363670D01*
X34508424Y-160345859D01*
X34500001Y-160344750D01*
X34499999Y-160344750D01*
X34356291Y-160363670D01*
X34356287Y-160363671D01*
X34222377Y-160419137D01*
X34107379Y-160507379D01*
X34019137Y-160622377D01*
X33963671Y-160756287D01*
X33963670Y-160756291D01*
X33944750Y-160899999D01*
X33944750Y-160900000D01*
X32175500Y-160900000D01*
X32175500Y-157682505D01*
X32195185Y-157615466D01*
X32247989Y-157569711D01*
X32298687Y-157558508D01*
X40024914Y-157508124D01*
X40092080Y-157527371D01*
X40113403Y-157544440D01*
X43088181Y-160519218D01*
X43121666Y-160580541D01*
X43124500Y-160606899D01*
X43124500Y-166074205D01*
X43121862Y-166099643D01*
X43119633Y-166110277D01*
X43119633Y-166110278D01*
X43119633Y-166110280D01*
X43124023Y-166145500D01*
X43124500Y-166153176D01*
X43124500Y-166157125D01*
X43128342Y-166180150D01*
X43135134Y-166234636D01*
X43137373Y-166242156D01*
X43139934Y-166249617D01*
X43139935Y-166249619D01*
X43156373Y-166279994D01*
X43166055Y-166297886D01*
X43190174Y-166347220D01*
X43194742Y-166353618D01*
X43199582Y-166359836D01*
X43239971Y-166397018D01*
X43686314Y-166843360D01*
X43719799Y-166904683D01*
X43721572Y-166914854D01*
X43738670Y-167044717D01*
X43738671Y-167044721D01*
X43794137Y-167178631D01*
X43794138Y-167178633D01*
X43794139Y-167178634D01*
X43882379Y-167293630D01*
X43997375Y-167381870D01*
X43997376Y-167381870D01*
X43997377Y-167381871D01*
X44029825Y-167395311D01*
X44131291Y-167437339D01*
X44258280Y-167454057D01*
X44274999Y-167456259D01*
X44275000Y-167456259D01*
X44275001Y-167456259D01*
X44289977Y-167454287D01*
X44418709Y-167437339D01*
X44552625Y-167381870D01*
X44667621Y-167293630D01*
X44755861Y-167178634D01*
X44811330Y-167044718D01*
X44813684Y-167026835D01*
X44841951Y-166962940D01*
X44900275Y-166924469D01*
X44970140Y-166923638D01*
X45024304Y-166955341D01*
X46788181Y-168719218D01*
X46821666Y-168780541D01*
X46824500Y-168806899D01*
X46824500Y-171298196D01*
X46821862Y-171323634D01*
X46819633Y-171334268D01*
X46819633Y-171334269D01*
X46819633Y-171334271D01*
X46824023Y-171369491D01*
X46824500Y-171377167D01*
X46824500Y-171381116D01*
X46828342Y-171404141D01*
X46835134Y-171458627D01*
X46837373Y-171466147D01*
X46839934Y-171473608D01*
X46839935Y-171473610D01*
X46866055Y-171521877D01*
X46890174Y-171571211D01*
X46894742Y-171577609D01*
X46899582Y-171583827D01*
X46939971Y-171621009D01*
X47098814Y-171779852D01*
X47132299Y-171841175D01*
X47134072Y-171851346D01*
X47151170Y-171981208D01*
X47151171Y-171981212D01*
X47206637Y-172115122D01*
X47206638Y-172115124D01*
X47206639Y-172115125D01*
X47294879Y-172230121D01*
X47409875Y-172318361D01*
X47543791Y-172373830D01*
X47670780Y-172390548D01*
X47687499Y-172392750D01*
X47687500Y-172392750D01*
X47687501Y-172392750D01*
X47702477Y-172390778D01*
X47831209Y-172373830D01*
X47965125Y-172318361D01*
X48080121Y-172230121D01*
X48103234Y-172200000D01*
X65144750Y-172200000D01*
X65163670Y-172343708D01*
X65163671Y-172343712D01*
X65219137Y-172477622D01*
X65219138Y-172477624D01*
X65219139Y-172477625D01*
X65307379Y-172592621D01*
X65422375Y-172680861D01*
X65556291Y-172736330D01*
X65683280Y-172753048D01*
X65699999Y-172755250D01*
X65700000Y-172755250D01*
X65700001Y-172755250D01*
X65714977Y-172753278D01*
X65843709Y-172736330D01*
X65977625Y-172680861D01*
X66092621Y-172592621D01*
X66180861Y-172477625D01*
X66236330Y-172343709D01*
X66255250Y-172200000D01*
X66236330Y-172056291D01*
X66180861Y-171922375D01*
X66092621Y-171807379D01*
X65977625Y-171719139D01*
X65977624Y-171719138D01*
X65977622Y-171719137D01*
X65843712Y-171663671D01*
X65843710Y-171663670D01*
X65843709Y-171663670D01*
X65771854Y-171654210D01*
X65700001Y-171644750D01*
X65699999Y-171644750D01*
X65556291Y-171663670D01*
X65556287Y-171663671D01*
X65422377Y-171719137D01*
X65307379Y-171807379D01*
X65219137Y-171922377D01*
X65163671Y-172056287D01*
X65163670Y-172056291D01*
X65144750Y-172199999D01*
X65144750Y-172200000D01*
X48103234Y-172200000D01*
X48168361Y-172115125D01*
X48223830Y-171981209D01*
X48242750Y-171837500D01*
X48240243Y-171818461D01*
X48226447Y-171713670D01*
X48237212Y-171644634D01*
X48283592Y-171592379D01*
X48301934Y-171582923D01*
X48427625Y-171530861D01*
X48542621Y-171442621D01*
X48630861Y-171327625D01*
X48686330Y-171193709D01*
X48703427Y-171063844D01*
X48731694Y-170999949D01*
X48738673Y-170992362D01*
X50894218Y-168836819D01*
X50955541Y-168803334D01*
X50981899Y-168800500D01*
X51436203Y-168800500D01*
X51503242Y-168820185D01*
X51548997Y-168872989D01*
X51559142Y-168940686D01*
X51544750Y-169049999D01*
X51544750Y-169050003D01*
X51552067Y-169105586D01*
X51541301Y-169174621D01*
X51494920Y-169226876D01*
X51476581Y-169236331D01*
X51397376Y-169269138D01*
X51282379Y-169357379D01*
X51194137Y-169472377D01*
X51138671Y-169606287D01*
X51138670Y-169606291D01*
X51120381Y-169745200D01*
X51092114Y-169809096D01*
X51033789Y-169847566D01*
X51013636Y-169851951D01*
X51006301Y-169852917D01*
X51006293Y-169852919D01*
X50872383Y-169908385D01*
X50757385Y-169996627D01*
X50669143Y-170111625D01*
X50613677Y-170245535D01*
X50613676Y-170245539D01*
X50605524Y-170307454D01*
X50577256Y-170371350D01*
X50518931Y-170409821D01*
X50449067Y-170410651D01*
X50435133Y-170405828D01*
X50393712Y-170388671D01*
X50393710Y-170388670D01*
X50393709Y-170388670D01*
X50321854Y-170379210D01*
X50250001Y-170369750D01*
X50249999Y-170369750D01*
X50106291Y-170388670D01*
X50106287Y-170388671D01*
X49972377Y-170444137D01*
X49857379Y-170532379D01*
X49769137Y-170647377D01*
X49713671Y-170781287D01*
X49713670Y-170781291D01*
X49694750Y-170924999D01*
X49694750Y-170925000D01*
X49713670Y-171068708D01*
X49713671Y-171068712D01*
X49769137Y-171202622D01*
X49769138Y-171202624D01*
X49769139Y-171202625D01*
X49857379Y-171317621D01*
X49972375Y-171405861D01*
X49972376Y-171405861D01*
X49972377Y-171405862D01*
X49984726Y-171410977D01*
X50106291Y-171461330D01*
X50233280Y-171478048D01*
X50249999Y-171480250D01*
X50250000Y-171480250D01*
X50250001Y-171480250D01*
X50264977Y-171478278D01*
X50393709Y-171461330D01*
X50493637Y-171419939D01*
X50541089Y-171410500D01*
X64988196Y-171410500D01*
X65013641Y-171413139D01*
X65017440Y-171413935D01*
X65024268Y-171415367D01*
X65045225Y-171412754D01*
X65059492Y-171410977D01*
X65067168Y-171410500D01*
X65071112Y-171410500D01*
X65071114Y-171410500D01*
X65071116Y-171410499D01*
X65071122Y-171410499D01*
X65086487Y-171407934D01*
X65094140Y-171406657D01*
X65148626Y-171399866D01*
X65148627Y-171399865D01*
X65148629Y-171399865D01*
X65156141Y-171397628D01*
X65163606Y-171395066D01*
X65163606Y-171395065D01*
X65163610Y-171395065D01*
X65211877Y-171368944D01*
X65261211Y-171344826D01*
X65261214Y-171344823D01*
X65267594Y-171340268D01*
X65273819Y-171335422D01*
X65273826Y-171335419D01*
X65311008Y-171295028D01*
X67953889Y-168652146D01*
X67973746Y-168636022D01*
X67982836Y-168630084D01*
X68004638Y-168602071D01*
X68009733Y-168596303D01*
X68012519Y-168593518D01*
X68021809Y-168580506D01*
X68026086Y-168574516D01*
X68059807Y-168531192D01*
X68063547Y-168524278D01*
X68067006Y-168517203D01*
X68067010Y-168517199D01*
X68076201Y-168486328D01*
X68082672Y-168464593D01*
X68100500Y-168412661D01*
X68101139Y-168408833D01*
X69370624Y-168408833D01*
X69380944Y-168572860D01*
X69431732Y-168729171D01*
X69431734Y-168729175D01*
X69519797Y-168867940D01*
X69588692Y-168932636D01*
X69624086Y-168992877D01*
X69621294Y-169062691D01*
X69581200Y-169119912D01*
X69577443Y-169122798D01*
X69502849Y-169177851D01*
X69422207Y-169287117D01*
X69422206Y-169287119D01*
X69377353Y-169415298D01*
X69377353Y-169415300D01*
X69374500Y-169445730D01*
X69374500Y-169954269D01*
X69377353Y-169984699D01*
X69377353Y-169984701D01*
X69421766Y-170111623D01*
X69422207Y-170112882D01*
X69502850Y-170222150D01*
X69612118Y-170302793D01*
X69654845Y-170317744D01*
X69740299Y-170347646D01*
X69770730Y-170350500D01*
X69770734Y-170350500D01*
X70779270Y-170350500D01*
X70809699Y-170347646D01*
X70809701Y-170347646D01*
X70873790Y-170325219D01*
X70937882Y-170302793D01*
X71047150Y-170222150D01*
X71127793Y-170112882D01*
X71157626Y-170027625D01*
X71172646Y-169984701D01*
X71172646Y-169984699D01*
X71175500Y-169954269D01*
X71175500Y-169445730D01*
X71172646Y-169415300D01*
X71172646Y-169415298D01*
X71127793Y-169287119D01*
X71127792Y-169287117D01*
X71114299Y-169268834D01*
X71047150Y-169177850D01*
X71047148Y-169177849D01*
X71047148Y-169177848D01*
X70976408Y-169125640D01*
X70934157Y-169069993D01*
X70928698Y-169000337D01*
X70961765Y-168938787D01*
X70968238Y-168933220D01*
X70973832Y-168927966D01*
X70973837Y-168927963D01*
X71078600Y-168801326D01*
X71148579Y-168652613D01*
X71179376Y-168491170D01*
X71169056Y-168327140D01*
X71118268Y-168170829D01*
X71115941Y-168167163D01*
X71082947Y-168115172D01*
X71030202Y-168032060D01*
X71030201Y-168032059D01*
X70904706Y-167914211D01*
X70906421Y-167912384D01*
X70871263Y-167866784D01*
X70865288Y-167797170D01*
X70897899Y-167735377D01*
X70913928Y-167721488D01*
X70973837Y-167677963D01*
X71078600Y-167551326D01*
X71148579Y-167402613D01*
X71179376Y-167241170D01*
X71169056Y-167077140D01*
X71118268Y-166920829D01*
X71030202Y-166782060D01*
X70953170Y-166709722D01*
X70904706Y-166664211D01*
X70906421Y-166662384D01*
X70871263Y-166616784D01*
X70865288Y-166547170D01*
X70897899Y-166485377D01*
X70913928Y-166471488D01*
X70973837Y-166427963D01*
X71078600Y-166301326D01*
X71148579Y-166152613D01*
X71179376Y-165991170D01*
X71169056Y-165827140D01*
X71118268Y-165670829D01*
X71117871Y-165670204D01*
X71070447Y-165595476D01*
X71030202Y-165532060D01*
X70992160Y-165496336D01*
X70904706Y-165414211D01*
X70906421Y-165412384D01*
X70871263Y-165366784D01*
X70865288Y-165297170D01*
X70897899Y-165235377D01*
X70913928Y-165221488D01*
X70973837Y-165177963D01*
X71078600Y-165051326D01*
X71148579Y-164902613D01*
X71179376Y-164741170D01*
X71169056Y-164577140D01*
X71118268Y-164420829D01*
X71030202Y-164282060D01*
X70919936Y-164178513D01*
X70904706Y-164164211D01*
X70906421Y-164162384D01*
X70871263Y-164116784D01*
X70865288Y-164047170D01*
X70897899Y-163985377D01*
X70913928Y-163971488D01*
X70973837Y-163927963D01*
X71078600Y-163801326D01*
X71148579Y-163652613D01*
X71179376Y-163491170D01*
X71169056Y-163327140D01*
X71118268Y-163170829D01*
X71030202Y-163032060D01*
X71030201Y-163032059D01*
X70904706Y-162914211D01*
X70906421Y-162912384D01*
X70871263Y-162866784D01*
X70865288Y-162797170D01*
X70897899Y-162735377D01*
X70913928Y-162721488D01*
X70973837Y-162677963D01*
X71078600Y-162551326D01*
X71148579Y-162402613D01*
X71179376Y-162241170D01*
X71169056Y-162077140D01*
X71118268Y-161920829D01*
X71030202Y-161782060D01*
X71030201Y-161782059D01*
X70910396Y-161669554D01*
X70910388Y-161669548D01*
X70766371Y-161590374D01*
X70766361Y-161590371D01*
X70607180Y-161549500D01*
X70607177Y-161549500D01*
X69984075Y-161549500D01*
X69984065Y-161549500D01*
X69861942Y-161564929D01*
X69861939Y-161564929D01*
X69709130Y-161625431D01*
X69709121Y-161625436D01*
X69576164Y-161722034D01*
X69576162Y-161722037D01*
X69471400Y-161848673D01*
X69401420Y-161997387D01*
X69396485Y-162023261D01*
X69370624Y-162158830D01*
X69370624Y-162158832D01*
X69370624Y-162158833D01*
X69380944Y-162322860D01*
X69431732Y-162479171D01*
X69431734Y-162479175D01*
X69519798Y-162617940D01*
X69645294Y-162735789D01*
X69643577Y-162737616D01*
X69678733Y-162783208D01*
X69684712Y-162852821D01*
X69652106Y-162914616D01*
X69636068Y-162928513D01*
X69576162Y-162972037D01*
X69471400Y-163098673D01*
X69401420Y-163247387D01*
X69386615Y-163325000D01*
X69370624Y-163408830D01*
X69370624Y-163408832D01*
X69370624Y-163408833D01*
X69380944Y-163572860D01*
X69431732Y-163729171D01*
X69431734Y-163729175D01*
X69519798Y-163867940D01*
X69645294Y-163985789D01*
X69643577Y-163987616D01*
X69678733Y-164033208D01*
X69684712Y-164102821D01*
X69652106Y-164164616D01*
X69636068Y-164178513D01*
X69576162Y-164222037D01*
X69471400Y-164348673D01*
X69401420Y-164497387D01*
X69386207Y-164577139D01*
X69370624Y-164658830D01*
X69370624Y-164658832D01*
X69370624Y-164658833D01*
X69380944Y-164822860D01*
X69431732Y-164979171D01*
X69431734Y-164979175D01*
X69519798Y-165117940D01*
X69645294Y-165235789D01*
X69643577Y-165237616D01*
X69678733Y-165283208D01*
X69684712Y-165352821D01*
X69652106Y-165414616D01*
X69636068Y-165428513D01*
X69576162Y-165472037D01*
X69471400Y-165598673D01*
X69401420Y-165747387D01*
X69391834Y-165797643D01*
X69370624Y-165908830D01*
X69370624Y-165908832D01*
X69370624Y-165908833D01*
X69380944Y-166072860D01*
X69431732Y-166229171D01*
X69431734Y-166229175D01*
X69519798Y-166367940D01*
X69645294Y-166485789D01*
X69643577Y-166487616D01*
X69678733Y-166533208D01*
X69684712Y-166602821D01*
X69652106Y-166664616D01*
X69636068Y-166678513D01*
X69576162Y-166722037D01*
X69471400Y-166848673D01*
X69401420Y-166997387D01*
X69383046Y-167093712D01*
X69370624Y-167158830D01*
X69370624Y-167158832D01*
X69370624Y-167158833D01*
X69380944Y-167322860D01*
X69431732Y-167479171D01*
X69431734Y-167479175D01*
X69519798Y-167617940D01*
X69645294Y-167735789D01*
X69643577Y-167737616D01*
X69678733Y-167783208D01*
X69684712Y-167852821D01*
X69652106Y-167914616D01*
X69636068Y-167928513D01*
X69576162Y-167972037D01*
X69471400Y-168098673D01*
X69401420Y-168247387D01*
X69386207Y-168327139D01*
X69370624Y-168408830D01*
X69370624Y-168408832D01*
X69370624Y-168408833D01*
X68101139Y-168408833D01*
X68101791Y-168404924D01*
X68102768Y-168397086D01*
X68100500Y-168342244D01*
X68100500Y-157656898D01*
X68120185Y-157589859D01*
X68136814Y-157569222D01*
X68346859Y-157359177D01*
X68408178Y-157325695D01*
X68433716Y-157322865D01*
X69343340Y-157316933D01*
X69410503Y-157336179D01*
X69443913Y-157367293D01*
X69502850Y-157447150D01*
X69612118Y-157527793D01*
X69654845Y-157542744D01*
X69740299Y-157572646D01*
X69770730Y-157575500D01*
X69770734Y-157575500D01*
X70779270Y-157575500D01*
X70809699Y-157572646D01*
X70809701Y-157572646D01*
X70890307Y-157544440D01*
X70937882Y-157527793D01*
X71047150Y-157447150D01*
X71115087Y-157355097D01*
X71170734Y-157312847D01*
X71214047Y-157304734D01*
X71699694Y-157301567D01*
X71766858Y-157320812D01*
G37*
%TD.AperFunction*%
%TA.AperFunction,Conductor*%
G36*
X66566858Y-157354723D02*
G01*
X66612956Y-157407227D01*
X66624500Y-157459473D01*
X66624500Y-167643100D01*
X66604815Y-167710139D01*
X66588181Y-167730781D01*
X66187181Y-168131781D01*
X66125858Y-168165266D01*
X66056166Y-168160282D01*
X66000233Y-168118410D01*
X65975816Y-168052946D01*
X65975500Y-168044100D01*
X65975500Y-167157026D01*
X65995185Y-167089987D01*
X66001117Y-167081547D01*
X66080861Y-166977625D01*
X66136330Y-166843709D01*
X66155250Y-166700000D01*
X66136330Y-166556291D01*
X66092702Y-166450962D01*
X66080862Y-166422377D01*
X66080861Y-166422376D01*
X66080861Y-166422375D01*
X65992621Y-166307379D01*
X65877625Y-166219139D01*
X65877624Y-166219138D01*
X65877622Y-166219137D01*
X65743712Y-166163671D01*
X65743710Y-166163670D01*
X65743709Y-166163670D01*
X65659717Y-166152612D01*
X65600001Y-166144750D01*
X65599999Y-166144750D01*
X65456291Y-166163670D01*
X65456287Y-166163671D01*
X65322377Y-166219137D01*
X65207379Y-166307379D01*
X65119137Y-166422377D01*
X65063671Y-166556287D01*
X65063670Y-166556291D01*
X65052105Y-166644138D01*
X65044750Y-166700000D01*
X65063190Y-166840066D01*
X65063670Y-166843708D01*
X65063671Y-166843712D01*
X65119137Y-166977622D01*
X65119138Y-166977624D01*
X65119139Y-166977625D01*
X65198876Y-167081540D01*
X65224070Y-167146709D01*
X65224500Y-167157026D01*
X65224500Y-168193100D01*
X65204815Y-168260139D01*
X65188181Y-168280781D01*
X64605781Y-168863181D01*
X64544458Y-168896666D01*
X64518100Y-168899500D01*
X63565561Y-168899500D01*
X63498522Y-168879815D01*
X63452767Y-168827011D01*
X63442823Y-168757853D01*
X63471848Y-168694297D01*
X63490067Y-168677130D01*
X63567621Y-168617621D01*
X63655861Y-168502625D01*
X63711330Y-168368709D01*
X63730250Y-168225000D01*
X63711330Y-168081291D01*
X63658421Y-167953555D01*
X63655862Y-167947377D01*
X63655861Y-167947376D01*
X63655861Y-167947375D01*
X63567621Y-167832379D01*
X63452625Y-167744139D01*
X63452621Y-167744137D01*
X63363538Y-167707238D01*
X63309134Y-167663397D01*
X63287069Y-167597103D01*
X63304348Y-167529404D01*
X63355485Y-167481793D01*
X63363509Y-167478128D01*
X63477625Y-167430861D01*
X63592621Y-167342621D01*
X63680861Y-167227625D01*
X63736330Y-167093709D01*
X63755250Y-166950000D01*
X63736330Y-166806291D01*
X63692895Y-166701429D01*
X63680862Y-166672377D01*
X63680861Y-166672376D01*
X63680861Y-166672375D01*
X63592621Y-166557379D01*
X63477625Y-166469139D01*
X63477624Y-166469138D01*
X63477622Y-166469137D01*
X63343712Y-166413671D01*
X63343710Y-166413670D01*
X63343709Y-166413670D01*
X63252235Y-166401627D01*
X63200001Y-166394750D01*
X63199999Y-166394750D01*
X63056291Y-166413670D01*
X63056290Y-166413670D01*
X62987872Y-166442009D01*
X62918402Y-166449476D01*
X62855924Y-166418200D01*
X62820272Y-166358111D01*
X62822767Y-166288286D01*
X62825848Y-166280023D01*
X62865860Y-166183427D01*
X62884780Y-166039718D01*
X62865860Y-165896009D01*
X62810391Y-165762093D01*
X62739880Y-165670202D01*
X62714687Y-165605035D01*
X62728725Y-165536590D01*
X62762772Y-165496341D01*
X62767621Y-165492621D01*
X62855861Y-165377625D01*
X62911330Y-165243709D01*
X62930250Y-165100000D01*
X62911330Y-164956291D01*
X62874350Y-164867013D01*
X62855862Y-164822377D01*
X62855861Y-164822376D01*
X62855861Y-164822375D01*
X62767621Y-164707379D01*
X62652625Y-164619139D01*
X62652624Y-164619138D01*
X62652622Y-164619137D01*
X62518712Y-164563671D01*
X62518710Y-164563670D01*
X62518709Y-164563670D01*
X62446854Y-164554210D01*
X62375001Y-164544750D01*
X62374999Y-164544750D01*
X62231291Y-164563670D01*
X62231287Y-164563671D01*
X62097377Y-164619137D01*
X61982379Y-164707379D01*
X61894137Y-164822377D01*
X61838671Y-164956287D01*
X61838670Y-164956292D01*
X61827427Y-165041686D01*
X61799160Y-165105583D01*
X61740835Y-165144053D01*
X61704488Y-165149500D01*
X58117886Y-165149500D01*
X58050847Y-165129815D01*
X58005092Y-165077011D01*
X57994947Y-165009314D01*
X58009339Y-164899998D01*
X58009339Y-164899997D01*
X58003568Y-164856166D01*
X57990419Y-164756289D01*
X57934950Y-164622373D01*
X57846710Y-164507377D01*
X57731714Y-164419137D01*
X57731713Y-164419136D01*
X57731711Y-164419135D01*
X57597801Y-164363669D01*
X57597799Y-164363668D01*
X57597798Y-164363668D01*
X57525943Y-164354208D01*
X57454090Y-164344748D01*
X57454088Y-164344748D01*
X57310380Y-164363668D01*
X57310376Y-164363669D01*
X57176466Y-164419135D01*
X57061468Y-164507377D01*
X56973226Y-164622375D01*
X56917760Y-164756285D01*
X56917759Y-164756289D01*
X56898839Y-164899997D01*
X56898839Y-164899998D01*
X56913231Y-165009314D01*
X56902466Y-165078350D01*
X56856086Y-165130606D01*
X56790292Y-165149500D01*
X56151803Y-165149500D01*
X56126358Y-165146861D01*
X56115732Y-165144633D01*
X56115729Y-165144633D01*
X56080507Y-165149023D01*
X56072831Y-165149500D01*
X56068886Y-165149500D01*
X56057371Y-165151421D01*
X56045856Y-165153342D01*
X56027696Y-165155606D01*
X55991375Y-165160134D01*
X55991371Y-165160135D01*
X55983842Y-165162377D01*
X55976383Y-165164937D01*
X55928118Y-165191058D01*
X55878791Y-165215172D01*
X55872381Y-165219748D01*
X55866175Y-165224579D01*
X55828992Y-165264970D01*
X54755781Y-166338181D01*
X54694458Y-166371666D01*
X54668100Y-166374500D01*
X51231899Y-166374500D01*
X51164860Y-166354815D01*
X51144218Y-166338181D01*
X49793219Y-164987181D01*
X49759734Y-164925858D01*
X49764718Y-164856166D01*
X49806590Y-164800233D01*
X49872054Y-164775816D01*
X49880900Y-164775500D01*
X54191258Y-164775500D01*
X54216703Y-164778139D01*
X54220502Y-164778935D01*
X54227330Y-164780367D01*
X54248287Y-164777754D01*
X54262554Y-164775977D01*
X54270230Y-164775500D01*
X54274174Y-164775500D01*
X54274176Y-164775500D01*
X54274178Y-164775499D01*
X54274184Y-164775499D01*
X54289549Y-164772934D01*
X54297202Y-164771657D01*
X54351688Y-164764866D01*
X54351689Y-164764865D01*
X54351691Y-164764865D01*
X54359203Y-164762628D01*
X54366668Y-164760066D01*
X54366668Y-164760065D01*
X54366672Y-164760065D01*
X54414939Y-164733944D01*
X54464273Y-164709826D01*
X54464276Y-164709823D01*
X54470656Y-164705268D01*
X54476881Y-164700422D01*
X54476888Y-164700419D01*
X54514070Y-164660028D01*
X56435215Y-162738882D01*
X56496536Y-162705399D01*
X56566228Y-162710383D01*
X56622161Y-162752255D01*
X56642669Y-162794471D01*
X56643805Y-162798713D01*
X56699271Y-162932622D01*
X56699272Y-162932624D01*
X56699273Y-162932625D01*
X56787513Y-163047621D01*
X56902509Y-163135861D01*
X57036425Y-163191330D01*
X57156232Y-163207103D01*
X57220129Y-163235370D01*
X57258600Y-163293694D01*
X57262986Y-163313856D01*
X57267684Y-163349539D01*
X57267685Y-163349544D01*
X57323151Y-163483454D01*
X57323152Y-163483456D01*
X57323153Y-163483457D01*
X57411393Y-163598453D01*
X57526389Y-163686693D01*
X57660305Y-163742162D01*
X57787294Y-163758880D01*
X57804013Y-163761082D01*
X57804014Y-163761082D01*
X57804015Y-163761082D01*
X57818991Y-163759110D01*
X57947723Y-163742162D01*
X58072137Y-163690628D01*
X58141602Y-163683160D01*
X58200829Y-163712806D01*
X58200932Y-163712673D01*
X58201626Y-163713205D01*
X58204082Y-163714435D01*
X58207267Y-163717509D01*
X58207374Y-163717616D01*
X58207376Y-163717618D01*
X58207379Y-163717621D01*
X58322375Y-163805861D01*
X58456291Y-163861330D01*
X58583280Y-163878048D01*
X58599999Y-163880250D01*
X58600000Y-163880250D01*
X58600001Y-163880250D01*
X58614977Y-163878278D01*
X58743709Y-163861330D01*
X58877625Y-163805861D01*
X58992621Y-163717621D01*
X59080861Y-163602625D01*
X59136330Y-163468709D01*
X59155250Y-163325000D01*
X59136330Y-163181291D01*
X59080963Y-163047621D01*
X59080862Y-163047377D01*
X59080861Y-163047376D01*
X59080861Y-163047375D01*
X58992621Y-162932379D01*
X58877625Y-162844139D01*
X58877624Y-162844138D01*
X58877622Y-162844137D01*
X58743712Y-162788671D01*
X58743709Y-162788670D01*
X58734106Y-162787405D01*
X58670211Y-162759137D01*
X58631742Y-162700812D01*
X58630913Y-162630947D01*
X58662613Y-162576788D01*
X58756389Y-162483012D01*
X58776246Y-162466888D01*
X58785336Y-162460950D01*
X58807138Y-162432937D01*
X58812233Y-162427169D01*
X58815019Y-162424384D01*
X58815028Y-162424372D01*
X58828586Y-162405382D01*
X58862307Y-162362058D01*
X58866047Y-162355144D01*
X58869506Y-162348069D01*
X58869510Y-162348065D01*
X58880191Y-162312189D01*
X58885172Y-162295459D01*
X58903000Y-162243527D01*
X58904291Y-162235790D01*
X58905268Y-162227952D01*
X58903000Y-162173110D01*
X58903000Y-157508209D01*
X58922685Y-157441170D01*
X58975489Y-157395415D01*
X59026184Y-157384213D01*
X66499695Y-157335477D01*
X66566858Y-157354723D01*
G37*
%TD.AperFunction*%
%TA.AperFunction,Conductor*%
G36*
X54674950Y-159270185D02*
G01*
X54720705Y-159322989D01*
X54730850Y-159390685D01*
X54719750Y-159474997D01*
X54719750Y-159475000D01*
X54738670Y-159618708D01*
X54738671Y-159618712D01*
X54794137Y-159752622D01*
X54794138Y-159752624D01*
X54794139Y-159752625D01*
X54882379Y-159867621D01*
X54997375Y-159955861D01*
X54997376Y-159955861D01*
X54997377Y-159955862D01*
X55016240Y-159963675D01*
X55131291Y-160011330D01*
X55275000Y-160030250D01*
X55276822Y-160030250D01*
X55278302Y-160030684D01*
X55283059Y-160031311D01*
X55282961Y-160032052D01*
X55343861Y-160049935D01*
X55389616Y-160102739D01*
X55399761Y-160138064D01*
X55405123Y-160178789D01*
X55409991Y-160215768D01*
X55413670Y-160243707D01*
X55413671Y-160243712D01*
X55458578Y-160352129D01*
X55466047Y-160421598D01*
X55434771Y-160484077D01*
X55431698Y-160487262D01*
X52930781Y-162988181D01*
X52869458Y-163021666D01*
X52843100Y-163024500D01*
X47265784Y-163024500D01*
X47198745Y-163004815D01*
X47178103Y-162988181D01*
X47111033Y-162921111D01*
X47094906Y-162901252D01*
X47088970Y-162892167D01*
X47088967Y-162892163D01*
X47060958Y-162870363D01*
X47055194Y-162865272D01*
X47052399Y-162862477D01*
X47033389Y-162848906D01*
X46990073Y-162815190D01*
X46983158Y-162811448D01*
X46976084Y-162807990D01*
X46923480Y-162792329D01*
X46871542Y-162774499D01*
X46863807Y-162773208D01*
X46855969Y-162772231D01*
X46801128Y-162774500D01*
X46237391Y-162774500D01*
X46170352Y-162754815D01*
X46161903Y-162748874D01*
X46134698Y-162727998D01*
X46093496Y-162671570D01*
X46089343Y-162601823D01*
X46123556Y-162540904D01*
X46134691Y-162531255D01*
X46217621Y-162467621D01*
X46302085Y-162357545D01*
X46358511Y-162316344D01*
X46428257Y-162312189D01*
X46447901Y-162318468D01*
X46459242Y-162323166D01*
X46555048Y-162335779D01*
X46602950Y-162342086D01*
X46602951Y-162342086D01*
X46602952Y-162342086D01*
X46617928Y-162340114D01*
X46746660Y-162323166D01*
X46880576Y-162267697D01*
X46995572Y-162179457D01*
X47083812Y-162064461D01*
X47139281Y-161930545D01*
X47158201Y-161786836D01*
X47139281Y-161643127D01*
X47117429Y-161590371D01*
X47109800Y-161571952D01*
X47102331Y-161502483D01*
X47133607Y-161440004D01*
X47193696Y-161404352D01*
X47224361Y-161400500D01*
X49548186Y-161400500D01*
X49573631Y-161403139D01*
X49577430Y-161403935D01*
X49584258Y-161405367D01*
X49605215Y-161402754D01*
X49619482Y-161400977D01*
X49627158Y-161400500D01*
X49631102Y-161400500D01*
X49631104Y-161400500D01*
X49631106Y-161400499D01*
X49631112Y-161400499D01*
X49646477Y-161397934D01*
X49654130Y-161396657D01*
X49708616Y-161389866D01*
X49708617Y-161389865D01*
X49708619Y-161389865D01*
X49716131Y-161387628D01*
X49723596Y-161385066D01*
X49723596Y-161385065D01*
X49723600Y-161385065D01*
X49771867Y-161358944D01*
X49821201Y-161334826D01*
X49821204Y-161334823D01*
X49827584Y-161330268D01*
X49833809Y-161325422D01*
X49833816Y-161325419D01*
X49870997Y-161285029D01*
X50992354Y-160163672D01*
X51053675Y-160130189D01*
X51063828Y-160128419D01*
X51193709Y-160111320D01*
X51327625Y-160055851D01*
X51442621Y-159967611D01*
X51530861Y-159852615D01*
X51586330Y-159718699D01*
X51605250Y-159574990D01*
X51586330Y-159431281D01*
X51582466Y-159421952D01*
X51574997Y-159352483D01*
X51606273Y-159290004D01*
X51666362Y-159254352D01*
X51697027Y-159250500D01*
X54607911Y-159250500D01*
X54674950Y-159270185D01*
G37*
%TD.AperFunction*%
%TD*%
M02*
