%TF.GenerationSoftware,KiCad,Pcbnew,7.0.8*%
%TF.CreationDate,2024-01-09T15:44:46+08:00*%
%TF.ProjectId,FOC2,464f4332-2e6b-4696-9361-645f70636258,rev?*%
%TF.SameCoordinates,Original*%
%TF.FileFunction,Soldermask,Top*%
%TF.FilePolarity,Negative*%
%FSLAX46Y46*%
G04 Gerber Fmt 4.6, Leading zero omitted, Abs format (unit mm)*
G04 Created by KiCad (PCBNEW 7.0.8) date 2024-01-09 15:44:46*
%MOMM*%
%LPD*%
G01*
G04 APERTURE LIST*
G04 Aperture macros list*
%AMRoundRect*
0 Rectangle with rounded corners*
0 $1 Rounding radius*
0 $2 $3 $4 $5 $6 $7 $8 $9 X,Y pos of 4 corners*
0 Add a 4 corners polygon primitive as box body*
4,1,4,$2,$3,$4,$5,$6,$7,$8,$9,$2,$3,0*
0 Add four circle primitives for the rounded corners*
1,1,$1+$1,$2,$3*
1,1,$1+$1,$4,$5*
1,1,$1+$1,$6,$7*
1,1,$1+$1,$8,$9*
0 Add four rect primitives between the rounded corners*
20,1,$1+$1,$2,$3,$4,$5,0*
20,1,$1+$1,$4,$5,$6,$7,0*
20,1,$1+$1,$6,$7,$8,$9,0*
20,1,$1+$1,$8,$9,$2,$3,0*%
G04 Aperture macros list end*
%ADD10RoundRect,0.218750X0.218750X0.256250X-0.218750X0.256250X-0.218750X-0.256250X0.218750X-0.256250X0*%
%ADD11R,3.500000X3.500000*%
%ADD12C,3.500000*%
%ADD13R,0.700000X0.700000*%
%ADD14R,4.350000X4.510000*%
%ADD15RoundRect,0.200000X-0.200000X-0.275000X0.200000X-0.275000X0.200000X0.275000X-0.200000X0.275000X0*%
%ADD16RoundRect,0.200000X0.200000X0.275000X-0.200000X0.275000X-0.200000X-0.275000X0.200000X-0.275000X0*%
%ADD17RoundRect,0.225000X0.250000X-0.225000X0.250000X0.225000X-0.250000X0.225000X-0.250000X-0.225000X0*%
%ADD18C,3.800000*%
%ADD19RoundRect,0.225000X-0.225000X-0.250000X0.225000X-0.250000X0.225000X0.250000X-0.225000X0.250000X0*%
%ADD20RoundRect,0.150000X-0.675000X-0.150000X0.675000X-0.150000X0.675000X0.150000X-0.675000X0.150000X0*%
%ADD21R,1.550000X0.600000*%
%ADD22R,2.600000X3.100000*%
%ADD23R,1.200000X1.200000*%
%ADD24R,3.000000X3.000000*%
%ADD25C,3.000000*%
%ADD26RoundRect,0.225000X0.375000X-0.225000X0.375000X0.225000X-0.375000X0.225000X-0.375000X-0.225000X0*%
%ADD27RoundRect,0.200000X0.275000X-0.200000X0.275000X0.200000X-0.275000X0.200000X-0.275000X-0.200000X0*%
%ADD28RoundRect,0.200000X0.450000X-0.200000X0.450000X0.200000X-0.450000X0.200000X-0.450000X-0.200000X0*%
%ADD29O,1.300000X0.800000*%
%ADD30C,0.650000*%
%ADD31R,0.600000X1.450000*%
%ADD32R,0.300000X1.450000*%
%ADD33O,1.000000X2.100000*%
%ADD34O,1.000000X1.600000*%
%ADD35RoundRect,0.249999X1.450001X-0.450001X1.450001X0.450001X-1.450001X0.450001X-1.450001X-0.450001X0*%
%ADD36RoundRect,0.225000X0.225000X0.250000X-0.225000X0.250000X-0.225000X-0.250000X0.225000X-0.250000X0*%
%ADD37RoundRect,0.249999X-1.450001X0.450001X-1.450001X-0.450001X1.450001X-0.450001X1.450001X0.450001X0*%
%ADD38RoundRect,0.062500X0.375000X0.062500X-0.375000X0.062500X-0.375000X-0.062500X0.375000X-0.062500X0*%
%ADD39RoundRect,0.062500X0.062500X0.375000X-0.062500X0.375000X-0.062500X-0.375000X0.062500X-0.375000X0*%
%ADD40R,5.600000X5.600000*%
G04 APERTURE END LIST*
D10*
%TO.C,D13*%
X67337500Y-173425000D03*
X65762500Y-173425000D03*
%TD*%
D11*
%TO.C,J4*%
X42200000Y-177550000D03*
D12*
X47200000Y-177550000D03*
%TD*%
D13*
%TO.C,Q5*%
X38400000Y-151900000D03*
X38400000Y-153170000D03*
X38400000Y-154440000D03*
X38400000Y-155710000D03*
D14*
X41530000Y-153805000D03*
D13*
X44000000Y-151900000D03*
X44000000Y-153170000D03*
X44000000Y-154440000D03*
X44000000Y-155710000D03*
%TD*%
D15*
%TO.C,R4*%
X46575000Y-157300000D03*
X48225000Y-157300000D03*
%TD*%
D16*
%TO.C,R15*%
X36025000Y-161100000D03*
X34375000Y-161100000D03*
%TD*%
D17*
%TO.C,C25*%
X36975000Y-155575000D03*
X36975000Y-154025000D03*
%TD*%
D15*
%TO.C,R18*%
X42400000Y-160205000D03*
X44050000Y-160205000D03*
%TD*%
D18*
%TO.C,H4*%
X69700000Y-177700000D03*
%TD*%
D19*
%TO.C,C4*%
X65450000Y-165250000D03*
X67000000Y-165250000D03*
%TD*%
D20*
%TO.C,U2*%
X58375000Y-165695000D03*
X58375000Y-166965000D03*
X58375000Y-168235000D03*
X58375000Y-169505000D03*
X63625000Y-169505000D03*
X63625000Y-168235000D03*
X63625000Y-166965000D03*
X63625000Y-165695000D03*
%TD*%
D16*
%TO.C,R25*%
X64225000Y-163650000D03*
X62575000Y-163650000D03*
%TD*%
D13*
%TO.C,Q3*%
X48163750Y-151900000D03*
X48163750Y-153170000D03*
X48163750Y-154440000D03*
X48163750Y-155710000D03*
D14*
X51293750Y-153805000D03*
D13*
X53763750Y-151900000D03*
X53763750Y-153170000D03*
X53763750Y-154440000D03*
X53763750Y-155710000D03*
%TD*%
D21*
%TO.C,U7*%
X43350000Y-165905000D03*
X43350000Y-164635000D03*
X43350000Y-163365000D03*
X43350000Y-162095000D03*
X37950000Y-162095000D03*
X37950000Y-163365000D03*
X37950000Y-164635000D03*
X37950000Y-165905000D03*
D22*
X40650000Y-164000000D03*
%TD*%
D19*
%TO.C,C18*%
X34425000Y-167300000D03*
X35975000Y-167300000D03*
%TD*%
D23*
%TO.C,D12*%
X58675000Y-160100000D03*
X61475000Y-160100000D03*
%TD*%
D17*
%TO.C,C23*%
X46775000Y-155450000D03*
X46775000Y-153900000D03*
%TD*%
D24*
%TO.C,J1*%
X54400000Y-142900000D03*
D25*
X50900000Y-142900000D03*
X47400000Y-142900000D03*
%TD*%
D26*
%TO.C,D7*%
X55715000Y-149250000D03*
X55715000Y-145950000D03*
%TD*%
D27*
%TO.C,R24*%
X63525000Y-160125000D03*
X63525000Y-158475000D03*
%TD*%
D26*
%TO.C,D9*%
X46015000Y-149350000D03*
X46015000Y-146050000D03*
%TD*%
D13*
%TO.C,Q1*%
X57902500Y-151900000D03*
X57902500Y-153170000D03*
X57902500Y-154440000D03*
X57902500Y-155710000D03*
D14*
X61032500Y-153805000D03*
D13*
X63502500Y-151900000D03*
X63502500Y-153170000D03*
X63502500Y-154440000D03*
X63502500Y-155710000D03*
%TD*%
D28*
%TO.C,J7*%
X70300000Y-170375000D03*
D29*
X70300000Y-169125000D03*
X70300000Y-167875000D03*
%TD*%
D15*
%TO.C,R17*%
X34375000Y-162700000D03*
X36025000Y-162700000D03*
%TD*%
D30*
%TO.C,J3*%
X55620000Y-173200000D03*
X61400000Y-173200000D03*
D31*
X55260000Y-171755000D03*
X56060000Y-171755000D03*
D32*
X57260000Y-171755000D03*
X58260000Y-171755000D03*
X58760000Y-171755000D03*
X59760000Y-171755000D03*
D31*
X60960000Y-171755000D03*
X61760000Y-171755000D03*
X61760000Y-171755000D03*
X60960000Y-171755000D03*
D32*
X60260000Y-171755000D03*
X59260000Y-171755000D03*
X57760000Y-171755000D03*
X56760000Y-171755000D03*
D31*
X56060000Y-171755000D03*
X55260000Y-171755000D03*
D33*
X54190000Y-172670000D03*
D34*
X54190000Y-176850000D03*
D33*
X62830000Y-172670000D03*
D34*
X62830000Y-176850000D03*
%TD*%
D35*
%TO.C,C14*%
X34700000Y-152250000D03*
X34700000Y-148150000D03*
%TD*%
D36*
%TO.C,C19*%
X35975000Y-165700000D03*
X34425000Y-165700000D03*
%TD*%
D17*
%TO.C,C24*%
X56400000Y-155975000D03*
X56400000Y-154425000D03*
%TD*%
D26*
%TO.C,D5*%
X65400000Y-149250000D03*
X65400000Y-145950000D03*
%TD*%
D28*
%TO.C,J6*%
X70275000Y-154875000D03*
D29*
X70275000Y-153625000D03*
X70275000Y-152375000D03*
X70275000Y-151125000D03*
%TD*%
D18*
%TO.C,H1*%
X34300000Y-177700000D03*
%TD*%
%TO.C,H3*%
X69800000Y-142300000D03*
%TD*%
D37*
%TO.C,C9*%
X36400000Y-169250000D03*
X36400000Y-173350000D03*
%TD*%
D13*
%TO.C,Q4*%
X53763750Y-149900000D03*
X53763750Y-148630000D03*
X53763750Y-147360000D03*
X53763750Y-146090000D03*
D14*
X50633750Y-147995000D03*
D13*
X48163750Y-149900000D03*
X48163750Y-148630000D03*
X48163750Y-147360000D03*
X48163750Y-146090000D03*
%TD*%
D18*
%TO.C,H2*%
X34200000Y-142300000D03*
%TD*%
D15*
%TO.C,R26*%
X65725000Y-175025000D03*
X67375000Y-175025000D03*
%TD*%
D13*
%TO.C,Q2*%
X63515000Y-149900000D03*
X63515000Y-148630000D03*
X63515000Y-147360000D03*
X63515000Y-146090000D03*
D14*
X60385000Y-147995000D03*
D13*
X57915000Y-149900000D03*
X57915000Y-148630000D03*
X57915000Y-147360000D03*
X57915000Y-146090000D03*
%TD*%
D36*
%TO.C,C33*%
X64175000Y-162150000D03*
X62625000Y-162150000D03*
%TD*%
D35*
%TO.C,C13*%
X40450000Y-173350000D03*
X40450000Y-169250000D03*
%TD*%
D36*
%TO.C,C20*%
X35975000Y-164200000D03*
X34425000Y-164200000D03*
%TD*%
D35*
%TO.C,C10*%
X48900000Y-173350000D03*
X48900000Y-169250000D03*
%TD*%
%TO.C,C12*%
X44700000Y-173350000D03*
X44700000Y-169250000D03*
%TD*%
D13*
%TO.C,Q6*%
X44012500Y-149900000D03*
X44012500Y-148630000D03*
X44012500Y-147360000D03*
X44012500Y-146090000D03*
D14*
X40882500Y-147995000D03*
D13*
X38412500Y-149900000D03*
X38412500Y-148630000D03*
X38412500Y-147360000D03*
X38412500Y-146090000D03*
%TD*%
D19*
%TO.C,C30*%
X59575000Y-162100000D03*
X61125000Y-162100000D03*
%TD*%
D16*
%TO.C,R16*%
X39525000Y-160400000D03*
X37875000Y-160400000D03*
%TD*%
%TO.C,R23*%
X61175000Y-163600000D03*
X59525000Y-163600000D03*
%TD*%
D28*
%TO.C,J2*%
X70275000Y-163875000D03*
D29*
X70275000Y-162625000D03*
X70275000Y-161375000D03*
X70275000Y-160125000D03*
X70275000Y-158875000D03*
%TD*%
D38*
%TO.C,U3*%
X55000000Y-166400000D03*
X55000000Y-165900000D03*
X55000000Y-165400000D03*
X55000000Y-164900000D03*
X55000000Y-164400000D03*
X55000000Y-163900000D03*
X55000000Y-163400000D03*
X55000000Y-162900000D03*
X55000000Y-162400000D03*
X55000000Y-161900000D03*
X55000000Y-161400000D03*
X55000000Y-160900000D03*
D39*
X54312500Y-160212500D03*
X53812500Y-160212500D03*
X53312500Y-160212500D03*
X52812500Y-160212500D03*
X52312500Y-160212500D03*
X51812500Y-160212500D03*
X51312500Y-160212500D03*
X50812500Y-160212500D03*
X50312500Y-160212500D03*
X49812500Y-160212500D03*
X49312500Y-160212500D03*
X48812500Y-160212500D03*
D38*
X48125000Y-160900000D03*
X48125000Y-161400000D03*
X48125000Y-161900000D03*
X48125000Y-162400000D03*
X48125000Y-162900000D03*
X48125000Y-163400000D03*
X48125000Y-163900000D03*
X48125000Y-164400000D03*
X48125000Y-164900000D03*
X48125000Y-165400000D03*
X48125000Y-165900000D03*
X48125000Y-166400000D03*
D39*
X48812500Y-167087500D03*
X49312500Y-167087500D03*
X49812500Y-167087500D03*
X50312500Y-167087500D03*
X50812500Y-167087500D03*
X51312500Y-167087500D03*
X51812500Y-167087500D03*
X52312500Y-167087500D03*
X52812500Y-167087500D03*
X53312500Y-167087500D03*
X53812500Y-167087500D03*
X54312500Y-167087500D03*
D40*
X51562500Y-163650000D03*
%TD*%
M02*
