M48
; DRILL file {KiCad 7.0.8} date Tue Jan  9 15:58:49 2024
; FORMAT={-:-/ absolute / inch / decimal}
; #@! TF.CreationDate,2024-01-09T15:58:49+08:00
; #@! TF.GenerationSoftware,Kicad,Pcbnew,7.0.8
; #@! TF.FileFunction,Plated,1,4,PTH
FMAT,2
INCH
; #@! TA.AperFunction,Plated,PTH,ViaDrill
T1C0.0118
; #@! TA.AperFunction,Plated,PTH,ComponentDrill
T2C0.0118
; #@! TA.AperFunction,Plated,PTH,ViaDrill
T3C0.0157
; #@! TA.AperFunction,Plated,PTH,ComponentDrill
T4C0.0197
; #@! TA.AperFunction,Plated,PTH,ComponentDrill
T5C0.0236
; #@! TA.AperFunction,Plated,PTH,ComponentDrill
T6C0.0748
; #@! TA.AperFunction,Plated,PTH,ComponentDrill
T7C0.0866
%
G90
G05
T1
X1.311Y-6.7795
X1.339Y-5.8339
X1.3533Y-6.3425
X1.3632Y-6.5797
X1.3783Y-5.8346
X1.3789Y-6.562
X1.3898Y-5.9409
X1.4366Y-6.1594
X1.4577Y-5.9813
X1.5118Y-6.1303
X1.5123Y-6.0561
X1.6132Y-5.9409
X1.6713Y-6.8839
X1.6772Y-6.6142
X1.7274Y-5.8051
X1.7283Y-5.8317
X1.7293Y-5.8602
X1.7293Y-5.8888
X1.7648Y-6.56
X1.7721Y-6.4813
X1.7933Y-6.5059
X1.7954Y-6.4543
X1.8031Y-6.4237
X1.81Y-5.8504
X1.812Y-5.7874
X1.8189Y-6.3848
X1.8199Y-5.9409
X1.8199Y-6.3081
X1.8248Y-5.9937
X1.8307Y-6.4478
X1.8312Y-6.5172
X1.8376Y-6.1929
X1.8415Y-6.0591
X1.8415Y-6.1201
X1.8556Y-6.7694
X1.866Y-6.5794
X1.8922Y-6.5969
X1.8962Y-6.1303
X1.9222Y-6.6122
X1.9247Y-6.7128
X1.9616Y-6.2913
X1.9852Y-5.939
X2.0098Y-6.2825
X2.0154Y-6.6831
X2.0305Y-6.7116
X2.0374Y-6.5364
X2.0425Y-6.6661
X2.064Y-6.2274
X2.065Y-6.5354
X2.0845Y-6.6889
X2.0935Y-6.5059
X2.0949Y-6.6587
X2.0965Y-6.5344
X2.1152Y-5.7982
X2.1152Y-5.8248
X2.1152Y-5.8514
X2.1152Y-5.8789
X2.123Y-6.5344
X2.124Y-6.5079
X2.128Y-6.2175
X2.1358Y-6.6844
X2.1707Y-6.8846
X2.1815Y-6.1236
X2.189Y-6.2254
X2.1929Y-5.8789
X2.1936Y-6.6004
X2.1939Y-5.748
X2.1949Y-6.0138
X2.2028Y-6.3031
X2.2146Y-6.625
X2.2205Y-6.1407
X2.2343Y-6.2795
X2.2362Y-6.4616
X2.2382Y-6.5748
X2.2431Y-6.2303
X2.2461Y-6.5256
X2.2512Y-6.4037
X2.257Y-6.351
X2.2776Y-6.4283
X2.2783Y-6.3752
X2.2796Y-6.1303
X2.3035Y-6.9661
X2.3035Y-6.9937
X2.374Y-5.9439
X2.4843Y-6.624
X2.4852Y-6.5728
X2.5Y-5.8278
X2.5Y-5.8543
X2.5Y-5.8848
X2.501Y-5.7992
X2.5748Y-5.7461
X2.5748Y-5.8789
X2.5768Y-6.5059
X2.59Y-6.8179
T2
X1.5768Y-6.3858
X1.5768Y-6.4291
X1.5768Y-6.4803
X1.5768Y-6.5276
X1.624Y-6.3858
X1.624Y-6.4291
X1.624Y-6.4803
X1.624Y-6.5276
T3
X1.4882Y-6.5315
T4
X2.7667Y-5.9498
X2.7667Y-5.999
X2.7667Y-6.0482
X2.7667Y-6.0974
X2.7667Y-6.2549
X2.7667Y-6.3041
X2.7667Y-6.3533
X2.7667Y-6.4026
X2.7667Y-6.4518
X2.7677Y-6.6093
X2.7677Y-6.6585
X2.7677Y-6.7077
T6
X1.6614Y-6.9902
X1.8583Y-6.9902
X1.8661Y-5.626
X2.0039Y-5.626
X2.1417Y-5.626
T7
X1.3465Y-5.6024
X1.3504Y-6.9961
X2.7441Y-6.9961
X2.748Y-5.6024
T5
G00X2.1335Y-6.7764
M15
G01X2.1335Y-6.8197
M16
G05
G00X2.1335Y-6.9508
M15
G01X2.1335Y-6.9744
M16
G05
G00X2.4736Y-6.7764
M15
G01X2.4736Y-6.8197
M16
G05
G00X2.4736Y-6.9508
M15
G01X2.4736Y-6.9744
M16
G05
T0
M30
