%TF.GenerationSoftware,KiCad,Pcbnew,7.0.8*%
%TF.CreationDate,2023-12-30T15:26:21+08:00*%
%TF.ProjectId,FOC2,464f4332-2e6b-4696-9361-645f70636258,rev?*%
%TF.SameCoordinates,Original*%
%TF.FileFunction,Paste,Bot*%
%TF.FilePolarity,Positive*%
%FSLAX46Y46*%
G04 Gerber Fmt 4.6, Leading zero omitted, Abs format (unit mm)*
G04 Created by KiCad (PCBNEW 7.0.8) date 2023-12-30 15:26:21*
%MOMM*%
%LPD*%
G01*
G04 APERTURE LIST*
G04 Aperture macros list*
%AMRoundRect*
0 Rectangle with rounded corners*
0 $1 Rounding radius*
0 $2 $3 $4 $5 $6 $7 $8 $9 X,Y pos of 4 corners*
0 Add a 4 corners polygon primitive as box body*
4,1,4,$2,$3,$4,$5,$6,$7,$8,$9,$2,$3,0*
0 Add four circle primitives for the rounded corners*
1,1,$1+$1,$2,$3*
1,1,$1+$1,$4,$5*
1,1,$1+$1,$6,$7*
1,1,$1+$1,$8,$9*
0 Add four rect primitives between the rounded corners*
20,1,$1+$1,$2,$3,$4,$5,0*
20,1,$1+$1,$4,$5,$6,$7,0*
20,1,$1+$1,$6,$7,$8,$9,0*
20,1,$1+$1,$8,$9,$2,$3,0*%
G04 Aperture macros list end*
%ADD10RoundRect,0.200000X-0.200000X-0.275000X0.200000X-0.275000X0.200000X0.275000X-0.200000X0.275000X0*%
%ADD11RoundRect,0.225000X-0.375000X0.225000X-0.375000X-0.225000X0.375000X-0.225000X0.375000X0.225000X0*%
%ADD12RoundRect,0.225000X0.225000X0.375000X-0.225000X0.375000X-0.225000X-0.375000X0.225000X-0.375000X0*%
%ADD13RoundRect,0.225000X-0.225000X-0.250000X0.225000X-0.250000X0.225000X0.250000X-0.225000X0.250000X0*%
%ADD14RoundRect,0.150000X-0.150000X0.587500X-0.150000X-0.587500X0.150000X-0.587500X0.150000X0.587500X0*%
%ADD15RoundRect,0.250000X0.362500X1.425000X-0.362500X1.425000X-0.362500X-1.425000X0.362500X-1.425000X0*%
%ADD16RoundRect,0.250000X1.000000X0.650000X-1.000000X0.650000X-1.000000X-0.650000X1.000000X-0.650000X0*%
%ADD17RoundRect,0.249999X1.450001X-0.450001X1.450001X0.450001X-1.450001X0.450001X-1.450001X-0.450001X0*%
%ADD18R,0.650000X0.400000*%
%ADD19RoundRect,0.200000X0.275000X-0.200000X0.275000X0.200000X-0.275000X0.200000X-0.275000X-0.200000X0*%
%ADD20RoundRect,0.200000X0.200000X0.275000X-0.200000X0.275000X-0.200000X-0.275000X0.200000X-0.275000X0*%
%ADD21RoundRect,0.225000X0.250000X-0.225000X0.250000X0.225000X-0.250000X0.225000X-0.250000X-0.225000X0*%
%ADD22RoundRect,0.150000X0.150000X-0.512500X0.150000X0.512500X-0.150000X0.512500X-0.150000X-0.512500X0*%
%ADD23RoundRect,0.225000X0.225000X0.250000X-0.225000X0.250000X-0.225000X-0.250000X0.225000X-0.250000X0*%
%ADD24RoundRect,0.250000X0.650000X-1.000000X0.650000X1.000000X-0.650000X1.000000X-0.650000X-1.000000X0*%
%ADD25RoundRect,0.200000X-0.275000X0.200000X-0.275000X-0.200000X0.275000X-0.200000X0.275000X0.200000X0*%
%ADD26RoundRect,0.150000X-0.150000X-0.200000X0.150000X-0.200000X0.150000X0.200000X-0.150000X0.200000X0*%
%ADD27RoundRect,0.150000X0.825000X0.150000X-0.825000X0.150000X-0.825000X-0.150000X0.825000X-0.150000X0*%
%ADD28RoundRect,0.100000X0.637500X0.100000X-0.637500X0.100000X-0.637500X-0.100000X0.637500X-0.100000X0*%
%ADD29RoundRect,0.225000X-0.225000X-0.375000X0.225000X-0.375000X0.225000X0.375000X-0.225000X0.375000X0*%
%ADD30RoundRect,0.235000X1.465000X-0.940000X1.465000X0.940000X-1.465000X0.940000X-1.465000X-0.940000X0*%
G04 APERTURE END LIST*
D10*
%TO.C,R1*%
X58975000Y-159750000D03*
X60625000Y-159750000D03*
%TD*%
D11*
%TO.C,D8*%
X39175000Y-152875000D03*
X39175000Y-156175000D03*
%TD*%
D12*
%TO.C,D6*%
X55600000Y-158125000D03*
X52300000Y-158125000D03*
%TD*%
D13*
%TO.C,C21*%
X59700000Y-167250000D03*
X61250000Y-167250000D03*
%TD*%
D14*
%TO.C,U10*%
X45350000Y-169062500D03*
X47250000Y-169062500D03*
X46300000Y-170937500D03*
%TD*%
D15*
%TO.C,R9*%
X43800000Y-148600000D03*
X37875000Y-148600000D03*
%TD*%
D16*
%TO.C,D3*%
X39800000Y-170100000D03*
X35800000Y-170100000D03*
%TD*%
D17*
%TO.C,C17*%
X65875000Y-174825000D03*
X65875000Y-170725000D03*
%TD*%
D13*
%TO.C,C27*%
X46425000Y-151390000D03*
X47975000Y-151390000D03*
%TD*%
D18*
%TO.C,U5*%
X52650000Y-152750000D03*
X52650000Y-152100000D03*
X52650000Y-151450000D03*
X54550000Y-151450000D03*
X54550000Y-152100000D03*
X54550000Y-152750000D03*
%TD*%
D13*
%TO.C,C22*%
X59700000Y-165660000D03*
X61250000Y-165660000D03*
%TD*%
D19*
%TO.C,R8*%
X46000000Y-148600000D03*
X46000000Y-146950000D03*
%TD*%
D20*
%TO.C,R20*%
X42925000Y-154500000D03*
X41275000Y-154500000D03*
%TD*%
D18*
%TO.C,U6*%
X42250000Y-152750000D03*
X42250000Y-152100000D03*
X42250000Y-151450000D03*
X44150000Y-151450000D03*
X44150000Y-152100000D03*
X44150000Y-152750000D03*
%TD*%
D21*
%TO.C,C5*%
X33600000Y-157775000D03*
X33600000Y-156225000D03*
%TD*%
D22*
%TO.C,U9*%
X37150000Y-157637500D03*
X36200000Y-157637500D03*
X35250000Y-157637500D03*
X35250000Y-155362500D03*
X37150000Y-155362500D03*
%TD*%
D23*
%TO.C,C8*%
X35075000Y-153600000D03*
X33525000Y-153600000D03*
%TD*%
D10*
%TO.C,R19*%
X41275000Y-156000000D03*
X42925000Y-156000000D03*
%TD*%
D15*
%TO.C,R3*%
X63462500Y-148600000D03*
X57537500Y-148600000D03*
%TD*%
D24*
%TO.C,D1*%
X58500000Y-176100000D03*
X58500000Y-172100000D03*
%TD*%
D23*
%TO.C,C7*%
X35075000Y-152100000D03*
X33525000Y-152100000D03*
%TD*%
D25*
%TO.C,R7*%
X37025000Y-151925000D03*
X37025000Y-153575000D03*
%TD*%
D26*
%TO.C,D2*%
X42050000Y-160825000D03*
X40650000Y-160825000D03*
%TD*%
D27*
%TO.C,U8*%
X50075000Y-154595000D03*
X50075000Y-155865000D03*
X50075000Y-157135000D03*
X50075000Y-158405000D03*
X45125000Y-158405000D03*
X45125000Y-157135000D03*
X45125000Y-155865000D03*
X45125000Y-154595000D03*
%TD*%
D19*
%TO.C,R5*%
X55715000Y-148425000D03*
X55715000Y-146775000D03*
%TD*%
D13*
%TO.C,C26*%
X46425000Y-152900000D03*
X47975000Y-152900000D03*
%TD*%
D28*
%TO.C,U4*%
X55662500Y-160875000D03*
X55662500Y-161525000D03*
X55662500Y-162175000D03*
X55662500Y-162825000D03*
X55662500Y-163475000D03*
X55662500Y-164125000D03*
X55662500Y-164775000D03*
X55662500Y-165425000D03*
X55662500Y-166075000D03*
X55662500Y-166725000D03*
X49937500Y-166725000D03*
X49937500Y-166075000D03*
X49937500Y-165425000D03*
X49937500Y-164775000D03*
X49937500Y-164125000D03*
X49937500Y-163475000D03*
X49937500Y-162825000D03*
X49937500Y-162175000D03*
X49937500Y-161525000D03*
X49937500Y-160875000D03*
%TD*%
D23*
%TO.C,C28*%
X51175000Y-151400000D03*
X49625000Y-151400000D03*
%TD*%
D19*
%TO.C,R2*%
X65400000Y-148600000D03*
X65400000Y-146950000D03*
%TD*%
D25*
%TO.C,R21*%
X53900000Y-154275000D03*
X53900000Y-155925000D03*
%TD*%
D26*
%TO.C,D10*%
X41975000Y-167375000D03*
X40575000Y-167375000D03*
%TD*%
D23*
%TO.C,C29*%
X40700000Y-151375000D03*
X39150000Y-151375000D03*
%TD*%
D13*
%TO.C,C6*%
X38675000Y-157775000D03*
X40225000Y-157775000D03*
%TD*%
D26*
%TO.C,D11*%
X42025000Y-159375000D03*
X40625000Y-159375000D03*
%TD*%
D15*
%TO.C,R6*%
X53662500Y-148600000D03*
X47737500Y-148600000D03*
%TD*%
D25*
%TO.C,R22*%
X52300000Y-154275000D03*
X52300000Y-155925000D03*
%TD*%
D29*
%TO.C,D4*%
X58050000Y-157800000D03*
X61350000Y-157800000D03*
%TD*%
D30*
%TO.C,L1*%
X36300000Y-166525000D03*
X36300000Y-160475000D03*
%TD*%
M02*
