%TF.GenerationSoftware,KiCad,Pcbnew,7.0.8*%
%TF.CreationDate,2023-12-30T15:26:21+08:00*%
%TF.ProjectId,FOC2,464f4332-2e6b-4696-9361-645f70636258,rev?*%
%TF.SameCoordinates,Original*%
%TF.FileFunction,Copper,L4,Bot*%
%TF.FilePolarity,Positive*%
%FSLAX46Y46*%
G04 Gerber Fmt 4.6, Leading zero omitted, Abs format (unit mm)*
G04 Created by KiCad (PCBNEW 7.0.8) date 2023-12-30 15:26:21*
%MOMM*%
%LPD*%
G01*
G04 APERTURE LIST*
G04 Aperture macros list*
%AMRoundRect*
0 Rectangle with rounded corners*
0 $1 Rounding radius*
0 $2 $3 $4 $5 $6 $7 $8 $9 X,Y pos of 4 corners*
0 Add a 4 corners polygon primitive as box body*
4,1,4,$2,$3,$4,$5,$6,$7,$8,$9,$2,$3,0*
0 Add four circle primitives for the rounded corners*
1,1,$1+$1,$2,$3*
1,1,$1+$1,$4,$5*
1,1,$1+$1,$6,$7*
1,1,$1+$1,$8,$9*
0 Add four rect primitives between the rounded corners*
20,1,$1+$1,$2,$3,$4,$5,0*
20,1,$1+$1,$4,$5,$6,$7,0*
20,1,$1+$1,$6,$7,$8,$9,0*
20,1,$1+$1,$8,$9,$2,$3,0*%
G04 Aperture macros list end*
%TA.AperFunction,ComponentPad*%
%ADD10RoundRect,0.200000X0.450000X-0.200000X0.450000X0.200000X-0.450000X0.200000X-0.450000X-0.200000X0*%
%TD*%
%TA.AperFunction,ComponentPad*%
%ADD11O,1.300000X0.800000*%
%TD*%
%TA.AperFunction,ComponentPad*%
%ADD12R,3.500000X3.500000*%
%TD*%
%TA.AperFunction,ComponentPad*%
%ADD13C,3.500000*%
%TD*%
%TA.AperFunction,ComponentPad*%
%ADD14C,3.800000*%
%TD*%
%TA.AperFunction,ComponentPad*%
%ADD15C,0.600000*%
%TD*%
%TA.AperFunction,SMDPad,CuDef*%
%ADD16R,2.950000X4.500000*%
%TD*%
%TA.AperFunction,ComponentPad*%
%ADD17R,3.000000X3.000000*%
%TD*%
%TA.AperFunction,ComponentPad*%
%ADD18C,3.000000*%
%TD*%
%TA.AperFunction,ComponentPad*%
%ADD19O,1.000000X2.100000*%
%TD*%
%TA.AperFunction,ComponentPad*%
%ADD20O,1.000000X1.600000*%
%TD*%
%TA.AperFunction,SMDPad,CuDef*%
%ADD21RoundRect,0.200000X-0.200000X-0.275000X0.200000X-0.275000X0.200000X0.275000X-0.200000X0.275000X0*%
%TD*%
%TA.AperFunction,SMDPad,CuDef*%
%ADD22RoundRect,0.225000X-0.375000X0.225000X-0.375000X-0.225000X0.375000X-0.225000X0.375000X0.225000X0*%
%TD*%
%TA.AperFunction,SMDPad,CuDef*%
%ADD23RoundRect,0.225000X0.225000X0.375000X-0.225000X0.375000X-0.225000X-0.375000X0.225000X-0.375000X0*%
%TD*%
%TA.AperFunction,SMDPad,CuDef*%
%ADD24RoundRect,0.225000X-0.225000X-0.250000X0.225000X-0.250000X0.225000X0.250000X-0.225000X0.250000X0*%
%TD*%
%TA.AperFunction,SMDPad,CuDef*%
%ADD25RoundRect,0.150000X-0.150000X0.587500X-0.150000X-0.587500X0.150000X-0.587500X0.150000X0.587500X0*%
%TD*%
%TA.AperFunction,SMDPad,CuDef*%
%ADD26RoundRect,0.250000X0.362500X1.425000X-0.362500X1.425000X-0.362500X-1.425000X0.362500X-1.425000X0*%
%TD*%
%TA.AperFunction,SMDPad,CuDef*%
%ADD27RoundRect,0.250000X1.000000X0.650000X-1.000000X0.650000X-1.000000X-0.650000X1.000000X-0.650000X0*%
%TD*%
%TA.AperFunction,SMDPad,CuDef*%
%ADD28RoundRect,0.249999X1.450001X-0.450001X1.450001X0.450001X-1.450001X0.450001X-1.450001X-0.450001X0*%
%TD*%
%TA.AperFunction,SMDPad,CuDef*%
%ADD29R,0.650000X0.400000*%
%TD*%
%TA.AperFunction,SMDPad,CuDef*%
%ADD30RoundRect,0.200000X0.275000X-0.200000X0.275000X0.200000X-0.275000X0.200000X-0.275000X-0.200000X0*%
%TD*%
%TA.AperFunction,SMDPad,CuDef*%
%ADD31RoundRect,0.200000X0.200000X0.275000X-0.200000X0.275000X-0.200000X-0.275000X0.200000X-0.275000X0*%
%TD*%
%TA.AperFunction,SMDPad,CuDef*%
%ADD32RoundRect,0.225000X0.250000X-0.225000X0.250000X0.225000X-0.250000X0.225000X-0.250000X-0.225000X0*%
%TD*%
%TA.AperFunction,SMDPad,CuDef*%
%ADD33RoundRect,0.150000X0.150000X-0.512500X0.150000X0.512500X-0.150000X0.512500X-0.150000X-0.512500X0*%
%TD*%
%TA.AperFunction,SMDPad,CuDef*%
%ADD34RoundRect,0.225000X0.225000X0.250000X-0.225000X0.250000X-0.225000X-0.250000X0.225000X-0.250000X0*%
%TD*%
%TA.AperFunction,SMDPad,CuDef*%
%ADD35RoundRect,0.250000X0.650000X-1.000000X0.650000X1.000000X-0.650000X1.000000X-0.650000X-1.000000X0*%
%TD*%
%TA.AperFunction,SMDPad,CuDef*%
%ADD36RoundRect,0.200000X-0.275000X0.200000X-0.275000X-0.200000X0.275000X-0.200000X0.275000X0.200000X0*%
%TD*%
%TA.AperFunction,SMDPad,CuDef*%
%ADD37RoundRect,0.150000X-0.150000X-0.200000X0.150000X-0.200000X0.150000X0.200000X-0.150000X0.200000X0*%
%TD*%
%TA.AperFunction,SMDPad,CuDef*%
%ADD38RoundRect,0.150000X0.825000X0.150000X-0.825000X0.150000X-0.825000X-0.150000X0.825000X-0.150000X0*%
%TD*%
%TA.AperFunction,SMDPad,CuDef*%
%ADD39RoundRect,0.100000X0.637500X0.100000X-0.637500X0.100000X-0.637500X-0.100000X0.637500X-0.100000X0*%
%TD*%
%TA.AperFunction,SMDPad,CuDef*%
%ADD40RoundRect,0.225000X-0.225000X-0.375000X0.225000X-0.375000X0.225000X0.375000X-0.225000X0.375000X0*%
%TD*%
%TA.AperFunction,SMDPad,CuDef*%
%ADD41RoundRect,0.235000X1.465000X-0.940000X1.465000X0.940000X-1.465000X0.940000X-1.465000X-0.940000X0*%
%TD*%
%TA.AperFunction,ViaPad*%
%ADD42C,0.600000*%
%TD*%
%TA.AperFunction,ViaPad*%
%ADD43C,0.800000*%
%TD*%
%TA.AperFunction,ViaPad*%
%ADD44C,0.500000*%
%TD*%
%TA.AperFunction,Conductor*%
%ADD45C,0.250000*%
%TD*%
%TA.AperFunction,Conductor*%
%ADD46C,0.400000*%
%TD*%
%TA.AperFunction,Conductor*%
%ADD47C,0.300000*%
%TD*%
%TA.AperFunction,Conductor*%
%ADD48C,1.000000*%
%TD*%
G04 APERTURE END LIST*
D10*
%TO.P,J6,1,Pin_1*%
%TO.N,/T_NRST*%
X70275000Y-156925000D03*
D11*
%TO.P,J6,2,Pin_2*%
%TO.N,/SWCLK*%
X70275000Y-155675000D03*
%TO.P,J6,3,Pin_3*%
%TO.N,/SWDIO*%
X70275000Y-154425000D03*
%TO.P,J6,4,Pin_4*%
%TO.N,GND*%
X70275000Y-153175000D03*
%TD*%
%TO.P,J5,8,Pin_8*%
%TO.N,GND*%
X70275000Y-160950000D03*
%TO.P,J5,7,Pin_7*%
%TO.N,/FDCAN_TX*%
X70275000Y-162200000D03*
%TO.P,J5,6,Pin_6*%
%TO.N,/FDCAN_RX*%
X70275000Y-163450000D03*
%TO.P,J5,5,Pin_5*%
%TO.N,/SPI_MISO*%
X70275000Y-164700000D03*
%TO.P,J5,4,Pin_4*%
%TO.N,/SPI_MOSI*%
X70275000Y-165950000D03*
%TO.P,J5,3,Pin_3*%
%TO.N,/SPI_CLK*%
X70275000Y-167200000D03*
%TO.P,J5,2,Pin_2*%
%TO.N,/UART_TX*%
X70275000Y-168450000D03*
D10*
%TO.P,J5,1,Pin_1*%
%TO.N,/UART_RX*%
X70275000Y-169700000D03*
%TD*%
D12*
%TO.P,J4,1,Pin_1*%
%TO.N,GND*%
X42200000Y-177550000D03*
D13*
%TO.P,J4,2,Pin_2*%
%TO.N,VDC*%
X47200000Y-177550000D03*
%TD*%
D14*
%TO.P,H4,1,1*%
%TO.N,GND*%
X69700000Y-177700000D03*
%TD*%
D15*
%TO.P,U7,9,GNDPAD*%
%TO.N,GND*%
X41600000Y-165800000D03*
X41600000Y-164600000D03*
X41600000Y-163300000D03*
X41600000Y-162200000D03*
D16*
X41000000Y-164000000D03*
D15*
X40400000Y-165800000D03*
X40400000Y-164600000D03*
X40400000Y-163300000D03*
X40400000Y-162200000D03*
%TD*%
D17*
%TO.P,J1,1,Pin_1*%
%TO.N,/VS1*%
X54400000Y-142900000D03*
D18*
%TO.P,J1,2,Pin_2*%
%TO.N,/VS2*%
X50900000Y-142900000D03*
%TO.P,J1,3,Pin_3*%
%TO.N,/VS3*%
X47400000Y-142900000D03*
%TD*%
D19*
%TO.P,J3,S1,SHIELD*%
%TO.N,GND*%
X54190000Y-172670000D03*
D20*
X54190000Y-176850000D03*
D19*
X62830000Y-172670000D03*
D20*
X62830000Y-176850000D03*
%TD*%
D14*
%TO.P,H1,1,1*%
%TO.N,GND*%
X34300000Y-177700000D03*
%TD*%
%TO.P,H3,1,1*%
%TO.N,GND*%
X69800000Y-142300000D03*
%TD*%
%TO.P,H2,1,1*%
%TO.N,GND*%
X34200000Y-142300000D03*
%TD*%
D21*
%TO.P,R1,1*%
%TO.N,/M1_GH_A*%
X58975000Y-159750000D03*
%TO.P,R1,2*%
%TO.N,Net-(D4-A)*%
X60625000Y-159750000D03*
%TD*%
D22*
%TO.P,D8,1,K*%
%TO.N,/M1_GH_C*%
X39175000Y-152875000D03*
%TO.P,D8,2,A*%
%TO.N,Net-(D8-A)*%
X39175000Y-156175000D03*
%TD*%
D23*
%TO.P,D6,1,K*%
%TO.N,/M1_GH_B*%
X55600000Y-158125000D03*
%TO.P,D6,2,A*%
%TO.N,Net-(D6-A)*%
X52300000Y-158125000D03*
%TD*%
D24*
%TO.P,C21,1*%
%TO.N,+5V*%
X59700000Y-167250000D03*
%TO.P,C21,2*%
%TO.N,GND*%
X61250000Y-167250000D03*
%TD*%
D25*
%TO.P,U10,1,IN*%
%TO.N,+5V*%
X45350000Y-169062500D03*
%TO.P,U10,2,OUT*%
%TO.N,/VREF*%
X47250000Y-169062500D03*
%TO.P,U10,3,GND*%
%TO.N,GND*%
X46300000Y-170937500D03*
%TD*%
D26*
%TO.P,R9,1*%
%TO.N,/M1_SL_C*%
X43800000Y-148600000D03*
%TO.P,R9,2*%
%TO.N,GND*%
X37875000Y-148600000D03*
%TD*%
D27*
%TO.P,D3,1,A*%
%TO.N,GND*%
X39800000Y-170100000D03*
%TO.P,D3,2,K*%
%TO.N,Net-(D3-K)*%
X35800000Y-170100000D03*
%TD*%
D28*
%TO.P,C17,1*%
%TO.N,GND*%
X65875000Y-174825000D03*
%TO.P,C17,2*%
%TO.N,+5V*%
X65875000Y-170725000D03*
%TD*%
D24*
%TO.P,C27,1*%
%TO.N,+3.3V*%
X46425000Y-151390000D03*
%TO.P,C27,2*%
%TO.N,GND*%
X47975000Y-151390000D03*
%TD*%
D29*
%TO.P,U5,1,REF*%
%TO.N,GND*%
X52650000Y-152750000D03*
%TO.P,U5,2,GND*%
X52650000Y-152100000D03*
%TO.P,U5,3,V+*%
%TO.N,+3.3V*%
X52650000Y-151450000D03*
%TO.P,U5,4,+*%
%TO.N,/M1_SL_B*%
X54550000Y-151450000D03*
%TO.P,U5,5,-*%
%TO.N,GND*%
X54550000Y-152100000D03*
%TO.P,U5,6*%
%TO.N,Net-(U8A-+)*%
X54550000Y-152750000D03*
%TD*%
D24*
%TO.P,C22,1*%
%TO.N,+5V*%
X59700000Y-165660000D03*
%TO.P,C22,2*%
%TO.N,GND*%
X61250000Y-165660000D03*
%TD*%
D30*
%TO.P,R8,1*%
%TO.N,/M1_GL_C*%
X46000000Y-148600000D03*
%TO.P,R8,2*%
%TO.N,Net-(D9-A)*%
X46000000Y-146950000D03*
%TD*%
D31*
%TO.P,R20,1*%
%TO.N,/Ibeta*%
X42925000Y-154500000D03*
%TO.P,R20,2*%
%TO.N,Net-(U8B--)*%
X41275000Y-154500000D03*
%TD*%
D29*
%TO.P,U6,1,REF*%
%TO.N,GND*%
X42250000Y-152750000D03*
%TO.P,U6,2,GND*%
X42250000Y-152100000D03*
%TO.P,U6,3,V+*%
%TO.N,+3.3V*%
X42250000Y-151450000D03*
%TO.P,U6,4,+*%
%TO.N,/M1_SL_C*%
X44150000Y-151450000D03*
%TO.P,U6,5,-*%
%TO.N,GND*%
X44150000Y-152100000D03*
%TO.P,U6,6*%
%TO.N,Net-(U8B-+)*%
X44150000Y-152750000D03*
%TD*%
D32*
%TO.P,C5,1*%
%TO.N,+5V*%
X33600000Y-157775000D03*
%TO.P,C5,2*%
%TO.N,GND*%
X33600000Y-156225000D03*
%TD*%
D33*
%TO.P,U9,1,IN*%
%TO.N,+5V*%
X37150000Y-157637500D03*
%TO.P,U9,2,GND*%
%TO.N,GND*%
X36200000Y-157637500D03*
%TO.P,U9,3,EN*%
%TO.N,+5V*%
X35250000Y-157637500D03*
%TO.P,U9,4,NC*%
%TO.N,unconnected-(U9-NC-Pad4)*%
X35250000Y-155362500D03*
%TO.P,U9,5,OUT*%
%TO.N,+3.3V*%
X37150000Y-155362500D03*
%TD*%
D34*
%TO.P,C8,1*%
%TO.N,+3.3V*%
X35075000Y-153600000D03*
%TO.P,C8,2*%
%TO.N,GND*%
X33525000Y-153600000D03*
%TD*%
D21*
%TO.P,R19,1*%
%TO.N,GND*%
X41275000Y-156000000D03*
%TO.P,R19,2*%
%TO.N,Net-(U8B--)*%
X42925000Y-156000000D03*
%TD*%
D26*
%TO.P,R3,1*%
%TO.N,/M1_SL_A*%
X63462500Y-148600000D03*
%TO.P,R3,2*%
%TO.N,GND*%
X57537500Y-148600000D03*
%TD*%
D35*
%TO.P,D1,1,A*%
%TO.N,Net-(D1-A)*%
X58500000Y-176100000D03*
%TO.P,D1,2,K*%
%TO.N,+5V*%
X58500000Y-172100000D03*
%TD*%
D34*
%TO.P,C7,1*%
%TO.N,+3.3V*%
X35075000Y-152100000D03*
%TO.P,C7,2*%
%TO.N,GND*%
X33525000Y-152100000D03*
%TD*%
D36*
%TO.P,R7,1*%
%TO.N,/M1_GH_C*%
X37025000Y-151925000D03*
%TO.P,R7,2*%
%TO.N,Net-(D8-A)*%
X37025000Y-153575000D03*
%TD*%
D37*
%TO.P,D2,1,K*%
%TO.N,Net-(D2-K)*%
X42050000Y-160825000D03*
%TO.P,D2,2,A*%
%TO.N,+5V*%
X40650000Y-160825000D03*
%TD*%
D38*
%TO.P,U8,1*%
%TO.N,/Ialpha*%
X50075000Y-154595000D03*
%TO.P,U8,2,-*%
%TO.N,Net-(U8A--)*%
X50075000Y-155865000D03*
%TO.P,U8,3,+*%
%TO.N,Net-(U8A-+)*%
X50075000Y-157135000D03*
%TO.P,U8,4,V-*%
%TO.N,GND*%
X50075000Y-158405000D03*
%TO.P,U8,5,+*%
%TO.N,Net-(U8B-+)*%
X45125000Y-158405000D03*
%TO.P,U8,6,-*%
%TO.N,Net-(U8B--)*%
X45125000Y-157135000D03*
%TO.P,U8,7*%
%TO.N,/Ibeta*%
X45125000Y-155865000D03*
%TO.P,U8,8,V+*%
%TO.N,+3.3V*%
X45125000Y-154595000D03*
%TD*%
D30*
%TO.P,R5,1*%
%TO.N,/M1_GL_B*%
X55715000Y-148425000D03*
%TO.P,R5,2*%
%TO.N,Net-(D7-A)*%
X55715000Y-146775000D03*
%TD*%
D24*
%TO.P,C26,1*%
%TO.N,+3.3V*%
X46425000Y-152900000D03*
%TO.P,C26,2*%
%TO.N,GND*%
X47975000Y-152900000D03*
%TD*%
D39*
%TO.P,U4,1,HIN1*%
%TO.N,/HIN_1*%
X55662500Y-160875000D03*
%TO.P,U4,2,HIN2*%
%TO.N,/HIN_2*%
X55662500Y-161525000D03*
%TO.P,U4,3,HIN3*%
%TO.N,/HIN_3*%
X55662500Y-162175000D03*
%TO.P,U4,4,LIN1*%
%TO.N,/LIN_1*%
X55662500Y-162825000D03*
%TO.P,U4,5,LIN2*%
%TO.N,/LIN_2*%
X55662500Y-163475000D03*
%TO.P,U4,6,LIN3*%
%TO.N,/LIN_3*%
X55662500Y-164125000D03*
%TO.P,U4,7,VCC*%
%TO.N,+5V*%
X55662500Y-164775000D03*
%TO.P,U4,8,GND*%
%TO.N,GND*%
X55662500Y-165425000D03*
%TO.P,U4,9,LO3*%
%TO.N,/M1_GL_C*%
X55662500Y-166075000D03*
%TO.P,U4,10,LO2*%
%TO.N,/M1_GL_B*%
X55662500Y-166725000D03*
%TO.P,U4,11,LO1*%
%TO.N,/M1_GL_A*%
X49937500Y-166725000D03*
%TO.P,U4,12,VS3*%
%TO.N,/VS3*%
X49937500Y-166075000D03*
%TO.P,U4,13,HO3*%
%TO.N,/M1_GH_C*%
X49937500Y-165425000D03*
%TO.P,U4,14,VB3*%
%TO.N,Net-(D10-K)*%
X49937500Y-164775000D03*
%TO.P,U4,15,VS2*%
%TO.N,/VS2*%
X49937500Y-164125000D03*
%TO.P,U4,16,HO2*%
%TO.N,/M1_GH_B*%
X49937500Y-163475000D03*
%TO.P,U4,17,VB2*%
%TO.N,Net-(D2-K)*%
X49937500Y-162825000D03*
%TO.P,U4,18,VS1*%
%TO.N,/VS1*%
X49937500Y-162175000D03*
%TO.P,U4,19,HO1*%
%TO.N,/M1_GH_A*%
X49937500Y-161525000D03*
%TO.P,U4,20,VB1*%
%TO.N,Net-(D11-K)*%
X49937500Y-160875000D03*
%TD*%
D34*
%TO.P,C28,1*%
%TO.N,+3.3V*%
X51175000Y-151400000D03*
%TO.P,C28,2*%
%TO.N,GND*%
X49625000Y-151400000D03*
%TD*%
D30*
%TO.P,R2,1*%
%TO.N,/M1_GL_A*%
X65400000Y-148600000D03*
%TO.P,R2,2*%
%TO.N,Net-(D5-A)*%
X65400000Y-146950000D03*
%TD*%
D36*
%TO.P,R21,1*%
%TO.N,GND*%
X53900000Y-154275000D03*
%TO.P,R21,2*%
%TO.N,Net-(U8A--)*%
X53900000Y-155925000D03*
%TD*%
D37*
%TO.P,D10,1,K*%
%TO.N,Net-(D10-K)*%
X41975000Y-167375000D03*
%TO.P,D10,2,A*%
%TO.N,+5V*%
X40575000Y-167375000D03*
%TD*%
D34*
%TO.P,C29,1*%
%TO.N,+3.3V*%
X40700000Y-151375000D03*
%TO.P,C29,2*%
%TO.N,GND*%
X39150000Y-151375000D03*
%TD*%
D24*
%TO.P,C6,1*%
%TO.N,+5V*%
X38675000Y-157775000D03*
%TO.P,C6,2*%
%TO.N,GND*%
X40225000Y-157775000D03*
%TD*%
D37*
%TO.P,D11,1,K*%
%TO.N,Net-(D11-K)*%
X42025000Y-159375000D03*
%TO.P,D11,2,A*%
%TO.N,+5V*%
X40625000Y-159375000D03*
%TD*%
D26*
%TO.P,R6,1*%
%TO.N,/M1_SL_B*%
X53662500Y-148600000D03*
%TO.P,R6,2*%
%TO.N,GND*%
X47737500Y-148600000D03*
%TD*%
D36*
%TO.P,R22,1*%
%TO.N,/Ialpha*%
X52300000Y-154275000D03*
%TO.P,R22,2*%
%TO.N,Net-(U8A--)*%
X52300000Y-155925000D03*
%TD*%
D40*
%TO.P,D4,1,K*%
%TO.N,/M1_GH_A*%
X58050000Y-157800000D03*
%TO.P,D4,2,A*%
%TO.N,Net-(D4-A)*%
X61350000Y-157800000D03*
%TD*%
D41*
%TO.P,L1,1,1*%
%TO.N,Net-(D3-K)*%
X36300000Y-166525000D03*
%TO.P,L1,2,2*%
%TO.N,+5V*%
X36300000Y-160475000D03*
%TD*%
D42*
%TO.N,GND*%
X35010000Y-148200000D03*
X53250000Y-165975002D03*
X41175000Y-169500000D03*
X39125000Y-169450000D03*
X52450000Y-166000000D03*
X50880000Y-172090000D03*
X51820000Y-172160000D03*
X39775000Y-169475000D03*
X38650000Y-159170000D03*
X53950000Y-161300000D03*
X34010000Y-148180000D03*
X35470000Y-171560000D03*
X36280000Y-171560000D03*
X40550000Y-170175000D03*
X40500000Y-169475000D03*
X53925000Y-165975000D03*
X34020000Y-171430000D03*
X44740000Y-171420000D03*
X43790000Y-171390000D03*
X34710000Y-171550000D03*
X51750000Y-166025000D03*
X39800000Y-170175000D03*
X42940000Y-171400000D03*
X39410000Y-159150000D03*
%TO.N,+5V*%
X55400000Y-174600000D03*
X40625010Y-159374990D03*
X33300000Y-172200000D03*
X34500000Y-160900000D03*
X65700000Y-172200000D03*
%TO.N,Net-(D11-K)*%
X56450000Y-155850000D03*
X46525000Y-159525000D03*
%TO.N,Net-(D3-K)*%
X34625000Y-167125000D03*
D43*
X37800000Y-165900000D03*
D44*
X35025000Y-166675000D03*
D42*
%TO.N,Net-(D2-K)*%
X46775000Y-155449998D03*
X44984072Y-164498725D03*
%TO.N,/VS2*%
X45586820Y-166101918D03*
X46775000Y-153899972D03*
%TO.N,/VS1*%
X55410000Y-155540000D03*
%TO.N,/VS3*%
X38399982Y-154440018D03*
X48061822Y-167560934D03*
%TO.N,Net-(D1-A)*%
X58400000Y-175300000D03*
X58400000Y-176000000D03*
%TO.N,+3.3V*%
X42725000Y-168025000D03*
X49825000Y-159800000D03*
X46400000Y-151400000D03*
X56250000Y-168275000D03*
X65600000Y-166700000D03*
X51950000Y-150775000D03*
X35300000Y-150900000D03*
X40800000Y-150900000D03*
%TO.N,Net-(D10-K)*%
X36490000Y-156450000D03*
X44275000Y-166901009D03*
%TO.N,/M1_SL_A*%
X63500000Y-149475000D03*
X63500000Y-148700000D03*
X63500000Y-148025000D03*
X63525000Y-147300000D03*
%TO.N,/VREF*%
X47687500Y-171837500D03*
X51050000Y-159574990D03*
%TO.N,/M1_SL_B*%
X53725000Y-149325000D03*
X53725000Y-147275000D03*
X53725000Y-147950000D03*
X53725000Y-148625000D03*
%TO.N,/M1_SL_C*%
X43875000Y-147450000D03*
X43925000Y-148850000D03*
X43900000Y-148125000D03*
X43925000Y-149575000D03*
%TO.N,Net-(D4-A)*%
X57902500Y-155710032D03*
%TO.N,/M1_GH_A*%
X56975000Y-158250000D03*
X54050004Y-157925000D03*
%TO.N,/M1_GL_A*%
X65400000Y-149325000D03*
X55717905Y-167650000D03*
%TO.N,/M1_GH_B*%
X46675000Y-157300000D03*
X55350012Y-158250000D03*
%TO.N,/M1_GL_B*%
X55700000Y-149325000D03*
X56850000Y-166999998D03*
%TO.N,/M1_GH_C*%
X37050000Y-151900000D03*
X47395835Y-167117689D03*
%TO.N,/M1_GL_C*%
X45975000Y-148600000D03*
X55275000Y-159475000D03*
%TO.N,/Ibeta*%
X57868650Y-161955832D03*
X44855427Y-155435688D03*
%TO.N,/Ialpha*%
X57180134Y-162655000D03*
X55324630Y-153946516D03*
%TO.N,Net-(D5-A)*%
X65400000Y-145950000D03*
%TO.N,Net-(D6-A)*%
X52425000Y-158175000D03*
X48124644Y-155975000D03*
%TO.N,Net-(D7-A)*%
X55725000Y-146000000D03*
%TO.N,Net-(D8-A)*%
X38250000Y-156200000D03*
%TO.N,Net-(D9-A)*%
X46025000Y-147000000D03*
%TO.N,/FDCAN_TX*%
X62375000Y-165100000D03*
X45100000Y-165350000D03*
%TO.N,/FDCAN_RX*%
X46270380Y-165582857D03*
X62329530Y-166039718D03*
%TO.N,/SPI_CLK*%
X51150006Y-170389248D03*
%TO.N,/SPI_MISO*%
X51675000Y-169750000D03*
%TO.N,/SPI_MOSI*%
X52100000Y-169050000D03*
%TO.N,/UART_TX*%
X63200000Y-166950000D03*
X52775000Y-169950000D03*
%TO.N,/UART_RX*%
X63175000Y-168225000D03*
X54012995Y-170125000D03*
%TO.N,/HIN_1*%
X45797495Y-163163144D03*
X55950000Y-160100000D03*
%TO.N,/HIN_2*%
X46500000Y-163775000D03*
X56750000Y-159500000D03*
%TO.N,/HIN_3*%
X45602757Y-163938568D03*
X57328133Y-161314929D03*
%TO.N,/LIN_1*%
X47299848Y-160359477D03*
X57804014Y-163205832D03*
%TO.N,/LIN_2*%
X58600000Y-163325000D03*
X46602951Y-161786836D03*
%TO.N,/LIN_3*%
X45825000Y-162075000D03*
X57454089Y-164899998D03*
%TO.N,Net-(U8A-+)*%
X50075096Y-157135000D03*
X54700000Y-152800000D03*
%TO.N,Net-(U8B-+)*%
X45200000Y-152450000D03*
X42925000Y-157769356D03*
%TO.N,/SWDIO*%
X48150000Y-171050000D03*
%TO.N,/SWCLK*%
X50250000Y-170925000D03*
X48825000Y-167950000D03*
%TD*%
D45*
%TO.N,/UART_RX*%
X68950000Y-169175000D02*
X69475000Y-169700000D01*
X64125000Y-169175000D02*
X68950000Y-169175000D01*
X63175000Y-168225000D02*
X64125000Y-169175000D01*
X69475000Y-169700000D02*
X70275000Y-169700000D01*
%TO.N,/UART_TX*%
X70225000Y-168400000D02*
X70275000Y-168450000D01*
X64650000Y-168400000D02*
X70225000Y-168400000D01*
X63200000Y-166950000D02*
X64650000Y-168400000D01*
%TO.N,GND*%
X56400000Y-165425000D02*
X57475000Y-166500000D01*
X57475000Y-166500000D02*
X57475000Y-169385000D01*
X45200000Y-151384620D02*
X45200000Y-150700000D01*
X35466116Y-156350000D02*
X33725000Y-156350000D01*
X44150000Y-152100000D02*
X42250000Y-152100000D01*
X40225000Y-152450000D02*
X40225000Y-154950000D01*
X46843750Y-149493750D02*
X47737500Y-148600000D01*
X46406250Y-149493750D02*
X46843750Y-149493750D01*
X41600000Y-162200000D02*
X41300000Y-161900000D01*
X41300000Y-158850000D02*
X40225000Y-157775000D01*
X33725000Y-156350000D02*
X33600000Y-156225000D01*
X44484620Y-152100000D02*
X45200000Y-151384620D01*
X56625000Y-152100000D02*
X54550000Y-152100000D01*
X57537500Y-151187500D02*
X56625000Y-152100000D01*
X41300000Y-161900000D02*
X41300000Y-158850000D01*
X45200000Y-150700000D02*
X46406250Y-149493750D01*
X40225000Y-154950000D02*
X41275000Y-156000000D01*
X36200000Y-157637500D02*
X36200000Y-157083884D01*
X57537500Y-148600000D02*
X57537500Y-151187500D01*
X44150000Y-152100000D02*
X44484620Y-152100000D01*
D46*
X39800000Y-165200000D02*
X39800000Y-170100000D01*
D45*
X39150000Y-151375000D02*
X40225000Y-152450000D01*
D46*
X40400000Y-164600000D02*
X39800000Y-165200000D01*
D45*
X57475000Y-169385000D02*
X54190000Y-172670000D01*
X36200000Y-157083884D02*
X35466116Y-156350000D01*
X55662500Y-165425000D02*
X56400000Y-165425000D01*
X54550000Y-152100000D02*
X52650000Y-152100000D01*
%TO.N,+5V*%
X57712973Y-165524998D02*
X57737971Y-165500000D01*
X57737971Y-165500000D02*
X59390000Y-165500000D01*
X61400000Y-175000000D02*
X62900000Y-175000000D01*
X40625000Y-159375000D02*
X40625010Y-159374990D01*
X36650000Y-160825000D02*
X36300000Y-160475000D01*
X40163174Y-172200000D02*
X33300000Y-172200000D01*
X40575000Y-167750000D02*
X40575000Y-167375000D01*
X42550000Y-169813174D02*
X40163174Y-172200000D01*
D47*
X38800000Y-157775000D02*
X37287500Y-157775000D01*
D45*
X42550000Y-169062500D02*
X41887500Y-169062500D01*
X57125000Y-165500000D02*
X57170207Y-165500000D01*
X41887500Y-169062500D02*
X40575000Y-167750000D01*
D46*
X33225000Y-172125000D02*
X33300000Y-172200000D01*
X59700000Y-165660000D02*
X59700000Y-170900000D01*
D45*
X45350000Y-169062500D02*
X42550000Y-169062500D01*
D46*
X65875000Y-170725000D02*
X59875000Y-170725000D01*
D45*
X58500000Y-172100000D02*
X61400000Y-175000000D01*
X57170207Y-165500000D02*
X57195205Y-165524998D01*
X56400000Y-164775000D02*
X57125000Y-165500000D01*
D46*
X33225000Y-163550000D02*
X33225000Y-172125000D01*
X58500000Y-172100000D02*
X56000000Y-174600000D01*
D45*
X40625000Y-160800000D02*
X40650000Y-160825000D01*
D47*
X33600000Y-157775000D02*
X35112500Y-157775000D01*
D45*
X57195205Y-165524998D02*
X57712973Y-165524998D01*
X40650000Y-160825000D02*
X36650000Y-160825000D01*
X55662500Y-164775000D02*
X56400000Y-164775000D01*
D47*
X36300000Y-160475000D02*
X33600000Y-157775000D01*
D45*
X40625000Y-159375000D02*
X40625000Y-160800000D01*
D47*
X37150000Y-159625000D02*
X37150000Y-157637500D01*
D46*
X36300000Y-160475000D02*
X33225000Y-163550000D01*
X56000000Y-174600000D02*
X55400000Y-174600000D01*
X59875000Y-170725000D02*
X58500000Y-172100000D01*
D45*
X42550000Y-169062500D02*
X42550000Y-169813174D01*
D46*
X59700000Y-170900000D02*
X58500000Y-172100000D01*
D45*
X62900000Y-175000000D02*
X65700000Y-172200000D01*
X59390000Y-165500000D02*
X59465000Y-165425000D01*
%TO.N,Net-(D11-K)*%
X42175000Y-159525000D02*
X42025000Y-159375000D01*
X46525000Y-159525000D02*
X42175000Y-159525000D01*
X47850000Y-159525000D02*
X46525000Y-159525000D01*
X49200000Y-160875000D02*
X47850000Y-159525000D01*
X49937500Y-160875000D02*
X49200000Y-160875000D01*
D48*
%TO.N,Net-(D3-K)*%
X36300000Y-166525000D02*
X36300000Y-169600000D01*
X36300000Y-169600000D02*
X35800000Y-170100000D01*
D45*
%TO.N,Net-(D2-K)*%
X46650000Y-160800000D02*
X42075000Y-160800000D01*
X49937500Y-162825000D02*
X49200000Y-162825000D01*
X48462500Y-162612500D02*
X46650000Y-160800000D01*
X45060347Y-164575000D02*
X46712500Y-164575000D01*
X42075000Y-160800000D02*
X42050000Y-160825000D01*
X48462500Y-162825000D02*
X48462500Y-162612500D01*
X46712500Y-164575000D02*
X48462500Y-162825000D01*
X44974500Y-164508297D02*
X44984072Y-164498725D01*
X48462500Y-162825000D02*
X49937500Y-162825000D01*
X44984072Y-164498725D02*
X45060347Y-164575000D01*
X44974500Y-164614866D02*
X44974500Y-164508297D01*
%TO.N,/VS2*%
X46575000Y-166350000D02*
X45834902Y-166350000D01*
X45834902Y-166350000D02*
X45586820Y-166101918D01*
X48800000Y-164125000D02*
X46575000Y-166350000D01*
X49937500Y-164125000D02*
X48800000Y-164125000D01*
%TO.N,/VS1*%
X49937500Y-162175000D02*
X50708884Y-162175000D01*
X54700000Y-156250000D02*
X55410000Y-155540000D01*
X50708884Y-162175000D02*
X54700000Y-158183884D01*
X54700000Y-158183884D02*
X54700000Y-156250000D01*
%TO.N,/VS3*%
X48061822Y-167213178D02*
X48061822Y-167560934D01*
X49937500Y-166075000D02*
X49200000Y-166075000D01*
X49200000Y-166075000D02*
X48061822Y-167213178D01*
%TO.N,+3.3V*%
X44825000Y-153725000D02*
X44825000Y-154295000D01*
X46425000Y-152900000D02*
X45650000Y-152900000D01*
X46400000Y-151400000D02*
X46425000Y-152900000D01*
D47*
X37150000Y-155190000D02*
X35560000Y-153600000D01*
D45*
X51175000Y-151400000D02*
X51800000Y-150775000D01*
X35075000Y-151125000D02*
X35300000Y-150900000D01*
X51175000Y-151400000D02*
X52600000Y-151400000D01*
D47*
X35560000Y-153600000D02*
X35075000Y-153600000D01*
D45*
X35075000Y-152100000D02*
X35075000Y-151125000D01*
D47*
X35075000Y-152100000D02*
X35075000Y-153600000D01*
D45*
X40700000Y-151375000D02*
X40700000Y-152800000D01*
X44650000Y-153550000D02*
X44825000Y-153725000D01*
X40700000Y-151375000D02*
X42175000Y-151375000D01*
X40700000Y-151000000D02*
X40800000Y-150900000D01*
D47*
X37150000Y-155362500D02*
X37150000Y-155190000D01*
D45*
X41450000Y-153550000D02*
X44650000Y-153550000D01*
X40700000Y-152800000D02*
X41450000Y-153550000D01*
X45650000Y-152900000D02*
X44825000Y-153725000D01*
X44825000Y-154295000D02*
X45125000Y-154595000D01*
X40700000Y-151375000D02*
X40700000Y-151000000D01*
X51800000Y-150775000D02*
X51950000Y-150775000D01*
%TO.N,Net-(D10-K)*%
X43801009Y-167375000D02*
X44275000Y-166901009D01*
X48854640Y-164775000D02*
X46728631Y-166901009D01*
X46728631Y-166901009D02*
X44275000Y-166901009D01*
X49937500Y-164775000D02*
X48854640Y-164775000D01*
X41975000Y-167375000D02*
X43801009Y-167375000D01*
%TO.N,/VREF*%
X47250000Y-169062500D02*
X47250000Y-171400000D01*
X47250000Y-171400000D02*
X47687500Y-171837500D01*
%TO.N,/M1_SL_B*%
X53662500Y-150562500D02*
X54550000Y-151450000D01*
X53662500Y-149387500D02*
X53662500Y-150562500D01*
%TO.N,/M1_SL_C*%
X43900000Y-149950000D02*
X43900000Y-151200000D01*
X43900000Y-151200000D02*
X44150000Y-151450000D01*
%TO.N,Net-(D4-A)*%
X61300000Y-157850000D02*
X60500000Y-158650000D01*
X61325000Y-157850000D02*
X61300000Y-157850000D01*
X58217468Y-156025000D02*
X57902500Y-155710032D01*
X61350000Y-157800000D02*
X61325000Y-157825000D01*
X61350000Y-157800000D02*
X59575000Y-156025000D01*
X61325000Y-157825000D02*
X61325000Y-157850000D01*
X59575000Y-156025000D02*
X58217468Y-156025000D01*
X60500000Y-158650000D02*
X60500000Y-159625000D01*
%TO.N,/M1_GH_A*%
X58975000Y-158725000D02*
X58050000Y-157800000D01*
X57425000Y-157800000D02*
X56975000Y-158250000D01*
X58050000Y-157800000D02*
X57425000Y-157800000D01*
X58975000Y-159750000D02*
X58975000Y-158725000D01*
X50675000Y-161525000D02*
X54050004Y-158149996D01*
X54050004Y-158149996D02*
X54050004Y-157925000D01*
X49937500Y-161525000D02*
X50675000Y-161525000D01*
%TO.N,/M1_GL_A*%
X49937500Y-166725000D02*
X50862500Y-167650000D01*
X65400000Y-148600000D02*
X65400000Y-149325000D01*
X50862500Y-167650000D02*
X55717905Y-167650000D01*
%TO.N,/M1_GH_B*%
X49937500Y-163475000D02*
X50675000Y-163475000D01*
X50675000Y-163475000D02*
X51000000Y-163150000D01*
X51000000Y-162600012D02*
X55350012Y-158250000D01*
X55475012Y-158125000D02*
X55350012Y-158250000D01*
X55600000Y-158125000D02*
X55475012Y-158125000D01*
X51000000Y-163150000D02*
X51000000Y-162600012D01*
%TO.N,/M1_GL_B*%
X56575002Y-166725000D02*
X56850000Y-166999998D01*
X55715000Y-149310000D02*
X55700000Y-149325000D01*
X55715000Y-148425000D02*
X55715000Y-149310000D01*
X55662500Y-166725000D02*
X56575002Y-166725000D01*
%TO.N,/M1_GH_C*%
X38025000Y-152875000D02*
X37050000Y-151900000D01*
X39175000Y-152875000D02*
X38025000Y-152875000D01*
X49088524Y-165425000D02*
X47395835Y-167117689D01*
X49937500Y-165425000D02*
X49088524Y-165425000D01*
%TO.N,/M1_GL_C*%
X54600000Y-165750000D02*
X54600000Y-160125000D01*
X55275000Y-159450000D02*
X55275000Y-159450000D01*
X55250000Y-159475000D02*
X55275000Y-159475000D01*
X55662500Y-166075000D02*
X54925000Y-166075000D01*
X55275000Y-159475000D02*
X55275000Y-159450000D01*
X54925000Y-166075000D02*
X54600000Y-165750000D01*
X54600000Y-160125000D02*
X55250000Y-159475000D01*
D47*
%TO.N,Net-(U8B--)*%
X41425000Y-154500000D02*
X42925000Y-156000000D01*
X45125000Y-157135000D02*
X44060000Y-157135000D01*
X44060000Y-157135000D02*
X42925000Y-156000000D01*
%TO.N,/Ibeta*%
X42925000Y-154500000D02*
X43325000Y-154500000D01*
X43325000Y-154500000D02*
X44642405Y-155817405D01*
D45*
%TO.N,Net-(U8A--)*%
X53900000Y-155925000D02*
X50135000Y-155925000D01*
%TO.N,/Ialpha*%
X50075000Y-154595000D02*
X51980000Y-154595000D01*
X55100000Y-153875000D02*
X55253114Y-153875000D01*
X55253114Y-153875000D02*
X55324630Y-153946516D01*
X52300000Y-154275000D02*
X53025000Y-153550000D01*
X55171516Y-153946516D02*
X55324630Y-153946516D01*
X55100000Y-153875000D02*
X55171516Y-153946516D01*
X53025000Y-153550000D02*
X54775000Y-153550000D01*
X51980000Y-154595000D02*
X52300000Y-154275000D01*
X54775000Y-153550000D02*
X55100000Y-153875000D01*
%TO.N,Net-(D5-A)*%
X65400000Y-146950000D02*
X65400000Y-145950000D01*
%TO.N,Net-(D7-A)*%
X55725000Y-146000000D02*
X55600000Y-146000000D01*
X55725000Y-146125000D02*
X55725000Y-146000000D01*
X55600000Y-146000000D02*
X55700000Y-146100000D01*
X55715000Y-146775000D02*
X55715000Y-146115000D01*
X55715000Y-146115000D02*
X55725000Y-146125000D01*
%TO.N,Net-(D8-A)*%
X37775000Y-155875000D02*
X38075000Y-156175000D01*
X38075000Y-156175000D02*
X38225000Y-156175000D01*
X37025000Y-153575000D02*
X37775000Y-154325000D01*
X38225000Y-156175000D02*
X38250000Y-156200000D01*
X38250000Y-156200000D02*
X38275000Y-156175000D01*
X38275000Y-156175000D02*
X39175000Y-156175000D01*
X37775000Y-154325000D02*
X37775000Y-155875000D01*
%TO.N,/HIN_1*%
X55662500Y-160875000D02*
X55950000Y-160587500D01*
X55950000Y-160587500D02*
X55950000Y-160100000D01*
%TO.N,/HIN_2*%
X56351042Y-161525000D02*
X55662500Y-161525000D01*
X56750000Y-159500000D02*
X56725000Y-159525000D01*
X56725000Y-159525000D02*
X56725000Y-161151042D01*
X56725000Y-161151042D02*
X56351042Y-161525000D01*
%TO.N,/HIN_3*%
X56468062Y-162175000D02*
X57328133Y-161314929D01*
X55662500Y-162175000D02*
X56468062Y-162175000D01*
%TO.N,/LIN_1*%
X55662500Y-162825000D02*
X56400000Y-162825000D01*
X56400000Y-162825000D02*
X56950000Y-163375000D01*
X57634846Y-163375000D02*
X57804014Y-163205832D01*
X56950000Y-163375000D02*
X57634846Y-163375000D01*
%TO.N,/LIN_2*%
X56400000Y-163475000D02*
X56800000Y-163875000D01*
X56800000Y-163875000D02*
X58050000Y-163875000D01*
X55662500Y-163475000D02*
X56400000Y-163475000D01*
X58050000Y-163875000D02*
X58600000Y-163325000D01*
%TO.N,/LIN_3*%
X57174998Y-164899998D02*
X57454089Y-164899998D01*
X56400000Y-164125000D02*
X57174998Y-164899998D01*
X55662500Y-164125000D02*
X56400000Y-164125000D01*
D47*
%TO.N,Net-(U8A-+)*%
X54792704Y-152792704D02*
X54800000Y-152800000D01*
X54700000Y-152700000D02*
X54750000Y-152750000D01*
X54800000Y-152800000D02*
X54700000Y-152800000D01*
D45*
X50075000Y-157135000D02*
X50075096Y-157135000D01*
%TO.N,Net-(U8B-+)*%
X43560644Y-158405000D02*
X42925000Y-157769356D01*
X45125000Y-158405000D02*
X43560644Y-158405000D01*
X44150000Y-152750000D02*
X44484620Y-152750000D01*
X44484620Y-152750000D02*
X44784620Y-152450000D01*
X44784620Y-152450000D02*
X45200000Y-152450000D01*
%TO.N,/SWCLK*%
X48825000Y-169500000D02*
X50250000Y-170925000D01*
X48825000Y-167950000D02*
X48825000Y-169500000D01*
%TD*%
%TA.AperFunction,Conductor*%
%TO.N,/M1_SL_C*%
G36*
X44468039Y-146994685D02*
G01*
X44513794Y-147047489D01*
X44525000Y-147099000D01*
X44525000Y-150226000D01*
X44505315Y-150293039D01*
X44452511Y-150338794D01*
X44401000Y-150350000D01*
X43424000Y-150350000D01*
X43356961Y-150330315D01*
X43311206Y-150277511D01*
X43300000Y-150226000D01*
X43300000Y-147099000D01*
X43319685Y-147031961D01*
X43372489Y-146986206D01*
X43424000Y-146975000D01*
X44401000Y-146975000D01*
X44468039Y-146994685D01*
G37*
%TD.AperFunction*%
%TD*%
%TA.AperFunction,Conductor*%
%TO.N,GND*%
G36*
X63875063Y-171195185D02*
G01*
X63920818Y-171247989D01*
X63928268Y-171275143D01*
X63929127Y-171274941D01*
X63930910Y-171282488D01*
X63981202Y-171417328D01*
X63981203Y-171417330D01*
X63981204Y-171417331D01*
X64067453Y-171532547D01*
X64147380Y-171592379D01*
X64182669Y-171618796D01*
X64182671Y-171618797D01*
X64222966Y-171633826D01*
X64317516Y-171669091D01*
X64377126Y-171675500D01*
X65157126Y-171675500D01*
X65224165Y-171695185D01*
X65269920Y-171747989D01*
X65279864Y-171817147D01*
X65255502Y-171874984D01*
X65233451Y-171903722D01*
X65219137Y-171922377D01*
X65163671Y-172056287D01*
X65163670Y-172056292D01*
X65146573Y-172186150D01*
X65118306Y-172250047D01*
X65111315Y-172257645D01*
X62780781Y-174588181D01*
X62719458Y-174621666D01*
X62693100Y-174624500D01*
X61606900Y-174624500D01*
X61539861Y-174604815D01*
X61519219Y-174588181D01*
X60131038Y-173200000D01*
X60819534Y-173200000D01*
X60839312Y-173350234D01*
X60839313Y-173350236D01*
X60897302Y-173490233D01*
X60989549Y-173610451D01*
X61109767Y-173702698D01*
X61249764Y-173760687D01*
X61362280Y-173775500D01*
X61362287Y-173775500D01*
X61437713Y-173775500D01*
X61437720Y-173775500D01*
X61550236Y-173760687D01*
X61690233Y-173702698D01*
X61810451Y-173610451D01*
X61902698Y-173490233D01*
X61960687Y-173350236D01*
X61980466Y-173200000D01*
X61960687Y-173049764D01*
X61902698Y-172909767D01*
X61810451Y-172789549D01*
X61690233Y-172697302D01*
X61690229Y-172697300D01*
X61619731Y-172668099D01*
X61550236Y-172639313D01*
X61536171Y-172637461D01*
X61437727Y-172624500D01*
X61437720Y-172624500D01*
X61362280Y-172624500D01*
X61362272Y-172624500D01*
X61249764Y-172639313D01*
X61249763Y-172639313D01*
X61109770Y-172697300D01*
X61109767Y-172697301D01*
X61109767Y-172697302D01*
X60990676Y-172788684D01*
X60989549Y-172789549D01*
X60897300Y-172909770D01*
X60839313Y-173049763D01*
X60839312Y-173049765D01*
X60819534Y-173199999D01*
X60819534Y-173200000D01*
X60131038Y-173200000D01*
X59686818Y-172755780D01*
X59653333Y-172694457D01*
X59650499Y-172668099D01*
X59650499Y-171637965D01*
X59670184Y-171570926D01*
X59686814Y-171550288D01*
X59998205Y-171238896D01*
X60003373Y-171234277D01*
X60033970Y-171209879D01*
X60033970Y-171209878D01*
X60041238Y-171204083D01*
X60043305Y-171206676D01*
X60089124Y-171179398D01*
X60119970Y-171175500D01*
X63808024Y-171175500D01*
X63875063Y-171195185D01*
G37*
%TD.AperFunction*%
%TA.AperFunction,Conductor*%
G36*
X54143834Y-160089728D02*
G01*
X54199767Y-160131600D01*
X54224184Y-160197064D01*
X54224500Y-160205910D01*
X54224500Y-165698196D01*
X54221862Y-165723634D01*
X54219633Y-165734268D01*
X54219633Y-165734269D01*
X54219633Y-165734271D01*
X54224023Y-165769491D01*
X54224500Y-165777167D01*
X54224500Y-165781116D01*
X54228342Y-165804141D01*
X54235134Y-165858627D01*
X54237373Y-165866147D01*
X54239934Y-165873607D01*
X54239935Y-165873610D01*
X54258995Y-165908830D01*
X54266055Y-165921877D01*
X54290174Y-165971211D01*
X54294742Y-165977609D01*
X54299582Y-165983827D01*
X54339971Y-166021009D01*
X54622849Y-166303886D01*
X54638978Y-166323747D01*
X54644916Y-166332836D01*
X54644917Y-166332838D01*
X54661629Y-166345845D01*
X54702442Y-166402555D01*
X54706117Y-166472328D01*
X54696868Y-166498157D01*
X54684426Y-166523606D01*
X54684426Y-166523607D01*
X54674500Y-166591739D01*
X54674500Y-166858260D01*
X54684426Y-166926391D01*
X54684427Y-166926393D01*
X54724802Y-167008983D01*
X54735803Y-167031485D01*
X54767137Y-167062819D01*
X54800622Y-167124142D01*
X54795638Y-167193834D01*
X54753766Y-167249767D01*
X54688302Y-167274184D01*
X54679456Y-167274500D01*
X51069399Y-167274500D01*
X51002360Y-167254815D01*
X50981718Y-167238181D01*
X50919037Y-167175500D01*
X50897518Y-167153980D01*
X50864034Y-167092659D01*
X50869018Y-167022967D01*
X50873794Y-167011853D01*
X50915573Y-166926393D01*
X50925500Y-166858260D01*
X50925500Y-166591740D01*
X50915573Y-166523607D01*
X50881768Y-166454458D01*
X50870010Y-166385587D01*
X50881769Y-166345540D01*
X50883419Y-166342165D01*
X50915573Y-166276393D01*
X50925500Y-166208260D01*
X50925500Y-165941740D01*
X50915573Y-165873607D01*
X50881768Y-165804458D01*
X50870010Y-165735587D01*
X50881769Y-165695540D01*
X50915573Y-165626393D01*
X50925500Y-165558260D01*
X50925500Y-165291740D01*
X50915573Y-165223607D01*
X50881768Y-165154458D01*
X50870010Y-165085587D01*
X50881769Y-165045540D01*
X50890536Y-165027607D01*
X50915573Y-164976393D01*
X50925500Y-164908260D01*
X50925500Y-164641740D01*
X50915573Y-164573607D01*
X50881768Y-164504458D01*
X50870010Y-164435587D01*
X50881769Y-164395540D01*
X50897350Y-164363668D01*
X50915573Y-164326393D01*
X50925500Y-164258260D01*
X50925500Y-163991740D01*
X50921224Y-163962395D01*
X50915573Y-163923607D01*
X50903125Y-163898144D01*
X50891365Y-163829271D01*
X50918708Y-163764974D01*
X50923275Y-163759722D01*
X50946008Y-163735028D01*
X51228889Y-163452146D01*
X51248746Y-163436022D01*
X51257836Y-163430084D01*
X51279638Y-163402071D01*
X51284733Y-163396303D01*
X51287519Y-163393518D01*
X51287528Y-163393506D01*
X51301086Y-163374516D01*
X51334807Y-163331192D01*
X51338547Y-163324278D01*
X51342006Y-163317203D01*
X51342010Y-163317199D01*
X51349196Y-163293061D01*
X51357672Y-163264593D01*
X51375500Y-163212661D01*
X51376791Y-163204924D01*
X51377768Y-163197086D01*
X51375500Y-163142244D01*
X51375500Y-162806910D01*
X51395185Y-162739871D01*
X51411814Y-162719234D01*
X54012819Y-160118228D01*
X54074142Y-160084744D01*
X54143834Y-160089728D01*
G37*
%TD.AperFunction*%
%TA.AperFunction,Conductor*%
G36*
X56335140Y-165245185D02*
G01*
X56355782Y-165261819D01*
X56520694Y-165426731D01*
X56554179Y-165488054D01*
X56549195Y-165557746D01*
X56507323Y-165613679D01*
X56441859Y-165638096D01*
X56411103Y-165634572D01*
X56410922Y-165635815D01*
X56333261Y-165624500D01*
X56333260Y-165624500D01*
X55099500Y-165624500D01*
X55032461Y-165604815D01*
X54986706Y-165552011D01*
X54975500Y-165500500D01*
X54975500Y-165349500D01*
X54995185Y-165282461D01*
X55047989Y-165236706D01*
X55099500Y-165225500D01*
X56268101Y-165225500D01*
X56335140Y-165245185D01*
G37*
%TD.AperFunction*%
%TA.AperFunction,Conductor*%
G36*
X71767539Y-140195185D02*
G01*
X71813294Y-140247989D01*
X71824500Y-140299500D01*
X71824500Y-179700500D01*
X71804815Y-179767539D01*
X71752011Y-179813294D01*
X71700500Y-179824500D01*
X32299500Y-179824500D01*
X32232461Y-179804815D01*
X32186706Y-179752011D01*
X32175500Y-179700500D01*
X32175500Y-177550001D01*
X45194390Y-177550001D01*
X45214804Y-177835433D01*
X45275628Y-178115037D01*
X45375635Y-178383166D01*
X45512770Y-178634309D01*
X45512775Y-178634317D01*
X45684254Y-178863387D01*
X45684270Y-178863405D01*
X45886594Y-179065729D01*
X45886612Y-179065745D01*
X46115682Y-179237224D01*
X46115690Y-179237229D01*
X46366833Y-179374364D01*
X46366832Y-179374364D01*
X46366836Y-179374365D01*
X46366839Y-179374367D01*
X46634954Y-179474369D01*
X46634960Y-179474370D01*
X46634962Y-179474371D01*
X46914566Y-179535195D01*
X46914568Y-179535195D01*
X46914572Y-179535196D01*
X47168220Y-179553337D01*
X47199999Y-179555610D01*
X47200000Y-179555610D01*
X47200001Y-179555610D01*
X47228595Y-179553564D01*
X47485428Y-179535196D01*
X47765046Y-179474369D01*
X48033161Y-179374367D01*
X48284315Y-179237226D01*
X48513395Y-179065739D01*
X48715739Y-178863395D01*
X48887226Y-178634315D01*
X49024367Y-178383161D01*
X49124369Y-178115046D01*
X49185196Y-177835428D01*
X49205610Y-177550000D01*
X49185196Y-177264572D01*
X49159810Y-177147876D01*
X49159809Y-177147870D01*
X57349500Y-177147870D01*
X57349501Y-177147876D01*
X57355908Y-177207483D01*
X57406202Y-177342328D01*
X57406206Y-177342335D01*
X57492452Y-177457544D01*
X57492455Y-177457547D01*
X57607664Y-177543793D01*
X57607671Y-177543797D01*
X57742517Y-177594091D01*
X57742516Y-177594091D01*
X57749444Y-177594835D01*
X57802127Y-177600500D01*
X59197872Y-177600499D01*
X59257483Y-177594091D01*
X59392331Y-177543796D01*
X59507546Y-177457546D01*
X59593796Y-177342331D01*
X59644091Y-177207483D01*
X59650500Y-177147873D01*
X59650499Y-175052128D01*
X59644091Y-174992517D01*
X59636295Y-174971616D01*
X59593797Y-174857671D01*
X59593793Y-174857664D01*
X59507547Y-174742455D01*
X59507544Y-174742452D01*
X59392335Y-174656206D01*
X59392328Y-174656202D01*
X59257482Y-174605908D01*
X59257483Y-174605908D01*
X59197883Y-174599501D01*
X59197881Y-174599500D01*
X59197873Y-174599500D01*
X59197864Y-174599500D01*
X57802129Y-174599500D01*
X57802123Y-174599501D01*
X57742516Y-174605908D01*
X57607671Y-174656202D01*
X57607664Y-174656206D01*
X57492455Y-174742452D01*
X57492452Y-174742455D01*
X57406206Y-174857664D01*
X57406202Y-174857671D01*
X57355908Y-174992517D01*
X57349501Y-175052116D01*
X57349501Y-175052123D01*
X57349500Y-175052135D01*
X57349500Y-177147870D01*
X49159809Y-177147870D01*
X49124371Y-176984962D01*
X49124370Y-176984960D01*
X49124369Y-176984954D01*
X49024367Y-176716839D01*
X48887226Y-176465685D01*
X48887224Y-176465682D01*
X48715745Y-176236612D01*
X48715729Y-176236594D01*
X48513405Y-176034270D01*
X48513387Y-176034254D01*
X48284317Y-175862775D01*
X48284309Y-175862770D01*
X48033166Y-175725635D01*
X48033167Y-175725635D01*
X47925915Y-175685632D01*
X47765046Y-175625631D01*
X47765043Y-175625630D01*
X47765037Y-175625628D01*
X47485433Y-175564804D01*
X47200001Y-175544390D01*
X47199999Y-175544390D01*
X46914566Y-175564804D01*
X46634962Y-175625628D01*
X46366833Y-175725635D01*
X46115690Y-175862770D01*
X46115682Y-175862775D01*
X45886612Y-176034254D01*
X45886594Y-176034270D01*
X45684270Y-176236594D01*
X45684254Y-176236612D01*
X45512775Y-176465682D01*
X45512770Y-176465690D01*
X45375635Y-176716833D01*
X45275628Y-176984962D01*
X45214804Y-177264566D01*
X45194390Y-177549998D01*
X45194390Y-177550001D01*
X32175500Y-177550001D01*
X32175500Y-172200000D01*
X32744750Y-172200000D01*
X32763670Y-172343708D01*
X32763671Y-172343712D01*
X32819137Y-172477622D01*
X32819138Y-172477624D01*
X32819139Y-172477625D01*
X32907379Y-172592621D01*
X33022375Y-172680861D01*
X33156291Y-172736330D01*
X33278603Y-172752433D01*
X33299999Y-172755250D01*
X33300000Y-172755250D01*
X33300001Y-172755250D01*
X33314977Y-172753278D01*
X33443709Y-172736330D01*
X33577625Y-172680861D01*
X33681540Y-172601123D01*
X33746709Y-172575930D01*
X33757026Y-172575500D01*
X40111370Y-172575500D01*
X40136815Y-172578139D01*
X40140614Y-172578935D01*
X40147442Y-172580367D01*
X40168399Y-172577754D01*
X40182666Y-172575977D01*
X40190342Y-172575500D01*
X40194286Y-172575500D01*
X40194288Y-172575500D01*
X40194290Y-172575499D01*
X40194296Y-172575499D01*
X40209661Y-172572934D01*
X40217314Y-172571657D01*
X40271800Y-172564866D01*
X40271801Y-172564865D01*
X40271803Y-172564865D01*
X40279315Y-172562628D01*
X40286780Y-172560066D01*
X40286780Y-172560065D01*
X40286784Y-172560065D01*
X40335051Y-172533944D01*
X40384385Y-172509826D01*
X40384388Y-172509823D01*
X40390768Y-172505268D01*
X40396993Y-172500422D01*
X40397000Y-172500419D01*
X40434182Y-172460028D01*
X42778889Y-170115320D01*
X42798746Y-170099196D01*
X42807836Y-170093258D01*
X42829651Y-170065228D01*
X42834719Y-170059490D01*
X42837520Y-170056691D01*
X42851088Y-170037687D01*
X42884809Y-169994363D01*
X42884810Y-169994357D01*
X42888542Y-169987463D01*
X42892003Y-169980381D01*
X42892010Y-169980373D01*
X42907670Y-169927770D01*
X42925500Y-169875834D01*
X42925500Y-169875829D01*
X42926790Y-169868098D01*
X42927768Y-169860259D01*
X42925500Y-169805418D01*
X42925500Y-169562000D01*
X42945185Y-169494961D01*
X42997989Y-169449206D01*
X43049500Y-169438000D01*
X44675501Y-169438000D01*
X44742540Y-169457685D01*
X44788295Y-169510489D01*
X44799501Y-169562000D01*
X44799501Y-169681518D01*
X44814354Y-169775304D01*
X44871950Y-169888342D01*
X44871952Y-169888344D01*
X44871954Y-169888347D01*
X44961652Y-169978045D01*
X44961654Y-169978046D01*
X44961658Y-169978050D01*
X45068857Y-170032671D01*
X45074698Y-170035647D01*
X45168475Y-170050499D01*
X45168481Y-170050500D01*
X45531518Y-170050499D01*
X45625304Y-170035646D01*
X45738342Y-169978050D01*
X45828050Y-169888342D01*
X45885646Y-169775304D01*
X45885646Y-169775302D01*
X45885647Y-169775301D01*
X45898817Y-169692147D01*
X45900500Y-169681519D01*
X45900499Y-168443482D01*
X45885646Y-168349696D01*
X45828050Y-168236658D01*
X45828046Y-168236654D01*
X45828045Y-168236652D01*
X45738347Y-168146954D01*
X45738344Y-168146952D01*
X45738342Y-168146950D01*
X45644471Y-168099120D01*
X45625301Y-168089352D01*
X45531524Y-168074500D01*
X45168482Y-168074500D01*
X45095861Y-168086002D01*
X45074696Y-168089354D01*
X44961658Y-168146950D01*
X44961657Y-168146951D01*
X44961652Y-168146954D01*
X44871954Y-168236652D01*
X44871951Y-168236657D01*
X44814352Y-168349698D01*
X44799500Y-168443475D01*
X44799500Y-168563000D01*
X44779815Y-168630039D01*
X44727011Y-168675794D01*
X44675500Y-168687000D01*
X43131852Y-168687000D01*
X43064813Y-168667315D01*
X43019058Y-168614511D01*
X43009114Y-168545353D01*
X43038139Y-168481797D01*
X43056365Y-168464625D01*
X43083918Y-168443482D01*
X43117621Y-168417621D01*
X43205861Y-168302625D01*
X43261330Y-168168709D01*
X43280250Y-168025000D01*
X43279724Y-168021008D01*
X43262567Y-167890686D01*
X43273332Y-167821650D01*
X43319712Y-167769394D01*
X43385506Y-167750500D01*
X43749205Y-167750500D01*
X43774650Y-167753139D01*
X43778449Y-167753935D01*
X43785277Y-167755367D01*
X43806234Y-167752754D01*
X43820501Y-167750977D01*
X43828177Y-167750500D01*
X43832121Y-167750500D01*
X43832123Y-167750500D01*
X43832125Y-167750499D01*
X43832131Y-167750499D01*
X43847496Y-167747934D01*
X43855149Y-167746657D01*
X43909635Y-167739866D01*
X43909636Y-167739865D01*
X43909638Y-167739865D01*
X43917150Y-167737628D01*
X43924615Y-167735066D01*
X43924615Y-167735065D01*
X43924619Y-167735065D01*
X43972886Y-167708944D01*
X44022220Y-167684826D01*
X44022223Y-167684823D01*
X44028603Y-167680268D01*
X44034828Y-167675422D01*
X44034835Y-167675419D01*
X44072017Y-167635028D01*
X44217353Y-167489691D01*
X44278672Y-167456209D01*
X44288839Y-167454436D01*
X44418709Y-167437339D01*
X44552625Y-167381870D01*
X44656540Y-167302132D01*
X44721709Y-167276939D01*
X44732026Y-167276509D01*
X46676827Y-167276509D01*
X46702272Y-167279148D01*
X46706071Y-167279944D01*
X46712899Y-167281376D01*
X46733856Y-167278763D01*
X46748123Y-167276986D01*
X46755799Y-167276509D01*
X46759743Y-167276509D01*
X46759745Y-167276509D01*
X46761655Y-167276190D01*
X46762443Y-167276285D01*
X46764861Y-167276085D01*
X46764902Y-167276582D01*
X46831020Y-167284565D01*
X46884846Y-167329112D01*
X46896637Y-167351045D01*
X46914740Y-167394750D01*
X46914974Y-167395314D01*
X47003214Y-167510310D01*
X47118210Y-167598550D01*
X47118211Y-167598550D01*
X47118212Y-167598551D01*
X47137444Y-167606517D01*
X47252126Y-167654019D01*
X47371613Y-167669750D01*
X47395834Y-167672939D01*
X47395835Y-167672939D01*
X47411998Y-167670811D01*
X47481033Y-167681576D01*
X47533289Y-167727956D01*
X47542745Y-167746297D01*
X47567595Y-167806291D01*
X47580961Y-167838559D01*
X47618518Y-167887504D01*
X47643712Y-167952672D01*
X47629674Y-168021117D01*
X47580860Y-168071107D01*
X47512769Y-168086771D01*
X47500745Y-168085463D01*
X47431525Y-168074500D01*
X47068482Y-168074500D01*
X46995861Y-168086002D01*
X46974696Y-168089354D01*
X46861658Y-168146950D01*
X46861657Y-168146951D01*
X46861652Y-168146954D01*
X46771954Y-168236652D01*
X46771951Y-168236657D01*
X46714352Y-168349698D01*
X46699500Y-168443475D01*
X46699500Y-169681517D01*
X46706800Y-169727609D01*
X46714354Y-169775304D01*
X46771950Y-169888342D01*
X46838182Y-169954574D01*
X46871666Y-170015895D01*
X46874500Y-170042254D01*
X46874500Y-171348196D01*
X46871862Y-171373634D01*
X46869633Y-171384268D01*
X46869633Y-171384269D01*
X46869633Y-171384271D01*
X46874023Y-171419491D01*
X46874500Y-171427167D01*
X46874500Y-171431116D01*
X46878342Y-171454141D01*
X46885134Y-171508627D01*
X46887373Y-171516147D01*
X46889934Y-171523608D01*
X46889935Y-171523610D01*
X46904370Y-171550284D01*
X46916055Y-171571877D01*
X46940174Y-171621211D01*
X46944742Y-171627609D01*
X46949582Y-171633827D01*
X46989971Y-171671009D01*
X47098814Y-171779852D01*
X47132299Y-171841175D01*
X47134072Y-171851346D01*
X47151170Y-171981208D01*
X47151171Y-171981212D01*
X47206637Y-172115122D01*
X47206638Y-172115124D01*
X47206639Y-172115125D01*
X47294879Y-172230121D01*
X47409875Y-172318361D01*
X47543791Y-172373830D01*
X47670780Y-172390548D01*
X47687499Y-172392750D01*
X47687500Y-172392750D01*
X47687501Y-172392750D01*
X47702477Y-172390778D01*
X47831209Y-172373830D01*
X47965125Y-172318361D01*
X48080121Y-172230121D01*
X48168361Y-172115125D01*
X48223830Y-171981209D01*
X48242750Y-171837500D01*
X48241038Y-171824500D01*
X48226447Y-171713670D01*
X48237212Y-171644634D01*
X48283592Y-171592379D01*
X48301934Y-171582923D01*
X48380733Y-171550284D01*
X48427625Y-171530861D01*
X48542621Y-171442621D01*
X48630861Y-171327625D01*
X48686330Y-171193709D01*
X48705250Y-171050000D01*
X48686330Y-170906291D01*
X48641424Y-170797876D01*
X48630862Y-170772377D01*
X48630861Y-170772376D01*
X48630861Y-170772375D01*
X48542621Y-170657379D01*
X48427625Y-170569139D01*
X48427624Y-170569138D01*
X48427622Y-170569137D01*
X48293712Y-170513671D01*
X48293710Y-170513670D01*
X48293709Y-170513670D01*
X48221854Y-170504210D01*
X48150001Y-170494750D01*
X48149999Y-170494750D01*
X48006291Y-170513670D01*
X48006287Y-170513671D01*
X47872377Y-170569137D01*
X47853722Y-170583451D01*
X47824985Y-170605502D01*
X47759818Y-170630696D01*
X47691373Y-170616658D01*
X47641383Y-170567844D01*
X47625500Y-170507126D01*
X47625500Y-170042254D01*
X47645185Y-169975215D01*
X47661814Y-169954577D01*
X47728050Y-169888342D01*
X47785646Y-169775304D01*
X47785646Y-169775302D01*
X47785647Y-169775301D01*
X47798817Y-169692147D01*
X47800500Y-169681519D01*
X47800499Y-168443482D01*
X47785646Y-168349696D01*
X47739773Y-168259666D01*
X47726878Y-168191000D01*
X47753154Y-168126259D01*
X47810261Y-168086002D01*
X47880066Y-168083010D01*
X47897699Y-168088808D01*
X47918113Y-168097264D01*
X48013919Y-168109877D01*
X48061821Y-168116184D01*
X48061822Y-168116184D01*
X48061823Y-168116184D01*
X48098414Y-168111366D01*
X48191432Y-168099120D01*
X48260466Y-168109885D01*
X48312722Y-168156265D01*
X48322178Y-168174606D01*
X48344139Y-168227625D01*
X48423876Y-168331540D01*
X48449070Y-168396709D01*
X48449500Y-168407026D01*
X48449500Y-169448196D01*
X48446862Y-169473634D01*
X48444633Y-169484268D01*
X48444633Y-169484269D01*
X48444633Y-169484271D01*
X48449023Y-169519491D01*
X48449500Y-169527167D01*
X48449500Y-169531116D01*
X48453342Y-169554141D01*
X48460134Y-169608627D01*
X48462373Y-169616147D01*
X48464934Y-169623608D01*
X48464935Y-169623610D01*
X48491055Y-169671877D01*
X48515174Y-169721211D01*
X48519742Y-169727609D01*
X48524582Y-169733827D01*
X48564971Y-169771009D01*
X49661314Y-170867351D01*
X49694799Y-170928674D01*
X49696572Y-170938845D01*
X49713670Y-171068708D01*
X49713671Y-171068712D01*
X49769137Y-171202622D01*
X49769138Y-171202624D01*
X49769139Y-171202625D01*
X49857379Y-171317621D01*
X49972375Y-171405861D01*
X50106291Y-171461330D01*
X50233280Y-171478048D01*
X50249999Y-171480250D01*
X50250000Y-171480250D01*
X50250001Y-171480250D01*
X50264977Y-171478278D01*
X50393709Y-171461330D01*
X50527625Y-171405861D01*
X50642621Y-171317621D01*
X50730861Y-171202625D01*
X50786330Y-171068709D01*
X50794481Y-171006794D01*
X50822747Y-170942898D01*
X50881072Y-170904427D01*
X50950937Y-170903596D01*
X50964860Y-170908414D01*
X51006297Y-170925578D01*
X51133286Y-170942296D01*
X51150005Y-170944498D01*
X51150006Y-170944498D01*
X51150007Y-170944498D01*
X51164983Y-170942526D01*
X51293715Y-170925578D01*
X51427631Y-170870109D01*
X51542627Y-170781869D01*
X51630867Y-170666873D01*
X51686336Y-170532957D01*
X51704624Y-170394046D01*
X51732891Y-170330151D01*
X51791215Y-170291680D01*
X51811373Y-170287295D01*
X51818709Y-170286330D01*
X51952625Y-170230861D01*
X52067621Y-170142621D01*
X52067630Y-170142608D01*
X52071667Y-170138573D01*
X52132989Y-170105085D01*
X52202681Y-170110066D01*
X52258616Y-170151935D01*
X52273914Y-170178797D01*
X52293935Y-170227134D01*
X52294139Y-170227625D01*
X52382379Y-170342621D01*
X52497375Y-170430861D01*
X52631291Y-170486330D01*
X52758280Y-170503048D01*
X52774999Y-170505250D01*
X52775000Y-170505250D01*
X52775001Y-170505250D01*
X52789977Y-170503278D01*
X52918709Y-170486330D01*
X53052625Y-170430861D01*
X53167621Y-170342621D01*
X53255861Y-170227625D01*
X53255862Y-170227621D01*
X53258286Y-170224463D01*
X53314714Y-170183261D01*
X53384460Y-170179106D01*
X53445381Y-170213318D01*
X53472820Y-170261505D01*
X53473555Y-170261201D01*
X53475976Y-170267047D01*
X53476437Y-170267856D01*
X53476666Y-170268713D01*
X53532132Y-170402622D01*
X53532133Y-170402624D01*
X53532134Y-170402625D01*
X53620374Y-170517621D01*
X53735370Y-170605861D01*
X53735371Y-170605861D01*
X53735372Y-170605862D01*
X53780008Y-170624350D01*
X53869286Y-170661330D01*
X53996275Y-170678048D01*
X54012994Y-170680250D01*
X54012995Y-170680250D01*
X54012996Y-170680250D01*
X54027972Y-170678278D01*
X54156704Y-170661330D01*
X54290620Y-170605861D01*
X54405616Y-170517621D01*
X54493856Y-170402625D01*
X54549325Y-170268709D01*
X54568245Y-170125000D01*
X54549325Y-169981291D01*
X54499193Y-169860259D01*
X54493857Y-169847377D01*
X54493856Y-169847376D01*
X54493856Y-169847375D01*
X54405616Y-169732379D01*
X54290620Y-169644139D01*
X54290619Y-169644138D01*
X54290617Y-169644137D01*
X54156707Y-169588671D01*
X54156705Y-169588670D01*
X54156704Y-169588670D01*
X54084849Y-169579210D01*
X54012996Y-169569750D01*
X54012994Y-169569750D01*
X53869286Y-169588670D01*
X53869282Y-169588671D01*
X53735372Y-169644137D01*
X53620371Y-169732381D01*
X53529707Y-169850536D01*
X53473279Y-169891739D01*
X53403533Y-169895893D01*
X53342613Y-169861680D01*
X53315176Y-169813494D01*
X53314440Y-169813799D01*
X53312011Y-169807935D01*
X53311555Y-169807134D01*
X53311331Y-169806299D01*
X53311330Y-169806291D01*
X53281315Y-169733827D01*
X53255862Y-169672377D01*
X53255861Y-169672376D01*
X53255861Y-169672375D01*
X53167621Y-169557379D01*
X53052625Y-169469139D01*
X53052624Y-169469138D01*
X53052622Y-169469137D01*
X52918712Y-169413671D01*
X52918710Y-169413670D01*
X52918709Y-169413670D01*
X52831048Y-169402129D01*
X52775001Y-169394750D01*
X52774999Y-169394750D01*
X52753192Y-169397621D01*
X52684156Y-169386856D01*
X52631900Y-169340476D01*
X52613015Y-169273207D01*
X52622444Y-169227232D01*
X52636330Y-169193709D01*
X52655250Y-169050000D01*
X52636330Y-168906291D01*
X52599350Y-168817013D01*
X52580862Y-168772377D01*
X52580861Y-168772376D01*
X52580861Y-168772375D01*
X52492621Y-168657379D01*
X52377625Y-168569139D01*
X52377624Y-168569138D01*
X52377622Y-168569137D01*
X52243712Y-168513671D01*
X52243710Y-168513670D01*
X52243709Y-168513670D01*
X52171854Y-168504210D01*
X52100001Y-168494750D01*
X52099999Y-168494750D01*
X51956291Y-168513670D01*
X51956287Y-168513671D01*
X51822377Y-168569137D01*
X51707379Y-168657379D01*
X51619137Y-168772377D01*
X51563671Y-168906287D01*
X51563670Y-168906291D01*
X51544750Y-169049999D01*
X51544750Y-169050003D01*
X51552067Y-169105586D01*
X51541301Y-169174621D01*
X51494920Y-169226876D01*
X51476581Y-169236331D01*
X51397376Y-169269138D01*
X51282379Y-169357379D01*
X51194137Y-169472377D01*
X51138671Y-169606287D01*
X51138670Y-169606291D01*
X51120381Y-169745200D01*
X51092114Y-169809096D01*
X51033789Y-169847566D01*
X51013636Y-169851951D01*
X51006301Y-169852917D01*
X51006293Y-169852919D01*
X50872383Y-169908385D01*
X50757385Y-169996627D01*
X50669143Y-170111625D01*
X50613677Y-170245535D01*
X50613676Y-170245539D01*
X50605524Y-170307454D01*
X50577256Y-170371350D01*
X50518931Y-170409821D01*
X50449067Y-170410651D01*
X50435133Y-170405828D01*
X50393712Y-170388671D01*
X50393710Y-170388670D01*
X50393709Y-170388670D01*
X50377043Y-170386475D01*
X50263846Y-170371572D01*
X50199950Y-170343305D01*
X50192352Y-170336314D01*
X49236819Y-169380781D01*
X49203334Y-169319458D01*
X49200500Y-169293100D01*
X49200500Y-168407026D01*
X49220185Y-168339987D01*
X49226117Y-168331547D01*
X49305861Y-168227625D01*
X49361330Y-168093709D01*
X49380250Y-167950000D01*
X49379904Y-167947375D01*
X49375630Y-167914908D01*
X49361330Y-167806291D01*
X49321008Y-167708944D01*
X49305862Y-167672377D01*
X49305861Y-167672376D01*
X49305861Y-167672375D01*
X49217621Y-167557379D01*
X49102625Y-167469139D01*
X49102624Y-167469138D01*
X49102622Y-167469137D01*
X48968712Y-167413671D01*
X48968710Y-167413670D01*
X48968709Y-167413670D01*
X48896854Y-167404210D01*
X48825001Y-167394750D01*
X48824998Y-167394750D01*
X48710728Y-167409794D01*
X48641693Y-167399028D01*
X48589437Y-167352648D01*
X48570552Y-167285380D01*
X48591033Y-167218579D01*
X48606857Y-167199179D01*
X48810426Y-166995610D01*
X48871747Y-166962127D01*
X48941439Y-166967111D01*
X48997372Y-167008983D01*
X49009503Y-167028827D01*
X49010801Y-167031483D01*
X49093514Y-167114196D01*
X49093515Y-167114196D01*
X49093517Y-167114198D01*
X49198607Y-167165573D01*
X49232673Y-167170536D01*
X49266739Y-167175500D01*
X49266740Y-167175500D01*
X49805601Y-167175500D01*
X49872640Y-167195185D01*
X49893282Y-167211819D01*
X50560349Y-167878886D01*
X50576478Y-167898747D01*
X50582416Y-167907836D01*
X50610429Y-167929639D01*
X50616191Y-167934728D01*
X50618983Y-167937520D01*
X50637986Y-167951088D01*
X50681311Y-167984809D01*
X50681313Y-167984809D01*
X50688235Y-167988555D01*
X50695298Y-167992008D01*
X50695301Y-167992010D01*
X50747912Y-168007673D01*
X50773876Y-168016586D01*
X50799839Y-168025500D01*
X50807601Y-168026795D01*
X50815411Y-168027768D01*
X50815412Y-168027769D01*
X50815412Y-168027768D01*
X50815413Y-168027769D01*
X50842840Y-168026634D01*
X50870269Y-168025500D01*
X55260879Y-168025500D01*
X55327918Y-168045185D01*
X55336357Y-168051117D01*
X55440280Y-168130861D01*
X55574196Y-168186330D01*
X55590663Y-168188497D01*
X55654556Y-168216761D01*
X55693029Y-168275085D01*
X55697416Y-168295250D01*
X55701614Y-168327140D01*
X55713670Y-168418708D01*
X55713671Y-168418712D01*
X55769137Y-168552622D01*
X55769138Y-168552624D01*
X55769139Y-168552625D01*
X55857379Y-168667621D01*
X55972375Y-168755861D01*
X55972376Y-168755861D01*
X55972377Y-168755862D01*
X56012244Y-168772375D01*
X56106291Y-168811330D01*
X56233280Y-168828048D01*
X56249999Y-168830250D01*
X56250000Y-168830250D01*
X56250001Y-168830250D01*
X56264977Y-168828278D01*
X56393709Y-168811330D01*
X56527625Y-168755861D01*
X56642621Y-168667621D01*
X56730861Y-168552625D01*
X56786330Y-168418709D01*
X56805250Y-168275000D01*
X56786330Y-168131291D01*
X56742511Y-168025500D01*
X56730862Y-167997377D01*
X56730861Y-167997376D01*
X56730861Y-167997375D01*
X56642621Y-167882379D01*
X56527625Y-167794139D01*
X56527624Y-167794138D01*
X56527622Y-167794137D01*
X56393712Y-167738671D01*
X56393710Y-167738670D01*
X56393709Y-167738670D01*
X56377240Y-167736501D01*
X56313344Y-167708235D01*
X56274874Y-167649910D01*
X56270490Y-167629758D01*
X56254235Y-167506291D01*
X56254233Y-167506287D01*
X56253834Y-167503252D01*
X56264599Y-167434216D01*
X56310979Y-167381960D01*
X56378248Y-167363075D01*
X56445049Y-167383556D01*
X56452260Y-167388690D01*
X56457377Y-167392616D01*
X56457379Y-167392619D01*
X56572375Y-167480859D01*
X56706291Y-167536328D01*
X56833280Y-167553046D01*
X56849999Y-167555248D01*
X56850000Y-167555248D01*
X56850001Y-167555248D01*
X56864977Y-167553276D01*
X56993709Y-167536328D01*
X57127625Y-167480859D01*
X57242621Y-167392619D01*
X57330861Y-167277623D01*
X57386330Y-167143707D01*
X57405250Y-166999998D01*
X57405184Y-166999500D01*
X57400264Y-166962127D01*
X57386330Y-166856289D01*
X57330861Y-166722373D01*
X57242621Y-166607377D01*
X57127625Y-166519137D01*
X57127624Y-166519136D01*
X57127622Y-166519135D01*
X56993712Y-166463669D01*
X56993710Y-166463668D01*
X56993709Y-166463668D01*
X56954027Y-166458443D01*
X56854851Y-166445386D01*
X56794873Y-166420299D01*
X56794676Y-166420146D01*
X56786358Y-166413671D01*
X56756191Y-166390190D01*
X56749276Y-166386448D01*
X56742202Y-166382990D01*
X56732696Y-166380160D01*
X56674060Y-166342165D01*
X56645275Y-166278500D01*
X56645373Y-166243441D01*
X56650500Y-166208260D01*
X56650500Y-165941740D01*
X56645705Y-165908833D01*
X56639866Y-165868754D01*
X56649679Y-165799577D01*
X56695334Y-165746687D01*
X56762337Y-165726876D01*
X56829413Y-165746435D01*
X56838733Y-165753023D01*
X56844915Y-165757834D01*
X56844916Y-165757836D01*
X56864801Y-165773313D01*
X56872925Y-165779636D01*
X56878687Y-165784725D01*
X56881482Y-165787520D01*
X56900495Y-165801094D01*
X56943811Y-165834809D01*
X56943818Y-165834811D01*
X56950720Y-165838547D01*
X56957796Y-165842006D01*
X56957801Y-165842010D01*
X56997333Y-165853779D01*
X57004402Y-165856707D01*
X57004464Y-165856529D01*
X57004609Y-165856579D01*
X57006757Y-165857683D01*
X57018707Y-165862633D01*
X57018775Y-165862495D01*
X57028003Y-165867006D01*
X57028006Y-165867008D01*
X57080617Y-165882671D01*
X57106581Y-165891584D01*
X57132544Y-165900498D01*
X57140306Y-165901793D01*
X57148116Y-165902766D01*
X57148117Y-165902767D01*
X57148117Y-165902766D01*
X57148118Y-165902767D01*
X57175545Y-165901632D01*
X57202974Y-165900498D01*
X57661169Y-165900498D01*
X57686614Y-165903137D01*
X57690413Y-165903933D01*
X57697241Y-165905365D01*
X57718198Y-165902752D01*
X57732465Y-165900975D01*
X57740141Y-165900498D01*
X57744085Y-165900498D01*
X57744087Y-165900498D01*
X57744089Y-165900497D01*
X57744095Y-165900497D01*
X57759460Y-165897932D01*
X57767113Y-165896655D01*
X57821599Y-165889864D01*
X57821600Y-165889863D01*
X57821602Y-165889863D01*
X57829089Y-165887634D01*
X57836577Y-165885063D01*
X57836583Y-165885063D01*
X57836587Y-165885060D01*
X57844876Y-165882216D01*
X57885132Y-165875500D01*
X58879518Y-165875500D01*
X58946557Y-165895185D01*
X58992312Y-165947989D01*
X59002808Y-165986249D01*
X59005587Y-166012114D01*
X59053372Y-166140226D01*
X59135313Y-166249687D01*
X59199812Y-166297970D01*
X59241681Y-166353901D01*
X59249500Y-166397235D01*
X59249500Y-166512764D01*
X59229815Y-166579803D01*
X59199811Y-166612029D01*
X59184645Y-166623384D01*
X59135313Y-166660313D01*
X59053373Y-166769771D01*
X59005587Y-166897889D01*
X58999500Y-166954498D01*
X58999500Y-167545481D01*
X58999501Y-167545490D01*
X59005587Y-167602114D01*
X59045434Y-167708944D01*
X59053372Y-167730226D01*
X59135313Y-167839687D01*
X59199812Y-167887970D01*
X59241681Y-167943901D01*
X59249500Y-167987235D01*
X59249500Y-170475500D01*
X59229815Y-170542539D01*
X59177011Y-170588294D01*
X59125500Y-170599500D01*
X57802129Y-170599500D01*
X57802123Y-170599501D01*
X57742516Y-170605908D01*
X57607671Y-170656202D01*
X57607664Y-170656206D01*
X57492455Y-170742452D01*
X57492452Y-170742455D01*
X57406206Y-170857664D01*
X57406202Y-170857671D01*
X57355908Y-170992517D01*
X57349501Y-171052116D01*
X57349500Y-171052135D01*
X57349500Y-172562033D01*
X57329815Y-172629072D01*
X57313181Y-172649714D01*
X56306310Y-173656586D01*
X56244987Y-173690071D01*
X56175295Y-173685087D01*
X56119362Y-173643215D01*
X56094945Y-173577751D01*
X56109797Y-173509478D01*
X56120251Y-173493421D01*
X56122698Y-173490233D01*
X56180687Y-173350236D01*
X56200466Y-173200000D01*
X56180687Y-173049764D01*
X56122698Y-172909767D01*
X56030451Y-172789549D01*
X55910233Y-172697302D01*
X55910229Y-172697300D01*
X55839731Y-172668099D01*
X55770236Y-172639313D01*
X55756171Y-172637461D01*
X55657727Y-172624500D01*
X55657720Y-172624500D01*
X55582280Y-172624500D01*
X55582272Y-172624500D01*
X55469764Y-172639313D01*
X55469763Y-172639313D01*
X55329770Y-172697300D01*
X55329767Y-172697301D01*
X55329767Y-172697302D01*
X55210676Y-172788684D01*
X55209549Y-172789549D01*
X55117300Y-172909770D01*
X55059313Y-173049763D01*
X55059312Y-173049765D01*
X55039534Y-173199999D01*
X55039534Y-173200000D01*
X55059312Y-173350234D01*
X55059313Y-173350236D01*
X55117302Y-173490233D01*
X55209549Y-173610451D01*
X55329767Y-173702698D01*
X55469764Y-173760687D01*
X55582280Y-173775500D01*
X55582287Y-173775500D01*
X55657713Y-173775500D01*
X55657720Y-173775500D01*
X55770236Y-173760687D01*
X55910233Y-173702698D01*
X55913417Y-173700254D01*
X55916588Y-173699028D01*
X55917268Y-173698636D01*
X55917329Y-173698741D01*
X55978584Y-173675058D01*
X56047030Y-173689094D01*
X56097021Y-173737906D01*
X56112687Y-173805997D01*
X56089053Y-173871748D01*
X56076587Y-173886309D01*
X55849716Y-174113181D01*
X55788393Y-174146666D01*
X55762035Y-174149500D01*
X55759285Y-174149500D01*
X55692246Y-174129815D01*
X55683801Y-174123877D01*
X55677629Y-174119141D01*
X55677623Y-174119138D01*
X55543712Y-174063671D01*
X55543710Y-174063670D01*
X55543709Y-174063670D01*
X55471854Y-174054210D01*
X55400001Y-174044750D01*
X55399999Y-174044750D01*
X55256291Y-174063670D01*
X55256287Y-174063671D01*
X55122377Y-174119137D01*
X55007379Y-174207379D01*
X54919137Y-174322377D01*
X54863671Y-174456287D01*
X54863670Y-174456291D01*
X54844750Y-174599999D01*
X54844750Y-174600000D01*
X54863670Y-174743708D01*
X54863671Y-174743712D01*
X54919137Y-174877622D01*
X54919138Y-174877624D01*
X54919139Y-174877625D01*
X55007379Y-174992621D01*
X55122375Y-175080861D01*
X55256291Y-175136330D01*
X55383280Y-175153048D01*
X55399999Y-175155250D01*
X55400000Y-175155250D01*
X55400001Y-175155250D01*
X55414977Y-175153278D01*
X55543709Y-175136330D01*
X55677625Y-175080861D01*
X55677629Y-175080858D01*
X55683801Y-175076123D01*
X55748970Y-175050930D01*
X55759285Y-175050500D01*
X55971217Y-175050500D01*
X55978155Y-175050889D01*
X56010050Y-175054483D01*
X56017034Y-175055270D01*
X56017034Y-175055269D01*
X56017035Y-175055270D01*
X56075479Y-175044211D01*
X56134287Y-175035348D01*
X56134290Y-175035346D01*
X56142447Y-175032830D01*
X56150469Y-175030023D01*
X56150472Y-175030023D01*
X56203072Y-175002222D01*
X56256642Y-174976425D01*
X56256642Y-174976424D01*
X56256644Y-174976424D01*
X56263695Y-174971616D01*
X56270538Y-174966566D01*
X56312599Y-174924504D01*
X56356194Y-174884055D01*
X56356196Y-174884050D01*
X56361987Y-174876790D01*
X56362643Y-174877313D01*
X56372032Y-174865070D01*
X57613695Y-173623407D01*
X57675016Y-173589924D01*
X57734522Y-173594179D01*
X57734965Y-173592307D01*
X57742516Y-173594091D01*
X57743335Y-173594179D01*
X57802127Y-173600500D01*
X59197872Y-173600499D01*
X59257483Y-173594091D01*
X59332544Y-173566094D01*
X59402234Y-173561110D01*
X59463557Y-173594594D01*
X61097849Y-175228886D01*
X61113977Y-175248745D01*
X61119916Y-175257836D01*
X61147932Y-175279641D01*
X61153693Y-175284730D01*
X61156482Y-175287519D01*
X61175483Y-175301085D01*
X61217700Y-175333944D01*
X61218811Y-175334809D01*
X61225722Y-175338549D01*
X61232800Y-175342010D01*
X61285405Y-175357671D01*
X61337340Y-175375500D01*
X61337342Y-175375500D01*
X61345079Y-175376791D01*
X61352909Y-175377767D01*
X61352911Y-175377768D01*
X61352912Y-175377767D01*
X61352913Y-175377768D01*
X61407755Y-175375500D01*
X62848196Y-175375500D01*
X62873641Y-175378139D01*
X62877440Y-175378935D01*
X62884268Y-175380367D01*
X62905225Y-175377754D01*
X62919492Y-175375977D01*
X62927168Y-175375500D01*
X62931112Y-175375500D01*
X62931114Y-175375500D01*
X62931116Y-175375499D01*
X62931122Y-175375499D01*
X62946487Y-175372934D01*
X62954140Y-175371657D01*
X63008626Y-175364866D01*
X63008627Y-175364865D01*
X63008629Y-175364865D01*
X63016141Y-175362628D01*
X63023606Y-175360066D01*
X63023606Y-175360065D01*
X63023610Y-175360065D01*
X63071877Y-175333944D01*
X63121211Y-175309826D01*
X63121214Y-175309823D01*
X63127594Y-175305268D01*
X63133819Y-175300422D01*
X63133826Y-175300419D01*
X63171008Y-175260028D01*
X65642354Y-172788682D01*
X65703675Y-172755199D01*
X65713828Y-172753429D01*
X65843709Y-172736330D01*
X65977625Y-172680861D01*
X66092621Y-172592621D01*
X66180861Y-172477625D01*
X66236330Y-172343709D01*
X66255250Y-172200000D01*
X66236330Y-172056291D01*
X66180861Y-171922375D01*
X66144497Y-171874985D01*
X66119304Y-171809818D01*
X66133342Y-171741373D01*
X66182156Y-171691383D01*
X66242874Y-171675500D01*
X67372865Y-171675500D01*
X67372874Y-171675500D01*
X67432484Y-171669091D01*
X67567331Y-171618796D01*
X67682547Y-171532547D01*
X67768796Y-171417331D01*
X67819091Y-171282484D01*
X67825500Y-171222874D01*
X67825500Y-170227126D01*
X67819091Y-170167516D01*
X67777756Y-170056691D01*
X67768797Y-170032671D01*
X67768796Y-170032669D01*
X67756239Y-170015895D01*
X67682547Y-169917453D01*
X67567331Y-169831204D01*
X67567330Y-169831203D01*
X67567328Y-169831202D01*
X67458688Y-169790682D01*
X67402754Y-169748811D01*
X67378337Y-169683346D01*
X67393189Y-169615073D01*
X67442594Y-169565668D01*
X67502021Y-169550500D01*
X68743101Y-169550500D01*
X68810140Y-169570185D01*
X68830782Y-169586819D01*
X69172849Y-169928886D01*
X69188977Y-169948745D01*
X69190986Y-169951820D01*
X69192783Y-169954572D01*
X69194916Y-169957836D01*
X69222932Y-169979641D01*
X69228693Y-169984730D01*
X69231482Y-169987519D01*
X69250483Y-170001085D01*
X69269511Y-170015895D01*
X69293811Y-170034809D01*
X69300704Y-170038539D01*
X69307799Y-170042008D01*
X69307801Y-170042010D01*
X69307803Y-170042010D01*
X69307806Y-170042012D01*
X69349203Y-170054336D01*
X69407839Y-170092330D01*
X69417495Y-170106497D01*
X69422206Y-170112880D01*
X69422207Y-170112882D01*
X69502850Y-170222150D01*
X69612118Y-170302793D01*
X69654845Y-170317744D01*
X69740299Y-170347646D01*
X69770730Y-170350500D01*
X69770734Y-170350500D01*
X70779270Y-170350500D01*
X70809699Y-170347646D01*
X70809701Y-170347646D01*
X70873790Y-170325219D01*
X70937882Y-170302793D01*
X71047150Y-170222150D01*
X71127793Y-170112882D01*
X71153807Y-170038539D01*
X71172646Y-169984701D01*
X71172646Y-169984699D01*
X71175500Y-169954269D01*
X71175500Y-169445730D01*
X71172646Y-169415300D01*
X71172646Y-169415298D01*
X71127793Y-169287119D01*
X71127792Y-169287117D01*
X71114523Y-169269138D01*
X71047150Y-169177850D01*
X71047148Y-169177849D01*
X71047148Y-169177848D01*
X70976408Y-169125640D01*
X70934157Y-169069993D01*
X70928698Y-169000337D01*
X70961765Y-168938787D01*
X70968238Y-168933220D01*
X70973832Y-168927966D01*
X70973837Y-168927963D01*
X71078600Y-168801326D01*
X71148579Y-168652613D01*
X71179376Y-168491170D01*
X71169056Y-168327140D01*
X71118268Y-168170829D01*
X71103114Y-168146951D01*
X71083589Y-168116184D01*
X71030202Y-168032060D01*
X71022683Y-168024999D01*
X70904706Y-167914211D01*
X70906421Y-167912384D01*
X70871263Y-167866784D01*
X70865288Y-167797170D01*
X70897899Y-167735377D01*
X70913928Y-167721488D01*
X70973837Y-167677963D01*
X71078600Y-167551326D01*
X71148579Y-167402613D01*
X71179376Y-167241170D01*
X71169056Y-167077140D01*
X71118268Y-166920829D01*
X71030202Y-166782060D01*
X71030201Y-166782059D01*
X70904706Y-166664211D01*
X70906421Y-166662384D01*
X70871263Y-166616784D01*
X70865288Y-166547170D01*
X70897899Y-166485377D01*
X70913928Y-166471488D01*
X70973837Y-166427963D01*
X71078600Y-166301326D01*
X71148579Y-166152613D01*
X71179376Y-165991170D01*
X71169056Y-165827140D01*
X71118268Y-165670829D01*
X71117871Y-165670204D01*
X71070447Y-165595476D01*
X71030202Y-165532060D01*
X70992160Y-165496336D01*
X70904706Y-165414211D01*
X70906421Y-165412384D01*
X70871263Y-165366784D01*
X70865288Y-165297170D01*
X70897899Y-165235377D01*
X70913928Y-165221488D01*
X70973837Y-165177963D01*
X71078600Y-165051326D01*
X71148579Y-164902613D01*
X71179376Y-164741170D01*
X71169056Y-164577140D01*
X71118268Y-164420829D01*
X71030202Y-164282060D01*
X70981550Y-164236373D01*
X70904706Y-164164211D01*
X70906421Y-164162384D01*
X70871263Y-164116784D01*
X70865288Y-164047170D01*
X70897899Y-163985377D01*
X70913928Y-163971488D01*
X70973837Y-163927963D01*
X71078600Y-163801326D01*
X71148579Y-163652613D01*
X71179376Y-163491170D01*
X71169056Y-163327140D01*
X71118268Y-163170829D01*
X71030202Y-163032060D01*
X71016758Y-163019435D01*
X70904706Y-162914211D01*
X70906421Y-162912384D01*
X70871263Y-162866784D01*
X70865288Y-162797170D01*
X70897899Y-162735377D01*
X70913928Y-162721488D01*
X70973837Y-162677963D01*
X71078600Y-162551326D01*
X71148579Y-162402613D01*
X71179376Y-162241170D01*
X71169056Y-162077140D01*
X71118268Y-161920829D01*
X71105365Y-161900498D01*
X71061567Y-161831483D01*
X71030202Y-161782060D01*
X71030201Y-161782059D01*
X70910396Y-161669554D01*
X70910388Y-161669548D01*
X70766371Y-161590374D01*
X70766361Y-161590371D01*
X70607180Y-161549500D01*
X70607177Y-161549500D01*
X69984075Y-161549500D01*
X69984065Y-161549500D01*
X69861942Y-161564929D01*
X69861939Y-161564929D01*
X69709130Y-161625431D01*
X69709121Y-161625436D01*
X69576164Y-161722034D01*
X69576162Y-161722037D01*
X69471400Y-161848673D01*
X69401420Y-161997387D01*
X69386615Y-162075000D01*
X69370624Y-162158830D01*
X69370624Y-162158832D01*
X69370624Y-162158833D01*
X69380944Y-162322860D01*
X69431732Y-162479171D01*
X69431734Y-162479175D01*
X69519798Y-162617940D01*
X69645294Y-162735789D01*
X69643577Y-162737616D01*
X69678733Y-162783208D01*
X69684712Y-162852821D01*
X69652106Y-162914616D01*
X69636068Y-162928513D01*
X69576162Y-162972037D01*
X69471400Y-163098673D01*
X69401420Y-163247387D01*
X69381833Y-163350069D01*
X69370624Y-163408830D01*
X69370624Y-163408832D01*
X69370624Y-163408833D01*
X69380944Y-163572860D01*
X69431732Y-163729171D01*
X69431734Y-163729175D01*
X69519798Y-163867940D01*
X69645294Y-163985789D01*
X69643577Y-163987616D01*
X69678733Y-164033208D01*
X69684712Y-164102821D01*
X69652106Y-164164616D01*
X69636068Y-164178513D01*
X69576162Y-164222037D01*
X69471400Y-164348673D01*
X69401420Y-164497387D01*
X69386881Y-164573607D01*
X69370624Y-164658830D01*
X69370624Y-164658832D01*
X69370624Y-164658833D01*
X69380944Y-164822860D01*
X69431732Y-164979171D01*
X69431734Y-164979175D01*
X69519798Y-165117940D01*
X69645294Y-165235789D01*
X69643577Y-165237616D01*
X69678733Y-165283208D01*
X69684712Y-165352821D01*
X69652106Y-165414616D01*
X69636068Y-165428513D01*
X69576162Y-165472037D01*
X69471400Y-165598673D01*
X69401420Y-165747387D01*
X69386207Y-165827139D01*
X69370624Y-165908830D01*
X69370624Y-165908832D01*
X69370624Y-165908833D01*
X69380944Y-166072860D01*
X69431732Y-166229171D01*
X69431734Y-166229175D01*
X69519798Y-166367940D01*
X69645294Y-166485789D01*
X69643577Y-166487616D01*
X69678733Y-166533208D01*
X69684712Y-166602821D01*
X69652106Y-166664616D01*
X69636068Y-166678513D01*
X69576162Y-166722037D01*
X69471400Y-166848673D01*
X69401420Y-166997387D01*
X69383046Y-167093712D01*
X69370624Y-167158830D01*
X69370624Y-167158832D01*
X69370624Y-167158833D01*
X69380944Y-167322860D01*
X69431732Y-167479171D01*
X69431734Y-167479175D01*
X69519798Y-167617940D01*
X69645294Y-167735789D01*
X69643577Y-167737616D01*
X69678733Y-167783208D01*
X69684712Y-167852821D01*
X69652106Y-167914616D01*
X69636068Y-167928513D01*
X69576163Y-167972036D01*
X69573299Y-167975499D01*
X69571554Y-167977609D01*
X69569958Y-167979538D01*
X69512059Y-168018647D01*
X69474412Y-168024500D01*
X64856899Y-168024500D01*
X64789860Y-168004815D01*
X64769218Y-167988181D01*
X63788684Y-167007646D01*
X63755199Y-166946323D01*
X63753428Y-166936163D01*
X63736330Y-166806291D01*
X63692895Y-166701429D01*
X63692303Y-166700000D01*
X65044750Y-166700000D01*
X65055553Y-166782059D01*
X65063670Y-166843708D01*
X65063671Y-166843712D01*
X65119137Y-166977622D01*
X65119138Y-166977624D01*
X65119139Y-166977625D01*
X65207379Y-167092621D01*
X65322375Y-167180861D01*
X65456291Y-167236330D01*
X65583280Y-167253048D01*
X65599999Y-167255250D01*
X65600000Y-167255250D01*
X65600001Y-167255250D01*
X65614977Y-167253278D01*
X65743709Y-167236330D01*
X65877625Y-167180861D01*
X65992621Y-167092621D01*
X66080861Y-166977625D01*
X66136330Y-166843709D01*
X66155250Y-166700000D01*
X66136330Y-166556291D01*
X66094151Y-166454460D01*
X66080862Y-166422377D01*
X66080861Y-166422376D01*
X66080861Y-166422375D01*
X65992621Y-166307379D01*
X65877625Y-166219139D01*
X65877624Y-166219138D01*
X65877622Y-166219137D01*
X65743712Y-166163671D01*
X65743710Y-166163670D01*
X65743709Y-166163670D01*
X65659717Y-166152612D01*
X65600001Y-166144750D01*
X65599999Y-166144750D01*
X65456291Y-166163670D01*
X65456287Y-166163671D01*
X65322377Y-166219137D01*
X65207379Y-166307379D01*
X65119137Y-166422377D01*
X65063671Y-166556287D01*
X65063670Y-166556291D01*
X65061351Y-166573909D01*
X65044750Y-166700000D01*
X63692303Y-166700000D01*
X63680862Y-166672377D01*
X63680861Y-166672376D01*
X63680861Y-166672375D01*
X63592621Y-166557379D01*
X63477625Y-166469139D01*
X63477624Y-166469138D01*
X63477622Y-166469137D01*
X63343712Y-166413671D01*
X63343710Y-166413670D01*
X63343709Y-166413670D01*
X63239877Y-166400000D01*
X63200001Y-166394750D01*
X63199999Y-166394750D01*
X63056291Y-166413670D01*
X63056290Y-166413670D01*
X62987872Y-166442009D01*
X62918402Y-166449476D01*
X62855924Y-166418200D01*
X62820272Y-166358111D01*
X62822767Y-166288286D01*
X62825848Y-166280023D01*
X62865860Y-166183427D01*
X62884780Y-166039718D01*
X62865860Y-165896009D01*
X62818637Y-165782000D01*
X62810392Y-165762095D01*
X62810391Y-165762094D01*
X62810391Y-165762093D01*
X62739880Y-165670202D01*
X62714687Y-165605035D01*
X62728725Y-165536590D01*
X62762772Y-165496341D01*
X62767621Y-165492621D01*
X62855861Y-165377625D01*
X62911330Y-165243709D01*
X62930250Y-165100000D01*
X62911330Y-164956291D01*
X62855861Y-164822375D01*
X62767621Y-164707379D01*
X62652625Y-164619139D01*
X62652624Y-164619138D01*
X62652622Y-164619137D01*
X62518712Y-164563671D01*
X62518710Y-164563670D01*
X62518709Y-164563670D01*
X62446854Y-164554210D01*
X62375001Y-164544750D01*
X62374999Y-164544750D01*
X62231291Y-164563670D01*
X62231287Y-164563671D01*
X62097377Y-164619137D01*
X61982379Y-164707379D01*
X61894137Y-164822377D01*
X61838671Y-164956287D01*
X61838670Y-164956291D01*
X61821648Y-165085587D01*
X61819750Y-165100000D01*
X61837940Y-165238168D01*
X61838670Y-165243708D01*
X61838671Y-165243712D01*
X61894137Y-165377622D01*
X61894138Y-165377624D01*
X61894139Y-165377625D01*
X61961545Y-165465470D01*
X61964648Y-165469513D01*
X61989842Y-165534683D01*
X61975804Y-165603128D01*
X61941761Y-165643374D01*
X61936910Y-165647095D01*
X61848667Y-165762095D01*
X61793201Y-165896005D01*
X61793200Y-165896009D01*
X61774280Y-166039717D01*
X61774280Y-166039718D01*
X61793200Y-166183426D01*
X61793201Y-166183430D01*
X61848667Y-166317340D01*
X61848668Y-166317342D01*
X61848669Y-166317343D01*
X61936909Y-166432339D01*
X62051905Y-166520579D01*
X62051906Y-166520579D01*
X62051907Y-166520580D01*
X62096543Y-166539068D01*
X62185821Y-166576048D01*
X62312810Y-166592766D01*
X62329529Y-166594968D01*
X62329530Y-166594968D01*
X62329531Y-166594968D01*
X62344507Y-166592996D01*
X62473239Y-166576048D01*
X62541656Y-166547708D01*
X62611125Y-166540240D01*
X62673604Y-166571515D01*
X62709256Y-166631604D01*
X62706762Y-166701429D01*
X62703669Y-166709722D01*
X62663671Y-166806287D01*
X62663670Y-166806291D01*
X62646507Y-166936658D01*
X62644750Y-166950000D01*
X62661488Y-167077139D01*
X62663670Y-167093708D01*
X62663671Y-167093712D01*
X62719137Y-167227622D01*
X62719138Y-167227624D01*
X62719139Y-167227625D01*
X62807379Y-167342621D01*
X62922375Y-167430861D01*
X62922376Y-167430861D01*
X62922377Y-167430862D01*
X63011461Y-167467761D01*
X63065865Y-167511601D01*
X63087930Y-167577895D01*
X63070651Y-167645595D01*
X63019514Y-167693205D01*
X63011462Y-167696883D01*
X62897376Y-167744138D01*
X62782379Y-167832379D01*
X62694137Y-167947377D01*
X62638671Y-168081287D01*
X62638670Y-168081291D01*
X62619750Y-168224999D01*
X62619750Y-168225000D01*
X62638670Y-168368708D01*
X62638671Y-168368712D01*
X62694137Y-168502622D01*
X62694138Y-168502624D01*
X62694139Y-168502625D01*
X62782379Y-168617621D01*
X62897375Y-168705861D01*
X63031291Y-168761330D01*
X63161151Y-168778426D01*
X63225047Y-168806692D01*
X63232646Y-168813684D01*
X63822850Y-169403888D01*
X63838975Y-169423744D01*
X63844913Y-169432832D01*
X63844916Y-169432836D01*
X63861487Y-169445734D01*
X63872925Y-169454636D01*
X63878687Y-169459725D01*
X63881482Y-169462520D01*
X63900495Y-169476094D01*
X63943811Y-169509809D01*
X63943818Y-169509811D01*
X63950720Y-169513547D01*
X63957796Y-169517006D01*
X63957801Y-169517010D01*
X64004327Y-169530861D01*
X64010403Y-169532670D01*
X64062338Y-169550500D01*
X64070072Y-169551790D01*
X64077910Y-169552767D01*
X64077912Y-169552768D01*
X64077913Y-169552767D01*
X64077914Y-169552768D01*
X64132756Y-169550500D01*
X64247979Y-169550500D01*
X64315018Y-169570185D01*
X64360773Y-169622989D01*
X64370717Y-169692147D01*
X64341692Y-169755703D01*
X64291312Y-169790682D01*
X64182671Y-169831202D01*
X64182669Y-169831203D01*
X64067453Y-169917453D01*
X63981203Y-170032669D01*
X63981202Y-170032671D01*
X63930910Y-170167511D01*
X63929127Y-170175059D01*
X63926854Y-170174522D01*
X63904573Y-170228309D01*
X63847180Y-170268156D01*
X63808024Y-170274500D01*
X60274500Y-170274500D01*
X60207461Y-170254815D01*
X60161706Y-170202011D01*
X60150500Y-170150500D01*
X60150500Y-167987235D01*
X60170185Y-167920196D01*
X60200185Y-167887972D01*
X60264687Y-167839687D01*
X60346628Y-167730226D01*
X60394412Y-167602114D01*
X60397944Y-167569258D01*
X60400499Y-167545501D01*
X60400499Y-167545490D01*
X60400500Y-167545485D01*
X60400499Y-166954516D01*
X60394412Y-166897886D01*
X60346628Y-166769774D01*
X60264687Y-166660313D01*
X60200188Y-166612030D01*
X60158318Y-166556097D01*
X60150500Y-166512764D01*
X60150500Y-166397235D01*
X60170185Y-166330196D01*
X60200185Y-166297972D01*
X60264687Y-166249687D01*
X60346628Y-166140226D01*
X60394412Y-166012114D01*
X60397193Y-165986249D01*
X60400499Y-165955501D01*
X60400499Y-165955494D01*
X60400500Y-165955485D01*
X60400499Y-165364516D01*
X60394412Y-165307886D01*
X60393422Y-165305233D01*
X60370474Y-165243708D01*
X60346628Y-165179774D01*
X60264687Y-165070313D01*
X60198911Y-165021074D01*
X60155228Y-164988373D01*
X60155226Y-164988372D01*
X60027114Y-164940588D01*
X60027112Y-164940587D01*
X60027110Y-164940587D01*
X59970493Y-164934500D01*
X59429518Y-164934500D01*
X59429509Y-164934501D01*
X59372885Y-164940587D01*
X59244771Y-164988373D01*
X59244770Y-164988373D01*
X59135318Y-165070307D01*
X59135313Y-165070312D01*
X59135313Y-165070313D01*
X59133770Y-165072375D01*
X59131944Y-165074814D01*
X59076009Y-165116683D01*
X59032679Y-165124500D01*
X58121177Y-165124500D01*
X58054138Y-165104815D01*
X58008383Y-165052011D01*
X57998238Y-164984314D01*
X58001785Y-164957379D01*
X58009339Y-164899998D01*
X57990419Y-164756289D01*
X57943261Y-164642437D01*
X57934951Y-164622375D01*
X57934950Y-164622374D01*
X57934950Y-164622373D01*
X57846710Y-164507377D01*
X57846708Y-164507376D01*
X57846708Y-164507375D01*
X57825156Y-164490838D01*
X57801746Y-164472874D01*
X57760544Y-164416448D01*
X57756389Y-164346702D01*
X57790601Y-164285782D01*
X57852319Y-164253029D01*
X57877233Y-164250500D01*
X57998196Y-164250500D01*
X58023641Y-164253139D01*
X58027440Y-164253935D01*
X58034268Y-164255367D01*
X58055225Y-164252754D01*
X58069492Y-164250977D01*
X58077168Y-164250500D01*
X58081112Y-164250500D01*
X58081114Y-164250500D01*
X58081116Y-164250499D01*
X58081122Y-164250499D01*
X58096487Y-164247934D01*
X58104140Y-164246657D01*
X58158626Y-164239866D01*
X58158627Y-164239865D01*
X58158629Y-164239865D01*
X58166141Y-164237628D01*
X58173606Y-164235066D01*
X58173606Y-164235065D01*
X58173610Y-164235065D01*
X58221877Y-164208944D01*
X58271211Y-164184826D01*
X58271214Y-164184823D01*
X58277594Y-164180268D01*
X58283819Y-164175422D01*
X58283826Y-164175419D01*
X58321008Y-164135028D01*
X58542352Y-163913683D01*
X58603673Y-163880200D01*
X58613839Y-163878427D01*
X58743709Y-163861330D01*
X58877625Y-163805861D01*
X58992621Y-163717621D01*
X59080861Y-163602625D01*
X59136330Y-163468709D01*
X59155250Y-163325000D01*
X59136330Y-163181291D01*
X59080861Y-163047375D01*
X58992621Y-162932379D01*
X58877625Y-162844139D01*
X58877624Y-162844138D01*
X58877622Y-162844137D01*
X58743712Y-162788671D01*
X58743710Y-162788670D01*
X58743709Y-162788670D01*
X58636596Y-162774568D01*
X58600001Y-162769750D01*
X58599999Y-162769750D01*
X58456291Y-162788670D01*
X58456287Y-162788671D01*
X58331879Y-162840202D01*
X58262410Y-162847671D01*
X58203185Y-162818024D01*
X58203082Y-162818159D01*
X58202382Y-162817622D01*
X58199931Y-162816395D01*
X58196746Y-162813322D01*
X58196639Y-162813215D01*
X58196636Y-162813213D01*
X58196635Y-162813211D01*
X58081639Y-162724971D01*
X58081638Y-162724970D01*
X58081636Y-162724969D01*
X58042548Y-162708779D01*
X57988144Y-162664939D01*
X57966079Y-162598645D01*
X57983358Y-162530945D01*
X58034495Y-162483334D01*
X58042523Y-162479667D01*
X58146275Y-162436693D01*
X58261271Y-162348453D01*
X58349511Y-162233457D01*
X58404980Y-162099541D01*
X58423900Y-161955832D01*
X58404980Y-161812123D01*
X58360932Y-161705779D01*
X58349512Y-161678209D01*
X58349511Y-161678208D01*
X58349511Y-161678207D01*
X58261271Y-161563211D01*
X58146275Y-161474971D01*
X58146274Y-161474970D01*
X58146272Y-161474969D01*
X58012362Y-161419503D01*
X58012360Y-161419502D01*
X58012359Y-161419502D01*
X57989449Y-161416485D01*
X57925554Y-161388219D01*
X57887084Y-161329894D01*
X57882699Y-161309741D01*
X57864463Y-161171220D01*
X57808994Y-161037304D01*
X57720754Y-160922308D01*
X57605758Y-160834068D01*
X57605757Y-160834067D01*
X57605755Y-160834066D01*
X57471845Y-160778600D01*
X57471843Y-160778599D01*
X57471842Y-160778599D01*
X57399987Y-160769139D01*
X57328134Y-160759679D01*
X57328131Y-160759679D01*
X57240685Y-160771191D01*
X57171649Y-160760425D01*
X57119394Y-160714045D01*
X57100500Y-160648252D01*
X57100500Y-159986092D01*
X57120185Y-159919053D01*
X57138114Y-159899609D01*
X57136874Y-159898369D01*
X57142619Y-159892623D01*
X57151168Y-159881482D01*
X57230861Y-159777625D01*
X57286330Y-159643709D01*
X57305250Y-159500000D01*
X57303743Y-159488557D01*
X57301598Y-159472261D01*
X57286330Y-159356291D01*
X57230861Y-159222375D01*
X57142621Y-159107379D01*
X57027625Y-159019139D01*
X57027622Y-159019138D01*
X57021177Y-159014192D01*
X57022932Y-159011904D01*
X56984317Y-158971412D01*
X56971089Y-158902806D01*
X56997051Y-158837939D01*
X57053963Y-158797406D01*
X57078339Y-158791644D01*
X57118709Y-158786330D01*
X57252625Y-158730861D01*
X57367621Y-158642621D01*
X57398319Y-158602613D01*
X57454745Y-158561412D01*
X57524491Y-158557257D01*
X57571003Y-158578834D01*
X57581270Y-158586519D01*
X57592990Y-158595293D01*
X57594774Y-158596628D01*
X57722886Y-158644412D01*
X57779515Y-158650500D01*
X58318100Y-158650499D01*
X58385139Y-158670183D01*
X58405781Y-158686818D01*
X58563181Y-158844218D01*
X58596666Y-158905541D01*
X58599500Y-158931899D01*
X58599500Y-158982019D01*
X58579815Y-159049058D01*
X58549134Y-159081789D01*
X58452850Y-159152850D01*
X58372207Y-159262117D01*
X58372206Y-159262119D01*
X58327353Y-159390298D01*
X58327353Y-159390300D01*
X58324500Y-159420730D01*
X58324500Y-160079269D01*
X58327353Y-160109699D01*
X58327353Y-160109701D01*
X58372164Y-160237759D01*
X58372207Y-160237882D01*
X58452850Y-160347150D01*
X58562118Y-160427793D01*
X58594320Y-160439061D01*
X58690299Y-160472646D01*
X58720730Y-160475500D01*
X58720734Y-160475500D01*
X59229270Y-160475500D01*
X59259699Y-160472646D01*
X59259701Y-160472646D01*
X59325847Y-160449500D01*
X59387882Y-160427793D01*
X59497150Y-160347150D01*
X59577793Y-160237882D01*
X59600219Y-160173790D01*
X59622646Y-160109701D01*
X59622646Y-160109699D01*
X59625500Y-160079269D01*
X59625500Y-159420730D01*
X59622646Y-159390300D01*
X59622646Y-159390298D01*
X59586505Y-159287016D01*
X59577793Y-159262118D01*
X59497150Y-159152850D01*
X59431647Y-159104507D01*
X59400866Y-159081789D01*
X59358615Y-159026141D01*
X59350500Y-158982019D01*
X59350500Y-158776803D01*
X59353139Y-158751358D01*
X59353177Y-158751175D01*
X59355367Y-158740732D01*
X59352489Y-158717639D01*
X59350977Y-158705507D01*
X59350500Y-158697831D01*
X59350500Y-158693890D01*
X59350499Y-158693881D01*
X59349320Y-158686818D01*
X59348585Y-158682412D01*
X59346657Y-158670856D01*
X59342049Y-158633886D01*
X59339866Y-158616375D01*
X59339865Y-158616373D01*
X59337621Y-158608837D01*
X59335066Y-158601392D01*
X59308941Y-158553118D01*
X59305212Y-158545490D01*
X59284826Y-158503789D01*
X59284823Y-158503786D01*
X59284823Y-158503785D01*
X59280280Y-158497421D01*
X59275420Y-158491176D01*
X59275419Y-158491174D01*
X59269947Y-158486137D01*
X59235029Y-158453992D01*
X58786818Y-158005780D01*
X58753333Y-157944457D01*
X58750499Y-157918099D01*
X58750499Y-157379518D01*
X58750498Y-157379509D01*
X58744412Y-157322885D01*
X58710895Y-157233026D01*
X58696628Y-157194774D01*
X58614687Y-157085313D01*
X58530611Y-157022375D01*
X58505228Y-157003373D01*
X58505226Y-157003372D01*
X58377114Y-156955588D01*
X58377112Y-156955587D01*
X58377110Y-156955587D01*
X58320493Y-156949500D01*
X57779518Y-156949500D01*
X57779509Y-156949501D01*
X57722885Y-156955587D01*
X57594773Y-157003372D01*
X57485313Y-157085313D01*
X57403373Y-157194771D01*
X57355587Y-157322889D01*
X57352539Y-157351239D01*
X57325800Y-157415790D01*
X57288266Y-157447037D01*
X57253123Y-157466054D01*
X57203792Y-157490171D01*
X57197375Y-157494753D01*
X57191175Y-157499579D01*
X57153991Y-157539970D01*
X57032644Y-157661316D01*
X56971320Y-157694800D01*
X56961149Y-157696573D01*
X56856277Y-157710380D01*
X56831291Y-157713670D01*
X56831290Y-157713670D01*
X56831287Y-157713671D01*
X56697377Y-157769137D01*
X56681538Y-157781291D01*
X56582379Y-157857379D01*
X56582378Y-157857380D01*
X56582377Y-157857381D01*
X56522874Y-157934926D01*
X56466446Y-157976129D01*
X56396700Y-157980283D01*
X56335780Y-157946070D01*
X56303028Y-157884352D01*
X56300499Y-157859439D01*
X56300499Y-157704518D01*
X56300498Y-157704509D01*
X56299454Y-157694800D01*
X56294412Y-157647886D01*
X56294222Y-157647377D01*
X56274395Y-157594218D01*
X56246628Y-157519774D01*
X56164687Y-157410313D01*
X56067930Y-157337882D01*
X56055228Y-157328373D01*
X56055226Y-157328372D01*
X55927114Y-157280588D01*
X55927112Y-157280587D01*
X55927110Y-157280587D01*
X55870493Y-157274500D01*
X55329518Y-157274500D01*
X55329509Y-157274501D01*
X55272887Y-157280587D01*
X55242834Y-157291797D01*
X55173142Y-157296781D01*
X55111819Y-157263296D01*
X55078334Y-157201973D01*
X55075500Y-157175615D01*
X55075500Y-156456898D01*
X55095185Y-156389859D01*
X55111815Y-156369221D01*
X55352352Y-156128683D01*
X55413673Y-156095200D01*
X55423839Y-156093427D01*
X55553709Y-156076330D01*
X55687625Y-156020861D01*
X55739482Y-155981069D01*
X55804647Y-155955876D01*
X55873092Y-155969914D01*
X55923082Y-156018727D01*
X55929527Y-156031993D01*
X55965446Y-156118709D01*
X55969139Y-156127625D01*
X56057379Y-156242621D01*
X56172375Y-156330861D01*
X56306291Y-156386330D01*
X56431148Y-156402768D01*
X56449999Y-156405250D01*
X56450000Y-156405250D01*
X56450001Y-156405250D01*
X56468229Y-156402850D01*
X56593709Y-156386330D01*
X56727625Y-156330861D01*
X56842621Y-156242621D01*
X56930861Y-156127625D01*
X56986330Y-155993709D01*
X57005250Y-155850000D01*
X56986823Y-155710032D01*
X57347250Y-155710032D01*
X57365677Y-155850000D01*
X57366170Y-155853740D01*
X57366171Y-155853744D01*
X57421637Y-155987654D01*
X57421638Y-155987656D01*
X57421639Y-155987657D01*
X57509879Y-156102653D01*
X57624875Y-156190893D01*
X57758791Y-156246362D01*
X57883945Y-156262839D01*
X57943919Y-156287923D01*
X57953003Y-156294993D01*
X57965396Y-156304638D01*
X57971146Y-156309716D01*
X57973950Y-156312520D01*
X57992963Y-156326094D01*
X58036279Y-156359809D01*
X58036286Y-156359811D01*
X58043188Y-156363547D01*
X58050264Y-156367006D01*
X58050269Y-156367010D01*
X58102871Y-156382670D01*
X58154806Y-156400500D01*
X58162540Y-156401790D01*
X58170378Y-156402767D01*
X58170380Y-156402768D01*
X58170381Y-156402767D01*
X58170382Y-156402768D01*
X58225224Y-156400500D01*
X59368101Y-156400500D01*
X59435140Y-156420185D01*
X59455782Y-156436819D01*
X60613181Y-157594218D01*
X60646666Y-157655541D01*
X60649500Y-157681899D01*
X60649500Y-157918099D01*
X60629815Y-157985138D01*
X60613181Y-158005780D01*
X60271108Y-158347852D01*
X60251254Y-158363976D01*
X60242165Y-158369914D01*
X60242164Y-158369915D01*
X60220363Y-158397923D01*
X60215286Y-158403674D01*
X60212484Y-158406477D01*
X60212474Y-158406488D01*
X60198905Y-158425495D01*
X60165192Y-158468808D01*
X60161447Y-158475729D01*
X60157988Y-158482804D01*
X60142329Y-158535403D01*
X60124500Y-158587338D01*
X60123206Y-158595092D01*
X60122231Y-158602911D01*
X60124500Y-158657755D01*
X60124500Y-159082711D01*
X60104815Y-159149750D01*
X60100271Y-159156344D01*
X60022207Y-159262118D01*
X60022206Y-159262119D01*
X59977353Y-159390298D01*
X59977353Y-159390300D01*
X59974500Y-159420730D01*
X59974500Y-160079269D01*
X59977353Y-160109699D01*
X59977353Y-160109701D01*
X60022164Y-160237759D01*
X60022207Y-160237882D01*
X60102850Y-160347150D01*
X60212118Y-160427793D01*
X60244320Y-160439061D01*
X60340299Y-160472646D01*
X60370730Y-160475500D01*
X60370734Y-160475500D01*
X60879270Y-160475500D01*
X60909699Y-160472646D01*
X60909701Y-160472646D01*
X60975847Y-160449500D01*
X61037882Y-160427793D01*
X61147150Y-160347150D01*
X61227793Y-160237882D01*
X61250219Y-160173790D01*
X61272646Y-160109701D01*
X61272646Y-160109699D01*
X61275500Y-160079269D01*
X61275500Y-159420730D01*
X61272646Y-159390300D01*
X61272646Y-159390298D01*
X61236505Y-159287016D01*
X61227793Y-159262118D01*
X61147150Y-159152850D01*
X61037882Y-159072207D01*
X61000499Y-159059126D01*
X60958544Y-159044445D01*
X60901769Y-159003723D01*
X60876022Y-158938770D01*
X60875500Y-158927404D01*
X60875500Y-158856899D01*
X60895185Y-158789860D01*
X60911814Y-158769221D01*
X60994219Y-158686816D01*
X61055540Y-158653333D01*
X61081889Y-158650499D01*
X61620484Y-158650499D01*
X61677114Y-158644412D01*
X61805226Y-158596628D01*
X61914687Y-158514687D01*
X61996628Y-158405226D01*
X62044412Y-158277114D01*
X62050178Y-158223482D01*
X62050499Y-158220501D01*
X62050499Y-158220494D01*
X62050500Y-158220485D01*
X62050499Y-157379516D01*
X62044412Y-157322886D01*
X62043251Y-157319774D01*
X62010895Y-157233026D01*
X61996628Y-157194774D01*
X61914687Y-157085313D01*
X61830611Y-157022375D01*
X61805228Y-157003373D01*
X61805226Y-157003372D01*
X61677114Y-156955588D01*
X61677112Y-156955587D01*
X61677110Y-156955587D01*
X61620501Y-156949500D01*
X61081900Y-156949500D01*
X61014861Y-156929815D01*
X60994219Y-156913181D01*
X59877149Y-155796111D01*
X59861022Y-155776252D01*
X59855086Y-155767167D01*
X59855083Y-155767163D01*
X59827074Y-155745363D01*
X59821310Y-155740272D01*
X59818515Y-155737477D01*
X59799505Y-155723906D01*
X59794196Y-155719774D01*
X59786067Y-155713446D01*
X59756189Y-155690190D01*
X59749274Y-155686448D01*
X59742200Y-155682990D01*
X59689596Y-155667329D01*
X59637658Y-155649499D01*
X59629923Y-155648208D01*
X59622085Y-155647231D01*
X59567244Y-155649500D01*
X58556137Y-155649500D01*
X58502782Y-155633833D01*
X69370624Y-155633833D01*
X69380944Y-155797860D01*
X69431732Y-155954171D01*
X69431734Y-155954175D01*
X69519797Y-156092940D01*
X69588692Y-156157636D01*
X69624086Y-156217877D01*
X69621294Y-156287691D01*
X69581200Y-156344912D01*
X69577443Y-156347798D01*
X69561169Y-156359809D01*
X69504287Y-156401790D01*
X69502849Y-156402851D01*
X69422207Y-156512117D01*
X69422206Y-156512119D01*
X69377353Y-156640298D01*
X69377353Y-156640300D01*
X69374500Y-156670730D01*
X69374500Y-157179269D01*
X69377353Y-157209699D01*
X69377353Y-157209701D01*
X69419985Y-157331532D01*
X69422207Y-157337882D01*
X69502850Y-157447150D01*
X69612118Y-157527793D01*
X69646918Y-157539970D01*
X69740299Y-157572646D01*
X69770730Y-157575500D01*
X69770734Y-157575500D01*
X70779270Y-157575500D01*
X70809699Y-157572646D01*
X70809701Y-157572646D01*
X70873790Y-157550219D01*
X70937882Y-157527793D01*
X71047150Y-157447150D01*
X71127793Y-157337882D01*
X71158369Y-157250500D01*
X71172646Y-157209701D01*
X71172646Y-157209699D01*
X71175500Y-157179269D01*
X71175500Y-156670730D01*
X71172646Y-156640300D01*
X71172646Y-156640298D01*
X71139006Y-156544163D01*
X71127793Y-156512118D01*
X71047150Y-156402850D01*
X71047148Y-156402849D01*
X71047148Y-156402848D01*
X70976408Y-156350640D01*
X70934157Y-156294993D01*
X70928698Y-156225337D01*
X70961765Y-156163787D01*
X70968238Y-156158220D01*
X70973832Y-156152966D01*
X70973837Y-156152963D01*
X71078600Y-156026326D01*
X71148579Y-155877613D01*
X71179376Y-155716170D01*
X71169056Y-155552140D01*
X71118268Y-155395829D01*
X71030202Y-155257060D01*
X70966284Y-155197037D01*
X70904706Y-155139211D01*
X70906421Y-155137384D01*
X70871263Y-155091784D01*
X70865288Y-155022170D01*
X70897899Y-154960377D01*
X70913928Y-154946488D01*
X70973837Y-154902963D01*
X71078600Y-154776326D01*
X71148579Y-154627613D01*
X71179376Y-154466170D01*
X71169056Y-154302140D01*
X71118268Y-154145829D01*
X71030202Y-154007060D01*
X71012580Y-153990512D01*
X70910396Y-153894554D01*
X70910388Y-153894548D01*
X70766371Y-153815374D01*
X70766361Y-153815371D01*
X70607180Y-153774500D01*
X70607177Y-153774500D01*
X69984075Y-153774500D01*
X69984065Y-153774500D01*
X69861942Y-153789929D01*
X69861939Y-153789929D01*
X69709130Y-153850431D01*
X69709121Y-153850436D01*
X69576164Y-153947034D01*
X69576162Y-153947037D01*
X69471400Y-154073673D01*
X69401420Y-154222387D01*
X69386207Y-154302139D01*
X69370624Y-154383830D01*
X69370624Y-154383832D01*
X69370624Y-154383833D01*
X69380944Y-154547860D01*
X69431732Y-154704171D01*
X69431734Y-154704175D01*
X69519798Y-154842940D01*
X69645294Y-154960789D01*
X69643577Y-154962616D01*
X69678733Y-155008208D01*
X69684712Y-155077821D01*
X69652106Y-155139616D01*
X69636068Y-155153513D01*
X69576162Y-155197037D01*
X69471400Y-155323673D01*
X69401420Y-155472387D01*
X69390741Y-155528372D01*
X69370624Y-155633830D01*
X69370624Y-155633832D01*
X69370624Y-155633833D01*
X58502782Y-155633833D01*
X58489098Y-155629815D01*
X58443343Y-155577011D01*
X58441576Y-155572952D01*
X58383362Y-155432409D01*
X58383361Y-155432408D01*
X58383361Y-155432407D01*
X58295121Y-155317411D01*
X58180125Y-155229171D01*
X58180124Y-155229170D01*
X58180122Y-155229169D01*
X58046212Y-155173703D01*
X58046210Y-155173702D01*
X58046209Y-155173702D01*
X57974354Y-155164242D01*
X57902501Y-155154782D01*
X57902499Y-155154782D01*
X57758791Y-155173702D01*
X57758787Y-155173703D01*
X57624877Y-155229169D01*
X57509879Y-155317411D01*
X57421637Y-155432409D01*
X57366171Y-155566319D01*
X57366170Y-155566323D01*
X57347743Y-155706291D01*
X57347250Y-155710032D01*
X56986823Y-155710032D01*
X56986330Y-155706291D01*
X56939697Y-155593707D01*
X56930862Y-155572377D01*
X56930861Y-155572376D01*
X56930861Y-155572375D01*
X56842621Y-155457379D01*
X56727625Y-155369139D01*
X56727624Y-155369138D01*
X56727622Y-155369137D01*
X56593712Y-155313671D01*
X56593710Y-155313670D01*
X56593709Y-155313670D01*
X56521854Y-155304210D01*
X56450001Y-155294750D01*
X56449999Y-155294750D01*
X56306291Y-155313670D01*
X56306287Y-155313671D01*
X56172376Y-155369138D01*
X56172374Y-155369139D01*
X56120519Y-155408929D01*
X56055350Y-155434123D01*
X55986905Y-155420084D01*
X55936915Y-155371270D01*
X55930472Y-155358005D01*
X55890862Y-155262377D01*
X55890861Y-155262376D01*
X55890861Y-155262375D01*
X55802621Y-155147379D01*
X55687625Y-155059139D01*
X55687624Y-155059138D01*
X55687622Y-155059137D01*
X55553712Y-155003671D01*
X55553710Y-155003670D01*
X55553709Y-155003670D01*
X55481854Y-154994210D01*
X55410001Y-154984750D01*
X55409999Y-154984750D01*
X55266291Y-155003670D01*
X55266287Y-155003671D01*
X55132377Y-155059137D01*
X55017379Y-155147379D01*
X54929137Y-155262377D01*
X54873671Y-155396287D01*
X54873670Y-155396290D01*
X54873670Y-155396291D01*
X54872806Y-155402851D01*
X54856573Y-155526151D01*
X54828306Y-155590047D01*
X54821322Y-155597638D01*
X54808649Y-155610312D01*
X54802628Y-155616333D01*
X54741304Y-155649816D01*
X54671612Y-155644830D01*
X54615680Y-155602957D01*
X54597910Y-155569610D01*
X54577793Y-155512118D01*
X54497150Y-155402850D01*
X54387882Y-155322207D01*
X54387880Y-155322206D01*
X54259700Y-155277353D01*
X54229270Y-155274500D01*
X54229266Y-155274500D01*
X53570734Y-155274500D01*
X53570730Y-155274500D01*
X53540300Y-155277353D01*
X53540298Y-155277353D01*
X53412119Y-155322206D01*
X53412117Y-155322207D01*
X53302848Y-155402851D01*
X53231790Y-155499133D01*
X53176143Y-155541384D01*
X53132020Y-155549500D01*
X53067980Y-155549500D01*
X53000941Y-155529815D01*
X52968210Y-155499133D01*
X52897151Y-155402851D01*
X52888262Y-155396291D01*
X52787882Y-155322207D01*
X52787880Y-155322206D01*
X52659700Y-155277353D01*
X52629270Y-155274500D01*
X52629266Y-155274500D01*
X51970734Y-155274500D01*
X51970730Y-155274500D01*
X51940300Y-155277353D01*
X51940298Y-155277353D01*
X51812119Y-155322206D01*
X51812117Y-155322207D01*
X51702848Y-155402851D01*
X51631790Y-155499133D01*
X51576143Y-155541384D01*
X51532020Y-155549500D01*
X51341152Y-155549500D01*
X51274113Y-155529815D01*
X51230668Y-155481796D01*
X51230052Y-155480587D01*
X51228050Y-155476658D01*
X51228047Y-155476655D01*
X51228045Y-155476652D01*
X51138347Y-155386954D01*
X51138343Y-155386951D01*
X51138342Y-155386950D01*
X51135599Y-155385552D01*
X51047147Y-155340483D01*
X50996352Y-155292509D01*
X50979557Y-155224687D01*
X51002095Y-155158553D01*
X51047145Y-155119517D01*
X51138342Y-155073050D01*
X51204574Y-155006817D01*
X51265895Y-154973334D01*
X51292254Y-154970500D01*
X51928196Y-154970500D01*
X51953641Y-154973139D01*
X51957440Y-154973935D01*
X51964268Y-154975367D01*
X51985225Y-154972754D01*
X51999492Y-154970977D01*
X52007168Y-154970500D01*
X52011112Y-154970500D01*
X52011114Y-154970500D01*
X52011116Y-154970499D01*
X52011122Y-154970499D01*
X52026487Y-154967934D01*
X52034140Y-154966657D01*
X52088626Y-154959866D01*
X52088627Y-154959865D01*
X52088629Y-154959865D01*
X52096141Y-154957628D01*
X52103606Y-154955066D01*
X52103606Y-154955065D01*
X52103610Y-154955065D01*
X52130625Y-154940444D01*
X52189642Y-154925500D01*
X52629270Y-154925500D01*
X52659699Y-154922646D01*
X52659701Y-154922646D01*
X52739427Y-154894748D01*
X52787882Y-154877793D01*
X52897150Y-154797150D01*
X52977793Y-154687882D01*
X53006276Y-154606483D01*
X53022646Y-154559701D01*
X53022646Y-154559699D01*
X53025500Y-154529269D01*
X53025500Y-154131900D01*
X53045185Y-154064861D01*
X53061819Y-154044218D01*
X53144220Y-153961818D01*
X53205544Y-153928334D01*
X53231901Y-153925500D01*
X54568101Y-153925500D01*
X54635140Y-153945185D01*
X54655782Y-153961819D01*
X54773765Y-154079802D01*
X54800645Y-154120030D01*
X54843042Y-154222387D01*
X54843769Y-154224141D01*
X54932009Y-154339137D01*
X55047005Y-154427377D01*
X55047006Y-154427377D01*
X55047007Y-154427378D01*
X55091643Y-154445866D01*
X55180921Y-154482846D01*
X55307910Y-154499564D01*
X55324629Y-154501766D01*
X55324630Y-154501766D01*
X55324631Y-154501766D01*
X55339607Y-154499794D01*
X55468339Y-154482846D01*
X55602255Y-154427377D01*
X55717251Y-154339137D01*
X55805491Y-154224141D01*
X55860960Y-154090225D01*
X55879880Y-153946516D01*
X55860960Y-153802807D01*
X55805491Y-153668891D01*
X55717251Y-153553895D01*
X55602255Y-153465655D01*
X55602254Y-153465654D01*
X55602252Y-153465653D01*
X55468342Y-153410187D01*
X55468340Y-153410186D01*
X55468339Y-153410186D01*
X55396484Y-153400726D01*
X55324631Y-153391266D01*
X55324626Y-153391266D01*
X55228558Y-153403913D01*
X55159523Y-153393147D01*
X55124693Y-153368655D01*
X55107011Y-153350973D01*
X55073526Y-153289650D01*
X55078510Y-153219958D01*
X55096316Y-153187805D01*
X55098366Y-153185134D01*
X55180861Y-153077625D01*
X55236330Y-152943709D01*
X55255250Y-152800000D01*
X55236330Y-152656291D01*
X55180861Y-152522375D01*
X55092621Y-152407379D01*
X55084969Y-152401507D01*
X55057351Y-152372019D01*
X55055601Y-152369399D01*
X54972740Y-152314034D01*
X54972741Y-152314034D01*
X54971521Y-152313791D01*
X54970400Y-152313568D01*
X54947150Y-152306515D01*
X54843710Y-152263670D01*
X54700001Y-152244750D01*
X54699999Y-152244750D01*
X54556293Y-152263669D01*
X54556291Y-152263670D01*
X54492572Y-152290062D01*
X54445124Y-152299500D01*
X54200323Y-152299500D01*
X54127264Y-152314032D01*
X54127260Y-152314033D01*
X54044399Y-152369399D01*
X53989033Y-152452260D01*
X53989032Y-152452264D01*
X53974500Y-152525321D01*
X53974500Y-152974678D01*
X53984770Y-153026309D01*
X53978543Y-153095901D01*
X53935680Y-153151078D01*
X53869790Y-153174322D01*
X53863153Y-153174500D01*
X53076803Y-153174500D01*
X53051358Y-153171861D01*
X53040732Y-153169633D01*
X53040729Y-153169633D01*
X53005507Y-153174023D01*
X52997831Y-153174500D01*
X52993886Y-153174500D01*
X52976615Y-153177381D01*
X52970858Y-153178342D01*
X52916370Y-153185134D01*
X52908857Y-153187371D01*
X52901387Y-153189936D01*
X52853122Y-153216055D01*
X52803792Y-153240171D01*
X52797375Y-153244753D01*
X52791175Y-153249578D01*
X52759111Y-153284409D01*
X52753992Y-153289970D01*
X52593534Y-153450429D01*
X52455782Y-153588181D01*
X52394459Y-153621666D01*
X52368101Y-153624500D01*
X51970730Y-153624500D01*
X51940300Y-153627353D01*
X51940298Y-153627353D01*
X51812119Y-153672206D01*
X51812117Y-153672207D01*
X51702850Y-153752850D01*
X51622207Y-153862117D01*
X51622206Y-153862119D01*
X51577353Y-153990298D01*
X51577353Y-153990300D01*
X51574500Y-154020730D01*
X51574500Y-154095500D01*
X51554815Y-154162539D01*
X51502011Y-154208294D01*
X51450500Y-154219500D01*
X51292254Y-154219500D01*
X51225215Y-154199815D01*
X51204577Y-154183185D01*
X51138342Y-154116950D01*
X51066878Y-154080537D01*
X51025301Y-154059352D01*
X50931524Y-154044500D01*
X49218482Y-154044500D01*
X49137519Y-154057323D01*
X49124696Y-154059354D01*
X49011658Y-154116950D01*
X49011657Y-154116951D01*
X49011652Y-154116954D01*
X48921954Y-154206652D01*
X48921951Y-154206657D01*
X48921950Y-154206658D01*
X48902751Y-154244337D01*
X48864352Y-154319698D01*
X48849500Y-154413475D01*
X48849500Y-154776517D01*
X48856147Y-154818482D01*
X48864354Y-154870304D01*
X48921950Y-154983342D01*
X48921952Y-154983344D01*
X48921954Y-154983347D01*
X49011652Y-155073045D01*
X49011654Y-155073046D01*
X49011658Y-155073050D01*
X49102851Y-155119515D01*
X49153647Y-155167490D01*
X49170442Y-155235311D01*
X49147904Y-155301446D01*
X49102852Y-155340484D01*
X49011658Y-155386950D01*
X49011657Y-155386951D01*
X49011652Y-155386954D01*
X48921954Y-155476652D01*
X48921951Y-155476657D01*
X48921950Y-155476658D01*
X48873180Y-155572375D01*
X48864353Y-155589698D01*
X48849196Y-155685393D01*
X48819266Y-155748527D01*
X48759955Y-155785458D01*
X48690092Y-155784460D01*
X48631860Y-155745850D01*
X48612162Y-155713446D01*
X48605506Y-155697377D01*
X48605505Y-155697376D01*
X48605505Y-155697375D01*
X48517265Y-155582379D01*
X48402269Y-155494139D01*
X48402268Y-155494138D01*
X48402266Y-155494137D01*
X48268356Y-155438671D01*
X48268354Y-155438670D01*
X48268353Y-155438670D01*
X48196498Y-155429210D01*
X48124645Y-155419750D01*
X48124643Y-155419750D01*
X47980935Y-155438670D01*
X47980931Y-155438671D01*
X47847021Y-155494137D01*
X47732023Y-155582379D01*
X47643781Y-155697377D01*
X47588315Y-155831287D01*
X47588314Y-155831291D01*
X47570064Y-155969914D01*
X47569394Y-155975000D01*
X47587607Y-156113342D01*
X47588314Y-156118708D01*
X47588315Y-156118712D01*
X47643781Y-156252622D01*
X47643782Y-156252624D01*
X47643783Y-156252625D01*
X47732023Y-156367621D01*
X47847019Y-156455861D01*
X47847020Y-156455861D01*
X47847021Y-156455862D01*
X47891657Y-156474350D01*
X47980935Y-156511330D01*
X48105974Y-156527792D01*
X48124643Y-156530250D01*
X48124644Y-156530250D01*
X48124645Y-156530250D01*
X48143314Y-156527792D01*
X48268353Y-156511330D01*
X48402269Y-156455861D01*
X48517265Y-156367621D01*
X48605505Y-156252625D01*
X48644305Y-156158951D01*
X48688145Y-156104548D01*
X48754439Y-156082483D01*
X48822139Y-156099762D01*
X48869348Y-156150106D01*
X48921585Y-156252625D01*
X48921951Y-156253343D01*
X48921954Y-156253347D01*
X49011652Y-156343045D01*
X49011654Y-156343046D01*
X49011658Y-156343050D01*
X49102851Y-156389515D01*
X49153647Y-156437490D01*
X49170442Y-156505311D01*
X49147904Y-156571446D01*
X49102852Y-156610484D01*
X49011658Y-156656950D01*
X49011657Y-156656951D01*
X49011652Y-156656954D01*
X48921954Y-156746652D01*
X48921951Y-156746657D01*
X48921950Y-156746658D01*
X48905141Y-156779648D01*
X48864352Y-156859698D01*
X48849500Y-156953475D01*
X48849500Y-157316517D01*
X48855566Y-157354815D01*
X48864354Y-157410304D01*
X48921950Y-157523342D01*
X48921952Y-157523344D01*
X48921954Y-157523347D01*
X49011652Y-157613045D01*
X49011654Y-157613046D01*
X49011658Y-157613050D01*
X49106385Y-157661316D01*
X49124698Y-157670647D01*
X49218475Y-157685499D01*
X49218481Y-157685500D01*
X50034944Y-157685499D01*
X50043045Y-157686029D01*
X50075096Y-157690250D01*
X50107146Y-157686029D01*
X50115248Y-157685499D01*
X50931517Y-157685499D01*
X50931518Y-157685499D01*
X51025304Y-157670646D01*
X51138342Y-157613050D01*
X51228050Y-157523342D01*
X51285646Y-157410304D01*
X51285646Y-157410302D01*
X51285647Y-157410301D01*
X51298122Y-157331532D01*
X51300500Y-157316519D01*
X51300499Y-156953482D01*
X51285646Y-156859696D01*
X51228050Y-156746658D01*
X51228046Y-156746654D01*
X51228045Y-156746652D01*
X51138347Y-156656954D01*
X51138343Y-156656951D01*
X51138342Y-156656950D01*
X51105661Y-156640298D01*
X51047147Y-156610483D01*
X50996352Y-156562509D01*
X50979557Y-156494687D01*
X51002095Y-156428553D01*
X51047145Y-156389517D01*
X51138342Y-156343050D01*
X51138347Y-156343045D01*
X51144574Y-156336819D01*
X51205897Y-156303334D01*
X51232255Y-156300500D01*
X51532020Y-156300500D01*
X51599059Y-156320185D01*
X51631790Y-156350867D01*
X51702848Y-156447148D01*
X51702849Y-156447148D01*
X51702850Y-156447150D01*
X51812118Y-156527793D01*
X51854845Y-156542744D01*
X51940299Y-156572646D01*
X51970730Y-156575500D01*
X51970734Y-156575500D01*
X52629270Y-156575500D01*
X52659699Y-156572646D01*
X52659701Y-156572646D01*
X52724501Y-156549971D01*
X52787882Y-156527793D01*
X52897150Y-156447150D01*
X52955845Y-156367621D01*
X52968210Y-156350867D01*
X53023857Y-156308616D01*
X53067980Y-156300500D01*
X53132020Y-156300500D01*
X53199059Y-156320185D01*
X53231790Y-156350867D01*
X53302848Y-156447148D01*
X53302849Y-156447148D01*
X53302850Y-156447150D01*
X53412118Y-156527793D01*
X53454845Y-156542744D01*
X53540299Y-156572646D01*
X53570730Y-156575500D01*
X54200500Y-156575500D01*
X54267539Y-156595185D01*
X54313294Y-156647989D01*
X54324500Y-156699500D01*
X54324500Y-157264493D01*
X54304815Y-157331532D01*
X54252011Y-157377287D01*
X54184315Y-157387432D01*
X54050006Y-157369750D01*
X54050003Y-157369750D01*
X53906295Y-157388670D01*
X53906291Y-157388671D01*
X53772381Y-157444137D01*
X53657383Y-157532379D01*
X53569141Y-157647377D01*
X53513675Y-157781287D01*
X53513674Y-157781291D01*
X53495663Y-157918099D01*
X53494754Y-157925000D01*
X53510813Y-158046981D01*
X53514735Y-158076766D01*
X53513224Y-158076964D01*
X53511777Y-158137693D01*
X53481347Y-158187613D01*
X53212180Y-158456780D01*
X53150857Y-158490265D01*
X53081165Y-158485281D01*
X53025232Y-158443409D01*
X53000815Y-158377945D01*
X53000499Y-158369121D01*
X53000499Y-157704516D01*
X52994412Y-157647886D01*
X52994222Y-157647377D01*
X52974395Y-157594218D01*
X52946628Y-157519774D01*
X52864687Y-157410313D01*
X52767930Y-157337882D01*
X52755228Y-157328373D01*
X52755226Y-157328372D01*
X52627114Y-157280588D01*
X52627112Y-157280587D01*
X52627110Y-157280587D01*
X52570493Y-157274500D01*
X52029518Y-157274500D01*
X52029509Y-157274501D01*
X51972885Y-157280587D01*
X51844773Y-157328372D01*
X51735313Y-157410313D01*
X51653373Y-157519771D01*
X51645839Y-157539970D01*
X51613883Y-157625648D01*
X51605587Y-157647889D01*
X51599500Y-157704498D01*
X51599500Y-158545481D01*
X51599501Y-158545490D01*
X51605587Y-158602114D01*
X51639819Y-158693890D01*
X51653372Y-158730226D01*
X51735313Y-158839687D01*
X51844774Y-158921628D01*
X51972886Y-158969412D01*
X52029515Y-158975500D01*
X52394100Y-158975499D01*
X52461138Y-158995183D01*
X52506893Y-159047987D01*
X52516837Y-159117146D01*
X52487812Y-159180701D01*
X52481780Y-159187180D01*
X51769793Y-159899167D01*
X51708470Y-159932652D01*
X51638778Y-159927668D01*
X51582845Y-159885796D01*
X51558428Y-159820332D01*
X51567549Y-159764038D01*
X51586330Y-159718699D01*
X51605250Y-159574990D01*
X51586330Y-159431281D01*
X51531923Y-159299928D01*
X51530862Y-159297367D01*
X51530861Y-159297366D01*
X51530861Y-159297365D01*
X51442621Y-159182369D01*
X51327625Y-159094129D01*
X51327624Y-159094128D01*
X51327622Y-159094127D01*
X51193712Y-159038661D01*
X51193710Y-159038660D01*
X51193709Y-159038660D01*
X51098620Y-159026141D01*
X51050001Y-159019740D01*
X51049999Y-159019740D01*
X50906291Y-159038660D01*
X50906287Y-159038661D01*
X50772377Y-159094127D01*
X50657379Y-159182369D01*
X50569137Y-159297367D01*
X50513671Y-159431277D01*
X50513670Y-159431281D01*
X50512926Y-159436936D01*
X50512075Y-159443397D01*
X50483807Y-159507293D01*
X50425482Y-159545763D01*
X50355617Y-159546593D01*
X50296394Y-159509519D01*
X50290761Y-159502696D01*
X50240301Y-159436936D01*
X50217621Y-159407379D01*
X50102625Y-159319139D01*
X50102624Y-159319138D01*
X50102622Y-159319137D01*
X49968712Y-159263671D01*
X49968710Y-159263670D01*
X49968709Y-159263670D01*
X49896854Y-159254210D01*
X49825001Y-159244750D01*
X49824999Y-159244750D01*
X49681291Y-159263670D01*
X49681287Y-159263671D01*
X49547377Y-159319137D01*
X49432379Y-159407379D01*
X49344137Y-159522377D01*
X49288671Y-159656287D01*
X49288670Y-159656291D01*
X49269750Y-159800000D01*
X49284178Y-159909593D01*
X49288670Y-159943708D01*
X49288671Y-159943712D01*
X49344137Y-160077622D01*
X49344138Y-160077624D01*
X49344139Y-160077625D01*
X49432379Y-160192621D01*
X49444764Y-160202124D01*
X49485967Y-160258552D01*
X49490122Y-160328298D01*
X49455910Y-160389218D01*
X49394193Y-160421971D01*
X49369278Y-160424500D01*
X49331900Y-160424500D01*
X49264861Y-160404815D01*
X49244219Y-160388181D01*
X48152149Y-159296111D01*
X48136022Y-159276252D01*
X48130086Y-159267167D01*
X48130083Y-159267163D01*
X48102074Y-159245363D01*
X48096310Y-159240272D01*
X48093515Y-159237477D01*
X48074505Y-159223906D01*
X48031189Y-159190190D01*
X48024274Y-159186448D01*
X48017200Y-159182990D01*
X47964596Y-159167329D01*
X47912658Y-159149499D01*
X47904923Y-159148208D01*
X47897085Y-159147231D01*
X47842244Y-159149500D01*
X46982026Y-159149500D01*
X46914987Y-159129815D01*
X46906547Y-159123882D01*
X46802625Y-159044139D01*
X46802624Y-159044138D01*
X46802622Y-159044137D01*
X46668712Y-158988671D01*
X46668710Y-158988670D01*
X46668709Y-158988670D01*
X46568675Y-158975500D01*
X46525001Y-158969750D01*
X46524998Y-158969750D01*
X46396354Y-158986686D01*
X46327319Y-158975920D01*
X46275063Y-158929540D01*
X46256178Y-158862271D01*
X46274507Y-158802489D01*
X46273619Y-158802037D01*
X46276197Y-158796976D01*
X46276659Y-158795471D01*
X46277815Y-158793801D01*
X46278047Y-158793344D01*
X46278050Y-158793342D01*
X46335646Y-158680304D01*
X46335646Y-158680302D01*
X46335647Y-158680301D01*
X46350499Y-158586524D01*
X46350500Y-158586519D01*
X46350499Y-158223482D01*
X46335646Y-158129696D01*
X46278050Y-158016658D01*
X46278046Y-158016654D01*
X46278045Y-158016652D01*
X46208862Y-157947469D01*
X46175377Y-157886146D01*
X46180361Y-157816454D01*
X46222233Y-157760521D01*
X46287697Y-157736104D01*
X46355970Y-157750956D01*
X46372030Y-157761413D01*
X46397373Y-157780860D01*
X46397374Y-157780860D01*
X46397375Y-157780861D01*
X46531291Y-157836330D01*
X46658280Y-157853048D01*
X46674999Y-157855250D01*
X46675000Y-157855250D01*
X46675001Y-157855250D01*
X46689977Y-157853278D01*
X46818709Y-157836330D01*
X46952625Y-157780861D01*
X47067621Y-157692621D01*
X47155861Y-157577625D01*
X47211330Y-157443709D01*
X47230250Y-157300000D01*
X47211330Y-157156291D01*
X47165923Y-157046666D01*
X47155862Y-157022377D01*
X47155861Y-157022376D01*
X47155861Y-157022375D01*
X47067621Y-156907379D01*
X46952625Y-156819139D01*
X46952624Y-156819138D01*
X46952622Y-156819137D01*
X46818712Y-156763671D01*
X46818710Y-156763670D01*
X46818709Y-156763670D01*
X46746854Y-156754210D01*
X46675001Y-156744750D01*
X46674999Y-156744750D01*
X46531291Y-156763670D01*
X46435237Y-156803456D01*
X46365768Y-156810924D01*
X46303289Y-156779648D01*
X46284156Y-156754278D01*
X46283783Y-156754550D01*
X46278051Y-156746660D01*
X46278050Y-156746658D01*
X46278047Y-156746655D01*
X46278045Y-156746652D01*
X46188347Y-156656954D01*
X46188343Y-156656951D01*
X46188342Y-156656950D01*
X46155661Y-156640298D01*
X46097147Y-156610483D01*
X46046352Y-156562509D01*
X46029557Y-156494687D01*
X46052095Y-156428553D01*
X46097145Y-156389517D01*
X46188342Y-156343050D01*
X46278050Y-156253342D01*
X46335646Y-156140304D01*
X46335646Y-156140302D01*
X46335647Y-156140301D01*
X46350498Y-156046531D01*
X46350500Y-156046519D01*
X46350499Y-156046505D01*
X46350560Y-156045754D01*
X46350666Y-156045475D01*
X46351263Y-156041707D01*
X46352054Y-156041832D01*
X46375435Y-155980462D01*
X46431661Y-155938984D01*
X46501386Y-155934489D01*
X46521630Y-155940905D01*
X46631291Y-155986328D01*
X46758280Y-156003046D01*
X46774999Y-156005248D01*
X46775000Y-156005248D01*
X46775001Y-156005248D01*
X46789977Y-156003276D01*
X46918709Y-155986328D01*
X47052625Y-155930859D01*
X47167621Y-155842619D01*
X47255861Y-155727623D01*
X47311330Y-155593707D01*
X47330250Y-155449998D01*
X47311330Y-155306289D01*
X47256412Y-155173703D01*
X47255862Y-155172375D01*
X47255861Y-155172374D01*
X47255861Y-155172373D01*
X47167621Y-155057377D01*
X47052625Y-154969137D01*
X47052624Y-154969136D01*
X47052622Y-154969135D01*
X46918712Y-154913669D01*
X46918710Y-154913668D01*
X46918709Y-154913668D01*
X46837390Y-154902962D01*
X46775001Y-154894748D01*
X46774999Y-154894748D01*
X46631291Y-154913668D01*
X46631287Y-154913669D01*
X46512101Y-154963037D01*
X46442632Y-154970506D01*
X46380153Y-154939230D01*
X46344501Y-154879141D01*
X46342176Y-154829077D01*
X46347232Y-154797150D01*
X46350500Y-154776519D01*
X46350499Y-154505572D01*
X46370183Y-154438534D01*
X46422987Y-154392779D01*
X46492146Y-154382835D01*
X46521945Y-154391010D01*
X46631291Y-154436302D01*
X46758280Y-154453020D01*
X46774999Y-154455222D01*
X46775000Y-154455222D01*
X46775001Y-154455222D01*
X46789977Y-154453250D01*
X46918709Y-154436302D01*
X47052625Y-154380833D01*
X47167621Y-154292593D01*
X47255861Y-154177597D01*
X47311330Y-154043681D01*
X47330250Y-153899972D01*
X47329536Y-153894552D01*
X47323728Y-153850432D01*
X47311330Y-153756263D01*
X47255861Y-153622347D01*
X47167621Y-153507351D01*
X47144601Y-153489687D01*
X47128856Y-153477605D01*
X47087653Y-153421177D01*
X47083499Y-153351431D01*
X47088158Y-153335906D01*
X47119412Y-153252114D01*
X47120859Y-153238654D01*
X47125499Y-153195501D01*
X47125499Y-153195494D01*
X47125500Y-153195485D01*
X47125499Y-152604516D01*
X47119412Y-152547886D01*
X47110997Y-152525326D01*
X47083746Y-152452264D01*
X47071628Y-152419774D01*
X46989687Y-152310313D01*
X46901457Y-152244265D01*
X46859587Y-152188332D01*
X46854603Y-152118641D01*
X46888088Y-152057318D01*
X46901447Y-152045742D01*
X46989687Y-151979687D01*
X47071628Y-151870226D01*
X47119412Y-151742114D01*
X47121687Y-151720944D01*
X47124426Y-151695481D01*
X50474500Y-151695481D01*
X50474501Y-151695490D01*
X50480587Y-151752114D01*
X50509863Y-151830602D01*
X50528372Y-151880226D01*
X50610313Y-151989687D01*
X50686378Y-152046628D01*
X50717712Y-152070085D01*
X50719774Y-152071628D01*
X50847886Y-152119412D01*
X50904515Y-152125500D01*
X51445484Y-152125499D01*
X51502114Y-152119412D01*
X51630226Y-152071628D01*
X51739687Y-151989687D01*
X51821628Y-151880226D01*
X51830602Y-151856163D01*
X51872473Y-151800233D01*
X51937937Y-151775816D01*
X51946783Y-151775500D01*
X52041303Y-151775500D01*
X52108342Y-151795185D01*
X52135686Y-151822046D01*
X52135766Y-151821967D01*
X52144396Y-151830597D01*
X52144399Y-151830601D01*
X52227260Y-151885966D01*
X52227263Y-151885966D01*
X52227264Y-151885967D01*
X52300321Y-151900499D01*
X52300324Y-151900500D01*
X52300326Y-151900500D01*
X52999676Y-151900500D01*
X52999677Y-151900499D01*
X53072740Y-151885966D01*
X53155601Y-151830601D01*
X53210966Y-151747740D01*
X53225500Y-151674674D01*
X53225500Y-151225326D01*
X53225500Y-151225323D01*
X53225499Y-151225321D01*
X53210967Y-151152264D01*
X53210966Y-151152260D01*
X53179064Y-151104515D01*
X53155601Y-151069399D01*
X53072740Y-151014034D01*
X53072739Y-151014033D01*
X53072735Y-151014032D01*
X52999677Y-150999500D01*
X52999674Y-150999500D01*
X52617089Y-150999500D01*
X52550050Y-150979815D01*
X52504295Y-150927011D01*
X52494150Y-150859315D01*
X52505250Y-150775002D01*
X52505250Y-150774999D01*
X52499902Y-150734377D01*
X52486330Y-150631291D01*
X52435005Y-150507379D01*
X52430862Y-150497377D01*
X52430861Y-150497376D01*
X52430861Y-150497375D01*
X52342621Y-150382379D01*
X52227625Y-150294139D01*
X52227624Y-150294138D01*
X52227622Y-150294137D01*
X52093712Y-150238671D01*
X52093710Y-150238670D01*
X52093709Y-150238670D01*
X52021854Y-150229210D01*
X51950001Y-150219750D01*
X51949999Y-150219750D01*
X51806291Y-150238670D01*
X51806287Y-150238671D01*
X51672377Y-150294137D01*
X51557379Y-150382379D01*
X51469138Y-150497376D01*
X51427478Y-150597953D01*
X51383637Y-150652356D01*
X51317343Y-150674421D01*
X51312917Y-150674500D01*
X50904518Y-150674500D01*
X50904509Y-150674501D01*
X50847885Y-150680587D01*
X50719773Y-150728372D01*
X50610313Y-150810313D01*
X50528373Y-150919771D01*
X50480587Y-151047889D01*
X50474500Y-151104498D01*
X50474500Y-151695481D01*
X47124426Y-151695481D01*
X47125499Y-151685501D01*
X47125499Y-151685490D01*
X47125500Y-151685485D01*
X47125499Y-151094516D01*
X47119412Y-151037886D01*
X47113818Y-151022889D01*
X47085869Y-150947956D01*
X47071628Y-150909774D01*
X46989687Y-150800313D01*
X46923911Y-150751074D01*
X46880228Y-150718373D01*
X46880226Y-150718372D01*
X46752114Y-150670588D01*
X46752112Y-150670587D01*
X46752110Y-150670587D01*
X46695493Y-150664500D01*
X46154518Y-150664500D01*
X46154509Y-150664501D01*
X46097885Y-150670587D01*
X45969773Y-150718372D01*
X45860313Y-150800313D01*
X45778373Y-150909771D01*
X45778372Y-150909774D01*
X45739485Y-151014034D01*
X45730587Y-151037889D01*
X45724500Y-151094498D01*
X45724500Y-151685481D01*
X45724501Y-151685490D01*
X45730587Y-151742114D01*
X45763803Y-151831166D01*
X45778372Y-151870226D01*
X45860313Y-151979687D01*
X45948542Y-152045734D01*
X45990412Y-152101665D01*
X45995396Y-152171356D01*
X45961912Y-152232680D01*
X45948540Y-152244266D01*
X45894732Y-152284546D01*
X45829268Y-152308963D01*
X45760995Y-152294111D01*
X45711590Y-152244706D01*
X45705861Y-152232731D01*
X45680862Y-152172377D01*
X45680861Y-152172376D01*
X45680861Y-152172375D01*
X45592621Y-152057379D01*
X45477625Y-151969139D01*
X45477624Y-151969138D01*
X45477622Y-151969137D01*
X45343712Y-151913671D01*
X45343710Y-151913670D01*
X45343709Y-151913670D01*
X45243675Y-151900500D01*
X45200001Y-151894750D01*
X45199999Y-151894750D01*
X45056291Y-151913670D01*
X45056287Y-151913671D01*
X44922377Y-151969137D01*
X44895598Y-151989686D01*
X44817805Y-152049378D01*
X44758346Y-152072365D01*
X44758562Y-152073657D01*
X44753508Y-152074500D01*
X44753506Y-152074500D01*
X44742334Y-152076364D01*
X44730477Y-152078342D01*
X44702248Y-152081861D01*
X44633288Y-152070620D01*
X44632693Y-152070085D01*
X44629435Y-152083889D01*
X44579167Y-152132416D01*
X44576135Y-152133951D01*
X44563412Y-152140171D01*
X44556995Y-152144753D01*
X44550796Y-152149578D01*
X44513613Y-152189969D01*
X44440401Y-152263181D01*
X44379078Y-152296666D01*
X44352720Y-152299500D01*
X43800323Y-152299500D01*
X43727264Y-152314032D01*
X43727260Y-152314033D01*
X43644399Y-152369399D01*
X43589033Y-152452260D01*
X43589032Y-152452264D01*
X43574500Y-152525321D01*
X43574500Y-152974678D01*
X43584770Y-153026309D01*
X43578543Y-153095901D01*
X43535680Y-153151078D01*
X43469790Y-153174322D01*
X43463153Y-153174500D01*
X41656899Y-153174500D01*
X41589860Y-153154815D01*
X41569218Y-153138181D01*
X41111819Y-152680781D01*
X41078334Y-152619458D01*
X41075500Y-152593100D01*
X41075500Y-152162459D01*
X41095185Y-152095420D01*
X41147989Y-152049665D01*
X41154928Y-152046790D01*
X41155222Y-152046629D01*
X41155226Y-152046628D01*
X41264687Y-151964687D01*
X41346628Y-151855226D01*
X41355602Y-151831163D01*
X41397473Y-151775233D01*
X41462937Y-151750816D01*
X41471783Y-151750500D01*
X41624598Y-151750500D01*
X41691637Y-151770185D01*
X41727700Y-151805609D01*
X41744399Y-151830601D01*
X41803703Y-151870226D01*
X41827260Y-151885966D01*
X41827264Y-151885967D01*
X41900321Y-151900499D01*
X41900324Y-151900500D01*
X41900326Y-151900500D01*
X42599676Y-151900500D01*
X42599677Y-151900499D01*
X42672740Y-151885966D01*
X42755601Y-151830601D01*
X42810966Y-151747740D01*
X42825500Y-151674674D01*
X42825500Y-151225326D01*
X42825500Y-151225323D01*
X42825499Y-151225321D01*
X42810967Y-151152264D01*
X42810966Y-151152260D01*
X42779064Y-151104515D01*
X42755601Y-151069399D01*
X42672740Y-151014034D01*
X42672739Y-151014033D01*
X42672735Y-151014032D01*
X42599677Y-150999500D01*
X42599674Y-150999500D01*
X42237660Y-150999500D01*
X41477094Y-150999500D01*
X41410055Y-150979815D01*
X41364300Y-150927011D01*
X41354155Y-150891685D01*
X41349893Y-150859315D01*
X41336330Y-150756291D01*
X41286300Y-150635505D01*
X41280862Y-150622377D01*
X41280861Y-150622376D01*
X41280861Y-150622375D01*
X41192621Y-150507379D01*
X41077625Y-150419139D01*
X41077624Y-150419138D01*
X41077622Y-150419137D01*
X40943712Y-150363671D01*
X40943710Y-150363670D01*
X40943709Y-150363670D01*
X40871854Y-150354210D01*
X40800001Y-150344750D01*
X40799999Y-150344750D01*
X40656291Y-150363670D01*
X40656287Y-150363671D01*
X40522377Y-150419137D01*
X40407379Y-150507379D01*
X40319136Y-150622378D01*
X40319136Y-150622379D01*
X40313699Y-150635505D01*
X40269855Y-150689906D01*
X40252487Y-150698992D01*
X40252558Y-150699121D01*
X40244776Y-150703370D01*
X40135313Y-150785313D01*
X40053373Y-150894771D01*
X40047777Y-150909774D01*
X40008891Y-151014032D01*
X40005587Y-151022889D01*
X39999500Y-151079498D01*
X39999500Y-151670481D01*
X39999501Y-151670490D01*
X40005587Y-151727114D01*
X40044398Y-151831166D01*
X40053372Y-151855226D01*
X40097122Y-151913670D01*
X40135314Y-151964688D01*
X40244774Y-152046628D01*
X40252562Y-152050881D01*
X40251813Y-152052252D01*
X40299763Y-152088143D01*
X40324184Y-152153606D01*
X40324500Y-152162459D01*
X40324500Y-152748196D01*
X40321862Y-152773634D01*
X40319633Y-152784268D01*
X40319633Y-152784269D01*
X40319633Y-152784271D01*
X40324023Y-152819491D01*
X40324500Y-152827167D01*
X40324500Y-152831116D01*
X40328342Y-152854141D01*
X40335134Y-152908627D01*
X40337373Y-152916147D01*
X40339934Y-152923608D01*
X40339935Y-152923610D01*
X40366055Y-152971877D01*
X40390174Y-153021211D01*
X40394742Y-153027609D01*
X40399582Y-153033827D01*
X40439971Y-153071009D01*
X40966331Y-153597368D01*
X40999816Y-153658691D01*
X40994832Y-153728382D01*
X40952961Y-153784316D01*
X40919607Y-153802090D01*
X40877719Y-153816747D01*
X40862118Y-153822207D01*
X40862117Y-153822207D01*
X40862116Y-153822208D01*
X40752850Y-153902850D01*
X40672207Y-154012117D01*
X40672206Y-154012119D01*
X40627353Y-154140298D01*
X40627353Y-154140300D01*
X40624500Y-154170730D01*
X40624500Y-154829269D01*
X40627353Y-154859699D01*
X40627353Y-154859701D01*
X40668171Y-154976348D01*
X40672207Y-154987882D01*
X40752850Y-155097150D01*
X40862118Y-155177793D01*
X40904845Y-155192744D01*
X40990299Y-155222646D01*
X41020730Y-155225500D01*
X41532165Y-155225500D01*
X41532165Y-155226887D01*
X41594805Y-155242136D01*
X41620401Y-155261793D01*
X42238181Y-155879573D01*
X42271666Y-155940896D01*
X42274500Y-155967254D01*
X42274500Y-156329269D01*
X42277353Y-156359699D01*
X42277353Y-156359701D01*
X42311365Y-156456898D01*
X42322207Y-156487882D01*
X42402850Y-156597150D01*
X42512118Y-156677793D01*
X42554845Y-156692744D01*
X42640299Y-156722646D01*
X42670730Y-156725500D01*
X42670734Y-156725500D01*
X43032745Y-156725500D01*
X43099784Y-156745185D01*
X43120426Y-156761819D01*
X43433108Y-157074500D01*
X43731950Y-157373342D01*
X43821658Y-157463050D01*
X43841395Y-157473106D01*
X43857981Y-157483269D01*
X43875910Y-157496296D01*
X43875912Y-157496296D01*
X43875913Y-157496297D01*
X43896974Y-157503140D01*
X43914953Y-157510586D01*
X43934696Y-157520646D01*
X43935956Y-157520845D01*
X43937363Y-157521512D01*
X43943974Y-157523660D01*
X43943696Y-157524514D01*
X43999090Y-157550769D01*
X44004229Y-157555621D01*
X44061658Y-157613050D01*
X44152851Y-157659515D01*
X44203647Y-157707490D01*
X44220442Y-157775311D01*
X44197904Y-157841446D01*
X44152852Y-157880484D01*
X44061658Y-157926950D01*
X44061657Y-157926951D01*
X44061656Y-157926951D01*
X44044151Y-157944457D01*
X43995425Y-157993182D01*
X43934105Y-158026666D01*
X43907746Y-158029500D01*
X43767544Y-158029500D01*
X43700505Y-158009815D01*
X43679863Y-157993181D01*
X43513684Y-157827002D01*
X43480199Y-157765679D01*
X43478428Y-157755519D01*
X43461330Y-157625647D01*
X43405861Y-157491731D01*
X43317621Y-157376735D01*
X43202625Y-157288495D01*
X43202624Y-157288494D01*
X43202622Y-157288493D01*
X43068712Y-157233027D01*
X43068710Y-157233026D01*
X43068709Y-157233026D01*
X42996854Y-157223566D01*
X42925001Y-157214106D01*
X42924999Y-157214106D01*
X42781291Y-157233026D01*
X42781287Y-157233027D01*
X42647377Y-157288493D01*
X42532379Y-157376735D01*
X42444137Y-157491733D01*
X42388671Y-157625643D01*
X42388670Y-157625647D01*
X42369779Y-157769139D01*
X42369750Y-157769356D01*
X42378567Y-157836330D01*
X42388670Y-157913064D01*
X42388671Y-157913068D01*
X42444137Y-158046978D01*
X42444138Y-158046980D01*
X42444139Y-158046981D01*
X42532379Y-158161977D01*
X42647375Y-158250217D01*
X42647376Y-158250217D01*
X42647377Y-158250218D01*
X42659468Y-158255226D01*
X42781291Y-158305686D01*
X42911153Y-158322783D01*
X42975048Y-158351048D01*
X42982647Y-158358040D01*
X43258493Y-158633886D01*
X43274621Y-158653745D01*
X43280560Y-158662836D01*
X43308576Y-158684641D01*
X43314337Y-158689730D01*
X43317126Y-158692519D01*
X43336127Y-158706085D01*
X43367143Y-158730226D01*
X43379455Y-158739809D01*
X43386366Y-158743549D01*
X43393444Y-158747010D01*
X43444400Y-158762180D01*
X43446049Y-158762671D01*
X43497984Y-158780500D01*
X43497986Y-158780500D01*
X43505723Y-158781791D01*
X43513553Y-158782767D01*
X43513555Y-158782768D01*
X43513556Y-158782767D01*
X43513557Y-158782768D01*
X43568399Y-158780500D01*
X43907746Y-158780500D01*
X43974785Y-158800185D01*
X43995422Y-158816814D01*
X44061658Y-158883050D01*
X44124395Y-158915016D01*
X44175190Y-158962990D01*
X44191985Y-159030811D01*
X44169448Y-159096946D01*
X44114732Y-159140397D01*
X44068099Y-159149500D01*
X42682360Y-159149500D01*
X42615321Y-159129815D01*
X42569566Y-159077011D01*
X42564088Y-159058842D01*
X42563663Y-159058981D01*
X42560647Y-159049699D01*
X42560646Y-159049697D01*
X42560646Y-159049696D01*
X42503050Y-158936658D01*
X42503046Y-158936654D01*
X42503045Y-158936652D01*
X42413347Y-158846954D01*
X42413344Y-158846952D01*
X42413342Y-158846950D01*
X42315263Y-158796976D01*
X42300301Y-158789352D01*
X42206524Y-158774500D01*
X41843482Y-158774500D01*
X41768803Y-158786328D01*
X41749696Y-158789354D01*
X41636658Y-158846950D01*
X41636657Y-158846951D01*
X41636652Y-158846954D01*
X41546954Y-158936652D01*
X41546951Y-158936657D01*
X41546950Y-158936658D01*
X41535895Y-158958355D01*
X41489352Y-159049698D01*
X41474500Y-159143475D01*
X41474500Y-159606517D01*
X41485292Y-159674657D01*
X41489354Y-159700304D01*
X41546950Y-159813342D01*
X41546952Y-159813344D01*
X41546954Y-159813347D01*
X41636652Y-159903045D01*
X41636654Y-159903046D01*
X41636658Y-159903050D01*
X41749694Y-159960645D01*
X41749698Y-159960647D01*
X41843475Y-159975499D01*
X41843481Y-159975500D01*
X42206518Y-159975499D01*
X42300304Y-159960646D01*
X42391823Y-159914014D01*
X42448116Y-159900500D01*
X46067974Y-159900500D01*
X46135013Y-159920185D01*
X46143452Y-159926117D01*
X46247375Y-160005861D01*
X46247376Y-160005861D01*
X46247377Y-160005862D01*
X46264550Y-160012975D01*
X46381291Y-160061330D01*
X46508280Y-160078048D01*
X46524999Y-160080250D01*
X46525000Y-160080250D01*
X46625889Y-160066967D01*
X46694922Y-160077732D01*
X46747178Y-160124112D01*
X46766064Y-160191380D01*
X46763832Y-160207611D01*
X46764579Y-160207710D01*
X46763518Y-160215767D01*
X46763518Y-160215768D01*
X46751230Y-160309108D01*
X46750232Y-160316685D01*
X46721965Y-160380582D01*
X46663641Y-160419053D01*
X46627293Y-160424500D01*
X42617255Y-160424500D01*
X42550216Y-160404815D01*
X42529574Y-160388181D01*
X42438347Y-160296954D01*
X42438344Y-160296952D01*
X42438342Y-160296950D01*
X42338860Y-160246261D01*
X42325301Y-160239352D01*
X42231524Y-160224500D01*
X41868482Y-160224500D01*
X41787519Y-160237323D01*
X41774696Y-160239354D01*
X41661658Y-160296950D01*
X41661657Y-160296951D01*
X41661652Y-160296954D01*
X41571954Y-160386652D01*
X41571951Y-160386657D01*
X41571950Y-160386658D01*
X41566075Y-160398188D01*
X41514352Y-160499698D01*
X41499500Y-160593475D01*
X41499500Y-161056517D01*
X41508443Y-161112981D01*
X41514354Y-161150304D01*
X41571950Y-161263342D01*
X41571952Y-161263344D01*
X41571954Y-161263347D01*
X41661652Y-161353045D01*
X41661654Y-161353046D01*
X41661658Y-161353050D01*
X41774694Y-161410645D01*
X41774698Y-161410647D01*
X41868475Y-161425499D01*
X41868481Y-161425500D01*
X42231518Y-161425499D01*
X42325304Y-161410646D01*
X42438342Y-161353050D01*
X42528050Y-161263342D01*
X42538311Y-161243204D01*
X42586286Y-161192409D01*
X42648795Y-161175500D01*
X46130073Y-161175500D01*
X46197112Y-161195185D01*
X46242867Y-161247989D01*
X46252811Y-161317147D01*
X46223786Y-161380703D01*
X46215818Y-161388209D01*
X46216077Y-161388468D01*
X46210332Y-161394212D01*
X46125866Y-161504289D01*
X46069438Y-161545491D01*
X45999692Y-161549645D01*
X45980040Y-161543363D01*
X45968710Y-161538670D01*
X45825001Y-161519750D01*
X45824999Y-161519750D01*
X45681291Y-161538670D01*
X45681287Y-161538671D01*
X45547377Y-161594137D01*
X45432379Y-161682379D01*
X45344137Y-161797377D01*
X45288671Y-161931287D01*
X45288670Y-161931291D01*
X45269750Y-162074999D01*
X45269750Y-162075000D01*
X45288670Y-162218708D01*
X45288671Y-162218712D01*
X45344137Y-162352622D01*
X45344138Y-162352624D01*
X45344139Y-162352625D01*
X45432379Y-162467621D01*
X45453674Y-162483961D01*
X45487795Y-162510144D01*
X45528998Y-162566572D01*
X45533152Y-162636318D01*
X45498939Y-162697238D01*
X45487795Y-162706894D01*
X45404876Y-162770520D01*
X45316632Y-162885521D01*
X45261166Y-163019431D01*
X45261165Y-163019435D01*
X45244997Y-163142244D01*
X45242245Y-163163144D01*
X45249697Y-163219750D01*
X45261165Y-163306852D01*
X45261166Y-163306856D01*
X45287596Y-163370664D01*
X45295065Y-163440133D01*
X45263790Y-163502612D01*
X45248523Y-163516490D01*
X45210139Y-163545944D01*
X45210137Y-163545945D01*
X45210136Y-163545947D01*
X45161516Y-163609310D01*
X45121894Y-163660945D01*
X45066428Y-163794855D01*
X45066427Y-163794858D01*
X45066427Y-163794859D01*
X45060388Y-163840729D01*
X45032121Y-163904625D01*
X44973796Y-163943096D01*
X44953635Y-163947482D01*
X44887991Y-163956124D01*
X44840363Y-163962395D01*
X44840362Y-163962395D01*
X44840359Y-163962396D01*
X44706449Y-164017862D01*
X44591451Y-164106104D01*
X44503209Y-164221102D01*
X44447743Y-164355012D01*
X44447742Y-164355016D01*
X44439078Y-164420828D01*
X44428822Y-164498725D01*
X44447650Y-164641739D01*
X44447742Y-164642433D01*
X44447743Y-164642437D01*
X44503209Y-164776347D01*
X44503210Y-164776349D01*
X44503211Y-164776350D01*
X44591451Y-164891346D01*
X44597935Y-164896321D01*
X44639136Y-164952748D01*
X44643290Y-165022494D01*
X44623126Y-165065290D01*
X44623203Y-165065335D01*
X44622673Y-165066251D01*
X44620823Y-165070180D01*
X44619138Y-165072375D01*
X44563671Y-165206287D01*
X44563670Y-165206291D01*
X44544760Y-165349927D01*
X44544750Y-165350000D01*
X44563526Y-165492619D01*
X44563670Y-165493708D01*
X44563671Y-165493712D01*
X44619137Y-165627622D01*
X44619138Y-165627624D01*
X44619139Y-165627625D01*
X44707379Y-165742621D01*
X44822375Y-165830861D01*
X44822376Y-165830861D01*
X44822377Y-165830862D01*
X44963799Y-165889440D01*
X44962757Y-165891953D01*
X45011021Y-165921356D01*
X45041565Y-165984195D01*
X45042226Y-166020973D01*
X45031570Y-166101915D01*
X45031570Y-166101918D01*
X45050201Y-166243435D01*
X45050490Y-166245626D01*
X45050491Y-166245630D01*
X45095402Y-166354057D01*
X45102871Y-166423527D01*
X45071595Y-166486006D01*
X45011506Y-166521657D01*
X44980841Y-166525509D01*
X44732026Y-166525509D01*
X44664987Y-166505824D01*
X44656547Y-166499891D01*
X44552625Y-166420148D01*
X44552624Y-166420147D01*
X44552622Y-166420146D01*
X44418712Y-166364680D01*
X44418710Y-166364679D01*
X44418709Y-166364679D01*
X44346854Y-166355219D01*
X44275001Y-166345759D01*
X44274999Y-166345759D01*
X44131291Y-166364679D01*
X44131287Y-166364680D01*
X43997377Y-166420146D01*
X43882379Y-166508388D01*
X43794137Y-166623386D01*
X43738671Y-166757296D01*
X43738670Y-166757301D01*
X43721573Y-166887159D01*
X43693306Y-166951056D01*
X43686325Y-166958645D01*
X43681799Y-166963172D01*
X43620479Y-166996663D01*
X43594108Y-166999500D01*
X42561057Y-166999500D01*
X42494018Y-166979815D01*
X42460793Y-166943093D01*
X42458786Y-166944552D01*
X42453050Y-166936657D01*
X42363347Y-166846954D01*
X42363344Y-166846952D01*
X42363342Y-166846950D01*
X42283537Y-166806287D01*
X42250301Y-166789352D01*
X42156524Y-166774500D01*
X41793482Y-166774500D01*
X41712519Y-166787323D01*
X41699696Y-166789354D01*
X41586658Y-166846950D01*
X41586657Y-166846951D01*
X41586652Y-166846954D01*
X41496954Y-166936652D01*
X41496951Y-166936657D01*
X41496950Y-166936658D01*
X41481433Y-166967111D01*
X41439352Y-167049698D01*
X41424500Y-167143475D01*
X41424500Y-167606517D01*
X41432024Y-167654019D01*
X41439354Y-167700304D01*
X41481813Y-167783634D01*
X41494709Y-167852302D01*
X41468433Y-167917043D01*
X41411326Y-167957300D01*
X41341521Y-167960292D01*
X41283647Y-167927609D01*
X41147897Y-167791859D01*
X41114412Y-167730536D01*
X41113105Y-167684779D01*
X41118613Y-167650000D01*
X41125500Y-167606519D01*
X41125499Y-167143482D01*
X41110646Y-167049696D01*
X41053050Y-166936658D01*
X41053046Y-166936654D01*
X41053045Y-166936652D01*
X40963347Y-166846954D01*
X40963344Y-166846952D01*
X40963342Y-166846950D01*
X40883537Y-166806287D01*
X40850301Y-166789352D01*
X40756524Y-166774500D01*
X40393482Y-166774500D01*
X40312519Y-166787323D01*
X40299696Y-166789354D01*
X40186658Y-166846950D01*
X40186657Y-166846951D01*
X40186652Y-166846954D01*
X40096954Y-166936652D01*
X40096951Y-166936657D01*
X40096950Y-166936658D01*
X40081433Y-166967111D01*
X40039352Y-167049698D01*
X40024500Y-167143475D01*
X40024500Y-167606517D01*
X40032024Y-167654019D01*
X40039354Y-167700304D01*
X40096950Y-167813342D01*
X40096952Y-167813344D01*
X40096954Y-167813347D01*
X40186652Y-167903045D01*
X40186656Y-167903048D01*
X40186658Y-167903050D01*
X40209933Y-167914909D01*
X40260728Y-167962882D01*
X40265036Y-167970929D01*
X40265173Y-167971210D01*
X40269742Y-167977609D01*
X40274582Y-167983827D01*
X40314971Y-168021009D01*
X41585349Y-169291386D01*
X41601477Y-169311245D01*
X41607416Y-169320336D01*
X41635432Y-169342141D01*
X41641193Y-169347230D01*
X41643982Y-169350019D01*
X41662983Y-169363585D01*
X41692881Y-169386856D01*
X41706311Y-169397309D01*
X41713222Y-169401049D01*
X41720300Y-169404510D01*
X41756547Y-169415301D01*
X41772905Y-169420171D01*
X41824840Y-169438000D01*
X41824842Y-169438000D01*
X41832579Y-169439291D01*
X41840409Y-169440267D01*
X41840411Y-169440268D01*
X41840412Y-169440267D01*
X41840413Y-169440268D01*
X41895255Y-169438000D01*
X42050500Y-169438000D01*
X42117539Y-169457685D01*
X42163294Y-169510489D01*
X42174500Y-169562000D01*
X42174500Y-169606274D01*
X42154815Y-169673313D01*
X42138181Y-169693955D01*
X40043955Y-171788181D01*
X39982632Y-171821666D01*
X39956274Y-171824500D01*
X33799500Y-171824500D01*
X33732461Y-171804815D01*
X33686706Y-171752011D01*
X33675500Y-171700500D01*
X33675500Y-167125000D01*
X34069750Y-167125000D01*
X34087707Y-167261398D01*
X34088670Y-167268708D01*
X34088671Y-167268712D01*
X34144137Y-167402622D01*
X34144138Y-167402624D01*
X34144139Y-167402625D01*
X34232379Y-167517621D01*
X34347375Y-167605861D01*
X34347376Y-167605861D01*
X34349934Y-167607824D01*
X34390628Y-167662865D01*
X34403317Y-167696883D01*
X34404505Y-167700067D01*
X34404507Y-167700072D01*
X34488168Y-167811831D01*
X34599927Y-167895492D01*
X34599928Y-167895492D01*
X34599932Y-167895495D01*
X34730738Y-167944284D01*
X34788557Y-167950500D01*
X35425500Y-167950499D01*
X35492539Y-167970183D01*
X35538294Y-168022987D01*
X35549500Y-168074499D01*
X35549500Y-168825500D01*
X35529815Y-168892539D01*
X35477011Y-168938294D01*
X35425500Y-168949500D01*
X34752129Y-168949500D01*
X34752123Y-168949501D01*
X34692516Y-168955908D01*
X34557671Y-169006202D01*
X34557664Y-169006206D01*
X34442455Y-169092452D01*
X34442452Y-169092455D01*
X34356206Y-169207664D01*
X34356202Y-169207671D01*
X34305908Y-169342517D01*
X34299616Y-169401049D01*
X34299501Y-169402123D01*
X34299500Y-169402135D01*
X34299500Y-170797870D01*
X34299501Y-170797876D01*
X34305908Y-170857483D01*
X34356202Y-170992328D01*
X34356206Y-170992335D01*
X34442452Y-171107544D01*
X34442455Y-171107547D01*
X34557664Y-171193793D01*
X34557671Y-171193797D01*
X34692517Y-171244091D01*
X34692516Y-171244091D01*
X34699444Y-171244835D01*
X34752127Y-171250500D01*
X36847872Y-171250499D01*
X36907483Y-171244091D01*
X37042331Y-171193796D01*
X37157546Y-171107546D01*
X37243796Y-170992331D01*
X37294091Y-170857483D01*
X37300500Y-170797873D01*
X37300499Y-169402128D01*
X37294598Y-169347230D01*
X37294091Y-169342516D01*
X37243797Y-169207671D01*
X37243793Y-169207664D01*
X37178987Y-169121095D01*
X37157546Y-169092454D01*
X37157542Y-169092451D01*
X37100188Y-169049515D01*
X37058318Y-168993581D01*
X37050500Y-168950249D01*
X37050500Y-168074499D01*
X37070185Y-168007460D01*
X37122989Y-167961705D01*
X37174500Y-167950499D01*
X37811439Y-167950499D01*
X37811442Y-167950499D01*
X37869262Y-167944284D01*
X38000068Y-167895495D01*
X38000068Y-167895494D01*
X38000070Y-167895494D01*
X38000071Y-167895493D01*
X38111831Y-167811831D01*
X38195492Y-167700072D01*
X38195491Y-167700072D01*
X38195495Y-167700068D01*
X38244284Y-167569262D01*
X38246607Y-167547647D01*
X38250499Y-167511459D01*
X38250499Y-167511452D01*
X38250500Y-167511443D01*
X38250499Y-166425759D01*
X38270184Y-166358721D01*
X38285846Y-166340444D01*
X38285508Y-166340145D01*
X38290475Y-166334536D01*
X38290483Y-166334530D01*
X38380220Y-166204523D01*
X38436237Y-166056818D01*
X38455278Y-165900000D01*
X38454794Y-165896009D01*
X38436237Y-165743181D01*
X38395518Y-165635815D01*
X38380220Y-165595477D01*
X38290483Y-165465470D01*
X38290481Y-165465468D01*
X38236126Y-165417313D01*
X38202172Y-165367834D01*
X38195495Y-165349932D01*
X38117083Y-165245185D01*
X38111829Y-165238166D01*
X38000072Y-165154507D01*
X38000069Y-165154506D01*
X38000068Y-165154505D01*
X37869262Y-165105716D01*
X37869260Y-165105715D01*
X37869258Y-165105715D01*
X37811450Y-165099500D01*
X34788560Y-165099500D01*
X34788551Y-165099501D01*
X34730737Y-165105715D01*
X34730734Y-165105716D01*
X34599929Y-165154505D01*
X34599928Y-165154506D01*
X34488168Y-165238168D01*
X34404507Y-165349927D01*
X34404505Y-165349931D01*
X34404505Y-165349932D01*
X34397828Y-165367834D01*
X34355715Y-165480741D01*
X34349500Y-165538540D01*
X34349500Y-166581358D01*
X34329815Y-166648397D01*
X34300987Y-166679733D01*
X34232381Y-166732376D01*
X34144137Y-166847377D01*
X34088671Y-166981287D01*
X34088670Y-166981291D01*
X34069750Y-167125000D01*
X33675500Y-167125000D01*
X33675500Y-163787964D01*
X33695185Y-163720925D01*
X33711814Y-163700288D01*
X35475284Y-161936817D01*
X35536607Y-161903333D01*
X35562965Y-161900499D01*
X37811439Y-161900499D01*
X37811442Y-161900499D01*
X37869262Y-161894284D01*
X38000068Y-161845495D01*
X38000068Y-161845494D01*
X38000070Y-161845494D01*
X38000071Y-161845493D01*
X38111831Y-161761831D01*
X38159823Y-161697720D01*
X38195495Y-161650068D01*
X38244284Y-161519262D01*
X38249046Y-161474969D01*
X38250499Y-161461459D01*
X38250500Y-161461442D01*
X38250500Y-161324500D01*
X38270185Y-161257461D01*
X38322989Y-161211706D01*
X38374500Y-161200500D01*
X40063943Y-161200500D01*
X40130982Y-161220185D01*
X40164206Y-161256906D01*
X40166214Y-161255448D01*
X40171950Y-161263343D01*
X40261652Y-161353045D01*
X40261654Y-161353046D01*
X40261658Y-161353050D01*
X40374694Y-161410645D01*
X40374698Y-161410647D01*
X40468475Y-161425499D01*
X40468481Y-161425500D01*
X40831518Y-161425499D01*
X40925304Y-161410646D01*
X41038342Y-161353050D01*
X41128050Y-161263342D01*
X41185646Y-161150304D01*
X41185646Y-161150302D01*
X41185647Y-161150301D01*
X41200499Y-161056524D01*
X41200500Y-161056519D01*
X41200499Y-160593482D01*
X41185646Y-160499696D01*
X41128050Y-160386658D01*
X41128046Y-160386654D01*
X41128045Y-160386652D01*
X41036819Y-160295426D01*
X41003334Y-160234103D01*
X41000500Y-160207745D01*
X41000500Y-159967254D01*
X41020185Y-159900215D01*
X41036814Y-159879577D01*
X41103050Y-159813342D01*
X41160646Y-159700304D01*
X41160646Y-159700302D01*
X41160647Y-159700301D01*
X41175499Y-159606524D01*
X41175500Y-159606519D01*
X41175499Y-159415217D01*
X41176030Y-159407115D01*
X41180260Y-159374989D01*
X41176030Y-159342862D01*
X41175499Y-159334761D01*
X41175499Y-159143482D01*
X41174293Y-159135865D01*
X41160646Y-159049696D01*
X41103050Y-158936658D01*
X41103046Y-158936654D01*
X41103045Y-158936652D01*
X41013347Y-158846954D01*
X41013344Y-158846952D01*
X41013342Y-158846950D01*
X40915263Y-158796976D01*
X40900301Y-158789352D01*
X40806524Y-158774500D01*
X40443482Y-158774500D01*
X40368803Y-158786328D01*
X40349696Y-158789354D01*
X40236658Y-158846950D01*
X40236657Y-158846951D01*
X40236652Y-158846954D01*
X40146954Y-158936652D01*
X40146951Y-158936657D01*
X40146950Y-158936658D01*
X40135895Y-158958355D01*
X40089352Y-159049698D01*
X40074500Y-159143475D01*
X40074500Y-159334917D01*
X40073969Y-159343018D01*
X40069760Y-159374988D01*
X40069760Y-159374991D01*
X40073969Y-159406962D01*
X40074500Y-159415062D01*
X40074500Y-159606517D01*
X40085292Y-159674657D01*
X40089354Y-159700304D01*
X40146950Y-159813342D01*
X40213182Y-159879574D01*
X40246666Y-159940895D01*
X40249500Y-159967254D01*
X40249500Y-160257745D01*
X40229815Y-160324784D01*
X40213181Y-160345426D01*
X40171950Y-160386657D01*
X40166214Y-160394552D01*
X40163940Y-160392899D01*
X40126454Y-160432591D01*
X40063943Y-160449500D01*
X38374499Y-160449500D01*
X38307460Y-160429815D01*
X38261705Y-160377011D01*
X38250499Y-160325500D01*
X38250499Y-159488560D01*
X38250498Y-159488551D01*
X38244284Y-159430737D01*
X38244283Y-159430734D01*
X38195494Y-159299929D01*
X38195493Y-159299928D01*
X38111831Y-159188168D01*
X38000072Y-159104507D01*
X38000069Y-159104506D01*
X38000068Y-159104505D01*
X37869262Y-159055716D01*
X37869260Y-159055715D01*
X37869258Y-159055715D01*
X37811459Y-159049500D01*
X37811443Y-159049500D01*
X37674500Y-159049500D01*
X37607461Y-159029815D01*
X37561706Y-158977011D01*
X37550500Y-158925500D01*
X37550500Y-158517254D01*
X37570185Y-158450215D01*
X37586820Y-158429572D01*
X37628046Y-158388346D01*
X37628050Y-158388342D01*
X37685646Y-158275304D01*
X37685646Y-158275302D01*
X37685647Y-158275301D01*
X37688663Y-158266020D01*
X37691174Y-158266836D01*
X37714820Y-158216963D01*
X37774134Y-158180034D01*
X37807360Y-158175500D01*
X37912541Y-158175500D01*
X37979580Y-158195185D01*
X38025335Y-158247989D01*
X38028209Y-158254928D01*
X38028372Y-158255226D01*
X38110313Y-158364687D01*
X38219774Y-158446628D01*
X38347886Y-158494412D01*
X38404515Y-158500500D01*
X38945484Y-158500499D01*
X39002114Y-158494412D01*
X39130226Y-158446628D01*
X39239687Y-158364687D01*
X39321628Y-158255226D01*
X39369412Y-158127114D01*
X39372100Y-158102114D01*
X39375499Y-158070501D01*
X39375499Y-158070494D01*
X39375500Y-158070485D01*
X39375499Y-157479516D01*
X39369412Y-157422886D01*
X39366765Y-157415790D01*
X39344022Y-157354815D01*
X39321628Y-157294774D01*
X39239687Y-157185313D01*
X39130226Y-157103372D01*
X39130225Y-157103371D01*
X39124073Y-157098766D01*
X39082202Y-157042832D01*
X39077218Y-156973141D01*
X39110703Y-156911818D01*
X39172026Y-156878333D01*
X39198379Y-156875499D01*
X39595484Y-156875499D01*
X39652114Y-156869412D01*
X39780226Y-156821628D01*
X39889687Y-156739687D01*
X39971628Y-156630226D01*
X40019412Y-156502114D01*
X40022045Y-156477623D01*
X40025499Y-156445501D01*
X40025499Y-156445494D01*
X40025500Y-156445485D01*
X40025499Y-155904516D01*
X40019412Y-155847886D01*
X40017447Y-155842619D01*
X39995755Y-155784460D01*
X39971628Y-155719774D01*
X39889687Y-155610313D01*
X39797608Y-155541384D01*
X39780228Y-155528373D01*
X39780226Y-155528372D01*
X39652114Y-155480588D01*
X39652112Y-155480587D01*
X39652110Y-155480587D01*
X39595493Y-155474500D01*
X38754518Y-155474500D01*
X38754509Y-155474501D01*
X38697885Y-155480587D01*
X38569771Y-155528373D01*
X38569770Y-155528373D01*
X38460312Y-155610312D01*
X38454042Y-155616583D01*
X38452753Y-155615294D01*
X38405521Y-155650640D01*
X38346019Y-155657391D01*
X38258314Y-155645844D01*
X38194418Y-155617577D01*
X38155947Y-155559253D01*
X38150500Y-155522905D01*
X38150500Y-155103817D01*
X38170185Y-155036778D01*
X38222989Y-154991023D01*
X38290683Y-154980878D01*
X38367739Y-154991023D01*
X38399981Y-154995268D01*
X38399982Y-154995268D01*
X38399983Y-154995268D01*
X38414959Y-154993296D01*
X38543691Y-154976348D01*
X38677607Y-154920879D01*
X38792603Y-154832639D01*
X38880843Y-154717643D01*
X38936312Y-154583727D01*
X38955232Y-154440018D01*
X38936312Y-154296309D01*
X38884296Y-154170730D01*
X38880844Y-154162395D01*
X38880843Y-154162394D01*
X38880843Y-154162393D01*
X38792603Y-154047397D01*
X38677607Y-153959157D01*
X38677606Y-153959156D01*
X38677604Y-153959155D01*
X38543694Y-153903689D01*
X38543692Y-153903688D01*
X38543691Y-153903688D01*
X38471836Y-153894228D01*
X38399983Y-153884768D01*
X38399981Y-153884768D01*
X38256273Y-153903688D01*
X38256269Y-153903689D01*
X38122356Y-153959156D01*
X38122353Y-153959158D01*
X38105555Y-153972048D01*
X38040385Y-153997241D01*
X37971941Y-153983201D01*
X37942390Y-153961352D01*
X37786819Y-153805781D01*
X37753334Y-153744458D01*
X37750500Y-153718100D01*
X37750500Y-153351448D01*
X37770185Y-153284409D01*
X37822989Y-153238654D01*
X37892147Y-153228710D01*
X37914763Y-153234167D01*
X37962339Y-153250500D01*
X37970079Y-153251791D01*
X37977909Y-153252767D01*
X37977911Y-153252768D01*
X37977912Y-153252767D01*
X37977913Y-153252768D01*
X38032755Y-153250500D01*
X38262541Y-153250500D01*
X38329580Y-153270185D01*
X38375335Y-153322989D01*
X38378209Y-153329928D01*
X38378372Y-153330226D01*
X38460313Y-153439687D01*
X38569774Y-153521628D01*
X38697886Y-153569412D01*
X38754515Y-153575500D01*
X39595484Y-153575499D01*
X39652114Y-153569412D01*
X39780226Y-153521628D01*
X39889687Y-153439687D01*
X39971628Y-153330226D01*
X40019412Y-153202114D01*
X40022625Y-153172232D01*
X40025499Y-153145501D01*
X40025499Y-153145494D01*
X40025500Y-153145485D01*
X40025499Y-152604516D01*
X40019412Y-152547886D01*
X40010997Y-152525326D01*
X39983746Y-152452264D01*
X39971628Y-152419774D01*
X39889687Y-152310313D01*
X39801458Y-152244266D01*
X39780228Y-152228373D01*
X39780226Y-152228372D01*
X39652114Y-152180588D01*
X39652112Y-152180587D01*
X39652110Y-152180587D01*
X39595493Y-152174500D01*
X38754518Y-152174500D01*
X38754509Y-152174501D01*
X38697885Y-152180587D01*
X38569773Y-152228372D01*
X38460313Y-152310313D01*
X38378372Y-152419773D01*
X38374123Y-152427556D01*
X38372753Y-152426808D01*
X38336850Y-152474768D01*
X38271385Y-152499184D01*
X38262541Y-152499500D01*
X38231899Y-152499500D01*
X38164860Y-152479815D01*
X38144218Y-152463181D01*
X37786819Y-152105781D01*
X37753334Y-152044458D01*
X37750500Y-152018100D01*
X37750500Y-151670730D01*
X37747646Y-151640300D01*
X37747646Y-151640298D01*
X37702793Y-151512119D01*
X37702792Y-151512117D01*
X37701461Y-151510313D01*
X37622150Y-151402850D01*
X37512882Y-151322207D01*
X37512880Y-151322206D01*
X37384700Y-151277353D01*
X37354270Y-151274500D01*
X37354266Y-151274500D01*
X36695734Y-151274500D01*
X36695730Y-151274500D01*
X36665300Y-151277353D01*
X36665298Y-151277353D01*
X36537119Y-151322206D01*
X36537117Y-151322207D01*
X36427850Y-151402850D01*
X36347207Y-151512117D01*
X36347206Y-151512119D01*
X36302353Y-151640298D01*
X36302353Y-151640300D01*
X36299500Y-151670730D01*
X36299500Y-152179269D01*
X36302353Y-152209699D01*
X36302353Y-152209701D01*
X36338862Y-152314034D01*
X36347207Y-152337882D01*
X36427850Y-152447150D01*
X36537118Y-152527793D01*
X36579845Y-152542744D01*
X36665299Y-152572646D01*
X36695730Y-152575500D01*
X36695734Y-152575500D01*
X37143101Y-152575500D01*
X37210140Y-152595185D01*
X37230782Y-152611819D01*
X37331782Y-152712819D01*
X37365267Y-152774142D01*
X37360283Y-152843834D01*
X37318411Y-152899767D01*
X37252947Y-152924184D01*
X37244101Y-152924500D01*
X36695730Y-152924500D01*
X36665300Y-152927353D01*
X36665298Y-152927353D01*
X36537119Y-152972206D01*
X36537117Y-152972207D01*
X36427850Y-153052850D01*
X36347207Y-153162117D01*
X36347206Y-153162119D01*
X36302353Y-153290298D01*
X36302353Y-153290300D01*
X36299500Y-153320730D01*
X36299500Y-153473744D01*
X36279815Y-153540783D01*
X36227011Y-153586538D01*
X36157853Y-153596482D01*
X36094297Y-153567457D01*
X36087819Y-153561425D01*
X35819374Y-153292980D01*
X35819345Y-153292953D01*
X35791440Y-153265048D01*
X35793042Y-153263445D01*
X35758537Y-153218694D01*
X35757941Y-153217131D01*
X35721628Y-153119774D01*
X35639687Y-153010313D01*
X35639685Y-153010312D01*
X35639685Y-153010311D01*
X35558139Y-152949267D01*
X35516267Y-152893334D01*
X35511283Y-152823642D01*
X35544768Y-152762319D01*
X35558139Y-152750733D01*
X35608786Y-152712819D01*
X35639687Y-152689687D01*
X35721628Y-152580226D01*
X35769412Y-152452114D01*
X35772889Y-152419773D01*
X35775499Y-152395501D01*
X35775499Y-152395490D01*
X35775500Y-152395485D01*
X35775499Y-151804516D01*
X35771254Y-151765025D01*
X35769412Y-151747885D01*
X35742106Y-151674678D01*
X35721628Y-151619774D01*
X35639687Y-151510313D01*
X35639685Y-151510311D01*
X35639684Y-151510310D01*
X35639474Y-151510100D01*
X35639331Y-151509839D01*
X35634372Y-151503214D01*
X35635324Y-151502500D01*
X35605989Y-151448777D01*
X35610973Y-151379085D01*
X35651666Y-151324046D01*
X35692621Y-151292621D01*
X35780861Y-151177625D01*
X35836330Y-151043709D01*
X35855250Y-150900000D01*
X35836330Y-150756291D01*
X35786300Y-150635505D01*
X35780862Y-150622377D01*
X35780861Y-150622376D01*
X35780861Y-150622375D01*
X35692621Y-150507379D01*
X35577625Y-150419139D01*
X35577624Y-150419138D01*
X35577622Y-150419137D01*
X35443712Y-150363671D01*
X35443710Y-150363670D01*
X35443709Y-150363670D01*
X35371854Y-150354210D01*
X35300001Y-150344750D01*
X35299999Y-150344750D01*
X35156291Y-150363670D01*
X35156287Y-150363671D01*
X35022377Y-150419137D01*
X34907379Y-150507379D01*
X34819137Y-150622377D01*
X34763671Y-150756287D01*
X34763670Y-150756291D01*
X34744750Y-150899999D01*
X34744750Y-150905058D01*
X34734897Y-150947651D01*
X34735921Y-150947956D01*
X34717329Y-151010403D01*
X34699500Y-151062338D01*
X34698206Y-151070092D01*
X34697231Y-151077911D01*
X34699500Y-151132755D01*
X34699500Y-151312541D01*
X34679815Y-151379580D01*
X34627011Y-151425335D01*
X34620071Y-151428209D01*
X34619773Y-151428372D01*
X34510313Y-151510313D01*
X34428373Y-151619771D01*
X34428372Y-151619774D01*
X34380643Y-151747740D01*
X34380587Y-151747889D01*
X34374500Y-151804498D01*
X34374500Y-152395481D01*
X34374501Y-152395490D01*
X34380587Y-152452114D01*
X34425545Y-152572646D01*
X34428372Y-152580226D01*
X34510313Y-152689687D01*
X34573620Y-152737078D01*
X34591861Y-152750733D01*
X34633732Y-152806667D01*
X34638716Y-152876359D01*
X34605231Y-152937682D01*
X34591861Y-152949267D01*
X34510313Y-153010313D01*
X34428373Y-153119771D01*
X34428372Y-153119774D01*
X34383465Y-153240174D01*
X34380587Y-153247889D01*
X34374500Y-153304498D01*
X34374500Y-153895481D01*
X34374501Y-153895490D01*
X34380587Y-153952114D01*
X34422641Y-154064861D01*
X34428372Y-154080226D01*
X34510313Y-154189687D01*
X34619774Y-154271628D01*
X34747886Y-154319412D01*
X34760720Y-154320791D01*
X34775797Y-154322413D01*
X34840349Y-154349151D01*
X34880197Y-154406543D01*
X34882690Y-154476368D01*
X34850224Y-154533383D01*
X34771951Y-154611656D01*
X34771951Y-154611657D01*
X34771950Y-154611658D01*
X34752751Y-154649337D01*
X34714352Y-154724698D01*
X34699500Y-154818475D01*
X34699500Y-155906517D01*
X34704945Y-155940896D01*
X34714354Y-156000304D01*
X34771950Y-156113342D01*
X34771952Y-156113344D01*
X34771954Y-156113347D01*
X34861652Y-156203045D01*
X34861654Y-156203046D01*
X34861658Y-156203050D01*
X34960371Y-156253347D01*
X34974698Y-156260647D01*
X35068475Y-156275499D01*
X35068481Y-156275500D01*
X35431518Y-156275499D01*
X35525304Y-156260646D01*
X35638342Y-156203050D01*
X35728050Y-156113342D01*
X35785646Y-156000304D01*
X35785646Y-156000302D01*
X35785647Y-156000301D01*
X35800499Y-155906524D01*
X35800500Y-155906519D01*
X35800499Y-154818482D01*
X35785646Y-154724696D01*
X35785643Y-154724690D01*
X35785143Y-154723151D01*
X35785086Y-154721163D01*
X35784119Y-154715057D01*
X35784907Y-154714932D01*
X35783146Y-154653310D01*
X35819224Y-154593475D01*
X35881923Y-154562645D01*
X35951338Y-154570607D01*
X35990754Y-154597147D01*
X36563181Y-155169574D01*
X36596666Y-155230897D01*
X36599500Y-155257255D01*
X36599500Y-155771588D01*
X36579815Y-155838627D01*
X36527011Y-155884382D01*
X36491687Y-155894527D01*
X36346291Y-155913670D01*
X36346287Y-155913671D01*
X36212377Y-155969137D01*
X36097379Y-156057379D01*
X36009137Y-156172377D01*
X35953671Y-156306287D01*
X35953670Y-156306291D01*
X35934750Y-156449999D01*
X35934750Y-156450000D01*
X35953670Y-156593708D01*
X35953671Y-156593712D01*
X36009137Y-156727622D01*
X36009138Y-156727624D01*
X36009139Y-156727625D01*
X36097379Y-156842621D01*
X36212375Y-156930861D01*
X36346291Y-156986330D01*
X36490000Y-157005250D01*
X36490003Y-157005249D01*
X36491685Y-157005471D01*
X36555582Y-157033737D01*
X36594053Y-157092062D01*
X36599500Y-157128410D01*
X36599500Y-158181517D01*
X36606147Y-158223482D01*
X36614354Y-158275304D01*
X36671950Y-158388342D01*
X36671952Y-158388344D01*
X36671953Y-158388346D01*
X36713180Y-158429572D01*
X36746666Y-158490895D01*
X36749500Y-158517254D01*
X36749500Y-158925500D01*
X36729815Y-158992539D01*
X36677011Y-159038294D01*
X36625500Y-159049500D01*
X35492255Y-159049500D01*
X35425216Y-159029815D01*
X35404574Y-159013181D01*
X35153573Y-158762180D01*
X35120088Y-158700857D01*
X35125072Y-158631165D01*
X35166944Y-158575232D01*
X35232408Y-158550815D01*
X35241239Y-158550499D01*
X35431518Y-158550499D01*
X35525304Y-158535646D01*
X35638342Y-158478050D01*
X35728050Y-158388342D01*
X35785646Y-158275304D01*
X35785646Y-158275302D01*
X35785647Y-158275301D01*
X35796282Y-158208147D01*
X35800500Y-158181519D01*
X35800499Y-157093482D01*
X35785646Y-156999696D01*
X35728050Y-156886658D01*
X35728046Y-156886654D01*
X35728045Y-156886652D01*
X35638347Y-156796954D01*
X35638344Y-156796952D01*
X35638342Y-156796950D01*
X35554594Y-156754278D01*
X35525301Y-156739352D01*
X35431524Y-156724500D01*
X35068482Y-156724500D01*
X34993790Y-156736330D01*
X34974696Y-156739354D01*
X34861658Y-156796950D01*
X34861657Y-156796951D01*
X34861652Y-156796954D01*
X34771954Y-156886652D01*
X34771951Y-156886657D01*
X34714352Y-156999698D01*
X34699500Y-157093475D01*
X34699500Y-157250500D01*
X34679815Y-157317539D01*
X34627011Y-157363294D01*
X34575500Y-157374500D01*
X34374666Y-157374500D01*
X34307627Y-157354815D01*
X34275399Y-157324811D01*
X34237737Y-157274501D01*
X34189687Y-157210313D01*
X34080277Y-157128410D01*
X34080228Y-157128373D01*
X34080226Y-157128372D01*
X33952114Y-157080588D01*
X33952112Y-157080587D01*
X33952110Y-157080587D01*
X33895493Y-157074500D01*
X33304518Y-157074500D01*
X33304509Y-157074501D01*
X33247885Y-157080587D01*
X33119773Y-157128372D01*
X33010313Y-157210313D01*
X32928373Y-157319771D01*
X32880587Y-157447889D01*
X32874500Y-157504498D01*
X32874500Y-158045481D01*
X32874501Y-158045490D01*
X32880587Y-158102114D01*
X32912478Y-158187613D01*
X32928372Y-158230226D01*
X33010313Y-158339687D01*
X33088108Y-158397923D01*
X33099534Y-158406477D01*
X33119774Y-158421628D01*
X33247886Y-158469412D01*
X33304515Y-158475500D01*
X33682744Y-158475499D01*
X33749783Y-158495183D01*
X33770425Y-158511818D01*
X34394472Y-159135865D01*
X34427957Y-159197188D01*
X34422973Y-159266880D01*
X34406064Y-159297849D01*
X34404507Y-159299928D01*
X34404507Y-159299929D01*
X34404505Y-159299932D01*
X34355716Y-159430737D01*
X34355715Y-159430741D01*
X34349500Y-159488540D01*
X34349500Y-160283627D01*
X34329815Y-160350666D01*
X34277011Y-160396421D01*
X34272954Y-160398188D01*
X34222377Y-160419138D01*
X34222375Y-160419139D01*
X34107379Y-160507379D01*
X34019137Y-160622377D01*
X33963671Y-160756287D01*
X33963670Y-160756291D01*
X33944750Y-160899999D01*
X33944750Y-160900000D01*
X33963670Y-161043708D01*
X33963671Y-161043712D01*
X34019137Y-161177622D01*
X34019138Y-161177624D01*
X34019139Y-161177625D01*
X34107379Y-161292621D01*
X34222375Y-161380861D01*
X34278385Y-161404060D01*
X34332787Y-161447900D01*
X34354222Y-161505366D01*
X34355716Y-161519263D01*
X34355716Y-161519265D01*
X34399291Y-161636088D01*
X34404277Y-161705779D01*
X34370792Y-161767103D01*
X34370791Y-161767104D01*
X32926804Y-163211092D01*
X32921617Y-163215727D01*
X32891033Y-163240117D01*
X32891029Y-163240121D01*
X32857519Y-163289271D01*
X32822206Y-163337118D01*
X32818216Y-163344667D01*
X32814528Y-163352326D01*
X32796992Y-163409177D01*
X32777353Y-163465301D01*
X32775771Y-163473659D01*
X32774500Y-163482100D01*
X32774500Y-163541573D01*
X32772275Y-163601009D01*
X32773316Y-163610243D01*
X32772485Y-163610336D01*
X32774500Y-163625635D01*
X32774500Y-172005478D01*
X32765063Y-172052926D01*
X32763670Y-172056287D01*
X32744750Y-172199999D01*
X32744750Y-172200000D01*
X32175500Y-172200000D01*
X32175500Y-150072870D01*
X42937000Y-150072870D01*
X42937001Y-150072876D01*
X42943408Y-150132483D01*
X42993702Y-150267328D01*
X42993703Y-150267330D01*
X42993704Y-150267331D01*
X43079461Y-150381888D01*
X43085268Y-150389644D01*
X43084491Y-150390225D01*
X43094465Y-150403303D01*
X43118112Y-150444828D01*
X43163867Y-150497632D01*
X43196641Y-150529257D01*
X43284976Y-150575465D01*
X43284977Y-150575465D01*
X43284977Y-150575466D01*
X43329218Y-150588456D01*
X43352015Y-150595150D01*
X43352019Y-150595150D01*
X43352021Y-150595151D01*
X43371510Y-150597953D01*
X43418146Y-150604658D01*
X43481702Y-150633682D01*
X43519477Y-150692460D01*
X43524500Y-150727396D01*
X43524500Y-151148196D01*
X43521862Y-151173634D01*
X43519633Y-151184268D01*
X43519633Y-151184269D01*
X43519633Y-151184271D01*
X43524023Y-151219491D01*
X43524500Y-151227167D01*
X43524500Y-151231116D01*
X43528342Y-151254141D01*
X43535134Y-151308627D01*
X43537373Y-151316147D01*
X43539935Y-151323611D01*
X43559555Y-151359866D01*
X43574500Y-151418882D01*
X43574500Y-151674678D01*
X43589032Y-151747735D01*
X43589033Y-151747739D01*
X43604031Y-151770185D01*
X43644399Y-151830601D01*
X43703703Y-151870226D01*
X43727260Y-151885966D01*
X43727264Y-151885967D01*
X43800321Y-151900499D01*
X43800324Y-151900500D01*
X43800326Y-151900500D01*
X44499676Y-151900500D01*
X44505739Y-151899903D01*
X44505915Y-151901697D01*
X44567041Y-151907154D01*
X44576195Y-151914262D01*
X44583873Y-151889825D01*
X44618018Y-151855712D01*
X44655601Y-151830601D01*
X44710966Y-151747740D01*
X44725500Y-151674674D01*
X44725500Y-151225326D01*
X44725500Y-151225323D01*
X44725499Y-151225321D01*
X44710967Y-151152264D01*
X44710966Y-151152260D01*
X44679064Y-151104515D01*
X44655601Y-151069399D01*
X44572740Y-151014034D01*
X44572739Y-151014033D01*
X44572735Y-151014032D01*
X44499677Y-150999500D01*
X44499674Y-150999500D01*
X44399500Y-150999500D01*
X44332461Y-150979815D01*
X44286706Y-150927011D01*
X44275500Y-150875500D01*
X44275500Y-150729500D01*
X44295185Y-150662461D01*
X44347989Y-150616706D01*
X44397702Y-150605890D01*
X44397699Y-150605855D01*
X44397702Y-150605854D01*
X44397693Y-150605677D01*
X44399010Y-150605606D01*
X44399500Y-150605500D01*
X44401000Y-150605500D01*
X44455313Y-150599661D01*
X44475162Y-150595343D01*
X44506817Y-150588457D01*
X44506817Y-150588456D01*
X44506824Y-150588455D01*
X44533198Y-150581219D01*
X44588617Y-150549661D01*
X44619818Y-150531894D01*
X44619821Y-150531891D01*
X44619828Y-150531888D01*
X44655938Y-150500597D01*
X44672629Y-150486136D01*
X44689364Y-150468793D01*
X44704257Y-150453359D01*
X44750465Y-150365024D01*
X44750863Y-150363671D01*
X44759066Y-150335731D01*
X44770150Y-150297985D01*
X44780500Y-150226000D01*
X44780500Y-150072870D01*
X52799500Y-150072870D01*
X52799501Y-150072876D01*
X52805908Y-150132483D01*
X52856202Y-150267328D01*
X52856206Y-150267335D01*
X52942451Y-150382542D01*
X52942458Y-150382550D01*
X52974519Y-150406550D01*
X52993918Y-150424610D01*
X53013867Y-150447632D01*
X53046641Y-150479257D01*
X53134976Y-150525465D01*
X53134977Y-150525465D01*
X53134977Y-150525466D01*
X53206264Y-150546398D01*
X53205682Y-150548376D01*
X53259615Y-150577793D01*
X53293128Y-150639101D01*
X53295021Y-150650174D01*
X53297632Y-150671121D01*
X53299873Y-150678647D01*
X53302434Y-150686108D01*
X53302435Y-150686110D01*
X53324777Y-150727396D01*
X53328555Y-150734377D01*
X53352674Y-150783711D01*
X53357242Y-150790109D01*
X53362082Y-150796327D01*
X53402471Y-150833509D01*
X53938181Y-151369218D01*
X53971666Y-151430541D01*
X53974500Y-151456899D01*
X53974500Y-151674678D01*
X53989032Y-151747735D01*
X53989033Y-151747739D01*
X54004031Y-151770185D01*
X54044399Y-151830601D01*
X54103703Y-151870226D01*
X54127260Y-151885966D01*
X54127264Y-151885967D01*
X54200321Y-151900499D01*
X54200324Y-151900500D01*
X54200326Y-151900500D01*
X54899676Y-151900500D01*
X54899677Y-151900499D01*
X54972740Y-151885966D01*
X55055601Y-151830601D01*
X55110966Y-151747740D01*
X55125500Y-151674674D01*
X55125500Y-151225326D01*
X55125500Y-151225323D01*
X55125499Y-151225321D01*
X55110967Y-151152264D01*
X55110966Y-151152260D01*
X55079064Y-151104515D01*
X55055601Y-151069399D01*
X54972740Y-151014034D01*
X54972739Y-151014033D01*
X54972735Y-151014032D01*
X54899677Y-150999500D01*
X54899674Y-150999500D01*
X54681899Y-150999500D01*
X54614860Y-150979815D01*
X54594218Y-150963181D01*
X54357396Y-150726358D01*
X54323911Y-150665035D01*
X54328895Y-150595343D01*
X54370767Y-150539410D01*
X54383707Y-150530928D01*
X54469828Y-150481888D01*
X54505938Y-150450597D01*
X54522629Y-150436136D01*
X54522632Y-150436133D01*
X54554257Y-150403359D01*
X54600465Y-150315024D01*
X54603891Y-150303359D01*
X54614469Y-150267331D01*
X54620150Y-150247985D01*
X54630500Y-150176000D01*
X54630500Y-150072870D01*
X62599500Y-150072870D01*
X62599501Y-150072876D01*
X62605908Y-150132483D01*
X62656202Y-150267328D01*
X62656206Y-150267335D01*
X62742452Y-150382544D01*
X62742455Y-150382547D01*
X62857664Y-150468793D01*
X62857671Y-150468797D01*
X62992517Y-150519091D01*
X62992516Y-150519091D01*
X62999444Y-150519835D01*
X63052127Y-150525500D01*
X63872872Y-150525499D01*
X63932483Y-150519091D01*
X64067331Y-150468796D01*
X64089635Y-150452098D01*
X64126066Y-150434267D01*
X64126033Y-150434187D01*
X64127321Y-150433653D01*
X64131144Y-150431782D01*
X64133198Y-150431219D01*
X64219828Y-150381888D01*
X64255938Y-150350597D01*
X64272629Y-150336136D01*
X64272632Y-150336133D01*
X64304257Y-150303359D01*
X64350465Y-150215024D01*
X64370150Y-150147985D01*
X64380500Y-150076000D01*
X64380500Y-148854269D01*
X64674500Y-148854269D01*
X64677353Y-148884699D01*
X64677353Y-148884701D01*
X64718572Y-149002495D01*
X64722207Y-149012882D01*
X64802850Y-149122150D01*
X64802851Y-149122150D01*
X64802852Y-149122152D01*
X64806527Y-149124864D01*
X64848777Y-149180511D01*
X64855832Y-149240819D01*
X64844750Y-149324997D01*
X64844750Y-149325000D01*
X64863670Y-149468708D01*
X64863671Y-149468712D01*
X64919137Y-149602622D01*
X64919138Y-149602624D01*
X64919139Y-149602625D01*
X65007379Y-149717621D01*
X65122375Y-149805861D01*
X65256291Y-149861330D01*
X65383280Y-149878048D01*
X65399999Y-149880250D01*
X65400000Y-149880250D01*
X65400001Y-149880250D01*
X65414977Y-149878278D01*
X65543709Y-149861330D01*
X65677625Y-149805861D01*
X65792621Y-149717621D01*
X65880861Y-149602625D01*
X65936330Y-149468709D01*
X65955250Y-149325000D01*
X65944167Y-149240818D01*
X65954932Y-149171784D01*
X65993473Y-149124863D01*
X65997150Y-149122150D01*
X66077793Y-149012882D01*
X66100794Y-148947149D01*
X66122646Y-148884701D01*
X66122646Y-148884699D01*
X66125500Y-148854269D01*
X66125500Y-148345730D01*
X66122646Y-148315300D01*
X66122646Y-148315298D01*
X66077793Y-148187119D01*
X66077792Y-148187117D01*
X66065698Y-148170730D01*
X65997150Y-148077850D01*
X65887882Y-147997207D01*
X65887880Y-147997206D01*
X65759700Y-147952353D01*
X65729270Y-147949500D01*
X65729266Y-147949500D01*
X65070734Y-147949500D01*
X65070730Y-147949500D01*
X65040300Y-147952353D01*
X65040298Y-147952353D01*
X64912119Y-147997206D01*
X64912117Y-147997207D01*
X64802850Y-148077850D01*
X64722207Y-148187117D01*
X64722206Y-148187119D01*
X64677353Y-148315298D01*
X64677353Y-148315300D01*
X64674500Y-148345730D01*
X64674500Y-148854269D01*
X64380500Y-148854269D01*
X64380500Y-147204269D01*
X64674500Y-147204269D01*
X64677353Y-147234699D01*
X64677353Y-147234701D01*
X64722206Y-147362880D01*
X64722207Y-147362882D01*
X64802850Y-147472150D01*
X64912118Y-147552793D01*
X64954845Y-147567744D01*
X65040299Y-147597646D01*
X65070730Y-147600500D01*
X65070734Y-147600500D01*
X65729270Y-147600500D01*
X65759699Y-147597646D01*
X65759701Y-147597646D01*
X65823790Y-147575219D01*
X65887882Y-147552793D01*
X65997150Y-147472150D01*
X66077793Y-147362882D01*
X66100794Y-147297149D01*
X66122646Y-147234701D01*
X66122646Y-147234699D01*
X66125500Y-147204269D01*
X66125500Y-146695730D01*
X66122646Y-146665300D01*
X66122646Y-146665298D01*
X66077793Y-146537119D01*
X66077792Y-146537117D01*
X66065698Y-146520730D01*
X65997150Y-146427850D01*
X65922618Y-146372843D01*
X65880367Y-146317195D01*
X65874909Y-146247539D01*
X65881691Y-146225621D01*
X65895592Y-146192061D01*
X65936330Y-146093709D01*
X65955250Y-145950000D01*
X65936330Y-145806291D01*
X65880861Y-145672375D01*
X65792621Y-145557379D01*
X65677625Y-145469139D01*
X65677624Y-145469138D01*
X65677622Y-145469137D01*
X65543712Y-145413671D01*
X65543710Y-145413670D01*
X65543709Y-145413670D01*
X65471854Y-145404210D01*
X65400001Y-145394750D01*
X65399999Y-145394750D01*
X65256291Y-145413670D01*
X65256287Y-145413671D01*
X65122377Y-145469137D01*
X65007379Y-145557379D01*
X64919137Y-145672377D01*
X64863671Y-145806287D01*
X64863670Y-145806291D01*
X64844750Y-145949999D01*
X64844750Y-145950000D01*
X64863669Y-146093706D01*
X64863669Y-146093708D01*
X64863670Y-146093709D01*
X64904408Y-146192061D01*
X64918309Y-146225621D01*
X64925777Y-146295091D01*
X64894501Y-146357570D01*
X64877382Y-146372842D01*
X64802850Y-146427849D01*
X64722207Y-146537117D01*
X64722206Y-146537119D01*
X64677353Y-146665298D01*
X64677353Y-146665300D01*
X64674500Y-146695730D01*
X64674500Y-147204269D01*
X64380500Y-147204269D01*
X64380500Y-146949000D01*
X64374661Y-146894687D01*
X64363455Y-146843176D01*
X64356219Y-146816802D01*
X64352332Y-146809976D01*
X64306894Y-146730181D01*
X64306888Y-146730172D01*
X64261136Y-146677371D01*
X64248626Y-146665300D01*
X64228359Y-146645743D01*
X64140024Y-146599535D01*
X64140023Y-146599534D01*
X64140022Y-146599534D01*
X64140022Y-146599533D01*
X64072990Y-146579851D01*
X64072978Y-146579848D01*
X64001001Y-146569500D01*
X64001000Y-146569500D01*
X63024000Y-146569500D01*
X63023997Y-146569500D01*
X62969687Y-146575338D01*
X62918183Y-146586543D01*
X62918182Y-146586543D01*
X62918176Y-146586545D01*
X62907177Y-146589562D01*
X62891806Y-146593779D01*
X62891796Y-146593783D01*
X62805181Y-146643105D01*
X62805172Y-146643111D01*
X62752371Y-146688864D01*
X62720743Y-146721640D01*
X62674534Y-146809977D01*
X62674533Y-146809977D01*
X62654851Y-146877009D01*
X62654848Y-146877021D01*
X62644500Y-146948997D01*
X62644440Y-146949841D01*
X62644260Y-146950666D01*
X62643870Y-146953382D01*
X62643675Y-146953354D01*
X62636938Y-146984323D01*
X62605908Y-147067517D01*
X62599501Y-147127116D01*
X62599500Y-147127135D01*
X62599500Y-150072870D01*
X54630500Y-150072870D01*
X54630500Y-148679269D01*
X54989500Y-148679269D01*
X54992353Y-148709699D01*
X54992353Y-148709701D01*
X55037206Y-148837880D01*
X55037207Y-148837882D01*
X55117850Y-148947150D01*
X55149170Y-148970265D01*
X55191421Y-149025913D01*
X55196879Y-149095569D01*
X55190098Y-149117486D01*
X55163670Y-149181290D01*
X55163670Y-149181291D01*
X55144750Y-149324999D01*
X55144750Y-149325000D01*
X55163670Y-149468708D01*
X55163671Y-149468712D01*
X55219137Y-149602622D01*
X55219138Y-149602624D01*
X55219139Y-149602625D01*
X55307379Y-149717621D01*
X55422375Y-149805861D01*
X55556291Y-149861330D01*
X55683280Y-149878048D01*
X55699999Y-149880250D01*
X55700000Y-149880250D01*
X55700001Y-149880250D01*
X55714977Y-149878278D01*
X55843709Y-149861330D01*
X55977625Y-149805861D01*
X56092621Y-149717621D01*
X56180861Y-149602625D01*
X56236330Y-149468709D01*
X56255250Y-149325000D01*
X56236330Y-149181291D01*
X56216926Y-149134444D01*
X56209457Y-149064974D01*
X56240733Y-149002495D01*
X56257847Y-148987227D01*
X56312150Y-148947150D01*
X56392793Y-148837882D01*
X56415219Y-148773790D01*
X56437646Y-148709701D01*
X56437646Y-148709699D01*
X56440500Y-148679269D01*
X56440500Y-148170730D01*
X56437646Y-148140300D01*
X56437646Y-148140298D01*
X56392793Y-148012119D01*
X56392792Y-148012117D01*
X56381788Y-147997207D01*
X56312150Y-147902850D01*
X56202882Y-147822207D01*
X56202880Y-147822206D01*
X56074700Y-147777353D01*
X56044270Y-147774500D01*
X56044266Y-147774500D01*
X55385734Y-147774500D01*
X55385730Y-147774500D01*
X55355300Y-147777353D01*
X55355298Y-147777353D01*
X55227119Y-147822206D01*
X55227117Y-147822207D01*
X55117850Y-147902850D01*
X55037207Y-148012117D01*
X55037206Y-148012119D01*
X54992353Y-148140298D01*
X54992353Y-148140300D01*
X54989500Y-148170730D01*
X54989500Y-148679269D01*
X54630500Y-148679269D01*
X54630500Y-147049000D01*
X54628379Y-147029269D01*
X54989500Y-147029269D01*
X54992353Y-147059699D01*
X54992353Y-147059701D01*
X55037206Y-147187880D01*
X55037207Y-147187882D01*
X55117850Y-147297150D01*
X55227118Y-147377793D01*
X55269845Y-147392744D01*
X55355299Y-147422646D01*
X55385730Y-147425500D01*
X55385734Y-147425500D01*
X56044270Y-147425500D01*
X56074699Y-147422646D01*
X56074701Y-147422646D01*
X56138790Y-147400219D01*
X56202882Y-147377793D01*
X56312150Y-147297150D01*
X56392793Y-147187882D01*
X56423895Y-147098997D01*
X56437646Y-147059701D01*
X56437646Y-147059699D01*
X56440500Y-147029269D01*
X56440500Y-146520730D01*
X56437646Y-146490300D01*
X56437646Y-146490298D01*
X56392793Y-146362119D01*
X56392792Y-146362117D01*
X56381788Y-146347207D01*
X56312150Y-146252850D01*
X56312147Y-146252848D01*
X56312146Y-146252846D01*
X56311591Y-146252437D01*
X56311131Y-146251832D01*
X56305576Y-146246276D01*
X56306335Y-146245516D01*
X56269337Y-146196792D01*
X56262281Y-146136482D01*
X56280250Y-146000000D01*
X56261330Y-145856291D01*
X56205861Y-145722375D01*
X56117621Y-145607379D01*
X56002625Y-145519139D01*
X56002624Y-145519138D01*
X56002622Y-145519137D01*
X55868712Y-145463671D01*
X55868710Y-145463670D01*
X55868709Y-145463670D01*
X55796854Y-145454210D01*
X55725001Y-145444750D01*
X55724999Y-145444750D01*
X55581291Y-145463670D01*
X55581287Y-145463671D01*
X55447377Y-145519137D01*
X55332379Y-145607379D01*
X55244137Y-145722377D01*
X55188671Y-145856287D01*
X55188670Y-145856291D01*
X55169750Y-145999999D01*
X55169750Y-146000000D01*
X55185947Y-146123025D01*
X55175182Y-146192061D01*
X55136644Y-146238978D01*
X55117850Y-146252850D01*
X55117849Y-146252851D01*
X55037207Y-146362117D01*
X55037206Y-146362119D01*
X54992353Y-146490298D01*
X54992353Y-146490300D01*
X54989500Y-146520730D01*
X54989500Y-147029269D01*
X54628379Y-147029269D01*
X54624661Y-146994687D01*
X54618595Y-146966802D01*
X54613457Y-146943183D01*
X54613456Y-146943182D01*
X54613455Y-146943176D01*
X54606219Y-146916802D01*
X54593626Y-146894687D01*
X54556894Y-146830181D01*
X54556888Y-146830172D01*
X54511136Y-146777371D01*
X54478359Y-146745743D01*
X54428191Y-146719500D01*
X54390024Y-146699535D01*
X54390023Y-146699534D01*
X54390022Y-146699534D01*
X54390022Y-146699533D01*
X54322990Y-146679851D01*
X54322978Y-146679848D01*
X54251001Y-146669500D01*
X54251000Y-146669500D01*
X53274000Y-146669500D01*
X53219685Y-146675339D01*
X53210360Y-146677368D01*
X53198857Y-146679870D01*
X53192672Y-146680872D01*
X53184979Y-146682689D01*
X53184968Y-146682643D01*
X53181687Y-146683605D01*
X53168176Y-146686545D01*
X53164208Y-146687633D01*
X53141802Y-146693780D01*
X53119713Y-146706358D01*
X53101695Y-146714781D01*
X53057673Y-146731201D01*
X53057663Y-146731207D01*
X52942455Y-146817452D01*
X52942452Y-146817455D01*
X52856206Y-146932664D01*
X52856202Y-146932671D01*
X52805908Y-147067517D01*
X52799501Y-147127116D01*
X52799500Y-147127135D01*
X52799500Y-150072870D01*
X44780500Y-150072870D01*
X44780500Y-148854269D01*
X45274500Y-148854269D01*
X45277353Y-148884699D01*
X45277353Y-148884701D01*
X45318572Y-149002495D01*
X45322207Y-149012882D01*
X45402850Y-149122150D01*
X45512118Y-149202793D01*
X45554845Y-149217744D01*
X45640299Y-149247646D01*
X45670730Y-149250500D01*
X45670734Y-149250500D01*
X46329270Y-149250500D01*
X46359699Y-149247646D01*
X46359701Y-149247646D01*
X46423790Y-149225219D01*
X46487882Y-149202793D01*
X46597150Y-149122150D01*
X46677793Y-149012882D01*
X46700794Y-148947149D01*
X46722646Y-148884701D01*
X46722646Y-148884699D01*
X46725500Y-148854269D01*
X46725500Y-148345730D01*
X46722646Y-148315300D01*
X46722646Y-148315298D01*
X46677793Y-148187119D01*
X46677792Y-148187117D01*
X46665698Y-148170730D01*
X46597150Y-148077850D01*
X46487882Y-147997207D01*
X46487880Y-147997206D01*
X46359700Y-147952353D01*
X46329270Y-147949500D01*
X46329266Y-147949500D01*
X45670734Y-147949500D01*
X45670730Y-147949500D01*
X45640300Y-147952353D01*
X45640298Y-147952353D01*
X45512119Y-147997206D01*
X45512117Y-147997207D01*
X45402850Y-148077850D01*
X45322207Y-148187117D01*
X45322206Y-148187119D01*
X45277353Y-148315298D01*
X45277353Y-148315300D01*
X45274500Y-148345730D01*
X45274500Y-148854269D01*
X44780500Y-148854269D01*
X44780500Y-147204269D01*
X45274500Y-147204269D01*
X45277353Y-147234699D01*
X45277353Y-147234701D01*
X45322206Y-147362880D01*
X45322207Y-147362882D01*
X45402850Y-147472150D01*
X45512118Y-147552793D01*
X45554845Y-147567744D01*
X45640299Y-147597646D01*
X45670730Y-147600500D01*
X45670734Y-147600500D01*
X46329270Y-147600500D01*
X46359699Y-147597646D01*
X46359701Y-147597646D01*
X46423790Y-147575219D01*
X46487882Y-147552793D01*
X46597150Y-147472150D01*
X46677793Y-147362882D01*
X46700794Y-147297149D01*
X46722646Y-147234701D01*
X46722646Y-147234699D01*
X46725500Y-147204269D01*
X46725500Y-146695730D01*
X46722646Y-146665300D01*
X46722646Y-146665298D01*
X46677793Y-146537119D01*
X46677792Y-146537117D01*
X46665698Y-146520730D01*
X46597150Y-146427850D01*
X46487882Y-146347207D01*
X46487880Y-146347206D01*
X46359700Y-146302353D01*
X46329270Y-146299500D01*
X46329266Y-146299500D01*
X45670734Y-146299500D01*
X45670730Y-146299500D01*
X45640300Y-146302353D01*
X45640298Y-146302353D01*
X45512119Y-146347206D01*
X45512117Y-146347207D01*
X45402850Y-146427850D01*
X45322207Y-146537117D01*
X45322206Y-146537119D01*
X45277353Y-146665298D01*
X45277353Y-146665300D01*
X45274500Y-146695730D01*
X45274500Y-147204269D01*
X44780500Y-147204269D01*
X44780500Y-147099000D01*
X44774661Y-147044687D01*
X44763455Y-146993176D01*
X44756219Y-146966802D01*
X44756216Y-146966796D01*
X44706894Y-146880181D01*
X44706888Y-146880172D01*
X44661136Y-146827371D01*
X44628359Y-146795743D01*
X44540022Y-146749534D01*
X44540022Y-146749533D01*
X44472990Y-146729851D01*
X44472978Y-146729848D01*
X44401001Y-146719500D01*
X44401000Y-146719500D01*
X44395823Y-146719500D01*
X44352490Y-146711682D01*
X44269982Y-146680908D01*
X44269983Y-146680908D01*
X44210383Y-146674501D01*
X44210381Y-146674500D01*
X44210373Y-146674500D01*
X44210364Y-146674500D01*
X43389629Y-146674500D01*
X43389623Y-146674501D01*
X43330016Y-146680908D01*
X43195171Y-146731202D01*
X43195164Y-146731206D01*
X43079955Y-146817452D01*
X43079952Y-146817455D01*
X42993706Y-146932664D01*
X42993702Y-146932671D01*
X42943408Y-147067517D01*
X42937001Y-147127116D01*
X42937000Y-147127135D01*
X42937000Y-150072870D01*
X32175500Y-150072870D01*
X32175500Y-142900004D01*
X45644592Y-142900004D01*
X45664196Y-143161620D01*
X45664197Y-143161625D01*
X45722576Y-143417402D01*
X45722578Y-143417411D01*
X45722580Y-143417416D01*
X45818432Y-143661643D01*
X45949614Y-143888857D01*
X46081736Y-144054533D01*
X46113198Y-144093985D01*
X46294753Y-144262441D01*
X46305521Y-144272433D01*
X46522296Y-144420228D01*
X46522301Y-144420230D01*
X46522302Y-144420231D01*
X46522303Y-144420232D01*
X46647843Y-144480688D01*
X46758673Y-144534061D01*
X46758674Y-144534061D01*
X46758677Y-144534063D01*
X47009385Y-144611396D01*
X47268818Y-144650500D01*
X47531182Y-144650500D01*
X47790615Y-144611396D01*
X48041323Y-144534063D01*
X48228111Y-144444110D01*
X48277696Y-144420232D01*
X48277696Y-144420231D01*
X48277704Y-144420228D01*
X48494479Y-144272433D01*
X48686805Y-144093981D01*
X48850386Y-143888857D01*
X48981568Y-143661643D01*
X49034572Y-143526589D01*
X49077387Y-143471376D01*
X49143257Y-143448075D01*
X49211268Y-143464086D01*
X49259827Y-143514323D01*
X49265425Y-143526584D01*
X49318432Y-143661643D01*
X49449614Y-143888857D01*
X49581736Y-144054533D01*
X49613198Y-144093985D01*
X49794753Y-144262441D01*
X49805521Y-144272433D01*
X50022296Y-144420228D01*
X50022301Y-144420230D01*
X50022302Y-144420231D01*
X50022303Y-144420232D01*
X50147843Y-144480688D01*
X50258673Y-144534061D01*
X50258674Y-144534061D01*
X50258677Y-144534063D01*
X50509385Y-144611396D01*
X50768818Y-144650500D01*
X51031182Y-144650500D01*
X51290615Y-144611396D01*
X51541323Y-144534063D01*
X51728111Y-144444110D01*
X51777696Y-144420232D01*
X51777696Y-144420231D01*
X51777704Y-144420228D01*
X51994479Y-144272433D01*
X52186805Y-144093981D01*
X52350386Y-143888857D01*
X52418113Y-143771549D01*
X52468680Y-143723334D01*
X52537287Y-143710111D01*
X52602152Y-143736079D01*
X52642680Y-143792994D01*
X52649500Y-143833550D01*
X52649500Y-144424678D01*
X52664032Y-144497735D01*
X52664033Y-144497739D01*
X52664034Y-144497740D01*
X52719399Y-144580601D01*
X52765485Y-144611394D01*
X52802260Y-144635966D01*
X52802264Y-144635967D01*
X52875321Y-144650499D01*
X52875324Y-144650500D01*
X52875326Y-144650500D01*
X55924676Y-144650500D01*
X55924677Y-144650499D01*
X55997740Y-144635966D01*
X56080601Y-144580601D01*
X56135966Y-144497740D01*
X56150500Y-144424674D01*
X56150500Y-141375326D01*
X56150500Y-141375323D01*
X56150499Y-141375321D01*
X56135967Y-141302264D01*
X56135966Y-141302260D01*
X56080601Y-141219399D01*
X55997740Y-141164034D01*
X55997739Y-141164033D01*
X55997735Y-141164032D01*
X55924677Y-141149500D01*
X55924674Y-141149500D01*
X52875326Y-141149500D01*
X52875323Y-141149500D01*
X52802264Y-141164032D01*
X52802260Y-141164033D01*
X52719399Y-141219399D01*
X52664033Y-141302260D01*
X52664032Y-141302264D01*
X52649500Y-141375321D01*
X52649500Y-141966449D01*
X52629815Y-142033488D01*
X52577011Y-142079243D01*
X52507853Y-142089187D01*
X52444297Y-142060162D01*
X52418113Y-142028449D01*
X52382317Y-141966449D01*
X52350386Y-141911143D01*
X52186805Y-141706019D01*
X52186804Y-141706018D01*
X52186801Y-141706014D01*
X51994479Y-141527567D01*
X51777704Y-141379772D01*
X51777700Y-141379770D01*
X51777697Y-141379768D01*
X51777696Y-141379767D01*
X51541325Y-141265938D01*
X51541327Y-141265938D01*
X51290623Y-141188606D01*
X51290619Y-141188605D01*
X51290615Y-141188604D01*
X51165823Y-141169794D01*
X51031187Y-141149500D01*
X51031182Y-141149500D01*
X50768818Y-141149500D01*
X50768812Y-141149500D01*
X50607247Y-141173853D01*
X50509385Y-141188604D01*
X50509382Y-141188605D01*
X50509376Y-141188606D01*
X50258673Y-141265938D01*
X50022303Y-141379767D01*
X50022302Y-141379768D01*
X49805520Y-141527567D01*
X49613198Y-141706014D01*
X49449614Y-141911143D01*
X49318432Y-142138356D01*
X49265428Y-142273409D01*
X49222612Y-142328623D01*
X49156742Y-142351924D01*
X49088732Y-142335913D01*
X49040173Y-142285675D01*
X49034572Y-142273409D01*
X49033315Y-142270206D01*
X48981568Y-142138357D01*
X48850386Y-141911143D01*
X48686805Y-141706019D01*
X48686804Y-141706018D01*
X48686801Y-141706014D01*
X48494479Y-141527567D01*
X48277704Y-141379772D01*
X48277700Y-141379770D01*
X48277697Y-141379768D01*
X48277696Y-141379767D01*
X48041325Y-141265938D01*
X48041327Y-141265938D01*
X47790623Y-141188606D01*
X47790619Y-141188605D01*
X47790615Y-141188604D01*
X47665823Y-141169794D01*
X47531187Y-141149500D01*
X47531182Y-141149500D01*
X47268818Y-141149500D01*
X47268812Y-141149500D01*
X47107247Y-141173853D01*
X47009385Y-141188604D01*
X47009382Y-141188605D01*
X47009376Y-141188606D01*
X46758673Y-141265938D01*
X46522303Y-141379767D01*
X46522302Y-141379768D01*
X46305520Y-141527567D01*
X46113198Y-141706014D01*
X45949614Y-141911143D01*
X45818432Y-142138356D01*
X45722582Y-142382578D01*
X45722576Y-142382597D01*
X45664197Y-142638374D01*
X45664196Y-142638379D01*
X45644592Y-142899995D01*
X45644592Y-142900004D01*
X32175500Y-142900004D01*
X32175500Y-140299500D01*
X32195185Y-140232461D01*
X32247989Y-140186706D01*
X32299500Y-140175500D01*
X71700500Y-140175500D01*
X71767539Y-140195185D01*
G37*
%TD.AperFunction*%
%TD*%
%TA.AperFunction,Conductor*%
%TO.N,/M1_SL_B*%
G36*
X54318039Y-146944685D02*
G01*
X54363794Y-146997489D01*
X54375000Y-147049000D01*
X54375000Y-150176000D01*
X54355315Y-150243039D01*
X54302511Y-150288794D01*
X54251000Y-150300000D01*
X53274000Y-150300000D01*
X53206961Y-150280315D01*
X53161206Y-150227511D01*
X53150000Y-150176000D01*
X53150000Y-147049000D01*
X53169685Y-146981961D01*
X53222489Y-146936206D01*
X53274000Y-146925000D01*
X54251000Y-146925000D01*
X54318039Y-146944685D01*
G37*
%TD.AperFunction*%
%TD*%
%TA.AperFunction,Conductor*%
%TO.N,/M1_SL_A*%
G36*
X64068039Y-146844685D02*
G01*
X64113794Y-146897489D01*
X64125000Y-146949000D01*
X64125000Y-150076000D01*
X64105315Y-150143039D01*
X64052511Y-150188794D01*
X64001000Y-150200000D01*
X63024000Y-150200000D01*
X62956961Y-150180315D01*
X62911206Y-150127511D01*
X62900000Y-150076000D01*
X62900000Y-146949000D01*
X62919685Y-146881961D01*
X62972489Y-146836206D01*
X63024000Y-146825000D01*
X64001000Y-146825000D01*
X64068039Y-146844685D01*
G37*
%TD.AperFunction*%
%TD*%
M02*
