%TF.GenerationSoftware,KiCad,Pcbnew,7.0.8*%
%TF.CreationDate,2023-12-30T15:26:21+08:00*%
%TF.ProjectId,FOC2,464f4332-2e6b-4696-9361-645f70636258,rev?*%
%TF.SameCoordinates,Original*%
%TF.FileFunction,Legend,Top*%
%TF.FilePolarity,Positive*%
%FSLAX46Y46*%
G04 Gerber Fmt 4.6, Leading zero omitted, Abs format (unit mm)*
G04 Created by KiCad (PCBNEW 7.0.8) date 2023-12-30 15:26:21*
%MOMM*%
%LPD*%
G01*
G04 APERTURE LIST*
%ADD10C,0.150000*%
%ADD11C,0.200000*%
%ADD12C,0.120000*%
G04 APERTURE END LIST*
D10*
X65225000Y-152375000D02*
X68125000Y-152375000D01*
X68125000Y-158575000D01*
X65225000Y-158575000D01*
X65225000Y-152375000D01*
X45033207Y-143249580D02*
X44985588Y-143297200D01*
X44985588Y-143297200D02*
X44842731Y-143344819D01*
X44842731Y-143344819D02*
X44747493Y-143344819D01*
X44747493Y-143344819D02*
X44604636Y-143297200D01*
X44604636Y-143297200D02*
X44509398Y-143201961D01*
X44509398Y-143201961D02*
X44461779Y-143106723D01*
X44461779Y-143106723D02*
X44414160Y-142916247D01*
X44414160Y-142916247D02*
X44414160Y-142773390D01*
X44414160Y-142773390D02*
X44461779Y-142582914D01*
X44461779Y-142582914D02*
X44509398Y-142487676D01*
X44509398Y-142487676D02*
X44604636Y-142392438D01*
X44604636Y-142392438D02*
X44747493Y-142344819D01*
X44747493Y-142344819D02*
X44842731Y-142344819D01*
X44842731Y-142344819D02*
X44985588Y-142392438D01*
X44985588Y-142392438D02*
X45033207Y-142440057D01*
X66265350Y-157906533D02*
X66032017Y-157573200D01*
X65865350Y-157906533D02*
X65865350Y-157206533D01*
X65865350Y-157206533D02*
X66132017Y-157206533D01*
X66132017Y-157206533D02*
X66198684Y-157239866D01*
X66198684Y-157239866D02*
X66232017Y-157273200D01*
X66232017Y-157273200D02*
X66265350Y-157339866D01*
X66265350Y-157339866D02*
X66265350Y-157439866D01*
X66265350Y-157439866D02*
X66232017Y-157506533D01*
X66232017Y-157506533D02*
X66198684Y-157539866D01*
X66198684Y-157539866D02*
X66132017Y-157573200D01*
X66132017Y-157573200D02*
X65865350Y-157573200D01*
X66532017Y-157873200D02*
X66632017Y-157906533D01*
X66632017Y-157906533D02*
X66798684Y-157906533D01*
X66798684Y-157906533D02*
X66865350Y-157873200D01*
X66865350Y-157873200D02*
X66898684Y-157839866D01*
X66898684Y-157839866D02*
X66932017Y-157773200D01*
X66932017Y-157773200D02*
X66932017Y-157706533D01*
X66932017Y-157706533D02*
X66898684Y-157639866D01*
X66898684Y-157639866D02*
X66865350Y-157606533D01*
X66865350Y-157606533D02*
X66798684Y-157573200D01*
X66798684Y-157573200D02*
X66665350Y-157539866D01*
X66665350Y-157539866D02*
X66598684Y-157506533D01*
X66598684Y-157506533D02*
X66565350Y-157473200D01*
X66565350Y-157473200D02*
X66532017Y-157406533D01*
X66532017Y-157406533D02*
X66532017Y-157339866D01*
X66532017Y-157339866D02*
X66565350Y-157273200D01*
X66565350Y-157273200D02*
X66598684Y-157239866D01*
X66598684Y-157239866D02*
X66665350Y-157206533D01*
X66665350Y-157206533D02*
X66832017Y-157206533D01*
X66832017Y-157206533D02*
X66932017Y-157239866D01*
X67132017Y-157206533D02*
X67532017Y-157206533D01*
X67332017Y-157906533D02*
X67332017Y-157206533D01*
D11*
X76832219Y-153380326D02*
X75832219Y-153380326D01*
X75832219Y-153380326D02*
X75832219Y-153142231D01*
X75832219Y-153142231D02*
X75879838Y-152999374D01*
X75879838Y-152999374D02*
X75975076Y-152904136D01*
X75975076Y-152904136D02*
X76070314Y-152856517D01*
X76070314Y-152856517D02*
X76260790Y-152808898D01*
X76260790Y-152808898D02*
X76403647Y-152808898D01*
X76403647Y-152808898D02*
X76594123Y-152856517D01*
X76594123Y-152856517D02*
X76689361Y-152904136D01*
X76689361Y-152904136D02*
X76784600Y-152999374D01*
X76784600Y-152999374D02*
X76832219Y-153142231D01*
X76832219Y-153142231D02*
X76832219Y-153380326D01*
X76784600Y-151999374D02*
X76832219Y-152094612D01*
X76832219Y-152094612D02*
X76832219Y-152285088D01*
X76832219Y-152285088D02*
X76784600Y-152380326D01*
X76784600Y-152380326D02*
X76689361Y-152427945D01*
X76689361Y-152427945D02*
X76308409Y-152427945D01*
X76308409Y-152427945D02*
X76213171Y-152380326D01*
X76213171Y-152380326D02*
X76165552Y-152285088D01*
X76165552Y-152285088D02*
X76165552Y-152094612D01*
X76165552Y-152094612D02*
X76213171Y-151999374D01*
X76213171Y-151999374D02*
X76308409Y-151951755D01*
X76308409Y-151951755D02*
X76403647Y-151951755D01*
X76403647Y-151951755D02*
X76498885Y-152427945D01*
X76784600Y-151570802D02*
X76832219Y-151475564D01*
X76832219Y-151475564D02*
X76832219Y-151285088D01*
X76832219Y-151285088D02*
X76784600Y-151189850D01*
X76784600Y-151189850D02*
X76689361Y-151142231D01*
X76689361Y-151142231D02*
X76641742Y-151142231D01*
X76641742Y-151142231D02*
X76546504Y-151189850D01*
X76546504Y-151189850D02*
X76498885Y-151285088D01*
X76498885Y-151285088D02*
X76498885Y-151427945D01*
X76498885Y-151427945D02*
X76451266Y-151523183D01*
X76451266Y-151523183D02*
X76356028Y-151570802D01*
X76356028Y-151570802D02*
X76308409Y-151570802D01*
X76308409Y-151570802D02*
X76213171Y-151523183D01*
X76213171Y-151523183D02*
X76165552Y-151427945D01*
X76165552Y-151427945D02*
X76165552Y-151285088D01*
X76165552Y-151285088D02*
X76213171Y-151189850D01*
X76832219Y-150713659D02*
X76165552Y-150713659D01*
X75832219Y-150713659D02*
X75879838Y-150761278D01*
X75879838Y-150761278D02*
X75927457Y-150713659D01*
X75927457Y-150713659D02*
X75879838Y-150666040D01*
X75879838Y-150666040D02*
X75832219Y-150713659D01*
X75832219Y-150713659D02*
X75927457Y-150713659D01*
X76165552Y-149808898D02*
X76975076Y-149808898D01*
X76975076Y-149808898D02*
X77070314Y-149856517D01*
X77070314Y-149856517D02*
X77117933Y-149904136D01*
X77117933Y-149904136D02*
X77165552Y-149999374D01*
X77165552Y-149999374D02*
X77165552Y-150142231D01*
X77165552Y-150142231D02*
X77117933Y-150237469D01*
X76784600Y-149808898D02*
X76832219Y-149904136D01*
X76832219Y-149904136D02*
X76832219Y-150094612D01*
X76832219Y-150094612D02*
X76784600Y-150189850D01*
X76784600Y-150189850D02*
X76736980Y-150237469D01*
X76736980Y-150237469D02*
X76641742Y-150285088D01*
X76641742Y-150285088D02*
X76356028Y-150285088D01*
X76356028Y-150285088D02*
X76260790Y-150237469D01*
X76260790Y-150237469D02*
X76213171Y-150189850D01*
X76213171Y-150189850D02*
X76165552Y-150094612D01*
X76165552Y-150094612D02*
X76165552Y-149904136D01*
X76165552Y-149904136D02*
X76213171Y-149808898D01*
X76165552Y-149332707D02*
X76832219Y-149332707D01*
X76260790Y-149332707D02*
X76213171Y-149285088D01*
X76213171Y-149285088D02*
X76165552Y-149189850D01*
X76165552Y-149189850D02*
X76165552Y-149046993D01*
X76165552Y-149046993D02*
X76213171Y-148951755D01*
X76213171Y-148951755D02*
X76308409Y-148904136D01*
X76308409Y-148904136D02*
X76832219Y-148904136D01*
X76784600Y-148046993D02*
X76832219Y-148142231D01*
X76832219Y-148142231D02*
X76832219Y-148332707D01*
X76832219Y-148332707D02*
X76784600Y-148427945D01*
X76784600Y-148427945D02*
X76689361Y-148475564D01*
X76689361Y-148475564D02*
X76308409Y-148475564D01*
X76308409Y-148475564D02*
X76213171Y-148427945D01*
X76213171Y-148427945D02*
X76165552Y-148332707D01*
X76165552Y-148332707D02*
X76165552Y-148142231D01*
X76165552Y-148142231D02*
X76213171Y-148046993D01*
X76213171Y-148046993D02*
X76308409Y-147999374D01*
X76308409Y-147999374D02*
X76403647Y-147999374D01*
X76403647Y-147999374D02*
X76498885Y-148475564D01*
X76832219Y-147142231D02*
X75832219Y-147142231D01*
X76784600Y-147142231D02*
X76832219Y-147237469D01*
X76832219Y-147237469D02*
X76832219Y-147427945D01*
X76832219Y-147427945D02*
X76784600Y-147523183D01*
X76784600Y-147523183D02*
X76736980Y-147570802D01*
X76736980Y-147570802D02*
X76641742Y-147618421D01*
X76641742Y-147618421D02*
X76356028Y-147618421D01*
X76356028Y-147618421D02*
X76260790Y-147570802D01*
X76260790Y-147570802D02*
X76213171Y-147523183D01*
X76213171Y-147523183D02*
X76165552Y-147427945D01*
X76165552Y-147427945D02*
X76165552Y-147237469D01*
X76165552Y-147237469D02*
X76213171Y-147142231D01*
X76308409Y-146332707D02*
X76356028Y-146189850D01*
X76356028Y-146189850D02*
X76403647Y-146142231D01*
X76403647Y-146142231D02*
X76498885Y-146094612D01*
X76498885Y-146094612D02*
X76641742Y-146094612D01*
X76641742Y-146094612D02*
X76736980Y-146142231D01*
X76736980Y-146142231D02*
X76784600Y-146189850D01*
X76784600Y-146189850D02*
X76832219Y-146285088D01*
X76832219Y-146285088D02*
X76832219Y-146666040D01*
X76832219Y-146666040D02*
X75832219Y-146666040D01*
X75832219Y-146666040D02*
X75832219Y-146332707D01*
X75832219Y-146332707D02*
X75879838Y-146237469D01*
X75879838Y-146237469D02*
X75927457Y-146189850D01*
X75927457Y-146189850D02*
X76022695Y-146142231D01*
X76022695Y-146142231D02*
X76117933Y-146142231D01*
X76117933Y-146142231D02*
X76213171Y-146189850D01*
X76213171Y-146189850D02*
X76260790Y-146237469D01*
X76260790Y-146237469D02*
X76308409Y-146332707D01*
X76308409Y-146332707D02*
X76308409Y-146666040D01*
X76165552Y-145761278D02*
X76832219Y-145523183D01*
X76165552Y-145285088D02*
X76832219Y-145523183D01*
X76832219Y-145523183D02*
X77070314Y-145618421D01*
X77070314Y-145618421D02*
X77117933Y-145666040D01*
X77117933Y-145666040D02*
X77165552Y-145761278D01*
X77442219Y-153475564D02*
X77442219Y-152808898D01*
X77442219Y-152808898D02*
X78442219Y-153475564D01*
X78442219Y-153475564D02*
X78442219Y-152808898D01*
X78442219Y-152427945D02*
X77442219Y-152427945D01*
X78442219Y-151999374D02*
X77918409Y-151999374D01*
X77918409Y-151999374D02*
X77823171Y-152046993D01*
X77823171Y-152046993D02*
X77775552Y-152142231D01*
X77775552Y-152142231D02*
X77775552Y-152285088D01*
X77775552Y-152285088D02*
X77823171Y-152380326D01*
X77823171Y-152380326D02*
X77870790Y-152427945D01*
X77775552Y-151094612D02*
X78442219Y-151094612D01*
X77775552Y-151523183D02*
X78299361Y-151523183D01*
X78299361Y-151523183D02*
X78394600Y-151475564D01*
X78394600Y-151475564D02*
X78442219Y-151380326D01*
X78442219Y-151380326D02*
X78442219Y-151237469D01*
X78442219Y-151237469D02*
X78394600Y-151142231D01*
X78394600Y-151142231D02*
X78346980Y-151094612D01*
X77966028Y-150427945D02*
X78442219Y-150427945D01*
X77442219Y-150761278D02*
X77966028Y-150427945D01*
X77966028Y-150427945D02*
X77442219Y-150094612D01*
X78442219Y-149761278D02*
X77775552Y-149761278D01*
X77442219Y-149761278D02*
X77489838Y-149808897D01*
X77489838Y-149808897D02*
X77537457Y-149761278D01*
X77537457Y-149761278D02*
X77489838Y-149713659D01*
X77489838Y-149713659D02*
X77442219Y-149761278D01*
X77442219Y-149761278D02*
X77537457Y-149761278D01*
X77775552Y-149285088D02*
X78775552Y-149285088D01*
X77823171Y-149285088D02*
X77775552Y-149189850D01*
X77775552Y-149189850D02*
X77775552Y-148999374D01*
X77775552Y-148999374D02*
X77823171Y-148904136D01*
X77823171Y-148904136D02*
X77870790Y-148856517D01*
X77870790Y-148856517D02*
X77966028Y-148808898D01*
X77966028Y-148808898D02*
X78251742Y-148808898D01*
X78251742Y-148808898D02*
X78346980Y-148856517D01*
X78346980Y-148856517D02*
X78394600Y-148904136D01*
X78394600Y-148904136D02*
X78442219Y-148999374D01*
X78442219Y-148999374D02*
X78442219Y-149189850D01*
X78442219Y-149189850D02*
X78394600Y-149285088D01*
X78442219Y-148380326D02*
X77775552Y-148380326D01*
X77442219Y-148380326D02*
X77489838Y-148427945D01*
X77489838Y-148427945D02*
X77537457Y-148380326D01*
X77537457Y-148380326D02*
X77489838Y-148332707D01*
X77489838Y-148332707D02*
X77442219Y-148380326D01*
X77442219Y-148380326D02*
X77537457Y-148380326D01*
X77775552Y-147904136D02*
X78442219Y-147904136D01*
X77870790Y-147904136D02*
X77823171Y-147856517D01*
X77823171Y-147856517D02*
X77775552Y-147761279D01*
X77775552Y-147761279D02*
X77775552Y-147618422D01*
X77775552Y-147618422D02*
X77823171Y-147523184D01*
X77823171Y-147523184D02*
X77918409Y-147475565D01*
X77918409Y-147475565D02*
X78442219Y-147475565D01*
X77775552Y-146570803D02*
X78585076Y-146570803D01*
X78585076Y-146570803D02*
X78680314Y-146618422D01*
X78680314Y-146618422D02*
X78727933Y-146666041D01*
X78727933Y-146666041D02*
X78775552Y-146761279D01*
X78775552Y-146761279D02*
X78775552Y-146904136D01*
X78775552Y-146904136D02*
X78727933Y-146999374D01*
X78394600Y-146570803D02*
X78442219Y-146666041D01*
X78442219Y-146666041D02*
X78442219Y-146856517D01*
X78442219Y-146856517D02*
X78394600Y-146951755D01*
X78394600Y-146951755D02*
X78346980Y-146999374D01*
X78346980Y-146999374D02*
X78251742Y-147046993D01*
X78251742Y-147046993D02*
X77966028Y-147046993D01*
X77966028Y-147046993D02*
X77870790Y-146999374D01*
X77870790Y-146999374D02*
X77823171Y-146951755D01*
X77823171Y-146951755D02*
X77775552Y-146856517D01*
X77775552Y-146856517D02*
X77775552Y-146666041D01*
X77775552Y-146666041D02*
X77823171Y-146570803D01*
D10*
X66132017Y-153189866D02*
X66065350Y-153156533D01*
X66065350Y-153156533D02*
X65965350Y-153156533D01*
X65965350Y-153156533D02*
X65865350Y-153189866D01*
X65865350Y-153189866D02*
X65798684Y-153256533D01*
X65798684Y-153256533D02*
X65765350Y-153323200D01*
X65765350Y-153323200D02*
X65732017Y-153456533D01*
X65732017Y-153456533D02*
X65732017Y-153556533D01*
X65732017Y-153556533D02*
X65765350Y-153689866D01*
X65765350Y-153689866D02*
X65798684Y-153756533D01*
X65798684Y-153756533D02*
X65865350Y-153823200D01*
X65865350Y-153823200D02*
X65965350Y-153856533D01*
X65965350Y-153856533D02*
X66032017Y-153856533D01*
X66032017Y-153856533D02*
X66132017Y-153823200D01*
X66132017Y-153823200D02*
X66165350Y-153789866D01*
X66165350Y-153789866D02*
X66165350Y-153556533D01*
X66165350Y-153556533D02*
X66032017Y-153556533D01*
X66465350Y-153856533D02*
X66465350Y-153156533D01*
X66465350Y-153156533D02*
X66865350Y-153856533D01*
X66865350Y-153856533D02*
X66865350Y-153156533D01*
X67198683Y-153856533D02*
X67198683Y-153156533D01*
X67198683Y-153156533D02*
X67365350Y-153156533D01*
X67365350Y-153156533D02*
X67465350Y-153189866D01*
X67465350Y-153189866D02*
X67532017Y-153256533D01*
X67532017Y-153256533D02*
X67565350Y-153323200D01*
X67565350Y-153323200D02*
X67598683Y-153456533D01*
X67598683Y-153456533D02*
X67598683Y-153556533D01*
X67598683Y-153556533D02*
X67565350Y-153689866D01*
X67565350Y-153689866D02*
X67532017Y-153756533D01*
X67532017Y-153756533D02*
X67465350Y-153823200D01*
X67465350Y-153823200D02*
X67365350Y-153856533D01*
X67365350Y-153856533D02*
X67198683Y-153856533D01*
X65757017Y-156473200D02*
X65857017Y-156506533D01*
X65857017Y-156506533D02*
X66023684Y-156506533D01*
X66023684Y-156506533D02*
X66090350Y-156473200D01*
X66090350Y-156473200D02*
X66123684Y-156439866D01*
X66123684Y-156439866D02*
X66157017Y-156373200D01*
X66157017Y-156373200D02*
X66157017Y-156306533D01*
X66157017Y-156306533D02*
X66123684Y-156239866D01*
X66123684Y-156239866D02*
X66090350Y-156206533D01*
X66090350Y-156206533D02*
X66023684Y-156173200D01*
X66023684Y-156173200D02*
X65890350Y-156139866D01*
X65890350Y-156139866D02*
X65823684Y-156106533D01*
X65823684Y-156106533D02*
X65790350Y-156073200D01*
X65790350Y-156073200D02*
X65757017Y-156006533D01*
X65757017Y-156006533D02*
X65757017Y-155939866D01*
X65757017Y-155939866D02*
X65790350Y-155873200D01*
X65790350Y-155873200D02*
X65823684Y-155839866D01*
X65823684Y-155839866D02*
X65890350Y-155806533D01*
X65890350Y-155806533D02*
X66057017Y-155806533D01*
X66057017Y-155806533D02*
X66157017Y-155839866D01*
X66857017Y-156439866D02*
X66823684Y-156473200D01*
X66823684Y-156473200D02*
X66723684Y-156506533D01*
X66723684Y-156506533D02*
X66657017Y-156506533D01*
X66657017Y-156506533D02*
X66557017Y-156473200D01*
X66557017Y-156473200D02*
X66490351Y-156406533D01*
X66490351Y-156406533D02*
X66457017Y-156339866D01*
X66457017Y-156339866D02*
X66423684Y-156206533D01*
X66423684Y-156206533D02*
X66423684Y-156106533D01*
X66423684Y-156106533D02*
X66457017Y-155973200D01*
X66457017Y-155973200D02*
X66490351Y-155906533D01*
X66490351Y-155906533D02*
X66557017Y-155839866D01*
X66557017Y-155839866D02*
X66657017Y-155806533D01*
X66657017Y-155806533D02*
X66723684Y-155806533D01*
X66723684Y-155806533D02*
X66823684Y-155839866D01*
X66823684Y-155839866D02*
X66857017Y-155873200D01*
X67157017Y-156506533D02*
X67157017Y-155806533D01*
X67557017Y-156506533D02*
X67257017Y-156106533D01*
X67557017Y-155806533D02*
X67157017Y-156206533D01*
X57289160Y-143184104D02*
X57765350Y-143184104D01*
X57193922Y-143469819D02*
X57527255Y-142469819D01*
X57527255Y-142469819D02*
X57860588Y-143469819D01*
X65732017Y-155123200D02*
X65832017Y-155156533D01*
X65832017Y-155156533D02*
X65998684Y-155156533D01*
X65998684Y-155156533D02*
X66065350Y-155123200D01*
X66065350Y-155123200D02*
X66098684Y-155089866D01*
X66098684Y-155089866D02*
X66132017Y-155023200D01*
X66132017Y-155023200D02*
X66132017Y-154956533D01*
X66132017Y-154956533D02*
X66098684Y-154889866D01*
X66098684Y-154889866D02*
X66065350Y-154856533D01*
X66065350Y-154856533D02*
X65998684Y-154823200D01*
X65998684Y-154823200D02*
X65865350Y-154789866D01*
X65865350Y-154789866D02*
X65798684Y-154756533D01*
X65798684Y-154756533D02*
X65765350Y-154723200D01*
X65765350Y-154723200D02*
X65732017Y-154656533D01*
X65732017Y-154656533D02*
X65732017Y-154589866D01*
X65732017Y-154589866D02*
X65765350Y-154523200D01*
X65765350Y-154523200D02*
X65798684Y-154489866D01*
X65798684Y-154489866D02*
X65865350Y-154456533D01*
X65865350Y-154456533D02*
X66032017Y-154456533D01*
X66032017Y-154456533D02*
X66132017Y-154489866D01*
X66365351Y-154456533D02*
X66532017Y-155156533D01*
X66532017Y-155156533D02*
X66665351Y-154656533D01*
X66665351Y-154656533D02*
X66798684Y-155156533D01*
X66798684Y-155156533D02*
X66965351Y-154456533D01*
X67232017Y-155156533D02*
X67232017Y-154456533D01*
X67232017Y-154456533D02*
X67398684Y-154456533D01*
X67398684Y-154456533D02*
X67498684Y-154489866D01*
X67498684Y-154489866D02*
X67565351Y-154556533D01*
X67565351Y-154556533D02*
X67598684Y-154623200D01*
X67598684Y-154623200D02*
X67632017Y-154756533D01*
X67632017Y-154756533D02*
X67632017Y-154856533D01*
X67632017Y-154856533D02*
X67598684Y-154989866D01*
X67598684Y-154989866D02*
X67565351Y-155056533D01*
X67565351Y-155056533D02*
X67498684Y-155123200D01*
X67498684Y-155123200D02*
X67398684Y-155156533D01*
X67398684Y-155156533D02*
X67232017Y-155156533D01*
X49628571Y-177664700D02*
X50771429Y-177664700D01*
X50200000Y-178236128D02*
X50200000Y-177093271D01*
X38628571Y-177664700D02*
X39771429Y-177664700D01*
D12*
%TO.C,J6*%
X71535000Y-151565000D02*
X68115000Y-151565000D01*
X71825000Y-158825000D02*
X70825000Y-158825000D01*
X68115000Y-151565000D02*
X68115000Y-158535000D01*
X69475000Y-151875000D02*
X69475000Y-152075000D01*
X71025000Y-155050000D02*
X71025000Y-152075000D01*
X68625000Y-152075000D02*
X68625000Y-155050000D01*
X69475000Y-152075000D02*
X68625000Y-152075000D01*
X70275000Y-158025000D02*
X70275000Y-158225000D01*
X71025000Y-158025000D02*
X70275000Y-158025000D01*
X71825000Y-158825000D02*
X71825000Y-157825000D01*
X70275000Y-152075000D02*
X70275000Y-151875000D01*
X71535000Y-158535000D02*
X71535000Y-151565000D01*
X70275000Y-151875000D02*
X69475000Y-151875000D01*
X71025000Y-152075000D02*
X70275000Y-152075000D01*
X69475000Y-158225000D02*
X69475000Y-158025000D01*
X69475000Y-158025000D02*
X68625000Y-158025000D01*
X68625000Y-158025000D02*
X68625000Y-155050000D01*
X70275000Y-158225000D02*
X69475000Y-158225000D01*
X71025000Y-155050000D02*
X71025000Y-158025000D01*
X68115000Y-158535000D02*
X71535000Y-158535000D01*
%TO.C,J5*%
X69475000Y-171000000D02*
X69475000Y-170800000D01*
X68115000Y-159340000D02*
X68115000Y-171310000D01*
X71825000Y-171600000D02*
X70825000Y-171600000D01*
X70275000Y-159850000D02*
X70275000Y-159650000D01*
X71025000Y-165325000D02*
X71025000Y-170800000D01*
X68115000Y-171310000D02*
X71535000Y-171310000D01*
X71825000Y-171600000D02*
X71825000Y-170600000D01*
X68625000Y-159850000D02*
X68625000Y-165325000D01*
X70275000Y-171000000D02*
X69475000Y-171000000D01*
X69475000Y-159650000D02*
X69475000Y-159850000D01*
X71025000Y-165325000D02*
X71025000Y-159850000D01*
X71025000Y-159850000D02*
X70275000Y-159850000D01*
X71535000Y-171310000D02*
X71535000Y-159340000D01*
X70275000Y-159650000D02*
X69475000Y-159650000D01*
X71535000Y-159340000D02*
X68115000Y-159340000D01*
X69475000Y-170800000D02*
X68625000Y-170800000D01*
X68625000Y-170800000D02*
X68625000Y-165325000D01*
X71025000Y-170800000D02*
X70275000Y-170800000D01*
X69475000Y-159850000D02*
X68625000Y-159850000D01*
X70275000Y-170800000D02*
X70275000Y-171000000D01*
%TO.C,D13*%
X69085000Y-173360000D02*
X69085000Y-171890000D01*
X69085000Y-171890000D02*
X66800000Y-171890000D01*
X66800000Y-173360000D02*
X69085000Y-173360000D01*
%TO.C,Q5*%
X43600000Y-151205000D02*
X38000000Y-151205000D01*
X43600000Y-156405000D02*
X38800000Y-156405000D01*
%TO.C,R4*%
X47162742Y-156777500D02*
X47637258Y-156777500D01*
X47162742Y-157822500D02*
X47637258Y-157822500D01*
%TO.C,R15*%
X35437258Y-161622500D02*
X34962742Y-161622500D01*
X35437258Y-160577500D02*
X34962742Y-160577500D01*
%TO.C,C25*%
X36465000Y-154940580D02*
X36465000Y-154659420D01*
X37485000Y-154940580D02*
X37485000Y-154659420D01*
%TO.C,R18*%
X42987742Y-159682500D02*
X43462258Y-159682500D01*
X42987742Y-160727500D02*
X43462258Y-160727500D01*
%TO.C,C4*%
X65040000Y-166015580D02*
X65040000Y-165734420D01*
X66060000Y-166015580D02*
X66060000Y-165734420D01*
%TO.C,U2*%
X61000000Y-165040000D02*
X57550000Y-165040000D01*
X61000000Y-165040000D02*
X62950000Y-165040000D01*
X61000000Y-170160000D02*
X59050000Y-170160000D01*
X61000000Y-170160000D02*
X62950000Y-170160000D01*
%TO.C,R25*%
X63637258Y-164172500D02*
X63162742Y-164172500D01*
X63637258Y-163127500D02*
X63162742Y-163127500D01*
%TO.C,Q3*%
X53363750Y-151205000D02*
X47763750Y-151205000D01*
X53363750Y-156405000D02*
X48563750Y-156405000D01*
D10*
%TO.C,U7*%
X43075000Y-166575000D02*
X43075000Y-166525000D01*
X43075000Y-166575000D02*
X38925000Y-166575000D01*
X43075000Y-166525000D02*
X44475000Y-166525000D01*
X43075000Y-161425000D02*
X43075000Y-161570000D01*
X43075000Y-161425000D02*
X38925000Y-161425000D01*
X38925000Y-166575000D02*
X38925000Y-166430000D01*
X38925000Y-161425000D02*
X38925000Y-161570000D01*
D12*
%TO.C,C18*%
X35059420Y-166790000D02*
X35340580Y-166790000D01*
X35059420Y-167810000D02*
X35340580Y-167810000D01*
%TO.C,D12*%
X57815000Y-159150000D02*
X57815000Y-161050000D01*
X57815000Y-159150000D02*
X61475000Y-159150000D01*
X57815000Y-161050000D02*
X61475000Y-161050000D01*
%TO.C,C23*%
X46265000Y-154815580D02*
X46265000Y-154534420D01*
X47285000Y-154815580D02*
X47285000Y-154534420D01*
%TO.C,D7*%
X54715000Y-149960000D02*
X56715000Y-149960000D01*
X54715000Y-149960000D02*
X54715000Y-145950000D01*
X56715000Y-149960000D02*
X56715000Y-145950000D01*
%TO.C,R24*%
X63002500Y-159537258D02*
X63002500Y-159062742D01*
X64047500Y-159537258D02*
X64047500Y-159062742D01*
%TO.C,D9*%
X45015000Y-150060000D02*
X47015000Y-150060000D01*
X45015000Y-150060000D02*
X45015000Y-146050000D01*
X47015000Y-150060000D02*
X47015000Y-146050000D01*
%TO.C,Q1*%
X63102500Y-151205000D02*
X57502500Y-151205000D01*
X63102500Y-156405000D02*
X58302500Y-156405000D01*
%TO.C,R17*%
X34962742Y-162177500D02*
X35437258Y-162177500D01*
X34962742Y-163222500D02*
X35437258Y-163222500D01*
%TO.C,J3*%
X53810000Y-173900000D02*
X53810000Y-175900000D01*
X53810000Y-177800000D02*
X53810000Y-179700000D01*
X53810000Y-179700000D02*
X63210000Y-179700000D01*
X63210000Y-173900000D02*
X63210000Y-175900000D01*
X63210000Y-177800000D02*
X63210000Y-179700000D01*
%TO.C,C14*%
X32990000Y-151361252D02*
X32990000Y-149038748D01*
X36410000Y-151361252D02*
X36410000Y-149038748D01*
%TO.C,C19*%
X35340580Y-166210000D02*
X35059420Y-166210000D01*
X35340580Y-165190000D02*
X35059420Y-165190000D01*
%TO.C,C24*%
X55890000Y-155340580D02*
X55890000Y-155059420D01*
X56910000Y-155340580D02*
X56910000Y-155059420D01*
%TO.C,D5*%
X64400000Y-149960000D02*
X66400000Y-149960000D01*
X64400000Y-149960000D02*
X64400000Y-145950000D01*
X66400000Y-149960000D02*
X66400000Y-145950000D01*
%TO.C,C9*%
X38110000Y-170138748D02*
X38110000Y-172461252D01*
X34690000Y-170138748D02*
X34690000Y-172461252D01*
%TO.C,Q4*%
X48563750Y-150595000D02*
X54163750Y-150595000D01*
X48563750Y-145395000D02*
X53363750Y-145395000D01*
%TO.C,R26*%
X67362742Y-173702500D02*
X67837258Y-173702500D01*
X67362742Y-174747500D02*
X67837258Y-174747500D01*
%TO.C,Q2*%
X58315000Y-150595000D02*
X63915000Y-150595000D01*
X58315000Y-145395000D02*
X63115000Y-145395000D01*
%TO.C,C33*%
X63540580Y-162660000D02*
X63259420Y-162660000D01*
X63540580Y-161640000D02*
X63259420Y-161640000D01*
%TO.C,C13*%
X38740000Y-172461252D02*
X38740000Y-170138748D01*
X42160000Y-172461252D02*
X42160000Y-170138748D01*
%TO.C,C20*%
X35340580Y-164710000D02*
X35059420Y-164710000D01*
X35340580Y-163690000D02*
X35059420Y-163690000D01*
%TO.C,C10*%
X47190000Y-172461252D02*
X47190000Y-170138748D01*
X50610000Y-172461252D02*
X50610000Y-170138748D01*
%TO.C,C12*%
X42990000Y-172461252D02*
X42990000Y-170138748D01*
X46410000Y-172461252D02*
X46410000Y-170138748D01*
%TO.C,Q6*%
X38812500Y-150595000D02*
X44412500Y-150595000D01*
X38812500Y-145395000D02*
X43612500Y-145395000D01*
%TO.C,C30*%
X60209420Y-161590000D02*
X60490580Y-161590000D01*
X60209420Y-162610000D02*
X60490580Y-162610000D01*
%TO.C,R16*%
X38937258Y-160922500D02*
X38462742Y-160922500D01*
X38937258Y-159877500D02*
X38462742Y-159877500D01*
%TO.C,R23*%
X60587258Y-164122500D02*
X60112742Y-164122500D01*
X60587258Y-163077500D02*
X60112742Y-163077500D01*
%TO.C,U3*%
X55172500Y-160040000D02*
X55172500Y-160515000D01*
X54697500Y-167260000D02*
X55172500Y-167260000D01*
X54697500Y-160040000D02*
X55172500Y-160040000D01*
X48427500Y-167260000D02*
X47952500Y-167260000D01*
X48427500Y-160040000D02*
X47952500Y-160040000D01*
X47952500Y-167260000D02*
X47952500Y-166785000D01*
X47952500Y-160040000D02*
X47952500Y-160515000D01*
%TD*%
M02*
