%TF.GenerationSoftware,KiCad,Pcbnew,7.0.8*%
%TF.CreationDate,2024-01-09T15:44:46+08:00*%
%TF.ProjectId,FOC2,464f4332-2e6b-4696-9361-645f70636258,rev?*%
%TF.SameCoordinates,Original*%
%TF.FileFunction,Copper,L1,Top*%
%TF.FilePolarity,Positive*%
%FSLAX46Y46*%
G04 Gerber Fmt 4.6, Leading zero omitted, Abs format (unit mm)*
G04 Created by KiCad (PCBNEW 7.0.8) date 2024-01-09 15:44:46*
%MOMM*%
%LPD*%
G01*
G04 APERTURE LIST*
G04 Aperture macros list*
%AMRoundRect*
0 Rectangle with rounded corners*
0 $1 Rounding radius*
0 $2 $3 $4 $5 $6 $7 $8 $9 X,Y pos of 4 corners*
0 Add a 4 corners polygon primitive as box body*
4,1,4,$2,$3,$4,$5,$6,$7,$8,$9,$2,$3,0*
0 Add four circle primitives for the rounded corners*
1,1,$1+$1,$2,$3*
1,1,$1+$1,$4,$5*
1,1,$1+$1,$6,$7*
1,1,$1+$1,$8,$9*
0 Add four rect primitives between the rounded corners*
20,1,$1+$1,$2,$3,$4,$5,0*
20,1,$1+$1,$4,$5,$6,$7,0*
20,1,$1+$1,$6,$7,$8,$9,0*
20,1,$1+$1,$8,$9,$2,$3,0*%
G04 Aperture macros list end*
%TA.AperFunction,SMDPad,CuDef*%
%ADD10RoundRect,0.218750X0.218750X0.256250X-0.218750X0.256250X-0.218750X-0.256250X0.218750X-0.256250X0*%
%TD*%
%TA.AperFunction,ComponentPad*%
%ADD11R,3.500000X3.500000*%
%TD*%
%TA.AperFunction,ComponentPad*%
%ADD12C,3.500000*%
%TD*%
%TA.AperFunction,SMDPad,CuDef*%
%ADD13R,0.700000X0.700000*%
%TD*%
%TA.AperFunction,SMDPad,CuDef*%
%ADD14R,4.350000X4.510000*%
%TD*%
%TA.AperFunction,SMDPad,CuDef*%
%ADD15RoundRect,0.200000X-0.200000X-0.275000X0.200000X-0.275000X0.200000X0.275000X-0.200000X0.275000X0*%
%TD*%
%TA.AperFunction,SMDPad,CuDef*%
%ADD16RoundRect,0.200000X0.200000X0.275000X-0.200000X0.275000X-0.200000X-0.275000X0.200000X-0.275000X0*%
%TD*%
%TA.AperFunction,SMDPad,CuDef*%
%ADD17RoundRect,0.225000X0.250000X-0.225000X0.250000X0.225000X-0.250000X0.225000X-0.250000X-0.225000X0*%
%TD*%
%TA.AperFunction,ComponentPad*%
%ADD18C,3.800000*%
%TD*%
%TA.AperFunction,SMDPad,CuDef*%
%ADD19RoundRect,0.225000X-0.225000X-0.250000X0.225000X-0.250000X0.225000X0.250000X-0.225000X0.250000X0*%
%TD*%
%TA.AperFunction,SMDPad,CuDef*%
%ADD20RoundRect,0.150000X-0.675000X-0.150000X0.675000X-0.150000X0.675000X0.150000X-0.675000X0.150000X0*%
%TD*%
%TA.AperFunction,SMDPad,CuDef*%
%ADD21R,1.550000X0.600000*%
%TD*%
%TA.AperFunction,ComponentPad*%
%ADD22C,0.600000*%
%TD*%
%TA.AperFunction,SMDPad,CuDef*%
%ADD23R,2.600000X3.100000*%
%TD*%
%TA.AperFunction,SMDPad,CuDef*%
%ADD24R,2.950000X4.500000*%
%TD*%
%TA.AperFunction,SMDPad,CuDef*%
%ADD25R,1.200000X1.200000*%
%TD*%
%TA.AperFunction,ComponentPad*%
%ADD26R,3.000000X3.000000*%
%TD*%
%TA.AperFunction,ComponentPad*%
%ADD27C,3.000000*%
%TD*%
%TA.AperFunction,SMDPad,CuDef*%
%ADD28RoundRect,0.225000X0.375000X-0.225000X0.375000X0.225000X-0.375000X0.225000X-0.375000X-0.225000X0*%
%TD*%
%TA.AperFunction,SMDPad,CuDef*%
%ADD29RoundRect,0.200000X0.275000X-0.200000X0.275000X0.200000X-0.275000X0.200000X-0.275000X-0.200000X0*%
%TD*%
%TA.AperFunction,ComponentPad*%
%ADD30RoundRect,0.200000X0.450000X-0.200000X0.450000X0.200000X-0.450000X0.200000X-0.450000X-0.200000X0*%
%TD*%
%TA.AperFunction,ComponentPad*%
%ADD31O,1.300000X0.800000*%
%TD*%
%TA.AperFunction,SMDPad,CuDef*%
%ADD32R,0.600000X1.450000*%
%TD*%
%TA.AperFunction,SMDPad,CuDef*%
%ADD33R,0.300000X1.450000*%
%TD*%
%TA.AperFunction,ComponentPad*%
%ADD34O,1.000000X2.100000*%
%TD*%
%TA.AperFunction,ComponentPad*%
%ADD35O,1.000000X1.600000*%
%TD*%
%TA.AperFunction,SMDPad,CuDef*%
%ADD36RoundRect,0.249999X1.450001X-0.450001X1.450001X0.450001X-1.450001X0.450001X-1.450001X-0.450001X0*%
%TD*%
%TA.AperFunction,SMDPad,CuDef*%
%ADD37RoundRect,0.225000X0.225000X0.250000X-0.225000X0.250000X-0.225000X-0.250000X0.225000X-0.250000X0*%
%TD*%
%TA.AperFunction,SMDPad,CuDef*%
%ADD38RoundRect,0.249999X-1.450001X0.450001X-1.450001X-0.450001X1.450001X-0.450001X1.450001X0.450001X0*%
%TD*%
%TA.AperFunction,SMDPad,CuDef*%
%ADD39RoundRect,0.062500X0.375000X0.062500X-0.375000X0.062500X-0.375000X-0.062500X0.375000X-0.062500X0*%
%TD*%
%TA.AperFunction,SMDPad,CuDef*%
%ADD40RoundRect,0.062500X0.062500X0.375000X-0.062500X0.375000X-0.062500X-0.375000X0.062500X-0.375000X0*%
%TD*%
%TA.AperFunction,SMDPad,CuDef*%
%ADD41R,5.600000X5.600000*%
%TD*%
%TA.AperFunction,ViaPad*%
%ADD42C,0.600000*%
%TD*%
%TA.AperFunction,ViaPad*%
%ADD43C,0.800000*%
%TD*%
%TA.AperFunction,ViaPad*%
%ADD44C,0.500000*%
%TD*%
%TA.AperFunction,Conductor*%
%ADD45C,0.400000*%
%TD*%
%TA.AperFunction,Conductor*%
%ADD46C,1.000000*%
%TD*%
%TA.AperFunction,Conductor*%
%ADD47C,0.250000*%
%TD*%
%TA.AperFunction,Conductor*%
%ADD48C,1.200000*%
%TD*%
%TA.AperFunction,Conductor*%
%ADD49C,0.300000*%
%TD*%
G04 APERTURE END LIST*
D10*
%TO.P,D13,1,K*%
%TO.N,Net-(D13-K)*%
X67337500Y-173425000D03*
%TO.P,D13,2,A*%
%TO.N,+5V*%
X65762500Y-173425000D03*
%TD*%
D11*
%TO.P,J4,1,Pin_1*%
%TO.N,GND*%
X42200000Y-177550000D03*
D12*
%TO.P,J4,2,Pin_2*%
%TO.N,VDC*%
X47200000Y-177550000D03*
%TD*%
D13*
%TO.P,Q5,1,S*%
%TO.N,/VS3*%
X38400000Y-151900000D03*
X38400000Y-153170000D03*
X38400000Y-154440000D03*
%TO.P,Q5,2,G*%
%TO.N,Net-(D8-A)*%
X38400000Y-155710000D03*
D14*
%TO.P,Q5,3,D*%
%TO.N,VDC*%
X41530000Y-153805000D03*
D13*
X44000000Y-151900000D03*
X44000000Y-153170000D03*
X44000000Y-154440000D03*
X44000000Y-155710000D03*
%TD*%
D15*
%TO.P,R4,1*%
%TO.N,/M1_GH_B*%
X46575000Y-157300000D03*
%TO.P,R4,2*%
%TO.N,Net-(D6-A)*%
X48225000Y-157300000D03*
%TD*%
D16*
%TO.P,R15,1*%
%TO.N,Net-(U7-FB)*%
X36025000Y-161100000D03*
%TO.P,R15,2*%
%TO.N,+5V*%
X34375000Y-161100000D03*
%TD*%
D17*
%TO.P,C25,1*%
%TO.N,Net-(D10-K)*%
X36975000Y-155575000D03*
%TO.P,C25,2*%
%TO.N,/VS3*%
X36975000Y-154025000D03*
%TD*%
D15*
%TO.P,R18,1*%
%TO.N,GND*%
X42400000Y-160205000D03*
%TO.P,R18,2*%
%TO.N,Net-(U7-RT{slash}CLK)*%
X44050000Y-160205000D03*
%TD*%
D18*
%TO.P,H4,1,1*%
%TO.N,GND*%
X69700000Y-177700000D03*
%TD*%
D19*
%TO.P,C4,1*%
%TO.N,+3.3V*%
X65450000Y-165250000D03*
%TO.P,C4,2*%
%TO.N,GND*%
X67000000Y-165250000D03*
%TD*%
D20*
%TO.P,U2,1,Ud+*%
%TO.N,Net-(U2-Ud+)*%
X58375000Y-165695000D03*
%TO.P,U2,2,Ud-*%
%TO.N,Net-(U2-Ud-)*%
X58375000Y-166965000D03*
%TO.P,U2,3,GND*%
%TO.N,GND*%
X58375000Y-168235000D03*
%TO.P,U2,4,RTS#*%
%TO.N,unconnected-(U2-RTS#-Pad4)*%
X58375000Y-169505000D03*
%TO.P,U2,5,VCC*%
%TO.N,+3.3V*%
X63625000Y-169505000D03*
%TO.P,U2,6,TXD*%
%TO.N,/UART_RX*%
X63625000Y-168235000D03*
%TO.P,U2,7,RXD*%
%TO.N,/UART_TX*%
X63625000Y-166965000D03*
%TO.P,U2,8,V3*%
%TO.N,+3.3V*%
X63625000Y-165695000D03*
%TD*%
D16*
%TO.P,R25,1*%
%TO.N,+3.3V*%
X64225000Y-163650000D03*
%TO.P,R25,2*%
%TO.N,/T_NRST*%
X62575000Y-163650000D03*
%TD*%
D13*
%TO.P,Q3,1,S*%
%TO.N,/VS2*%
X48163750Y-151900000D03*
X48163750Y-153170000D03*
X48163750Y-154440000D03*
%TO.P,Q3,2,G*%
%TO.N,Net-(D6-A)*%
X48163750Y-155710000D03*
D14*
%TO.P,Q3,3,D*%
%TO.N,VDC*%
X51293750Y-153805000D03*
D13*
X53763750Y-151900000D03*
X53763750Y-153170000D03*
X53763750Y-154440000D03*
X53763750Y-155710000D03*
%TD*%
D21*
%TO.P,U7,1,BOOT*%
%TO.N,Net-(U7-BOOT)*%
X43350000Y-165905000D03*
%TO.P,U7,2,VIN*%
%TO.N,VDC*%
X43350000Y-164635000D03*
%TO.P,U7,3,EN*%
%TO.N,unconnected-(U7-EN-Pad3)*%
X43350000Y-163365000D03*
%TO.P,U7,4,RT/CLK*%
%TO.N,Net-(U7-RT{slash}CLK)*%
X43350000Y-162095000D03*
%TO.P,U7,5,FB*%
%TO.N,Net-(U7-FB)*%
X37950000Y-162095000D03*
%TO.P,U7,6,COMP*%
%TO.N,Net-(U7-COMP)*%
X37950000Y-163365000D03*
%TO.P,U7,7,GND*%
%TO.N,GND*%
X37950000Y-164635000D03*
%TO.P,U7,8,SW*%
%TO.N,Net-(D3-K)*%
X37950000Y-165905000D03*
D22*
%TO.P,U7,9,GNDPAD*%
%TO.N,GND*%
X41250000Y-165800000D03*
X41250000Y-164600000D03*
X41250000Y-163300000D03*
X41250000Y-162200000D03*
D23*
X40650000Y-164000000D03*
D24*
X40650000Y-164000000D03*
D22*
X40050000Y-165800000D03*
X40050000Y-164600000D03*
X40050000Y-163300000D03*
X40050000Y-162200000D03*
%TD*%
D19*
%TO.P,C18,1*%
%TO.N,Net-(D3-K)*%
X34425000Y-167300000D03*
%TO.P,C18,2*%
%TO.N,Net-(U7-BOOT)*%
X35975000Y-167300000D03*
%TD*%
D25*
%TO.P,D12,1,K*%
%TO.N,/UDC_AD*%
X58675000Y-160100000D03*
%TO.P,D12,2,A*%
%TO.N,GND*%
X61475000Y-160100000D03*
%TD*%
D17*
%TO.P,C23,1*%
%TO.N,Net-(D2-K)*%
X46775000Y-155450000D03*
%TO.P,C23,2*%
%TO.N,/VS2*%
X46775000Y-153900000D03*
%TD*%
D26*
%TO.P,J1,1,Pin_1*%
%TO.N,/VS1*%
X54400000Y-142900000D03*
D27*
%TO.P,J1,2,Pin_2*%
%TO.N,/VS2*%
X50900000Y-142900000D03*
%TO.P,J1,3,Pin_3*%
%TO.N,/VS3*%
X47400000Y-142900000D03*
%TD*%
D28*
%TO.P,D7,1,K*%
%TO.N,/M1_GL_B*%
X55715000Y-149250000D03*
%TO.P,D7,2,A*%
%TO.N,Net-(D7-A)*%
X55715000Y-145950000D03*
%TD*%
D29*
%TO.P,R24,1*%
%TO.N,/UDC_AD*%
X63525000Y-160125000D03*
%TO.P,R24,2*%
%TO.N,VDC*%
X63525000Y-158475000D03*
%TD*%
D28*
%TO.P,D9,1,K*%
%TO.N,/M1_GL_C*%
X46015000Y-149350000D03*
%TO.P,D9,2,A*%
%TO.N,Net-(D9-A)*%
X46015000Y-146050000D03*
%TD*%
D13*
%TO.P,Q1,1,S*%
%TO.N,/VS1*%
X57902500Y-151900000D03*
X57902500Y-153170000D03*
X57902500Y-154440000D03*
%TO.P,Q1,2,G*%
%TO.N,Net-(D4-A)*%
X57902500Y-155710000D03*
D14*
%TO.P,Q1,3,D*%
%TO.N,VDC*%
X61032500Y-153805000D03*
D13*
X63502500Y-151900000D03*
X63502500Y-153170000D03*
X63502500Y-154440000D03*
X63502500Y-155710000D03*
%TD*%
D30*
%TO.P,J7,1,Pin_1*%
%TO.N,/FDCAN_RX*%
X70300000Y-170375000D03*
D31*
%TO.P,J7,2,Pin_2*%
%TO.N,/FDCAN_TX*%
X70300000Y-169125000D03*
%TO.P,J7,3,Pin_3*%
%TO.N,GND*%
X70300000Y-167875000D03*
%TD*%
D15*
%TO.P,R17,1*%
%TO.N,Net-(C20-Pad2)*%
X34375000Y-162700000D03*
%TO.P,R17,2*%
%TO.N,Net-(U7-COMP)*%
X36025000Y-162700000D03*
%TD*%
D32*
%TO.P,J3,A1,GND*%
%TO.N,GND*%
X55260000Y-171755000D03*
%TO.P,J3,A4,VBUS*%
%TO.N,Net-(D1-A)*%
X56060000Y-171755000D03*
D33*
%TO.P,J3,A5,CC1*%
%TO.N,unconnected-(J3-CC1-PadA5)*%
X57260000Y-171755000D03*
%TO.P,J3,A6,D+*%
%TO.N,Net-(U2-Ud+)*%
X58260000Y-171755000D03*
%TO.P,J3,A7,D-*%
%TO.N,Net-(U2-Ud-)*%
X58760000Y-171755000D03*
%TO.P,J3,A8,SBU1*%
%TO.N,unconnected-(J3-SBU1-PadA8)*%
X59760000Y-171755000D03*
D32*
%TO.P,J3,A9,VBUS*%
%TO.N,Net-(D1-A)*%
X60960000Y-171755000D03*
%TO.P,J3,A12,GND*%
%TO.N,GND*%
X61760000Y-171755000D03*
%TO.P,J3,B1,GND*%
X61760000Y-171755000D03*
%TO.P,J3,B4,VBUS*%
%TO.N,Net-(D1-A)*%
X60960000Y-171755000D03*
D33*
%TO.P,J3,B5,CC2*%
%TO.N,unconnected-(J3-CC2-PadB5)*%
X60260000Y-171755000D03*
%TO.P,J3,B6,D+*%
%TO.N,Net-(U2-Ud+)*%
X59260000Y-171755000D03*
%TO.P,J3,B7,D-*%
%TO.N,Net-(U2-Ud-)*%
X57760000Y-171755000D03*
%TO.P,J3,B8,SBU2*%
%TO.N,unconnected-(J3-SBU2-PadB8)*%
X56760000Y-171755000D03*
D32*
%TO.P,J3,B9,VBUS*%
%TO.N,Net-(D1-A)*%
X56060000Y-171755000D03*
%TO.P,J3,B12,GND*%
%TO.N,GND*%
X55260000Y-171755000D03*
D34*
%TO.P,J3,S1,SHIELD*%
X54190000Y-172670000D03*
D35*
X54190000Y-176850000D03*
D34*
X62830000Y-172670000D03*
D35*
X62830000Y-176850000D03*
%TD*%
D36*
%TO.P,C14,1*%
%TO.N,VDC*%
X34700000Y-152250000D03*
%TO.P,C14,2*%
%TO.N,GND*%
X34700000Y-148150000D03*
%TD*%
D37*
%TO.P,C19,1*%
%TO.N,GND*%
X35975000Y-165700000D03*
%TO.P,C19,2*%
%TO.N,Net-(U7-COMP)*%
X34425000Y-165700000D03*
%TD*%
D17*
%TO.P,C24,1*%
%TO.N,Net-(D11-K)*%
X56400000Y-155975000D03*
%TO.P,C24,2*%
%TO.N,/VS1*%
X56400000Y-154425000D03*
%TD*%
D28*
%TO.P,D5,1,K*%
%TO.N,/M1_GL_A*%
X65400000Y-149250000D03*
%TO.P,D5,2,A*%
%TO.N,Net-(D5-A)*%
X65400000Y-145950000D03*
%TD*%
D30*
%TO.P,J6,1,Pin_1*%
%TO.N,/T_NRST*%
X70275000Y-154875000D03*
D31*
%TO.P,J6,2,Pin_2*%
%TO.N,/SWCLK*%
X70275000Y-153625000D03*
%TO.P,J6,3,Pin_3*%
%TO.N,/SWDIO*%
X70275000Y-152375000D03*
%TO.P,J6,4,Pin_4*%
%TO.N,GND*%
X70275000Y-151125000D03*
%TD*%
D18*
%TO.P,H1,1,1*%
%TO.N,GND*%
X34300000Y-177700000D03*
%TD*%
%TO.P,H3,1,1*%
%TO.N,GND*%
X69800000Y-142300000D03*
%TD*%
D38*
%TO.P,C9,1*%
%TO.N,VDC*%
X36400000Y-169250000D03*
%TO.P,C9,2*%
%TO.N,GND*%
X36400000Y-173350000D03*
%TD*%
D13*
%TO.P,Q4,1,S*%
%TO.N,/M1_SL_B*%
X53763750Y-149900000D03*
X53763750Y-148630000D03*
X53763750Y-147360000D03*
%TO.P,Q4,2,G*%
%TO.N,Net-(D7-A)*%
X53763750Y-146090000D03*
D14*
%TO.P,Q4,3,D*%
%TO.N,/VS2*%
X50633750Y-147995000D03*
D13*
X48163750Y-149900000D03*
X48163750Y-148630000D03*
X48163750Y-147360000D03*
X48163750Y-146090000D03*
%TD*%
D18*
%TO.P,H2,1,1*%
%TO.N,GND*%
X34200000Y-142300000D03*
%TD*%
D15*
%TO.P,R26,1*%
%TO.N,GND*%
X65725000Y-175025000D03*
%TO.P,R26,2*%
%TO.N,Net-(D13-K)*%
X67375000Y-175025000D03*
%TD*%
D13*
%TO.P,Q2,1,S*%
%TO.N,/M1_SL_A*%
X63515000Y-149900000D03*
X63515000Y-148630000D03*
X63515000Y-147360000D03*
%TO.P,Q2,2,G*%
%TO.N,Net-(D5-A)*%
X63515000Y-146090000D03*
D14*
%TO.P,Q2,3,D*%
%TO.N,/VS1*%
X60385000Y-147995000D03*
D13*
X57915000Y-149900000D03*
X57915000Y-148630000D03*
X57915000Y-147360000D03*
X57915000Y-146090000D03*
%TD*%
D37*
%TO.P,C33,1*%
%TO.N,/T_NRST*%
X64175000Y-162150000D03*
%TO.P,C33,2*%
%TO.N,GND*%
X62625000Y-162150000D03*
%TD*%
D36*
%TO.P,C13,1*%
%TO.N,VDC*%
X40450000Y-173350000D03*
%TO.P,C13,2*%
%TO.N,GND*%
X40450000Y-169250000D03*
%TD*%
D37*
%TO.P,C20,1*%
%TO.N,GND*%
X35975000Y-164200000D03*
%TO.P,C20,2*%
%TO.N,Net-(C20-Pad2)*%
X34425000Y-164200000D03*
%TD*%
D36*
%TO.P,C10,1*%
%TO.N,VDC*%
X48900000Y-173350000D03*
%TO.P,C10,2*%
%TO.N,GND*%
X48900000Y-169250000D03*
%TD*%
%TO.P,C12,1*%
%TO.N,VDC*%
X44700000Y-173350000D03*
%TO.P,C12,2*%
%TO.N,GND*%
X44700000Y-169250000D03*
%TD*%
D13*
%TO.P,Q6,1,S*%
%TO.N,/M1_SL_C*%
X44012500Y-149900000D03*
X44012500Y-148630000D03*
X44012500Y-147360000D03*
%TO.P,Q6,2,G*%
%TO.N,Net-(D9-A)*%
X44012500Y-146090000D03*
D14*
%TO.P,Q6,3,D*%
%TO.N,/VS3*%
X40882500Y-147995000D03*
D13*
X38412500Y-149900000D03*
X38412500Y-148630000D03*
X38412500Y-147360000D03*
X38412500Y-146090000D03*
%TD*%
D19*
%TO.P,C30,1*%
%TO.N,/UDC_AD*%
X59575000Y-162100000D03*
%TO.P,C30,2*%
%TO.N,GND*%
X61125000Y-162100000D03*
%TD*%
D16*
%TO.P,R16,1*%
%TO.N,GND*%
X39525000Y-160400000D03*
%TO.P,R16,2*%
%TO.N,Net-(U7-FB)*%
X37875000Y-160400000D03*
%TD*%
%TO.P,R23,1*%
%TO.N,GND*%
X61175000Y-163600000D03*
%TO.P,R23,2*%
%TO.N,/UDC_AD*%
X59525000Y-163600000D03*
%TD*%
D30*
%TO.P,J2,1,Pin_1*%
%TO.N,+3.3V*%
X70275000Y-163875000D03*
D31*
%TO.P,J2,2,Pin_2*%
%TO.N,Net-(J2-Pin_2)*%
X70275000Y-162625000D03*
%TO.P,J2,3,Pin_3*%
%TO.N,Net-(J2-Pin_3)*%
X70275000Y-161375000D03*
%TO.P,J2,4,Pin_4*%
%TO.N,Net-(J2-Pin_4)*%
X70275000Y-160125000D03*
%TO.P,J2,5,Pin_5*%
%TO.N,GND*%
X70275000Y-158875000D03*
%TD*%
D39*
%TO.P,U3,1,VBAT*%
%TO.N,+3.3V*%
X55000000Y-166400000D03*
%TO.P,U3,2,PC13*%
%TO.N,/BREAK*%
X55000000Y-165900000D03*
%TO.P,U3,3,PC14*%
%TO.N,unconnected-(U3-PC14-Pad3)*%
X55000000Y-165400000D03*
%TO.P,U3,4,PC15*%
%TO.N,unconnected-(U3-PC15-Pad4)*%
X55000000Y-164900000D03*
%TO.P,U3,5,PF0*%
%TO.N,unconnected-(U3-PF0-Pad5)*%
X55000000Y-164400000D03*
%TO.P,U3,6,PF1*%
%TO.N,unconnected-(U3-PF1-Pad6)*%
X55000000Y-163900000D03*
%TO.P,U3,7,PG10*%
%TO.N,/T_NRST*%
X55000000Y-163400000D03*
%TO.P,U3,8,PA0*%
%TO.N,/Ialpha*%
X55000000Y-162900000D03*
%TO.P,U3,9,PA1*%
%TO.N,/Ibeta*%
X55000000Y-162400000D03*
%TO.P,U3,10,PA2*%
%TO.N,/UDC_AD*%
X55000000Y-161900000D03*
%TO.P,U3,11,PA3*%
%TO.N,unconnected-(U3-PA3-Pad11)*%
X55000000Y-161400000D03*
%TO.P,U3,12,PA4*%
%TO.N,unconnected-(U3-PA4-Pad12)*%
X55000000Y-160900000D03*
D40*
%TO.P,U3,13,PA5*%
%TO.N,unconnected-(U3-PA5-Pad13)*%
X54312500Y-160212500D03*
%TO.P,U3,14,PA6*%
%TO.N,unconnected-(U3-PA6-Pad14)*%
X53812500Y-160212500D03*
%TO.P,U3,15,PA7*%
%TO.N,unconnected-(U3-PA7-Pad15)*%
X53312500Y-160212500D03*
%TO.P,U3,16,PC4*%
%TO.N,unconnected-(U3-PC4-Pad16)*%
X52812500Y-160212500D03*
%TO.P,U3,17,PB0*%
%TO.N,unconnected-(U3-PB0-Pad17)*%
X52312500Y-160212500D03*
%TO.P,U3,18,PB1*%
%TO.N,unconnected-(U3-PB1-Pad18)*%
X51812500Y-160212500D03*
%TO.P,U3,19,PB2*%
%TO.N,/VREF*%
X51312500Y-160212500D03*
%TO.P,U3,20,VREF+*%
X50812500Y-160212500D03*
%TO.P,U3,21,VDDA*%
%TO.N,+3.3V*%
X50312500Y-160212500D03*
%TO.P,U3,22,PB10*%
X49812500Y-160212500D03*
%TO.P,U3,23,VDD*%
X49312500Y-160212500D03*
%TO.P,U3,24,PB11*%
%TO.N,unconnected-(U3-PB11-Pad24)*%
X48812500Y-160212500D03*
D39*
%TO.P,U3,25,PB12*%
%TO.N,unconnected-(U3-PB12-Pad25)*%
X48125000Y-160900000D03*
%TO.P,U3,26,PB13*%
%TO.N,/LIN_1*%
X48125000Y-161400000D03*
%TO.P,U3,27,PB14*%
%TO.N,/LIN_2*%
X48125000Y-161900000D03*
%TO.P,U3,28,PB15*%
%TO.N,/LIN_3*%
X48125000Y-162400000D03*
%TO.P,U3,29,PC6*%
%TO.N,unconnected-(U3-PC6-Pad29)*%
X48125000Y-162900000D03*
%TO.P,U3,30,PA8*%
%TO.N,/HIN_1*%
X48125000Y-163400000D03*
%TO.P,U3,31,PA9*%
%TO.N,/HIN_2*%
X48125000Y-163900000D03*
%TO.P,U3,32,PA10*%
%TO.N,/HIN_3*%
X48125000Y-164400000D03*
%TO.P,U3,33,PA11*%
%TO.N,/FDCAN_TX*%
X48125000Y-164900000D03*
%TO.P,U3,34,PA12*%
%TO.N,/FDCAN_RX*%
X48125000Y-165400000D03*
%TO.P,U3,35,VDD*%
%TO.N,+3.3V*%
X48125000Y-165900000D03*
%TO.P,U3,36,PA13*%
%TO.N,/SWDIO*%
X48125000Y-166400000D03*
D40*
%TO.P,U3,37,PA14*%
%TO.N,/SWCLK*%
X48812500Y-167087500D03*
%TO.P,U3,38,PA15*%
%TO.N,unconnected-(U3-PA15-Pad38)*%
X49312500Y-167087500D03*
%TO.P,U3,39,PC10*%
%TO.N,unconnected-(U3-PC10-Pad39)*%
X49812500Y-167087500D03*
%TO.P,U3,40,PC11*%
%TO.N,unconnected-(U3-PC11-Pad40)*%
X50312500Y-167087500D03*
%TO.P,U3,41,PB3*%
%TO.N,/SPI_CLK*%
X50812500Y-167087500D03*
%TO.P,U3,42,PB4*%
%TO.N,/SPI_MISO*%
X51312500Y-167087500D03*
%TO.P,U3,43,PB5*%
%TO.N,/SPI_MOSI*%
X51812500Y-167087500D03*
%TO.P,U3,44,PB6*%
%TO.N,/UART_TX*%
X52312500Y-167087500D03*
%TO.P,U3,45,PB7*%
%TO.N,/UART_RX*%
X52812500Y-167087500D03*
%TO.P,U3,46,PB8*%
%TO.N,GND*%
X53312500Y-167087500D03*
%TO.P,U3,47,PB9*%
%TO.N,unconnected-(U3-PB9-Pad47)*%
X53812500Y-167087500D03*
%TO.P,U3,48,VDD*%
%TO.N,+3.3V*%
X54312500Y-167087500D03*
D41*
%TO.P,U3,49,VSS*%
%TO.N,GND*%
X51562500Y-163650000D03*
%TD*%
D42*
%TO.N,/Ibeta*%
X46350000Y-152240000D03*
X57870000Y-161930000D03*
%TO.N,+3.3V*%
X60300000Y-150975000D03*
%TO.N,GND*%
X35010000Y-148200000D03*
X53250000Y-165975002D03*
X52450000Y-166000000D03*
X53175000Y-165250000D03*
X34010000Y-148180000D03*
X53950000Y-165300000D03*
X53925000Y-165975000D03*
X51750000Y-166025000D03*
%TO.N,+5V*%
X55135754Y-174869622D03*
X33300000Y-172200000D03*
X34374999Y-161100002D03*
X65787044Y-173175000D03*
X42450000Y-174850000D03*
%TO.N,Net-(D11-K)*%
X56400000Y-155974972D03*
X46225000Y-160225000D03*
%TO.N,Net-(D3-K)*%
X34625000Y-167125000D03*
D43*
X37800000Y-165900000D03*
D44*
X35025000Y-166675000D03*
D42*
%TO.N,Net-(D2-K)*%
X46775000Y-155449998D03*
X46200000Y-162175000D03*
%TO.N,/VS2*%
X46775000Y-153899972D03*
X45012549Y-164624988D03*
%TO.N,/VS1*%
X55410000Y-155540000D03*
%TO.N,/VS3*%
X38412500Y-153824996D03*
X48061822Y-167560934D03*
%TO.N,Net-(D1-A)*%
X58510000Y-177639425D03*
X58510000Y-176939922D03*
%TO.N,+3.3V*%
X40975000Y-150900000D03*
X49825000Y-159800000D03*
X46225000Y-150900004D03*
X56250000Y-168275000D03*
X65450000Y-165249960D03*
X42600000Y-168000000D03*
X50425000Y-150850000D03*
X35300000Y-150900000D03*
%TO.N,Net-(D10-K)*%
X44825006Y-166625000D03*
X36490000Y-156450000D03*
%TO.N,/M1_SL_A*%
X63500000Y-149475000D03*
X63500000Y-148700000D03*
X63500000Y-148025000D03*
X63525000Y-147300000D03*
%TO.N,/VREF*%
X47133058Y-171941942D03*
X51050000Y-159574990D03*
%TO.N,/M1_SL_B*%
X53725000Y-149325000D03*
X53725000Y-147275000D03*
X53725000Y-147950000D03*
X53725000Y-148625000D03*
%TO.N,/M1_SL_C*%
X43875000Y-147450000D03*
X43925000Y-148850000D03*
X43900000Y-148125000D03*
X43925000Y-149575000D03*
%TO.N,Net-(D4-A)*%
X57902500Y-155710034D03*
%TO.N,/M1_GH_A*%
X56975000Y-158250000D03*
X54050004Y-157925000D03*
%TO.N,/M1_GL_A*%
X65400000Y-149325000D03*
X55717905Y-167650000D03*
%TO.N,/M1_GH_B*%
X46675000Y-157300000D03*
X55600000Y-158125000D03*
%TO.N,/M1_GL_B*%
X55700000Y-149325000D03*
X56850000Y-166999998D03*
%TO.N,/M1_GH_C*%
X37024996Y-151925008D03*
X47395827Y-167117697D03*
%TO.N,/M1_GL_C*%
X45975000Y-148600000D03*
X57050000Y-165750024D03*
%TO.N,/Ialpha*%
X57180134Y-162655000D03*
X55750000Y-152750000D03*
%TO.N,Net-(D5-A)*%
X65400000Y-145950000D03*
%TO.N,Net-(D6-A)*%
X52425000Y-158175000D03*
X48163750Y-155709960D03*
%TO.N,Net-(D7-A)*%
X55725000Y-146000000D03*
%TO.N,Net-(D8-A)*%
X38400000Y-155709914D03*
%TO.N,Net-(D9-A)*%
X46025000Y-147000000D03*
%TO.N,/FDCAN_TX*%
X45550000Y-165250000D03*
%TO.N,/FDCAN_RX*%
X46512492Y-165537508D03*
%TO.N,/UART_TX*%
X63125000Y-166950000D03*
X52825000Y-169225000D03*
%TO.N,/UART_RX*%
X63100000Y-168250000D03*
X53859411Y-169775000D03*
%TO.N,/HIN_1*%
X45797495Y-163163144D03*
X55950000Y-160100000D03*
%TO.N,/HIN_2*%
X57850000Y-163280000D03*
X46500000Y-163775000D03*
X56750000Y-159500000D03*
%TO.N,/HIN_3*%
X45602757Y-163938568D03*
X56800000Y-164125006D03*
X57328133Y-161314929D03*
%TO.N,/SWDIO*%
X48887502Y-170612498D03*
%TO.N,/SWCLK*%
X51575002Y-170475000D03*
X48825000Y-167950000D03*
%TD*%
D45*
%TO.N,Net-(D1-A)*%
X58510000Y-177639425D02*
X58510000Y-176939922D01*
X58400000Y-173330000D02*
X58400000Y-177529425D01*
X58400000Y-177529425D02*
X58510000Y-177639425D01*
D46*
%TO.N,VDC*%
X41530000Y-156060000D02*
X41530000Y-153805000D01*
X35275000Y-157950000D02*
X39640000Y-157950000D01*
X39640000Y-157950000D02*
X41530000Y-156060000D01*
X34700000Y-157375000D02*
X35275000Y-157950000D01*
X33275000Y-158800000D02*
X34700000Y-157375000D01*
X33275000Y-167933148D02*
X33275000Y-158800000D01*
X34591852Y-169250000D02*
X33275000Y-167933148D01*
X36400000Y-169250000D02*
X34591852Y-169250000D01*
D47*
%TO.N,/Ibeta*%
X57840000Y-161980000D02*
X57790000Y-161980000D01*
X57870000Y-161930000D02*
X57840000Y-161980000D01*
X57740000Y-161980000D02*
X57870000Y-161930000D01*
X56340000Y-161980000D02*
X57740000Y-161980000D01*
X55920000Y-162400000D02*
X56340000Y-161980000D01*
X55000000Y-162400000D02*
X55920000Y-162400000D01*
D45*
%TO.N,GND*%
X35975000Y-164200000D02*
X35975000Y-165700000D01*
X36410000Y-164635000D02*
X35975000Y-164200000D01*
X42400000Y-161400000D02*
X41600000Y-162200000D01*
X36410000Y-164635000D02*
X35975000Y-165070000D01*
X38300000Y-164635000D02*
X36410000Y-164635000D01*
X42400000Y-160205000D02*
X42400000Y-161400000D01*
D47*
X55260000Y-171755000D02*
X55260000Y-169573604D01*
D45*
X40400000Y-162200000D02*
X40400000Y-161275000D01*
D47*
X53312500Y-167626104D02*
X53312500Y-167087500D01*
X53312500Y-167087500D02*
X53312500Y-165987500D01*
D45*
X35975000Y-165070000D02*
X35975000Y-165700000D01*
X38300000Y-164635000D02*
X40365000Y-164635000D01*
X40400000Y-161275000D02*
X39525000Y-160400000D01*
D47*
X55260000Y-169573604D02*
X53312500Y-167626104D01*
D46*
%TO.N,VDC*%
X41530000Y-154505000D02*
X45500000Y-158475000D01*
D47*
X44750000Y-160722462D02*
X44775000Y-160697462D01*
X44775000Y-160697462D02*
X44775000Y-159900000D01*
D46*
X51369214Y-153805000D02*
X54689214Y-157125000D01*
D47*
X44775000Y-159900000D02*
X46200000Y-158475000D01*
D46*
X61032500Y-156617500D02*
X61032500Y-153805000D01*
D48*
X40500000Y-173350000D02*
X36400000Y-169250000D01*
D47*
X44750000Y-163849620D02*
X44750000Y-160722462D01*
D46*
X60525000Y-157125000D02*
X61032500Y-156617500D01*
X34700000Y-152250000D02*
X34700000Y-157375000D01*
X45500000Y-158475000D02*
X46200000Y-158475000D01*
X54689214Y-157125000D02*
X60525000Y-157125000D01*
X50397766Y-158475000D02*
X51293750Y-157579016D01*
X51293750Y-157579016D02*
X51293750Y-153805000D01*
D48*
X44700000Y-173350000D02*
X40500000Y-173350000D01*
D47*
X63502500Y-155710000D02*
X63502500Y-158452500D01*
D46*
X44700000Y-173350000D02*
X48900000Y-173350000D01*
D47*
X43964620Y-164635000D02*
X44750000Y-163849620D01*
D46*
X46200000Y-158475000D02*
X50397766Y-158475000D01*
D47*
%TO.N,Net-(D3-K)*%
X37800000Y-165900000D02*
X37200000Y-166500000D01*
X35025000Y-166675000D02*
X35025000Y-166700000D01*
X37200000Y-166500000D02*
X35225000Y-166500000D01*
X35225000Y-166500000D02*
X35050000Y-166675000D01*
X35050000Y-166675000D02*
X35025000Y-166675000D01*
X35025000Y-166700000D02*
X34625000Y-167100000D01*
D49*
%TO.N,Net-(U7-BOOT)*%
X42305000Y-167300000D02*
X35975000Y-167300000D01*
X43700000Y-165905000D02*
X42305000Y-167300000D01*
%TO.N,Net-(U7-COMP)*%
X38300000Y-163365000D02*
X36690000Y-163365000D01*
D47*
X35200000Y-164925000D02*
X34425000Y-165700000D01*
D49*
X36690000Y-163365000D02*
X36025000Y-162700000D01*
D47*
X35200000Y-163525000D02*
X35200000Y-164925000D01*
X36025000Y-162700000D02*
X35200000Y-163525000D01*
%TO.N,Net-(C20-Pad2)*%
X34375000Y-162700000D02*
X34375000Y-164150000D01*
D46*
%TO.N,/VS2*%
X48163750Y-149900000D02*
X48163750Y-154440000D01*
D45*
X47623750Y-153900000D02*
X48163750Y-154440000D01*
X46775000Y-153900000D02*
X47623750Y-153900000D01*
%TO.N,/VS1*%
X56400000Y-154425000D02*
X57887500Y-154425000D01*
D46*
X57915000Y-154427500D02*
X57902500Y-154440000D01*
D47*
X57902500Y-154440000D02*
X56415000Y-154440000D01*
X56400000Y-154425000D02*
X55410000Y-155415000D01*
D46*
X57915000Y-149900000D02*
X57915000Y-154427500D01*
D47*
X55410000Y-155415000D02*
X55410000Y-155540000D01*
D46*
%TO.N,/VS3*%
X38412500Y-149900000D02*
X38412500Y-154427500D01*
D45*
X36975000Y-154025000D02*
X37985000Y-154025000D01*
D46*
X38412500Y-154427500D02*
X38400000Y-154440000D01*
D45*
X37985000Y-154025000D02*
X38400000Y-154440000D01*
%TO.N,Net-(D1-A)*%
X60125686Y-173330000D02*
X60960000Y-172495686D01*
X56894314Y-173330000D02*
X58400000Y-173330000D01*
X60960000Y-172495686D02*
X60960000Y-171755000D01*
X56060000Y-171755000D02*
X56060000Y-172495686D01*
X58400000Y-173330000D02*
X60125686Y-173330000D01*
X56060000Y-172495686D02*
X56894314Y-173330000D01*
D47*
%TO.N,+3.3V*%
X54312500Y-167087500D02*
X55000000Y-166400000D01*
X65450000Y-165250000D02*
X65450000Y-168550000D01*
X42600000Y-168000000D02*
X44983884Y-168000000D01*
X65050000Y-165250000D02*
X65450000Y-165250000D01*
X63625000Y-165695000D02*
X64605000Y-165695000D01*
X47083884Y-165900000D02*
X48125000Y-165900000D01*
X63625000Y-164350000D02*
X63625000Y-165695000D01*
X63900000Y-164075000D02*
X63625000Y-164350000D01*
X65450000Y-168550000D02*
X64495000Y-169505000D01*
X64605000Y-165695000D02*
X65050000Y-165250000D01*
X49312500Y-160212500D02*
X49725000Y-159800000D01*
X49725000Y-159800000D02*
X49825000Y-159800000D01*
X54312500Y-167525000D02*
X55062500Y-168275000D01*
X64495000Y-169505000D02*
X63625000Y-169505000D01*
X50312500Y-160212500D02*
X49900000Y-159800000D01*
X54312500Y-167087500D02*
X54312500Y-167525000D01*
X49900000Y-159800000D02*
X49825000Y-159800000D01*
X44983884Y-168000000D02*
X47083884Y-165900000D01*
X55062500Y-168275000D02*
X56250000Y-168275000D01*
%TO.N,Net-(U2-Ud+)*%
X59975000Y-166470000D02*
X59975000Y-170205380D01*
X58260000Y-171755000D02*
X58260000Y-172589620D01*
X59260000Y-172589620D02*
X59260000Y-171755000D01*
X59200000Y-165695000D02*
X59975000Y-166470000D01*
X59044620Y-172805000D02*
X59260000Y-172589620D01*
X58260000Y-172589620D02*
X58475380Y-172805000D01*
X59975000Y-170205380D02*
X59260000Y-170920380D01*
X59260000Y-170920380D02*
X59260000Y-171755000D01*
X58375000Y-165695000D02*
X59200000Y-165695000D01*
X58475380Y-172805000D02*
X59044620Y-172805000D01*
%TO.N,Net-(U2-Ud-)*%
X58760000Y-171755000D02*
X58760000Y-170616752D01*
X58760000Y-170616752D02*
X59525000Y-169851752D01*
X57760000Y-170920380D02*
X57760000Y-171755000D01*
X57980380Y-170700000D02*
X57760000Y-170920380D01*
X58760000Y-171755000D02*
X58760000Y-170920380D01*
X58760000Y-170920380D02*
X58539620Y-170700000D01*
X59525000Y-167888248D02*
X58601752Y-166965000D01*
X59525000Y-169851752D02*
X59525000Y-167888248D01*
X58539620Y-170700000D02*
X57980380Y-170700000D01*
%TO.N,Net-(D10-K)*%
X36490000Y-155985000D02*
X36490000Y-156450000D01*
X36900000Y-155575000D02*
X36490000Y-155985000D01*
%TO.N,/UDC_AD*%
X62725000Y-158925000D02*
X59500000Y-158925000D01*
X55485508Y-161900000D02*
X57285508Y-160100000D01*
X59500000Y-158925000D02*
X58325000Y-160100000D01*
X59525000Y-161300000D02*
X59525000Y-163600000D01*
X63525000Y-159725000D02*
X62725000Y-158925000D01*
X57285508Y-160100000D02*
X58325000Y-160100000D01*
X58325000Y-160100000D02*
X59525000Y-161300000D01*
X55000000Y-161900000D02*
X55485508Y-161900000D01*
X59575000Y-162100000D02*
X59575000Y-163550000D01*
X63525000Y-160125000D02*
X63525000Y-159725000D01*
%TO.N,/VREF*%
X50812500Y-160212500D02*
X51050000Y-159975000D01*
X51312500Y-160212500D02*
X51050000Y-159950000D01*
X51050000Y-159975000D02*
X51050000Y-159574990D01*
X51050000Y-159950000D02*
X51050000Y-159574990D01*
%TO.N,/T_NRST*%
X70275000Y-154875000D02*
X68775000Y-154875000D01*
X58225000Y-164600000D02*
X61625000Y-164600000D01*
X65725000Y-160600000D02*
X64175000Y-162150000D01*
X57025000Y-163400000D02*
X58225000Y-164600000D01*
X64075000Y-162150000D02*
X62575000Y-163650000D01*
X65725000Y-157925000D02*
X65725000Y-160600000D01*
X68775000Y-154875000D02*
X65725000Y-157925000D01*
X61625000Y-164600000D02*
X62575000Y-163650000D01*
X55000000Y-163400000D02*
X57025000Y-163400000D01*
%TO.N,/M1_GL_C*%
X46015000Y-149350000D02*
X46015000Y-148640000D01*
X46015000Y-148640000D02*
X45975000Y-148600000D01*
%TO.N,Net-(U7-FB)*%
X36725000Y-160400000D02*
X36025000Y-161100000D01*
X37875000Y-160400000D02*
X37875000Y-162020000D01*
X37875000Y-160400000D02*
X36725000Y-160400000D01*
D49*
%TO.N,Net-(U7-RT{slash}CLK)*%
X44050000Y-161745000D02*
X43700000Y-162095000D01*
X44050000Y-160205000D02*
X44050000Y-161745000D01*
D47*
%TO.N,/Ialpha*%
X56935134Y-162900000D02*
X57180134Y-162655000D01*
X55000000Y-162900000D02*
X56935134Y-162900000D01*
%TO.N,Net-(D5-A)*%
X63515000Y-146090000D02*
X65260000Y-146090000D01*
D49*
%TO.N,Net-(D6-A)*%
X48175000Y-157300000D02*
X48175000Y-155721248D01*
D47*
%TO.N,Net-(D7-A)*%
X53763750Y-146090000D02*
X55575000Y-146090000D01*
%TO.N,Net-(D9-A)*%
X44012500Y-146090000D02*
X45975000Y-146090000D01*
X46015000Y-146050000D02*
X46015000Y-146990000D01*
X46015000Y-146990000D02*
X46025000Y-147000000D01*
%TO.N,/FDCAN_TX*%
X45900000Y-164900000D02*
X45550000Y-165250000D01*
X48125000Y-164900000D02*
X45900000Y-164900000D01*
%TO.N,/FDCAN_RX*%
X48125000Y-165400000D02*
X46650000Y-165400000D01*
X46650000Y-165400000D02*
X46512492Y-165537508D01*
%TO.N,/UART_TX*%
X52312500Y-167087500D02*
X52312500Y-168687500D01*
X52825000Y-169225000D02*
X52850000Y-169225000D01*
X52312500Y-168687500D02*
X52825000Y-169200000D01*
X52825000Y-169200000D02*
X52825000Y-169225000D01*
X52850000Y-169225000D02*
X52825000Y-169200000D01*
%TO.N,/UART_RX*%
X53775000Y-169725000D02*
X53809411Y-169725000D01*
X53850000Y-169775000D02*
X53859411Y-169775000D01*
X53675000Y-168775000D02*
X53675000Y-169625000D01*
X53675000Y-169625000D02*
X53775000Y-169725000D01*
X53809411Y-169725000D02*
X53859411Y-169775000D01*
X52812500Y-167087500D02*
X52812500Y-167912500D01*
X52812500Y-167912500D02*
X53675000Y-168775000D01*
%TO.N,Net-(D13-K)*%
X67337500Y-173425000D02*
X67337500Y-174987500D01*
%TO.N,/HIN_1*%
X48125000Y-163400000D02*
X47058884Y-163400000D01*
X46808884Y-163150000D02*
X45810639Y-163150000D01*
X45810639Y-163150000D02*
X45797495Y-163163144D01*
X47058884Y-163400000D02*
X46808884Y-163150000D01*
%TO.N,/HIN_2*%
X46625000Y-163900000D02*
X46500000Y-163775000D01*
X48125000Y-163900000D02*
X46625000Y-163900000D01*
%TO.N,/HIN_3*%
X45602757Y-163938568D02*
X46064189Y-164400000D01*
X46064189Y-164400000D02*
X48125000Y-164400000D01*
%TO.N,/SWDIO*%
X47220280Y-166400000D02*
X46725000Y-166895280D01*
X48125000Y-166400000D02*
X47220280Y-166400000D01*
X46725000Y-166895280D02*
X46725000Y-169788174D01*
X47549324Y-170612498D02*
X48887502Y-170612498D01*
X46725000Y-169788174D02*
X47549324Y-170612498D01*
%TO.N,/SWCLK*%
X48812500Y-167087500D02*
X48812500Y-167937500D01*
%TD*%
%TA.AperFunction,Conductor*%
%TO.N,/VS1*%
G36*
X59205895Y-141519685D02*
G01*
X59237224Y-141548504D01*
X62474370Y-145766603D01*
X62499569Y-145831771D01*
X62500000Y-145842097D01*
X62500000Y-148076000D01*
X62480315Y-148143039D01*
X62427511Y-148188794D01*
X62376000Y-148200000D01*
X58324000Y-148200000D01*
X58256961Y-148180315D01*
X58211206Y-148127511D01*
X58200000Y-148076000D01*
X58200000Y-145800000D01*
X57651362Y-145800000D01*
X57584323Y-145780315D01*
X57563681Y-145763681D01*
X56300000Y-144500000D01*
X53724000Y-144500000D01*
X53656961Y-144480315D01*
X53611206Y-144427511D01*
X53600000Y-144376000D01*
X53600000Y-141624000D01*
X53619685Y-141556961D01*
X53672489Y-141511206D01*
X53724000Y-141500000D01*
X59138856Y-141500000D01*
X59205895Y-141519685D01*
G37*
%TD.AperFunction*%
%TD*%
%TA.AperFunction,Conductor*%
%TO.N,/VS2*%
G36*
X52263894Y-143119685D02*
G01*
X52309649Y-143172489D01*
X52318782Y-143201421D01*
X52797927Y-145788805D01*
X52800000Y-145811384D01*
X52800000Y-147176000D01*
X52780315Y-147243039D01*
X52727511Y-147288794D01*
X52676000Y-147300000D01*
X48624000Y-147300000D01*
X48556961Y-147280315D01*
X48511206Y-147227511D01*
X48500000Y-147176000D01*
X48500000Y-145820123D01*
X48506363Y-145780911D01*
X49371737Y-143184788D01*
X49411611Y-143127413D01*
X49476175Y-143100705D01*
X49489374Y-143100000D01*
X52196855Y-143100000D01*
X52263894Y-143119685D01*
G37*
%TD.AperFunction*%
%TD*%
%TA.AperFunction,Conductor*%
%TO.N,VDC*%
G36*
X50286491Y-173619685D02*
G01*
X50332246Y-173672489D01*
X50342190Y-173741647D01*
X50335187Y-173768513D01*
X48930572Y-177420513D01*
X48888134Y-177476018D01*
X48822424Y-177499768D01*
X48814837Y-177500000D01*
X45581217Y-177500000D01*
X45514178Y-177480315D01*
X45468423Y-177427511D01*
X45467547Y-177425549D01*
X43875650Y-173773549D01*
X43866906Y-173704228D01*
X43897029Y-173641185D01*
X43956453Y-173604435D01*
X43989320Y-173600000D01*
X50219452Y-173600000D01*
X50286491Y-173619685D01*
G37*
%TD.AperFunction*%
%TD*%
%TA.AperFunction,Conductor*%
%TO.N,/VS3*%
G36*
X47961301Y-141519685D02*
G01*
X48007056Y-141572489D01*
X48016705Y-141604409D01*
X48377025Y-143856409D01*
X48368179Y-143925717D01*
X48323267Y-143979239D01*
X48256548Y-143999984D01*
X48254582Y-144000000D01*
X44400000Y-144000000D01*
X43025261Y-145767522D01*
X43000000Y-145800000D01*
X43000000Y-147376000D01*
X42980315Y-147443039D01*
X42927511Y-147488794D01*
X42876000Y-147500000D01*
X38824000Y-147500000D01*
X38756961Y-147480315D01*
X38711206Y-147427511D01*
X38700000Y-147376000D01*
X38700000Y-145840037D01*
X38719685Y-145772998D01*
X38723414Y-145767522D01*
X40012642Y-143979239D01*
X41724728Y-141604409D01*
X41762883Y-141551485D01*
X41818056Y-141508615D01*
X41863469Y-141500000D01*
X47894262Y-141500000D01*
X47961301Y-141519685D01*
G37*
%TD.AperFunction*%
%TD*%
%TA.AperFunction,Conductor*%
%TO.N,/M1_SL_C*%
G36*
X44468039Y-146994685D02*
G01*
X44513794Y-147047489D01*
X44525000Y-147099000D01*
X44525000Y-150226000D01*
X44505315Y-150293039D01*
X44452511Y-150338794D01*
X44401000Y-150350000D01*
X43432000Y-150350000D01*
X43364961Y-150330315D01*
X43319206Y-150277511D01*
X43308000Y-150226000D01*
X43308000Y-147099000D01*
X43327685Y-147031961D01*
X43380489Y-146986206D01*
X43432000Y-146975000D01*
X44401000Y-146975000D01*
X44468039Y-146994685D01*
G37*
%TD.AperFunction*%
%TD*%
%TA.AperFunction,Conductor*%
%TO.N,GND*%
G36*
X42242132Y-156559287D02*
G01*
X43279257Y-157320674D01*
X43279265Y-157320678D01*
X43280251Y-157321289D01*
X43282231Y-157322857D01*
X43283216Y-157323580D01*
X43283189Y-157323615D01*
X43302686Y-157339054D01*
X44924270Y-158960638D01*
X44936051Y-158974270D01*
X44950389Y-158993529D01*
X44950390Y-158993531D01*
X44955503Y-158997821D01*
X44994202Y-159055994D01*
X44995307Y-159125855D01*
X44963473Y-159180487D01*
X44626870Y-159517090D01*
X44565547Y-159550575D01*
X44495855Y-159545591D01*
X44465560Y-159529183D01*
X44462883Y-159527207D01*
X44334696Y-159482353D01*
X44304270Y-159479500D01*
X44304266Y-159479500D01*
X43795734Y-159479500D01*
X43795730Y-159479500D01*
X43765300Y-159482353D01*
X43765298Y-159482353D01*
X43637119Y-159527206D01*
X43637117Y-159527207D01*
X43527850Y-159607850D01*
X43447207Y-159717117D01*
X43447206Y-159717119D01*
X43402353Y-159845298D01*
X43402353Y-159845300D01*
X43399500Y-159875730D01*
X43399500Y-160534269D01*
X43402353Y-160564699D01*
X43428290Y-160638822D01*
X43430203Y-160645453D01*
X43435555Y-160668804D01*
X43549750Y-160923416D01*
X43633571Y-161110305D01*
X43638641Y-161121608D01*
X43649500Y-161172353D01*
X43649500Y-161420500D01*
X43629815Y-161487539D01*
X43577011Y-161533294D01*
X43525500Y-161544500D01*
X42550323Y-161544500D01*
X42477264Y-161559032D01*
X42477260Y-161559033D01*
X42394399Y-161614399D01*
X42339033Y-161697260D01*
X42339032Y-161697264D01*
X42324500Y-161770321D01*
X42324500Y-162419678D01*
X42339032Y-162492735D01*
X42339033Y-162492739D01*
X42394399Y-162575601D01*
X42471171Y-162626898D01*
X42515976Y-162680510D01*
X42524683Y-162749835D01*
X42494529Y-162812862D01*
X42471171Y-162833102D01*
X42394399Y-162884398D01*
X42339033Y-162967260D01*
X42339032Y-162967264D01*
X42324500Y-163040321D01*
X42324500Y-163689678D01*
X42339032Y-163762735D01*
X42339033Y-163762739D01*
X42394399Y-163845601D01*
X42471171Y-163896898D01*
X42515976Y-163950510D01*
X42524683Y-164019835D01*
X42494529Y-164082862D01*
X42471171Y-164103102D01*
X42394399Y-164154398D01*
X42339033Y-164237260D01*
X42339032Y-164237264D01*
X42324500Y-164310321D01*
X42324500Y-164959678D01*
X42339032Y-165032735D01*
X42339033Y-165032739D01*
X42394399Y-165115601D01*
X42471171Y-165166898D01*
X42515976Y-165220510D01*
X42524683Y-165289835D01*
X42494529Y-165352862D01*
X42471171Y-165373102D01*
X42394399Y-165424398D01*
X42339033Y-165507260D01*
X42339032Y-165507264D01*
X42324500Y-165580321D01*
X42324500Y-166229678D01*
X42339032Y-166302735D01*
X42339033Y-166302739D01*
X42366529Y-166343889D01*
X42394399Y-166385601D01*
X42423794Y-166405242D01*
X42468597Y-166458850D01*
X42477306Y-166528175D01*
X42447152Y-166591203D01*
X42442583Y-166596023D01*
X42175426Y-166863181D01*
X42114103Y-166896666D01*
X42087745Y-166899500D01*
X37754598Y-166899500D01*
X37687559Y-166879815D01*
X37641804Y-166827011D01*
X37631860Y-166757853D01*
X37660885Y-166694297D01*
X37703585Y-166662479D01*
X38047871Y-166507084D01*
X38058874Y-166499360D01*
X38065685Y-166495207D01*
X38081416Y-166486951D01*
X38114279Y-166469702D01*
X38171904Y-166455500D01*
X38749676Y-166455500D01*
X38749677Y-166455499D01*
X38822740Y-166440966D01*
X38905601Y-166385601D01*
X38960966Y-166302740D01*
X38975500Y-166229674D01*
X38975500Y-165580326D01*
X38975500Y-165580323D01*
X38975499Y-165580321D01*
X38960967Y-165507264D01*
X38960966Y-165507260D01*
X38905601Y-165424399D01*
X38828830Y-165373103D01*
X38822739Y-165369033D01*
X38822735Y-165369032D01*
X38749677Y-165354500D01*
X38749674Y-165354500D01*
X38190958Y-165354500D01*
X38133332Y-165340296D01*
X38032363Y-165287303D01*
X37878986Y-165249500D01*
X37878985Y-165249500D01*
X37721015Y-165249500D01*
X37721014Y-165249500D01*
X37567636Y-165287303D01*
X37567635Y-165287303D01*
X37466668Y-165340296D01*
X37409042Y-165354500D01*
X37150323Y-165354500D01*
X37077264Y-165369032D01*
X37077260Y-165369033D01*
X36994399Y-165424399D01*
X36939033Y-165507260D01*
X36939032Y-165507264D01*
X36924500Y-165580321D01*
X36924500Y-166000500D01*
X36904815Y-166067539D01*
X36852011Y-166113294D01*
X36800500Y-166124500D01*
X35438407Y-166124500D01*
X35433395Y-166124297D01*
X35430457Y-166124058D01*
X35413854Y-166122711D01*
X35413851Y-166122712D01*
X35401991Y-166124087D01*
X35394844Y-166124500D01*
X35276804Y-166124500D01*
X35251357Y-166121861D01*
X35240731Y-166119633D01*
X35230673Y-166117524D01*
X35231140Y-166115295D01*
X35178204Y-166097344D01*
X35134671Y-166042693D01*
X35125499Y-165995889D01*
X35125499Y-165995494D01*
X35125500Y-165995485D01*
X35125499Y-165976540D01*
X35135699Y-165927295D01*
X35431477Y-165243877D01*
X35452650Y-165214075D01*
X35451522Y-165213197D01*
X35461530Y-165200337D01*
X35479639Y-165177069D01*
X35484727Y-165171308D01*
X35487520Y-165168517D01*
X35501088Y-165149513D01*
X35534809Y-165106189D01*
X35534810Y-165106183D01*
X35538543Y-165099287D01*
X35542006Y-165092203D01*
X35542010Y-165092199D01*
X35557673Y-165039587D01*
X35575500Y-164987660D01*
X35575500Y-164987655D01*
X35576795Y-164979895D01*
X35577769Y-164972086D01*
X35575500Y-164917231D01*
X35575500Y-163754503D01*
X35595185Y-163687464D01*
X35647989Y-163641709D01*
X35652676Y-163639683D01*
X35967259Y-163511429D01*
X36036767Y-163504349D01*
X36064637Y-163513033D01*
X36408627Y-163666673D01*
X36417807Y-163670773D01*
X36443122Y-163688194D01*
X36443762Y-163687314D01*
X36451654Y-163693047D01*
X36451656Y-163693048D01*
X36451658Y-163693050D01*
X36470016Y-163702404D01*
X36471394Y-163703106D01*
X36487982Y-163713271D01*
X36505910Y-163726296D01*
X36526979Y-163733141D01*
X36544958Y-163740588D01*
X36564696Y-163750646D01*
X36586578Y-163754111D01*
X36605491Y-163758652D01*
X36626567Y-163765500D01*
X36658481Y-163765500D01*
X36775413Y-163765500D01*
X36830867Y-163778591D01*
X37058797Y-163892556D01*
X37060510Y-163893362D01*
X37062011Y-163894070D01*
X37064385Y-163895153D01*
X37067509Y-163896580D01*
X37067511Y-163896580D01*
X37068485Y-163897025D01*
X37070615Y-163898213D01*
X37077257Y-163900964D01*
X37077260Y-163900966D01*
X37077263Y-163900966D01*
X37077264Y-163900967D01*
X37151390Y-163915712D01*
X37157112Y-163916630D01*
X37164794Y-163918349D01*
X37173746Y-163918562D01*
X37180746Y-163917341D01*
X37202037Y-163915500D01*
X38749676Y-163915500D01*
X38749677Y-163915499D01*
X38822740Y-163900966D01*
X38905601Y-163845601D01*
X38960966Y-163762740D01*
X38975500Y-163689674D01*
X38975500Y-163040326D01*
X38975500Y-163040323D01*
X38975499Y-163040321D01*
X38960967Y-162967264D01*
X38960966Y-162967260D01*
X38957417Y-162961948D01*
X38905601Y-162884399D01*
X38828827Y-162833101D01*
X38784023Y-162779491D01*
X38775316Y-162710166D01*
X38805470Y-162647138D01*
X38828828Y-162626898D01*
X38905601Y-162575601D01*
X38960966Y-162492740D01*
X38975500Y-162419674D01*
X38975500Y-161770326D01*
X38975500Y-161770323D01*
X38975499Y-161770321D01*
X38960967Y-161697264D01*
X38960966Y-161697260D01*
X38950451Y-161681523D01*
X38905601Y-161614399D01*
X38850235Y-161577405D01*
X38822739Y-161559033D01*
X38822735Y-161559032D01*
X38749677Y-161544500D01*
X38749674Y-161544500D01*
X38413388Y-161544500D01*
X38346349Y-161524815D01*
X38312561Y-161492680D01*
X38288952Y-161459701D01*
X38275982Y-161441584D01*
X38252966Y-161375616D01*
X38265734Y-161314287D01*
X38471580Y-160899494D01*
X38473603Y-160896186D01*
X38473447Y-160896104D01*
X38477790Y-160887884D01*
X38477793Y-160887882D01*
X38477794Y-160887878D01*
X38477989Y-160887510D01*
X38480579Y-160881361D01*
X38484730Y-160872998D01*
X38505825Y-160812327D01*
X38507034Y-160806615D01*
X38507034Y-160806610D01*
X38507442Y-160804685D01*
X38509581Y-160797036D01*
X38516304Y-160777821D01*
X38522646Y-160759699D01*
X38522646Y-160759696D01*
X38522647Y-160759694D01*
X38525500Y-160729269D01*
X38525500Y-160070730D01*
X38522646Y-160040300D01*
X38522646Y-160040298D01*
X38477793Y-159912119D01*
X38477792Y-159912117D01*
X38397150Y-159802850D01*
X38287882Y-159722207D01*
X38287880Y-159722206D01*
X38159700Y-159677353D01*
X38129270Y-159674500D01*
X38129266Y-159674500D01*
X37620734Y-159674500D01*
X37620730Y-159674500D01*
X37590300Y-159677353D01*
X37590298Y-159677353D01*
X37462119Y-159722206D01*
X37462117Y-159722207D01*
X37400410Y-159767748D01*
X37352850Y-159802850D01*
X37352849Y-159802851D01*
X37345381Y-159808363D01*
X37344950Y-159807779D01*
X37336328Y-159814575D01*
X37105671Y-159956287D01*
X37031039Y-160002140D01*
X37024507Y-160006153D01*
X36959596Y-160024500D01*
X36776804Y-160024500D01*
X36751357Y-160021861D01*
X36748713Y-160021306D01*
X36740729Y-160019632D01*
X36705509Y-160024023D01*
X36697832Y-160024500D01*
X36693886Y-160024500D01*
X36676606Y-160027383D01*
X36670846Y-160028344D01*
X36616368Y-160035135D01*
X36608844Y-160037375D01*
X36601392Y-160039934D01*
X36553119Y-160066057D01*
X36503790Y-160090172D01*
X36497395Y-160094737D01*
X36491173Y-160099581D01*
X36476817Y-160115175D01*
X36432404Y-160146012D01*
X35894473Y-160365324D01*
X35847660Y-160374500D01*
X35770730Y-160374500D01*
X35740300Y-160377353D01*
X35740298Y-160377353D01*
X35612119Y-160422206D01*
X35612117Y-160422207D01*
X35502850Y-160502850D01*
X35422207Y-160612117D01*
X35422206Y-160612119D01*
X35377353Y-160740298D01*
X35377353Y-160740300D01*
X35374500Y-160770730D01*
X35374500Y-161429269D01*
X35377353Y-161459699D01*
X35377353Y-161459701D01*
X35422206Y-161587880D01*
X35422207Y-161587882D01*
X35502850Y-161697150D01*
X35612118Y-161777793D01*
X35626884Y-161782959D01*
X35683658Y-161823682D01*
X35709404Y-161888635D01*
X35695947Y-161957196D01*
X35647559Y-162007598D01*
X35626887Y-162017038D01*
X35612118Y-162022207D01*
X35612117Y-162022207D01*
X35612116Y-162022208D01*
X35502850Y-162102850D01*
X35422207Y-162212117D01*
X35422206Y-162212119D01*
X35377353Y-162340298D01*
X35377353Y-162340300D01*
X35374500Y-162370730D01*
X35374500Y-162439163D01*
X35362791Y-162491762D01*
X35261791Y-162707382D01*
X35215528Y-162759741D01*
X35148302Y-162778777D01*
X35081456Y-162758446D01*
X35036213Y-162705202D01*
X35025500Y-162654783D01*
X35025500Y-162370730D01*
X35022646Y-162340300D01*
X35022646Y-162340298D01*
X34977793Y-162212119D01*
X34977792Y-162212117D01*
X34974059Y-162207059D01*
X34897150Y-162102850D01*
X34787882Y-162022207D01*
X34787880Y-162022206D01*
X34773118Y-162017041D01*
X34716342Y-161976320D01*
X34690595Y-161911367D01*
X34704051Y-161842805D01*
X34752439Y-161792402D01*
X34773118Y-161782959D01*
X34787882Y-161777793D01*
X34897150Y-161697150D01*
X34977793Y-161587882D01*
X35001223Y-161520924D01*
X35022646Y-161459701D01*
X35022646Y-161459699D01*
X35025500Y-161429269D01*
X35025500Y-160770730D01*
X35022646Y-160740300D01*
X35022646Y-160740298D01*
X34989006Y-160644163D01*
X34977793Y-160612118D01*
X34897150Y-160502850D01*
X34787882Y-160422207D01*
X34787880Y-160422206D01*
X34659700Y-160377353D01*
X34629270Y-160374500D01*
X34629266Y-160374500D01*
X34149500Y-160374500D01*
X34082461Y-160354815D01*
X34036706Y-160302011D01*
X34025500Y-160250500D01*
X34025500Y-159162228D01*
X34045185Y-159095189D01*
X34061815Y-159074551D01*
X34613178Y-158523187D01*
X34674499Y-158489704D01*
X34744190Y-158494688D01*
X34777764Y-158513601D01*
X34800958Y-158531940D01*
X34859788Y-158581304D01*
X34865818Y-158585270D01*
X34865785Y-158585319D01*
X34872147Y-158589372D01*
X34872179Y-158589321D01*
X34878319Y-158593108D01*
X34878323Y-158593111D01*
X34905668Y-158605862D01*
X34947941Y-158625575D01*
X34981881Y-158642620D01*
X35016567Y-158660040D01*
X35016569Y-158660040D01*
X35023357Y-158662511D01*
X35023336Y-158662567D01*
X35030457Y-158665043D01*
X35030476Y-158664986D01*
X35037322Y-158667254D01*
X35037327Y-158667257D01*
X35037332Y-158667258D01*
X35037335Y-158667259D01*
X35112565Y-158682792D01*
X35187279Y-158700500D01*
X35187282Y-158700500D01*
X35187286Y-158700501D01*
X35194453Y-158701339D01*
X35194446Y-158701398D01*
X35201944Y-158702164D01*
X35201950Y-158702105D01*
X35209139Y-158702734D01*
X35209143Y-158702733D01*
X35209144Y-158702734D01*
X35285917Y-158700500D01*
X39576295Y-158700500D01*
X39594265Y-158701809D01*
X39618023Y-158705289D01*
X39670068Y-158700735D01*
X39675470Y-158700500D01*
X39683704Y-158700500D01*
X39683709Y-158700500D01*
X39695327Y-158699141D01*
X39716276Y-158696693D01*
X39729028Y-158695577D01*
X39792797Y-158689999D01*
X39792805Y-158689996D01*
X39799866Y-158688539D01*
X39799878Y-158688598D01*
X39807243Y-158686965D01*
X39807229Y-158686906D01*
X39814246Y-158685241D01*
X39814255Y-158685241D01*
X39886423Y-158658974D01*
X39959334Y-158634814D01*
X39959343Y-158634807D01*
X39965882Y-158631760D01*
X39965908Y-158631816D01*
X39972690Y-158628532D01*
X39972663Y-158628478D01*
X39979106Y-158625240D01*
X39979117Y-158625237D01*
X40043283Y-158583034D01*
X40108656Y-158542712D01*
X40108662Y-158542705D01*
X40114325Y-158538229D01*
X40114362Y-158538277D01*
X40120204Y-158533518D01*
X40120164Y-158533471D01*
X40125686Y-158528836D01*
X40125696Y-158528830D01*
X40157907Y-158494688D01*
X40178386Y-158472982D01*
X40771079Y-157880288D01*
X41365537Y-157285829D01*
X41369278Y-157282386D01*
X41384578Y-157269432D01*
X41392653Y-157259276D01*
X41397329Y-157254036D01*
X42015638Y-156635727D01*
X42029267Y-156623950D01*
X42048530Y-156609610D01*
X42073761Y-156579539D01*
X42131931Y-156540837D01*
X42201792Y-156539727D01*
X42242132Y-156559287D01*
G37*
%TD.AperFunction*%
%TA.AperFunction,Conductor*%
G36*
X71767539Y-140195185D02*
G01*
X71813294Y-140247989D01*
X71824500Y-140299500D01*
X71824500Y-179700500D01*
X71804815Y-179767539D01*
X71752011Y-179813294D01*
X71700500Y-179824500D01*
X32299500Y-179824500D01*
X32232461Y-179804815D01*
X32186706Y-179752011D01*
X32175500Y-179700500D01*
X32175500Y-172200000D01*
X32744750Y-172200000D01*
X32755395Y-172280859D01*
X32763670Y-172343708D01*
X32763671Y-172343712D01*
X32819137Y-172477622D01*
X32819138Y-172477624D01*
X32819139Y-172477625D01*
X32907379Y-172592621D01*
X33022375Y-172680861D01*
X33022376Y-172680861D01*
X33022377Y-172680862D01*
X33054429Y-172694138D01*
X33156291Y-172736330D01*
X33280343Y-172752662D01*
X33299999Y-172755250D01*
X33300000Y-172755250D01*
X33300001Y-172755250D01*
X33319657Y-172752662D01*
X33443709Y-172736330D01*
X33577625Y-172680861D01*
X33692621Y-172592621D01*
X33780861Y-172477625D01*
X33836330Y-172343709D01*
X33855250Y-172200000D01*
X33836330Y-172056291D01*
X33780861Y-171922375D01*
X33692621Y-171807379D01*
X33577625Y-171719139D01*
X33577624Y-171719138D01*
X33577622Y-171719137D01*
X33443712Y-171663671D01*
X33443710Y-171663670D01*
X33443709Y-171663670D01*
X33371854Y-171654210D01*
X33300001Y-171644750D01*
X33299999Y-171644750D01*
X33156291Y-171663670D01*
X33156287Y-171663671D01*
X33022377Y-171719137D01*
X32907379Y-171807379D01*
X32819137Y-171922377D01*
X32763671Y-172056287D01*
X32763670Y-172056291D01*
X32744750Y-172200000D01*
X32175500Y-172200000D01*
X32175500Y-167911173D01*
X32519710Y-167911173D01*
X32523108Y-167949999D01*
X32523885Y-167958887D01*
X32524264Y-167963212D01*
X32524500Y-167968618D01*
X32524500Y-167976857D01*
X32528306Y-168009422D01*
X32535000Y-168085939D01*
X32536461Y-168093015D01*
X32536403Y-168093026D01*
X32538034Y-168100385D01*
X32538092Y-168100372D01*
X32539757Y-168107398D01*
X32566025Y-168179572D01*
X32590185Y-168252479D01*
X32593236Y-168259022D01*
X32593182Y-168259046D01*
X32596470Y-168265836D01*
X32596521Y-168265811D01*
X32599761Y-168272261D01*
X32599762Y-168272262D01*
X32599763Y-168272265D01*
X32624465Y-168309823D01*
X32641965Y-168336431D01*
X32682287Y-168401803D01*
X32686766Y-168407467D01*
X32686719Y-168407504D01*
X32691482Y-168413350D01*
X32691528Y-168413312D01*
X32696173Y-168418848D01*
X32752017Y-168471533D01*
X34016122Y-169735638D01*
X34027903Y-169749270D01*
X34042240Y-169768528D01*
X34042241Y-169768529D01*
X34042242Y-169768530D01*
X34049953Y-169775000D01*
X34082261Y-169802111D01*
X34086249Y-169805766D01*
X34092068Y-169811585D01*
X34092072Y-169811588D01*
X34092075Y-169811591D01*
X34117811Y-169831940D01*
X34176638Y-169881302D01*
X34176639Y-169881302D01*
X34176641Y-169881304D01*
X34182670Y-169885270D01*
X34182637Y-169885319D01*
X34188999Y-169889372D01*
X34189031Y-169889321D01*
X34195171Y-169893108D01*
X34195175Y-169893111D01*
X34219202Y-169904315D01*
X34264793Y-169925575D01*
X34296236Y-169941366D01*
X34333419Y-169960040D01*
X34333421Y-169960040D01*
X34340209Y-169962511D01*
X34340188Y-169962567D01*
X34347309Y-169965043D01*
X34347328Y-169964986D01*
X34354174Y-169967254D01*
X34354179Y-169967257D01*
X34354184Y-169967258D01*
X34354187Y-169967259D01*
X34429417Y-169982792D01*
X34504131Y-170000500D01*
X34504133Y-170000500D01*
X34511158Y-170002165D01*
X34510677Y-170004192D01*
X34565478Y-170027480D01*
X34586056Y-170049002D01*
X34590920Y-170055499D01*
X34592454Y-170057548D01*
X34707669Y-170143796D01*
X34707671Y-170143797D01*
X34771544Y-170167620D01*
X34842516Y-170194091D01*
X34902126Y-170200500D01*
X35962717Y-170200500D01*
X36029756Y-170220185D01*
X36043926Y-170230793D01*
X36223667Y-170386569D01*
X36995137Y-171055177D01*
X36995138Y-171055178D01*
X36995141Y-171055180D01*
X36999577Y-171057812D01*
X37023983Y-171076772D01*
X38513077Y-172565866D01*
X38546562Y-172627189D01*
X38541578Y-172696880D01*
X38505910Y-172792510D01*
X38505908Y-172792518D01*
X38499501Y-172852115D01*
X38499500Y-172852134D01*
X38499500Y-173847865D01*
X38499501Y-173847884D01*
X38505908Y-173907481D01*
X38505910Y-173907488D01*
X38556202Y-174042328D01*
X38556203Y-174042330D01*
X38556204Y-174042331D01*
X38642453Y-174157547D01*
X38731239Y-174224011D01*
X38757669Y-174243796D01*
X38757671Y-174243797D01*
X38810664Y-174263562D01*
X38892516Y-174294091D01*
X38952126Y-174300500D01*
X41847925Y-174300500D01*
X41854306Y-174300829D01*
X41859492Y-174301365D01*
X41859497Y-174301365D01*
X41859502Y-174301366D01*
X41928105Y-174303680D01*
X41994440Y-174325612D01*
X42038389Y-174379928D01*
X42045996Y-174449382D01*
X42022299Y-174503095D01*
X41969139Y-174572374D01*
X41969138Y-174572376D01*
X41913671Y-174706287D01*
X41913670Y-174706291D01*
X41894750Y-174849999D01*
X41894750Y-174850000D01*
X41913670Y-174993708D01*
X41913671Y-174993712D01*
X41969137Y-175127622D01*
X41969138Y-175127624D01*
X41969139Y-175127625D01*
X42057379Y-175242621D01*
X42172375Y-175330861D01*
X42306291Y-175386330D01*
X42433280Y-175403048D01*
X42449999Y-175405250D01*
X42450000Y-175405250D01*
X42450001Y-175405250D01*
X42464977Y-175403278D01*
X42593709Y-175386330D01*
X42727625Y-175330861D01*
X42842621Y-175242621D01*
X42930861Y-175127625D01*
X42986330Y-174993709D01*
X43005250Y-174850000D01*
X42986330Y-174706291D01*
X42930861Y-174572375D01*
X42930860Y-174572374D01*
X42930860Y-174572373D01*
X42870050Y-174493125D01*
X42856959Y-174476065D01*
X42831765Y-174410897D01*
X42845803Y-174342452D01*
X42894617Y-174292462D01*
X42962708Y-174276798D01*
X42968313Y-174277259D01*
X43219941Y-174303747D01*
X43290496Y-174301367D01*
X43290500Y-174301366D01*
X43290505Y-174301366D01*
X43295703Y-174300829D01*
X43302083Y-174300500D01*
X43745411Y-174300500D01*
X43812450Y-174320185D01*
X43858205Y-174372989D01*
X43859081Y-174374951D01*
X45189061Y-177426083D01*
X45199075Y-177484476D01*
X45194390Y-177549996D01*
X45194390Y-177550001D01*
X45214804Y-177835433D01*
X45275628Y-178115037D01*
X45275630Y-178115043D01*
X45275631Y-178115046D01*
X45305331Y-178194675D01*
X45375635Y-178383166D01*
X45512770Y-178634309D01*
X45512775Y-178634317D01*
X45684254Y-178863387D01*
X45684270Y-178863405D01*
X45886594Y-179065729D01*
X45886612Y-179065745D01*
X46115682Y-179237224D01*
X46115690Y-179237229D01*
X46366833Y-179374364D01*
X46366832Y-179374364D01*
X46366836Y-179374365D01*
X46366839Y-179374367D01*
X46634954Y-179474369D01*
X46634960Y-179474370D01*
X46634962Y-179474371D01*
X46914566Y-179535195D01*
X46914568Y-179535195D01*
X46914572Y-179535196D01*
X47168220Y-179553337D01*
X47199999Y-179555610D01*
X47200000Y-179555610D01*
X47200001Y-179555610D01*
X47228595Y-179553564D01*
X47485428Y-179535196D01*
X47765046Y-179474369D01*
X48033161Y-179374367D01*
X48284315Y-179237226D01*
X48513395Y-179065739D01*
X48715739Y-178863395D01*
X48887226Y-178634315D01*
X49024367Y-178383161D01*
X49124369Y-178115046D01*
X49124371Y-178115037D01*
X49185195Y-177835433D01*
X49185195Y-177835432D01*
X49185196Y-177835428D01*
X49205610Y-177550000D01*
X49199569Y-177465546D01*
X49207517Y-177412193D01*
X50185428Y-174869622D01*
X54580504Y-174869622D01*
X54599424Y-175013330D01*
X54599425Y-175013334D01*
X54654891Y-175147244D01*
X54654892Y-175147246D01*
X54654893Y-175147247D01*
X54743133Y-175262243D01*
X54858129Y-175350483D01*
X54992045Y-175405952D01*
X55119034Y-175422670D01*
X55135753Y-175424872D01*
X55135754Y-175424872D01*
X55135755Y-175424872D01*
X55150731Y-175422900D01*
X55279463Y-175405952D01*
X55413379Y-175350483D01*
X55528375Y-175262243D01*
X55616615Y-175147247D01*
X55672084Y-175013331D01*
X55691004Y-174869622D01*
X55672084Y-174725913D01*
X55630737Y-174626092D01*
X55616616Y-174591999D01*
X55616615Y-174591998D01*
X55616615Y-174591997D01*
X55528375Y-174477001D01*
X55413379Y-174388761D01*
X55413378Y-174388760D01*
X55413376Y-174388759D01*
X55279466Y-174333293D01*
X55279464Y-174333292D01*
X55279463Y-174333292D01*
X55207608Y-174323832D01*
X55135755Y-174314372D01*
X55135753Y-174314372D01*
X54992045Y-174333292D01*
X54992041Y-174333293D01*
X54858131Y-174388759D01*
X54743133Y-174477001D01*
X54654891Y-174591999D01*
X54599425Y-174725909D01*
X54599424Y-174725913D01*
X54580504Y-174869621D01*
X54580504Y-174869622D01*
X50185428Y-174869622D01*
X50378241Y-174368309D01*
X50420679Y-174312806D01*
X50450643Y-174296642D01*
X50457482Y-174294091D01*
X50457484Y-174294091D01*
X50592331Y-174243796D01*
X50707547Y-174157547D01*
X50793796Y-174042331D01*
X50844091Y-173907484D01*
X50850500Y-173847874D01*
X50850500Y-172852126D01*
X50844091Y-172792516D01*
X50808914Y-172698203D01*
X50793797Y-172657671D01*
X50793796Y-172657669D01*
X50779574Y-172638671D01*
X50707547Y-172542453D01*
X50603364Y-172464463D01*
X50592330Y-172456203D01*
X50592328Y-172456202D01*
X50457488Y-172405910D01*
X50457481Y-172405908D01*
X50397884Y-172399501D01*
X50397882Y-172399500D01*
X50397874Y-172399500D01*
X50397866Y-172399500D01*
X47724809Y-172399500D01*
X47657770Y-172379815D01*
X47612015Y-172327011D01*
X47602071Y-172257853D01*
X47612480Y-172227768D01*
X47610809Y-172227076D01*
X47626762Y-172188560D01*
X47669388Y-172085651D01*
X47688308Y-171941942D01*
X47669388Y-171798233D01*
X47613919Y-171664317D01*
X47525679Y-171549321D01*
X47410683Y-171461081D01*
X47410682Y-171461080D01*
X47410680Y-171461079D01*
X47276770Y-171405613D01*
X47276768Y-171405612D01*
X47276767Y-171405612D01*
X47204912Y-171396152D01*
X47133059Y-171386692D01*
X47133057Y-171386692D01*
X46989349Y-171405612D01*
X46989345Y-171405613D01*
X46855435Y-171461079D01*
X46740437Y-171549321D01*
X46652195Y-171664319D01*
X46596729Y-171798229D01*
X46596728Y-171798233D01*
X46577808Y-171941941D01*
X46577808Y-171941942D01*
X46596728Y-172085650D01*
X46596729Y-172085654D01*
X46652195Y-172219564D01*
X46652196Y-172219566D01*
X46652197Y-172219567D01*
X46699229Y-172280860D01*
X46724423Y-172346028D01*
X46710385Y-172414473D01*
X46661571Y-172464463D01*
X46593480Y-172480127D01*
X46575157Y-172477654D01*
X46349846Y-172429927D01*
X46302305Y-172419857D01*
X46302304Y-172419856D01*
X46297579Y-172418856D01*
X46297672Y-172418413D01*
X46277646Y-172413428D01*
X46257484Y-172405909D01*
X46257483Y-172405908D01*
X46257481Y-172405908D01*
X46197884Y-172399501D01*
X46197882Y-172399500D01*
X46197874Y-172399500D01*
X46197866Y-172399500D01*
X43302108Y-172399500D01*
X43295733Y-172399172D01*
X43290480Y-172398629D01*
X43219943Y-172396253D01*
X42587980Y-172462773D01*
X42562019Y-172462773D01*
X41930059Y-172396252D01*
X41930056Y-172396252D01*
X41910817Y-172396900D01*
X41859505Y-172398630D01*
X41854280Y-172399171D01*
X41847900Y-172399500D01*
X40900147Y-172399500D01*
X40833108Y-172379815D01*
X40817110Y-172367592D01*
X40793194Y-172346028D01*
X39908637Y-171548449D01*
X39908636Y-171548448D01*
X39901969Y-171544358D01*
X39879136Y-171526347D01*
X38350504Y-169997715D01*
X38317019Y-169936392D01*
X38322002Y-169866704D01*
X38344091Y-169807484D01*
X38350500Y-169747874D01*
X38350500Y-168752126D01*
X38344091Y-168692516D01*
X38321770Y-168632670D01*
X38293797Y-168557671D01*
X38293796Y-168557669D01*
X38275206Y-168532836D01*
X38207547Y-168442453D01*
X38092331Y-168356204D01*
X38092330Y-168356203D01*
X38092328Y-168356202D01*
X37957488Y-168305910D01*
X37957481Y-168305908D01*
X37897884Y-168299501D01*
X37897882Y-168299500D01*
X37897874Y-168299500D01*
X37897866Y-168299500D01*
X36496205Y-168299500D01*
X36467507Y-168296133D01*
X36459461Y-168294219D01*
X36459457Y-168294218D01*
X35900664Y-168273413D01*
X35834404Y-168251248D01*
X35790645Y-168196778D01*
X35783282Y-168127298D01*
X35814651Y-168064866D01*
X35874794Y-168029304D01*
X35905272Y-168025499D01*
X36245484Y-168025499D01*
X36302114Y-168019412D01*
X36430226Y-167971628D01*
X36432871Y-167969647D01*
X36449988Y-167958890D01*
X36766929Y-167794137D01*
X36920174Y-167714477D01*
X36977366Y-167700500D01*
X41943814Y-167700500D01*
X42010853Y-167720185D01*
X42056608Y-167772989D01*
X42066552Y-167842147D01*
X42063703Y-167856035D01*
X42045095Y-167997377D01*
X42044750Y-168000000D01*
X42061509Y-168127298D01*
X42063670Y-168143708D01*
X42063671Y-168143712D01*
X42119137Y-168277622D01*
X42119138Y-168277624D01*
X42119139Y-168277625D01*
X42207379Y-168392621D01*
X42322375Y-168480861D01*
X42322376Y-168480861D01*
X42322377Y-168480862D01*
X42344267Y-168489929D01*
X42456291Y-168536330D01*
X42580039Y-168552622D01*
X42599999Y-168555250D01*
X42600000Y-168555250D01*
X42600001Y-168555250D01*
X42621789Y-168552381D01*
X42743709Y-168536330D01*
X42767536Y-168526460D01*
X42795542Y-168519305D01*
X42795480Y-168519006D01*
X42801436Y-168517762D01*
X42801443Y-168517762D01*
X43236948Y-168381181D01*
X43274054Y-168375500D01*
X44932080Y-168375500D01*
X44957525Y-168378139D01*
X44961324Y-168378935D01*
X44968152Y-168380367D01*
X44989109Y-168377754D01*
X45003376Y-168375977D01*
X45011052Y-168375500D01*
X45014996Y-168375500D01*
X45014998Y-168375500D01*
X45015000Y-168375499D01*
X45015006Y-168375499D01*
X45030371Y-168372934D01*
X45038024Y-168371657D01*
X45092510Y-168364866D01*
X45092511Y-168364865D01*
X45092513Y-168364865D01*
X45100025Y-168362628D01*
X45107490Y-168360066D01*
X45107490Y-168360065D01*
X45107494Y-168360065D01*
X45155761Y-168333944D01*
X45205095Y-168309826D01*
X45205098Y-168309823D01*
X45211478Y-168305268D01*
X45217703Y-168300422D01*
X45217710Y-168300419D01*
X45254892Y-168260028D01*
X46137820Y-167377100D01*
X46199142Y-167343616D01*
X46268834Y-167348600D01*
X46324767Y-167390472D01*
X46349184Y-167455936D01*
X46349500Y-167464782D01*
X46349500Y-169736370D01*
X46346862Y-169761808D01*
X46344633Y-169772442D01*
X46344633Y-169772443D01*
X46344633Y-169772445D01*
X46349023Y-169807665D01*
X46349500Y-169815341D01*
X46349500Y-169819290D01*
X46353342Y-169842315D01*
X46360134Y-169896801D01*
X46362371Y-169904315D01*
X46364936Y-169911787D01*
X46368684Y-169918712D01*
X46391050Y-169960040D01*
X46415174Y-170009385D01*
X46415175Y-170009386D01*
X46419741Y-170015782D01*
X46424582Y-170022001D01*
X46464971Y-170059183D01*
X47247173Y-170841384D01*
X47263301Y-170861243D01*
X47269240Y-170870334D01*
X47297256Y-170892139D01*
X47303017Y-170897228D01*
X47305806Y-170900017D01*
X47324807Y-170913583D01*
X47348803Y-170932260D01*
X47368135Y-170947307D01*
X47375028Y-170951037D01*
X47382120Y-170954504D01*
X47382125Y-170954508D01*
X47434727Y-170970168D01*
X47486662Y-170987998D01*
X47494396Y-170989288D01*
X47502234Y-170990265D01*
X47502236Y-170990266D01*
X47502237Y-170990265D01*
X47502238Y-170990266D01*
X47557080Y-170987998D01*
X48213447Y-170987998D01*
X48250552Y-170993679D01*
X48686057Y-171130260D01*
X48687884Y-171130499D01*
X48688737Y-171130612D01*
X48720055Y-171138996D01*
X48735419Y-171145359D01*
X48743793Y-171148828D01*
X48865712Y-171164879D01*
X48887501Y-171167748D01*
X48887502Y-171167748D01*
X48887503Y-171167748D01*
X48902479Y-171165776D01*
X49031211Y-171148828D01*
X49165127Y-171093359D01*
X49280123Y-171005119D01*
X49368363Y-170890123D01*
X49423832Y-170756207D01*
X49442752Y-170612498D01*
X49424650Y-170475000D01*
X51019752Y-170475000D01*
X51038672Y-170618708D01*
X51038673Y-170618712D01*
X51094139Y-170752622D01*
X51094140Y-170752624D01*
X51094141Y-170752625D01*
X51182381Y-170867621D01*
X51297377Y-170955861D01*
X51431293Y-171011330D01*
X51558282Y-171028048D01*
X51575001Y-171030250D01*
X51575002Y-171030250D01*
X51575003Y-171030250D01*
X51589979Y-171028278D01*
X51718711Y-171011330D01*
X51852627Y-170955861D01*
X51967623Y-170867621D01*
X52055863Y-170752625D01*
X52111332Y-170618709D01*
X52130252Y-170475000D01*
X52111332Y-170331291D01*
X52065311Y-170220185D01*
X52055864Y-170197377D01*
X52055863Y-170197376D01*
X52055863Y-170197375D01*
X51967623Y-170082379D01*
X51852627Y-169994139D01*
X51852626Y-169994138D01*
X51852624Y-169994137D01*
X51718714Y-169938671D01*
X51718712Y-169938670D01*
X51718711Y-169938670D01*
X51646856Y-169929210D01*
X51575003Y-169919750D01*
X51575001Y-169919750D01*
X51431293Y-169938670D01*
X51431289Y-169938671D01*
X51297379Y-169994137D01*
X51182381Y-170082379D01*
X51094139Y-170197377D01*
X51038673Y-170331287D01*
X51038672Y-170331291D01*
X51019752Y-170474999D01*
X51019752Y-170475000D01*
X49424650Y-170475000D01*
X49423832Y-170468789D01*
X49369918Y-170338626D01*
X49368364Y-170334875D01*
X49368363Y-170334874D01*
X49368363Y-170334873D01*
X49280123Y-170219877D01*
X49165127Y-170131637D01*
X49165126Y-170131636D01*
X49165124Y-170131635D01*
X49031214Y-170076169D01*
X49031212Y-170076168D01*
X49031211Y-170076168D01*
X48902200Y-170059183D01*
X48887503Y-170057248D01*
X48887501Y-170057248D01*
X48872804Y-170059183D01*
X48743793Y-170076168D01*
X48743791Y-170076168D01*
X48743786Y-170076170D01*
X48719956Y-170086040D01*
X48691964Y-170093191D01*
X48692027Y-170093489D01*
X48686064Y-170094733D01*
X48250551Y-170231316D01*
X48213445Y-170236998D01*
X47756223Y-170236998D01*
X47689184Y-170217313D01*
X47668542Y-170200679D01*
X47136819Y-169668955D01*
X47103334Y-169607632D01*
X47100500Y-169581274D01*
X47100500Y-167775000D01*
X47120185Y-167707961D01*
X47172989Y-167662206D01*
X47242147Y-167652262D01*
X47248293Y-167653523D01*
X47252116Y-167654026D01*
X47252118Y-167654027D01*
X47395827Y-167672947D01*
X47412001Y-167670817D01*
X47481033Y-167681581D01*
X47533291Y-167727959D01*
X47542748Y-167746304D01*
X47580959Y-167838556D01*
X47580960Y-167838558D01*
X47580961Y-167838559D01*
X47669201Y-167953555D01*
X47784197Y-168041795D01*
X47918113Y-168097264D01*
X48045102Y-168113982D01*
X48061821Y-168116184D01*
X48061822Y-168116184D01*
X48061823Y-168116184D01*
X48098414Y-168111366D01*
X48191432Y-168099120D01*
X48260466Y-168109885D01*
X48312722Y-168156265D01*
X48322178Y-168174606D01*
X48343498Y-168226079D01*
X48344139Y-168227625D01*
X48432379Y-168342621D01*
X48547375Y-168430861D01*
X48681291Y-168486330D01*
X48808280Y-168503048D01*
X48824999Y-168505250D01*
X48825000Y-168505250D01*
X48825001Y-168505250D01*
X48839977Y-168503278D01*
X48968709Y-168486330D01*
X49102625Y-168430861D01*
X49217621Y-168342621D01*
X49305861Y-168227625D01*
X49361330Y-168093709D01*
X49380250Y-167950000D01*
X49374095Y-167903250D01*
X49384860Y-167834216D01*
X49431240Y-167781960D01*
X49448908Y-167774041D01*
X49448660Y-167773509D01*
X49457258Y-167769499D01*
X49457260Y-167769499D01*
X49510097Y-167744860D01*
X49579171Y-167734369D01*
X49614901Y-167744859D01*
X49667740Y-167769499D01*
X49713321Y-167775500D01*
X49911678Y-167775499D01*
X49911680Y-167775499D01*
X49930746Y-167772989D01*
X49957260Y-167769499D01*
X50010097Y-167744860D01*
X50079171Y-167734369D01*
X50114901Y-167744859D01*
X50167740Y-167769499D01*
X50213321Y-167775500D01*
X50411678Y-167775499D01*
X50411680Y-167775499D01*
X50430746Y-167772989D01*
X50457260Y-167769499D01*
X50510097Y-167744860D01*
X50579171Y-167734369D01*
X50614901Y-167744859D01*
X50667740Y-167769499D01*
X50713321Y-167775500D01*
X50911678Y-167775499D01*
X50911680Y-167775499D01*
X50930746Y-167772989D01*
X50957260Y-167769499D01*
X51010097Y-167744860D01*
X51079171Y-167734369D01*
X51114901Y-167744859D01*
X51167740Y-167769499D01*
X51213321Y-167775500D01*
X51411678Y-167775499D01*
X51411680Y-167775499D01*
X51430746Y-167772989D01*
X51457260Y-167769499D01*
X51510097Y-167744860D01*
X51579171Y-167734369D01*
X51614901Y-167744859D01*
X51667740Y-167769499D01*
X51713321Y-167775500D01*
X51813000Y-167775499D01*
X51880038Y-167795183D01*
X51925794Y-167847986D01*
X51937000Y-167899499D01*
X51937000Y-168635696D01*
X51934362Y-168661134D01*
X51932133Y-168671768D01*
X51932133Y-168671769D01*
X51932133Y-168671771D01*
X51936523Y-168706991D01*
X51937000Y-168714667D01*
X51937000Y-168718616D01*
X51940842Y-168741641D01*
X51947634Y-168796127D01*
X51949873Y-168803647D01*
X51952434Y-168811108D01*
X51952435Y-168811110D01*
X51974644Y-168852149D01*
X51978555Y-168859377D01*
X52002674Y-168908711D01*
X52007242Y-168915109D01*
X52012078Y-168921321D01*
X52012081Y-168921326D01*
X52046385Y-168952905D01*
X52052471Y-168958508D01*
X52094249Y-169000286D01*
X52118418Y-169034434D01*
X52312602Y-169440142D01*
X52317116Y-169446352D01*
X52331373Y-169471805D01*
X52344137Y-169502622D01*
X52344138Y-169502624D01*
X52344139Y-169502625D01*
X52432379Y-169617621D01*
X52547375Y-169705861D01*
X52681291Y-169761330D01*
X52808280Y-169778048D01*
X52824999Y-169780250D01*
X52825000Y-169780250D01*
X52825001Y-169780250D01*
X52839977Y-169778278D01*
X52968709Y-169761330D01*
X53102625Y-169705861D01*
X53107008Y-169702497D01*
X53172176Y-169677301D01*
X53240621Y-169691338D01*
X53290612Y-169740150D01*
X53305436Y-169784685D01*
X53308664Y-169809202D01*
X53318156Y-169881304D01*
X53323081Y-169918708D01*
X53323082Y-169918712D01*
X53378548Y-170052622D01*
X53378549Y-170052624D01*
X53378550Y-170052625D01*
X53466790Y-170167621D01*
X53581786Y-170255861D01*
X53581787Y-170255861D01*
X53581788Y-170255862D01*
X53593473Y-170260702D01*
X53715702Y-170311330D01*
X53842691Y-170328048D01*
X53859410Y-170330250D01*
X53859411Y-170330250D01*
X53859412Y-170330250D01*
X53874388Y-170328278D01*
X54003120Y-170311330D01*
X54137036Y-170255861D01*
X54252032Y-170167621D01*
X54340272Y-170052625D01*
X54395741Y-169918709D01*
X54414661Y-169775000D01*
X54395741Y-169631291D01*
X54340272Y-169497375D01*
X54269664Y-169405358D01*
X54259795Y-169390359D01*
X54258984Y-169388907D01*
X54080136Y-169179115D01*
X54051624Y-169115328D01*
X54050500Y-169098670D01*
X54050500Y-168826804D01*
X54053139Y-168801359D01*
X54053785Y-168798275D01*
X54055367Y-168790732D01*
X54053241Y-168773673D01*
X54050977Y-168755506D01*
X54050500Y-168747830D01*
X54050500Y-168743889D01*
X54050498Y-168743876D01*
X54046657Y-168720859D01*
X54044928Y-168706991D01*
X54039866Y-168666374D01*
X54039864Y-168666370D01*
X54037622Y-168658840D01*
X54035065Y-168651392D01*
X54035065Y-168651390D01*
X54008944Y-168603122D01*
X53984826Y-168553789D01*
X53984824Y-168553787D01*
X53984824Y-168553786D01*
X53980276Y-168547416D01*
X53975420Y-168541176D01*
X53975419Y-168541174D01*
X53956488Y-168523747D01*
X53941883Y-168510302D01*
X53935029Y-168503992D01*
X53587302Y-168156265D01*
X53224319Y-167793281D01*
X53190834Y-167731958D01*
X53188000Y-167705600D01*
X53188000Y-167052222D01*
X53187999Y-167052204D01*
X53187999Y-166675819D01*
X53183822Y-166644088D01*
X53181999Y-166630240D01*
X53135350Y-166530201D01*
X53057299Y-166452150D01*
X52957260Y-166405501D01*
X52957258Y-166405500D01*
X52911688Y-166399501D01*
X52911685Y-166399500D01*
X52911679Y-166399500D01*
X52911672Y-166399500D01*
X52713319Y-166399500D01*
X52667743Y-166405500D01*
X52667738Y-166405501D01*
X52614903Y-166430139D01*
X52545825Y-166440630D01*
X52510095Y-166430138D01*
X52457259Y-166405500D01*
X52411688Y-166399501D01*
X52411685Y-166399500D01*
X52411679Y-166399500D01*
X52411672Y-166399500D01*
X52213319Y-166399500D01*
X52167743Y-166405500D01*
X52167738Y-166405501D01*
X52114903Y-166430139D01*
X52045825Y-166440630D01*
X52010095Y-166430138D01*
X51957259Y-166405500D01*
X51911688Y-166399501D01*
X51911685Y-166399500D01*
X51911679Y-166399500D01*
X51911672Y-166399500D01*
X51713319Y-166399500D01*
X51667743Y-166405500D01*
X51667738Y-166405501D01*
X51614903Y-166430139D01*
X51545825Y-166440630D01*
X51510095Y-166430138D01*
X51457259Y-166405500D01*
X51411688Y-166399501D01*
X51411685Y-166399500D01*
X51411679Y-166399500D01*
X51411672Y-166399500D01*
X51213319Y-166399500D01*
X51167743Y-166405500D01*
X51167738Y-166405501D01*
X51114903Y-166430139D01*
X51045825Y-166440630D01*
X51010095Y-166430138D01*
X50957259Y-166405500D01*
X50911688Y-166399501D01*
X50911685Y-166399500D01*
X50911679Y-166399500D01*
X50911672Y-166399500D01*
X50713319Y-166399500D01*
X50667743Y-166405500D01*
X50667738Y-166405501D01*
X50614903Y-166430139D01*
X50545825Y-166440630D01*
X50510095Y-166430138D01*
X50457259Y-166405500D01*
X50411688Y-166399501D01*
X50411685Y-166399500D01*
X50411679Y-166399500D01*
X50411672Y-166399500D01*
X50213319Y-166399500D01*
X50167743Y-166405500D01*
X50167738Y-166405501D01*
X50114903Y-166430139D01*
X50045825Y-166440630D01*
X50010095Y-166430138D01*
X49957259Y-166405500D01*
X49911688Y-166399501D01*
X49911685Y-166399500D01*
X49911679Y-166399500D01*
X49911672Y-166399500D01*
X49713319Y-166399500D01*
X49667743Y-166405500D01*
X49667738Y-166405501D01*
X49614903Y-166430139D01*
X49545825Y-166440630D01*
X49510095Y-166430138D01*
X49457259Y-166405500D01*
X49411688Y-166399501D01*
X49411685Y-166399500D01*
X49411679Y-166399500D01*
X49411672Y-166399500D01*
X49213319Y-166399500D01*
X49167743Y-166405500D01*
X49167738Y-166405501D01*
X49114903Y-166430139D01*
X49045825Y-166440630D01*
X49010095Y-166430138D01*
X48957259Y-166405500D01*
X48918813Y-166400439D01*
X48854916Y-166372173D01*
X48816445Y-166313848D01*
X48812060Y-166293695D01*
X48806999Y-166255240D01*
X48782360Y-166202403D01*
X48771869Y-166133327D01*
X48782358Y-166097601D01*
X48806999Y-166044760D01*
X48813000Y-165999179D01*
X48812999Y-165800822D01*
X48811091Y-165786330D01*
X48806999Y-165755243D01*
X48806999Y-165755240D01*
X48782360Y-165702403D01*
X48771869Y-165633327D01*
X48782358Y-165597601D01*
X48806999Y-165544760D01*
X48813000Y-165499179D01*
X48812999Y-165300822D01*
X48811219Y-165287303D01*
X48809999Y-165278031D01*
X48806999Y-165255240D01*
X48782360Y-165202403D01*
X48771869Y-165133327D01*
X48782358Y-165097601D01*
X48806999Y-165044760D01*
X48813000Y-164999179D01*
X48812999Y-164800822D01*
X48806999Y-164755240D01*
X48782360Y-164702403D01*
X48771869Y-164633327D01*
X48782358Y-164597601D01*
X48806999Y-164544760D01*
X48813000Y-164499179D01*
X48812999Y-164300822D01*
X48812271Y-164295293D01*
X48808773Y-164268715D01*
X48806999Y-164255240D01*
X48782360Y-164202403D01*
X48771869Y-164133327D01*
X48782358Y-164097601D01*
X48806999Y-164044760D01*
X48813000Y-163999179D01*
X48812999Y-163800822D01*
X48806999Y-163755240D01*
X48782360Y-163702403D01*
X48771869Y-163633327D01*
X48782358Y-163597601D01*
X48806999Y-163544760D01*
X48813000Y-163499179D01*
X48812999Y-163300822D01*
X48806999Y-163255240D01*
X48782360Y-163202403D01*
X48771869Y-163133327D01*
X48782358Y-163097601D01*
X48806999Y-163044760D01*
X48813000Y-162999179D01*
X48812999Y-162800822D01*
X48812777Y-162799139D01*
X48809236Y-162772232D01*
X48806999Y-162755240D01*
X48782360Y-162702403D01*
X48771869Y-162633327D01*
X48782358Y-162597601D01*
X48806999Y-162544760D01*
X48813000Y-162499179D01*
X48812999Y-162300822D01*
X48806999Y-162255240D01*
X48782360Y-162202403D01*
X48771869Y-162133327D01*
X48782358Y-162097601D01*
X48806999Y-162044760D01*
X48813000Y-161999179D01*
X48812999Y-161800822D01*
X48811961Y-161792940D01*
X48806999Y-161755243D01*
X48806999Y-161755240D01*
X48782360Y-161702403D01*
X48771869Y-161633327D01*
X48782358Y-161597601D01*
X48806999Y-161544760D01*
X48813000Y-161499179D01*
X48812999Y-161300822D01*
X48806999Y-161255240D01*
X48782360Y-161202403D01*
X48771869Y-161133327D01*
X48782358Y-161097601D01*
X48806999Y-161044760D01*
X48812060Y-161006313D01*
X48840325Y-160942418D01*
X48898648Y-160903946D01*
X48918804Y-160899560D01*
X48957260Y-160894499D01*
X49010097Y-160869860D01*
X49079171Y-160859369D01*
X49114901Y-160869859D01*
X49167740Y-160894499D01*
X49213321Y-160900500D01*
X49411678Y-160900499D01*
X49411680Y-160900499D01*
X49426872Y-160898499D01*
X49457260Y-160894499D01*
X49510097Y-160869860D01*
X49579171Y-160859369D01*
X49614901Y-160869859D01*
X49667740Y-160894499D01*
X49713321Y-160900500D01*
X49911678Y-160900499D01*
X49911680Y-160900499D01*
X49926872Y-160898499D01*
X49957260Y-160894499D01*
X50010097Y-160869860D01*
X50079171Y-160859369D01*
X50114901Y-160869859D01*
X50167740Y-160894499D01*
X50213321Y-160900500D01*
X50411678Y-160900499D01*
X50411680Y-160900499D01*
X50426872Y-160898499D01*
X50457260Y-160894499D01*
X50510097Y-160869860D01*
X50579171Y-160859369D01*
X50614901Y-160869859D01*
X50667740Y-160894499D01*
X50713321Y-160900500D01*
X50911678Y-160900499D01*
X50911680Y-160900499D01*
X50926872Y-160898499D01*
X50957260Y-160894499D01*
X51010097Y-160869860D01*
X51079171Y-160859369D01*
X51114901Y-160869859D01*
X51167740Y-160894499D01*
X51213321Y-160900500D01*
X51411678Y-160900499D01*
X51411680Y-160900499D01*
X51426872Y-160898499D01*
X51457260Y-160894499D01*
X51510097Y-160869860D01*
X51579171Y-160859369D01*
X51614901Y-160869859D01*
X51667740Y-160894499D01*
X51713321Y-160900500D01*
X51911678Y-160900499D01*
X51911680Y-160900499D01*
X51926872Y-160898499D01*
X51957260Y-160894499D01*
X52010097Y-160869860D01*
X52079171Y-160859369D01*
X52114901Y-160869859D01*
X52167740Y-160894499D01*
X52213321Y-160900500D01*
X52411678Y-160900499D01*
X52411680Y-160900499D01*
X52426872Y-160898499D01*
X52457260Y-160894499D01*
X52510097Y-160869860D01*
X52579171Y-160859369D01*
X52614901Y-160869859D01*
X52667740Y-160894499D01*
X52713321Y-160900500D01*
X52911678Y-160900499D01*
X52911680Y-160900499D01*
X52926872Y-160898499D01*
X52957260Y-160894499D01*
X53010097Y-160869860D01*
X53079171Y-160859369D01*
X53114901Y-160869859D01*
X53167740Y-160894499D01*
X53213321Y-160900500D01*
X53411678Y-160900499D01*
X53411680Y-160900499D01*
X53426872Y-160898499D01*
X53457260Y-160894499D01*
X53510097Y-160869860D01*
X53579171Y-160859369D01*
X53614901Y-160869859D01*
X53667740Y-160894499D01*
X53713321Y-160900500D01*
X53911678Y-160900499D01*
X53911680Y-160900499D01*
X53926872Y-160898499D01*
X53957260Y-160894499D01*
X54010097Y-160869860D01*
X54079171Y-160859369D01*
X54114901Y-160869859D01*
X54167740Y-160894499D01*
X54206185Y-160899560D01*
X54270081Y-160927825D01*
X54308553Y-160986149D01*
X54312940Y-161006315D01*
X54318000Y-161044756D01*
X54318003Y-161044766D01*
X54342638Y-161097596D01*
X54353130Y-161166673D01*
X54342639Y-161202403D01*
X54322382Y-161245846D01*
X54318000Y-161255243D01*
X54312001Y-161300811D01*
X54312000Y-161300827D01*
X54312000Y-161499180D01*
X54318000Y-161544756D01*
X54318003Y-161544766D01*
X54342638Y-161597596D01*
X54353130Y-161666673D01*
X54342639Y-161702403D01*
X54321431Y-161747886D01*
X54318000Y-161755243D01*
X54312001Y-161800811D01*
X54312000Y-161800827D01*
X54312000Y-161999180D01*
X54318000Y-162044756D01*
X54318003Y-162044766D01*
X54342638Y-162097596D01*
X54353130Y-162166673D01*
X54342639Y-162202404D01*
X54318000Y-162255243D01*
X54312001Y-162300811D01*
X54312000Y-162300827D01*
X54312000Y-162499180D01*
X54318000Y-162544756D01*
X54318003Y-162544766D01*
X54342638Y-162597596D01*
X54353130Y-162666673D01*
X54342639Y-162702403D01*
X54318200Y-162754815D01*
X54318000Y-162755243D01*
X54312001Y-162800811D01*
X54312000Y-162800827D01*
X54312000Y-162999180D01*
X54318000Y-163044756D01*
X54318003Y-163044766D01*
X54342638Y-163097596D01*
X54353130Y-163166673D01*
X54342639Y-163202403D01*
X54322780Y-163244993D01*
X54318000Y-163255243D01*
X54312001Y-163300811D01*
X54312000Y-163300827D01*
X54312000Y-163499180D01*
X54318000Y-163544756D01*
X54318003Y-163544766D01*
X54342638Y-163597596D01*
X54353130Y-163666673D01*
X54342639Y-163702403D01*
X54320144Y-163750646D01*
X54318000Y-163755243D01*
X54312001Y-163800811D01*
X54312000Y-163800827D01*
X54312000Y-163999180D01*
X54318000Y-164044756D01*
X54318003Y-164044766D01*
X54342638Y-164097596D01*
X54353130Y-164166673D01*
X54342639Y-164202403D01*
X54321774Y-164247150D01*
X54318000Y-164255243D01*
X54312001Y-164300811D01*
X54312000Y-164300827D01*
X54312000Y-164499180D01*
X54318000Y-164544756D01*
X54318003Y-164544766D01*
X54342638Y-164597596D01*
X54353130Y-164666673D01*
X54342639Y-164702404D01*
X54318000Y-164755243D01*
X54312001Y-164800811D01*
X54312000Y-164800827D01*
X54312000Y-164999180D01*
X54318000Y-165044756D01*
X54318003Y-165044766D01*
X54342638Y-165097596D01*
X54353130Y-165166673D01*
X54342639Y-165202403D01*
X54320075Y-165250794D01*
X54318000Y-165255243D01*
X54312001Y-165300811D01*
X54312000Y-165300827D01*
X54312000Y-165499180D01*
X54318000Y-165544756D01*
X54318003Y-165544766D01*
X54342638Y-165597596D01*
X54353130Y-165666673D01*
X54342639Y-165702403D01*
X54320434Y-165750024D01*
X54318000Y-165755243D01*
X54312001Y-165800811D01*
X54312000Y-165800827D01*
X54312000Y-165999180D01*
X54318000Y-166044756D01*
X54318003Y-166044766D01*
X54342638Y-166097596D01*
X54353130Y-166166673D01*
X54342639Y-166202403D01*
X54341421Y-166205015D01*
X54318000Y-166255242D01*
X54312939Y-166293687D01*
X54284672Y-166357583D01*
X54226348Y-166396054D01*
X54206184Y-166400440D01*
X54167743Y-166405500D01*
X54167738Y-166405501D01*
X54114903Y-166430139D01*
X54045825Y-166440630D01*
X54010095Y-166430138D01*
X53957259Y-166405500D01*
X53911688Y-166399501D01*
X53911685Y-166399500D01*
X53911679Y-166399500D01*
X53911672Y-166399500D01*
X53713319Y-166399500D01*
X53667743Y-166405500D01*
X53667736Y-166405502D01*
X53567700Y-166452150D01*
X53489650Y-166530200D01*
X53443000Y-166630241D01*
X53437001Y-166675811D01*
X53437000Y-166675827D01*
X53437000Y-167499180D01*
X53443000Y-167544756D01*
X53443002Y-167544763D01*
X53466282Y-167594687D01*
X53489650Y-167644799D01*
X53567701Y-167722850D01*
X53667740Y-167769499D01*
X53713321Y-167775500D01*
X53911678Y-167775499D01*
X53911680Y-167775499D01*
X53957344Y-167769488D01*
X54026379Y-167780254D01*
X54061208Y-167804746D01*
X54760349Y-168503886D01*
X54776477Y-168523745D01*
X54782416Y-168532836D01*
X54810432Y-168554641D01*
X54816193Y-168559730D01*
X54818982Y-168562519D01*
X54837983Y-168576085D01*
X54872720Y-168603122D01*
X54881311Y-168609809D01*
X54888204Y-168613539D01*
X54895296Y-168617006D01*
X54895301Y-168617010D01*
X54916587Y-168623347D01*
X54947903Y-168632670D01*
X54999838Y-168650500D01*
X55007572Y-168651790D01*
X55015410Y-168652767D01*
X55015412Y-168652768D01*
X55015413Y-168652767D01*
X55015414Y-168652768D01*
X55070256Y-168650500D01*
X55575945Y-168650500D01*
X55613050Y-168656181D01*
X56048555Y-168792762D01*
X56050382Y-168793001D01*
X56051235Y-168793114D01*
X56082553Y-168801498D01*
X56087742Y-168803647D01*
X56106291Y-168811330D01*
X56223826Y-168826804D01*
X56249999Y-168830250D01*
X56250000Y-168830250D01*
X56250001Y-168830250D01*
X56276174Y-168826804D01*
X56393709Y-168811330D01*
X56527625Y-168755861D01*
X56642621Y-168667621D01*
X56730861Y-168552625D01*
X56786330Y-168418709D01*
X56805250Y-168275000D01*
X56804889Y-168272261D01*
X56800536Y-168239192D01*
X56786330Y-168131291D01*
X56730861Y-167997375D01*
X56642621Y-167882379D01*
X56527625Y-167794139D01*
X56527624Y-167794138D01*
X56527622Y-167794137D01*
X56393712Y-167738671D01*
X56393710Y-167738670D01*
X56393709Y-167738670D01*
X56377240Y-167736501D01*
X56313344Y-167708235D01*
X56274874Y-167649910D01*
X56270490Y-167629758D01*
X56254235Y-167506291D01*
X56254233Y-167506287D01*
X56253834Y-167503252D01*
X56264599Y-167434216D01*
X56310979Y-167381960D01*
X56378248Y-167363075D01*
X56445049Y-167383556D01*
X56452260Y-167388690D01*
X56457377Y-167392616D01*
X56457379Y-167392619D01*
X56572375Y-167480859D01*
X56572376Y-167480859D01*
X56572377Y-167480860D01*
X56593270Y-167489514D01*
X56706291Y-167536328D01*
X56833280Y-167553046D01*
X56849999Y-167555248D01*
X56850000Y-167555248D01*
X56850001Y-167555248D01*
X56864977Y-167553276D01*
X56993709Y-167536328D01*
X57127625Y-167480859D01*
X57242621Y-167392619D01*
X57242622Y-167392616D01*
X57249068Y-167387671D01*
X57250671Y-167389760D01*
X57300539Y-167362517D01*
X57370232Y-167367487D01*
X57414604Y-167395997D01*
X57461652Y-167443045D01*
X57461654Y-167443046D01*
X57461658Y-167443050D01*
X57571815Y-167499178D01*
X57574698Y-167500647D01*
X57668475Y-167515499D01*
X57668481Y-167515500D01*
X58195349Y-167515499D01*
X58241788Y-167524523D01*
X58870058Y-167778290D01*
X58911299Y-167805584D01*
X59113181Y-168007466D01*
X59146666Y-168068789D01*
X59149500Y-168095147D01*
X59149500Y-168830500D01*
X59129815Y-168897539D01*
X59077011Y-168943294D01*
X59025500Y-168954500D01*
X57668482Y-168954500D01*
X57587519Y-168967323D01*
X57574696Y-168969354D01*
X57461658Y-169026950D01*
X57461657Y-169026951D01*
X57461652Y-169026954D01*
X57371954Y-169116652D01*
X57371951Y-169116657D01*
X57314352Y-169229698D01*
X57299500Y-169323475D01*
X57299500Y-169686517D01*
X57305516Y-169724500D01*
X57314354Y-169780304D01*
X57371950Y-169893342D01*
X57371952Y-169893344D01*
X57371954Y-169893347D01*
X57461652Y-169983045D01*
X57461654Y-169983046D01*
X57461658Y-169983050D01*
X57574694Y-170040645D01*
X57574698Y-170040647D01*
X57668475Y-170055499D01*
X57668481Y-170055500D01*
X58490851Y-170055499D01*
X58557890Y-170075183D01*
X58603645Y-170127987D01*
X58613589Y-170197146D01*
X58584564Y-170260702D01*
X58578534Y-170267178D01*
X58557534Y-170288179D01*
X58496212Y-170321666D01*
X58469851Y-170324500D01*
X58032184Y-170324500D01*
X58006737Y-170321861D01*
X58004093Y-170321306D01*
X57996109Y-170319632D01*
X57960889Y-170324023D01*
X57953212Y-170324500D01*
X57949266Y-170324500D01*
X57931986Y-170327383D01*
X57926226Y-170328344D01*
X57871748Y-170335135D01*
X57864224Y-170337375D01*
X57856772Y-170339934D01*
X57808499Y-170366057D01*
X57759170Y-170390172D01*
X57752778Y-170394735D01*
X57746554Y-170399580D01*
X57709383Y-170439958D01*
X57531108Y-170618232D01*
X57511254Y-170634356D01*
X57502165Y-170640294D01*
X57502164Y-170640295D01*
X57480363Y-170668303D01*
X57475286Y-170674054D01*
X57472484Y-170676857D01*
X57472474Y-170676868D01*
X57458905Y-170695875D01*
X57431050Y-170731663D01*
X57374339Y-170772476D01*
X57333197Y-170779500D01*
X57085326Y-170779500D01*
X57034190Y-170789671D01*
X56985810Y-170789671D01*
X56934674Y-170779500D01*
X56585326Y-170779500D01*
X56509190Y-170794644D01*
X56460810Y-170794644D01*
X56384674Y-170779500D01*
X55735326Y-170779500D01*
X55735323Y-170779500D01*
X55662264Y-170794032D01*
X55662260Y-170794033D01*
X55579399Y-170849399D01*
X55524033Y-170932260D01*
X55524032Y-170932264D01*
X55509500Y-171005321D01*
X55509500Y-172504673D01*
X55511365Y-172514050D01*
X55505136Y-172583641D01*
X55462273Y-172638818D01*
X55437200Y-172652801D01*
X55329770Y-172697300D01*
X55329767Y-172697301D01*
X55329767Y-172697302D01*
X55278905Y-172736330D01*
X55209549Y-172789549D01*
X55117300Y-172909770D01*
X55059313Y-173049763D01*
X55059312Y-173049765D01*
X55039534Y-173199999D01*
X55039534Y-173200000D01*
X55059312Y-173350234D01*
X55059313Y-173350236D01*
X55101990Y-173453268D01*
X55117302Y-173490233D01*
X55209549Y-173610451D01*
X55329767Y-173702698D01*
X55469764Y-173760687D01*
X55582280Y-173775500D01*
X55582287Y-173775500D01*
X55657713Y-173775500D01*
X55657720Y-173775500D01*
X55770236Y-173760687D01*
X55910233Y-173702698D01*
X56030451Y-173610451D01*
X56122698Y-173490233D01*
X56138009Y-173453268D01*
X56181849Y-173398866D01*
X56248142Y-173376800D01*
X56315842Y-173394078D01*
X56340248Y-173413037D01*
X56380479Y-173453268D01*
X56555404Y-173628193D01*
X56560040Y-173633380D01*
X56584435Y-173663970D01*
X56584435Y-173663971D01*
X56633585Y-173697480D01*
X56681432Y-173732793D01*
X56688968Y-173736776D01*
X56696633Y-173740467D01*
X56696641Y-173740472D01*
X56753491Y-173758007D01*
X56809611Y-173777645D01*
X56809613Y-173777645D01*
X56809615Y-173777646D01*
X56809616Y-173777646D01*
X56817993Y-173779230D01*
X56826410Y-173780499D01*
X56826412Y-173780500D01*
X56885888Y-173780500D01*
X56945323Y-173782724D01*
X56945323Y-173782723D01*
X56945324Y-173782724D01*
X56945324Y-173782723D01*
X56954558Y-173781684D01*
X56954651Y-173782513D01*
X56969950Y-173780500D01*
X57825500Y-173780500D01*
X57892539Y-173800185D01*
X57938294Y-173852989D01*
X57949500Y-173904500D01*
X57949500Y-177040214D01*
X57947518Y-177062298D01*
X57944743Y-177077627D01*
X57944743Y-177077629D01*
X57949500Y-177352605D01*
X57949500Y-177500642D01*
X57949110Y-177507580D01*
X57947621Y-177520794D01*
X57944729Y-177546460D01*
X57951709Y-177583347D01*
X57953852Y-177604256D01*
X57954338Y-177632391D01*
X57954356Y-177632545D01*
X57954740Y-177639352D01*
X57973670Y-177783133D01*
X57973671Y-177783137D01*
X58029137Y-177917047D01*
X58029138Y-177917049D01*
X58029139Y-177917050D01*
X58117379Y-178032046D01*
X58232375Y-178120286D01*
X58366291Y-178175755D01*
X58493280Y-178192473D01*
X58509999Y-178194675D01*
X58510000Y-178194675D01*
X58510001Y-178194675D01*
X58524977Y-178192703D01*
X58653709Y-178175755D01*
X58787625Y-178120286D01*
X58902621Y-178032046D01*
X58990861Y-177917050D01*
X59046330Y-177783134D01*
X59065250Y-177639425D01*
X59060724Y-177605056D01*
X59059725Y-177584989D01*
X59059761Y-177583843D01*
X59051055Y-177531612D01*
X59046330Y-177495716D01*
X59046327Y-177495709D01*
X59043783Y-177486215D01*
X59042515Y-177480370D01*
X59014129Y-177310053D01*
X59014129Y-177269290D01*
X59042510Y-177099006D01*
X59043780Y-177093148D01*
X59046327Y-177083635D01*
X59046330Y-177083631D01*
X59051057Y-177047722D01*
X59060611Y-176990401D01*
X59061897Y-176980139D01*
X59062491Y-176973102D01*
X59063175Y-176957472D01*
X59063647Y-176952100D01*
X59065250Y-176939923D01*
X59065250Y-176939922D01*
X59046330Y-176796213D01*
X58990861Y-176662297D01*
X58902621Y-176547301D01*
X58902619Y-176547299D01*
X58902618Y-176547298D01*
X58899009Y-176544529D01*
X58857809Y-176488099D01*
X58850500Y-176446157D01*
X58850500Y-173904500D01*
X58870185Y-173837461D01*
X58922989Y-173791706D01*
X58974500Y-173780500D01*
X60096903Y-173780500D01*
X60103841Y-173780889D01*
X60135736Y-173784483D01*
X60142720Y-173785270D01*
X60142720Y-173785269D01*
X60142721Y-173785270D01*
X60201165Y-173774211D01*
X60259973Y-173765348D01*
X60259976Y-173765346D01*
X60268133Y-173762830D01*
X60276155Y-173760023D01*
X60276158Y-173760023D01*
X60328758Y-173732222D01*
X60382328Y-173706425D01*
X60382328Y-173706424D01*
X60382330Y-173706424D01*
X60389381Y-173701616D01*
X60396224Y-173696566D01*
X60438285Y-173654504D01*
X60481880Y-173614055D01*
X60481882Y-173614050D01*
X60487673Y-173606790D01*
X60488329Y-173607313D01*
X60497718Y-173595070D01*
X60679750Y-173413038D01*
X60741071Y-173379555D01*
X60810763Y-173384539D01*
X60866696Y-173426411D01*
X60881990Y-173453268D01*
X60881991Y-173453270D01*
X60897302Y-173490233D01*
X60989549Y-173610451D01*
X61109767Y-173702698D01*
X61249764Y-173760687D01*
X61362280Y-173775500D01*
X61362287Y-173775500D01*
X61437713Y-173775500D01*
X61437720Y-173775500D01*
X61550236Y-173760687D01*
X61633630Y-173726144D01*
X65074500Y-173726144D01*
X65080509Y-173782024D01*
X65127662Y-173908447D01*
X65127663Y-173908448D01*
X65127664Y-173908450D01*
X65208528Y-174016472D01*
X65316549Y-174097335D01*
X65316552Y-174097337D01*
X65442975Y-174144490D01*
X65442978Y-174144491D01*
X65472318Y-174147645D01*
X65498855Y-174150499D01*
X65498870Y-174150500D01*
X66026130Y-174150500D01*
X66026144Y-174150499D01*
X66048023Y-174148146D01*
X66082022Y-174144491D01*
X66208450Y-174097336D01*
X66316472Y-174016472D01*
X66397336Y-173908450D01*
X66419933Y-173847865D01*
X66433818Y-173810638D01*
X66475689Y-173754704D01*
X66541153Y-173730287D01*
X66609426Y-173745139D01*
X66658832Y-173794544D01*
X66666182Y-173810639D01*
X66686363Y-173864747D01*
X66687847Y-173869244D01*
X66694032Y-173890707D01*
X66694038Y-173890721D01*
X66699566Y-173901421D01*
X66702571Y-173908204D01*
X66702662Y-173908448D01*
X66706909Y-173916224D01*
X66706837Y-173916262D01*
X66709116Y-173919901D01*
X66759018Y-174016472D01*
X66828274Y-174150499D01*
X66859951Y-174211800D01*
X66873239Y-174280395D01*
X66863926Y-174317190D01*
X66839399Y-174374951D01*
X66758279Y-174565991D01*
X66756372Y-174572375D01*
X66742033Y-174620378D01*
X66740531Y-174626665D01*
X66738750Y-174632732D01*
X66727353Y-174665305D01*
X66724500Y-174695730D01*
X66724500Y-175354269D01*
X66727353Y-175384699D01*
X66727353Y-175384701D01*
X66772206Y-175512880D01*
X66772207Y-175512882D01*
X66852850Y-175622150D01*
X66962118Y-175702793D01*
X67004845Y-175717744D01*
X67090299Y-175747646D01*
X67120730Y-175750500D01*
X67120734Y-175750500D01*
X67629270Y-175750500D01*
X67659699Y-175747646D01*
X67659701Y-175747646D01*
X67723790Y-175725219D01*
X67787882Y-175702793D01*
X67897150Y-175622150D01*
X67977793Y-175512882D01*
X68008589Y-175424872D01*
X68022646Y-175384701D01*
X68022646Y-175384699D01*
X68025500Y-175354269D01*
X68025500Y-174695730D01*
X68022646Y-174665303D01*
X68022646Y-174665301D01*
X67977793Y-174537118D01*
X67977792Y-174537116D01*
X67972962Y-174530571D01*
X67968931Y-174524367D01*
X67836984Y-174292027D01*
X67820995Y-174224011D01*
X67834646Y-174173871D01*
X67965875Y-173919911D01*
X67968150Y-173916283D01*
X67968080Y-173916245D01*
X67972330Y-173908458D01*
X67972329Y-173908458D01*
X67972336Y-173908450D01*
X67972429Y-173908198D01*
X67975438Y-173901403D01*
X67980962Y-173890717D01*
X68005056Y-173820739D01*
X68005056Y-173820735D01*
X68005127Y-173820530D01*
X68019491Y-173782022D01*
X68022428Y-173754704D01*
X68025499Y-173726146D01*
X68025500Y-173726129D01*
X68025500Y-173123870D01*
X68025499Y-173123855D01*
X68022428Y-173095295D01*
X68019491Y-173067978D01*
X68012697Y-173049763D01*
X67972337Y-172941552D01*
X67972335Y-172941549D01*
X67891472Y-172833528D01*
X67783450Y-172752664D01*
X67783447Y-172752662D01*
X67657024Y-172705509D01*
X67601144Y-172699500D01*
X67601130Y-172699500D01*
X67073870Y-172699500D01*
X67073855Y-172699500D01*
X67017975Y-172705509D01*
X66891552Y-172752662D01*
X66891549Y-172752664D01*
X66783528Y-172833528D01*
X66702664Y-172941549D01*
X66702662Y-172941552D01*
X66666182Y-173039361D01*
X66624311Y-173095295D01*
X66558846Y-173119712D01*
X66490573Y-173104860D01*
X66441168Y-173055455D01*
X66433818Y-173039361D01*
X66397337Y-172941552D01*
X66397335Y-172941549D01*
X66316472Y-172833528D01*
X66208450Y-172752664D01*
X66208449Y-172752663D01*
X66094499Y-172710162D01*
X66071998Y-172697702D01*
X66071709Y-172698203D01*
X66064668Y-172694138D01*
X65930756Y-172638671D01*
X65930754Y-172638670D01*
X65930753Y-172638670D01*
X65843548Y-172627189D01*
X65787045Y-172619750D01*
X65787043Y-172619750D01*
X65643335Y-172638670D01*
X65643331Y-172638671D01*
X65512110Y-172693024D01*
X65477916Y-172701752D01*
X65442975Y-172705509D01*
X65316552Y-172752662D01*
X65316549Y-172752664D01*
X65208528Y-172833528D01*
X65127664Y-172941549D01*
X65127662Y-172941552D01*
X65080509Y-173067975D01*
X65074500Y-173123855D01*
X65074500Y-173726144D01*
X61633630Y-173726144D01*
X61690233Y-173702698D01*
X61810451Y-173610451D01*
X61902698Y-173490233D01*
X61960687Y-173350236D01*
X61980466Y-173200000D01*
X61960687Y-173049764D01*
X61902698Y-172909767D01*
X61810451Y-172789549D01*
X61690233Y-172697302D01*
X61690229Y-172697300D01*
X61582799Y-172652801D01*
X61528396Y-172608960D01*
X61506331Y-172542666D01*
X61508635Y-172514046D01*
X61510500Y-172504674D01*
X61510500Y-171005326D01*
X61510500Y-171005323D01*
X61510499Y-171005321D01*
X61495967Y-170932264D01*
X61495966Y-170932260D01*
X61440601Y-170849399D01*
X61357740Y-170794034D01*
X61357739Y-170794033D01*
X61357735Y-170794032D01*
X61284677Y-170779500D01*
X61284674Y-170779500D01*
X60635326Y-170779500D01*
X60559190Y-170794644D01*
X60510810Y-170794644D01*
X60434674Y-170779500D01*
X60231278Y-170779500D01*
X60164239Y-170759815D01*
X60118484Y-170707011D01*
X60108540Y-170637853D01*
X60137565Y-170574297D01*
X60143579Y-170567837D01*
X60203894Y-170507521D01*
X60223749Y-170491400D01*
X60232836Y-170485464D01*
X60254651Y-170457434D01*
X60259719Y-170451696D01*
X60262520Y-170448897D01*
X60276088Y-170429893D01*
X60309809Y-170386569D01*
X60309810Y-170386563D01*
X60313542Y-170379669D01*
X60317003Y-170372587D01*
X60317010Y-170372579D01*
X60332670Y-170319976D01*
X60350500Y-170268040D01*
X60350500Y-170268035D01*
X60351790Y-170260304D01*
X60352768Y-170252465D01*
X60350500Y-170197624D01*
X60350500Y-166521803D01*
X60353139Y-166496358D01*
X60353549Y-166494401D01*
X60355367Y-166485732D01*
X60352289Y-166461038D01*
X60350977Y-166450507D01*
X60350500Y-166442831D01*
X60350500Y-166438890D01*
X60350499Y-166438881D01*
X60346657Y-166415856D01*
X60339866Y-166361376D01*
X60337617Y-166353823D01*
X60335066Y-166346392D01*
X60329046Y-166335269D01*
X60308941Y-166298118D01*
X60284826Y-166248789D01*
X60284823Y-166248786D01*
X60284823Y-166248785D01*
X60280280Y-166242421D01*
X60275420Y-166236176D01*
X60275419Y-166236174D01*
X60275047Y-166235832D01*
X60235030Y-166198993D01*
X59963329Y-165927292D01*
X59678492Y-165642454D01*
X59673308Y-165636567D01*
X59658724Y-165617723D01*
X59658722Y-165617720D01*
X59622259Y-165586009D01*
X59619118Y-165583080D01*
X59502149Y-165466111D01*
X59486022Y-165446252D01*
X59480086Y-165437167D01*
X59480083Y-165437163D01*
X59452074Y-165415363D01*
X59446310Y-165410272D01*
X59443513Y-165407475D01*
X59439596Y-165404157D01*
X59440601Y-165402970D01*
X59407598Y-165364650D01*
X59378050Y-165306658D01*
X59378046Y-165306654D01*
X59378045Y-165306652D01*
X59288347Y-165216954D01*
X59288343Y-165216951D01*
X59288342Y-165216950D01*
X59274669Y-165209983D01*
X59223875Y-165162011D01*
X59207080Y-165094190D01*
X59229617Y-165028055D01*
X59284332Y-164984603D01*
X59330966Y-164975500D01*
X61573196Y-164975500D01*
X61598641Y-164978139D01*
X61602440Y-164978935D01*
X61609268Y-164980367D01*
X61630225Y-164977754D01*
X61644492Y-164975977D01*
X61652168Y-164975500D01*
X61656112Y-164975500D01*
X61656114Y-164975500D01*
X61656116Y-164975499D01*
X61656122Y-164975499D01*
X61671487Y-164972934D01*
X61679140Y-164971657D01*
X61733626Y-164964866D01*
X61733627Y-164964865D01*
X61733629Y-164964865D01*
X61741141Y-164962628D01*
X61748606Y-164960066D01*
X61748606Y-164960065D01*
X61748610Y-164960065D01*
X61796877Y-164933944D01*
X61846211Y-164909826D01*
X61846214Y-164909823D01*
X61852594Y-164905268D01*
X61858819Y-164900422D01*
X61858826Y-164900419D01*
X61896007Y-164860029D01*
X62123657Y-164632379D01*
X62164519Y-164605240D01*
X62705523Y-164384676D01*
X62752336Y-164375500D01*
X62829270Y-164375500D01*
X62859699Y-164372646D01*
X62859701Y-164372646D01*
X62923790Y-164350219D01*
X62987882Y-164327793D01*
X63051868Y-164280569D01*
X63117495Y-164256599D01*
X63185665Y-164271914D01*
X63234734Y-164321654D01*
X63249500Y-164380340D01*
X63249500Y-164983830D01*
X63232607Y-165046313D01*
X63211215Y-165082983D01*
X63160432Y-165130970D01*
X63104109Y-165144500D01*
X62918482Y-165144500D01*
X62837519Y-165157323D01*
X62824696Y-165159354D01*
X62711658Y-165216950D01*
X62711657Y-165216951D01*
X62711652Y-165216954D01*
X62621954Y-165306652D01*
X62621951Y-165306657D01*
X62621950Y-165306658D01*
X62604811Y-165340296D01*
X62564352Y-165419698D01*
X62549500Y-165513475D01*
X62549500Y-165876517D01*
X62560292Y-165944657D01*
X62564354Y-165970304D01*
X62621950Y-166083342D01*
X62621952Y-166083344D01*
X62621954Y-166083347D01*
X62711652Y-166173045D01*
X62711654Y-166173046D01*
X62711658Y-166173050D01*
X62802851Y-166219515D01*
X62853647Y-166267490D01*
X62870442Y-166335311D01*
X62847904Y-166401446D01*
X62802852Y-166440484D01*
X62711658Y-166486950D01*
X62711657Y-166486951D01*
X62711652Y-166486954D01*
X62621954Y-166576652D01*
X62621951Y-166576657D01*
X62621950Y-166576658D01*
X62606298Y-166607377D01*
X62564352Y-166689698D01*
X62549500Y-166783475D01*
X62549500Y-167146517D01*
X62554843Y-167180250D01*
X62564354Y-167240304D01*
X62621950Y-167353342D01*
X62621952Y-167353344D01*
X62621954Y-167353347D01*
X62711652Y-167443045D01*
X62711654Y-167443046D01*
X62711658Y-167443050D01*
X62802851Y-167489515D01*
X62853647Y-167537490D01*
X62870442Y-167605311D01*
X62847904Y-167671446D01*
X62802852Y-167710484D01*
X62711658Y-167756950D01*
X62711657Y-167756951D01*
X62711652Y-167756954D01*
X62621954Y-167846652D01*
X62621951Y-167846657D01*
X62621950Y-167846658D01*
X62617042Y-167856291D01*
X62564352Y-167959698D01*
X62549500Y-168053475D01*
X62549500Y-168209851D01*
X62548969Y-168217949D01*
X62544750Y-168250000D01*
X62548386Y-168277625D01*
X62548969Y-168282047D01*
X62549500Y-168290147D01*
X62549500Y-168416517D01*
X62553608Y-168442453D01*
X62564354Y-168510304D01*
X62621950Y-168623342D01*
X62621952Y-168623344D01*
X62621954Y-168623347D01*
X62711652Y-168713045D01*
X62711654Y-168713046D01*
X62711658Y-168713050D01*
X62802851Y-168759515D01*
X62853647Y-168807490D01*
X62870442Y-168875311D01*
X62847904Y-168941446D01*
X62802852Y-168980484D01*
X62711658Y-169026950D01*
X62711657Y-169026951D01*
X62711652Y-169026954D01*
X62621954Y-169116652D01*
X62621951Y-169116657D01*
X62564352Y-169229698D01*
X62549500Y-169323475D01*
X62549500Y-169686517D01*
X62555516Y-169724500D01*
X62564354Y-169780304D01*
X62621950Y-169893342D01*
X62621952Y-169893344D01*
X62621954Y-169893347D01*
X62711652Y-169983045D01*
X62711654Y-169983046D01*
X62711658Y-169983050D01*
X62824694Y-170040645D01*
X62824698Y-170040647D01*
X62918475Y-170055499D01*
X62918481Y-170055500D01*
X64331518Y-170055499D01*
X64425304Y-170040646D01*
X64538342Y-169983050D01*
X64628050Y-169893342D01*
X64633273Y-169883090D01*
X64681244Y-169832294D01*
X64689277Y-169827992D01*
X64716211Y-169814826D01*
X64716213Y-169814824D01*
X64722594Y-169810268D01*
X64728818Y-169805423D01*
X64728826Y-169805419D01*
X64766007Y-169765029D01*
X64828538Y-169702498D01*
X64895786Y-169635251D01*
X64900680Y-169630851D01*
X64916685Y-169617936D01*
X64921891Y-169613500D01*
X64925359Y-169610381D01*
X64935157Y-169601088D01*
X64938863Y-169595541D01*
X64954275Y-169576761D01*
X65447203Y-169083833D01*
X69395624Y-169083833D01*
X69405944Y-169247860D01*
X69456732Y-169404171D01*
X69456734Y-169404175D01*
X69544797Y-169542940D01*
X69613692Y-169607636D01*
X69649086Y-169667877D01*
X69646294Y-169737691D01*
X69606200Y-169794912D01*
X69602443Y-169797798D01*
X69589320Y-169807483D01*
X69542125Y-169842315D01*
X69527849Y-169852851D01*
X69447207Y-169962117D01*
X69447206Y-169962119D01*
X69402353Y-170090298D01*
X69402353Y-170090300D01*
X69399500Y-170120730D01*
X69399500Y-170629269D01*
X69402353Y-170659699D01*
X69402353Y-170659701D01*
X69441816Y-170772476D01*
X69447207Y-170787882D01*
X69527850Y-170897150D01*
X69637118Y-170977793D01*
X69669969Y-170989288D01*
X69765299Y-171022646D01*
X69795730Y-171025500D01*
X69795734Y-171025500D01*
X70804270Y-171025500D01*
X70834699Y-171022646D01*
X70834701Y-171022646D01*
X70917479Y-170993680D01*
X70962882Y-170977793D01*
X71072150Y-170897150D01*
X71152793Y-170787882D01*
X71184988Y-170695875D01*
X71197646Y-170659701D01*
X71197646Y-170659699D01*
X71200500Y-170629269D01*
X71200500Y-170120730D01*
X71197646Y-170090300D01*
X71197646Y-170090298D01*
X71153816Y-169965043D01*
X71152793Y-169962118D01*
X71072150Y-169852850D01*
X71072148Y-169852849D01*
X71072148Y-169852848D01*
X71001408Y-169800640D01*
X70959157Y-169744993D01*
X70953698Y-169675337D01*
X70986765Y-169613787D01*
X70993238Y-169608220D01*
X70998832Y-169602966D01*
X70998837Y-169602963D01*
X71103600Y-169476326D01*
X71173579Y-169327613D01*
X71204376Y-169166170D01*
X71194056Y-169002140D01*
X71143268Y-168845829D01*
X71055202Y-168707060D01*
X71011876Y-168666374D01*
X70935396Y-168594554D01*
X70935388Y-168594548D01*
X70791371Y-168515374D01*
X70791361Y-168515371D01*
X70632180Y-168474500D01*
X70632177Y-168474500D01*
X70009075Y-168474500D01*
X70009065Y-168474500D01*
X69886942Y-168489929D01*
X69886939Y-168489929D01*
X69734130Y-168550431D01*
X69734121Y-168550436D01*
X69601164Y-168647034D01*
X69601162Y-168647037D01*
X69496400Y-168773673D01*
X69426420Y-168922387D01*
X69415338Y-168980485D01*
X69395624Y-169083830D01*
X69395624Y-169083832D01*
X69395624Y-169083833D01*
X65447203Y-169083833D01*
X65678892Y-168852144D01*
X65698741Y-168836025D01*
X65707836Y-168830084D01*
X65729644Y-168802062D01*
X65734721Y-168796316D01*
X65737520Y-168793518D01*
X65751094Y-168774504D01*
X65765605Y-168755861D01*
X65784807Y-168731192D01*
X65788547Y-168724280D01*
X65792003Y-168717207D01*
X65792010Y-168717199D01*
X65807670Y-168664596D01*
X65825500Y-168612660D01*
X65825500Y-168612655D01*
X65826792Y-168604917D01*
X65827768Y-168597085D01*
X65825500Y-168542244D01*
X65825500Y-166277778D01*
X65839611Y-166220329D01*
X65848982Y-166202404D01*
X66089368Y-165742595D01*
X66093167Y-165736565D01*
X66096626Y-165730229D01*
X66096626Y-165730228D01*
X66096628Y-165730226D01*
X66097246Y-165728566D01*
X66100401Y-165721490D01*
X66104773Y-165713129D01*
X66124944Y-165654307D01*
X66144412Y-165602114D01*
X66145202Y-165594759D01*
X66150499Y-165545501D01*
X66150499Y-165545494D01*
X66150500Y-165545485D01*
X66150499Y-164954516D01*
X66145695Y-164909823D01*
X66144412Y-164897885D01*
X66122068Y-164837981D01*
X66096628Y-164769774D01*
X66014687Y-164660313D01*
X65931894Y-164598335D01*
X65905228Y-164578373D01*
X65905226Y-164578372D01*
X65777114Y-164530588D01*
X65777112Y-164530587D01*
X65777110Y-164530587D01*
X65720493Y-164524500D01*
X65179518Y-164524500D01*
X65179509Y-164524501D01*
X65122885Y-164530587D01*
X64994773Y-164578372D01*
X64885313Y-164660313D01*
X64803372Y-164769773D01*
X64803369Y-164769778D01*
X64779422Y-164833979D01*
X64763386Y-164863766D01*
X64576705Y-165119427D01*
X64521274Y-165161961D01*
X64451646Y-165167774D01*
X64434748Y-165161857D01*
X64434582Y-165162369D01*
X64425299Y-165159352D01*
X64331524Y-165144500D01*
X64331519Y-165144500D01*
X64145889Y-165144500D01*
X64078850Y-165124815D01*
X64038780Y-165082979D01*
X64017391Y-165046311D01*
X64000500Y-164983832D01*
X64000500Y-164622400D01*
X64020185Y-164555361D01*
X64072989Y-164509606D01*
X64078573Y-164507219D01*
X64386988Y-164384309D01*
X64432893Y-164375500D01*
X64479270Y-164375500D01*
X64509699Y-164372646D01*
X64509701Y-164372646D01*
X64573790Y-164350219D01*
X64637882Y-164327793D01*
X64747150Y-164247150D01*
X64827793Y-164137882D01*
X64860379Y-164044756D01*
X64872646Y-164009701D01*
X64872646Y-164009699D01*
X64875500Y-163979269D01*
X64875500Y-163320730D01*
X64872646Y-163290300D01*
X64872646Y-163290298D01*
X64836747Y-163187706D01*
X64827793Y-163162118D01*
X64747150Y-163052850D01*
X64666962Y-162993669D01*
X64624713Y-162938023D01*
X64619254Y-162868367D01*
X64652321Y-162806817D01*
X64666287Y-162794633D01*
X64739687Y-162739687D01*
X64821628Y-162630226D01*
X64838932Y-162583833D01*
X69370624Y-162583833D01*
X69380944Y-162747860D01*
X69431732Y-162904171D01*
X69431734Y-162904175D01*
X69519797Y-163042940D01*
X69588692Y-163107636D01*
X69624086Y-163167877D01*
X69621294Y-163237691D01*
X69581200Y-163294912D01*
X69577443Y-163297798D01*
X69502849Y-163352851D01*
X69422207Y-163462117D01*
X69422206Y-163462119D01*
X69377353Y-163590298D01*
X69377353Y-163590300D01*
X69374500Y-163620730D01*
X69374500Y-164129269D01*
X69377353Y-164159699D01*
X69377353Y-164159701D01*
X69419648Y-164280570D01*
X69422207Y-164287882D01*
X69502850Y-164397150D01*
X69612118Y-164477793D01*
X69654845Y-164492744D01*
X69740299Y-164522646D01*
X69770730Y-164525500D01*
X69770734Y-164525500D01*
X70779270Y-164525500D01*
X70809699Y-164522646D01*
X70809701Y-164522646D01*
X70876784Y-164499172D01*
X70937882Y-164477793D01*
X71047150Y-164397150D01*
X71127793Y-164287882D01*
X71157703Y-164202404D01*
X71172646Y-164159701D01*
X71172646Y-164159699D01*
X71175500Y-164129269D01*
X71175500Y-163620730D01*
X71172646Y-163590300D01*
X71172646Y-163590298D01*
X71127793Y-163462119D01*
X71127792Y-163462117D01*
X71047150Y-163352850D01*
X71047148Y-163352849D01*
X71047148Y-163352848D01*
X70976408Y-163300640D01*
X70934157Y-163244993D01*
X70928698Y-163175337D01*
X70961765Y-163113787D01*
X70968238Y-163108220D01*
X70973832Y-163102966D01*
X70973837Y-163102963D01*
X71078600Y-162976326D01*
X71148579Y-162827613D01*
X71179376Y-162666170D01*
X71169056Y-162502140D01*
X71118268Y-162345829D01*
X71030202Y-162207060D01*
X70996062Y-162175000D01*
X70904706Y-162089211D01*
X70906421Y-162087384D01*
X70871263Y-162041784D01*
X70865288Y-161972170D01*
X70897899Y-161910377D01*
X70913928Y-161896488D01*
X70973837Y-161852963D01*
X71078600Y-161726326D01*
X71148579Y-161577613D01*
X71179376Y-161416170D01*
X71169056Y-161252140D01*
X71118268Y-161095829D01*
X71107451Y-161078785D01*
X71056932Y-160999180D01*
X71030202Y-160957060D01*
X71024402Y-160951613D01*
X70904706Y-160839211D01*
X70906421Y-160837384D01*
X70871263Y-160791784D01*
X70865288Y-160722170D01*
X70897899Y-160660377D01*
X70913928Y-160646488D01*
X70973837Y-160602963D01*
X71078600Y-160476326D01*
X71148579Y-160327613D01*
X71179376Y-160166170D01*
X71169056Y-160002140D01*
X71118268Y-159845829D01*
X71098433Y-159814575D01*
X71070998Y-159771344D01*
X71030202Y-159707060D01*
X71010619Y-159688670D01*
X70910396Y-159594554D01*
X70910388Y-159594548D01*
X70766371Y-159515374D01*
X70766361Y-159515371D01*
X70607180Y-159474500D01*
X70607177Y-159474500D01*
X69984075Y-159474500D01*
X69984065Y-159474500D01*
X69861942Y-159489929D01*
X69861939Y-159489929D01*
X69709130Y-159550431D01*
X69709121Y-159550436D01*
X69576164Y-159647034D01*
X69576162Y-159647037D01*
X69471400Y-159773673D01*
X69401420Y-159922387D01*
X69394954Y-159956287D01*
X69370624Y-160083830D01*
X69370624Y-160083832D01*
X69370624Y-160083833D01*
X69380944Y-160247860D01*
X69431732Y-160404171D01*
X69431734Y-160404175D01*
X69519798Y-160542940D01*
X69645294Y-160660789D01*
X69643577Y-160662616D01*
X69678733Y-160708208D01*
X69684712Y-160777821D01*
X69652106Y-160839616D01*
X69636068Y-160853513D01*
X69576162Y-160897037D01*
X69471400Y-161023673D01*
X69401420Y-161172387D01*
X69383013Y-161268886D01*
X69370624Y-161333830D01*
X69370624Y-161333832D01*
X69370624Y-161333833D01*
X69380944Y-161497860D01*
X69431732Y-161654171D01*
X69431734Y-161654175D01*
X69519798Y-161792940D01*
X69645294Y-161910789D01*
X69643577Y-161912616D01*
X69678733Y-161958208D01*
X69684712Y-162027821D01*
X69652106Y-162089616D01*
X69636068Y-162103513D01*
X69576162Y-162147037D01*
X69471400Y-162273673D01*
X69401420Y-162422387D01*
X69384026Y-162513575D01*
X69370624Y-162583830D01*
X69370624Y-162583832D01*
X69370624Y-162583833D01*
X64838932Y-162583833D01*
X64869412Y-162502114D01*
X64873925Y-162460134D01*
X64875499Y-162445499D01*
X64875499Y-162445494D01*
X64875500Y-162445485D01*
X64875499Y-162426547D01*
X64885699Y-162377295D01*
X65186825Y-161681520D01*
X65212939Y-161643097D01*
X65953892Y-160902144D01*
X65973741Y-160886025D01*
X65982836Y-160880084D01*
X66004644Y-160852062D01*
X66009721Y-160846316D01*
X66012520Y-160843518D01*
X66026094Y-160824504D01*
X66040018Y-160806615D01*
X66059807Y-160781192D01*
X66063547Y-160774280D01*
X66067003Y-160767207D01*
X66067010Y-160767199D01*
X66082670Y-160714596D01*
X66100500Y-160662660D01*
X66100500Y-160662655D01*
X66101790Y-160654924D01*
X66102768Y-160647085D01*
X66100500Y-160592244D01*
X66100500Y-158131899D01*
X66120185Y-158064860D01*
X66136819Y-158044218D01*
X68894218Y-155286819D01*
X68955541Y-155253334D01*
X68981899Y-155250500D01*
X69125936Y-155250500D01*
X69181057Y-155263424D01*
X69600504Y-155471580D01*
X69603811Y-155473601D01*
X69603894Y-155473446D01*
X69612115Y-155477791D01*
X69612118Y-155477793D01*
X69612120Y-155477793D01*
X69612503Y-155477996D01*
X69618638Y-155480580D01*
X69628517Y-155485483D01*
X69628516Y-155485483D01*
X69628521Y-155485485D01*
X69628523Y-155485486D01*
X69664651Y-155500097D01*
X69668043Y-155501176D01*
X69668042Y-155501176D01*
X69672356Y-155502193D01*
X69698337Y-155508321D01*
X69704547Y-155510134D01*
X69740301Y-155522646D01*
X69740303Y-155522646D01*
X69740306Y-155522647D01*
X69770730Y-155525500D01*
X69770734Y-155525500D01*
X70779270Y-155525500D01*
X70809699Y-155522646D01*
X70809701Y-155522646D01*
X70875664Y-155499564D01*
X70937882Y-155477793D01*
X71047150Y-155397150D01*
X71127793Y-155287882D01*
X71162731Y-155188035D01*
X71172646Y-155159701D01*
X71172646Y-155159699D01*
X71175500Y-155129269D01*
X71175500Y-154620730D01*
X71172646Y-154590300D01*
X71172646Y-154590298D01*
X71128692Y-154464687D01*
X71127793Y-154462118D01*
X71047150Y-154352850D01*
X71047148Y-154352849D01*
X71047148Y-154352848D01*
X70976408Y-154300640D01*
X70934157Y-154244993D01*
X70928698Y-154175337D01*
X70961765Y-154113787D01*
X70968238Y-154108220D01*
X70973832Y-154102966D01*
X70973837Y-154102963D01*
X71078600Y-153976326D01*
X71148579Y-153827613D01*
X71179376Y-153666170D01*
X71169056Y-153502140D01*
X71118268Y-153345829D01*
X71030202Y-153207060D01*
X71030201Y-153207059D01*
X70904706Y-153089211D01*
X70906421Y-153087384D01*
X70871263Y-153041784D01*
X70865288Y-152972170D01*
X70897899Y-152910377D01*
X70913928Y-152896488D01*
X70973837Y-152852963D01*
X71078600Y-152726326D01*
X71148579Y-152577613D01*
X71179376Y-152416170D01*
X71169056Y-152252140D01*
X71118268Y-152095829D01*
X71030202Y-151957060D01*
X70966281Y-151897034D01*
X70910396Y-151844554D01*
X70910388Y-151844548D01*
X70766371Y-151765374D01*
X70766361Y-151765371D01*
X70607180Y-151724500D01*
X70607177Y-151724500D01*
X69984075Y-151724500D01*
X69984065Y-151724500D01*
X69861942Y-151739929D01*
X69861939Y-151739929D01*
X69709130Y-151800431D01*
X69709121Y-151800436D01*
X69576164Y-151897034D01*
X69576162Y-151897037D01*
X69471400Y-152023673D01*
X69401420Y-152172387D01*
X69381909Y-152274674D01*
X69370624Y-152333830D01*
X69370624Y-152333832D01*
X69370624Y-152333833D01*
X69380944Y-152497860D01*
X69431732Y-152654171D01*
X69431734Y-152654175D01*
X69519798Y-152792940D01*
X69645294Y-152910789D01*
X69643577Y-152912616D01*
X69678733Y-152958208D01*
X69684712Y-153027821D01*
X69652106Y-153089616D01*
X69636068Y-153103513D01*
X69576162Y-153147037D01*
X69471400Y-153273673D01*
X69401420Y-153422387D01*
X69394186Y-153460313D01*
X69370624Y-153583830D01*
X69370624Y-153583832D01*
X69370624Y-153583833D01*
X69380944Y-153747860D01*
X69431732Y-153904171D01*
X69431734Y-153904175D01*
X69519797Y-154042940D01*
X69581687Y-154101058D01*
X69617081Y-154161299D01*
X69614289Y-154231113D01*
X69574195Y-154288334D01*
X69551926Y-154302524D01*
X69181057Y-154486574D01*
X69125934Y-154499500D01*
X68826804Y-154499500D01*
X68801357Y-154496861D01*
X68798713Y-154496306D01*
X68790729Y-154494632D01*
X68755509Y-154499023D01*
X68747832Y-154499500D01*
X68743886Y-154499500D01*
X68726606Y-154502383D01*
X68720846Y-154503344D01*
X68666368Y-154510135D01*
X68658844Y-154512375D01*
X68651392Y-154514934D01*
X68603119Y-154541057D01*
X68553790Y-154565172D01*
X68547398Y-154569735D01*
X68541174Y-154574580D01*
X68504003Y-154614958D01*
X65496108Y-157622852D01*
X65476254Y-157638976D01*
X65467165Y-157644914D01*
X65467164Y-157644915D01*
X65445363Y-157672923D01*
X65440286Y-157678674D01*
X65437484Y-157681477D01*
X65437474Y-157681488D01*
X65423905Y-157700495D01*
X65390192Y-157743808D01*
X65386447Y-157750729D01*
X65382988Y-157757804D01*
X65367329Y-157810403D01*
X65349500Y-157862338D01*
X65348206Y-157870092D01*
X65347231Y-157877911D01*
X65349500Y-157932755D01*
X65349500Y-160393100D01*
X65329815Y-160460139D01*
X65313181Y-160480781D01*
X64683656Y-161110305D01*
X64643479Y-161137164D01*
X63973470Y-161415040D01*
X63925971Y-161424500D01*
X63904520Y-161424500D01*
X63904508Y-161424501D01*
X63847885Y-161430587D01*
X63719773Y-161478372D01*
X63610313Y-161560313D01*
X63528373Y-161669771D01*
X63518161Y-161697150D01*
X63482634Y-161792402D01*
X63480587Y-161797889D01*
X63474333Y-161856053D01*
X63461627Y-161898896D01*
X63127215Y-162558067D01*
X63104313Y-162589647D01*
X63026343Y-162667617D01*
X62985475Y-162694760D01*
X62444473Y-162915324D01*
X62397660Y-162924500D01*
X62320730Y-162924500D01*
X62290300Y-162927353D01*
X62290298Y-162927353D01*
X62162119Y-162972206D01*
X62162117Y-162972207D01*
X62052850Y-163052850D01*
X61972207Y-163162117D01*
X61972206Y-163162119D01*
X61927353Y-163290298D01*
X61927353Y-163290300D01*
X61924500Y-163320730D01*
X61924500Y-163389163D01*
X61912791Y-163441762D01*
X61622942Y-164060545D01*
X61598333Y-164095626D01*
X61505781Y-164188180D01*
X61444458Y-164221666D01*
X61418099Y-164224500D01*
X60254750Y-164224500D01*
X60187711Y-164204815D01*
X60141956Y-164152011D01*
X60132012Y-164082853D01*
X60137709Y-164059545D01*
X60159420Y-163997496D01*
X60172646Y-163959699D01*
X60175500Y-163929266D01*
X60175500Y-163270734D01*
X60175500Y-163270730D01*
X60172647Y-163240306D01*
X60172646Y-163240304D01*
X60172646Y-163240301D01*
X60151991Y-163181276D01*
X60147146Y-163163113D01*
X60143930Y-163145907D01*
X60143928Y-163145904D01*
X60143928Y-163145900D01*
X60072449Y-162967538D01*
X60070208Y-162961947D01*
X60063543Y-162892397D01*
X60075421Y-162858372D01*
X60129560Y-162754815D01*
X60214369Y-162592592D01*
X60218166Y-162586568D01*
X60221626Y-162580229D01*
X60221626Y-162580228D01*
X60221628Y-162580226D01*
X60222246Y-162578566D01*
X60225401Y-162571490D01*
X60229773Y-162563129D01*
X60249944Y-162504307D01*
X60269412Y-162452114D01*
X60271353Y-162434057D01*
X60275499Y-162395501D01*
X60275499Y-162395490D01*
X60275500Y-162395485D01*
X60275499Y-161804516D01*
X60270203Y-161755243D01*
X60269412Y-161747885D01*
X60249364Y-161694137D01*
X60221628Y-161619774D01*
X60139687Y-161510313D01*
X60030226Y-161428372D01*
X59984419Y-161411286D01*
X59928487Y-161369416D01*
X59904707Y-161310441D01*
X59903832Y-161303423D01*
X59900976Y-161280506D01*
X59900500Y-161272832D01*
X59900500Y-161268890D01*
X59900499Y-161268882D01*
X59896655Y-161245846D01*
X59889865Y-161191373D01*
X59887617Y-161183827D01*
X59885066Y-161176393D01*
X59885065Y-161176391D01*
X59885065Y-161176390D01*
X59858939Y-161128114D01*
X59834826Y-161078789D01*
X59834823Y-161078786D01*
X59834823Y-161078785D01*
X59830280Y-161072421D01*
X59825420Y-161066176D01*
X59825419Y-161066174D01*
X59802157Y-161044760D01*
X59785029Y-161028992D01*
X59708538Y-160952500D01*
X59675053Y-160891177D01*
X59673517Y-160882713D01*
X59561980Y-160117890D01*
X59561980Y-160082109D01*
X59660492Y-159406605D01*
X59689645Y-159343109D01*
X59748499Y-159305453D01*
X59783194Y-159300500D01*
X62518101Y-159300500D01*
X62585140Y-159320185D01*
X62605782Y-159336819D01*
X62817947Y-159548985D01*
X62851432Y-159610308D01*
X62849720Y-159669934D01*
X62821477Y-159771344D01*
X62819700Y-159783701D01*
X62814005Y-159807001D01*
X62802355Y-159840296D01*
X62802353Y-159840305D01*
X62799500Y-159870731D01*
X62799500Y-160379269D01*
X62802353Y-160409699D01*
X62802353Y-160409701D01*
X62847206Y-160537880D01*
X62847207Y-160537882D01*
X62927850Y-160647150D01*
X63037118Y-160727793D01*
X63072861Y-160740300D01*
X63165299Y-160772646D01*
X63195730Y-160775500D01*
X63195734Y-160775500D01*
X63854270Y-160775500D01*
X63884699Y-160772646D01*
X63884701Y-160772646D01*
X63964990Y-160744551D01*
X64012882Y-160727793D01*
X64122150Y-160647150D01*
X64202793Y-160537882D01*
X64229996Y-160460139D01*
X64247646Y-160409701D01*
X64247646Y-160409699D01*
X64250500Y-160379269D01*
X64250500Y-159870730D01*
X64247646Y-159840300D01*
X64247646Y-159840298D01*
X64207221Y-159724773D01*
X64202793Y-159712118D01*
X64122150Y-159602850D01*
X64041506Y-159543332D01*
X64012881Y-159522206D01*
X63918173Y-159489067D01*
X63881456Y-159468685D01*
X63728975Y-159346159D01*
X63689047Y-159288824D01*
X63686456Y-159219002D01*
X63722024Y-159158863D01*
X63784460Y-159127501D01*
X63806647Y-159125500D01*
X63854270Y-159125500D01*
X63884699Y-159122646D01*
X63884701Y-159122646D01*
X63948790Y-159100219D01*
X64012882Y-159077793D01*
X64122150Y-158997150D01*
X64202793Y-158887882D01*
X64225219Y-158823790D01*
X64247646Y-158759701D01*
X64247646Y-158759699D01*
X64250500Y-158729269D01*
X64250500Y-158220730D01*
X64247646Y-158190300D01*
X64247646Y-158190298D01*
X64214006Y-158094163D01*
X64202793Y-158062118D01*
X64122150Y-157952850D01*
X64122149Y-157952849D01*
X64115581Y-157946282D01*
X64116042Y-157945820D01*
X64093649Y-157922090D01*
X63898132Y-157622259D01*
X63878003Y-157555352D01*
X63878000Y-157554528D01*
X63878000Y-156529235D01*
X63897685Y-156462196D01*
X63897693Y-156462183D01*
X64062329Y-156206083D01*
X64071553Y-156185907D01*
X64081221Y-156168581D01*
X64088466Y-156157740D01*
X64090333Y-156148349D01*
X64091668Y-156142927D01*
X64092622Y-156139687D01*
X64094362Y-156133779D01*
X64097163Y-156114441D01*
X64097705Y-156111288D01*
X64103000Y-156084674D01*
X64103000Y-156083097D01*
X64104282Y-156065314D01*
X64104692Y-156062483D01*
X64104766Y-156061975D01*
X64104764Y-156061968D01*
X64104661Y-156057901D01*
X64103000Y-156040908D01*
X64103000Y-155335323D01*
X64102999Y-155335321D01*
X64088467Y-155262264D01*
X64088466Y-155262260D01*
X64078862Y-155247886D01*
X64033101Y-155179399D01*
X64031160Y-155178102D01*
X64027883Y-155174181D01*
X64024465Y-155170763D01*
X64024770Y-155170457D01*
X63986355Y-155124492D01*
X63977646Y-155055167D01*
X64007800Y-154992139D01*
X64031161Y-154971897D01*
X64033101Y-154970601D01*
X64088466Y-154887740D01*
X64103000Y-154814674D01*
X64103000Y-154065326D01*
X64103000Y-154065323D01*
X64102999Y-154065321D01*
X64088467Y-153992264D01*
X64088466Y-153992260D01*
X64077819Y-153976326D01*
X64033101Y-153909399D01*
X64031160Y-153908102D01*
X64027883Y-153904181D01*
X64024465Y-153900763D01*
X64024770Y-153900457D01*
X63986355Y-153854492D01*
X63977646Y-153785167D01*
X64007800Y-153722139D01*
X64031161Y-153701897D01*
X64033101Y-153700601D01*
X64088466Y-153617740D01*
X64103000Y-153544674D01*
X64103000Y-152795326D01*
X64103000Y-152795323D01*
X64102999Y-152795321D01*
X64088467Y-152722264D01*
X64088466Y-152722260D01*
X64087531Y-152720861D01*
X64033101Y-152639399D01*
X64031160Y-152638102D01*
X64027883Y-152634181D01*
X64024465Y-152630763D01*
X64024770Y-152630457D01*
X63986355Y-152584492D01*
X63977646Y-152515167D01*
X64007800Y-152452139D01*
X64031161Y-152431897D01*
X64033101Y-152430601D01*
X64088466Y-152347740D01*
X64103000Y-152274674D01*
X64103000Y-151525326D01*
X64103000Y-151525323D01*
X64102999Y-151525321D01*
X64088467Y-151452264D01*
X64088466Y-151452260D01*
X64056999Y-151405166D01*
X64033101Y-151369399D01*
X63950240Y-151314034D01*
X63950239Y-151314033D01*
X63950235Y-151314032D01*
X63877177Y-151299500D01*
X63877174Y-151299500D01*
X63232174Y-151299500D01*
X60947023Y-151299500D01*
X60879984Y-151279815D01*
X60834229Y-151227011D01*
X60824285Y-151157853D01*
X60832461Y-151128049D01*
X60836330Y-151118709D01*
X60855250Y-150975000D01*
X60836330Y-150831291D01*
X60780861Y-150697375D01*
X60780858Y-150697371D01*
X60776797Y-150690336D01*
X60778705Y-150689233D01*
X60757670Y-150634808D01*
X60771714Y-150566364D01*
X60820532Y-150516378D01*
X60881241Y-150500500D01*
X62584676Y-150500500D01*
X62584677Y-150500499D01*
X62657740Y-150485966D01*
X62740601Y-150430601D01*
X62740602Y-150430598D01*
X62747133Y-150426235D01*
X62813810Y-150405357D01*
X62873499Y-150419461D01*
X62884976Y-150425465D01*
X62952015Y-150445150D01*
X62952013Y-150445150D01*
X62993171Y-150451067D01*
X63044417Y-150470703D01*
X63067260Y-150485966D01*
X63067261Y-150485967D01*
X63140321Y-150500499D01*
X63140324Y-150500500D01*
X63140326Y-150500500D01*
X63889676Y-150500500D01*
X63889677Y-150500499D01*
X63962740Y-150485966D01*
X63984402Y-150471491D01*
X64040046Y-150451302D01*
X64044995Y-150450770D01*
X64055307Y-150449662D01*
X64055307Y-150449661D01*
X64055313Y-150449661D01*
X64088575Y-150442424D01*
X64106817Y-150438457D01*
X64106817Y-150438456D01*
X64106824Y-150438455D01*
X64133198Y-150431219D01*
X64182123Y-150403359D01*
X64219818Y-150381894D01*
X64219821Y-150381891D01*
X64219828Y-150381888D01*
X64262683Y-150344754D01*
X64272629Y-150336136D01*
X64272632Y-150336133D01*
X64304257Y-150303359D01*
X64350465Y-150215024D01*
X64370150Y-150147985D01*
X64380500Y-150076000D01*
X64380500Y-149780064D01*
X64400185Y-149713025D01*
X64452989Y-149667270D01*
X64522147Y-149657326D01*
X64585703Y-149686351D01*
X64603767Y-149705754D01*
X64685311Y-149814685D01*
X64685312Y-149814685D01*
X64685313Y-149814687D01*
X64794774Y-149896628D01*
X64922886Y-149944412D01*
X64979515Y-149950500D01*
X65820484Y-149950499D01*
X65877114Y-149944412D01*
X66005226Y-149896628D01*
X66114687Y-149814687D01*
X66196628Y-149705226D01*
X66244412Y-149577114D01*
X66246687Y-149555944D01*
X66250499Y-149520501D01*
X66250499Y-149520494D01*
X66250500Y-149520485D01*
X66250499Y-148979516D01*
X66244412Y-148922886D01*
X66233925Y-148894771D01*
X66212048Y-148836117D01*
X66196628Y-148794774D01*
X66114687Y-148685313D01*
X66048911Y-148636074D01*
X66005228Y-148603373D01*
X66005226Y-148603372D01*
X65877114Y-148555588D01*
X65877112Y-148555587D01*
X65877110Y-148555587D01*
X65820493Y-148549500D01*
X64979518Y-148549500D01*
X64979509Y-148549501D01*
X64922885Y-148555587D01*
X64794773Y-148603372D01*
X64685313Y-148685313D01*
X64603767Y-148794246D01*
X64547833Y-148836117D01*
X64478142Y-148841101D01*
X64416819Y-148807616D01*
X64383334Y-148746293D01*
X64380500Y-148719935D01*
X64380500Y-146949000D01*
X64374661Y-146894687D01*
X64366308Y-146856291D01*
X64363457Y-146843183D01*
X64363456Y-146843182D01*
X64363455Y-146843176D01*
X64356219Y-146816802D01*
X64356216Y-146816796D01*
X64306894Y-146730181D01*
X64306884Y-146730167D01*
X64278204Y-146697068D01*
X64249179Y-146633512D01*
X64259123Y-146564354D01*
X64304878Y-146511550D01*
X64371918Y-146491866D01*
X64405911Y-146496617D01*
X64811329Y-146612186D01*
X64870008Y-146628913D01*
X64885292Y-146632274D01*
X64885035Y-146632226D01*
X64905439Y-146637904D01*
X64922886Y-146644412D01*
X64979515Y-146650500D01*
X65820484Y-146650499D01*
X65877114Y-146644412D01*
X66005226Y-146596628D01*
X66114687Y-146514687D01*
X66196628Y-146405226D01*
X66244412Y-146277114D01*
X66246687Y-146255944D01*
X66250499Y-146220501D01*
X66250499Y-146220494D01*
X66250500Y-146220485D01*
X66250499Y-145679516D01*
X66244412Y-145622886D01*
X66196628Y-145494774D01*
X66114687Y-145385313D01*
X66005229Y-145303374D01*
X66005228Y-145303373D01*
X66005226Y-145303372D01*
X65877114Y-145255588D01*
X65877112Y-145255587D01*
X65877110Y-145255587D01*
X65820493Y-145249500D01*
X64979518Y-145249500D01*
X64979509Y-145249501D01*
X64922885Y-145255587D01*
X64804991Y-145299561D01*
X64794774Y-145303372D01*
X64794771Y-145303373D01*
X64794771Y-145303374D01*
X64720482Y-145358984D01*
X64707001Y-145367286D01*
X64707003Y-145367289D01*
X64701841Y-145370520D01*
X64344440Y-145646487D01*
X64279347Y-145671878D01*
X64210860Y-145658047D01*
X64201602Y-145652646D01*
X64011084Y-145530171D01*
X64011081Y-145530169D01*
X64005153Y-145527459D01*
X63990911Y-145520947D01*
X63973584Y-145511279D01*
X63962740Y-145504034D01*
X63962739Y-145504033D01*
X63962735Y-145504032D01*
X63953346Y-145502164D01*
X63947935Y-145500833D01*
X63938768Y-145498134D01*
X63938756Y-145498131D01*
X63919415Y-145495328D01*
X63916216Y-145494779D01*
X63889674Y-145489500D01*
X63888121Y-145489500D01*
X63870340Y-145488218D01*
X63869285Y-145488065D01*
X63866989Y-145487732D01*
X63862932Y-145487836D01*
X63845917Y-145489500D01*
X63140323Y-145489500D01*
X63067264Y-145504032D01*
X63067260Y-145504033D01*
X62984398Y-145559399D01*
X62965602Y-145587531D01*
X62911990Y-145632336D01*
X62842665Y-145641043D01*
X62779637Y-145610888D01*
X62759398Y-145587531D01*
X62740601Y-145559399D01*
X62657739Y-145504033D01*
X62657735Y-145504032D01*
X62629385Y-145498393D01*
X62567474Y-145466008D01*
X62555206Y-145452270D01*
X62526844Y-145415314D01*
X61625792Y-144241215D01*
X59439918Y-141392954D01*
X59439918Y-141392955D01*
X59439915Y-141392951D01*
X59410200Y-141360463D01*
X59392856Y-141344508D01*
X59378871Y-141331643D01*
X59366217Y-141320744D01*
X59366213Y-141320742D01*
X59277879Y-141274534D01*
X59277878Y-141274533D01*
X59210846Y-141254851D01*
X59210834Y-141254848D01*
X59138857Y-141244500D01*
X59138856Y-141244500D01*
X56155783Y-141244500D01*
X56088744Y-141224815D01*
X56086893Y-141223603D01*
X55997739Y-141164033D01*
X55997735Y-141164032D01*
X55924677Y-141149500D01*
X55924674Y-141149500D01*
X52875326Y-141149500D01*
X52875323Y-141149500D01*
X52802264Y-141164032D01*
X52802260Y-141164033D01*
X52719399Y-141219399D01*
X52664033Y-141302260D01*
X52664032Y-141302264D01*
X52649500Y-141375321D01*
X52649500Y-141966449D01*
X52629815Y-142033488D01*
X52577011Y-142079243D01*
X52507853Y-142089187D01*
X52444297Y-142060162D01*
X52418113Y-142028449D01*
X52382317Y-141966449D01*
X52350386Y-141911143D01*
X52186805Y-141706019D01*
X52186804Y-141706018D01*
X52186801Y-141706014D01*
X51994479Y-141527567D01*
X51777704Y-141379772D01*
X51777700Y-141379770D01*
X51777697Y-141379768D01*
X51777696Y-141379767D01*
X51541325Y-141265938D01*
X51541327Y-141265938D01*
X51290623Y-141188606D01*
X51290619Y-141188605D01*
X51290615Y-141188604D01*
X51165823Y-141169794D01*
X51031187Y-141149500D01*
X51031182Y-141149500D01*
X50768818Y-141149500D01*
X50768812Y-141149500D01*
X50607247Y-141173853D01*
X50509385Y-141188604D01*
X50509382Y-141188605D01*
X50509376Y-141188606D01*
X50258673Y-141265938D01*
X50022303Y-141379767D01*
X50022302Y-141379768D01*
X49805520Y-141527567D01*
X49613198Y-141706014D01*
X49449614Y-141911143D01*
X49318432Y-142138356D01*
X49265428Y-142273409D01*
X49222612Y-142328623D01*
X49156742Y-142351924D01*
X49088732Y-142335913D01*
X49040173Y-142285675D01*
X49034572Y-142273409D01*
X49033315Y-142270206D01*
X48981568Y-142138357D01*
X48850386Y-141911143D01*
X48686805Y-141706019D01*
X48686804Y-141706018D01*
X48686801Y-141706014D01*
X48494479Y-141527567D01*
X48277704Y-141379772D01*
X48277700Y-141379770D01*
X48277697Y-141379768D01*
X48277696Y-141379767D01*
X48041325Y-141265938D01*
X48041327Y-141265938D01*
X47790623Y-141188606D01*
X47790619Y-141188605D01*
X47790615Y-141188604D01*
X47665823Y-141169794D01*
X47531187Y-141149500D01*
X47531182Y-141149500D01*
X47268818Y-141149500D01*
X47268812Y-141149500D01*
X47107247Y-141173853D01*
X47009385Y-141188604D01*
X47009382Y-141188605D01*
X47009376Y-141188606D01*
X46846034Y-141238991D01*
X46809484Y-141244500D01*
X41863469Y-141244500D01*
X41856666Y-141245139D01*
X41815843Y-141248977D01*
X41770436Y-141257592D01*
X41750433Y-141262226D01*
X41750431Y-141262226D01*
X41661290Y-141306860D01*
X41606121Y-141349727D01*
X41606118Y-141349730D01*
X41555629Y-141402064D01*
X41555624Y-141402070D01*
X38645991Y-145438015D01*
X38590818Y-145480885D01*
X38545405Y-145489500D01*
X38037823Y-145489500D01*
X37964764Y-145504032D01*
X37964760Y-145504033D01*
X37881899Y-145559399D01*
X37826533Y-145642260D01*
X37826532Y-145642264D01*
X37812000Y-145715321D01*
X37812000Y-146464678D01*
X37826532Y-146537735D01*
X37826533Y-146537739D01*
X37881899Y-146620601D01*
X37883842Y-146621899D01*
X37887122Y-146625824D01*
X37890535Y-146629237D01*
X37890229Y-146629542D01*
X37928646Y-146675512D01*
X37937352Y-146744838D01*
X37907196Y-146807864D01*
X37883842Y-146828101D01*
X37881899Y-146829398D01*
X37826533Y-146912260D01*
X37826532Y-146912264D01*
X37812000Y-146985321D01*
X37812000Y-147734678D01*
X37826532Y-147807735D01*
X37826533Y-147807739D01*
X37881899Y-147890601D01*
X37883842Y-147891899D01*
X37887122Y-147895824D01*
X37890535Y-147899237D01*
X37890229Y-147899542D01*
X37928646Y-147945512D01*
X37937352Y-148014838D01*
X37907196Y-148077864D01*
X37883842Y-148098101D01*
X37881899Y-148099398D01*
X37826533Y-148182260D01*
X37826532Y-148182264D01*
X37812000Y-148255321D01*
X37812000Y-149004678D01*
X37826532Y-149077735D01*
X37826533Y-149077739D01*
X37827722Y-149079518D01*
X37881899Y-149160601D01*
X37881900Y-149160601D01*
X37881901Y-149160603D01*
X37890535Y-149169237D01*
X37888656Y-149171115D01*
X37922106Y-149211136D01*
X37930817Y-149280461D01*
X37900666Y-149343490D01*
X37894194Y-149350123D01*
X37781198Y-149484785D01*
X37781197Y-149484787D01*
X37702461Y-149641562D01*
X37702460Y-149641567D01*
X37663672Y-149805228D01*
X37662000Y-149812281D01*
X37662000Y-151485581D01*
X37642315Y-151552620D01*
X37589511Y-151598375D01*
X37520353Y-151608319D01*
X37456797Y-151579294D01*
X37439625Y-151561068D01*
X37433142Y-151552620D01*
X37417617Y-151532387D01*
X37302621Y-151444147D01*
X37302620Y-151444146D01*
X37302618Y-151444145D01*
X37168708Y-151388679D01*
X37168706Y-151388678D01*
X37168705Y-151388678D01*
X37096850Y-151379218D01*
X37024997Y-151369758D01*
X37024995Y-151369758D01*
X36881287Y-151388678D01*
X36881283Y-151388679D01*
X36747372Y-151444146D01*
X36747370Y-151444147D01*
X36695403Y-151484023D01*
X36630234Y-151509217D01*
X36561789Y-151495178D01*
X36520652Y-151459959D01*
X36507547Y-151442453D01*
X36435713Y-151388679D01*
X36392330Y-151356203D01*
X36392328Y-151356202D01*
X36257488Y-151305910D01*
X36257481Y-151305908D01*
X36197884Y-151299501D01*
X36197882Y-151299500D01*
X36197874Y-151299500D01*
X36197866Y-151299500D01*
X35915957Y-151299500D01*
X35848918Y-151279815D01*
X35803163Y-151227011D01*
X35793219Y-151157853D01*
X35801396Y-151128048D01*
X35805265Y-151118708D01*
X35836330Y-151043709D01*
X35855250Y-150900000D01*
X35836330Y-150756291D01*
X35781741Y-150624500D01*
X35780862Y-150622377D01*
X35780861Y-150622376D01*
X35780861Y-150622375D01*
X35692621Y-150507379D01*
X35577625Y-150419139D01*
X35577624Y-150419138D01*
X35577622Y-150419137D01*
X35443712Y-150363671D01*
X35443710Y-150363670D01*
X35443709Y-150363670D01*
X35371854Y-150354210D01*
X35300001Y-150344750D01*
X35299999Y-150344750D01*
X35156291Y-150363670D01*
X35156287Y-150363671D01*
X35022377Y-150419137D01*
X34907379Y-150507379D01*
X34819137Y-150622377D01*
X34763671Y-150756287D01*
X34763670Y-150756291D01*
X34744750Y-150899999D01*
X34744750Y-150900000D01*
X34763670Y-151043708D01*
X34763671Y-151043712D01*
X34798604Y-151128048D01*
X34806073Y-151197517D01*
X34774798Y-151259996D01*
X34714709Y-151295648D01*
X34684043Y-151299500D01*
X33202126Y-151299500D01*
X33202118Y-151299500D01*
X33202115Y-151299501D01*
X33142518Y-151305908D01*
X33142511Y-151305910D01*
X33007671Y-151356202D01*
X33007669Y-151356203D01*
X32892453Y-151442453D01*
X32806203Y-151557669D01*
X32806202Y-151557671D01*
X32755910Y-151692511D01*
X32755908Y-151692518D01*
X32749501Y-151752115D01*
X32749500Y-151752134D01*
X32749500Y-152747865D01*
X32749501Y-152747884D01*
X32755908Y-152807481D01*
X32755910Y-152807488D01*
X32806202Y-152942328D01*
X32806203Y-152942330D01*
X32818089Y-152958208D01*
X32892453Y-153057547D01*
X33006098Y-153142620D01*
X33007669Y-153143796D01*
X33007671Y-153143797D01*
X33095696Y-153176628D01*
X33142516Y-153194091D01*
X33202126Y-153200500D01*
X33712315Y-153200500D01*
X33779354Y-153220185D01*
X33825109Y-153272989D01*
X33831542Y-153290430D01*
X33938895Y-153666166D01*
X33944729Y-153686584D01*
X33949500Y-153720649D01*
X33949500Y-157012769D01*
X33929815Y-157079808D01*
X33913181Y-157100450D01*
X32789358Y-158224272D01*
X32775729Y-158236051D01*
X32756468Y-158250390D01*
X32722898Y-158290397D01*
X32719253Y-158294376D01*
X32713409Y-158300222D01*
X32693059Y-158325959D01*
X32643695Y-158384789D01*
X32639729Y-158390819D01*
X32639682Y-158390788D01*
X32635630Y-158397147D01*
X32635679Y-158397177D01*
X32631889Y-158403321D01*
X32599424Y-158472941D01*
X32564960Y-158541566D01*
X32562488Y-158548357D01*
X32562432Y-158548336D01*
X32559960Y-158555450D01*
X32560015Y-158555469D01*
X32557742Y-158562327D01*
X32553824Y-158581304D01*
X32542207Y-158637565D01*
X32530908Y-158685240D01*
X32524498Y-158712286D01*
X32523661Y-158719454D01*
X32523601Y-158719447D01*
X32522835Y-158726945D01*
X32522895Y-158726951D01*
X32522265Y-158734140D01*
X32524500Y-158810916D01*
X32524500Y-167869442D01*
X32523191Y-167887411D01*
X32519710Y-167911173D01*
X32175500Y-167911173D01*
X32175500Y-140299500D01*
X32195185Y-140232461D01*
X32247989Y-140186706D01*
X32299500Y-140175500D01*
X71700500Y-140175500D01*
X71767539Y-140195185D01*
G37*
%TD.AperFunction*%
%TD*%
%TA.AperFunction,Conductor*%
%TO.N,/M1_SL_B*%
G36*
X54318039Y-146944685D02*
G01*
X54363794Y-146997489D01*
X54375000Y-147049000D01*
X54375000Y-150176000D01*
X54355315Y-150243039D01*
X54302511Y-150288794D01*
X54251000Y-150300000D01*
X53274000Y-150300000D01*
X53206961Y-150280315D01*
X53161206Y-150227511D01*
X53150000Y-150176000D01*
X53150000Y-147049000D01*
X53169685Y-146981961D01*
X53222489Y-146936206D01*
X53274000Y-146925000D01*
X54251000Y-146925000D01*
X54318039Y-146944685D01*
G37*
%TD.AperFunction*%
%TD*%
%TA.AperFunction,Conductor*%
%TO.N,/M1_SL_A*%
G36*
X64068039Y-146844685D02*
G01*
X64113794Y-146897489D01*
X64125000Y-146949000D01*
X64125000Y-150076000D01*
X64105315Y-150143039D01*
X64052511Y-150188794D01*
X64001000Y-150200000D01*
X63024000Y-150200000D01*
X62956961Y-150180315D01*
X62911206Y-150127511D01*
X62900000Y-150076000D01*
X62900000Y-146949000D01*
X62919685Y-146881961D01*
X62972489Y-146836206D01*
X63024000Y-146825000D01*
X64001000Y-146825000D01*
X64068039Y-146844685D01*
G37*
%TD.AperFunction*%
%TD*%
%TA.AperFunction,Conductor*%
%TO.N,Net-(D1-A)*%
G36*
X58708362Y-177042852D02*
G01*
X58711630Y-177049202D01*
X58807737Y-177625847D01*
X58805717Y-177634570D01*
X58798119Y-177639311D01*
X58796235Y-177639470D01*
X58510000Y-177640425D01*
X58223764Y-177639470D01*
X58215502Y-177636015D01*
X58212103Y-177627731D01*
X58212260Y-177625859D01*
X58308370Y-177049200D01*
X58313111Y-177041604D01*
X58319911Y-177039425D01*
X58700089Y-177039425D01*
X58708362Y-177042852D01*
G37*
%TD.AperFunction*%
%TD*%
%TA.AperFunction,Conductor*%
%TO.N,Net-(D1-A)*%
G36*
X58796235Y-176939876D02*
G01*
X58804497Y-176943330D01*
X58807896Y-176951615D01*
X58807737Y-176953499D01*
X58711630Y-177530145D01*
X58706889Y-177537743D01*
X58700089Y-177539922D01*
X58319911Y-177539922D01*
X58311638Y-177536495D01*
X58308370Y-177530145D01*
X58212262Y-176953496D01*
X58214282Y-176944776D01*
X58221880Y-176940035D01*
X58223762Y-176939876D01*
X58510000Y-176938922D01*
X58796235Y-176939876D01*
G37*
%TD.AperFunction*%
%TD*%
%TA.AperFunction,Conductor*%
%TO.N,Net-(D1-A)*%
G36*
X58600381Y-177064732D02*
G01*
X58602956Y-177068623D01*
X58782833Y-177513899D01*
X58782755Y-177522853D01*
X58776496Y-177529077D01*
X58512182Y-177639513D01*
X58507632Y-177640417D01*
X58221460Y-177639463D01*
X58213198Y-177636009D01*
X58209801Y-177627966D01*
X58200206Y-177073207D01*
X58203489Y-177064876D01*
X58211702Y-177061307D01*
X58211904Y-177061305D01*
X58592108Y-177061305D01*
X58600381Y-177064732D01*
G37*
%TD.AperFunction*%
%TD*%
%TA.AperFunction,Conductor*%
%TO.N,VDC*%
G36*
X41531648Y-153823444D02*
G01*
X41536407Y-153830573D01*
X42018786Y-156054578D01*
X42017191Y-156063390D01*
X42016509Y-156064341D01*
X41184606Y-157110399D01*
X41176775Y-157114741D01*
X41168166Y-157112273D01*
X41167176Y-157111389D01*
X40469344Y-156413556D01*
X40469339Y-156413552D01*
X40261881Y-156268499D01*
X39973239Y-156066683D01*
X39968423Y-156059135D01*
X39970334Y-156050422D01*
X41515365Y-153826377D01*
X41522899Y-153821538D01*
X41531648Y-153823444D01*
G37*
%TD.AperFunction*%
%TD*%
%TA.AperFunction,Conductor*%
%TO.N,VDC*%
G36*
X34531958Y-168478133D02*
G01*
X36449955Y-168549542D01*
X36458095Y-168553274D01*
X36461212Y-168561669D01*
X36461175Y-168562258D01*
X36401450Y-169242239D01*
X36397313Y-169250180D01*
X36392424Y-169252616D01*
X34704202Y-169641939D01*
X34696174Y-169640918D01*
X34098519Y-169330035D01*
X33833956Y-169192417D01*
X33828199Y-169185560D01*
X33828976Y-169176639D01*
X33831080Y-169173768D01*
X34523296Y-168481552D01*
X34531568Y-168478126D01*
X34531958Y-168478133D01*
G37*
%TD.AperFunction*%
%TD*%
%TA.AperFunction,Conductor*%
%TO.N,/Ibeta*%
G36*
X57759704Y-161663631D02*
G01*
X57759734Y-161663700D01*
X57869115Y-161925489D01*
X57869142Y-161934444D01*
X57869115Y-161934511D01*
X57758943Y-162198192D01*
X57752591Y-162204504D01*
X57745688Y-162205120D01*
X57289187Y-162106986D01*
X57281819Y-162101897D01*
X57279946Y-162095547D01*
X57279946Y-161862737D01*
X57283373Y-161854464D01*
X57287064Y-161851971D01*
X57370774Y-161816362D01*
X57375354Y-161815429D01*
X57400094Y-161815429D01*
X57538186Y-161774882D01*
X57659261Y-161697072D01*
X57662192Y-161693688D01*
X57666452Y-161690585D01*
X57744360Y-161657444D01*
X57753313Y-161657360D01*
X57759704Y-161663631D01*
G37*
%TD.AperFunction*%
%TD*%
%TA.AperFunction,Conductor*%
%TO.N,VDC*%
G36*
X41551529Y-153816569D02*
G01*
X43700891Y-155003242D01*
X43706402Y-155009991D01*
X44143544Y-156406794D01*
X44142744Y-156415713D01*
X44140651Y-156418561D01*
X43445654Y-157113558D01*
X43437381Y-157116985D01*
X43430457Y-157114716D01*
X41997400Y-156062663D01*
X41992864Y-156055592D01*
X41777561Y-155009991D01*
X41534416Y-153829172D01*
X41536104Y-153820378D01*
X41543516Y-153815353D01*
X41551529Y-153816569D01*
G37*
%TD.AperFunction*%
%TD*%
%TA.AperFunction,Conductor*%
%TO.N,VDC*%
G36*
X51696269Y-153938273D02*
G01*
X53464696Y-154525872D01*
X53470981Y-154530860D01*
X54524591Y-156250225D01*
X54525992Y-156259068D01*
X54522888Y-156264610D01*
X53828514Y-156958984D01*
X53820241Y-156962411D01*
X53814604Y-156960963D01*
X53283890Y-156669150D01*
X52179751Y-156062041D01*
X52174493Y-156056054D01*
X51302138Y-153827527D01*
X51302313Y-153818576D01*
X51308768Y-153812369D01*
X51316722Y-153812161D01*
X51696269Y-153938273D01*
G37*
%TD.AperFunction*%
%TD*%
%TA.AperFunction,Conductor*%
%TO.N,VDC*%
G36*
X61036395Y-153822872D02*
G01*
X61041848Y-153829324D01*
X61810152Y-156054823D01*
X61809613Y-156063761D01*
X61809110Y-156064687D01*
X61080880Y-157271153D01*
X61073671Y-157276465D01*
X61064817Y-157275124D01*
X61062590Y-157273380D01*
X60366052Y-156576842D01*
X59808657Y-156066189D01*
X59804872Y-156058074D01*
X59806290Y-156051958D01*
X61020519Y-153827535D01*
X61027491Y-153821916D01*
X61036395Y-153822872D01*
G37*
%TD.AperFunction*%
%TD*%
%TA.AperFunction,Conductor*%
%TO.N,VDC*%
G36*
X38013211Y-169877865D02*
G01*
X38019677Y-169884060D01*
X38020664Y-169888894D01*
X38019288Y-170015937D01*
X38015862Y-170024083D01*
X37178412Y-170861533D01*
X37170139Y-170864960D01*
X37162476Y-170862102D01*
X37161819Y-170861533D01*
X36195532Y-170024083D01*
X36116416Y-169955516D01*
X36112409Y-169947508D01*
X36113263Y-169942214D01*
X36394918Y-169259890D01*
X36401241Y-169253552D01*
X36409976Y-169253454D01*
X38013211Y-169877865D01*
G37*
%TD.AperFunction*%
%TD*%
%TA.AperFunction,Conductor*%
%TO.N,VDC*%
G36*
X39737542Y-171738203D02*
G01*
X40742575Y-172644411D01*
X40746424Y-172652496D01*
X40745506Y-172657680D01*
X40455220Y-173340095D01*
X40448829Y-173346366D01*
X40440030Y-173346346D01*
X38866686Y-172703713D01*
X38860323Y-172697413D01*
X38859615Y-172690702D01*
X38880091Y-172582829D01*
X38883310Y-172576743D01*
X39721435Y-171738618D01*
X39729707Y-171735192D01*
X39737542Y-171738203D01*
G37*
%TD.AperFunction*%
%TD*%
%TA.AperFunction,Conductor*%
%TO.N,VDC*%
G36*
X34708265Y-152257277D02*
G01*
X35395139Y-152945131D01*
X35398560Y-152953406D01*
X35398110Y-152956612D01*
X35202425Y-153641513D01*
X35196857Y-153648527D01*
X35191175Y-153649999D01*
X34208825Y-153649999D01*
X34200552Y-153646572D01*
X34197575Y-153641513D01*
X34001889Y-152956612D01*
X34002911Y-152947716D01*
X34004856Y-152945135D01*
X34691722Y-152257289D01*
X34699992Y-152253857D01*
X34708265Y-152257277D01*
G37*
%TD.AperFunction*%
%TD*%
%TA.AperFunction,Conductor*%
%TO.N,VDC*%
G36*
X51298491Y-153822175D02*
G01*
X51304446Y-153828130D01*
X52291515Y-156054958D01*
X52291735Y-156063910D01*
X52291284Y-156064931D01*
X51796984Y-157053532D01*
X51790219Y-157059400D01*
X51786519Y-157060000D01*
X50800981Y-157060000D01*
X50792708Y-157056573D01*
X50790516Y-157053532D01*
X50296214Y-156064929D01*
X50295580Y-156055999D01*
X50295977Y-156054974D01*
X51283054Y-153828129D01*
X51289539Y-153821955D01*
X51298491Y-153822175D01*
G37*
%TD.AperFunction*%
%TD*%
%TA.AperFunction,Conductor*%
%TO.N,VDC*%
G36*
X42839524Y-172748897D02*
G01*
X42847393Y-172753171D01*
X42849999Y-172760533D01*
X42849999Y-173939466D01*
X42846572Y-173947739D01*
X42839524Y-173951102D01*
X41903310Y-174049650D01*
X41897001Y-174048552D01*
X40470843Y-173360537D01*
X40464881Y-173353856D01*
X40465389Y-173344915D01*
X40470840Y-173339463D01*
X41897004Y-172651445D01*
X41903309Y-172650348D01*
X42839524Y-172748897D01*
G37*
%TD.AperFunction*%
%TD*%
%TA.AperFunction,Conductor*%
%TO.N,VDC*%
G36*
X43252996Y-172651446D02*
G01*
X44341032Y-173176342D01*
X44679156Y-173339462D01*
X44685118Y-173346143D01*
X44684610Y-173355084D01*
X44679155Y-173360538D01*
X43866509Y-173752579D01*
X43866508Y-173752579D01*
X43252997Y-174048553D01*
X43246688Y-174049651D01*
X42310476Y-173951102D01*
X42302607Y-173946828D01*
X42300001Y-173939466D01*
X42300001Y-172760533D01*
X42303428Y-172752260D01*
X42310474Y-172748897D01*
X43246690Y-172650349D01*
X43252996Y-172651446D01*
G37*
%TD.AperFunction*%
%TD*%
%TA.AperFunction,Conductor*%
%TO.N,VDC*%
G36*
X63629435Y-157678427D02*
G01*
X63630962Y-157680309D01*
X63909642Y-158107670D01*
X63911291Y-158116472D01*
X63907778Y-158122658D01*
X63532598Y-158468986D01*
X63524195Y-158472080D01*
X63517105Y-158469321D01*
X63122567Y-158135536D01*
X63118464Y-158127577D01*
X63119993Y-158120751D01*
X63374122Y-157680847D01*
X63381228Y-157675398D01*
X63384253Y-157675000D01*
X63621162Y-157675000D01*
X63629435Y-157678427D01*
G37*
%TD.AperFunction*%
%TD*%
%TA.AperFunction,Conductor*%
%TO.N,VDC*%
G36*
X63510759Y-155717283D02*
G01*
X63845851Y-156053332D01*
X63849266Y-156061610D01*
X63847408Y-156067920D01*
X63630954Y-156404627D01*
X63623597Y-156409733D01*
X63621112Y-156410000D01*
X63383888Y-156410000D01*
X63375615Y-156406573D01*
X63374046Y-156404627D01*
X63157591Y-156067920D01*
X63156000Y-156059108D01*
X63159146Y-156053334D01*
X63494216Y-155717307D01*
X63502483Y-155713869D01*
X63510759Y-155717283D01*
G37*
%TD.AperFunction*%
%TD*%
%TA.AperFunction,Conductor*%
%TO.N,VDC*%
G36*
X47357778Y-172670548D02*
G01*
X47768106Y-172851208D01*
X48876679Y-173339292D01*
X48882869Y-173345762D01*
X48882672Y-173354715D01*
X48876678Y-173360708D01*
X47354329Y-174030970D01*
X46500001Y-173850000D01*
X46500001Y-172859481D01*
X46503428Y-172851208D01*
X46509275Y-172848035D01*
X47350641Y-172669811D01*
X47357778Y-172670548D01*
G37*
%TD.AperFunction*%
%TD*%
%TA.AperFunction,Conductor*%
%TO.N,VDC*%
G36*
X47090724Y-172848035D02*
G01*
X47098107Y-172853102D01*
X47099999Y-172859481D01*
X47099999Y-173850000D01*
X46245671Y-174030970D01*
X44723319Y-173360707D01*
X44717130Y-173354238D01*
X44717327Y-173345285D01*
X44723319Y-173339292D01*
X46242221Y-172670548D01*
X46249358Y-172669811D01*
X47090724Y-172848035D01*
G37*
%TD.AperFunction*%
%TD*%
%TA.AperFunction,Conductor*%
%TO.N,VDC*%
G36*
X44251518Y-164177106D02*
G01*
X44253012Y-164178369D01*
X44417405Y-164342762D01*
X44420832Y-164351035D01*
X44417565Y-164359146D01*
X44128624Y-164659563D01*
X44120419Y-164663150D01*
X44119775Y-164663145D01*
X43358758Y-164636044D01*
X43350612Y-164632324D01*
X43347651Y-164626379D01*
X43298425Y-164346600D01*
X43300366Y-164337860D01*
X43307921Y-164333051D01*
X43307936Y-164333048D01*
X44242791Y-164175105D01*
X44251518Y-164177106D01*
G37*
%TD.AperFunction*%
%TD*%
%TA.AperFunction,Conductor*%
%TO.N,Net-(D3-K)*%
G36*
X37440909Y-165751232D02*
G01*
X37583763Y-165810018D01*
X37796195Y-165897436D01*
X37802542Y-165903754D01*
X37802563Y-165903804D01*
X37948767Y-166259090D01*
X37948746Y-166268044D01*
X37942760Y-166274206D01*
X37330071Y-166550747D01*
X37321121Y-166551027D01*
X37316985Y-166548356D01*
X37151643Y-166383014D01*
X37148216Y-166374741D01*
X37149252Y-166369928D01*
X37195238Y-166268044D01*
X37425794Y-165757238D01*
X37432320Y-165751108D01*
X37440909Y-165751232D01*
G37*
%TD.AperFunction*%
%TD*%
%TA.AperFunction,Conductor*%
%TO.N,Net-(D3-K)*%
G36*
X37948239Y-165908925D02*
G01*
X37954424Y-165915400D01*
X37954606Y-165915905D01*
X38048286Y-166194884D01*
X38047671Y-166203817D01*
X38041922Y-166209311D01*
X37378588Y-166502281D01*
X37369636Y-166502488D01*
X37365588Y-166499851D01*
X37197172Y-166331435D01*
X37193888Y-166324983D01*
X37176466Y-166214315D01*
X37178565Y-166205613D01*
X37183793Y-166201591D01*
X37939287Y-165908720D01*
X37948239Y-165908925D01*
G37*
%TD.AperFunction*%
%TD*%
%TA.AperFunction,Conductor*%
%TO.N,Net-(D3-K)*%
G36*
X35451885Y-166378963D02*
G01*
X35456242Y-166386787D01*
X35456320Y-166388134D01*
X35456320Y-166619753D01*
X35452893Y-166628026D01*
X35452403Y-166628489D01*
X35210000Y-166844450D01*
X35201543Y-166847395D01*
X35193967Y-166844010D01*
X35086617Y-166737264D01*
X35027468Y-166678449D01*
X35024019Y-166670187D01*
X35024958Y-166435377D01*
X35028418Y-166427120D01*
X35035309Y-166423804D01*
X35443274Y-166376512D01*
X35451885Y-166378963D01*
G37*
%TD.AperFunction*%
%TD*%
%TA.AperFunction,Conductor*%
%TO.N,Net-(D3-K)*%
G36*
X35140207Y-166690305D02*
G01*
X35143634Y-166698578D01*
X35142611Y-166703364D01*
X34906799Y-167229462D01*
X34900288Y-167235609D01*
X34891678Y-167235499D01*
X34629510Y-167127852D01*
X34623160Y-167121542D01*
X34514657Y-166858647D01*
X34514668Y-166849694D01*
X34521006Y-166843371D01*
X34897854Y-166687763D01*
X34902319Y-166686878D01*
X35131934Y-166686878D01*
X35140207Y-166690305D01*
G37*
%TD.AperFunction*%
%TD*%
%TA.AperFunction,Conductor*%
%TO.N,Net-(D3-K)*%
G36*
X34803849Y-166583353D02*
G01*
X35021177Y-166672436D01*
X35027531Y-166678744D01*
X35027564Y-166678824D01*
X35116966Y-166896932D01*
X35116933Y-166905886D01*
X35112440Y-166911228D01*
X34782744Y-167121892D01*
X34773927Y-167123459D01*
X34768171Y-167120306D01*
X34604149Y-166956284D01*
X34600722Y-166948011D01*
X34602077Y-166942547D01*
X34789071Y-166588711D01*
X34795965Y-166583000D01*
X34803849Y-166583353D01*
G37*
%TD.AperFunction*%
%TD*%
%TA.AperFunction,Conductor*%
%TO.N,Net-(D3-K)*%
G36*
X35141924Y-166678427D02*
G01*
X35145351Y-166686700D01*
X35144725Y-166690475D01*
X34878982Y-167470146D01*
X34873070Y-167476871D01*
X34864133Y-167477445D01*
X34863545Y-167477227D01*
X34429920Y-167302977D01*
X34423522Y-167296713D01*
X34423243Y-167295996D01*
X34262227Y-166837301D01*
X34262721Y-166828360D01*
X34269392Y-166822386D01*
X34270586Y-166822038D01*
X34898686Y-166675307D01*
X34901348Y-166675000D01*
X35133651Y-166675000D01*
X35141924Y-166678427D01*
G37*
%TD.AperFunction*%
%TD*%
%TA.AperFunction,Conductor*%
%TO.N,Net-(U7-BOOT)*%
G36*
X36306866Y-166854668D02*
G01*
X36313688Y-166858214D01*
X36868697Y-167146723D01*
X36874456Y-167153578D01*
X36875000Y-167157103D01*
X36875000Y-167442896D01*
X36871573Y-167451169D01*
X36868696Y-167453277D01*
X36306866Y-167745331D01*
X36297945Y-167746106D01*
X36291974Y-167741785D01*
X36084321Y-167453277D01*
X35978918Y-167306834D01*
X35976867Y-167298118D01*
X35978919Y-167293165D01*
X36291975Y-166858212D01*
X36299588Y-166853501D01*
X36306866Y-166854668D01*
G37*
%TD.AperFunction*%
%TD*%
%TA.AperFunction,Conductor*%
%TO.N,Net-(U7-BOOT)*%
G36*
X43357599Y-165913746D02*
G01*
X43357617Y-165913769D01*
X43564497Y-166197474D01*
X43566602Y-166206178D01*
X43563881Y-166212035D01*
X43302164Y-166513711D01*
X43294154Y-166517715D01*
X43285659Y-166514882D01*
X43285053Y-166514317D01*
X43081804Y-166311068D01*
X43081802Y-166311066D01*
X42953080Y-166214467D01*
X42948521Y-166206761D01*
X42950746Y-166198087D01*
X42953183Y-166195677D01*
X43341247Y-165911226D01*
X43349945Y-165909099D01*
X43357599Y-165913746D01*
G37*
%TD.AperFunction*%
%TD*%
%TA.AperFunction,Conductor*%
%TO.N,Net-(U7-COMP)*%
G36*
X37179824Y-163066865D02*
G01*
X37922771Y-163354087D01*
X37929252Y-163360267D01*
X37929465Y-163369219D01*
X37923285Y-163375700D01*
X37922771Y-163375913D01*
X37179824Y-163663134D01*
X37170872Y-163662921D01*
X37170373Y-163662686D01*
X36881468Y-163518234D01*
X36875600Y-163511469D01*
X36875000Y-163507769D01*
X36875000Y-163222231D01*
X36878427Y-163213958D01*
X36881468Y-163211766D01*
X37170374Y-163067312D01*
X37179305Y-163066678D01*
X37179824Y-163066865D01*
G37*
%TD.AperFunction*%
%TD*%
%TA.AperFunction,Conductor*%
%TO.N,Net-(U7-COMP)*%
G36*
X35054452Y-164904831D02*
G01*
X35220075Y-165070454D01*
X35223502Y-165078727D01*
X35222540Y-165083374D01*
X34879565Y-165875845D01*
X34873134Y-165882077D01*
X34864370Y-165882016D01*
X34429216Y-165702735D01*
X34422872Y-165696415D01*
X34422592Y-165695674D01*
X34267103Y-165235358D01*
X34267702Y-165226426D01*
X34273703Y-165220811D01*
X35041698Y-164902296D01*
X35050652Y-164902293D01*
X35054452Y-164904831D01*
G37*
%TD.AperFunction*%
%TD*%
%TA.AperFunction,Conductor*%
%TO.N,Net-(U7-COMP)*%
G36*
X36423936Y-162538457D02*
G01*
X36429881Y-162543985D01*
X36781554Y-163240680D01*
X36782223Y-163249610D01*
X36779382Y-163254225D01*
X36578931Y-163454676D01*
X36570658Y-163458103D01*
X36565887Y-163457086D01*
X35942758Y-163178771D01*
X35936601Y-163172268D01*
X35936033Y-163165916D01*
X36023114Y-162705521D01*
X36028019Y-162698030D01*
X36030147Y-162696882D01*
X36414983Y-162538438D01*
X36423936Y-162538457D01*
G37*
%TD.AperFunction*%
%TD*%
%TA.AperFunction,Conductor*%
%TO.N,Net-(U7-COMP)*%
G36*
X35635315Y-162538561D02*
G01*
X36019844Y-162696879D01*
X36026189Y-162703197D01*
X36026885Y-162705523D01*
X36113908Y-163165602D01*
X36112079Y-163174367D01*
X36106829Y-163178610D01*
X35466279Y-163439759D01*
X35457324Y-163439709D01*
X35453589Y-163437198D01*
X35288110Y-163271719D01*
X35284683Y-163263446D01*
X35285787Y-163258485D01*
X35620268Y-162544417D01*
X35626879Y-162538380D01*
X35635315Y-162538561D01*
G37*
%TD.AperFunction*%
%TD*%
%TA.AperFunction,Conductor*%
%TO.N,Net-(C20-Pad2)*%
G36*
X34382902Y-162706240D02*
G01*
X34645197Y-162946558D01*
X34753287Y-163045592D01*
X34757072Y-163053708D01*
X34755863Y-163059420D01*
X34503225Y-163568501D01*
X34496478Y-163574388D01*
X34492745Y-163575000D01*
X34257255Y-163575000D01*
X34248982Y-163571573D01*
X34246775Y-163568501D01*
X33994136Y-163059420D01*
X33993528Y-163050486D01*
X33996711Y-163045593D01*
X34367097Y-162706240D01*
X34375511Y-162703179D01*
X34382902Y-162706240D01*
G37*
%TD.AperFunction*%
%TD*%
%TA.AperFunction,Conductor*%
%TO.N,Net-(C20-Pad2)*%
G36*
X34501691Y-163278427D02*
G01*
X34503417Y-163280624D01*
X34852013Y-163854320D01*
X34853380Y-163863170D01*
X34849217Y-163869616D01*
X34432191Y-164195381D01*
X34423561Y-164197774D01*
X34417799Y-164195392D01*
X33999304Y-163869485D01*
X33994882Y-163861698D01*
X33995775Y-163855563D01*
X34246932Y-163282007D01*
X34253389Y-163275803D01*
X34257649Y-163275000D01*
X34493418Y-163275000D01*
X34501691Y-163278427D01*
G37*
%TD.AperFunction*%
%TD*%
%TA.AperFunction,Conductor*%
%TO.N,/VS2*%
G36*
X47559527Y-153708845D02*
G01*
X48286227Y-154085231D01*
X48291997Y-154092079D01*
X48291807Y-154099713D01*
X48166452Y-154435439D01*
X48160348Y-154441990D01*
X48160314Y-154442006D01*
X47823655Y-154594339D01*
X47814705Y-154594627D01*
X47808554Y-154589269D01*
X47543872Y-154102614D01*
X47542450Y-154097024D01*
X47542450Y-153719235D01*
X47545877Y-153710962D01*
X47554150Y-153707535D01*
X47559527Y-153708845D01*
G37*
%TD.AperFunction*%
%TD*%
%TA.AperFunction,Conductor*%
%TO.N,/VS2*%
G36*
X46788570Y-153602234D02*
G01*
X47365218Y-153698370D01*
X47372815Y-153703111D01*
X47374994Y-153709911D01*
X47374994Y-154090088D01*
X47371567Y-154098361D01*
X47365217Y-154101629D01*
X46788577Y-154197709D01*
X46779853Y-154195688D01*
X46775113Y-154188091D01*
X46774954Y-154186207D01*
X46774000Y-153899972D01*
X46774954Y-153613736D01*
X46778408Y-153605475D01*
X46786693Y-153602076D01*
X46788570Y-153602234D01*
G37*
%TD.AperFunction*%
%TD*%
%TA.AperFunction,Conductor*%
%TO.N,/VS2*%
G36*
X47122387Y-153473132D02*
G01*
X47804333Y-153805310D01*
X47810270Y-153812013D01*
X47809727Y-153820952D01*
X47807482Y-153824101D01*
X47537395Y-154094188D01*
X47534829Y-154096129D01*
X47119882Y-154327968D01*
X47110988Y-154329012D01*
X47104935Y-154324932D01*
X46779913Y-153906528D01*
X46777544Y-153897892D01*
X46779968Y-153892102D01*
X47108081Y-153476399D01*
X47115895Y-153472030D01*
X47122387Y-153473132D01*
G37*
%TD.AperFunction*%
%TD*%
%TA.AperFunction,Conductor*%
%TO.N,/VS1*%
G36*
X57554362Y-154092954D02*
G01*
X57557878Y-154095363D01*
X57687639Y-154224754D01*
X57895101Y-154431625D01*
X57898540Y-154439893D01*
X57895125Y-154448171D01*
X57895012Y-154448283D01*
X57558205Y-154777000D01*
X57549891Y-154780326D01*
X57545230Y-154779296D01*
X57209397Y-154628105D01*
X57203260Y-154621584D01*
X57202500Y-154617436D01*
X57202500Y-154233027D01*
X57205927Y-154224754D01*
X57209987Y-154222111D01*
X57545411Y-154092734D01*
X57554362Y-154092954D01*
G37*
%TD.AperFunction*%
%TD*%
%TA.AperFunction,Conductor*%
%TO.N,/VS1*%
G36*
X56744251Y-153995348D02*
G01*
X57317602Y-154222074D01*
X57324036Y-154228303D01*
X57325000Y-154232954D01*
X57325000Y-154617045D01*
X57321573Y-154625318D01*
X57317602Y-154627925D01*
X56744253Y-154854650D01*
X56735300Y-154854506D01*
X56730720Y-154850959D01*
X56557030Y-154627925D01*
X56404597Y-154432188D01*
X56402218Y-154423556D01*
X56404597Y-154417812D01*
X56730720Y-153999039D01*
X56738507Y-153994618D01*
X56744251Y-153995348D01*
G37*
%TD.AperFunction*%
%TD*%
%TA.AperFunction,Conductor*%
%TO.N,/VS1*%
G36*
X57559167Y-154096648D02*
G01*
X57895191Y-154431715D01*
X57898630Y-154439983D01*
X57895215Y-154448261D01*
X57895191Y-154448285D01*
X57559167Y-154783351D01*
X57550889Y-154786766D01*
X57544579Y-154784908D01*
X57207873Y-154568454D01*
X57202767Y-154561097D01*
X57202500Y-154558612D01*
X57202500Y-154321387D01*
X57205927Y-154313114D01*
X57207867Y-154311549D01*
X57544581Y-154095090D01*
X57553391Y-154093500D01*
X57559167Y-154096648D01*
G37*
%TD.AperFunction*%
%TD*%
%TA.AperFunction,Conductor*%
%TO.N,/VS1*%
G36*
X56744839Y-153996916D02*
G01*
X57318925Y-154311669D01*
X57324532Y-154318651D01*
X57325000Y-154321928D01*
X57325000Y-154557751D01*
X57321573Y-154566024D01*
X57318510Y-154568227D01*
X56744668Y-154853613D01*
X56735734Y-154854229D01*
X56730227Y-154850326D01*
X56502381Y-154557751D01*
X56404597Y-154432188D01*
X56402218Y-154423556D01*
X56404597Y-154417812D01*
X56729984Y-153999985D01*
X56737770Y-153995564D01*
X56744839Y-153996916D01*
G37*
%TD.AperFunction*%
%TD*%
%TA.AperFunction,Conductor*%
%TO.N,/VS1*%
G36*
X55678076Y-154984413D02*
G01*
X55842672Y-155149009D01*
X55846099Y-155157282D01*
X55845540Y-155160854D01*
X55691031Y-155642742D01*
X55685242Y-155649574D01*
X55676318Y-155650311D01*
X55675446Y-155649993D01*
X55411483Y-155541606D01*
X55407626Y-155539029D01*
X55207398Y-155337461D01*
X55203999Y-155329176D01*
X55207453Y-155320914D01*
X55208723Y-155319823D01*
X55662839Y-154983285D01*
X55671524Y-154981113D01*
X55678076Y-154984413D01*
G37*
%TD.AperFunction*%
%TD*%
%TA.AperFunction,Conductor*%
%TO.N,/VS1*%
G36*
X56395661Y-154422588D02*
G01*
X56402403Y-154428483D01*
X56402735Y-154429216D01*
X56582016Y-154864370D01*
X56581999Y-154873325D01*
X56575845Y-154879565D01*
X55783374Y-155222540D01*
X55774420Y-155222681D01*
X55770454Y-155220075D01*
X55604831Y-155054452D01*
X55601404Y-155046179D01*
X55602297Y-155041697D01*
X55669539Y-154879565D01*
X55920811Y-154273703D01*
X55927143Y-154267377D01*
X55935358Y-154267103D01*
X56395661Y-154422588D01*
G37*
%TD.AperFunction*%
%TD*%
%TA.AperFunction,Conductor*%
%TO.N,/VS3*%
G36*
X37319251Y-153595348D02*
G01*
X37892602Y-153822074D01*
X37899036Y-153828303D01*
X37900000Y-153832954D01*
X37900000Y-154217045D01*
X37896573Y-154225318D01*
X37892602Y-154227925D01*
X37319253Y-154454650D01*
X37310300Y-154454506D01*
X37305720Y-154450959D01*
X37132030Y-154227925D01*
X36979597Y-154032188D01*
X36977218Y-154023556D01*
X36979597Y-154017812D01*
X37305720Y-153599039D01*
X37313507Y-153594618D01*
X37319251Y-153595348D01*
G37*
%TD.AperFunction*%
%TD*%
%TA.AperFunction,Conductor*%
%TO.N,/VS3*%
G36*
X37742415Y-153830309D02*
G01*
X38489619Y-154086407D01*
X38496334Y-154092330D01*
X38497082Y-154100661D01*
X38402325Y-154435319D01*
X38396774Y-154442346D01*
X38396748Y-154442361D01*
X38058704Y-154630083D01*
X38049808Y-154631103D01*
X38043836Y-154627097D01*
X37874204Y-154411869D01*
X37729434Y-154228185D01*
X37726923Y-154220943D01*
X37726923Y-153841378D01*
X37730350Y-153833105D01*
X37738623Y-153829678D01*
X37742415Y-153830309D01*
G37*
%TD.AperFunction*%
%TD*%
%TA.AperFunction,Conductor*%
%TO.N,Net-(D1-A)*%
G36*
X60672131Y-171726990D02*
G01*
X60952118Y-171753480D01*
X60960032Y-171757671D01*
X60962469Y-171762738D01*
X61111225Y-172475559D01*
X61109843Y-172483904D01*
X60908058Y-172825162D01*
X60900898Y-172830539D01*
X60892032Y-172829278D01*
X60889714Y-172827480D01*
X60621216Y-172558982D01*
X60617789Y-172550709D01*
X60617803Y-172550144D01*
X60659375Y-171738041D01*
X60663221Y-171729956D01*
X60671658Y-171726956D01*
X60672131Y-171726990D01*
G37*
%TD.AperFunction*%
%TD*%
%TA.AperFunction,Conductor*%
%TO.N,Net-(D1-A)*%
G36*
X60672131Y-171726990D02*
G01*
X60952118Y-171753480D01*
X60960032Y-171757671D01*
X60962469Y-171762738D01*
X61111225Y-172475559D01*
X61109843Y-172483904D01*
X60908058Y-172825162D01*
X60900898Y-172830539D01*
X60892032Y-172829278D01*
X60889714Y-172827480D01*
X60621216Y-172558982D01*
X60617789Y-172550709D01*
X60617803Y-172550144D01*
X60659375Y-171738041D01*
X60663221Y-171729956D01*
X60671658Y-171726956D01*
X60672131Y-171726990D01*
G37*
%TD.AperFunction*%
%TD*%
%TA.AperFunction,Conductor*%
%TO.N,Net-(D1-A)*%
G36*
X56356396Y-171729625D02*
G01*
X56360587Y-171737539D01*
X56360624Y-171738043D01*
X56402195Y-172550111D01*
X56399195Y-172558548D01*
X56398783Y-172558982D01*
X56130285Y-172827480D01*
X56122012Y-172830907D01*
X56113739Y-172827480D01*
X56111941Y-172825162D01*
X55910155Y-172483903D01*
X55908774Y-172475561D01*
X56057530Y-171762736D01*
X56062574Y-171755339D01*
X56067879Y-171753480D01*
X56347838Y-171726993D01*
X56356396Y-171729625D01*
G37*
%TD.AperFunction*%
%TD*%
%TA.AperFunction,Conductor*%
%TO.N,Net-(D1-A)*%
G36*
X56356396Y-171729625D02*
G01*
X56360587Y-171737539D01*
X56360624Y-171738043D01*
X56402195Y-172550111D01*
X56399195Y-172558548D01*
X56398783Y-172558982D01*
X56130285Y-172827480D01*
X56122012Y-172830907D01*
X56113739Y-172827480D01*
X56111941Y-172825162D01*
X55910155Y-172483903D01*
X55908774Y-172475561D01*
X56057530Y-171762736D01*
X56062574Y-171755339D01*
X56067879Y-171753480D01*
X56347838Y-171726993D01*
X56356396Y-171729625D01*
G37*
%TD.AperFunction*%
%TD*%
%TA.AperFunction,Conductor*%
%TO.N,+3.3V*%
G36*
X65717318Y-165360651D02*
G01*
X65723629Y-165367002D01*
X65723970Y-165374947D01*
X65577571Y-165841761D01*
X65571825Y-165848630D01*
X65566407Y-165849960D01*
X65333593Y-165849960D01*
X65325320Y-165846533D01*
X65322429Y-165841761D01*
X65176029Y-165374947D01*
X65176823Y-165366028D01*
X65182679Y-165360652D01*
X65445490Y-165250843D01*
X65454444Y-165250817D01*
X65717318Y-165360651D01*
G37*
%TD.AperFunction*%
%TD*%
%TA.AperFunction,Conductor*%
%TO.N,+3.3V*%
G36*
X65457187Y-165254597D02*
G01*
X65875169Y-165580104D01*
X65879591Y-165587891D01*
X65878349Y-165594756D01*
X65578283Y-166168721D01*
X65571413Y-166174465D01*
X65567914Y-166175000D01*
X65332086Y-166175000D01*
X65323813Y-166171573D01*
X65321717Y-166168721D01*
X65021650Y-165594756D01*
X65020854Y-165585836D01*
X65024828Y-165580106D01*
X65442811Y-165254597D01*
X65451444Y-165252218D01*
X65457187Y-165254597D01*
G37*
%TD.AperFunction*%
%TD*%
%TA.AperFunction,Conductor*%
%TO.N,+3.3V*%
G36*
X43191802Y-167872429D02*
G01*
X43198670Y-167878174D01*
X43200000Y-167883592D01*
X43200000Y-168116407D01*
X43196573Y-168124680D01*
X43191801Y-168127571D01*
X42724987Y-168273970D01*
X42716068Y-168273176D01*
X42710691Y-168267318D01*
X42600883Y-168004509D01*
X42600857Y-167995556D01*
X42600862Y-167995542D01*
X42710691Y-167732680D01*
X42717042Y-167726370D01*
X42724986Y-167726029D01*
X43191802Y-167872429D01*
G37*
%TD.AperFunction*%
%TD*%
%TA.AperFunction,Conductor*%
%TO.N,+3.3V*%
G36*
X65339622Y-164983855D02*
G01*
X65340569Y-164985659D01*
X65449797Y-165247076D01*
X65450701Y-165251614D01*
X65450032Y-165536340D01*
X65446586Y-165544606D01*
X65438305Y-165548013D01*
X65436541Y-165547875D01*
X65000751Y-165480389D01*
X64994269Y-165477100D01*
X64830472Y-165313303D01*
X64827045Y-165305030D01*
X64830472Y-165296757D01*
X64832422Y-165295187D01*
X65323460Y-164980320D01*
X65332272Y-164978740D01*
X65339622Y-164983855D01*
G37*
%TD.AperFunction*%
%TD*%
%TA.AperFunction,Conductor*%
%TO.N,+3.3V*%
G36*
X64616759Y-165503193D02*
G01*
X64620941Y-165505881D01*
X64785697Y-165670637D01*
X64789124Y-165678910D01*
X64785697Y-165687183D01*
X64783793Y-165688725D01*
X64430844Y-165917742D01*
X64422038Y-165919370D01*
X64421316Y-165919193D01*
X63657770Y-165705094D01*
X63650729Y-165699560D01*
X63649663Y-165690669D01*
X63655197Y-165683628D01*
X63656634Y-165682945D01*
X63661923Y-165680858D01*
X64353226Y-165408065D01*
X64361607Y-165407987D01*
X64616759Y-165503193D01*
G37*
%TD.AperFunction*%
%TD*%
%TA.AperFunction,Conductor*%
%TO.N,+3.3V*%
G36*
X63751553Y-165098427D02*
G01*
X63753386Y-165100805D01*
X63920463Y-165387222D01*
X63921672Y-165396095D01*
X63918644Y-165401376D01*
X63633287Y-165687685D01*
X63625019Y-165691126D01*
X63616741Y-165687713D01*
X63616713Y-165687685D01*
X63331355Y-165401376D01*
X63327942Y-165393098D01*
X63329534Y-165387225D01*
X63496614Y-165100805D01*
X63503742Y-165095385D01*
X63506720Y-165095000D01*
X63743280Y-165095000D01*
X63751553Y-165098427D01*
G37*
%TD.AperFunction*%
%TD*%
%TA.AperFunction,Conductor*%
%TO.N,+3.3V*%
G36*
X64219209Y-163646890D02*
G01*
X64225809Y-163652942D01*
X64226535Y-163654967D01*
X64344946Y-164115027D01*
X64343689Y-164123893D01*
X64337946Y-164128812D01*
X63752085Y-164362290D01*
X63747754Y-164363121D01*
X63516930Y-164363121D01*
X63508657Y-164359694D01*
X63505230Y-164351421D01*
X63505986Y-164347284D01*
X63767661Y-163654967D01*
X63820913Y-163514077D01*
X63827042Y-163507552D01*
X63835861Y-163507223D01*
X64219209Y-163646890D01*
G37*
%TD.AperFunction*%
%TD*%
%TA.AperFunction,Conductor*%
%TO.N,+3.3V*%
G36*
X65016663Y-164968873D02*
G01*
X65115284Y-165032589D01*
X65442085Y-165243723D01*
X65447175Y-165251090D01*
X65446307Y-165258565D01*
X65228315Y-165718012D01*
X65221672Y-165724018D01*
X65217271Y-165724687D01*
X64774758Y-165706770D01*
X64766958Y-165703353D01*
X64600497Y-165536892D01*
X64597070Y-165528619D01*
X64599321Y-165521719D01*
X64791474Y-165258565D01*
X65000868Y-164971799D01*
X65008512Y-164967141D01*
X65016663Y-164968873D01*
G37*
%TD.AperFunction*%
%TD*%
%TA.AperFunction,Conductor*%
%TO.N,+3.3V*%
G36*
X49621192Y-159596383D02*
G01*
X49622740Y-159597674D01*
X49824029Y-159797626D01*
X49826606Y-159801483D01*
X49935151Y-160065830D01*
X49935124Y-160074785D01*
X49928772Y-160081097D01*
X49928269Y-160081290D01*
X49456046Y-160250210D01*
X49447102Y-160249770D01*
X49443832Y-160247467D01*
X49279224Y-160082859D01*
X49275797Y-160074586D01*
X49277901Y-160067893D01*
X49604902Y-159599282D01*
X49612447Y-159594459D01*
X49621192Y-159596383D01*
G37*
%TD.AperFunction*%
%TD*%
%TA.AperFunction,Conductor*%
%TO.N,+3.3V*%
G36*
X64582831Y-169235853D02*
G01*
X64589834Y-169239211D01*
X64754495Y-169403872D01*
X64757922Y-169412145D01*
X64754495Y-169420418D01*
X64753570Y-169421250D01*
X64451593Y-169664936D01*
X64443002Y-169667465D01*
X64441977Y-169667309D01*
X63660509Y-169512864D01*
X63653057Y-169507898D01*
X63651299Y-169499118D01*
X63656265Y-169491666D01*
X63658014Y-169490700D01*
X64297115Y-169206283D01*
X64303137Y-169205342D01*
X64582831Y-169235853D01*
G37*
%TD.AperFunction*%
%TD*%
%TA.AperFunction,Conductor*%
%TO.N,+3.3V*%
G36*
X50102177Y-159688893D02*
G01*
X50107456Y-159693282D01*
X50175621Y-159797436D01*
X50362486Y-160082960D01*
X50364149Y-160091758D01*
X50360969Y-160097639D01*
X50196352Y-160262256D01*
X50188079Y-160265683D01*
X50183768Y-160264860D01*
X49721206Y-160081528D01*
X49714778Y-160075294D01*
X49714640Y-160066340D01*
X49714694Y-160066207D01*
X49822436Y-159803815D01*
X49828746Y-159797464D01*
X50093223Y-159688866D01*
X50102177Y-159688893D01*
G37*
%TD.AperFunction*%
%TD*%
%TA.AperFunction,Conductor*%
%TO.N,+3.3V*%
G36*
X56133931Y-168001823D02*
G01*
X56139309Y-168007682D01*
X56249115Y-168270489D01*
X56249142Y-168279444D01*
X56249115Y-168279511D01*
X56139309Y-168542317D01*
X56132957Y-168548629D01*
X56125012Y-168548970D01*
X55658199Y-168402571D01*
X55651330Y-168396825D01*
X55650000Y-168391407D01*
X55650000Y-168162200D01*
X55653427Y-168153927D01*
X55661700Y-168150500D01*
X55789866Y-168150500D01*
X55927958Y-168109953D01*
X56049033Y-168032143D01*
X56055529Y-168024645D01*
X56060865Y-168021146D01*
X56125013Y-168001029D01*
X56133931Y-168001823D01*
G37*
%TD.AperFunction*%
%TD*%
%TA.AperFunction,Conductor*%
%TO.N,Net-(U2-Ud+)*%
G36*
X58269903Y-171810144D02*
G01*
X58271797Y-171814507D01*
X58409006Y-172475217D01*
X58407333Y-172484014D01*
X58407297Y-172484068D01*
X58377587Y-172528811D01*
X58376113Y-172530612D01*
X58214118Y-172692607D01*
X58205845Y-172696034D01*
X58197572Y-172692607D01*
X58194617Y-172687624D01*
X58148615Y-172530612D01*
X58134549Y-172482603D01*
X58134249Y-172477327D01*
X58248813Y-171814890D01*
X58253599Y-171807324D01*
X58262335Y-171805357D01*
X58269903Y-171810144D01*
G37*
%TD.AperFunction*%
%TD*%
%TA.AperFunction,Conductor*%
%TO.N,Net-(U2-Ud+)*%
G36*
X59269441Y-171810468D02*
G01*
X59271187Y-171814892D01*
X59385750Y-172477323D01*
X59385449Y-172482607D01*
X59325382Y-172687624D01*
X59319767Y-172694600D01*
X59310864Y-172695562D01*
X59305881Y-172692607D01*
X59143886Y-172530612D01*
X59142412Y-172528811D01*
X59112702Y-172484068D01*
X59110980Y-172475280D01*
X59110993Y-172475217D01*
X59248202Y-171814507D01*
X59253240Y-171807103D01*
X59262037Y-171805430D01*
X59269441Y-171810468D01*
G37*
%TD.AperFunction*%
%TD*%
%TA.AperFunction,Conductor*%
%TO.N,Net-(U2-Ud+)*%
G36*
X59214118Y-170817392D02*
G01*
X59376113Y-170979387D01*
X59377587Y-170981188D01*
X59407297Y-171025930D01*
X59409019Y-171034718D01*
X59409006Y-171034781D01*
X59271797Y-171695492D01*
X59266759Y-171702896D01*
X59257962Y-171704569D01*
X59250558Y-171699531D01*
X59248813Y-171695109D01*
X59134249Y-171032672D01*
X59134549Y-171027396D01*
X59194617Y-170822374D01*
X59200232Y-170815399D01*
X59209135Y-170814437D01*
X59214118Y-170817392D01*
G37*
%TD.AperFunction*%
%TD*%
%TA.AperFunction,Conductor*%
%TO.N,Net-(U2-Ud+)*%
G36*
X59203286Y-165560312D02*
G01*
X59204156Y-165560999D01*
X59491055Y-165810511D01*
X59495049Y-165818526D01*
X59492205Y-165827017D01*
X59491650Y-165827612D01*
X59327172Y-165992090D01*
X59318899Y-165995517D01*
X59318893Y-165995517D01*
X58360084Y-165995006D01*
X58351812Y-165991575D01*
X58348390Y-165983300D01*
X58348436Y-165982279D01*
X58373483Y-165703306D01*
X58377636Y-165695374D01*
X58383220Y-165692812D01*
X59194564Y-165558285D01*
X59203286Y-165560312D01*
G37*
%TD.AperFunction*%
%TD*%
%TA.AperFunction,Conductor*%
%TO.N,Net-(U2-Ud-)*%
G36*
X58883362Y-170883427D02*
G01*
X58886630Y-170889777D01*
X58909341Y-171026046D01*
X58909500Y-171027969D01*
X58909500Y-171031224D01*
X58909258Y-171033591D01*
X58771458Y-171700543D01*
X58766428Y-171707952D01*
X58757633Y-171709634D01*
X58750224Y-171704604D01*
X58748542Y-171700543D01*
X58610742Y-171033591D01*
X58610500Y-171031224D01*
X58610500Y-171027969D01*
X58610659Y-171026046D01*
X58633370Y-170889777D01*
X58638110Y-170882179D01*
X58644911Y-170880000D01*
X58875089Y-170880000D01*
X58883362Y-170883427D01*
G37*
%TD.AperFunction*%
%TD*%
%TA.AperFunction,Conductor*%
%TO.N,Net-(U2-Ud-)*%
G36*
X57714118Y-170817392D02*
G01*
X57876113Y-170979387D01*
X57877587Y-170981188D01*
X57907297Y-171025930D01*
X57909019Y-171034718D01*
X57909006Y-171034781D01*
X57771797Y-171695492D01*
X57766759Y-171702896D01*
X57757962Y-171704569D01*
X57750558Y-171699531D01*
X57748813Y-171695109D01*
X57634249Y-171032672D01*
X57634549Y-171027396D01*
X57694617Y-170822374D01*
X57700232Y-170815399D01*
X57709135Y-170814437D01*
X57714118Y-170817392D01*
G37*
%TD.AperFunction*%
%TD*%
%TA.AperFunction,Conductor*%
%TO.N,Net-(U2-Ud-)*%
G36*
X58822427Y-170817392D02*
G01*
X58825382Y-170822375D01*
X58885449Y-171027392D01*
X58885750Y-171032676D01*
X58771187Y-171695107D01*
X58766400Y-171702675D01*
X58757664Y-171704642D01*
X58750096Y-171699855D01*
X58748202Y-171695492D01*
X58610993Y-171034781D01*
X58612665Y-171025985D01*
X58642416Y-170981182D01*
X58643881Y-170979392D01*
X58805882Y-170817391D01*
X58814154Y-170813965D01*
X58822427Y-170817392D01*
G37*
%TD.AperFunction*%
%TD*%
%TA.AperFunction,Conductor*%
%TO.N,Net-(U2-Ud-)*%
G36*
X59153768Y-167155969D02*
G01*
X59181656Y-167162827D01*
X59188871Y-167168131D01*
X59190545Y-167173552D01*
X59201987Y-167383527D01*
X59199015Y-167391975D01*
X59198577Y-167392437D01*
X59030970Y-167560044D01*
X59022697Y-167563471D01*
X59018315Y-167562619D01*
X58291445Y-167269026D01*
X58285058Y-167262751D01*
X58284647Y-167254729D01*
X58371038Y-166974837D01*
X58376752Y-166967945D01*
X58385009Y-166966928D01*
X59153768Y-167155969D01*
G37*
%TD.AperFunction*%
%TD*%
%TA.AperFunction,Conductor*%
%TO.N,Net-(D10-K)*%
G36*
X36505470Y-155810273D02*
G01*
X36508246Y-155812328D01*
X36671602Y-155975684D01*
X36674649Y-155981000D01*
X36764590Y-156325342D01*
X36763365Y-156334213D01*
X36757761Y-156339103D01*
X36493795Y-156448835D01*
X36484840Y-156448846D01*
X36484810Y-156448833D01*
X36224688Y-156340147D01*
X36218376Y-156333795D01*
X36218403Y-156324840D01*
X36218862Y-156323872D01*
X36489646Y-155815102D01*
X36496557Y-155809411D01*
X36505470Y-155810273D01*
G37*
%TD.AperFunction*%
%TD*%
%TA.AperFunction,Conductor*%
%TO.N,Net-(D10-K)*%
G36*
X36511843Y-155488280D02*
G01*
X36969569Y-155572995D01*
X36977081Y-155577871D01*
X36977675Y-155578831D01*
X37219088Y-156014677D01*
X37220099Y-156023575D01*
X37214522Y-156030581D01*
X37214434Y-156030629D01*
X36749541Y-156282958D01*
X36639862Y-156342489D01*
X36617611Y-156354566D01*
X36612030Y-156355983D01*
X36378656Y-156355983D01*
X36370383Y-156352556D01*
X36366956Y-156344283D01*
X36367094Y-156342489D01*
X36415492Y-156030629D01*
X36498153Y-155497989D01*
X36502807Y-155490341D01*
X36511508Y-155488223D01*
X36511843Y-155488280D01*
G37*
%TD.AperFunction*%
%TD*%
%TA.AperFunction,Conductor*%
%TO.N,/UDC_AD*%
G36*
X59267155Y-158993628D02*
G01*
X59433499Y-159159972D01*
X59436926Y-159168245D01*
X59436804Y-159169933D01*
X59276951Y-160266064D01*
X59272366Y-160273756D01*
X59263685Y-160275954D01*
X59262036Y-160275590D01*
X58678958Y-160102095D01*
X58672006Y-160096451D01*
X58671989Y-160096420D01*
X58356888Y-159510097D01*
X58355991Y-159501190D01*
X58361449Y-159494370D01*
X59253139Y-158991708D01*
X59262026Y-158990631D01*
X59267155Y-158993628D01*
G37*
%TD.AperFunction*%
%TD*%
%TA.AperFunction,Conductor*%
%TO.N,/UDC_AD*%
G36*
X59651018Y-162728427D02*
G01*
X59653225Y-162731499D01*
X59905863Y-163240579D01*
X59906471Y-163249513D01*
X59903287Y-163254407D01*
X59532904Y-163593758D01*
X59524489Y-163596820D01*
X59517096Y-163593758D01*
X59146712Y-163254407D01*
X59142927Y-163246291D01*
X59144135Y-163240580D01*
X59396775Y-162731499D01*
X59403522Y-162725612D01*
X59407255Y-162725000D01*
X59642745Y-162725000D01*
X59651018Y-162728427D01*
G37*
%TD.AperFunction*%
%TD*%
%TA.AperFunction,Conductor*%
%TO.N,/UDC_AD*%
G36*
X63338725Y-159360341D02*
G01*
X63784197Y-159718299D01*
X63788499Y-159726152D01*
X63786606Y-159733904D01*
X63531902Y-160116402D01*
X63524465Y-160121389D01*
X63516129Y-160119940D01*
X63072847Y-159853052D01*
X63067527Y-159845849D01*
X63067610Y-159839892D01*
X63152945Y-159533504D01*
X63155940Y-159528374D01*
X63323126Y-159361188D01*
X63331398Y-159357762D01*
X63338725Y-159360341D01*
G37*
%TD.AperFunction*%
%TD*%
%TA.AperFunction,Conductor*%
%TO.N,/UDC_AD*%
G36*
X58082366Y-159507354D02*
G01*
X58667706Y-160091720D01*
X58671140Y-160099990D01*
X58667720Y-160108266D01*
X58667706Y-160108280D01*
X58082366Y-160692645D01*
X58074090Y-160696065D01*
X58066838Y-160693538D01*
X57479438Y-160228513D01*
X57475078Y-160220691D01*
X57475000Y-160219340D01*
X57475000Y-159980659D01*
X57478427Y-159972386D01*
X57479432Y-159971491D01*
X58066839Y-159506460D01*
X58075451Y-159504012D01*
X58082366Y-159507354D01*
G37*
%TD.AperFunction*%
%TD*%
%TA.AperFunction,Conductor*%
%TO.N,/UDC_AD*%
G36*
X59270943Y-159925334D02*
G01*
X59276587Y-159932286D01*
X59276951Y-159933935D01*
X59436804Y-161030066D01*
X59434606Y-161038747D01*
X59433499Y-161040027D01*
X59267155Y-161206371D01*
X59258882Y-161209798D01*
X59253137Y-161208290D01*
X58361451Y-160705630D01*
X58355926Y-160698582D01*
X58356889Y-160689902D01*
X58671990Y-160103578D01*
X58678921Y-160097915D01*
X59262037Y-159924409D01*
X59270943Y-159925334D01*
G37*
%TD.AperFunction*%
%TD*%
%TA.AperFunction,Conductor*%
%TO.N,/UDC_AD*%
G36*
X59582187Y-162104597D02*
G01*
X60000169Y-162430104D01*
X60004591Y-162437891D01*
X60003349Y-162444756D01*
X59703283Y-163018721D01*
X59696413Y-163024465D01*
X59692914Y-163025000D01*
X59457086Y-163025000D01*
X59448813Y-163021573D01*
X59446717Y-163018721D01*
X59146650Y-162444756D01*
X59145854Y-162435836D01*
X59149828Y-162430106D01*
X59567811Y-162104597D01*
X59576444Y-162102218D01*
X59582187Y-162104597D01*
G37*
%TD.AperFunction*%
%TD*%
%TA.AperFunction,Conductor*%
%TO.N,/UDC_AD*%
G36*
X59700358Y-162728427D02*
G01*
X59702945Y-162732348D01*
X59906765Y-163240950D01*
X59906662Y-163249904D01*
X59903809Y-163253929D01*
X59533030Y-163593642D01*
X59524615Y-163596704D01*
X59517087Y-163593516D01*
X59151650Y-163247927D01*
X59147994Y-163239752D01*
X59149615Y-163233475D01*
X59446604Y-162730749D01*
X59453763Y-162725369D01*
X59456678Y-162725000D01*
X59692085Y-162725000D01*
X59700358Y-162728427D01*
G37*
%TD.AperFunction*%
%TD*%
%TA.AperFunction,Conductor*%
%TO.N,/VREF*%
G36*
X51052882Y-159575191D02*
G01*
X51314301Y-159684420D01*
X51320613Y-159690772D01*
X51320586Y-159699727D01*
X51319639Y-159701531D01*
X51004819Y-160192566D01*
X50997469Y-160197681D01*
X50988655Y-160196100D01*
X50986697Y-160194524D01*
X50822901Y-160030728D01*
X50819612Y-160024248D01*
X50752085Y-159588447D01*
X50754205Y-159579748D01*
X50761855Y-159575095D01*
X50763607Y-159574958D01*
X51048347Y-159574288D01*
X51052882Y-159575191D01*
G37*
%TD.AperFunction*%
%TD*%
%TA.AperFunction,Conductor*%
%TO.N,/VREF*%
G36*
X51336871Y-159574959D02*
G01*
X51345136Y-159578405D01*
X51348543Y-159586687D01*
X51348463Y-159588028D01*
X51297955Y-160016670D01*
X51294608Y-160023574D01*
X51130636Y-160187546D01*
X51122363Y-160190973D01*
X51114090Y-160187546D01*
X51112733Y-160185916D01*
X50843378Y-159795117D01*
X50841505Y-159786361D01*
X50844709Y-159780234D01*
X51045851Y-159577747D01*
X51054111Y-159574294D01*
X51336871Y-159574959D01*
G37*
%TD.AperFunction*%
%TD*%
%TA.AperFunction,Conductor*%
%TO.N,/T_NRST*%
G36*
X69754198Y-154494407D02*
G01*
X70263039Y-154865547D01*
X70267703Y-154873191D01*
X70265597Y-154881895D01*
X70263039Y-154884453D01*
X69754198Y-155255592D01*
X69745494Y-155257698D01*
X69742102Y-155256619D01*
X69231499Y-155003225D01*
X69225612Y-154996478D01*
X69225000Y-154992745D01*
X69225000Y-154757254D01*
X69228427Y-154748981D01*
X69231495Y-154746776D01*
X69742103Y-154493379D01*
X69751036Y-154492772D01*
X69754198Y-154494407D01*
G37*
%TD.AperFunction*%
%TD*%
%TA.AperFunction,Conductor*%
%TO.N,/T_NRST*%
G36*
X64804452Y-161354831D02*
G01*
X64970075Y-161520454D01*
X64973502Y-161528727D01*
X64972540Y-161533374D01*
X64629565Y-162325845D01*
X64623134Y-162332077D01*
X64614370Y-162332016D01*
X64179216Y-162152735D01*
X64172872Y-162146415D01*
X64172592Y-162145674D01*
X64017103Y-161685358D01*
X64017702Y-161676426D01*
X64023703Y-161670811D01*
X64791698Y-161352296D01*
X64800652Y-161352293D01*
X64804452Y-161354831D01*
G37*
%TD.AperFunction*%
%TD*%
%TA.AperFunction,Conductor*%
%TO.N,/T_NRST*%
G36*
X63142675Y-162910290D02*
G01*
X63146410Y-162912801D01*
X63311889Y-163078280D01*
X63315316Y-163086553D01*
X63314211Y-163091516D01*
X62979732Y-163805582D01*
X62973120Y-163811620D01*
X62964683Y-163811438D01*
X62580156Y-163653121D01*
X62573810Y-163646802D01*
X62573114Y-163644476D01*
X62486092Y-163184397D01*
X62487921Y-163175632D01*
X62493169Y-163171389D01*
X63133721Y-162910240D01*
X63142675Y-162910290D01*
G37*
%TD.AperFunction*%
%TD*%
%TA.AperFunction,Conductor*%
%TO.N,/T_NRST*%
G36*
X63735202Y-161949121D02*
G01*
X64170813Y-162147069D01*
X64176927Y-162153611D01*
X64177207Y-162154454D01*
X64310835Y-162614163D01*
X64309854Y-162623064D01*
X64303270Y-162628539D01*
X63518626Y-162887733D01*
X63509695Y-162887074D01*
X63506683Y-162884896D01*
X63341004Y-162719217D01*
X63337577Y-162710944D01*
X63338842Y-162705654D01*
X63719929Y-161954480D01*
X63726728Y-161948653D01*
X63735202Y-161949121D01*
G37*
%TD.AperFunction*%
%TD*%
%TA.AperFunction,Conductor*%
%TO.N,/T_NRST*%
G36*
X62185315Y-163488561D02*
G01*
X62569844Y-163646879D01*
X62576189Y-163653197D01*
X62576885Y-163655523D01*
X62663908Y-164115602D01*
X62662079Y-164124367D01*
X62656829Y-164128610D01*
X62016279Y-164389759D01*
X62007324Y-164389709D01*
X62003589Y-164387198D01*
X61838110Y-164221719D01*
X61834683Y-164213446D01*
X61835787Y-164208485D01*
X62170268Y-163494417D01*
X62176879Y-163488380D01*
X62185315Y-163488561D01*
G37*
%TD.AperFunction*%
%TD*%
%TA.AperFunction,Conductor*%
%TO.N,/M1_GL_C*%
G36*
X46183986Y-148686318D02*
G01*
X46243016Y-148710983D01*
X46249328Y-148717335D01*
X46249895Y-148724456D01*
X46142121Y-149183021D01*
X46136892Y-149190291D01*
X46130731Y-149192044D01*
X45897902Y-149192044D01*
X45889629Y-149188617D01*
X45887049Y-149184714D01*
X45809918Y-148993160D01*
X45702149Y-148725516D01*
X45702237Y-148716564D01*
X45708489Y-148710353D01*
X45970490Y-148600883D01*
X45979444Y-148600857D01*
X46183986Y-148686318D01*
G37*
%TD.AperFunction*%
%TD*%
%TA.AperFunction,Conductor*%
%TO.N,/M1_GL_C*%
G36*
X46071448Y-148520098D02*
G01*
X46071655Y-148520310D01*
X46434756Y-148902300D01*
X46437972Y-148910658D01*
X46434677Y-148918505D01*
X46023547Y-149342619D01*
X46015328Y-149346174D01*
X46007327Y-149343178D01*
X45553023Y-148935029D01*
X45549159Y-148926951D01*
X45552139Y-148918507D01*
X45554213Y-148916685D01*
X45886613Y-148688388D01*
X46054903Y-148520097D01*
X46063175Y-148516671D01*
X46071448Y-148520098D01*
G37*
%TD.AperFunction*%
%TD*%
%TA.AperFunction,Conductor*%
%TO.N,Net-(U7-FB)*%
G36*
X36592675Y-160360290D02*
G01*
X36596410Y-160362801D01*
X36761889Y-160528280D01*
X36765316Y-160536553D01*
X36764211Y-160541516D01*
X36429732Y-161255582D01*
X36423120Y-161261620D01*
X36414683Y-161261438D01*
X36030156Y-161103121D01*
X36023810Y-161096802D01*
X36023114Y-161094476D01*
X35936092Y-160634397D01*
X35937921Y-160625632D01*
X35943169Y-160621389D01*
X36583721Y-160360240D01*
X36592675Y-160360290D01*
G37*
%TD.AperFunction*%
%TD*%
%TA.AperFunction,Conductor*%
%TO.N,Net-(U7-FB)*%
G36*
X38002260Y-161498427D02*
G01*
X38003500Y-161499889D01*
X38209353Y-161787441D01*
X38211383Y-161796163D01*
X38208625Y-161801979D01*
X37957753Y-162087185D01*
X37949716Y-162091134D01*
X37941241Y-162088243D01*
X37941211Y-162088217D01*
X37616648Y-161800789D01*
X37612726Y-161792739D01*
X37613800Y-161787087D01*
X37746850Y-161501754D01*
X37753452Y-161495706D01*
X37757454Y-161495000D01*
X37993987Y-161495000D01*
X38002260Y-161498427D01*
G37*
%TD.AperFunction*%
%TD*%
%TA.AperFunction,Conductor*%
%TO.N,Net-(U7-FB)*%
G36*
X37882902Y-160406240D02*
G01*
X38145197Y-160646558D01*
X38253287Y-160745592D01*
X38257072Y-160753708D01*
X38255863Y-160759420D01*
X38003225Y-161268501D01*
X37996478Y-161274388D01*
X37992745Y-161275000D01*
X37757255Y-161275000D01*
X37748982Y-161271573D01*
X37746775Y-161268501D01*
X37494136Y-160759420D01*
X37493528Y-160750486D01*
X37496711Y-160745593D01*
X37867097Y-160406240D01*
X37875511Y-160403179D01*
X37882902Y-160406240D01*
G37*
%TD.AperFunction*%
%TD*%
%TA.AperFunction,Conductor*%
%TO.N,Net-(U7-FB)*%
G36*
X37529119Y-160007371D02*
G01*
X37869155Y-160392253D01*
X37872065Y-160400722D01*
X37869155Y-160407747D01*
X37529119Y-160792628D01*
X37521073Y-160796559D01*
X37514226Y-160794850D01*
X37080575Y-160528425D01*
X37075320Y-160521174D01*
X37075000Y-160518456D01*
X37075000Y-160281543D01*
X37078427Y-160273270D01*
X37080570Y-160271577D01*
X37514226Y-160005148D01*
X37523069Y-160003738D01*
X37529119Y-160007371D01*
G37*
%TD.AperFunction*%
%TD*%
%TA.AperFunction,Conductor*%
%TO.N,Net-(U7-RT{slash}CLK)*%
G36*
X44057902Y-160211240D02*
G01*
X44387200Y-160512947D01*
X44428547Y-160550830D01*
X44432332Y-160558946D01*
X44431318Y-160564245D01*
X44203100Y-161073088D01*
X44196588Y-161079234D01*
X44192425Y-161080000D01*
X43907575Y-161080000D01*
X43899302Y-161076573D01*
X43896900Y-161073088D01*
X43668681Y-160564245D01*
X43668422Y-160555294D01*
X43671450Y-160550832D01*
X44042097Y-160211240D01*
X44050511Y-160208179D01*
X44057902Y-160211240D01*
G37*
%TD.AperFunction*%
%TD*%
%TA.AperFunction,Conductor*%
%TO.N,/Ialpha*%
G36*
X56976295Y-162451165D02*
G01*
X56976909Y-162451733D01*
X57177671Y-162651553D01*
X57181117Y-162659818D01*
X57181117Y-162659885D01*
X57180167Y-162944862D01*
X57176713Y-162953124D01*
X57170094Y-162956409D01*
X56694943Y-163023128D01*
X56686274Y-163020885D01*
X56681730Y-163013169D01*
X56681616Y-163011542D01*
X56681616Y-162779347D01*
X56684455Y-162771707D01*
X56959795Y-162452385D01*
X56967792Y-162448358D01*
X56976295Y-162451165D01*
G37*
%TD.AperFunction*%
%TD*%
%TA.AperFunction,Conductor*%
%TO.N,Net-(D5-A)*%
G36*
X65289614Y-145683929D02*
G01*
X65290626Y-145685834D01*
X65400088Y-145947817D01*
X65400992Y-145952367D01*
X65400041Y-146237588D01*
X65396587Y-146245850D01*
X65388302Y-146249249D01*
X65387612Y-146249226D01*
X64850642Y-146215685D01*
X64842598Y-146211749D01*
X64839671Y-146204008D01*
X64839671Y-145971318D01*
X64843098Y-145963045D01*
X64844949Y-145961538D01*
X65273415Y-145680560D01*
X65282211Y-145678890D01*
X65289614Y-145683929D01*
G37*
%TD.AperFunction*%
%TD*%
%TA.AperFunction,Conductor*%
%TO.N,Net-(D5-A)*%
G36*
X64871941Y-145572484D02*
G01*
X65389213Y-145941589D01*
X65389371Y-145941702D01*
X65394115Y-145949297D01*
X65392099Y-145958022D01*
X65390574Y-145959765D01*
X64943730Y-146378343D01*
X64935349Y-146381498D01*
X64932524Y-146381056D01*
X64358493Y-146217421D01*
X64351476Y-146211857D01*
X64350000Y-146206169D01*
X64350000Y-145970748D01*
X64353427Y-145962475D01*
X64354544Y-145961490D01*
X64857998Y-145572747D01*
X64866639Y-145570405D01*
X64871941Y-145572484D01*
G37*
%TD.AperFunction*%
%TD*%
%TA.AperFunction,Conductor*%
%TO.N,Net-(D5-A)*%
G36*
X63872918Y-145745090D02*
G01*
X64209628Y-145961546D01*
X64214733Y-145968902D01*
X64215000Y-145971387D01*
X64215000Y-146208612D01*
X64211573Y-146216885D01*
X64209627Y-146218454D01*
X63872920Y-146434908D01*
X63864108Y-146436499D01*
X63858332Y-146433351D01*
X63642821Y-146218454D01*
X63522307Y-146098283D01*
X63518869Y-146090017D01*
X63522283Y-146081740D01*
X63858333Y-145746647D01*
X63866610Y-145743233D01*
X63872918Y-145745090D01*
G37*
%TD.AperFunction*%
%TD*%
%TA.AperFunction,Conductor*%
%TO.N,Net-(D6-A)*%
G36*
X48431724Y-155820925D02*
G01*
X48438035Y-155827276D01*
X48438589Y-155834451D01*
X48327153Y-156298753D01*
X48321890Y-156305997D01*
X48315776Y-156307722D01*
X48033818Y-156307722D01*
X48025545Y-156304295D01*
X48022571Y-156299245D01*
X47967759Y-156107996D01*
X47889453Y-155834769D01*
X47890468Y-155825874D01*
X47896187Y-155820753D01*
X48159240Y-155710843D01*
X48168194Y-155710817D01*
X48431724Y-155820925D01*
G37*
%TD.AperFunction*%
%TD*%
%TA.AperFunction,Conductor*%
%TO.N,Net-(D6-A)*%
G36*
X48326308Y-156428427D02*
G01*
X48328320Y-156431122D01*
X48600846Y-156933610D01*
X48601778Y-156942516D01*
X48598600Y-156947689D01*
X48232912Y-157293516D01*
X48224547Y-157296710D01*
X48216969Y-157293642D01*
X48216831Y-157293516D01*
X47845928Y-156953689D01*
X47842143Y-156945573D01*
X47842799Y-156941168D01*
X48022245Y-156432806D01*
X48028230Y-156426145D01*
X48033278Y-156425000D01*
X48318035Y-156425000D01*
X48326308Y-156428427D01*
G37*
%TD.AperFunction*%
%TD*%
%TA.AperFunction,Conductor*%
%TO.N,Net-(D6-A)*%
G36*
X48172010Y-155717285D02*
G01*
X48172101Y-155717375D01*
X48507372Y-156053604D01*
X48507608Y-156053840D01*
X48511023Y-156062118D01*
X48509621Y-156067655D01*
X48328314Y-156403854D01*
X48321371Y-156409509D01*
X48318016Y-156410000D01*
X48031695Y-156410000D01*
X48023422Y-156406573D01*
X48021608Y-156404227D01*
X47823877Y-156067725D01*
X47822640Y-156058856D01*
X47825611Y-156053606D01*
X48155467Y-155717440D01*
X48163705Y-155713937D01*
X48172010Y-155717285D01*
G37*
%TD.AperFunction*%
%TD*%
%TA.AperFunction,Conductor*%
%TO.N,Net-(D7-A)*%
G36*
X55614685Y-145733687D02*
G01*
X55615093Y-145734559D01*
X55725088Y-145997817D01*
X55725992Y-146002367D01*
X55725044Y-146286513D01*
X55721590Y-146294775D01*
X55713305Y-146298174D01*
X55711653Y-146298051D01*
X55152911Y-146216461D01*
X55145220Y-146211875D01*
X55142902Y-146204884D01*
X55142902Y-145972114D01*
X55146329Y-145963841D01*
X55149217Y-145961727D01*
X55598914Y-145728681D01*
X55607836Y-145727918D01*
X55614685Y-145733687D01*
G37*
%TD.AperFunction*%
%TD*%
%TA.AperFunction,Conductor*%
%TO.N,Net-(D7-A)*%
G36*
X55186941Y-145572484D02*
G01*
X55704213Y-145941589D01*
X55704371Y-145941702D01*
X55709115Y-145949297D01*
X55707099Y-145958022D01*
X55705574Y-145959765D01*
X55258730Y-146378343D01*
X55250349Y-146381498D01*
X55247524Y-146381056D01*
X54673493Y-146217421D01*
X54666476Y-146211857D01*
X54665000Y-146206169D01*
X54665000Y-145970748D01*
X54668427Y-145962475D01*
X54669544Y-145961490D01*
X55172998Y-145572747D01*
X55181639Y-145570405D01*
X55186941Y-145572484D01*
G37*
%TD.AperFunction*%
%TD*%
%TA.AperFunction,Conductor*%
%TO.N,Net-(D7-A)*%
G36*
X54121668Y-145745090D02*
G01*
X54458378Y-145961546D01*
X54463483Y-145968902D01*
X54463750Y-145971387D01*
X54463750Y-146208612D01*
X54460323Y-146216885D01*
X54458377Y-146218454D01*
X54121670Y-146434908D01*
X54112858Y-146436499D01*
X54107082Y-146433351D01*
X53891571Y-146218454D01*
X53771057Y-146098283D01*
X53767619Y-146090017D01*
X53771033Y-146081740D01*
X54107083Y-145746647D01*
X54115360Y-145743233D01*
X54121668Y-145745090D01*
G37*
%TD.AperFunction*%
%TD*%
%TA.AperFunction,Conductor*%
%TO.N,Net-(D9-A)*%
G36*
X45560078Y-145623257D02*
G01*
X45906446Y-145947457D01*
X46006877Y-146041461D01*
X46010576Y-146049616D01*
X46007424Y-146057998D01*
X46006881Y-146058542D01*
X45559610Y-146477519D01*
X45551229Y-146480674D01*
X45546767Y-146479630D01*
X44971856Y-146218118D01*
X44965744Y-146211573D01*
X44965000Y-146207468D01*
X44965000Y-145971678D01*
X44968427Y-145963405D01*
X44970749Y-145961604D01*
X45546136Y-145621725D01*
X45555001Y-145620469D01*
X45560078Y-145623257D01*
G37*
%TD.AperFunction*%
%TD*%
%TA.AperFunction,Conductor*%
%TO.N,Net-(D9-A)*%
G36*
X44370418Y-145745090D02*
G01*
X44707128Y-145961546D01*
X44712233Y-145968902D01*
X44712500Y-145971387D01*
X44712500Y-146208612D01*
X44709073Y-146216885D01*
X44707127Y-146218454D01*
X44370420Y-146434908D01*
X44361608Y-146436499D01*
X44355832Y-146433351D01*
X44140321Y-146218454D01*
X44019807Y-146098283D01*
X44016369Y-146090017D01*
X44019783Y-146081740D01*
X44355833Y-145746647D01*
X44364110Y-145743233D01*
X44370418Y-145745090D01*
G37*
%TD.AperFunction*%
%TD*%
%TA.AperFunction,Conductor*%
%TO.N,Net-(D9-A)*%
G36*
X46139858Y-146405416D02*
G01*
X46142677Y-146409967D01*
X46298700Y-146874873D01*
X46298083Y-146883806D01*
X46292119Y-146889391D01*
X46029511Y-146999115D01*
X46020556Y-146999142D01*
X46020489Y-146999115D01*
X45901164Y-146949259D01*
X45757506Y-146889235D01*
X45751195Y-146882884D01*
X45750794Y-146875140D01*
X45887529Y-146410386D01*
X45893151Y-146403417D01*
X45898753Y-146401989D01*
X46131585Y-146401989D01*
X46139858Y-146405416D01*
G37*
%TD.AperFunction*%
%TD*%
%TA.AperFunction,Conductor*%
%TO.N,Net-(D9-A)*%
G36*
X46023142Y-146056890D02*
G01*
X46457842Y-146478144D01*
X46461399Y-146486362D01*
X46459289Y-146493249D01*
X46143493Y-146945003D01*
X46135945Y-146949821D01*
X46133904Y-146950000D01*
X45896096Y-146950000D01*
X45887823Y-146946573D01*
X45886507Y-146945003D01*
X45570710Y-146493249D01*
X45568778Y-146484505D01*
X45572155Y-146478146D01*
X46006858Y-146056889D01*
X46015184Y-146053593D01*
X46023142Y-146056890D01*
G37*
%TD.AperFunction*%
%TD*%
%TA.AperFunction,Conductor*%
%TO.N,/FDCAN_TX*%
G36*
X45998428Y-164780918D02*
G01*
X46004379Y-164787610D01*
X46005026Y-164791447D01*
X46005026Y-165022122D01*
X46003692Y-165027548D01*
X45832118Y-165355340D01*
X45825245Y-165361080D01*
X45817288Y-165360729D01*
X45804231Y-165355340D01*
X45553505Y-165251859D01*
X45547167Y-165245537D01*
X45439892Y-164984275D01*
X45439919Y-164975321D01*
X45446271Y-164969009D01*
X45446851Y-164968789D01*
X45989489Y-164780394D01*
X45998428Y-164780918D01*
G37*
%TD.AperFunction*%
%TD*%
%TA.AperFunction,Conductor*%
%TO.N,/FDCAN_RX*%
G36*
X46524906Y-165238336D02*
G01*
X47063566Y-165274271D01*
X47071592Y-165278241D01*
X47074486Y-165285945D01*
X47074486Y-165518638D01*
X47071059Y-165526911D01*
X47069147Y-165528458D01*
X46978612Y-165587102D01*
X46974285Y-165588804D01*
X46970836Y-165589412D01*
X46959575Y-165595913D01*
X46956756Y-165597081D01*
X46944201Y-165600446D01*
X46944195Y-165600449D01*
X46909034Y-165625068D01*
X46908604Y-165625342D01*
X46871433Y-165646802D01*
X46871427Y-165646808D01*
X46854676Y-165666769D01*
X46852075Y-165669068D01*
X46639053Y-165807056D01*
X46630246Y-165808678D01*
X46622872Y-165803597D01*
X46621899Y-165801753D01*
X46512402Y-165539686D01*
X46511499Y-165535144D01*
X46512450Y-165249970D01*
X46515904Y-165241710D01*
X46524189Y-165238311D01*
X46524906Y-165238336D01*
G37*
%TD.AperFunction*%
%TD*%
%TA.AperFunction,Conductor*%
%TO.N,/UART_TX*%
G36*
X52511846Y-168706692D02*
G01*
X52930799Y-168942761D01*
X52936324Y-168949808D01*
X52935878Y-168957398D01*
X52827563Y-169221184D01*
X52821251Y-169227536D01*
X52821184Y-169227563D01*
X52558060Y-169335606D01*
X52549105Y-169335579D01*
X52543064Y-169329835D01*
X52330907Y-168886577D01*
X52330427Y-168877638D01*
X52333186Y-168873258D01*
X52497832Y-168708612D01*
X52506104Y-168705186D01*
X52511846Y-168706692D01*
G37*
%TD.AperFunction*%
%TD*%
%TA.AperFunction,Conductor*%
%TO.N,/UART_RX*%
G36*
X53802873Y-169247772D02*
G01*
X53803504Y-169248455D01*
X54064549Y-169554664D01*
X54067308Y-169563183D01*
X54063938Y-169570508D01*
X53862857Y-169772537D01*
X53854592Y-169775983D01*
X53854525Y-169775983D01*
X53570866Y-169775038D01*
X53562604Y-169771584D01*
X53559207Y-169763547D01*
X53550211Y-169256251D01*
X53553490Y-169247920D01*
X53561702Y-169244347D01*
X53561909Y-169244345D01*
X53794600Y-169244345D01*
X53802873Y-169247772D01*
G37*
%TD.AperFunction*%
%TD*%
%TA.AperFunction,Conductor*%
%TO.N,Net-(D13-K)*%
G36*
X67344862Y-173429965D02*
G01*
X67750946Y-173758964D01*
X67755217Y-173766835D01*
X67753975Y-173773426D01*
X67465770Y-174331171D01*
X67458928Y-174336948D01*
X67455376Y-174337500D01*
X67219624Y-174337500D01*
X67211351Y-174334073D01*
X67209230Y-174331171D01*
X67096635Y-174113274D01*
X66921023Y-173773424D01*
X66920270Y-173764503D01*
X66924051Y-173758966D01*
X67330136Y-173429965D01*
X67338720Y-173427421D01*
X67344862Y-173429965D01*
G37*
%TD.AperFunction*%
%TD*%
%TA.AperFunction,Conductor*%
%TO.N,Net-(D13-K)*%
G36*
X67463962Y-174153427D02*
G01*
X67465863Y-174155922D01*
X67755172Y-174665356D01*
X67756278Y-174674243D01*
X67752902Y-174679761D01*
X67382904Y-175018758D01*
X67374489Y-175021820D01*
X67367096Y-175018758D01*
X66996321Y-174679049D01*
X66992536Y-174670933D01*
X66993455Y-174665853D01*
X67209474Y-174157127D01*
X67215862Y-174150851D01*
X67220243Y-174150000D01*
X67455689Y-174150000D01*
X67463962Y-174153427D01*
G37*
%TD.AperFunction*%
%TD*%
%TA.AperFunction,Conductor*%
%TO.N,/HIN_1*%
G36*
X46386421Y-163022562D02*
G01*
X46393421Y-163028145D01*
X46394881Y-163033805D01*
X46394881Y-163266639D01*
X46391454Y-163274912D01*
X46386973Y-163277708D01*
X45922664Y-163436757D01*
X45913726Y-163436196D01*
X45908076Y-163430199D01*
X45844362Y-163277708D01*
X45798378Y-163167653D01*
X45798352Y-163158700D01*
X45798357Y-163158686D01*
X45908282Y-162895595D01*
X45914633Y-162889285D01*
X45922314Y-162888865D01*
X46386421Y-163022562D01*
G37*
%TD.AperFunction*%
%TD*%
%TA.AperFunction,Conductor*%
%TO.N,/HIN_2*%
G36*
X46624864Y-163504110D02*
G01*
X46626430Y-163504909D01*
X46820041Y-163622705D01*
X46822919Y-163625177D01*
X46846429Y-163653194D01*
X46883612Y-163674661D01*
X46884025Y-163674923D01*
X46919200Y-163699553D01*
X46931755Y-163702917D01*
X46934573Y-163704084D01*
X46945839Y-163710588D01*
X46945840Y-163710588D01*
X46945842Y-163710589D01*
X46956914Y-163712540D01*
X46969925Y-163714835D01*
X46973973Y-163716361D01*
X47064733Y-163771581D01*
X47070020Y-163778808D01*
X47070352Y-163781576D01*
X47070352Y-164014281D01*
X47066925Y-164022554D01*
X47059674Y-164025936D01*
X46512679Y-164073888D01*
X46504138Y-164071197D01*
X46500002Y-164063255D01*
X46499957Y-164062285D01*
X46499007Y-163777362D01*
X46499909Y-163772822D01*
X46609557Y-163510394D01*
X46615909Y-163504083D01*
X46624864Y-163504110D01*
G37*
%TD.AperFunction*%
%TD*%
%TA.AperFunction,Conductor*%
%TO.N,/HIN_3*%
G36*
X45879004Y-163827843D02*
G01*
X45884862Y-163833220D01*
X46084731Y-164215732D01*
X46111430Y-164266827D01*
X46112224Y-164275746D01*
X46109333Y-164280518D01*
X45944707Y-164445144D01*
X45936434Y-164448571D01*
X45931017Y-164447241D01*
X45497409Y-164220673D01*
X45491664Y-164213805D01*
X45492004Y-164205861D01*
X45600193Y-163942382D01*
X45606503Y-163936032D01*
X45870050Y-163827816D01*
X45879004Y-163827843D01*
G37*
%TD.AperFunction*%
%TD*%
%TA.AperFunction,Conductor*%
%TO.N,/SWDIO*%
G36*
X48771433Y-170339321D02*
G01*
X48776811Y-170345180D01*
X48886617Y-170607987D01*
X48886644Y-170616942D01*
X48886617Y-170617009D01*
X48776811Y-170879815D01*
X48770459Y-170886127D01*
X48762514Y-170886468D01*
X48295701Y-170740069D01*
X48288832Y-170734323D01*
X48287502Y-170728905D01*
X48287502Y-170496090D01*
X48290929Y-170487817D01*
X48295698Y-170484927D01*
X48762515Y-170338527D01*
X48771433Y-170339321D01*
G37*
%TD.AperFunction*%
%TD*%
%TA.AperFunction,Conductor*%
%TO.N,/SWCLK*%
G36*
X48937403Y-167355913D02*
G01*
X48940203Y-167360409D01*
X48991262Y-167510087D01*
X48991463Y-167510835D01*
X49002260Y-167565117D01*
X49002261Y-167565120D01*
X49017290Y-167587613D01*
X49018635Y-167590336D01*
X49098631Y-167824839D01*
X49098059Y-167833775D01*
X49092069Y-167839412D01*
X48829511Y-167949115D01*
X48820556Y-167949142D01*
X48820489Y-167949115D01*
X48691703Y-167895305D01*
X48557463Y-167839217D01*
X48551152Y-167832866D01*
X48550736Y-167825171D01*
X48685056Y-167360934D01*
X48690647Y-167353939D01*
X48696295Y-167352486D01*
X48929130Y-167352486D01*
X48937403Y-167355913D01*
G37*
%TD.AperFunction*%
%TD*%
M02*
