%TF.GenerationSoftware,KiCad,Pcbnew,7.0.8*%
%TF.CreationDate,2024-01-09T15:44:46+08:00*%
%TF.ProjectId,FOC2,464f4332-2e6b-4696-9361-645f70636258,rev?*%
%TF.SameCoordinates,Original*%
%TF.FileFunction,Paste,Top*%
%TF.FilePolarity,Positive*%
%FSLAX46Y46*%
G04 Gerber Fmt 4.6, Leading zero omitted, Abs format (unit mm)*
G04 Created by KiCad (PCBNEW 7.0.8) date 2024-01-09 15:44:46*
%MOMM*%
%LPD*%
G01*
G04 APERTURE LIST*
G04 Aperture macros list*
%AMRoundRect*
0 Rectangle with rounded corners*
0 $1 Rounding radius*
0 $2 $3 $4 $5 $6 $7 $8 $9 X,Y pos of 4 corners*
0 Add a 4 corners polygon primitive as box body*
4,1,4,$2,$3,$4,$5,$6,$7,$8,$9,$2,$3,0*
0 Add four circle primitives for the rounded corners*
1,1,$1+$1,$2,$3*
1,1,$1+$1,$4,$5*
1,1,$1+$1,$6,$7*
1,1,$1+$1,$8,$9*
0 Add four rect primitives between the rounded corners*
20,1,$1+$1,$2,$3,$4,$5,0*
20,1,$1+$1,$4,$5,$6,$7,0*
20,1,$1+$1,$6,$7,$8,$9,0*
20,1,$1+$1,$8,$9,$2,$3,0*%
G04 Aperture macros list end*
%ADD10RoundRect,0.218750X0.218750X0.256250X-0.218750X0.256250X-0.218750X-0.256250X0.218750X-0.256250X0*%
%ADD11R,1.235000X1.570000*%
%ADD12R,1.585000X1.570000*%
%ADD13R,0.490000X0.490000*%
%ADD14RoundRect,0.200000X-0.200000X-0.275000X0.200000X-0.275000X0.200000X0.275000X-0.200000X0.275000X0*%
%ADD15RoundRect,0.200000X0.200000X0.275000X-0.200000X0.275000X-0.200000X-0.275000X0.200000X-0.275000X0*%
%ADD16RoundRect,0.225000X0.250000X-0.225000X0.250000X0.225000X-0.250000X0.225000X-0.250000X-0.225000X0*%
%ADD17RoundRect,0.225000X-0.225000X-0.250000X0.225000X-0.250000X0.225000X0.250000X-0.225000X0.250000X0*%
%ADD18RoundRect,0.150000X-0.675000X-0.150000X0.675000X-0.150000X0.675000X0.150000X-0.675000X0.150000X0*%
%ADD19R,1.550000X0.600000*%
%ADD20R,2.600000X3.100000*%
%ADD21R,1.200000X1.200000*%
%ADD22RoundRect,0.225000X0.375000X-0.225000X0.375000X0.225000X-0.375000X0.225000X-0.375000X-0.225000X0*%
%ADD23RoundRect,0.200000X0.275000X-0.200000X0.275000X0.200000X-0.275000X0.200000X-0.275000X-0.200000X0*%
%ADD24R,0.600000X1.450000*%
%ADD25R,0.300000X1.450000*%
%ADD26RoundRect,0.249999X1.450001X-0.450001X1.450001X0.450001X-1.450001X0.450001X-1.450001X-0.450001X0*%
%ADD27RoundRect,0.225000X0.225000X0.250000X-0.225000X0.250000X-0.225000X-0.250000X0.225000X-0.250000X0*%
%ADD28RoundRect,0.249999X-1.450001X0.450001X-1.450001X-0.450001X1.450001X-0.450001X1.450001X0.450001X0*%
%ADD29RoundRect,0.250000X0.315000X0.315000X-0.315000X0.315000X-0.315000X-0.315000X0.315000X-0.315000X0*%
%ADD30RoundRect,0.062500X0.375000X0.062500X-0.375000X0.062500X-0.375000X-0.062500X0.375000X-0.062500X0*%
%ADD31RoundRect,0.062500X0.062500X0.375000X-0.062500X0.375000X-0.062500X-0.375000X0.062500X-0.375000X0*%
G04 APERTURE END LIST*
D10*
%TO.C,D13*%
X67337500Y-173425000D03*
X65762500Y-173425000D03*
%TD*%
D11*
%TO.C,Q5*%
X40402500Y-152710000D03*
X40402500Y-154900000D03*
D12*
X42312500Y-152710000D03*
X42312500Y-154900000D03*
D13*
X38400000Y-151900000D03*
X38400000Y-153170000D03*
X38400000Y-154440000D03*
X38400000Y-155710000D03*
X44000000Y-151900000D03*
X44000000Y-153170000D03*
X44000000Y-154440000D03*
X44000000Y-155710000D03*
%TD*%
D14*
%TO.C,R4*%
X46575000Y-157300000D03*
X48225000Y-157300000D03*
%TD*%
D15*
%TO.C,R15*%
X36025000Y-161100000D03*
X34375000Y-161100000D03*
%TD*%
D16*
%TO.C,C25*%
X36975000Y-155575000D03*
X36975000Y-154025000D03*
%TD*%
D14*
%TO.C,R18*%
X42400000Y-160205000D03*
X44050000Y-160205000D03*
%TD*%
D17*
%TO.C,C4*%
X65450000Y-165250000D03*
X67000000Y-165250000D03*
%TD*%
D18*
%TO.C,U2*%
X58375000Y-165695000D03*
X58375000Y-166965000D03*
X58375000Y-168235000D03*
X58375000Y-169505000D03*
X63625000Y-169505000D03*
X63625000Y-168235000D03*
X63625000Y-166965000D03*
X63625000Y-165695000D03*
%TD*%
D15*
%TO.C,R25*%
X64225000Y-163650000D03*
X62575000Y-163650000D03*
%TD*%
D11*
%TO.C,Q3*%
X50166250Y-152710000D03*
X50166250Y-154900000D03*
D12*
X52076250Y-152710000D03*
X52076250Y-154900000D03*
D13*
X48163750Y-151900000D03*
X48163750Y-153170000D03*
X48163750Y-154440000D03*
X48163750Y-155710000D03*
X53763750Y-151900000D03*
X53763750Y-153170000D03*
X53763750Y-154440000D03*
X53763750Y-155710000D03*
%TD*%
D19*
%TO.C,U7*%
X43350000Y-165905000D03*
X43350000Y-164635000D03*
X43350000Y-163365000D03*
X43350000Y-162095000D03*
X37950000Y-162095000D03*
X37950000Y-163365000D03*
X37950000Y-164635000D03*
X37950000Y-165905000D03*
D20*
X40650000Y-164000000D03*
%TD*%
D17*
%TO.C,C18*%
X34425000Y-167300000D03*
X35975000Y-167300000D03*
%TD*%
D21*
%TO.C,D12*%
X58675000Y-160100000D03*
X61475000Y-160100000D03*
%TD*%
D16*
%TO.C,C23*%
X46775000Y-155450000D03*
X46775000Y-153900000D03*
%TD*%
D22*
%TO.C,D7*%
X55715000Y-149250000D03*
X55715000Y-145950000D03*
%TD*%
D23*
%TO.C,R24*%
X63525000Y-160125000D03*
X63525000Y-158475000D03*
%TD*%
D22*
%TO.C,D9*%
X46015000Y-149350000D03*
X46015000Y-146050000D03*
%TD*%
D11*
%TO.C,Q1*%
X59905000Y-152710000D03*
X59905000Y-154900000D03*
D12*
X61815000Y-152710000D03*
X61815000Y-154900000D03*
D13*
X57902500Y-151900000D03*
X57902500Y-153170000D03*
X57902500Y-154440000D03*
X57902500Y-155710000D03*
X63502500Y-151900000D03*
X63502500Y-153170000D03*
X63502500Y-154440000D03*
X63502500Y-155710000D03*
%TD*%
D14*
%TO.C,R17*%
X34375000Y-162700000D03*
X36025000Y-162700000D03*
%TD*%
D24*
%TO.C,J3*%
X55260000Y-171755000D03*
X56060000Y-171755000D03*
D25*
X57260000Y-171755000D03*
X58260000Y-171755000D03*
X58760000Y-171755000D03*
X59760000Y-171755000D03*
D24*
X60960000Y-171755000D03*
X61760000Y-171755000D03*
X61760000Y-171755000D03*
X60960000Y-171755000D03*
D25*
X60260000Y-171755000D03*
X59260000Y-171755000D03*
X57760000Y-171755000D03*
X56760000Y-171755000D03*
D24*
X56060000Y-171755000D03*
X55260000Y-171755000D03*
%TD*%
D26*
%TO.C,C14*%
X34700000Y-152250000D03*
X34700000Y-148150000D03*
%TD*%
D27*
%TO.C,C19*%
X35975000Y-165700000D03*
X34425000Y-165700000D03*
%TD*%
D16*
%TO.C,C24*%
X56400000Y-155975000D03*
X56400000Y-154425000D03*
%TD*%
D22*
%TO.C,D5*%
X65400000Y-149250000D03*
X65400000Y-145950000D03*
%TD*%
D28*
%TO.C,C9*%
X36400000Y-169250000D03*
X36400000Y-173350000D03*
%TD*%
D11*
%TO.C,Q4*%
X51761250Y-149090000D03*
X51761250Y-146900000D03*
D12*
X49851250Y-149090000D03*
X49851250Y-146900000D03*
D13*
X53763750Y-149900000D03*
X53763750Y-148630000D03*
X53763750Y-147360000D03*
X53763750Y-146090000D03*
X48163750Y-149900000D03*
X48163750Y-148630000D03*
X48163750Y-147360000D03*
X48163750Y-146090000D03*
%TD*%
D14*
%TO.C,R26*%
X65725000Y-175025000D03*
X67375000Y-175025000D03*
%TD*%
D11*
%TO.C,Q2*%
X61512500Y-149090000D03*
X61512500Y-146900000D03*
D12*
X59602500Y-149090000D03*
X59602500Y-146900000D03*
D13*
X63515000Y-149900000D03*
X63515000Y-148630000D03*
X63515000Y-147360000D03*
X63515000Y-146090000D03*
X57915000Y-149900000D03*
X57915000Y-148630000D03*
X57915000Y-147360000D03*
X57915000Y-146090000D03*
%TD*%
D27*
%TO.C,C33*%
X64175000Y-162150000D03*
X62625000Y-162150000D03*
%TD*%
D26*
%TO.C,C13*%
X40450000Y-173350000D03*
X40450000Y-169250000D03*
%TD*%
D27*
%TO.C,C20*%
X35975000Y-164200000D03*
X34425000Y-164200000D03*
%TD*%
D26*
%TO.C,C10*%
X48900000Y-173350000D03*
X48900000Y-169250000D03*
%TD*%
%TO.C,C12*%
X44700000Y-173350000D03*
X44700000Y-169250000D03*
%TD*%
D11*
%TO.C,Q6*%
X42010000Y-149090000D03*
X42010000Y-146900000D03*
D12*
X40100000Y-149090000D03*
X40100000Y-146900000D03*
D13*
X44012500Y-149900000D03*
X44012500Y-148630000D03*
X44012500Y-147360000D03*
X44012500Y-146090000D03*
X38412500Y-149900000D03*
X38412500Y-148630000D03*
X38412500Y-147360000D03*
X38412500Y-146090000D03*
%TD*%
D17*
%TO.C,C30*%
X59575000Y-162100000D03*
X61125000Y-162100000D03*
%TD*%
D15*
%TO.C,R16*%
X39525000Y-160400000D03*
X37875000Y-160400000D03*
%TD*%
%TO.C,R23*%
X61175000Y-163600000D03*
X59525000Y-163600000D03*
%TD*%
D29*
%TO.C,U3*%
X53662500Y-165750000D03*
X53662500Y-164350000D03*
X53662500Y-162950000D03*
X53662500Y-161550000D03*
X52262500Y-165750000D03*
X52262500Y-164350000D03*
X52262500Y-162950000D03*
X52262500Y-161550000D03*
X50862500Y-165750000D03*
X50862500Y-164350000D03*
X50862500Y-162950000D03*
X50862500Y-161550000D03*
X49462500Y-165750000D03*
X49462500Y-164350000D03*
X49462500Y-162950000D03*
X49462500Y-161550000D03*
D30*
X55000000Y-166400000D03*
X55000000Y-165900000D03*
X55000000Y-165400000D03*
X55000000Y-164900000D03*
X55000000Y-164400000D03*
X55000000Y-163900000D03*
X55000000Y-163400000D03*
X55000000Y-162900000D03*
X55000000Y-162400000D03*
X55000000Y-161900000D03*
X55000000Y-161400000D03*
X55000000Y-160900000D03*
D31*
X54312500Y-160212500D03*
X53812500Y-160212500D03*
X53312500Y-160212500D03*
X52812500Y-160212500D03*
X52312500Y-160212500D03*
X51812500Y-160212500D03*
X51312500Y-160212500D03*
X50812500Y-160212500D03*
X50312500Y-160212500D03*
X49812500Y-160212500D03*
X49312500Y-160212500D03*
X48812500Y-160212500D03*
D30*
X48125000Y-160900000D03*
X48125000Y-161400000D03*
X48125000Y-161900000D03*
X48125000Y-162400000D03*
X48125000Y-162900000D03*
X48125000Y-163400000D03*
X48125000Y-163900000D03*
X48125000Y-164400000D03*
X48125000Y-164900000D03*
X48125000Y-165400000D03*
X48125000Y-165900000D03*
X48125000Y-166400000D03*
D31*
X48812500Y-167087500D03*
X49312500Y-167087500D03*
X49812500Y-167087500D03*
X50312500Y-167087500D03*
X50812500Y-167087500D03*
X51312500Y-167087500D03*
X51812500Y-167087500D03*
X52312500Y-167087500D03*
X52812500Y-167087500D03*
X53312500Y-167087500D03*
X53812500Y-167087500D03*
X54312500Y-167087500D03*
%TD*%
M02*
