%TF.GenerationSoftware,KiCad,Pcbnew,7.0.8*%
%TF.CreationDate,2024-01-09T15:58:46+08:00*%
%TF.ProjectId,FOC2,464f4332-2e6b-4696-9361-645f70636258,rev?*%
%TF.SameCoordinates,Original*%
%TF.FileFunction,Copper,L2,Inr*%
%TF.FilePolarity,Positive*%
%FSLAX46Y46*%
G04 Gerber Fmt 4.6, Leading zero omitted, Abs format (unit mm)*
G04 Created by KiCad (PCBNEW 7.0.8) date 2024-01-09 15:58:46*
%MOMM*%
%LPD*%
G01*
G04 APERTURE LIST*
G04 Aperture macros list*
%AMRoundRect*
0 Rectangle with rounded corners*
0 $1 Rounding radius*
0 $2 $3 $4 $5 $6 $7 $8 $9 X,Y pos of 4 corners*
0 Add a 4 corners polygon primitive as box body*
4,1,4,$2,$3,$4,$5,$6,$7,$8,$9,$2,$3,0*
0 Add four circle primitives for the rounded corners*
1,1,$1+$1,$2,$3*
1,1,$1+$1,$4,$5*
1,1,$1+$1,$6,$7*
1,1,$1+$1,$8,$9*
0 Add four rect primitives between the rounded corners*
20,1,$1+$1,$2,$3,$4,$5,0*
20,1,$1+$1,$4,$5,$6,$7,0*
20,1,$1+$1,$6,$7,$8,$9,0*
20,1,$1+$1,$8,$9,$2,$3,0*%
G04 Aperture macros list end*
%TA.AperFunction,ComponentPad*%
%ADD10R,3.500000X3.500000*%
%TD*%
%TA.AperFunction,ComponentPad*%
%ADD11C,3.500000*%
%TD*%
%TA.AperFunction,ComponentPad*%
%ADD12C,3.800000*%
%TD*%
%TA.AperFunction,ComponentPad*%
%ADD13C,0.600000*%
%TD*%
%TA.AperFunction,ComponentPad*%
%ADD14R,3.000000X3.000000*%
%TD*%
%TA.AperFunction,ComponentPad*%
%ADD15C,3.000000*%
%TD*%
%TA.AperFunction,ComponentPad*%
%ADD16RoundRect,0.200000X0.450000X-0.200000X0.450000X0.200000X-0.450000X0.200000X-0.450000X-0.200000X0*%
%TD*%
%TA.AperFunction,ComponentPad*%
%ADD17O,1.300000X0.800000*%
%TD*%
%TA.AperFunction,ComponentPad*%
%ADD18O,1.000000X2.100000*%
%TD*%
%TA.AperFunction,ComponentPad*%
%ADD19O,1.000000X1.600000*%
%TD*%
%TA.AperFunction,ViaPad*%
%ADD20C,0.600000*%
%TD*%
%TA.AperFunction,ViaPad*%
%ADD21C,0.800000*%
%TD*%
%TA.AperFunction,ViaPad*%
%ADD22C,0.500000*%
%TD*%
%TA.AperFunction,Conductor*%
%ADD23C,0.250000*%
%TD*%
%TA.AperFunction,Conductor*%
%ADD24C,0.400000*%
%TD*%
%TA.AperFunction,Conductor*%
%ADD25C,0.300000*%
%TD*%
G04 APERTURE END LIST*
D10*
%TO.N,GND*%
%TO.C,J4*%
X42200000Y-177550000D03*
D11*
%TO.N,VDC*%
X47200000Y-177550000D03*
%TD*%
D12*
%TO.N,GND*%
%TO.C,H4*%
X69700000Y-177700000D03*
%TD*%
D13*
%TO.N,GND*%
%TO.C,U7*%
X41250000Y-165800000D03*
X41250000Y-164600000D03*
X41250000Y-163300000D03*
X41250000Y-162200000D03*
X40050000Y-165800000D03*
X40050000Y-164600000D03*
X40050000Y-163300000D03*
X40050000Y-162200000D03*
%TD*%
D14*
%TO.N,/VS1*%
%TO.C,J1*%
X54400000Y-142900000D03*
D15*
%TO.N,/VS2*%
X50900000Y-142900000D03*
%TO.N,/VS3*%
X47400000Y-142900000D03*
%TD*%
D16*
%TO.N,/FDCAN_RX*%
%TO.C,J7*%
X70300000Y-170375000D03*
D17*
%TO.N,/FDCAN_TX*%
X70300000Y-169125000D03*
%TO.N,GND*%
X70300000Y-167875000D03*
%TD*%
D18*
%TO.N,GND*%
%TO.C,J3*%
X54190000Y-172670000D03*
D19*
X54190000Y-176850000D03*
D18*
X62830000Y-172670000D03*
D19*
X62830000Y-176850000D03*
%TD*%
D16*
%TO.N,/T_NRST*%
%TO.C,J6*%
X70275000Y-154875000D03*
D17*
%TO.N,/SWCLK*%
X70275000Y-153625000D03*
%TO.N,/SWDIO*%
X70275000Y-152375000D03*
%TO.N,GND*%
X70275000Y-151125000D03*
%TD*%
D12*
%TO.N,GND*%
%TO.C,H1*%
X34300000Y-177700000D03*
%TD*%
%TO.N,GND*%
%TO.C,H3*%
X69800000Y-142300000D03*
%TD*%
%TO.N,GND*%
%TO.C,H2*%
X34200000Y-142300000D03*
%TD*%
D16*
%TO.N,+3.3V*%
%TO.C,J2*%
X70275000Y-163875000D03*
D17*
%TO.N,/EN1*%
X70275000Y-162625000D03*
%TO.N,/EN2*%
X70275000Y-161375000D03*
%TO.N,/EN3*%
X70275000Y-160125000D03*
%TO.N,GND*%
X70275000Y-158875000D03*
%TD*%
D20*
%TO.N,/EN2*%
X51880000Y-169320000D03*
%TO.N,/EN3*%
X52945273Y-169897620D03*
%TO.N,/EN1*%
X51190002Y-169750000D03*
%TO.N,GND*%
X35010000Y-148200000D03*
X53250000Y-165975002D03*
X52450000Y-166000000D03*
X53175000Y-165250000D03*
X34010000Y-148180000D03*
X53950000Y-165300000D03*
X53925000Y-165975000D03*
X51750000Y-166025000D03*
%TO.N,+5V*%
X55135754Y-174869622D03*
X33300000Y-172200000D03*
X34374999Y-161100002D03*
X65787044Y-173175000D03*
X42450000Y-174850000D03*
%TO.N,Net-(D11-K)*%
X56400000Y-155974972D03*
X46225000Y-160225000D03*
%TO.N,Net-(D3-K)*%
X34625000Y-167125000D03*
D21*
X37800000Y-165900000D03*
D22*
X35025000Y-166675000D03*
D20*
%TO.N,Net-(D2-K)*%
X46775000Y-155449998D03*
X46200000Y-162175000D03*
%TO.N,/VS2*%
X46775000Y-153899972D03*
X45012549Y-164624988D03*
%TO.N,/VS1*%
X55410000Y-155540000D03*
%TO.N,/VS3*%
X38412500Y-153824996D03*
X48061822Y-167560934D03*
%TO.N,Net-(D1-A)*%
X58510000Y-177639425D03*
X58510000Y-176939922D03*
%TO.N,+3.3V*%
X40975000Y-150900000D03*
X49825000Y-159800000D03*
X46225000Y-150900004D03*
X56250000Y-168275000D03*
X60300000Y-150975000D03*
X65450000Y-165249960D03*
X42600000Y-168000000D03*
X50425000Y-150850000D03*
X35300000Y-150900000D03*
%TO.N,Net-(D10-K)*%
X44825006Y-166625000D03*
X36490000Y-156450000D03*
%TO.N,/M1_SL_A*%
X63500000Y-149475000D03*
X63500000Y-148700000D03*
X63500000Y-148025000D03*
X63525000Y-147300000D03*
%TO.N,/VREF*%
X47133058Y-171941942D03*
X51050000Y-159574990D03*
%TO.N,/M1_SL_B*%
X53725000Y-149325000D03*
X53725000Y-147275000D03*
X53725000Y-147950000D03*
X53725000Y-148625000D03*
%TO.N,/M1_SL_C*%
X43875000Y-147450000D03*
X43925000Y-148850000D03*
X43900000Y-148125000D03*
X43925000Y-149575000D03*
%TO.N,Net-(D4-A)*%
X57902500Y-155710034D03*
%TO.N,/M1_GH_A*%
X56975000Y-158250000D03*
X54050004Y-157925000D03*
%TO.N,/M1_GL_A*%
X65400000Y-149325000D03*
X55717905Y-167650000D03*
%TO.N,/M1_GH_B*%
X46675000Y-157300000D03*
X55600000Y-158125000D03*
%TO.N,/M1_GL_B*%
X55700000Y-149325000D03*
X56850000Y-166999998D03*
%TO.N,/M1_GH_C*%
X37024996Y-151925008D03*
X47395827Y-167117697D03*
%TO.N,/M1_GL_C*%
X45975000Y-148600000D03*
X57050000Y-165750024D03*
%TO.N,/Ibeta*%
X57870000Y-161930000D03*
X46350000Y-152240000D03*
%TO.N,/Ialpha*%
X57180134Y-162655000D03*
X55750000Y-152750000D03*
%TO.N,Net-(D5-A)*%
X65400000Y-145950000D03*
%TO.N,Net-(D6-A)*%
X52425000Y-158175000D03*
X48163750Y-155709960D03*
%TO.N,Net-(D7-A)*%
X55725000Y-146000000D03*
%TO.N,Net-(D8-A)*%
X38400000Y-155709914D03*
%TO.N,Net-(D9-A)*%
X46025000Y-147000000D03*
%TO.N,/FDCAN_TX*%
X45550000Y-165250000D03*
%TO.N,/FDCAN_RX*%
X46512492Y-165537508D03*
%TO.N,/UART_TX*%
X63125000Y-166950000D03*
X53210000Y-169130000D03*
%TO.N,/UART_RX*%
X63100000Y-168250000D03*
X54250002Y-169785000D03*
%TO.N,/HIN_1*%
X45797495Y-163163144D03*
X55950000Y-160100000D03*
%TO.N,/HIN_2*%
X57850000Y-163280000D03*
X46500000Y-163775000D03*
X56750000Y-159500000D03*
%TO.N,/HIN_3*%
X45602757Y-163938568D03*
X56800000Y-164125006D03*
X57328133Y-161314929D03*
%TO.N,/SWDIO*%
X48887502Y-170505000D03*
%TO.N,/SWCLK*%
X51575002Y-170475000D03*
X48825000Y-167950000D03*
%TD*%
D23*
%TO.N,/EN2*%
X53080000Y-170970000D02*
X51880000Y-169770000D01*
X67100000Y-166370000D02*
X62500000Y-170970000D01*
X62500000Y-170970000D02*
X53080000Y-170970000D01*
X67995000Y-161375000D02*
X67100000Y-162270000D01*
X67100000Y-162270000D02*
X67100000Y-166370000D01*
X70275000Y-161375000D02*
X67995000Y-161375000D01*
X51880000Y-169770000D02*
X51880000Y-169320000D01*
%TO.N,/UART_TX*%
X60915000Y-169160000D02*
X53240000Y-169160000D01*
X63125000Y-166950000D02*
X60915000Y-169160000D01*
X53240000Y-169160000D02*
X53210000Y-169130000D01*
%TO.N,/EN3*%
X53537653Y-170490000D02*
X52945273Y-169897620D01*
X62110000Y-170490000D02*
X53537653Y-170490000D01*
X68075000Y-160125000D02*
X66410000Y-161790000D01*
X70275000Y-160125000D02*
X68075000Y-160125000D01*
X66410000Y-161790000D02*
X66410000Y-166190000D01*
X66410000Y-166190000D02*
X62110000Y-170490000D01*
%TO.N,/UART_RX*%
X54285002Y-169750000D02*
X54250002Y-169785000D01*
X61600000Y-169750000D02*
X54285002Y-169750000D01*
X63100000Y-168250000D02*
X61600000Y-169750000D01*
%TO.N,/EN1*%
X50730000Y-170210002D02*
X51190002Y-169750000D01*
X50730000Y-172710000D02*
X50730000Y-170210002D01*
X52210000Y-174190000D02*
X50730000Y-172710000D01*
X63310000Y-174190000D02*
X52210000Y-174190000D01*
X64380000Y-173120000D02*
X63310000Y-174190000D01*
X67860000Y-167340000D02*
X64380000Y-170820000D01*
X64380000Y-170820000D02*
X64380000Y-173120000D01*
X67860000Y-163120000D02*
X67860000Y-167340000D01*
X68355000Y-162625000D02*
X67860000Y-163120000D01*
X70275000Y-162625000D02*
X68355000Y-162625000D01*
D24*
%TO.N,+5V*%
X35950010Y-174850010D02*
X42449990Y-174850010D01*
X42450010Y-174850010D02*
X55116142Y-174850010D01*
X55116142Y-174850010D02*
X55135754Y-174869622D01*
X42449990Y-174850010D02*
X42450000Y-174850000D01*
X33300000Y-172200000D02*
X35950010Y-174850010D01*
X42450000Y-174850000D02*
X42450010Y-174850010D01*
D23*
%TO.N,Net-(D11-K)*%
X52311396Y-157250000D02*
X55124972Y-157250000D01*
D25*
X46225000Y-159825000D02*
X46225000Y-160225000D01*
X51761396Y-157800000D02*
X52311396Y-157250000D01*
X46225000Y-159825000D02*
X48250000Y-157800000D01*
X48250000Y-157800000D02*
X51761396Y-157800000D01*
D23*
X55124972Y-157250000D02*
X56400000Y-155974972D01*
%TO.N,Net-(D2-K)*%
X46200000Y-162175000D02*
X44400000Y-162175000D01*
X44025000Y-158199998D02*
X46775000Y-155449998D01*
X44400000Y-162175000D02*
X44025000Y-161800000D01*
X44025000Y-161800000D02*
X44025000Y-158199998D01*
%TO.N,/VS2*%
X46775000Y-153899972D02*
X45200028Y-153899972D01*
X43744818Y-157833422D02*
X43550000Y-158028240D01*
X45200028Y-153899972D02*
X43744818Y-155355182D01*
X43744818Y-155355182D02*
X43744818Y-157833422D01*
X43550000Y-163162439D02*
X45012549Y-164624988D01*
X43550000Y-158028240D02*
X43550000Y-163162439D01*
%TO.N,/VS3*%
X48061822Y-167560934D02*
X47472756Y-168150000D01*
X47472756Y-168150000D02*
X43850000Y-168150000D01*
X43850000Y-168150000D02*
X42650000Y-166950000D01*
X42650000Y-166950000D02*
X42650000Y-159075000D01*
X38412500Y-154837500D02*
X38412500Y-153824996D01*
X42650000Y-159075000D02*
X38412500Y-154837500D01*
%TO.N,+3.3V*%
X40800000Y-150900000D02*
X35300000Y-150900000D01*
X56250000Y-168275000D02*
X49800000Y-168275000D01*
X42725000Y-168025000D02*
X37750000Y-168025000D01*
X37750000Y-168025000D02*
X35300000Y-165575000D01*
X40800000Y-150900000D02*
X40975000Y-150900000D01*
D25*
X50425000Y-150850000D02*
X46275004Y-150850000D01*
D23*
X35300000Y-165575000D02*
X35300000Y-150900000D01*
X43425000Y-168725000D02*
X42725000Y-168025000D01*
X40975000Y-150900000D02*
X46224996Y-150900000D01*
X46224996Y-150900000D02*
X46225000Y-150900004D01*
D25*
X46275004Y-150850000D02*
X46225000Y-150900004D01*
D23*
X49350000Y-168725000D02*
X43425000Y-168725000D01*
X49800000Y-168275000D02*
X49350000Y-168725000D01*
%TO.N,/M1_GL_A*%
X65325000Y-149400000D02*
X65325000Y-159700000D01*
X65325000Y-159700000D02*
X57375000Y-167650000D01*
X57375000Y-167650000D02*
X55717905Y-167650000D01*
X65400000Y-149325000D02*
X65325000Y-149400000D01*
%TO.N,/M1_GL_B*%
X60125000Y-163724998D02*
X56850000Y-166999998D01*
X55700000Y-149325000D02*
X55700000Y-150875000D01*
X60125000Y-155300000D02*
X60125000Y-163724998D01*
X55700000Y-150875000D02*
X60125000Y-155300000D01*
%TO.N,/M1_GH_C*%
X39350000Y-153100000D02*
X39350000Y-155075000D01*
X43100000Y-166750000D02*
X44050000Y-167700000D01*
X37024996Y-151925008D02*
X38175008Y-151925008D01*
X43100000Y-158825000D02*
X43100000Y-166750000D01*
X38175008Y-151925008D02*
X39350000Y-153100000D01*
X44050000Y-167700000D02*
X46813524Y-167700000D01*
X46813524Y-167700000D02*
X47395827Y-167117697D01*
X39350000Y-155075000D02*
X43100000Y-158825000D01*
%TO.N,/M1_GL_C*%
X47425000Y-150050000D02*
X53975000Y-150050000D01*
X59675000Y-155750000D02*
X59675000Y-163125024D01*
X53975000Y-150050000D02*
X59675000Y-155750000D01*
X59675000Y-163125024D02*
X57050000Y-165750024D01*
X45975000Y-148600000D02*
X47425000Y-150050000D01*
D25*
%TO.N,/HIN_2*%
X58825000Y-160125000D02*
X58825000Y-162525000D01*
X58070000Y-163280000D02*
X57850000Y-163280000D01*
X56750000Y-159500000D02*
X58200000Y-159500000D01*
X58200000Y-159500000D02*
X58825000Y-160125000D01*
X58825000Y-162525000D02*
X58070000Y-163280000D01*
%TO.N,/HIN_3*%
X55900006Y-164125006D02*
X55700000Y-163925000D01*
X56800000Y-164125006D02*
X55900006Y-164125006D01*
X56060071Y-161314929D02*
X57328133Y-161314929D01*
X55700000Y-161675000D02*
X56060071Y-161314929D01*
X55700000Y-163925000D02*
X55700000Y-161675000D01*
%TD*%
%TA.AperFunction,Conductor*%
%TO.N,GND*%
G36*
X71766858Y-157320813D02*
G01*
X71812956Y-157373317D01*
X71824500Y-157425563D01*
X71824500Y-179700500D01*
X71804815Y-179767539D01*
X71752011Y-179813294D01*
X71700500Y-179824500D01*
X32299500Y-179824500D01*
X32232461Y-179804815D01*
X32186706Y-179752011D01*
X32175500Y-179700500D01*
X32175500Y-177550001D01*
X45194390Y-177550001D01*
X45214804Y-177835433D01*
X45275628Y-178115037D01*
X45275630Y-178115043D01*
X45275631Y-178115046D01*
X45305331Y-178194675D01*
X45375635Y-178383166D01*
X45512770Y-178634309D01*
X45512775Y-178634317D01*
X45684254Y-178863387D01*
X45684270Y-178863405D01*
X45886594Y-179065729D01*
X45886612Y-179065745D01*
X46115682Y-179237224D01*
X46115690Y-179237229D01*
X46366833Y-179374364D01*
X46366832Y-179374364D01*
X46366836Y-179374365D01*
X46366839Y-179374367D01*
X46634954Y-179474369D01*
X46634960Y-179474370D01*
X46634962Y-179474371D01*
X46914566Y-179535195D01*
X46914568Y-179535195D01*
X46914572Y-179535196D01*
X47168220Y-179553337D01*
X47199999Y-179555610D01*
X47200000Y-179555610D01*
X47200001Y-179555610D01*
X47228595Y-179553564D01*
X47485428Y-179535196D01*
X47765046Y-179474369D01*
X48033161Y-179374367D01*
X48284315Y-179237226D01*
X48513395Y-179065739D01*
X48715739Y-178863395D01*
X48887226Y-178634315D01*
X49024367Y-178383161D01*
X49124369Y-178115046D01*
X49124371Y-178115037D01*
X49185195Y-177835433D01*
X49185195Y-177835432D01*
X49185196Y-177835428D01*
X49199214Y-177639425D01*
X57954750Y-177639425D01*
X57973670Y-177783133D01*
X57973671Y-177783137D01*
X58029137Y-177917047D01*
X58029138Y-177917049D01*
X58029139Y-177917050D01*
X58117379Y-178032046D01*
X58232375Y-178120286D01*
X58366291Y-178175755D01*
X58493280Y-178192473D01*
X58509999Y-178194675D01*
X58510000Y-178194675D01*
X58510001Y-178194675D01*
X58524977Y-178192703D01*
X58653709Y-178175755D01*
X58787625Y-178120286D01*
X58902621Y-178032046D01*
X58990861Y-177917050D01*
X59046330Y-177783134D01*
X59065250Y-177639425D01*
X59046330Y-177495716D01*
X58990861Y-177361800D01*
X58990861Y-177361799D01*
X58986797Y-177354760D01*
X58988942Y-177353521D01*
X58968245Y-177300009D01*
X58982274Y-177231562D01*
X58987144Y-177223983D01*
X58990856Y-177217553D01*
X58990861Y-177217547D01*
X59046330Y-177083631D01*
X59065250Y-176939922D01*
X59046330Y-176796213D01*
X58990861Y-176662297D01*
X58902621Y-176547301D01*
X58787625Y-176459061D01*
X58787624Y-176459060D01*
X58787622Y-176459059D01*
X58653712Y-176403593D01*
X58653710Y-176403592D01*
X58653709Y-176403592D01*
X58581854Y-176394132D01*
X58510001Y-176384672D01*
X58509999Y-176384672D01*
X58366291Y-176403592D01*
X58366287Y-176403593D01*
X58232377Y-176459059D01*
X58117379Y-176547301D01*
X58029137Y-176662299D01*
X57973671Y-176796209D01*
X57973670Y-176796213D01*
X57954750Y-176939921D01*
X57954750Y-176939922D01*
X57973670Y-177083630D01*
X57973671Y-177083634D01*
X58029138Y-177217547D01*
X58033203Y-177224587D01*
X58031061Y-177225823D01*
X58051755Y-177279369D01*
X58037710Y-177347812D01*
X58032829Y-177355407D01*
X58029138Y-177361799D01*
X57973671Y-177495712D01*
X57973670Y-177495716D01*
X57954750Y-177639424D01*
X57954750Y-177639425D01*
X49199214Y-177639425D01*
X49205610Y-177550000D01*
X49185196Y-177264572D01*
X49176366Y-177223983D01*
X49124371Y-176984962D01*
X49124370Y-176984960D01*
X49124369Y-176984954D01*
X49024367Y-176716839D01*
X48887226Y-176465685D01*
X48887224Y-176465682D01*
X48715745Y-176236612D01*
X48715729Y-176236594D01*
X48513405Y-176034270D01*
X48513387Y-176034254D01*
X48284317Y-175862775D01*
X48284309Y-175862770D01*
X48033166Y-175725635D01*
X48033167Y-175725635D01*
X47925915Y-175685632D01*
X47765046Y-175625631D01*
X47765043Y-175625630D01*
X47765037Y-175625628D01*
X47485433Y-175564804D01*
X47253188Y-175548194D01*
X47197751Y-175527516D01*
X47172901Y-175543487D01*
X47146812Y-175548194D01*
X46914566Y-175564804D01*
X46634962Y-175625628D01*
X46366833Y-175725635D01*
X46115690Y-175862770D01*
X46115682Y-175862775D01*
X45886612Y-176034254D01*
X45886594Y-176034270D01*
X45684270Y-176236594D01*
X45684254Y-176236612D01*
X45512775Y-176465682D01*
X45512770Y-176465690D01*
X45375635Y-176716833D01*
X45275628Y-176984962D01*
X45214804Y-177264566D01*
X45194390Y-177549998D01*
X45194390Y-177550001D01*
X32175500Y-177550001D01*
X32175500Y-170505000D01*
X48332252Y-170505000D01*
X48349868Y-170638808D01*
X48351172Y-170648708D01*
X48351173Y-170648712D01*
X48406639Y-170782622D01*
X48406640Y-170782624D01*
X48406641Y-170782625D01*
X48494881Y-170897621D01*
X48609877Y-170985861D01*
X48609878Y-170985861D01*
X48609879Y-170985862D01*
X48654515Y-171004350D01*
X48743793Y-171041330D01*
X48870782Y-171058048D01*
X48887501Y-171060250D01*
X48887502Y-171060250D01*
X48887503Y-171060250D01*
X48902479Y-171058278D01*
X49031211Y-171041330D01*
X49165127Y-170985861D01*
X49280123Y-170897621D01*
X49368363Y-170782625D01*
X49423832Y-170648709D01*
X49442752Y-170505000D01*
X49423832Y-170361291D01*
X49368363Y-170227375D01*
X49280123Y-170112379D01*
X49165127Y-170024139D01*
X49165126Y-170024138D01*
X49165124Y-170024137D01*
X49031214Y-169968671D01*
X49031212Y-169968670D01*
X49031211Y-169968670D01*
X48949604Y-169957926D01*
X48887503Y-169949750D01*
X48887501Y-169949750D01*
X48743793Y-169968670D01*
X48743789Y-169968671D01*
X48609879Y-170024137D01*
X48494881Y-170112379D01*
X48406639Y-170227377D01*
X48351173Y-170361287D01*
X48351172Y-170361291D01*
X48332252Y-170505000D01*
X32175500Y-170505000D01*
X32175500Y-157682505D01*
X32195185Y-157615466D01*
X32247989Y-157569711D01*
X32298687Y-157558508D01*
X34799694Y-157542199D01*
X34866858Y-157561445D01*
X34912956Y-157613949D01*
X34924500Y-157666195D01*
X34924500Y-160576312D01*
X34904815Y-160643351D01*
X34852011Y-160689106D01*
X34782853Y-160699050D01*
X34725014Y-160674688D01*
X34652624Y-160619141D01*
X34652623Y-160619140D01*
X34652621Y-160619139D01*
X34518711Y-160563673D01*
X34518709Y-160563672D01*
X34518708Y-160563672D01*
X34446853Y-160554212D01*
X34375000Y-160544752D01*
X34374998Y-160544752D01*
X34231290Y-160563672D01*
X34231286Y-160563673D01*
X34097376Y-160619139D01*
X33982378Y-160707381D01*
X33894136Y-160822379D01*
X33838670Y-160956289D01*
X33838669Y-160956293D01*
X33819749Y-161100001D01*
X33819749Y-161100002D01*
X33838669Y-161243710D01*
X33838670Y-161243714D01*
X33894136Y-161377624D01*
X33894137Y-161377626D01*
X33894138Y-161377627D01*
X33982378Y-161492623D01*
X34097374Y-161580863D01*
X34097375Y-161580863D01*
X34097376Y-161580864D01*
X34120618Y-161590491D01*
X34231290Y-161636332D01*
X34358279Y-161653050D01*
X34374998Y-161655252D01*
X34374999Y-161655252D01*
X34375000Y-161655252D01*
X34389976Y-161653280D01*
X34518708Y-161636332D01*
X34652624Y-161580863D01*
X34725014Y-161525315D01*
X34790182Y-161500121D01*
X34858627Y-161514159D01*
X34908617Y-161562972D01*
X34924500Y-161623691D01*
X34924500Y-165523196D01*
X34921862Y-165548634D01*
X34919633Y-165559268D01*
X34919633Y-165559269D01*
X34919633Y-165559271D01*
X34924023Y-165594491D01*
X34924500Y-165602167D01*
X34924500Y-165606116D01*
X34928342Y-165629141D01*
X34935134Y-165683627D01*
X34937373Y-165691147D01*
X34939934Y-165698608D01*
X34939935Y-165698610D01*
X34964055Y-165743181D01*
X34966055Y-165746877D01*
X34990174Y-165796211D01*
X34994742Y-165802609D01*
X34999582Y-165808827D01*
X35039971Y-165846009D01*
X35156781Y-165962819D01*
X35190266Y-166024142D01*
X35185282Y-166093834D01*
X35143410Y-166149767D01*
X35077946Y-166174184D01*
X35069100Y-166174500D01*
X34953036Y-166174500D01*
X34814949Y-166215045D01*
X34693873Y-166292856D01*
X34599623Y-166401626D01*
X34542147Y-166527479D01*
X34496391Y-166580282D01*
X34476806Y-166590527D01*
X34347376Y-166644138D01*
X34232379Y-166732379D01*
X34144137Y-166847377D01*
X34088671Y-166981287D01*
X34088670Y-166981291D01*
X34071242Y-167113671D01*
X34069750Y-167125000D01*
X34080711Y-167208259D01*
X34088670Y-167268708D01*
X34088671Y-167268712D01*
X34144137Y-167402622D01*
X34144138Y-167402624D01*
X34144139Y-167402625D01*
X34232379Y-167517621D01*
X34347375Y-167605861D01*
X34481291Y-167661330D01*
X34608280Y-167678048D01*
X34624999Y-167680250D01*
X34625000Y-167680250D01*
X34625001Y-167680250D01*
X34639977Y-167678278D01*
X34768709Y-167661330D01*
X34902625Y-167605861D01*
X35017621Y-167517621D01*
X35105861Y-167402625D01*
X35161330Y-167268709D01*
X35166386Y-167230300D01*
X35194652Y-167166405D01*
X35228323Y-167140885D01*
X35227592Y-167139747D01*
X35235050Y-167134953D01*
X35235053Y-167134953D01*
X35356128Y-167057143D01*
X35450377Y-166948373D01*
X35510165Y-166817457D01*
X35530647Y-166675000D01*
X35526857Y-166648641D01*
X35536800Y-166579484D01*
X35582555Y-166526680D01*
X35649594Y-166506995D01*
X35716634Y-166526679D01*
X35737276Y-166543314D01*
X37447849Y-168253886D01*
X37463977Y-168273745D01*
X37469916Y-168282836D01*
X37497932Y-168304641D01*
X37503693Y-168309730D01*
X37506482Y-168312519D01*
X37525483Y-168326085D01*
X37555566Y-168349500D01*
X37568811Y-168359809D01*
X37575722Y-168363549D01*
X37582800Y-168367010D01*
X37635405Y-168382671D01*
X37687340Y-168400500D01*
X37687342Y-168400500D01*
X37695079Y-168401791D01*
X37702909Y-168402767D01*
X37702911Y-168402768D01*
X37702912Y-168402767D01*
X37702913Y-168402768D01*
X37757755Y-168400500D01*
X41936695Y-168400500D01*
X41968436Y-168404631D01*
X42131022Y-168447684D01*
X42406803Y-168520711D01*
X42411793Y-168522262D01*
X42778211Y-168653334D01*
X42820628Y-168668507D01*
X42866544Y-168697581D01*
X43122849Y-168953886D01*
X43138978Y-168973747D01*
X43142227Y-168978721D01*
X43144916Y-168982836D01*
X43172932Y-169004641D01*
X43178693Y-169009730D01*
X43181482Y-169012519D01*
X43200483Y-169026085D01*
X43221415Y-169042377D01*
X43243811Y-169059809D01*
X43250722Y-169063549D01*
X43257800Y-169067010D01*
X43310405Y-169082671D01*
X43362340Y-169100500D01*
X43362342Y-169100500D01*
X43370079Y-169101791D01*
X43377909Y-169102767D01*
X43377911Y-169102768D01*
X43377912Y-169102767D01*
X43377913Y-169102768D01*
X43432755Y-169100500D01*
X49298196Y-169100500D01*
X49323641Y-169103139D01*
X49327440Y-169103935D01*
X49334268Y-169105367D01*
X49355225Y-169102754D01*
X49369492Y-169100977D01*
X49377168Y-169100500D01*
X49381112Y-169100500D01*
X49381114Y-169100500D01*
X49381116Y-169100499D01*
X49381122Y-169100499D01*
X49396487Y-169097934D01*
X49404140Y-169096657D01*
X49458626Y-169089866D01*
X49458627Y-169089865D01*
X49458629Y-169089865D01*
X49466141Y-169087628D01*
X49473606Y-169085066D01*
X49473606Y-169085065D01*
X49473610Y-169085065D01*
X49521877Y-169058944D01*
X49571211Y-169034826D01*
X49571214Y-169034823D01*
X49577594Y-169030268D01*
X49583818Y-169025423D01*
X49583826Y-169025419D01*
X49621008Y-168985028D01*
X49919218Y-168686819D01*
X49980541Y-168653334D01*
X50006899Y-168650500D01*
X51482922Y-168650500D01*
X51549961Y-168670185D01*
X51595716Y-168722989D01*
X51605660Y-168792147D01*
X51576635Y-168855703D01*
X51558409Y-168872875D01*
X51487381Y-168927377D01*
X51487380Y-168927378D01*
X51487379Y-168927379D01*
X51447983Y-168978721D01*
X51399138Y-169042376D01*
X51364884Y-169125074D01*
X51321043Y-169179477D01*
X51254749Y-169201542D01*
X51234139Y-169200560D01*
X51190005Y-169194750D01*
X51190001Y-169194750D01*
X51046293Y-169213670D01*
X51046289Y-169213671D01*
X50912379Y-169269137D01*
X50797381Y-169357379D01*
X50709141Y-169472375D01*
X50709140Y-169472376D01*
X50709140Y-169472377D01*
X50699270Y-169496205D01*
X50684524Y-169521074D01*
X50684777Y-169521240D01*
X50681442Y-169526331D01*
X50472471Y-169926263D01*
X50460423Y-169945000D01*
X50450362Y-169957926D01*
X50445283Y-169963679D01*
X50442484Y-169966479D01*
X50442474Y-169966490D01*
X50428905Y-169985497D01*
X50395192Y-170028810D01*
X50391447Y-170035731D01*
X50387988Y-170042806D01*
X50372329Y-170095405D01*
X50354500Y-170147340D01*
X50353206Y-170155094D01*
X50352231Y-170162913D01*
X50354500Y-170217757D01*
X50354500Y-172658196D01*
X50351862Y-172683634D01*
X50349633Y-172694268D01*
X50349633Y-172694269D01*
X50349633Y-172694271D01*
X50354023Y-172729491D01*
X50354500Y-172737167D01*
X50354500Y-172741116D01*
X50358342Y-172764141D01*
X50365134Y-172818627D01*
X50367373Y-172826147D01*
X50369934Y-172833608D01*
X50369935Y-172833610D01*
X50396055Y-172881877D01*
X50420174Y-172931211D01*
X50424742Y-172937609D01*
X50429582Y-172943827D01*
X50469971Y-172981009D01*
X51676792Y-174187829D01*
X51710277Y-174249152D01*
X51705293Y-174318844D01*
X51663421Y-174374777D01*
X51597957Y-174399194D01*
X51589111Y-174399510D01*
X43110349Y-174399510D01*
X43088366Y-174396598D01*
X43088240Y-174397358D01*
X42609095Y-174317492D01*
X42603242Y-174316224D01*
X42593711Y-174313670D01*
X42569761Y-174310516D01*
X42557788Y-174308940D01*
X42543454Y-174306551D01*
X42500456Y-174299384D01*
X42492712Y-174298415D01*
X42490132Y-174298093D01*
X42489108Y-174298007D01*
X42483062Y-174297499D01*
X42467552Y-174296822D01*
X42462164Y-174296351D01*
X42450000Y-174294750D01*
X42449998Y-174294750D01*
X42415625Y-174299275D01*
X42395578Y-174300276D01*
X42394416Y-174300239D01*
X42342222Y-174308939D01*
X42306287Y-174313670D01*
X42296765Y-174316222D01*
X42290911Y-174317491D01*
X41813022Y-174397148D01*
X41812947Y-174396701D01*
X41789911Y-174399510D01*
X36187976Y-174399510D01*
X36120937Y-174379825D01*
X36100295Y-174363191D01*
X34085486Y-172348383D01*
X34072003Y-172330781D01*
X34071375Y-172331230D01*
X33991614Y-172219564D01*
X33793313Y-171941942D01*
X46577808Y-171941942D01*
X46596728Y-172085650D01*
X46596729Y-172085654D01*
X46652195Y-172219564D01*
X46652196Y-172219566D01*
X46652197Y-172219567D01*
X46740437Y-172334563D01*
X46855433Y-172422803D01*
X46989349Y-172478272D01*
X47116338Y-172494990D01*
X47133057Y-172497192D01*
X47133058Y-172497192D01*
X47133059Y-172497192D01*
X47148035Y-172495220D01*
X47276767Y-172478272D01*
X47410683Y-172422803D01*
X47525679Y-172334563D01*
X47613919Y-172219567D01*
X47669388Y-172085651D01*
X47688308Y-171941942D01*
X47669388Y-171798233D01*
X47613919Y-171664317D01*
X47525679Y-171549321D01*
X47410683Y-171461081D01*
X47410682Y-171461080D01*
X47410680Y-171461079D01*
X47276770Y-171405613D01*
X47276768Y-171405612D01*
X47276767Y-171405612D01*
X47204912Y-171396152D01*
X47133059Y-171386692D01*
X47133057Y-171386692D01*
X46989349Y-171405612D01*
X46989345Y-171405613D01*
X46855435Y-171461079D01*
X46740437Y-171549321D01*
X46652195Y-171664319D01*
X46596729Y-171798229D01*
X46596728Y-171798233D01*
X46577808Y-171941941D01*
X46577808Y-171941942D01*
X33793313Y-171941942D01*
X33789024Y-171935938D01*
X33785786Y-171930907D01*
X33780862Y-171922379D01*
X33780861Y-171922375D01*
X33758806Y-171893633D01*
X33725050Y-171846374D01*
X33718733Y-171838244D01*
X33714194Y-171832863D01*
X33703561Y-171821253D01*
X33700111Y-171817140D01*
X33692621Y-171807379D01*
X33692619Y-171807378D01*
X33692619Y-171807377D01*
X33577625Y-171719139D01*
X33577623Y-171719138D01*
X33443712Y-171663671D01*
X33443710Y-171663670D01*
X33443709Y-171663670D01*
X33371854Y-171654210D01*
X33300001Y-171644750D01*
X33299999Y-171644750D01*
X33156291Y-171663670D01*
X33156287Y-171663671D01*
X33022377Y-171719137D01*
X32907379Y-171807379D01*
X32819137Y-171922377D01*
X32763671Y-172056287D01*
X32763670Y-172056291D01*
X32744750Y-172199999D01*
X32744750Y-172200000D01*
X32763670Y-172343708D01*
X32763671Y-172343712D01*
X32819137Y-172477622D01*
X32819138Y-172477624D01*
X32819139Y-172477625D01*
X32907379Y-172592621D01*
X32907380Y-172592622D01*
X32907382Y-172592624D01*
X32934881Y-172613724D01*
X32949764Y-172627192D01*
X32950563Y-172628042D01*
X32950565Y-172628044D01*
X32993629Y-172658804D01*
X33022371Y-172680858D01*
X33022375Y-172680861D01*
X33022379Y-172680862D01*
X33030903Y-172685783D01*
X33035941Y-172689026D01*
X33426271Y-172967833D01*
X33426273Y-172967834D01*
X33430186Y-172970629D01*
X33429921Y-172970999D01*
X33448196Y-172985300D01*
X35611100Y-175148203D01*
X35615736Y-175153390D01*
X35640131Y-175183980D01*
X35640131Y-175183981D01*
X35689281Y-175217490D01*
X35737128Y-175252803D01*
X35744664Y-175256786D01*
X35752329Y-175260477D01*
X35752337Y-175260482D01*
X35809187Y-175278017D01*
X35865307Y-175297655D01*
X35865309Y-175297655D01*
X35865311Y-175297656D01*
X35865312Y-175297656D01*
X35873689Y-175299240D01*
X35882106Y-175300509D01*
X35882108Y-175300510D01*
X35941584Y-175300510D01*
X36001019Y-175302734D01*
X36001019Y-175302733D01*
X36001020Y-175302734D01*
X36001020Y-175302733D01*
X36010254Y-175301694D01*
X36010347Y-175302523D01*
X36025646Y-175300510D01*
X41789663Y-175300510D01*
X41811644Y-175303420D01*
X41811771Y-175302662D01*
X41916759Y-175320158D01*
X42290943Y-175382515D01*
X42296792Y-175383784D01*
X42306285Y-175386327D01*
X42306291Y-175386330D01*
X42342181Y-175391055D01*
X42399519Y-175400611D01*
X42407217Y-175401575D01*
X42409783Y-175401897D01*
X42413301Y-175402194D01*
X42416818Y-175402491D01*
X42417260Y-175402510D01*
X42432467Y-175403175D01*
X42437803Y-175403643D01*
X42450000Y-175405250D01*
X42484367Y-175400724D01*
X42504431Y-175399725D01*
X42505577Y-175399761D01*
X42557811Y-175391056D01*
X42593709Y-175386330D01*
X42593719Y-175386325D01*
X42603204Y-175383784D01*
X42609047Y-175382517D01*
X42881816Y-175337060D01*
X43086966Y-175302873D01*
X43087040Y-175303319D01*
X43110079Y-175300510D01*
X47137966Y-175300510D01*
X47204881Y-175320158D01*
X47235676Y-175303344D01*
X47262034Y-175300510D01*
X54477020Y-175300510D01*
X54501462Y-175302942D01*
X54737893Y-175350483D01*
X54959721Y-175395087D01*
X54982733Y-175402094D01*
X54992045Y-175405952D01*
X55116833Y-175422380D01*
X55135753Y-175424872D01*
X55135754Y-175424872D01*
X55135755Y-175424872D01*
X55150731Y-175422900D01*
X55279463Y-175405952D01*
X55413379Y-175350483D01*
X55528375Y-175262243D01*
X55616615Y-175147247D01*
X55672084Y-175013331D01*
X55691004Y-174869622D01*
X55672084Y-174725913D01*
X55672081Y-174725907D01*
X55670926Y-174721594D01*
X55672589Y-174651744D01*
X55711751Y-174593882D01*
X55775979Y-174566377D01*
X55790701Y-174565500D01*
X63258196Y-174565500D01*
X63283641Y-174568139D01*
X63287440Y-174568935D01*
X63294268Y-174570367D01*
X63315225Y-174567754D01*
X63329492Y-174565977D01*
X63337168Y-174565500D01*
X63341112Y-174565500D01*
X63341114Y-174565500D01*
X63341116Y-174565499D01*
X63341122Y-174565499D01*
X63356487Y-174562934D01*
X63364140Y-174561657D01*
X63418626Y-174554866D01*
X63418627Y-174554865D01*
X63418629Y-174554865D01*
X63426141Y-174552628D01*
X63433606Y-174550066D01*
X63433606Y-174550065D01*
X63433610Y-174550065D01*
X63481877Y-174523944D01*
X63531211Y-174499826D01*
X63531214Y-174499823D01*
X63537594Y-174495268D01*
X63543819Y-174490422D01*
X63543826Y-174490419D01*
X63581008Y-174450028D01*
X64608889Y-173422146D01*
X64628746Y-173406022D01*
X64637836Y-173400084D01*
X64659651Y-173372054D01*
X64664719Y-173366316D01*
X64667520Y-173363517D01*
X64681088Y-173344513D01*
X64714809Y-173301189D01*
X64714810Y-173301183D01*
X64718543Y-173294287D01*
X64722006Y-173287203D01*
X64722010Y-173287199D01*
X64737673Y-173234587D01*
X64755500Y-173182660D01*
X64755500Y-173182655D01*
X64756777Y-173175000D01*
X65231794Y-173175000D01*
X65248407Y-173301189D01*
X65250714Y-173318708D01*
X65250715Y-173318712D01*
X65306181Y-173452622D01*
X65306182Y-173452624D01*
X65306183Y-173452625D01*
X65394423Y-173567621D01*
X65509419Y-173655861D01*
X65643335Y-173711330D01*
X65770324Y-173728048D01*
X65787043Y-173730250D01*
X65787044Y-173730250D01*
X65787045Y-173730250D01*
X65802021Y-173728278D01*
X65930753Y-173711330D01*
X66064669Y-173655861D01*
X66179665Y-173567621D01*
X66267905Y-173452625D01*
X66323374Y-173318709D01*
X66342294Y-173175000D01*
X66323374Y-173031291D01*
X66281920Y-172931211D01*
X66267906Y-172897377D01*
X66267905Y-172897376D01*
X66267905Y-172897375D01*
X66179665Y-172782379D01*
X66064669Y-172694139D01*
X66064668Y-172694138D01*
X66064666Y-172694137D01*
X65930756Y-172638671D01*
X65930754Y-172638670D01*
X65930753Y-172638670D01*
X65843616Y-172627198D01*
X65787045Y-172619750D01*
X65787043Y-172619750D01*
X65643335Y-172638670D01*
X65643331Y-172638671D01*
X65509421Y-172694137D01*
X65394423Y-172782379D01*
X65306181Y-172897377D01*
X65250715Y-173031287D01*
X65250714Y-173031291D01*
X65231794Y-173175000D01*
X64756777Y-173175000D01*
X64756795Y-173174895D01*
X64757769Y-173167086D01*
X64755500Y-173112231D01*
X64755500Y-171026898D01*
X64775185Y-170959859D01*
X64791814Y-170939222D01*
X66647202Y-169083833D01*
X69395624Y-169083833D01*
X69405944Y-169247860D01*
X69456732Y-169404171D01*
X69456734Y-169404175D01*
X69544797Y-169542940D01*
X69613692Y-169607636D01*
X69649086Y-169667877D01*
X69646294Y-169737691D01*
X69606200Y-169794912D01*
X69602443Y-169797798D01*
X69527849Y-169852851D01*
X69447207Y-169962117D01*
X69447206Y-169962119D01*
X69402353Y-170090298D01*
X69402353Y-170090300D01*
X69399500Y-170120730D01*
X69399500Y-170629269D01*
X69402353Y-170659699D01*
X69402353Y-170659701D01*
X69447206Y-170787880D01*
X69447207Y-170787882D01*
X69527850Y-170897150D01*
X69637118Y-170977793D01*
X69660178Y-170985862D01*
X69765299Y-171022646D01*
X69795730Y-171025500D01*
X69795734Y-171025500D01*
X70804270Y-171025500D01*
X70834699Y-171022646D01*
X70834701Y-171022646D01*
X70919951Y-170992815D01*
X70962882Y-170977793D01*
X71072150Y-170897150D01*
X71152793Y-170787882D01*
X71181654Y-170705403D01*
X71197646Y-170659701D01*
X71197646Y-170659699D01*
X71200500Y-170629269D01*
X71200500Y-170120730D01*
X71197646Y-170090300D01*
X71197646Y-170090298D01*
X71155086Y-169968671D01*
X71152793Y-169962118D01*
X71072150Y-169852850D01*
X71072148Y-169852849D01*
X71072148Y-169852848D01*
X71001408Y-169800640D01*
X70959157Y-169744993D01*
X70953698Y-169675337D01*
X70986765Y-169613787D01*
X70993238Y-169608220D01*
X70998832Y-169602966D01*
X70998837Y-169602963D01*
X71103600Y-169476326D01*
X71173579Y-169327613D01*
X71204376Y-169166170D01*
X71194056Y-169002140D01*
X71143268Y-168845829D01*
X71139022Y-168839139D01*
X71055201Y-168707059D01*
X70935396Y-168594554D01*
X70935388Y-168594548D01*
X70791371Y-168515374D01*
X70791361Y-168515371D01*
X70632180Y-168474500D01*
X70632177Y-168474500D01*
X70009075Y-168474500D01*
X70009065Y-168474500D01*
X69886942Y-168489929D01*
X69886939Y-168489929D01*
X69734130Y-168550431D01*
X69734121Y-168550436D01*
X69601164Y-168647034D01*
X69601162Y-168647037D01*
X69496400Y-168773673D01*
X69426420Y-168922387D01*
X69409227Y-169012519D01*
X69395624Y-169083830D01*
X69395624Y-169083832D01*
X69395624Y-169083833D01*
X66647202Y-169083833D01*
X68088889Y-167642146D01*
X68108746Y-167626022D01*
X68117836Y-167620084D01*
X68139638Y-167592071D01*
X68144733Y-167586303D01*
X68147519Y-167583518D01*
X68147528Y-167583506D01*
X68161086Y-167564516D01*
X68194807Y-167521192D01*
X68198547Y-167514278D01*
X68202006Y-167507203D01*
X68202010Y-167507199D01*
X68213341Y-167469139D01*
X68217672Y-167454593D01*
X68235500Y-167402661D01*
X68236791Y-167394924D01*
X68237768Y-167387086D01*
X68235500Y-167332244D01*
X68235500Y-163326899D01*
X68255185Y-163259860D01*
X68271819Y-163239218D01*
X68474218Y-163036819D01*
X68535541Y-163003334D01*
X68561899Y-163000500D01*
X69142441Y-163000500D01*
X69186287Y-163008511D01*
X69491137Y-163123751D01*
X69546885Y-163165869D01*
X69571013Y-163231440D01*
X69555860Y-163299647D01*
X69520926Y-163339509D01*
X69502850Y-163352849D01*
X69422207Y-163462117D01*
X69422206Y-163462119D01*
X69377353Y-163590298D01*
X69377353Y-163590300D01*
X69374500Y-163620730D01*
X69374500Y-164129269D01*
X69377353Y-164159699D01*
X69377353Y-164159701D01*
X69415500Y-164268715D01*
X69422207Y-164287882D01*
X69502850Y-164397150D01*
X69612118Y-164477793D01*
X69637916Y-164486820D01*
X69740299Y-164522646D01*
X69770730Y-164525500D01*
X69770734Y-164525500D01*
X70779270Y-164525500D01*
X70809699Y-164522646D01*
X70809701Y-164522646D01*
X70885383Y-164496163D01*
X70937882Y-164477793D01*
X71047150Y-164397150D01*
X71127793Y-164287882D01*
X71163475Y-164185909D01*
X71172646Y-164159701D01*
X71172646Y-164159699D01*
X71175500Y-164129269D01*
X71175500Y-163620730D01*
X71172646Y-163590300D01*
X71172646Y-163590298D01*
X71127793Y-163462119D01*
X71127792Y-163462117D01*
X71047150Y-163352850D01*
X71047148Y-163352849D01*
X71047148Y-163352848D01*
X70976408Y-163300640D01*
X70934157Y-163244993D01*
X70928698Y-163175337D01*
X70961765Y-163113787D01*
X70968238Y-163108220D01*
X70973832Y-163102966D01*
X70973837Y-163102963D01*
X71078600Y-162976326D01*
X71148579Y-162827613D01*
X71179376Y-162666170D01*
X71169056Y-162502140D01*
X71118268Y-162345829D01*
X71030202Y-162207060D01*
X70996062Y-162175000D01*
X70904706Y-162089211D01*
X70906421Y-162087384D01*
X70871263Y-162041784D01*
X70865288Y-161972170D01*
X70897899Y-161910377D01*
X70913928Y-161896488D01*
X70973837Y-161852963D01*
X71078600Y-161726326D01*
X71148579Y-161577613D01*
X71179376Y-161416170D01*
X71169056Y-161252140D01*
X71118268Y-161095829D01*
X71030202Y-160957060D01*
X71011335Y-160939343D01*
X70904706Y-160839211D01*
X70906421Y-160837384D01*
X70871263Y-160791784D01*
X70865288Y-160722170D01*
X70897899Y-160660377D01*
X70913928Y-160646488D01*
X70973837Y-160602963D01*
X71078600Y-160476326D01*
X71148579Y-160327613D01*
X71179376Y-160166170D01*
X71169056Y-160002140D01*
X71118268Y-159845829D01*
X71030202Y-159707060D01*
X70992080Y-159671261D01*
X70910396Y-159594554D01*
X70910388Y-159594548D01*
X70766371Y-159515374D01*
X70766361Y-159515371D01*
X70607180Y-159474500D01*
X70607177Y-159474500D01*
X69984075Y-159474500D01*
X69984065Y-159474500D01*
X69861939Y-159489929D01*
X69810715Y-159510210D01*
X69785451Y-159517230D01*
X69774863Y-159518994D01*
X69774853Y-159518997D01*
X69186284Y-159741489D01*
X69142438Y-159749500D01*
X68126803Y-159749500D01*
X68101358Y-159746861D01*
X68090732Y-159744633D01*
X68090729Y-159744633D01*
X68055507Y-159749023D01*
X68047831Y-159749500D01*
X68043886Y-159749500D01*
X68032371Y-159751421D01*
X68020856Y-159753342D01*
X68008167Y-159754924D01*
X67966375Y-159760134D01*
X67966371Y-159760135D01*
X67958842Y-159762377D01*
X67951383Y-159764937D01*
X67903118Y-159791058D01*
X67853791Y-159815172D01*
X67847381Y-159819748D01*
X67841175Y-159824579D01*
X67803992Y-159864970D01*
X66181108Y-161487852D01*
X66161254Y-161503976D01*
X66152165Y-161509914D01*
X66152164Y-161509915D01*
X66130363Y-161537923D01*
X66125286Y-161543674D01*
X66122484Y-161546477D01*
X66122474Y-161546488D01*
X66108905Y-161565495D01*
X66075192Y-161608808D01*
X66071447Y-161615729D01*
X66067988Y-161622804D01*
X66052329Y-161675403D01*
X66034500Y-161727338D01*
X66033206Y-161735092D01*
X66032231Y-161742911D01*
X66034500Y-161797755D01*
X66034500Y-164753126D01*
X66014815Y-164820165D01*
X65962011Y-164865920D01*
X65892853Y-164875864D01*
X65835015Y-164851503D01*
X65727625Y-164769099D01*
X65727624Y-164769098D01*
X65727622Y-164769097D01*
X65593712Y-164713631D01*
X65593710Y-164713630D01*
X65593709Y-164713630D01*
X65521854Y-164704170D01*
X65450001Y-164694710D01*
X65449999Y-164694710D01*
X65306291Y-164713630D01*
X65306287Y-164713631D01*
X65172377Y-164769097D01*
X65057379Y-164857339D01*
X64969137Y-164972337D01*
X64913671Y-165106247D01*
X64913670Y-165106251D01*
X64894811Y-165249500D01*
X64894750Y-165249960D01*
X64909331Y-165360715D01*
X64913670Y-165393668D01*
X64913671Y-165393672D01*
X64969137Y-165527582D01*
X64969138Y-165527584D01*
X64969139Y-165527585D01*
X65057379Y-165642581D01*
X65172375Y-165730821D01*
X65172376Y-165730821D01*
X65172377Y-165730822D01*
X65210935Y-165746793D01*
X65306291Y-165786290D01*
X65430244Y-165802609D01*
X65449999Y-165805210D01*
X65450000Y-165805210D01*
X65450001Y-165805210D01*
X65469756Y-165802609D01*
X65593709Y-165786290D01*
X65727625Y-165730821D01*
X65835015Y-165648417D01*
X65900182Y-165623223D01*
X65968627Y-165637261D01*
X66018617Y-165686074D01*
X66034500Y-165746793D01*
X66034500Y-165983099D01*
X66014815Y-166050138D01*
X65998181Y-166070780D01*
X63852094Y-168216866D01*
X63790771Y-168250351D01*
X63721079Y-168245367D01*
X63665146Y-168203495D01*
X63641475Y-168145370D01*
X63636330Y-168106291D01*
X63596473Y-168010066D01*
X63580862Y-167972377D01*
X63580861Y-167972376D01*
X63580861Y-167972375D01*
X63492621Y-167857379D01*
X63377625Y-167769139D01*
X63377623Y-167769138D01*
X63275098Y-167726671D01*
X63220695Y-167682830D01*
X63198630Y-167616536D01*
X63215909Y-167548837D01*
X63265125Y-167502209D01*
X63348670Y-167458556D01*
X63350819Y-167456905D01*
X63378890Y-167440691D01*
X63402625Y-167430861D01*
X63517621Y-167342621D01*
X63605861Y-167227625D01*
X63661330Y-167093709D01*
X63680250Y-166950000D01*
X63661330Y-166806291D01*
X63615732Y-166696205D01*
X63605862Y-166672377D01*
X63605861Y-166672376D01*
X63605861Y-166672375D01*
X63517621Y-166557379D01*
X63402625Y-166469139D01*
X63402624Y-166469138D01*
X63402622Y-166469137D01*
X63268712Y-166413671D01*
X63268710Y-166413670D01*
X63268709Y-166413670D01*
X63177235Y-166401627D01*
X63125001Y-166394750D01*
X63124999Y-166394750D01*
X62981291Y-166413670D01*
X62981287Y-166413671D01*
X62847377Y-166469137D01*
X62771345Y-166527479D01*
X62732379Y-166557379D01*
X62644139Y-166672375D01*
X62644138Y-166672376D01*
X62644138Y-166672377D01*
X62634268Y-166696205D01*
X62619522Y-166721074D01*
X62619775Y-166721240D01*
X62616438Y-166726335D01*
X62405070Y-167130855D01*
X62382850Y-167161111D01*
X60795781Y-168748181D01*
X60734458Y-168781666D01*
X60708100Y-168784500D01*
X56804384Y-168784500D01*
X56737345Y-168764815D01*
X56691590Y-168712011D01*
X56681646Y-168642853D01*
X56706007Y-168585014D01*
X56730861Y-168552625D01*
X56786330Y-168418709D01*
X56805250Y-168275000D01*
X56790858Y-168165685D01*
X56801623Y-168096651D01*
X56848003Y-168044395D01*
X56913797Y-168025500D01*
X57323196Y-168025500D01*
X57348641Y-168028139D01*
X57352440Y-168028935D01*
X57359268Y-168030367D01*
X57380225Y-168027754D01*
X57394492Y-168025977D01*
X57402168Y-168025500D01*
X57406112Y-168025500D01*
X57406114Y-168025500D01*
X57406116Y-168025499D01*
X57406122Y-168025499D01*
X57421487Y-168022934D01*
X57429140Y-168021657D01*
X57483626Y-168014866D01*
X57483627Y-168014865D01*
X57483629Y-168014865D01*
X57491141Y-168012628D01*
X57498606Y-168010066D01*
X57498606Y-168010065D01*
X57498610Y-168010065D01*
X57546877Y-167983944D01*
X57596211Y-167959826D01*
X57596214Y-167959823D01*
X57602594Y-167955268D01*
X57608819Y-167950422D01*
X57608826Y-167950419D01*
X57646008Y-167910028D01*
X65553892Y-160002144D01*
X65573741Y-159986025D01*
X65582836Y-159980084D01*
X65604644Y-159952062D01*
X65609721Y-159946316D01*
X65612520Y-159943518D01*
X65626094Y-159924504D01*
X65659809Y-159881189D01*
X65659809Y-159881187D01*
X65663547Y-159874280D01*
X65667003Y-159867207D01*
X65667010Y-159867199D01*
X65682670Y-159814596D01*
X65700500Y-159762660D01*
X65700500Y-159762655D01*
X65701790Y-159754924D01*
X65702768Y-159747085D01*
X65700500Y-159692244D01*
X65700500Y-157463881D01*
X65720185Y-157396842D01*
X65772989Y-157351087D01*
X65823683Y-157339885D01*
X71699694Y-157301567D01*
X71766858Y-157320813D01*
G37*
%TD.AperFunction*%
%TA.AperFunction,Conductor*%
G36*
X67403834Y-166699716D02*
G01*
X67459767Y-166741588D01*
X67484184Y-166807052D01*
X67484500Y-166815898D01*
X67484500Y-167133099D01*
X67464815Y-167200138D01*
X67448181Y-167220780D01*
X64151108Y-170517852D01*
X64131254Y-170533976D01*
X64122165Y-170539914D01*
X64122164Y-170539915D01*
X64100363Y-170567923D01*
X64095286Y-170573674D01*
X64092484Y-170576477D01*
X64092474Y-170576488D01*
X64078905Y-170595495D01*
X64045192Y-170638808D01*
X64041447Y-170645729D01*
X64037988Y-170652804D01*
X64022329Y-170705403D01*
X64004500Y-170757338D01*
X64003206Y-170765092D01*
X64002231Y-170772911D01*
X64004500Y-170827755D01*
X64004500Y-172913100D01*
X63984815Y-172980139D01*
X63968181Y-173000781D01*
X63190781Y-173778181D01*
X63129458Y-173811666D01*
X63103100Y-173814500D01*
X61905325Y-173814500D01*
X61838286Y-173794815D01*
X61792531Y-173742011D01*
X61782587Y-173672853D01*
X61806950Y-173615013D01*
X61843316Y-173567621D01*
X61902698Y-173490233D01*
X61960687Y-173350236D01*
X61980466Y-173200000D01*
X61978182Y-173182655D01*
X61960687Y-173049765D01*
X61960687Y-173049764D01*
X61902698Y-172909767D01*
X61810451Y-172789549D01*
X61690233Y-172697302D01*
X61690229Y-172697300D01*
X61595823Y-172658196D01*
X61550236Y-172639313D01*
X61536171Y-172637461D01*
X61437727Y-172624500D01*
X61437720Y-172624500D01*
X61362280Y-172624500D01*
X61362272Y-172624500D01*
X61249764Y-172639313D01*
X61249763Y-172639313D01*
X61109770Y-172697300D01*
X61109767Y-172697301D01*
X61109767Y-172697302D01*
X60989549Y-172789549D01*
X60906810Y-172897377D01*
X60897300Y-172909770D01*
X60839313Y-173049763D01*
X60839312Y-173049765D01*
X60819534Y-173199999D01*
X60819534Y-173200000D01*
X60839312Y-173350234D01*
X60839313Y-173350236D01*
X60897300Y-173490230D01*
X60897302Y-173490234D01*
X60993050Y-173615013D01*
X61018245Y-173680182D01*
X61004207Y-173748627D01*
X60955393Y-173798617D01*
X60894675Y-173814500D01*
X56125325Y-173814500D01*
X56058286Y-173794815D01*
X56012531Y-173742011D01*
X56002587Y-173672853D01*
X56026950Y-173615013D01*
X56063316Y-173567621D01*
X56122698Y-173490233D01*
X56180687Y-173350236D01*
X56200466Y-173200000D01*
X56198182Y-173182655D01*
X56180687Y-173049765D01*
X56180687Y-173049764D01*
X56122698Y-172909767D01*
X56030451Y-172789549D01*
X55910233Y-172697302D01*
X55910229Y-172697300D01*
X55815823Y-172658196D01*
X55770236Y-172639313D01*
X55756171Y-172637461D01*
X55657727Y-172624500D01*
X55657720Y-172624500D01*
X55582280Y-172624500D01*
X55582272Y-172624500D01*
X55469764Y-172639313D01*
X55469763Y-172639313D01*
X55329770Y-172697300D01*
X55329767Y-172697301D01*
X55329767Y-172697302D01*
X55209549Y-172789549D01*
X55126810Y-172897377D01*
X55117300Y-172909770D01*
X55059313Y-173049763D01*
X55059312Y-173049765D01*
X55039534Y-173199999D01*
X55039534Y-173200000D01*
X55059312Y-173350234D01*
X55059313Y-173350236D01*
X55117300Y-173490230D01*
X55117302Y-173490234D01*
X55213050Y-173615013D01*
X55238245Y-173680182D01*
X55224207Y-173748627D01*
X55175393Y-173798617D01*
X55114675Y-173814500D01*
X52416899Y-173814500D01*
X52349860Y-173794815D01*
X52329218Y-173778181D01*
X51141819Y-172590781D01*
X51108334Y-172529458D01*
X51105500Y-172503100D01*
X51105500Y-171059854D01*
X51125185Y-170992815D01*
X51177989Y-170947060D01*
X51247147Y-170937116D01*
X51291506Y-170952470D01*
X51297371Y-170955856D01*
X51297377Y-170955861D01*
X51431293Y-171011330D01*
X51549542Y-171026898D01*
X51575001Y-171030250D01*
X51575002Y-171030250D01*
X51575003Y-171030250D01*
X51600462Y-171026898D01*
X51718711Y-171011330D01*
X51852627Y-170955861D01*
X51967623Y-170867621D01*
X52055863Y-170752625D01*
X52065603Y-170729111D01*
X52109444Y-170674707D01*
X52175738Y-170652642D01*
X52243437Y-170669921D01*
X52267845Y-170688882D01*
X52777849Y-171198886D01*
X52793977Y-171218745D01*
X52799916Y-171227836D01*
X52827932Y-171249641D01*
X52833693Y-171254730D01*
X52836482Y-171257519D01*
X52855483Y-171271085D01*
X52897700Y-171303944D01*
X52898811Y-171304809D01*
X52905722Y-171308549D01*
X52912800Y-171312010D01*
X52965405Y-171327671D01*
X53017340Y-171345500D01*
X53017342Y-171345500D01*
X53025079Y-171346791D01*
X53032909Y-171347767D01*
X53032911Y-171347768D01*
X53032912Y-171347767D01*
X53032913Y-171347768D01*
X53087755Y-171345500D01*
X62448196Y-171345500D01*
X62473641Y-171348139D01*
X62477440Y-171348935D01*
X62484268Y-171350367D01*
X62505225Y-171347754D01*
X62519492Y-171345977D01*
X62527168Y-171345500D01*
X62531112Y-171345500D01*
X62531114Y-171345500D01*
X62531116Y-171345499D01*
X62531122Y-171345499D01*
X62546487Y-171342934D01*
X62554140Y-171341657D01*
X62608626Y-171334866D01*
X62608627Y-171334865D01*
X62608629Y-171334865D01*
X62616141Y-171332628D01*
X62623606Y-171330066D01*
X62623606Y-171330065D01*
X62623610Y-171330065D01*
X62671877Y-171303944D01*
X62721211Y-171279826D01*
X62721214Y-171279823D01*
X62727594Y-171275268D01*
X62733819Y-171270422D01*
X62733826Y-171270419D01*
X62771008Y-171230028D01*
X67272819Y-166728217D01*
X67334142Y-166694732D01*
X67403834Y-166699716D01*
G37*
%TD.AperFunction*%
%TA.AperFunction,Conductor*%
G36*
X59241858Y-157402491D02*
G01*
X59287956Y-157454995D01*
X59299500Y-157507241D01*
X59299500Y-159733746D01*
X59279815Y-159800785D01*
X59227011Y-159846540D01*
X59157853Y-159856484D01*
X59094297Y-159827459D01*
X59087819Y-159821427D01*
X59063342Y-159796950D01*
X58459287Y-159192893D01*
X58459256Y-159192864D01*
X58438342Y-159171950D01*
X58438341Y-159171949D01*
X58418600Y-159161890D01*
X58402014Y-159151726D01*
X58384090Y-159138704D01*
X58384091Y-159138704D01*
X58363018Y-159131857D01*
X58345045Y-159124412D01*
X58325307Y-159114355D01*
X58325304Y-159114354D01*
X58303418Y-159110887D01*
X58284507Y-159106346D01*
X58263439Y-159099501D01*
X58263434Y-159099500D01*
X58263433Y-159099500D01*
X58263429Y-159099500D01*
X57417986Y-159099500D01*
X57386550Y-159095449D01*
X57279773Y-159067464D01*
X57120553Y-159025734D01*
X57060695Y-158989696D01*
X57029822Y-158927017D01*
X57037737Y-158857597D01*
X57081927Y-158803476D01*
X57111400Y-158789921D01*
X57111201Y-158789440D01*
X57235153Y-158738098D01*
X57252625Y-158730861D01*
X57367621Y-158642621D01*
X57455861Y-158527625D01*
X57511330Y-158393709D01*
X57530250Y-158250000D01*
X57511330Y-158106291D01*
X57459554Y-157981291D01*
X57455862Y-157972377D01*
X57455861Y-157972376D01*
X57455861Y-157972375D01*
X57367621Y-157857379D01*
X57252625Y-157769139D01*
X57252624Y-157769138D01*
X57252622Y-157769137D01*
X57118712Y-157713671D01*
X57118710Y-157713670D01*
X57118709Y-157713670D01*
X57037930Y-157703035D01*
X56975001Y-157694750D01*
X56974999Y-157694750D01*
X56831291Y-157713670D01*
X56831287Y-157713671D01*
X56697377Y-157769137D01*
X56582379Y-157857379D01*
X56494137Y-157972377D01*
X56438671Y-158106287D01*
X56438670Y-158106291D01*
X56425988Y-158202622D01*
X56419750Y-158250000D01*
X56428862Y-158319215D01*
X56438670Y-158393708D01*
X56438671Y-158393712D01*
X56494137Y-158527622D01*
X56494138Y-158527624D01*
X56494139Y-158527625D01*
X56582379Y-158642621D01*
X56697375Y-158730861D01*
X56697377Y-158730861D01*
X56703823Y-158735808D01*
X56702065Y-158738098D01*
X56740674Y-158778571D01*
X56753912Y-158847175D01*
X56727959Y-158912046D01*
X56671054Y-158952587D01*
X56646659Y-158958355D01*
X56606290Y-158963670D01*
X56606287Y-158963671D01*
X56472377Y-159019137D01*
X56357379Y-159107379D01*
X56269137Y-159222377D01*
X56213671Y-159356287D01*
X56213670Y-159356292D01*
X56200974Y-159452722D01*
X56172707Y-159516619D01*
X56114382Y-159555089D01*
X56061850Y-159559475D01*
X55950002Y-159544750D01*
X55949999Y-159544750D01*
X55806291Y-159563670D01*
X55806287Y-159563671D01*
X55672377Y-159619137D01*
X55557379Y-159707379D01*
X55469137Y-159822377D01*
X55413671Y-159956287D01*
X55413670Y-159956291D01*
X55394750Y-160099999D01*
X55394750Y-160100000D01*
X55413670Y-160243708D01*
X55413671Y-160243712D01*
X55469137Y-160377622D01*
X55469138Y-160377624D01*
X55469139Y-160377625D01*
X55557379Y-160492621D01*
X55672375Y-160580861D01*
X55806291Y-160636330D01*
X55933280Y-160653048D01*
X55949999Y-160655250D01*
X55950000Y-160655250D01*
X55950001Y-160655250D01*
X55964977Y-160653278D01*
X56093709Y-160636330D01*
X56227625Y-160580861D01*
X56342621Y-160492621D01*
X56430861Y-160377625D01*
X56486330Y-160243709D01*
X56499025Y-160147276D01*
X56527291Y-160083381D01*
X56585616Y-160044910D01*
X56638148Y-160040524D01*
X56722027Y-160051567D01*
X56749999Y-160055250D01*
X56750000Y-160055250D01*
X56750001Y-160055250D01*
X56797903Y-160048943D01*
X56893709Y-160036330D01*
X56908880Y-160030045D01*
X56936821Y-160022151D01*
X56939409Y-160021737D01*
X56939420Y-160021737D01*
X57386547Y-159904550D01*
X57417984Y-159900500D01*
X57982745Y-159900500D01*
X58049784Y-159920185D01*
X58070426Y-159936819D01*
X58388181Y-160254573D01*
X58421666Y-160315896D01*
X58424500Y-160342254D01*
X58424500Y-161410146D01*
X58404815Y-161477185D01*
X58352011Y-161522940D01*
X58282853Y-161532884D01*
X58225015Y-161508522D01*
X58147625Y-161449139D01*
X58147624Y-161449138D01*
X58147622Y-161449137D01*
X58013710Y-161393670D01*
X57985965Y-161390017D01*
X57922069Y-161361749D01*
X57883599Y-161303423D01*
X57879214Y-161283264D01*
X57864463Y-161171220D01*
X57808994Y-161037304D01*
X57720754Y-160922308D01*
X57605758Y-160834068D01*
X57605757Y-160834067D01*
X57605755Y-160834066D01*
X57471845Y-160778600D01*
X57471843Y-160778599D01*
X57471842Y-160778599D01*
X57398901Y-160768996D01*
X57328134Y-160759679D01*
X57328132Y-160759679D01*
X57257365Y-160768996D01*
X57184424Y-160778599D01*
X57184422Y-160778599D01*
X57184417Y-160778601D01*
X57169244Y-160784885D01*
X57141340Y-160792771D01*
X57138715Y-160793189D01*
X56691582Y-160910378D01*
X56660145Y-160914429D01*
X56026019Y-160914429D01*
X56025995Y-160914430D01*
X55996635Y-160914430D01*
X55975570Y-160921275D01*
X55956653Y-160925816D01*
X55934771Y-160929281D01*
X55934766Y-160929283D01*
X55915021Y-160939343D01*
X55897057Y-160946784D01*
X55875978Y-160953634D01*
X55858055Y-160966656D01*
X55841470Y-160976819D01*
X55821730Y-160986877D01*
X55814504Y-160994104D01*
X55799162Y-161009446D01*
X55493678Y-161314929D01*
X55394516Y-161414091D01*
X55394513Y-161414094D01*
X55371949Y-161436659D01*
X55371948Y-161436660D01*
X55361891Y-161456397D01*
X55351731Y-161472977D01*
X55338706Y-161490905D01*
X55338703Y-161490910D01*
X55331854Y-161511988D01*
X55324413Y-161529952D01*
X55314354Y-161549695D01*
X55310887Y-161571582D01*
X55306347Y-161590491D01*
X55299500Y-161611567D01*
X55299500Y-163988429D01*
X55299501Y-163988439D01*
X55306346Y-164009507D01*
X55310887Y-164028418D01*
X55314354Y-164050304D01*
X55314355Y-164050307D01*
X55324412Y-164070045D01*
X55331857Y-164088018D01*
X55338704Y-164109090D01*
X55351726Y-164127014D01*
X55361890Y-164143600D01*
X55371950Y-164163342D01*
X55392864Y-164184256D01*
X55392878Y-164184271D01*
X55394515Y-164185908D01*
X55394516Y-164185909D01*
X55571956Y-164363348D01*
X55661664Y-164453056D01*
X55681401Y-164463112D01*
X55697987Y-164473275D01*
X55715916Y-164486302D01*
X55715918Y-164486302D01*
X55715919Y-164486303D01*
X55736980Y-164493146D01*
X55754959Y-164500592D01*
X55774702Y-164510652D01*
X55796591Y-164514118D01*
X55815507Y-164518659D01*
X55836573Y-164525505D01*
X55865930Y-164525505D01*
X55865954Y-164525506D01*
X55868487Y-164525506D01*
X56132016Y-164525506D01*
X56163452Y-164529556D01*
X56610579Y-164646743D01*
X56610585Y-164646743D01*
X56610587Y-164646744D01*
X56615520Y-164647620D01*
X56615325Y-164648717D01*
X56641377Y-164655158D01*
X56656291Y-164661336D01*
X56781079Y-164677764D01*
X56799999Y-164680256D01*
X56800000Y-164680256D01*
X56800001Y-164680256D01*
X56814977Y-164678284D01*
X56943709Y-164661336D01*
X57077625Y-164605867D01*
X57192621Y-164517627D01*
X57280861Y-164402631D01*
X57336330Y-164268715D01*
X57355250Y-164125006D01*
X57336330Y-163981297D01*
X57280861Y-163847381D01*
X57274086Y-163838551D01*
X57248892Y-163773385D01*
X57251816Y-163759124D01*
X57204413Y-163742084D01*
X57197104Y-163735826D01*
X57192622Y-163732387D01*
X57192621Y-163732385D01*
X57077625Y-163644145D01*
X57077624Y-163644144D01*
X57077622Y-163644143D01*
X56943712Y-163588677D01*
X56943710Y-163588676D01*
X56943709Y-163588676D01*
X56849440Y-163576265D01*
X56800001Y-163569756D01*
X56799999Y-163569756D01*
X56750560Y-163576265D01*
X56656291Y-163588676D01*
X56656289Y-163588676D01*
X56656284Y-163588678D01*
X56641111Y-163594962D01*
X56613207Y-163602848D01*
X56610582Y-163603266D01*
X56255937Y-163696214D01*
X56186097Y-163694168D01*
X56128450Y-163654689D01*
X56101298Y-163590311D01*
X56100500Y-163576265D01*
X56100500Y-161892254D01*
X56120185Y-161825215D01*
X56136819Y-161804573D01*
X56189644Y-161751748D01*
X56250967Y-161718263D01*
X56277325Y-161715429D01*
X56660149Y-161715429D01*
X56691585Y-161719479D01*
X57138712Y-161836666D01*
X57138718Y-161836666D01*
X57138720Y-161836667D01*
X57143653Y-161837543D01*
X57143458Y-161838640D01*
X57169509Y-161845081D01*
X57184422Y-161851258D01*
X57184424Y-161851259D01*
X57196213Y-161852811D01*
X57260110Y-161881077D01*
X57298581Y-161939402D01*
X57299412Y-162009266D01*
X57262340Y-162068490D01*
X57199135Y-162098269D01*
X57180283Y-162099730D01*
X57036425Y-162118670D01*
X57036421Y-162118671D01*
X56902511Y-162174137D01*
X56787513Y-162262379D01*
X56699271Y-162377377D01*
X56643805Y-162511287D01*
X56643804Y-162511291D01*
X56637850Y-162556519D01*
X56624884Y-162655000D01*
X56642694Y-162790281D01*
X56643804Y-162798708D01*
X56643805Y-162798712D01*
X56699271Y-162932622D01*
X56699272Y-162932624D01*
X56699273Y-162932625D01*
X56787513Y-163047621D01*
X56902509Y-163135861D01*
X57036425Y-163191330D01*
X57180134Y-163210250D01*
X57188193Y-163211311D01*
X57187904Y-163213504D01*
X57243861Y-163229935D01*
X57289616Y-163282739D01*
X57299761Y-163318064D01*
X57313670Y-163423707D01*
X57313671Y-163423712D01*
X57369137Y-163557622D01*
X57369138Y-163557624D01*
X57369139Y-163557625D01*
X57375913Y-163566454D01*
X57401107Y-163631621D01*
X57398182Y-163645880D01*
X57445585Y-163662921D01*
X57452892Y-163669176D01*
X57457375Y-163672616D01*
X57457379Y-163672621D01*
X57572375Y-163760861D01*
X57706291Y-163816330D01*
X57833280Y-163833048D01*
X57849999Y-163835250D01*
X57850000Y-163835250D01*
X57850001Y-163835250D01*
X57864977Y-163833278D01*
X57993709Y-163816330D01*
X58127625Y-163760861D01*
X58242621Y-163672621D01*
X58242627Y-163672612D01*
X58244275Y-163670966D01*
X58249123Y-163666616D01*
X58272054Y-163644145D01*
X58375498Y-163542771D01*
X58437157Y-163509908D01*
X58506794Y-163515597D01*
X58562301Y-163558032D01*
X58586055Y-163623740D01*
X58570514Y-163691859D01*
X58549969Y-163719016D01*
X57261111Y-165007873D01*
X57230856Y-165030093D01*
X56826326Y-165241468D01*
X56826324Y-165241469D01*
X56824170Y-165243124D01*
X56796112Y-165259330D01*
X56772376Y-165269162D01*
X56657379Y-165357403D01*
X56569137Y-165472401D01*
X56513671Y-165606311D01*
X56513670Y-165606315D01*
X56494750Y-165750023D01*
X56494750Y-165750024D01*
X56513670Y-165893732D01*
X56513671Y-165893736D01*
X56569137Y-166027646D01*
X56569138Y-166027648D01*
X56569139Y-166027649D01*
X56657379Y-166142645D01*
X56761060Y-166222203D01*
X56802261Y-166278629D01*
X56806416Y-166348375D01*
X56772203Y-166409296D01*
X56742999Y-166430478D01*
X56626323Y-166491444D01*
X56624170Y-166493098D01*
X56596112Y-166509304D01*
X56572376Y-166519136D01*
X56457379Y-166607377D01*
X56369137Y-166722375D01*
X56313671Y-166856285D01*
X56313670Y-166856289D01*
X56294750Y-166999997D01*
X56294750Y-167000000D01*
X56303713Y-167068083D01*
X56292947Y-167137118D01*
X56246567Y-167189374D01*
X56179298Y-167208259D01*
X56143668Y-167202586D01*
X55928008Y-167134953D01*
X55919348Y-167132237D01*
X55919346Y-167132236D01*
X55919332Y-167132233D01*
X55916646Y-167131881D01*
X55885350Y-167123501D01*
X55861614Y-167113670D01*
X55717906Y-167094750D01*
X55717904Y-167094750D01*
X55574196Y-167113670D01*
X55574192Y-167113671D01*
X55440282Y-167169137D01*
X55325284Y-167257379D01*
X55237042Y-167372377D01*
X55181576Y-167506287D01*
X55181575Y-167506291D01*
X55166594Y-167620084D01*
X55162655Y-167650000D01*
X55171037Y-167713670D01*
X55177047Y-167759314D01*
X55166282Y-167828349D01*
X55119902Y-167880605D01*
X55054108Y-167899500D01*
X49851804Y-167899500D01*
X49826359Y-167896861D01*
X49815733Y-167894633D01*
X49815730Y-167894633D01*
X49780508Y-167899023D01*
X49772832Y-167899500D01*
X49768886Y-167899500D01*
X49751615Y-167902381D01*
X49745858Y-167903342D01*
X49691370Y-167910134D01*
X49683857Y-167912371D01*
X49676387Y-167914936D01*
X49628122Y-167941055D01*
X49578792Y-167965171D01*
X49572372Y-167969755D01*
X49571291Y-167970597D01*
X49571074Y-167970682D01*
X49570432Y-167971141D01*
X49570317Y-167970980D01*
X49567099Y-167972249D01*
X49558162Y-167978912D01*
X49558017Y-167978992D01*
X49556584Y-167976396D01*
X49506292Y-167996228D01*
X49437754Y-167982649D01*
X49387438Y-167934172D01*
X49372208Y-167888919D01*
X49361330Y-167806291D01*
X49305861Y-167672375D01*
X49217621Y-167557379D01*
X49102625Y-167469139D01*
X49102624Y-167469138D01*
X49102622Y-167469137D01*
X48968712Y-167413671D01*
X48968710Y-167413670D01*
X48968709Y-167413670D01*
X48885081Y-167402660D01*
X48825001Y-167394750D01*
X48824998Y-167394750D01*
X48695389Y-167411813D01*
X48626354Y-167401047D01*
X48574098Y-167354667D01*
X48564647Y-167336336D01*
X48542683Y-167283309D01*
X48454443Y-167168313D01*
X48339447Y-167080073D01*
X48339446Y-167080072D01*
X48339444Y-167080071D01*
X48205534Y-167024605D01*
X48205532Y-167024604D01*
X48205531Y-167024604D01*
X48133676Y-167015144D01*
X48061823Y-167005684D01*
X48061818Y-167005684D01*
X48045644Y-167007813D01*
X47976609Y-166997046D01*
X47924354Y-166950665D01*
X47914905Y-166932338D01*
X47876688Y-166840072D01*
X47788448Y-166725076D01*
X47673452Y-166636836D01*
X47673451Y-166636835D01*
X47673449Y-166636834D01*
X47539539Y-166581368D01*
X47539537Y-166581367D01*
X47539536Y-166581367D01*
X47449080Y-166569458D01*
X47395828Y-166562447D01*
X47395826Y-166562447D01*
X47252118Y-166581367D01*
X47252114Y-166581368D01*
X47118204Y-166636834D01*
X47019405Y-166712646D01*
X47003206Y-166725076D01*
X46914966Y-166840072D01*
X46914965Y-166840073D01*
X46914965Y-166840074D01*
X46905095Y-166863902D01*
X46890349Y-166888771D01*
X46890602Y-166888937D01*
X46887265Y-166894032D01*
X46697125Y-167257925D01*
X46648632Y-167308227D01*
X46587224Y-167324500D01*
X45182987Y-167324500D01*
X45115948Y-167304815D01*
X45070193Y-167252011D01*
X45060249Y-167182853D01*
X45089274Y-167119297D01*
X45107495Y-167102128D01*
X45217627Y-167017621D01*
X45305867Y-166902625D01*
X45361336Y-166768709D01*
X45380256Y-166625000D01*
X45361336Y-166481291D01*
X45305867Y-166347375D01*
X45217627Y-166232379D01*
X45102631Y-166144139D01*
X45102630Y-166144138D01*
X45102628Y-166144137D01*
X44968718Y-166088671D01*
X44968716Y-166088670D01*
X44968715Y-166088670D01*
X44856057Y-166073838D01*
X44825007Y-166069750D01*
X44825005Y-166069750D01*
X44681297Y-166088670D01*
X44681293Y-166088671D01*
X44547383Y-166144137D01*
X44432385Y-166232379D01*
X44344143Y-166347377D01*
X44288677Y-166481287D01*
X44288676Y-166481291D01*
X44270542Y-166619033D01*
X44269756Y-166625000D01*
X44282931Y-166725076D01*
X44288676Y-166768708D01*
X44288677Y-166768712D01*
X44344143Y-166902622D01*
X44344144Y-166902624D01*
X44344145Y-166902625D01*
X44432385Y-167017621D01*
X44542513Y-167102125D01*
X44583714Y-167158552D01*
X44587869Y-167228298D01*
X44553656Y-167289219D01*
X44491939Y-167321971D01*
X44467025Y-167324500D01*
X44256899Y-167324500D01*
X44189860Y-167304815D01*
X44169218Y-167288181D01*
X43511819Y-166630781D01*
X43478334Y-166569458D01*
X43475500Y-166543100D01*
X43475500Y-163918338D01*
X43495185Y-163851299D01*
X43547989Y-163805544D01*
X43617147Y-163795600D01*
X43680703Y-163824625D01*
X43687181Y-163830657D01*
X44270399Y-164413875D01*
X44292619Y-164444131D01*
X44503989Y-164848654D01*
X44503992Y-164848658D01*
X44505646Y-164850812D01*
X44521857Y-164878880D01*
X44531685Y-164902608D01*
X44531685Y-164902609D01*
X44531687Y-164902612D01*
X44531688Y-164902613D01*
X44619928Y-165017609D01*
X44734924Y-165105849D01*
X44734925Y-165105849D01*
X44734926Y-165105850D01*
X44735991Y-165106291D01*
X44868840Y-165161318D01*
X44890755Y-165164203D01*
X44954651Y-165192470D01*
X44993122Y-165250794D01*
X44997508Y-165270955D01*
X45013670Y-165393708D01*
X45013671Y-165393712D01*
X45069137Y-165527622D01*
X45069138Y-165527624D01*
X45069139Y-165527625D01*
X45157379Y-165642621D01*
X45272375Y-165730861D01*
X45272376Y-165730861D01*
X45272377Y-165730862D01*
X45302121Y-165743182D01*
X45406291Y-165786330D01*
X45529940Y-165802609D01*
X45549999Y-165805250D01*
X45550000Y-165805250D01*
X45550001Y-165805250D01*
X45570060Y-165802609D01*
X45693709Y-165786330D01*
X45827625Y-165730861D01*
X45827729Y-165730780D01*
X45827833Y-165730740D01*
X45834664Y-165726797D01*
X45835278Y-165727861D01*
X45892896Y-165705583D01*
X45961342Y-165719617D01*
X46011335Y-165768428D01*
X46017782Y-165781699D01*
X46023793Y-165796211D01*
X46031631Y-165815133D01*
X46119871Y-165930129D01*
X46234867Y-166018369D01*
X46234868Y-166018369D01*
X46234869Y-166018370D01*
X46279505Y-166036858D01*
X46368783Y-166073838D01*
X46495772Y-166090556D01*
X46512491Y-166092758D01*
X46512492Y-166092758D01*
X46512493Y-166092758D01*
X46527469Y-166090786D01*
X46656201Y-166073838D01*
X46790117Y-166018369D01*
X46905113Y-165930129D01*
X46993353Y-165815133D01*
X47048822Y-165681217D01*
X47067742Y-165537508D01*
X47066440Y-165527622D01*
X47058258Y-165465471D01*
X47048822Y-165393799D01*
X46997197Y-165269163D01*
X46993354Y-165259885D01*
X46993353Y-165259884D01*
X46993353Y-165259883D01*
X46905113Y-165144887D01*
X46790117Y-165056647D01*
X46790116Y-165056646D01*
X46790114Y-165056645D01*
X46656204Y-165001179D01*
X46656202Y-165001178D01*
X46656201Y-165001178D01*
X46584346Y-164991718D01*
X46512493Y-164982258D01*
X46512491Y-164982258D01*
X46368783Y-165001178D01*
X46368779Y-165001179D01*
X46234868Y-165056646D01*
X46234862Y-165056649D01*
X46234746Y-165056739D01*
X46234630Y-165056783D01*
X46227828Y-165060711D01*
X46227215Y-165059649D01*
X46169574Y-165081926D01*
X46101131Y-165067880D01*
X46051146Y-165019061D01*
X46044709Y-165005807D01*
X46030862Y-164972377D01*
X46030861Y-164972376D01*
X46030861Y-164972375D01*
X45942621Y-164857379D01*
X45827625Y-164769139D01*
X45827624Y-164769138D01*
X45827622Y-164769137D01*
X45696561Y-164714851D01*
X45642157Y-164671011D01*
X45620092Y-164604716D01*
X45637371Y-164537017D01*
X45688508Y-164489406D01*
X45727821Y-164477352D01*
X45746466Y-164474898D01*
X45880382Y-164419429D01*
X45995378Y-164331189D01*
X46040396Y-164272519D01*
X46096823Y-164231318D01*
X46166569Y-164227163D01*
X46214258Y-164249632D01*
X46220672Y-164254554D01*
X46222376Y-164255862D01*
X46262596Y-164272521D01*
X46356291Y-164311330D01*
X46483280Y-164328048D01*
X46499999Y-164330250D01*
X46500000Y-164330250D01*
X46500001Y-164330250D01*
X46514977Y-164328278D01*
X46643709Y-164311330D01*
X46777625Y-164255861D01*
X46892621Y-164167621D01*
X46980861Y-164052625D01*
X47036330Y-163918709D01*
X47055250Y-163775000D01*
X47054866Y-163772087D01*
X47050916Y-163742084D01*
X47036330Y-163631291D01*
X46980861Y-163497375D01*
X46892621Y-163382379D01*
X46777625Y-163294139D01*
X46777624Y-163294138D01*
X46777622Y-163294137D01*
X46643712Y-163238671D01*
X46643710Y-163238670D01*
X46643709Y-163238670D01*
X46543538Y-163225482D01*
X46500001Y-163219750D01*
X46499995Y-163219750D01*
X46485515Y-163221656D01*
X46416480Y-163210889D01*
X46364225Y-163164508D01*
X46346394Y-163114905D01*
X46333825Y-163019435D01*
X46278356Y-162885519D01*
X46275246Y-162878010D01*
X46277552Y-162877054D01*
X46264033Y-162821362D01*
X46286875Y-162755332D01*
X46340441Y-162712682D01*
X46343703Y-162711330D01*
X46343709Y-162711330D01*
X46477625Y-162655861D01*
X46592621Y-162567621D01*
X46680861Y-162452625D01*
X46736330Y-162318709D01*
X46755250Y-162175000D01*
X46755136Y-162174137D01*
X46753048Y-162158280D01*
X46736330Y-162031291D01*
X46680861Y-161897375D01*
X46592621Y-161782379D01*
X46477625Y-161694139D01*
X46477624Y-161694138D01*
X46477622Y-161694137D01*
X46343712Y-161638671D01*
X46343710Y-161638670D01*
X46343709Y-161638670D01*
X46271854Y-161629210D01*
X46200001Y-161619750D01*
X46199999Y-161619750D01*
X46128145Y-161629210D01*
X46056291Y-161638670D01*
X46056289Y-161638670D01*
X46056284Y-161638672D01*
X46032454Y-161648542D01*
X46004462Y-161655693D01*
X46004525Y-161655991D01*
X45998562Y-161657235D01*
X45563049Y-161793818D01*
X45525943Y-161799500D01*
X44606900Y-161799500D01*
X44539861Y-161779815D01*
X44519218Y-161763181D01*
X44436818Y-161680780D01*
X44403334Y-161619456D01*
X44400500Y-161593099D01*
X44400500Y-158406896D01*
X44420185Y-158339857D01*
X44436814Y-158319220D01*
X45246213Y-157509821D01*
X45307532Y-157476339D01*
X45333072Y-157473508D01*
X46065370Y-157468733D01*
X46132536Y-157487980D01*
X46178634Y-157540484D01*
X46180738Y-157545276D01*
X46194135Y-157577618D01*
X46194136Y-157577621D01*
X46194138Y-157577624D01*
X46194139Y-157577625D01*
X46282379Y-157692621D01*
X46397375Y-157780861D01*
X46397376Y-157780861D01*
X46397377Y-157780862D01*
X46406684Y-157784717D01*
X46531291Y-157836330D01*
X46658280Y-157853048D01*
X46674999Y-157855250D01*
X46675000Y-157855250D01*
X46675001Y-157855250D01*
X46689977Y-157853278D01*
X46818709Y-157836330D01*
X46952625Y-157780861D01*
X47067621Y-157692621D01*
X47155861Y-157577625D01*
X47172557Y-157537314D01*
X47216396Y-157482912D01*
X47282689Y-157460846D01*
X47286205Y-157460772D01*
X47725537Y-157457907D01*
X47792700Y-157477153D01*
X47838798Y-157529657D01*
X47849192Y-157598749D01*
X47820582Y-157662493D01*
X47814023Y-157669584D01*
X45919513Y-159564094D01*
X45896949Y-159586659D01*
X45896948Y-159586660D01*
X45886891Y-159606397D01*
X45876731Y-159622977D01*
X45863706Y-159640905D01*
X45863703Y-159640910D01*
X45856854Y-159661988D01*
X45849413Y-159679952D01*
X45839354Y-159699695D01*
X45835887Y-159721582D01*
X45831347Y-159740491D01*
X45824500Y-159761567D01*
X45824500Y-159781814D01*
X45807452Y-159844561D01*
X45758806Y-159927479D01*
X45754514Y-159933854D01*
X45744140Y-159947373D01*
X45744136Y-159947378D01*
X45738588Y-159960774D01*
X45734788Y-159968414D01*
X45732069Y-159973051D01*
X45727969Y-159980610D01*
X45725351Y-159985851D01*
X45718153Y-160001566D01*
X45717163Y-160006467D01*
X45710181Y-160029358D01*
X45688670Y-160081289D01*
X45669750Y-160224999D01*
X45669750Y-160225000D01*
X45688670Y-160368708D01*
X45688671Y-160368712D01*
X45744137Y-160502622D01*
X45744138Y-160502624D01*
X45744139Y-160502625D01*
X45832379Y-160617621D01*
X45947375Y-160705861D01*
X45947376Y-160705861D01*
X45947377Y-160705862D01*
X45986749Y-160722170D01*
X46081291Y-160761330D01*
X46208280Y-160778048D01*
X46224999Y-160780250D01*
X46225000Y-160780250D01*
X46225001Y-160780250D01*
X46239977Y-160778278D01*
X46368709Y-160761330D01*
X46502625Y-160705861D01*
X46617621Y-160617621D01*
X46705861Y-160502625D01*
X46761330Y-160368709D01*
X46780250Y-160225000D01*
X46777817Y-160206531D01*
X46777297Y-160187423D01*
X46777217Y-160187425D01*
X46777084Y-160181340D01*
X46777083Y-160181336D01*
X46777084Y-160181332D01*
X46747491Y-159936000D01*
X46759006Y-159867089D01*
X46782915Y-159833476D01*
X46816391Y-159800000D01*
X49269750Y-159800000D01*
X49288301Y-159940910D01*
X49288670Y-159943708D01*
X49288671Y-159943712D01*
X49344137Y-160077622D01*
X49344138Y-160077624D01*
X49344139Y-160077625D01*
X49432379Y-160192621D01*
X49547375Y-160280861D01*
X49681291Y-160336330D01*
X49808280Y-160353048D01*
X49824999Y-160355250D01*
X49825000Y-160355250D01*
X49825001Y-160355250D01*
X49839977Y-160353278D01*
X49968709Y-160336330D01*
X50102625Y-160280861D01*
X50217621Y-160192621D01*
X50305861Y-160077625D01*
X50361330Y-159943709D01*
X50362924Y-159931594D01*
X50391188Y-159867701D01*
X50449511Y-159829228D01*
X50519376Y-159828394D01*
X50578600Y-159865465D01*
X50584238Y-159872293D01*
X50624302Y-159924504D01*
X50657379Y-159967611D01*
X50772375Y-160055851D01*
X50906291Y-160111320D01*
X51033280Y-160128038D01*
X51049999Y-160130240D01*
X51050000Y-160130240D01*
X51050001Y-160130240D01*
X51064977Y-160128268D01*
X51193709Y-160111320D01*
X51327625Y-160055851D01*
X51442621Y-159967611D01*
X51530861Y-159852615D01*
X51586330Y-159718699D01*
X51605250Y-159574990D01*
X51603815Y-159564094D01*
X51597878Y-159518994D01*
X51586330Y-159431281D01*
X51530861Y-159297365D01*
X51442621Y-159182369D01*
X51327625Y-159094129D01*
X51327624Y-159094128D01*
X51327622Y-159094127D01*
X51193712Y-159038661D01*
X51193710Y-159038660D01*
X51193709Y-159038660D01*
X51095528Y-159025734D01*
X51050001Y-159019740D01*
X51049999Y-159019740D01*
X50906291Y-159038660D01*
X50906287Y-159038661D01*
X50772377Y-159094127D01*
X50657379Y-159182369D01*
X50569137Y-159297367D01*
X50513671Y-159431277D01*
X50513670Y-159431281D01*
X50512075Y-159443397D01*
X50483807Y-159507293D01*
X50425482Y-159545763D01*
X50355617Y-159546593D01*
X50296394Y-159509519D01*
X50290761Y-159502696D01*
X50245259Y-159443397D01*
X50217621Y-159407379D01*
X50102625Y-159319139D01*
X50102624Y-159319138D01*
X50102622Y-159319137D01*
X49968712Y-159263671D01*
X49968710Y-159263670D01*
X49968709Y-159263670D01*
X49896854Y-159254210D01*
X49825001Y-159244750D01*
X49824999Y-159244750D01*
X49681291Y-159263670D01*
X49681287Y-159263671D01*
X49547377Y-159319137D01*
X49432379Y-159407379D01*
X49344137Y-159522377D01*
X49288671Y-159656287D01*
X49288670Y-159656291D01*
X49270152Y-159796950D01*
X49269750Y-159800000D01*
X46816391Y-159800000D01*
X48379573Y-158236819D01*
X48440896Y-158203334D01*
X48467254Y-158200500D01*
X51764363Y-158200500D01*
X51831402Y-158220185D01*
X51877157Y-158272989D01*
X51887302Y-158308316D01*
X51888669Y-158318707D01*
X51888671Y-158318712D01*
X51944137Y-158452622D01*
X51944138Y-158452624D01*
X51944139Y-158452625D01*
X52032379Y-158567621D01*
X52147375Y-158655861D01*
X52147376Y-158655861D01*
X52147377Y-158655862D01*
X52192013Y-158674350D01*
X52281291Y-158711330D01*
X52408280Y-158728048D01*
X52424999Y-158730250D01*
X52425000Y-158730250D01*
X52425001Y-158730250D01*
X52439977Y-158728278D01*
X52568709Y-158711330D01*
X52702625Y-158655861D01*
X52817621Y-158567621D01*
X52905861Y-158452625D01*
X52961330Y-158318709D01*
X52980250Y-158175000D01*
X52961330Y-158031291D01*
X52905861Y-157897375D01*
X52867495Y-157847376D01*
X52850315Y-157824986D01*
X52825121Y-157759817D01*
X52839159Y-157691372D01*
X52887973Y-157641383D01*
X52948691Y-157625500D01*
X53393818Y-157625500D01*
X53460857Y-157645185D01*
X53506612Y-157697989D01*
X53516556Y-157767147D01*
X53513707Y-157781035D01*
X53503174Y-157861044D01*
X53494754Y-157925000D01*
X53502164Y-157981287D01*
X53513674Y-158068708D01*
X53513675Y-158068712D01*
X53569141Y-158202622D01*
X53569142Y-158202624D01*
X53569143Y-158202625D01*
X53657383Y-158317621D01*
X53772379Y-158405861D01*
X53772380Y-158405861D01*
X53772381Y-158405862D01*
X53817017Y-158424350D01*
X53906295Y-158461330D01*
X54033284Y-158478048D01*
X54050003Y-158480250D01*
X54050004Y-158480250D01*
X54050005Y-158480250D01*
X54064981Y-158478278D01*
X54193713Y-158461330D01*
X54327629Y-158405861D01*
X54442625Y-158317621D01*
X54530865Y-158202625D01*
X54586334Y-158068709D01*
X54605254Y-157925000D01*
X54586334Y-157781291D01*
X54586333Y-157781290D01*
X54585273Y-157773234D01*
X54586616Y-157773057D01*
X54588080Y-157711737D01*
X54627246Y-157653876D01*
X54691476Y-157626376D01*
X54706190Y-157625500D01*
X55037943Y-157625500D01*
X55104982Y-157645185D01*
X55150737Y-157697989D01*
X55160681Y-157767147D01*
X55136318Y-157824987D01*
X55119139Y-157847373D01*
X55119138Y-157847376D01*
X55063671Y-157981287D01*
X55063670Y-157981291D01*
X55044750Y-158124999D01*
X55044750Y-158125000D01*
X55063670Y-158268708D01*
X55063671Y-158268712D01*
X55119137Y-158402622D01*
X55119138Y-158402624D01*
X55119139Y-158402625D01*
X55207379Y-158517621D01*
X55322375Y-158605861D01*
X55456291Y-158661330D01*
X55583280Y-158678048D01*
X55599999Y-158680250D01*
X55600000Y-158680250D01*
X55600001Y-158680250D01*
X55614977Y-158678278D01*
X55743709Y-158661330D01*
X55877625Y-158605861D01*
X55992621Y-158517621D01*
X56080861Y-158402625D01*
X56136330Y-158268709D01*
X56155250Y-158125000D01*
X56136330Y-157981291D01*
X56080861Y-157847375D01*
X55992621Y-157732379D01*
X55877625Y-157644139D01*
X55874915Y-157643016D01*
X55872981Y-157641458D01*
X55870586Y-157640075D01*
X55870801Y-157639701D01*
X55820513Y-157599176D01*
X55798448Y-157532882D01*
X55815727Y-157465183D01*
X55866864Y-157417572D01*
X55921558Y-157404459D01*
X59174694Y-157383245D01*
X59241858Y-157402491D01*
G37*
%TD.AperFunction*%
%TA.AperFunction,Conductor*%
G36*
X40564002Y-157524293D02*
G01*
X40585325Y-157541362D01*
X42238181Y-159194218D01*
X42271666Y-159255541D01*
X42274500Y-159281899D01*
X42274500Y-166898196D01*
X42271862Y-166923634D01*
X42269633Y-166934268D01*
X42269633Y-166934269D01*
X42269633Y-166934271D01*
X42274023Y-166969491D01*
X42274500Y-166977167D01*
X42274500Y-166981116D01*
X42278342Y-167004141D01*
X42285134Y-167058627D01*
X42287373Y-167066147D01*
X42289934Y-167073608D01*
X42289935Y-167073610D01*
X42301375Y-167094750D01*
X42316055Y-167121877D01*
X42340174Y-167171211D01*
X42344742Y-167177609D01*
X42349578Y-167183821D01*
X42349581Y-167183826D01*
X42369960Y-167202586D01*
X42389971Y-167221008D01*
X42447128Y-167278165D01*
X42480614Y-167339488D01*
X42475630Y-167409180D01*
X42433759Y-167465113D01*
X42390768Y-167485826D01*
X42386252Y-167487004D01*
X41966565Y-167641836D01*
X41923646Y-167649500D01*
X37956899Y-167649500D01*
X37889860Y-167629815D01*
X37869218Y-167613181D01*
X36156038Y-165900000D01*
X37144722Y-165900000D01*
X37163762Y-166056818D01*
X37208274Y-166174184D01*
X37219780Y-166204523D01*
X37309517Y-166334530D01*
X37427760Y-166439283D01*
X37427762Y-166439284D01*
X37567634Y-166512696D01*
X37721014Y-166550500D01*
X37721015Y-166550500D01*
X37878985Y-166550500D01*
X38032365Y-166512696D01*
X38069705Y-166493098D01*
X38172240Y-166439283D01*
X38290483Y-166334530D01*
X38380220Y-166204523D01*
X38436237Y-166056818D01*
X38455278Y-165900000D01*
X38454518Y-165893736D01*
X38436237Y-165743181D01*
X38398084Y-165642581D01*
X38380220Y-165595477D01*
X38290483Y-165465470D01*
X38172240Y-165360717D01*
X38172238Y-165360716D01*
X38172237Y-165360715D01*
X38032365Y-165287303D01*
X37878986Y-165249500D01*
X37878985Y-165249500D01*
X37721015Y-165249500D01*
X37721014Y-165249500D01*
X37567634Y-165287303D01*
X37427762Y-165360715D01*
X37309516Y-165465471D01*
X37219781Y-165595475D01*
X37219780Y-165595476D01*
X37163762Y-165743181D01*
X37144722Y-165899999D01*
X37144722Y-165900000D01*
X36156038Y-165900000D01*
X35711819Y-165455781D01*
X35678334Y-165394458D01*
X35675500Y-165368100D01*
X35675500Y-157659680D01*
X35695185Y-157592641D01*
X35747989Y-157546886D01*
X35798684Y-157535684D01*
X40496838Y-157505046D01*
X40564002Y-157524293D01*
G37*
%TD.AperFunction*%
%TD*%
%TA.AperFunction,Conductor*%
%TO.N,/EN2*%
G36*
X69874150Y-161008270D02*
G01*
X69877230Y-161010298D01*
X70117501Y-161230042D01*
X70266559Y-161366366D01*
X70270351Y-161374478D01*
X70267297Y-161382896D01*
X70266559Y-161383634D01*
X69877233Y-161739699D01*
X69868815Y-161742753D01*
X69865200Y-161742009D01*
X69232563Y-161502858D01*
X69226036Y-161496727D01*
X69225000Y-161491914D01*
X69225000Y-161258085D01*
X69228427Y-161249812D01*
X69232563Y-161247141D01*
X69865202Y-161007990D01*
X69874150Y-161008270D01*
G37*
%TD.AperFunction*%
%TD*%
%TA.AperFunction,Conductor*%
%TO.N,/EN2*%
G36*
X52040801Y-169386432D02*
G01*
X52147998Y-169430995D01*
X52154322Y-169437335D01*
X52154898Y-169444469D01*
X52075214Y-169784431D01*
X52072096Y-169790034D01*
X51908635Y-169953495D01*
X51900362Y-169956922D01*
X51892089Y-169953495D01*
X51890139Y-169950913D01*
X51609204Y-169446244D01*
X51608174Y-169437348D01*
X51613736Y-169430330D01*
X51614906Y-169429761D01*
X51874795Y-169321171D01*
X51883748Y-169321145D01*
X52040801Y-169386432D01*
G37*
%TD.AperFunction*%
%TD*%
%TA.AperFunction,Conductor*%
%TO.N,/UART_TX*%
G36*
X53796491Y-169032133D02*
G01*
X53803006Y-169038275D01*
X53804033Y-169043069D01*
X53804033Y-169275908D01*
X53800606Y-169284181D01*
X53795223Y-169287245D01*
X53334596Y-169404668D01*
X53325733Y-169403391D01*
X53320910Y-169397842D01*
X53269963Y-169275908D01*
X53210883Y-169134509D01*
X53210857Y-169125556D01*
X53210862Y-169125542D01*
X53320439Y-168863284D01*
X53326790Y-168856974D01*
X53335391Y-168856860D01*
X53796491Y-169032133D01*
G37*
%TD.AperFunction*%
%TD*%
%TA.AperFunction,Conductor*%
%TO.N,/UART_TX*%
G36*
X62857707Y-166839248D02*
G01*
X63121184Y-166947436D01*
X63127536Y-166953748D01*
X63127563Y-166953815D01*
X63235751Y-167217292D01*
X63235724Y-167226247D01*
X63230346Y-167232106D01*
X62796740Y-167458673D01*
X62787821Y-167459467D01*
X62783049Y-167456576D01*
X62618423Y-167291950D01*
X62614996Y-167283677D01*
X62616324Y-167278264D01*
X62842894Y-166844651D01*
X62849762Y-166838907D01*
X62857707Y-166839248D01*
G37*
%TD.AperFunction*%
%TD*%
%TA.AperFunction,Conductor*%
%TO.N,/EN3*%
G36*
X53221520Y-169786895D02*
G01*
X53227378Y-169792272D01*
X53427247Y-170174784D01*
X53453946Y-170225879D01*
X53454740Y-170234798D01*
X53451849Y-170239570D01*
X53287223Y-170404196D01*
X53278950Y-170407623D01*
X53273533Y-170406293D01*
X52839925Y-170179725D01*
X52834180Y-170172857D01*
X52834520Y-170164913D01*
X52942709Y-169901434D01*
X52949019Y-169895084D01*
X53212566Y-169786868D01*
X53221520Y-169786895D01*
G37*
%TD.AperFunction*%
%TD*%
%TA.AperFunction,Conductor*%
%TO.N,/EN3*%
G36*
X69874150Y-159758270D02*
G01*
X69877230Y-159760298D01*
X70117501Y-159980042D01*
X70266559Y-160116366D01*
X70270351Y-160124478D01*
X70267297Y-160132896D01*
X70266559Y-160133634D01*
X69877233Y-160489699D01*
X69868815Y-160492753D01*
X69865200Y-160492009D01*
X69232563Y-160252858D01*
X69226036Y-160246727D01*
X69225000Y-160241914D01*
X69225000Y-160008085D01*
X69228427Y-159999812D01*
X69232563Y-159997141D01*
X69865202Y-159757990D01*
X69874150Y-159758270D01*
G37*
%TD.AperFunction*%
%TD*%
%TA.AperFunction,Conductor*%
%TO.N,/UART_RX*%
G36*
X54834125Y-169622815D02*
G01*
X54841344Y-169628112D01*
X54843040Y-169634179D01*
X54843040Y-169867015D01*
X54839613Y-169875288D01*
X54835604Y-169877910D01*
X54375457Y-170057995D01*
X54366504Y-170057819D01*
X54360398Y-170051612D01*
X54250885Y-169789509D01*
X54250859Y-169780556D01*
X54250864Y-169780542D01*
X54360949Y-169517068D01*
X54367300Y-169510758D01*
X54374526Y-169510217D01*
X54834125Y-169622815D01*
G37*
%TD.AperFunction*%
%TD*%
%TA.AperFunction,Conductor*%
%TO.N,/UART_RX*%
G36*
X62832707Y-168139248D02*
G01*
X63096184Y-168247436D01*
X63102536Y-168253748D01*
X63102563Y-168253815D01*
X63210751Y-168517292D01*
X63210724Y-168526247D01*
X63205346Y-168532106D01*
X62771740Y-168758673D01*
X62762821Y-168759467D01*
X62758049Y-168756576D01*
X62593423Y-168591950D01*
X62589996Y-168583677D01*
X62591324Y-168578264D01*
X62817894Y-168144651D01*
X62824762Y-168138907D01*
X62832707Y-168139248D01*
G37*
%TD.AperFunction*%
%TD*%
%TA.AperFunction,Conductor*%
%TO.N,/EN1*%
G36*
X50922709Y-169639248D02*
G01*
X51186186Y-169747436D01*
X51192538Y-169753748D01*
X51192565Y-169753815D01*
X51300753Y-170017292D01*
X51300726Y-170026247D01*
X51295348Y-170032106D01*
X50861742Y-170258673D01*
X50852823Y-170259467D01*
X50848051Y-170256576D01*
X50683425Y-170091950D01*
X50679998Y-170083677D01*
X50681326Y-170078264D01*
X50907896Y-169644651D01*
X50914764Y-169638907D01*
X50922709Y-169639248D01*
G37*
%TD.AperFunction*%
%TD*%
%TA.AperFunction,Conductor*%
%TO.N,/EN1*%
G36*
X69874150Y-162258270D02*
G01*
X69877230Y-162260298D01*
X70117501Y-162480042D01*
X70266559Y-162616366D01*
X70270351Y-162624478D01*
X70267297Y-162632896D01*
X70266559Y-162633634D01*
X69877233Y-162989699D01*
X69868815Y-162992753D01*
X69865200Y-162992009D01*
X69232563Y-162752858D01*
X69226036Y-162746727D01*
X69225000Y-162741914D01*
X69225000Y-162508085D01*
X69228427Y-162499812D01*
X69232563Y-162497141D01*
X69865202Y-162257990D01*
X69874150Y-162258270D01*
G37*
%TD.AperFunction*%
%TD*%
%TA.AperFunction,Conductor*%
%TO.N,+5V*%
G36*
X42445145Y-174554283D02*
G01*
X42449886Y-174561880D01*
X42450045Y-174563765D01*
X42451000Y-174850000D01*
X42450045Y-175136235D01*
X42446590Y-175144497D01*
X42438306Y-175147896D01*
X42436422Y-175147737D01*
X41859779Y-175051639D01*
X41852181Y-175046899D01*
X41850002Y-175040098D01*
X41850002Y-174659921D01*
X41853429Y-174651648D01*
X41859776Y-174648380D01*
X42436422Y-174552263D01*
X42445145Y-174554283D01*
G37*
%TD.AperFunction*%
%TD*%
%TA.AperFunction,Conductor*%
%TO.N,+5V*%
G36*
X55131191Y-174573694D02*
G01*
X55135693Y-174581435D01*
X55135798Y-174582960D01*
X55136746Y-174867254D01*
X55135842Y-174871804D01*
X55024646Y-175137936D01*
X55018294Y-175144248D01*
X55011544Y-175144894D01*
X54962294Y-175134992D01*
X54549049Y-175051898D01*
X54541613Y-175046908D01*
X54539655Y-175040428D01*
X54539655Y-174660238D01*
X54543082Y-174651965D01*
X54549790Y-174648643D01*
X55122536Y-174571404D01*
X55131191Y-174573694D01*
G37*
%TD.AperFunction*%
%TD*%
%TA.AperFunction,Conductor*%
%TO.N,+5V*%
G36*
X42463575Y-174552262D02*
G01*
X43040223Y-174648380D01*
X43047819Y-174653121D01*
X43049998Y-174659921D01*
X43049998Y-175040098D01*
X43046571Y-175048371D01*
X43040221Y-175051639D01*
X42463577Y-175147737D01*
X42454853Y-175145717D01*
X42450113Y-175138119D01*
X42449954Y-175136235D01*
X42449000Y-174850000D01*
X42449954Y-174563765D01*
X42453408Y-174555503D01*
X42461693Y-174552104D01*
X42463575Y-174552262D01*
G37*
%TD.AperFunction*%
%TD*%
%TA.AperFunction,Conductor*%
%TO.N,+5V*%
G36*
X33518913Y-171997623D02*
G01*
X33520133Y-171999069D01*
X33859924Y-172474777D01*
X33861944Y-172483500D01*
X33858676Y-172489850D01*
X33589850Y-172758676D01*
X33581577Y-172762103D01*
X33574777Y-172759924D01*
X33099069Y-172420133D01*
X33094328Y-172412535D01*
X33096348Y-172403812D01*
X33097561Y-172402373D01*
X33299293Y-172199293D01*
X33502367Y-171997567D01*
X33510651Y-171994169D01*
X33518913Y-171997623D01*
G37*
%TD.AperFunction*%
%TD*%
%TA.AperFunction,Conductor*%
%TO.N,Net-(D11-K)*%
G36*
X46268707Y-159586399D02*
G01*
X46271059Y-159588217D01*
X46469628Y-159786786D01*
X46472971Y-159793658D01*
X46523423Y-160211929D01*
X46521011Y-160220553D01*
X46513208Y-160224946D01*
X46511835Y-160225030D01*
X46226655Y-160225701D01*
X46222116Y-160224797D01*
X45960194Y-160115358D01*
X45953882Y-160109006D01*
X45953909Y-160100051D01*
X45954610Y-160098648D01*
X46252695Y-159590568D01*
X46259837Y-159585168D01*
X46268707Y-159586399D01*
G37*
%TD.AperFunction*%
%TD*%
%TA.AperFunction,Conductor*%
%TO.N,Net-(D11-K)*%
G36*
X56132707Y-155864220D02*
G01*
X56396184Y-155972408D01*
X56402536Y-155978720D01*
X56402563Y-155978787D01*
X56510751Y-156242264D01*
X56510724Y-156251219D01*
X56505346Y-156257078D01*
X56071740Y-156483645D01*
X56062821Y-156484439D01*
X56058049Y-156481548D01*
X55893423Y-156316922D01*
X55889996Y-156308649D01*
X55891324Y-156303236D01*
X56117894Y-155869623D01*
X56124762Y-155863879D01*
X56132707Y-155864220D01*
G37*
%TD.AperFunction*%
%TD*%
%TA.AperFunction,Conductor*%
%TO.N,Net-(D2-K)*%
G36*
X46083931Y-161901823D02*
G01*
X46089309Y-161907682D01*
X46199115Y-162170489D01*
X46199142Y-162179444D01*
X46199115Y-162179511D01*
X46089309Y-162442317D01*
X46082957Y-162448629D01*
X46075012Y-162448970D01*
X45608199Y-162302571D01*
X45601330Y-162296825D01*
X45600000Y-162291407D01*
X45600000Y-162058592D01*
X45603427Y-162050319D01*
X45608196Y-162047429D01*
X46075013Y-161901029D01*
X46083931Y-161901823D01*
G37*
%TD.AperFunction*%
%TD*%
%TA.AperFunction,Conductor*%
%TO.N,Net-(D2-K)*%
G36*
X46507707Y-155339246D02*
G01*
X46771184Y-155447434D01*
X46777536Y-155453746D01*
X46777563Y-155453813D01*
X46885751Y-155717290D01*
X46885724Y-155726245D01*
X46880346Y-155732104D01*
X46446740Y-155958671D01*
X46437821Y-155959465D01*
X46433049Y-155956574D01*
X46268423Y-155791948D01*
X46264996Y-155783675D01*
X46266324Y-155778262D01*
X46492894Y-155344649D01*
X46499762Y-155338905D01*
X46507707Y-155339246D01*
G37*
%TD.AperFunction*%
%TD*%
%TA.AperFunction,Conductor*%
%TO.N,/VS2*%
G36*
X46658931Y-153626795D02*
G01*
X46664309Y-153632654D01*
X46774115Y-153895461D01*
X46774142Y-153904416D01*
X46774115Y-153904483D01*
X46664309Y-154167289D01*
X46657957Y-154173601D01*
X46650012Y-154173942D01*
X46183199Y-154027543D01*
X46176330Y-154021797D01*
X46175000Y-154016379D01*
X46175000Y-153783564D01*
X46178427Y-153775291D01*
X46183196Y-153772401D01*
X46650013Y-153626001D01*
X46658931Y-153626795D01*
G37*
%TD.AperFunction*%
%TD*%
%TA.AperFunction,Conductor*%
%TO.N,/VS2*%
G36*
X44684285Y-164116313D02*
G01*
X45117895Y-164342881D01*
X45123641Y-164349750D01*
X45123300Y-164357695D01*
X45015112Y-164621172D01*
X45008800Y-164627524D01*
X45008733Y-164627551D01*
X44745256Y-164735739D01*
X44736301Y-164735712D01*
X44730442Y-164730334D01*
X44503874Y-164296725D01*
X44503081Y-164287809D01*
X44505970Y-164283039D01*
X44670599Y-164118410D01*
X44678871Y-164114984D01*
X44684285Y-164116313D01*
G37*
%TD.AperFunction*%
%TD*%
%TA.AperFunction,Conductor*%
%TO.N,/VS3*%
G36*
X47794529Y-167450182D02*
G01*
X48058006Y-167558370D01*
X48064358Y-167564682D01*
X48064385Y-167564749D01*
X48172573Y-167828226D01*
X48172546Y-167837181D01*
X48167168Y-167843040D01*
X47733562Y-168069607D01*
X47724643Y-168070401D01*
X47719871Y-168067510D01*
X47555245Y-167902884D01*
X47551818Y-167894611D01*
X47553146Y-167889198D01*
X47779716Y-167455585D01*
X47786584Y-167449841D01*
X47794529Y-167450182D01*
G37*
%TD.AperFunction*%
%TD*%
%TA.AperFunction,Conductor*%
%TO.N,/VS3*%
G36*
X38679818Y-153935687D02*
G01*
X38686129Y-153942038D01*
X38686470Y-153949983D01*
X38540071Y-154416797D01*
X38534325Y-154423666D01*
X38528907Y-154424996D01*
X38296093Y-154424996D01*
X38287820Y-154421569D01*
X38284929Y-154416797D01*
X38138529Y-153949983D01*
X38139323Y-153941064D01*
X38145179Y-153935688D01*
X38407990Y-153825879D01*
X38416944Y-153825853D01*
X38679818Y-153935687D01*
G37*
%TD.AperFunction*%
%TD*%
%TA.AperFunction,Conductor*%
%TO.N,+3.3V*%
G36*
X40858931Y-150626823D02*
G01*
X40864309Y-150632682D01*
X40974115Y-150895489D01*
X40974142Y-150904444D01*
X40974115Y-150904511D01*
X40864309Y-151167317D01*
X40857957Y-151173629D01*
X40850012Y-151173970D01*
X40383199Y-151027571D01*
X40376330Y-151021825D01*
X40375000Y-151016407D01*
X40375000Y-150783592D01*
X40378427Y-150775319D01*
X40383196Y-150772429D01*
X40850013Y-150626029D01*
X40858931Y-150626823D01*
G37*
%TD.AperFunction*%
%TD*%
%TA.AperFunction,Conductor*%
%TO.N,+3.3V*%
G36*
X35891802Y-150772429D02*
G01*
X35898670Y-150778174D01*
X35900000Y-150783592D01*
X35900000Y-151016407D01*
X35896573Y-151024680D01*
X35891801Y-151027571D01*
X35424987Y-151173970D01*
X35416068Y-151173176D01*
X35410691Y-151167318D01*
X35300883Y-150904509D01*
X35300857Y-150895556D01*
X35300862Y-150895542D01*
X35410691Y-150632680D01*
X35417042Y-150626370D01*
X35424986Y-150626029D01*
X35891802Y-150772429D01*
G37*
%TD.AperFunction*%
%TD*%
%TA.AperFunction,Conductor*%
%TO.N,+3.3V*%
G36*
X56133931Y-168001823D02*
G01*
X56139309Y-168007682D01*
X56249115Y-168270489D01*
X56249142Y-168279444D01*
X56249115Y-168279511D01*
X56139309Y-168542317D01*
X56132957Y-168548629D01*
X56125012Y-168548970D01*
X55658199Y-168402571D01*
X55651330Y-168396825D01*
X55650000Y-168391407D01*
X55650000Y-168162200D01*
X55653427Y-168153927D01*
X55661700Y-168150500D01*
X55789866Y-168150500D01*
X55927958Y-168109953D01*
X56049033Y-168032143D01*
X56055529Y-168024645D01*
X56060865Y-168021146D01*
X56125013Y-168001029D01*
X56133931Y-168001823D01*
G37*
%TD.AperFunction*%
%TD*%
%TA.AperFunction,Conductor*%
%TO.N,+3.3V*%
G36*
X42483620Y-167727069D02*
G01*
X42489518Y-167733183D01*
X42599115Y-167995489D01*
X42599142Y-168004444D01*
X42599115Y-168004511D01*
X42489126Y-168267754D01*
X42482774Y-168274066D01*
X42475335Y-168274553D01*
X42013678Y-168152305D01*
X42006558Y-168146875D01*
X42004973Y-168140995D01*
X42004973Y-167908154D01*
X42008400Y-167899881D01*
X42012620Y-167897178D01*
X42474674Y-167726717D01*
X42483620Y-167727069D01*
G37*
%TD.AperFunction*%
%TD*%
%TA.AperFunction,Conductor*%
%TO.N,+3.3V*%
G36*
X46238606Y-150602309D02*
G01*
X46805310Y-150698348D01*
X46812893Y-150703109D01*
X46815054Y-150709884D01*
X46815054Y-150991875D01*
X46811627Y-151000148D01*
X46807441Y-151002838D01*
X46350349Y-151173237D01*
X46341400Y-151172916D01*
X46335467Y-151166786D01*
X46224910Y-150902182D01*
X46224007Y-150897640D01*
X46224953Y-150613804D01*
X46228407Y-150605545D01*
X46236692Y-150602146D01*
X46238606Y-150602309D01*
G37*
%TD.AperFunction*%
%TD*%
%TA.AperFunction,Conductor*%
%TO.N,+3.3V*%
G36*
X50309225Y-150576633D02*
G01*
X50314116Y-150582222D01*
X50424115Y-150845489D01*
X50424142Y-150854444D01*
X50424115Y-150854511D01*
X50314116Y-151117777D01*
X50307764Y-151124089D01*
X50300354Y-151124584D01*
X49833734Y-151002289D01*
X49826600Y-150996876D01*
X49825000Y-150990971D01*
X49825000Y-150709028D01*
X49828427Y-150700755D01*
X49833731Y-150697711D01*
X50300354Y-150575415D01*
X50309225Y-150576633D01*
G37*
%TD.AperFunction*%
%TD*%
%TA.AperFunction,Conductor*%
%TO.N,+3.3V*%
G36*
X35567318Y-151010691D02*
G01*
X35573629Y-151017042D01*
X35573970Y-151024987D01*
X35427571Y-151491801D01*
X35421825Y-151498670D01*
X35416407Y-151500000D01*
X35183593Y-151500000D01*
X35175320Y-151496573D01*
X35172429Y-151491801D01*
X35026029Y-151024987D01*
X35026823Y-151016068D01*
X35032679Y-151010692D01*
X35295490Y-150900883D01*
X35304444Y-150900857D01*
X35567318Y-151010691D01*
G37*
%TD.AperFunction*%
%TD*%
%TA.AperFunction,Conductor*%
%TO.N,+3.3V*%
G36*
X42818803Y-167797732D02*
G01*
X42820097Y-167799283D01*
X43147097Y-168267891D01*
X43149021Y-168276636D01*
X43145775Y-168282859D01*
X42981167Y-168447467D01*
X42972894Y-168450894D01*
X42968953Y-168450210D01*
X42496730Y-168281290D01*
X42490095Y-168275277D01*
X42489655Y-168266333D01*
X42489835Y-168265863D01*
X42598394Y-168001480D01*
X42600967Y-167997629D01*
X42802258Y-167797676D01*
X42810541Y-167794278D01*
X42818803Y-167797732D01*
G37*
%TD.AperFunction*%
%TD*%
%TA.AperFunction,Conductor*%
%TO.N,+3.3V*%
G36*
X41566802Y-150772429D02*
G01*
X41573670Y-150778174D01*
X41575000Y-150783592D01*
X41575000Y-151016407D01*
X41571573Y-151024680D01*
X41566801Y-151027571D01*
X41099987Y-151173970D01*
X41091068Y-151173176D01*
X41085691Y-151167318D01*
X40975883Y-150904509D01*
X40975857Y-150895556D01*
X40975862Y-150895542D01*
X41085691Y-150632680D01*
X41092042Y-150626370D01*
X41099986Y-150626029D01*
X41566802Y-150772429D01*
G37*
%TD.AperFunction*%
%TD*%
%TA.AperFunction,Conductor*%
%TO.N,+3.3V*%
G36*
X46108931Y-150626827D02*
G01*
X46114309Y-150632686D01*
X46224115Y-150895493D01*
X46224142Y-150904448D01*
X46224115Y-150904515D01*
X46114309Y-151167321D01*
X46107957Y-151173633D01*
X46100012Y-151173974D01*
X45633200Y-151027571D01*
X45626331Y-151021825D01*
X45625001Y-151016407D01*
X45625001Y-150783592D01*
X45628428Y-150775319D01*
X45633197Y-150772429D01*
X46100013Y-150626033D01*
X46108931Y-150626827D01*
G37*
%TD.AperFunction*%
%TD*%
%TA.AperFunction,Conductor*%
%TO.N,/M1_GL_A*%
G36*
X65402178Y-149324910D02*
G01*
X65665767Y-149435043D01*
X65672079Y-149441395D01*
X65672052Y-149450350D01*
X65671791Y-149450928D01*
X65453193Y-149903471D01*
X65446509Y-149909430D01*
X65442658Y-149910082D01*
X65209870Y-149910082D01*
X65201597Y-149906655D01*
X65198337Y-149900353D01*
X65121424Y-149450350D01*
X65102328Y-149338622D01*
X65104312Y-149329892D01*
X65111890Y-149325120D01*
X65113810Y-149324953D01*
X65397636Y-149324007D01*
X65402178Y-149324910D01*
G37*
%TD.AperFunction*%
%TD*%
%TA.AperFunction,Conductor*%
%TO.N,/M1_GL_A*%
G36*
X56309707Y-167522429D02*
G01*
X56316575Y-167528174D01*
X56317905Y-167533592D01*
X56317905Y-167762800D01*
X56314478Y-167771073D01*
X56306205Y-167774500D01*
X56178038Y-167774500D01*
X56081649Y-167802801D01*
X56079609Y-167803207D01*
X56063525Y-167804943D01*
X56063520Y-167804944D01*
X55999374Y-167825061D01*
X55999368Y-167825063D01*
X55948182Y-167849295D01*
X55948180Y-167849296D01*
X55942839Y-167852798D01*
X55929220Y-167864709D01*
X55927844Y-167865745D01*
X55844359Y-167919398D01*
X55835546Y-167920988D01*
X55828190Y-167915881D01*
X55827237Y-167914066D01*
X55807047Y-167865745D01*
X55718788Y-167654509D01*
X55718762Y-167645555D01*
X55828596Y-167382680D01*
X55834947Y-167376370D01*
X55842891Y-167376029D01*
X56309707Y-167522429D01*
G37*
%TD.AperFunction*%
%TD*%
%TA.AperFunction,Conductor*%
%TO.N,/M1_GL_B*%
G36*
X57191950Y-166493421D02*
G01*
X57356576Y-166658047D01*
X57360003Y-166666320D01*
X57358673Y-166671738D01*
X57132106Y-167105344D01*
X57125237Y-167111090D01*
X57117292Y-167110749D01*
X56853815Y-167002561D01*
X56847463Y-166996249D01*
X56847436Y-166996182D01*
X56739248Y-166732705D01*
X56739275Y-166723750D01*
X56744651Y-166717892D01*
X57178262Y-166491323D01*
X57187178Y-166490530D01*
X57191950Y-166493421D01*
G37*
%TD.AperFunction*%
%TD*%
%TA.AperFunction,Conductor*%
%TO.N,/M1_GL_B*%
G36*
X55967318Y-149435691D02*
G01*
X55973629Y-149442042D01*
X55973970Y-149449987D01*
X55827571Y-149916801D01*
X55821825Y-149923670D01*
X55816407Y-149925000D01*
X55583593Y-149925000D01*
X55575320Y-149921573D01*
X55572429Y-149916801D01*
X55426029Y-149449987D01*
X55426823Y-149441068D01*
X55432679Y-149435692D01*
X55695490Y-149325883D01*
X55704444Y-149325857D01*
X55967318Y-149435691D01*
G37*
%TD.AperFunction*%
%TD*%
%TA.AperFunction,Conductor*%
%TO.N,/M1_GH_C*%
G36*
X37616798Y-151797437D02*
G01*
X37623666Y-151803182D01*
X37624996Y-151808600D01*
X37624996Y-152041415D01*
X37621569Y-152049688D01*
X37616797Y-152052579D01*
X37149983Y-152198978D01*
X37141064Y-152198184D01*
X37135687Y-152192326D01*
X37025879Y-151929517D01*
X37025853Y-151920564D01*
X37025858Y-151920550D01*
X37135687Y-151657688D01*
X37142038Y-151651378D01*
X37149982Y-151651037D01*
X37616798Y-151797437D01*
G37*
%TD.AperFunction*%
%TD*%
%TA.AperFunction,Conductor*%
%TO.N,/M1_GH_C*%
G36*
X47128534Y-167006945D02*
G01*
X47392011Y-167115133D01*
X47398363Y-167121445D01*
X47398390Y-167121512D01*
X47506578Y-167384989D01*
X47506551Y-167393944D01*
X47501173Y-167399803D01*
X47067567Y-167626370D01*
X47058648Y-167627164D01*
X47053876Y-167624273D01*
X46889250Y-167459647D01*
X46885823Y-167451374D01*
X46887151Y-167445961D01*
X47113721Y-167012348D01*
X47120589Y-167006604D01*
X47128534Y-167006945D01*
G37*
%TD.AperFunction*%
%TD*%
%TA.AperFunction,Conductor*%
%TO.N,/M1_GL_C*%
G36*
X57391950Y-165243447D02*
G01*
X57556576Y-165408073D01*
X57560003Y-165416346D01*
X57558673Y-165421764D01*
X57332106Y-165855370D01*
X57325237Y-165861116D01*
X57317292Y-165860775D01*
X57053815Y-165752587D01*
X57047463Y-165746275D01*
X57047436Y-165746208D01*
X56939248Y-165482731D01*
X56939275Y-165473776D01*
X56944651Y-165467918D01*
X57378262Y-165241349D01*
X57387178Y-165240556D01*
X57391950Y-165243447D01*
G37*
%TD.AperFunction*%
%TD*%
%TA.AperFunction,Conductor*%
%TO.N,/M1_GL_C*%
G36*
X46251247Y-148489275D02*
G01*
X46257105Y-148494652D01*
X46456974Y-148877164D01*
X46483673Y-148928259D01*
X46484467Y-148937178D01*
X46481576Y-148941950D01*
X46316950Y-149106576D01*
X46308677Y-149110003D01*
X46303260Y-149108673D01*
X45869652Y-148882105D01*
X45863907Y-148875237D01*
X45864247Y-148867293D01*
X45972436Y-148603814D01*
X45978746Y-148597464D01*
X46242293Y-148489248D01*
X46251247Y-148489275D01*
G37*
%TD.AperFunction*%
%TD*%
%TA.AperFunction,Conductor*%
%TO.N,/HIN_2*%
G36*
X57341267Y-159347711D02*
G01*
X57348400Y-159353123D01*
X57350000Y-159359028D01*
X57350000Y-159640971D01*
X57346573Y-159649244D01*
X57341266Y-159652289D01*
X56874645Y-159774584D01*
X56865774Y-159773366D01*
X56860883Y-159767777D01*
X56849902Y-159741497D01*
X56750883Y-159504509D01*
X56750857Y-159495556D01*
X56750862Y-159495542D01*
X56860883Y-159232221D01*
X56867235Y-159225910D01*
X56874645Y-159225415D01*
X57341267Y-159347711D01*
G37*
%TD.AperFunction*%
%TD*%
%TA.AperFunction,Conductor*%
%TO.N,/HIN_2*%
G36*
X58245385Y-162898027D02*
G01*
X58247283Y-162899565D01*
X58446567Y-163098849D01*
X58449994Y-163107122D01*
X58446567Y-163115395D01*
X58446483Y-163115478D01*
X58070377Y-163484051D01*
X58062070Y-163487394D01*
X58053942Y-163483996D01*
X57850970Y-163282373D01*
X57848393Y-163278516D01*
X57740523Y-163015812D01*
X57740550Y-163006857D01*
X57746902Y-163000545D01*
X57748916Y-162999923D01*
X58236582Y-162896393D01*
X58245385Y-162898027D01*
G37*
%TD.AperFunction*%
%TD*%
%TA.AperFunction,Conductor*%
%TO.N,/HIN_3*%
G36*
X56684225Y-163851639D02*
G01*
X56689116Y-163857228D01*
X56799115Y-164120495D01*
X56799142Y-164129450D01*
X56799115Y-164129517D01*
X56689116Y-164392783D01*
X56682764Y-164399095D01*
X56675354Y-164399590D01*
X56208734Y-164277295D01*
X56201600Y-164271882D01*
X56200000Y-164265977D01*
X56200000Y-163984034D01*
X56203427Y-163975761D01*
X56208731Y-163972717D01*
X56675354Y-163850421D01*
X56684225Y-163851639D01*
G37*
%TD.AperFunction*%
%TD*%
%TA.AperFunction,Conductor*%
%TO.N,/HIN_3*%
G36*
X57212358Y-161041562D02*
G01*
X57217249Y-161047151D01*
X57327248Y-161310418D01*
X57327275Y-161319373D01*
X57327248Y-161319440D01*
X57217249Y-161582706D01*
X57210897Y-161589018D01*
X57203487Y-161589513D01*
X56736867Y-161467218D01*
X56729733Y-161461805D01*
X56728133Y-161455900D01*
X56728133Y-161173957D01*
X56731560Y-161165684D01*
X56736864Y-161162640D01*
X57203487Y-161040344D01*
X57212358Y-161041562D01*
G37*
%TD.AperFunction*%
%TD*%
M02*
